<svg xmlns="http://www.w3.org/2000/svg" xmlns:xlink="http://www.w3.org/1999/xlink" width="14.683" height="14.684" viewBox="0 0 14.683 14.684">
  <defs>
    <clipPath id="clip-path">
      <rect id="Rectangle_677" data-name="Rectangle 677" width="14.683" height="14.684" transform="translate(137.722 260.616)" fill="none"/>
    </clipPath>
  </defs>
  <g id="Group_892" data-name="Group 892" transform="translate(-137.722 -260.616)">
    <g id="Group_520" data-name="Group 520" clip-path="url(#clip-path)">
      <path id="Path_2106" data-name="Path 2106" d="M152.406,267.958a7.342,7.342,0,1,1-7.343-7.342,7.343,7.343,0,0,1,7.343,7.342" fill="#1a1311"/>
      <path id="Path_2107" data-name="Path 2107" d="M141.618,265.063c.1-.1.193-.2.3-.3.134-.143.267-.285.4-.427s.259-.292.385-.45.241-.31.368-.457.256-.294.391-.444a.532.532,0,0,1,.077-.065l.077-.054a.836.836,0,0,1,.148-.077.257.257,0,0,1,.16-.006,1.114,1.114,0,0,0,.9-.023.551.551,0,0,0,.13-.012c.364-.055.53.1.5.474a14.23,14.23,0,0,0-.113,1.464c-.011.485-.014.977,0,1.475.007.379.019.759.035,1.138a9.014,9.014,0,0,1-.024,1.138c-.016.316-.017.634-.006.954s.026.634.042.942a4.266,4.266,0,0,0,.053.522,2.042,2.042,0,0,1,.018.521.182.182,0,0,0,.053.119.213.213,0,0,0,.113.071c.079.024.16.045.243.065s.168.037.255.053a.448.448,0,0,1,.249.2.263.263,0,0,1,.011.136.164.164,0,0,1-.059.113l-.113.065a.4.4,0,0,1-.124.041.619.619,0,0,1-.154.03c-.055,0-.11.006-.166.006l-.782-.024q-.392-.012-.782-.012h-.723a4.549,4.549,0,0,1-.9-.083c-.04-.016-.081-.033-.124-.053l-.125-.053a.155.155,0,0,1-.047-.107.142.142,0,0,1,.035-.13.784.784,0,0,1,.1-.083.426.426,0,0,1,.107-.059.206.206,0,0,1,.1-.024h.094c.166.008.293.01.38.006a.24.24,0,0,0,.183-.071.346.346,0,0,0,.06-.2c0-.091.005-.219.005-.385q-.022-.51-.023-1.013t.011-1c.008-.1.018-.2.03-.3s.022-.2.03-.291c.008-.055.014-.11.018-.166s.01-.11.018-.166c0-.315.006-.63.017-.942s.014-.626.006-.942v-1.647c0-.04-.023-.067-.071-.083a.093.093,0,0,0-.107.023c-.078.079-.15.154-.213.226s-.13.142-.2.213c-.064.087-.129.168-.2.243a1.058,1.058,0,0,1-.266.207.692.692,0,0,0-.184.178,1.722,1.722,0,0,1-.172.2.244.244,0,0,1-.166.066.335.335,0,0,1-.2-.054.732.732,0,0,1-.284-.355,1.8,1.8,0,0,1,.249-.326m2.963-1.618-.048.036.048.012Z" fill="#fff3d8"/>
      <path id="Path_2108" data-name="Path 2108" d="M148.053,266.167c.034.067.064.134.091.2l.06.145a.911.911,0,0,0,.064.124c.024.04.051.083.081.128s.063.094.1.147c.013-.008.027-.018.043-.03a.13.13,0,0,0,.037-.037,1.588,1.588,0,0,0,.141-.261,1.953,1.953,0,0,1,.124-.256c.047-.081.1-.159.145-.235a.849.849,0,0,0,.05-.077.088.088,0,0,0,.013-.057.12.12,0,0,0-.026-.057c-.016-.021-.04-.048-.071-.084a.276.276,0,0,1-.023-.027.3.3,0,0,0-.024-.027.121.121,0,0,1,0-.054.065.065,0,0,1,.034-.047.977.977,0,0,1,.1-.06.146.146,0,0,1,.1-.014.793.793,0,0,0,.239.031.975.975,0,0,0,.232-.037.691.691,0,0,1,.1-.007h.091a.242.242,0,0,1,.188.094.171.171,0,0,1,.04.175.129.129,0,0,1-.121.073.2.2,0,0,0-.138.034.552.552,0,0,0-.11.107c-.041.063-.08.125-.118.185s-.075.124-.111.192a1.135,1.135,0,0,1-.074.127.678.678,0,0,1-.094.114c-.071.077-.141.155-.208.235s-.132.164-.195.249a.271.271,0,0,0-.053.077.768.768,0,0,1-.041.077.4.4,0,0,0-.007.3c.01.018.017.035.024.051s.014.032.024.05a4.8,4.8,0,0,1,.285.54c.083.186.173.369.272.548a.556.556,0,0,1,.05.12.547.547,0,0,0,.051.121c.018.054.038.106.06.155l.068.148a.467.467,0,0,0,.137.2.252.252,0,0,0,.225.034.072.072,0,0,1,.074.013.274.274,0,0,1,.047.031.166.166,0,0,1,.034.043.176.176,0,0,1,0,.175.191.191,0,0,1-.148.094.459.459,0,0,0-.057,0,.162.162,0,0,1-.057,0,1.628,1.628,0,0,0-.333-.02l-.332.013a2.073,2.073,0,0,1-.222,0c-.072,0-.145-.005-.222-.009a.245.245,0,0,1-.087-.031c-.027-.015-.054-.03-.081-.043a.073.073,0,0,1-.043-.057.128.128,0,0,1,0-.078.85.85,0,0,1,.121-.174c0-.023-.008-.042-.01-.057s-.006-.033-.01-.051c-.049-.143-.1-.282-.165-.416s-.126-.269-.2-.4a.293.293,0,0,0-.067-.088.058.058,0,0,0-.047-.01.056.056,0,0,0-.047.031.615.615,0,0,1-.047.077.283.283,0,0,0-.04.077,2.411,2.411,0,0,1-.289.565.177.177,0,0,0-.014.207.662.662,0,0,1,.061.128.175.175,0,0,1-.007.158.182.182,0,0,1-.141.077l-.292.054a2.175,2.175,0,0,1-.292.034,1.014,1.014,0,0,1-.235-.027,1.525,1.525,0,0,1-.229-.074.112.112,0,0,1-.06-.047.115.115,0,0,1,.007-.162,1.213,1.213,0,0,1,.114-.063.971.971,0,0,1,.121-.051.385.385,0,0,1,.087-.016.515.515,0,0,0,.094-.017.189.189,0,0,0,.134-.115,2.624,2.624,0,0,1,.3-.52c.116-.159.226-.323.329-.494a.686.686,0,0,0,.074-.127c.045-.067.079-.121.1-.161a.227.227,0,0,0,.037-.111.225.225,0,0,0-.034-.111c-.022-.04-.056-.1-.1-.175a.728.728,0,0,1-.084-.164l-.064-.172c-.077-.259-.157-.505-.242-.738a1.13,1.13,0,0,0-.091-.209c-.038-.067-.075-.131-.11-.194a.587.587,0,0,0-.115-.141.3.3,0,0,0-.168-.074.272.272,0,0,1-.208-.134.138.138,0,0,1-.013-.142.356.356,0,0,1,.05-.074.108.108,0,0,1,.084-.033h.094a.381.381,0,0,1,.094.013,2.219,2.219,0,0,0,.813-.013.321.321,0,0,1,.242.053.134.134,0,0,1,.064.091.116.116,0,0,1-.024.1c-.022.022-.045.044-.067.067a.188.188,0,0,0-.047.087c.036.063.07.128.1.2" fill="#fff3d8"/>
    </g>
  </g>
</svg>
