<svg xmlns="http://www.w3.org/2000/svg" xmlns:xlink="http://www.w3.org/1999/xlink" width="148.75" height="215.843" viewBox="0 0 148.75 215.843">
  <defs>
    <clipPath id="clip-path">
      <path id="Path_559" data-name="Path 559" d="M55.8,189.8s-13.282,0-13.282,12.4V393.236c0,.192.1,12.4,13.282,12.4H177.986s13.284,0,13.284-12.405V202.2s0-12.4-13.284-12.4Z" transform="translate(-42.52 -189.796)" fill="none"/>
    </clipPath>
    <clipPath id="clip-path-2">
      <rect id="Rectangle_766" data-name="Rectangle 766" width="62.592" height="31.217" fill="none"/>
    </clipPath>
  </defs>
  <g id="Group_786" data-name="Group 786" transform="translate(-42.52 -189.796)">
    <g id="Group_210" data-name="Group 210" transform="translate(42.52 189.796)">
      <g id="Group_209" data-name="Group 209" clip-path="url(#clip-path)">
        <path id="Path_2855" data-name="Path 2855" d="M0,0H164.687V230.731H0Z" transform="translate(-7.968 -7.443)" fill="#91ac52"/>
        <path id="Path_555" data-name="Path 555" d="M89.261,248.695l.29.138a7.822,7.822,0,0,0,.671,1.21l.189.04a7.307,7.307,0,0,1,1.3-1.127l.349.072a1.7,1.7,0,0,1,.436.761l.151.422.189.1.287-.207c.367-.324.744-.637,1.106-.955l.139-.021.335.332c.123.313.274.612.374.912l.205.166.219-.021a11.057,11.057,0,0,1,1.3-.748l.287.19.162.646.233.384.176.028a2.729,2.729,0,0,0,.983-.482l.465-.107.112.2-.021,1.008.267.362c.511-.256,1.052-.486,1.533-.767l.242.313c.062.249-.011.52.039.771l.267.426a8.751,8.751,0,0,1,1.225-.509l.461.119.1.339.1.541.027.452.2.09c.319-.055.6-.177.938-.209l.454,0,.187.269-.036.4c.039.209.071.426.091.624l.463.117a4.449,4.449,0,0,1,.723-.13l.205.264a6.428,6.428,0,0,0-.192,1.008l.157.147c.463-.023.853-.087,1.259-.128l.237.424a2.8,2.8,0,0,0-.251.993l.16.145a4.238,4.238,0,0,0,1.129-.03l.333.117.016.156a10.3,10.3,0,0,0-.3,1.106l.135.132a13.293,13.293,0,0,0,1.4-.006l.066.245a7.364,7.364,0,0,1-.579.98l-.073.258.176.175a12.1,12.1,0,0,0,1.323.111l.153.234a4.382,4.382,0,0,1-.484.8l-.228.273.4.254a7.56,7.56,0,0,0,1.125.209l.164.194c-.153.241-.379.484-.573.744l-.189.339.119.173a6.29,6.29,0,0,0,1.371.337l.141.164-.228.311c-.287.3-.545.633-.84.893l.144.251c.44.134.906.241,1.339.4l.283.254-.03.1c-.39.3-.693.688-1.07,1.023.059.2.258.279.415.369.292.164.6.311.917.45l.185.162-.121.239a4.612,4.612,0,0,0-.678.577l-.03.051.2.215c.249.151.509.3.764.462l.276.26-.007.181a8.822,8.822,0,0,1-1.063.652l-.1.17.114.126a2.547,2.547,0,0,1,.627.352l.47.249a.369.369,0,0,1,.176.447.724.724,0,0,1-.641.326l-.552.294.039.187a10.58,10.58,0,0,1,1.079.667l.073.156-.192.209a3.106,3.106,0,0,0-1.02.535l-.31.2.082.16a3.9,3.9,0,0,1,.849.563l.328.275v.07l-.328.175a4.387,4.387,0,0,1-.584.217l-.536.251-.082.177a4.634,4.634,0,0,0,.99.788l.169.234-.406.279c-.294.111-.625.177-.938.271l-.169.156.052.141a5.862,5.862,0,0,0,.931.765l-.08.4c-.468.136-.995.211-1.485.324l-.157.209a11.137,11.137,0,0,0,1,1.168l-.036.228a3.134,3.134,0,0,1-1.154.3l-.057.141a2.879,2.879,0,0,1,.668.744l-.1.369c-.5.034-.917.143-1.408.181l-.116.162c.182.469.392.908.573,1.372l-.356.266-1.2-.083-.155.16c.1.454.167.952.278,1.419l-.176.268-.445,0c-.244-.038-.516-.043-.76-.064l-.185.2a13.048,13.048,0,0,0,.258,1.481l-.3.288-.96.077-.189.183a5.866,5.866,0,0,0,.075.976l-.137.181h-.162c-.4-.141-.792-.258-1.184-.379l-.217.422a6.07,6.07,0,0,0,.068.876l-.224.228-.258-.075a9.737,9.737,0,0,0-.954-.407l-.23.213a12.367,12.367,0,0,1-.071,1.27l-.383.245a1.5,1.5,0,0,1-.568-.222l-.472-.19-.246.2c-.173.411-.269.891-.44,1.317l-.3.1c-.285-.147-.563-.311-.869-.439l-.244.03-.119.232c-.071.3-.1.612-.162.927l-.37.173a3.371,3.371,0,0,1-.913-.631l-.283,0a4.511,4.511,0,0,0-.586,1.229l-.351.092c-.354-.16-.548-.479-.851-.684l-.224-.019-.205.369c-.144.332-.244.663-.406.974l-.189.032a4.721,4.721,0,0,0-1.111-.837l-.235.187a3.887,3.887,0,0,1-.543.759l-.333.36c-.249-.09-.367-.337-.534-.52l-.44-.422-.2-.032L91.791,297.5l-.242,0a11.7,11.7,0,0,1-.794-.948l-.24-.187-.255.1a13.321,13.321,0,0,0-1.1,1.074l-.219.028a5.258,5.258,0,0,1-.682-.906l-.224-.311-.276-.036a7.366,7.366,0,0,0-1.143,1.144l-.171,0-.205-.224c-.2-.339-.271-.771-.568-1.014l-.173-.107-.34.164a5.713,5.713,0,0,0-.814.68l-.153.026a11.05,11.05,0,0,1-.767-1.163l-.235-.362-.244.026a10.472,10.472,0,0,0-1.189.929l-.219,0-.11-.175a5.366,5.366,0,0,0-.214-1.513l-.183-.09c-.543.315-1.074.641-1.583.978l-.287-.23a5.808,5.808,0,0,0-.039-1.215l-.167-.128-.456.2c-.354.187-.668.407-1.006.582l-.26-.179a12.307,12.307,0,0,1,.08-1.4l-.182-.141c-.212.072-.424.194-.682.288l-.821.33-.381-.2a4.071,4.071,0,0,1,.24-1.315l-.155-.179a1.711,1.711,0,0,0-.865.307,1.225,1.225,0,0,1-.678.188l-.23-.3a5.3,5.3,0,0,0,.322-1.085l-.162-.17a11.419,11.419,0,0,0-1.351.29L72,291.12l-.059-.181.2-.844-.187-.228-1.027-.015-.365.064-.221-.294a7.726,7.726,0,0,0,.408-1.379l-.157-.16a12.821,12.821,0,0,1-1.373-.015.455.455,0,0,1-.265-.565,3.634,3.634,0,0,1,.4-.972l-.141-.2a4.117,4.117,0,0,1-1.446-.173l-.194-.392a2.548,2.548,0,0,1,.415-.7l.148-.313-.429-.249c-.329-.1-.732-.111-1.072-.207l-.2-.283a3.34,3.34,0,0,1,.616-.906l.091-.341-.2-.126c-.413-.13-.89-.183-1.291-.322l-.139-.377a6.459,6.459,0,0,1,.924-1.014l-.075-.2a8.219,8.219,0,0,0-1.378-.467L64.742,280l.1-.187c.271-.3.6-.539.86-.842l-.032-.249a7.181,7.181,0,0,0-1.218-.6l-.107-.3a3.486,3.486,0,0,1,.949-.8l.009-.26a4.834,4.834,0,0,1-1.246-.729l-.023-.228c.153-.381.6-.5.928-.718l.055-.309a7.831,7.831,0,0,0-1.1-.673l-.075-.441c.338-.3.767-.5,1.134-.773l-.03-.245c-.347-.345-.771-.626-1.125-.97l-.009-.228c.23-.292.657-.4.949-.633l.192-.264a5.441,5.441,0,0,0-.575-.707,2.04,2.04,0,0,1-.417-.526l.358-.332a5.711,5.711,0,0,0,.8-.433l.062-.17a6.741,6.741,0,0,1-.735-1.057l-.05-.207a.828.828,0,0,1,.7-.58l.511-.145.1-.228a6.315,6.315,0,0,1-.659-1.3l.139-.384a1,1,0,0,1,.591-.241l.436-.087.436-.062.089-.145a6.979,6.979,0,0,1-.532-1.261.454.454,0,0,1,.267-.569,4.143,4.143,0,0,0,1.077-.092l.125-.177a8.978,8.978,0,0,0-.413-1.229l.032-.143c.08-.168.335-.164.568-.179.376-.023.748-.047,1.093-.1l.244-.311-.319-.98-.162-.347.18-.207.573-.009a3.452,3.452,0,0,0,.926.077l.167-.222c-.052-.49-.121-.948-.2-1.411l.162-.29.2.015a5.667,5.667,0,0,0,.844.251l.358-.2a10.486,10.486,0,0,1-.148-1.078.364.364,0,0,1,.31-.358l1.417.264.137-.128v-1.131a.5.5,0,0,1,.155-.618l.315-.019a8.657,8.657,0,0,0,1.163.5l.226-.194a12.186,12.186,0,0,1,.233-1.313l.324-.3c.356.2.735.349,1.09.533l.2,0,.121-.177.283-1.025.548-.121.992.546.256-.211c.116-.4.313-.744.429-1.112l.212-.132a5.643,5.643,0,0,1,.618.335,3.843,3.843,0,0,1,.623.373l.317-.381c.119-.3.2-.637.319-.935l.335-.2.139.072a4.642,4.642,0,0,0,.785.663l.226.006.205-.268a6.519,6.519,0,0,1,.411-.808l.379-.128c.3.281.573.626.883.942l.249-.047c.283-.356.552-.718.814-1.1l.313-.228c.212.06.313.288.42.469a8.11,8.11,0,0,1,.668.75l.23-.066a13.629,13.629,0,0,0,1.054-1.2Z" transform="translate(-15.241 -123.196)" fill="#fff3d8"/>
        <path id="Path_556" data-name="Path 556" d="M60.569,256.554l2.037,5.9,6.636-.011-5.375,3.635,2.062,5.892-5.361-3.654-5.363,3.654,2.065-5.892-5.377-3.635,6.636.011Z" transform="translate(-30.511 -114.309)" fill="#fff3d8"/>
        <path id="Path_557" data-name="Path 557" d="M99.421,256.554l2.037,5.9,6.636-.011-5.375,3.635,2.062,5.892-5.361-3.654-5.363,3.654,2.065-5.892-5.377-3.635,6.636.011Z" transform="translate(19.27 -114.309)" fill="#fff3d8"/>
      </g>
      <g id="Group_804" data-name="Group 804" transform="translate(-394.911 -33.267)">
        <g id="Group_801" data-name="Group 801" transform="translate(437.911 167.451)">
          <path id="Path_3007" data-name="Path 3007" d="M500.036,186.553a5.765,5.765,0,0,1-1.063-.759c-.245-.291.013-.664.018-.749l.373-.35a3.416,3.416,0,0,0,.784-1.372,2.265,2.265,0,0,0-.542-1.48,6.083,6.083,0,0,0-1.436-1.015,17.135,17.135,0,0,0-2.2-.56l-1.038.143.113.107-.675.049-.074-.064,1.014-.526.125-.092a2.083,2.083,0,0,0,1.014-1.255,1.917,1.917,0,0,0-.059-1.232,2.152,2.152,0,0,0-.1-.772,8.264,8.264,0,0,0-1.015-1.669,18.186,18.186,0,0,0-1.835-1.794c-.074-.043-1.229-.866-1.528-1.053s-2.458-1.273-2.645-1.347l-3.46-1.229-1.735-.6c-.2-.069-2.913-.59-3.8-.741s-5.474-.575-6.445-.641-4.84-.148-6.4-.115-5.709.235-7.038.371-5.668.68-7.329,1.112a22.042,22.042,0,0,0-3.552,1.321c-.33.151-1.653.989-1.845,1.124l-.8.7-.544.355.072.148a11.2,11.2,0,0,0-1.135,1.124l-.376.2a9.061,9.061,0,0,0-1.244,1,2.758,2.758,0,0,0-.613,1.492c-.074.542-.2,1.4-.176,1.482a2.676,2.676,0,0,0,.049.979,3.225,3.225,0,0,0,1.222,1.848,4.536,4.536,0,0,0,1.017.5l-.2.089c-.1.026-2.481.386-2.9.5a7.376,7.376,0,0,0-2.752,1.515,4.3,4.3,0,0,0-1.068,1.472l-.3.723.245.365.281.276.58.153c.222-.02.532-.023.91-.084.281-.046,1.234-.286,1.738-.4l.46.02.13.115-.036.176-.976.286-.115.342a3.6,3.6,0,0,0,.138.945l.171.626.345.544a1.03,1.03,0,0,0,.3.652l.005.005-.031.1.4.417.166.176a8.715,8.715,0,0,0,1.349,1.648l.054.138s.644.92,1.2,1.8a3.387,3.387,0,0,0,1.761,1.671c.889.378,4.727,1.482,5.364,1.618s7.485,1.04,8.814,1.132,8.149.445,9.453.442,7.83-.422,9.805-.608a66.694,66.694,0,0,0,8.607-1.9,30.042,30.042,0,0,0,5.561-2.366c.327-.179,2.382-4.625,2.972-5.463a1.556,1.556,0,0,0,.238-1.17l.452-.537c.958.166,1.981.35,1.981.35l.263-.046Z" transform="translate(-437.911 -167.431)" fill="#fff3d8"/>
        </g>
        <g id="Group_803" data-name="Group 803" transform="translate(437.911 167.418)">
          <g id="Group_802" data-name="Group 802" clip-path="url(#clip-path-2)">
            <path id="Path_3008" data-name="Path 3008" d="M441.352,172.577l.135-.181.427-.261s.049-.118.312-.291a24.777,24.777,0,0,1,2.387-1.17,48.824,48.824,0,0,1,5.717-1.538c1.191-.181,4.372-.491,4.791-.544s5.655-.325,6.685-.337,6.409.089,7.891.141,5.842.739,6.606.882,2.862.728,2.995.754,2.6.82,2.857.935,1.694.756,2.55,1.163a24.7,24.7,0,0,1,3.084,1.988c.148.166,1.569,1.434,1.781,1.684a8.181,8.181,0,0,1,.963,1.784c.115.422.184.526.238.575s.174-.049.233-.064.12-.24.192-.506a1.807,1.807,0,0,0-.059-.976,8.243,8.243,0,0,0-1.014-1.666,18.534,18.534,0,0,0-1.832-1.794c-.074-.041-1.227-.861-1.526-1.05s-2.456-1.27-2.64-1.344-3.455-1.227-3.455-1.227-1.531-.534-1.735-.6-2.91-.59-3.8-.741-5.469-.575-6.437-.641-4.832-.146-6.394-.112-5.7.235-7.03.368-5.66.68-7.321,1.112a21.934,21.934,0,0,0-3.544,1.319c-.33.153-1.651.989-1.843,1.122s-.749.659-.8.7-.544.355-.544.355c-.118.094.13.171.13.171" transform="translate(-432.811 -167.402)" fill="#1a1311"/>
            <path id="Path_3009" data-name="Path 3009" d="M444.864,175.3c-.135.036-.013.107-.013.107a2.46,2.46,0,0,0,.79.465c.355.089,4.651.611,5.673.726s5.487.34,7,.424,5.2-.015,7.255-.141,5.88-.491,7.853-.759a48.186,48.186,0,0,0,7.25-1.526c2.262-.721,2.5-1.117,2.745-1.37a2.323,2.323,0,0,0,.225-1.528,1.893,1.893,0,0,0-.243-.511.97.97,0,0,0-.991-.227,1.871,1.871,0,0,0-1.032.613,2.305,2.305,0,0,0-.414.981c-.061.222-.161.394-.721.838a11.465,11.465,0,0,1-2.8,1.342,40.69,40.69,0,0,1-4.546.91c-.647.051-4.176.376-4.8.422s-4.413.11-5.134.12-4.393-.123-4.669-.151-3.866-.082-4.776-.082-5.913-.388-6.5-.5a13.751,13.751,0,0,0-2.152-.156" transform="translate(-427.196 -161.972)" fill="#1a1311"/>
            <path id="Path_3010" data-name="Path 3010" d="M446.344,169.683l-.483.432-.475.266s-.411.5-.34.56.181.059.391.028a3.408,3.408,0,0,0,.81-.44c.284-.158.332-.583.342-.749s-.245-.1-.245-.1" transform="translate(-426.826 -163.918)" fill="#1a1311"/>
            <path id="Path_3011" data-name="Path 3011" d="M444.937,169.4l1.14.072a5.81,5.81,0,0,0,.654-.207.228.228,0,0,0,.14-.092l.174-.394.046-.1-.1-.056a4.971,4.971,0,0,0-1.1.273c-.2.054-.189.1-.189.1s-.514.222-.59.243-.176.158-.176.158" transform="translate(-426.983 -165.56)" fill="#1a1311"/>
            <path id="Path_3012" data-name="Path 3012" d="M448.167,168.868a3.719,3.719,0,0,0-1.012.194l-.813.332-.031.089a2.608,2.608,0,0,0,.6.107,2.838,2.838,0,0,0,1.053-.151c.24-.12.35-.12.468-.291s-.113-.215-.268-.281" transform="translate(-424.844 -165.18)" fill="#1a1311"/>
            <path id="Path_3013" data-name="Path 3013" d="M447.39,170.373a7.269,7.269,0,0,1-.823.388s-.158.125-.112.194.4.056.718.023a1.76,1.76,0,0,0,1.122-.5c.192-.3.1-.245,0-.409s-.7.164-.9.3" transform="translate(-424.634 -163.361)" fill="#1a1311"/>
            <path id="Path_3014" data-name="Path 3014" d="M447.776,170.225a2.539,2.539,0,0,0,1.035-.309,1.418,1.418,0,0,0,.307-.685s.059-.181-.018-.268-.312.166-.312.166-.723.552-1,.82-.148.261-.008.276" transform="translate(-422.814 -165.045)" fill="#1a1311"/>
            <path id="Path_3015" data-name="Path 3015" d="M449.52,168.64a.632.632,0,0,0,.365-.565.7.7,0,0,0-.23-.046,16.248,16.248,0,0,0-1.9.547c-.115.084.118.13.317.158a4.39,4.39,0,0,0,1.449-.095" transform="translate(-422.648 -166.468)" fill="#1a1311"/>
            <path id="Path_3016" data-name="Path 3016" d="M449.085,169.251a5.434,5.434,0,0,0,1.352-.151c.419-.169.437-.337.45-.56.005-.084-.048-.179-.2-.135s-.907.273-.984.3-.825.388-.8.465a.148.148,0,0,0,.187.084" transform="translate(-420.822 -165.9)" fill="#1a1311"/>
            <path id="Path_3017" data-name="Path 3017" d="M449.006,170.559a11.357,11.357,0,0,0,1.592-.381c.112-.084.008-.465.008-.465-.041-.153-.956.2-1.2.3s-.825.388-.825.388a1.2,1.2,0,0,0,.427.158" transform="translate(-421.318 -163.907)" fill="#1a1311"/>
            <path id="Path_3018" data-name="Path 3018" d="M451.525,170.341a.355.355,0,0,0,.059-.59,2.7,2.7,0,0,0-1.183-.524c-.365-.038-.782-.061-.7.028,0,0,1.043.616,1.252.779a1.377,1.377,0,0,0,.575.307" transform="translate(-419.592 -164.658)" fill="#1a1311"/>
            <path id="Path_3019" data-name="Path 3019" d="M451.708,168.7a6.026,6.026,0,0,0-.662-.422c-.179-.059-.547-.1-.5-.026,0,0,.46.583.631.81a2.143,2.143,0,0,0,.787.578.235.235,0,0,0,.115-.276c-.036-.128-.179-.555-.373-.664" transform="translate(-418.263 -166.187)" fill="#1a1311"/>
            <path id="Path_3020" data-name="Path 3020" d="M450.823,170.077s-.095.054,0,.11a.834.834,0,0,1,.2.248s1.2.746,1.288.777.143.018.314-.059a.215.215,0,0,0,.123-.253,1.917,1.917,0,0,0-.629-.491,6.215,6.215,0,0,0-1.3-.332" transform="translate(-417.891 -163.282)" fill="#1a1311"/>
            <path id="Path_3021" data-name="Path 3021" d="M451.446,169.419a5.943,5.943,0,0,0,.708.7c.235.184.68.6.833.557s.056-.325.054-.406a.893.893,0,0,0-.478-.468c-.284-.13-.838-.445-.979-.478-.2-.049-.233-.02-.138.1" transform="translate(-416.937 -164.495)" fill="#1a1311"/>
            <path id="Path_3022" data-name="Path 3022" d="M453.329,168.309c-.138-.046-.992-.169-1.405-.217-.1-.01-.151.125-.151.125a3.066,3.066,0,0,0,.353.235c.22.125,1.124.56,1.237.59s.2-.077.222-.245a.572.572,0,0,0-.256-.488" transform="translate(-416.35 -166.372)" fill="#1a1311"/>
            <path id="Path_3023" data-name="Path 3023" d="M454.527,169.954c.059-.161-.148-.394-.319-.491a4.558,4.558,0,0,0-1.211-.353.428.428,0,0,0-.312.148s.192.174.271.235,1.145.639,1.28.685.232-.064.291-.225" transform="translate(-414.931 -164.787)" fill="#1a1311"/>
            <path id="Path_3024" data-name="Path 3024" d="M454.831,168.426a3,3,0,0,0-.662-.005,1.438,1.438,0,0,1-.511-.13.793.793,0,0,0-.212.059,5.7,5.7,0,0,0,.672.417c.184.072.882.5,1.03.524a.45.45,0,0,0,.35-.158c.049-.054-.008-.181-.064-.312a1.373,1.373,0,0,0-.6-.394" transform="translate(-413.748 -166.06)" fill="#1a1311"/>
            <path id="Path_3025" data-name="Path 3025" d="M452.435,169.973c-.061.038.2.1.281.12s.813.634,1.078.739.623.087.664.005-.13-.439-.2-.5a3.012,3.012,0,0,0-.708-.284,4.067,4.067,0,0,0-.887-.141.886.886,0,0,0-.23.064" transform="translate(-415.335 -163.544)" fill="#1a1311"/>
            <path id="Path_3026" data-name="Path 3026" d="M454.936,170.662c-.079-.061-.925-.5-1.066-.578a.151.151,0,0,0-.176.038c-.038.051.069.22.11.332s.394.263.478.345.7.759.864.746.135-.151.133-.235a2.268,2.268,0,0,0-.342-.649" transform="translate(-413.375 -163.292)" fill="#1a1311"/>
            <path id="Path_3027" data-name="Path 3027" d="M455.021,170.119a.54.54,0,0,0,.414.166.548.548,0,0,0,.089-.58c-.115-.2-.537-.312-.746-.427s-.636-.325-.667-.358-.077-.089-.135-.046-.028.2,0,.238c.071.095.938.9,1.043,1.007" transform="translate(-412.975 -165.177)" fill="#1a1311"/>
            <path id="Path_3028" data-name="Path 3028" d="M457.053,169.314a4,4,0,0,0-.869-.156,6.509,6.509,0,0,1-.8-.123s-.207.005-.25.069.332.271.5.35a8.033,8.033,0,0,0,1.262.429c.314.049.276-.128.332-.184s-.123-.34-.176-.386" transform="translate(-411.124 -164.903)" fill="#1a1311"/>
            <path id="Path_3029" data-name="Path 3029" d="M456.07,170.2a.816.816,0,0,0-.355-.046,1.089,1.089,0,0,1-.368-.22c-.054-.046-.095-.008-.069.092a.239.239,0,0,0,.13.141,1.015,1.015,0,0,1,.115.227,8.6,8.6,0,0,0,.989.9.447.447,0,0,0,.416.051c.095-.038-.125-.348-.176-.457a3.533,3.533,0,0,0-.682-.685" transform="translate(-410.911 -163.535)" fill="#1a1311"/>
            <path id="Path_3030" data-name="Path 3030" d="M447.534,174.413c.084.008.943.394,1.1.411a3.759,3.759,0,0,0,.4.043c.031-.008.112.064.192.095a4.738,4.738,0,0,0,1.211-.146,1.376,1.376,0,0,0,.818-.677c.079-.156-.373-.115-.613-.123s-1.6.013-1.86,0-1.589.041-1.745,0l-.008-.028c-.156-.041-.166-.008-.184.041a2.446,2.446,0,0,0,.682.381" transform="translate(-424.006 -157.223)" fill="#1a1311"/>
            <path id="Path_3031" data-name="Path 3031" d="M448.519,175.309c.064.089.268-.074.335-.13a9.462,9.462,0,0,0,.483-.887s-.031-.1,0-.143a1.683,1.683,0,0,1,.391-.087c.028-.008.02-.038,0-.1s-.452.051-.514.087a3.435,3.435,0,0,0-.365.439,5.777,5.777,0,0,1-.261.519c-.082.112-.135.22-.071.307" transform="translate(-421.455 -157.278)" fill="#1a1311"/>
            <path id="Path_3032" data-name="Path 3032" d="M449.763,174.166c.082-.043.381-.115.417-.135s.028-.049.005-.095-.071,0-.148.02-.884.087-.884.087a.253.253,0,0,0-.1.018c-.026.018.026.054.064.118a1.358,1.358,0,0,0,.647-.013" transform="translate(-420.592 -157.308)" fill="#1a1311"/>
            <path id="Path_3033" data-name="Path 3033" d="M449.733,174.36a2.425,2.425,0,0,1-.118.4,1.1,1.1,0,0,1-.156.1,2.631,2.631,0,0,1-.153.394c-.038.041-.1.056-.026.089a.349.349,0,0,0,.322-.066c.061-.079.312-.562.363-.639s.161-.434.2-.468.192-.051.2-.146.056-.1.005-.095-.2-.059-.225.051c-.013.069,0,.082-.082.115s-.327.2-.332.256" transform="translate(-420.279 -157.3)" fill="#1a1311"/>
            <path id="Path_3034" data-name="Path 3034" d="M449.567,175.223a2.6,2.6,0,0,0,.6.406,5.813,5.813,0,0,0,1.16.23,2.419,2.419,0,0,1,.731.256l.478-.028a6.563,6.563,0,0,1,.693.079c.146.043.549.12.58.123a1.245,1.245,0,0,0,.266-.013c.066-.018.744-.12.7-.233s-.261-.991-.386-1.268-.373-.8-.578-.864-1.278.12-1.564.095-1.745.115-1.8.11-.077-.092-.128-.089-.23.031-.291.038-.054.1-.054.1a6.5,6.5,0,0,0-.358.81s-.084.189-.046.25" transform="translate(-419.796 -157.341)" fill="#1a1311"/>
            <path id="Path_3035" data-name="Path 3035" d="M452.891,175.129a1.742,1.742,0,0,0,.606.557c.166.038.6.2.636.21s.215-.008.263-.092a.685.685,0,0,0-.1-.47c-.064-.087-1-.8-1-.8a.174.174,0,0,1-.24-.049c-.092-.141-.166-.266-.166-.266a3.063,3.063,0,0,1-.5-.184c-.079-.061.113-.156-.051-.225s-.286.049-.342.064-.092.005-.059.087.925,1.081.948,1.168" transform="translate(-416.106 -157.509)" fill="#1a1311"/>
            <path id="Path_3036" data-name="Path 3036" d="M440.912,175.353l.026,0s-.059-.008-.026,0" transform="translate(-433.259 -155.084)" fill="#1a1311"/>
            <path id="Path_3037" data-name="Path 3037" d="M499.96,182.738a5.721,5.721,0,0,1-1.06-.756c-.245-.291.013-.664.015-.749s.2-.192.373-.35a3.388,3.388,0,0,0,.785-1.372,2.237,2.237,0,0,0-.542-1.477,6.146,6.146,0,0,0-1.434-1.015,17.384,17.384,0,0,0-2.193-.557c-.166-.01-1.035.143-1.035.143l.113.107-.675.049c-.135.008-.074-.064-.074-.064s.848-.424,1.014-.524a4.205,4.205,0,0,0,.82-.83c.066-.156-.01-.135-.01-.135s-.613.279-.828.391a16.424,16.424,0,0,1-2.348.889c-.7.164-2.428.69-3.358.917s-3.866.779-4.817.928-2.964.342-3.744.417-4.518.406-5.433.381-3.4.158-3.918.189-3.5.074-4.061.061-2.474.015-2.862.01-3.624-.059-4.16-.1-4.13-.388-4.789-.483-2.788-.728-3.176-.841-1.533-.465-1.779-.562a16.347,16.347,0,0,0-1.641-.654,5.968,5.968,0,0,1-1.428-.795c-.151-.151-1.267-.81-1.329-.933a16.617,16.617,0,0,1-.7-2.343,4.869,4.869,0,0,1,.036-1.883c.156-.345.064-.376-.02-.685,0,0-.171-.227-.314-.243s-.516.222-.516.222a9.227,9.227,0,0,0-1.244,1,2.766,2.766,0,0,0-.611,1.49c-.074.542-.2,1.4-.176,1.48a2.679,2.679,0,0,0,.049.979,3.213,3.213,0,0,0,1.219,1.842,4.438,4.438,0,0,0,1.017.5l-.2.087c-.1.028-2.476.388-2.9.5a7.366,7.366,0,0,0-2.747,1.515,4.292,4.292,0,0,0-1.066,1.469,6.357,6.357,0,0,0-.3.721c-.013.107.138.355.243.368s.284.273.284.273a1.505,1.505,0,0,0,.578.153c.222-.02.531-.023.907-.084s1.94-.465,2.047-.455.279.194.279.194.061.148-.036.174-.974.286-.974.286a.966.966,0,0,0-.115.342,3.281,3.281,0,0,0,.2,1.122,7.7,7.7,0,0,0,1.653,1.367c.258.115,1.748,1.03,1.9,1.071s3.754.958,4.13,1.043,1.924.465,1.981.45,2.977.3,3.35.388,3.493.452,4.319.6,3.366.217,3.79.266,3.355.1,3.649.12,3.028.187,3.3.215,2.747-.005,3.478.023,2.336,0,3.243-.079,4.188-.4,4.608-.452,3.6-.736,3.6-.736l.953-.22.156.041s2.152-.524,2.223-.565.447-.248.447-.248,2.469-.652,2.484-.739.1-.089.018-.087-2.6.542-2.957.6-2.665.606-3.12.606-2.264.184-2.775.2-2.474.325-2.816.355-3.184.373-4.012.373-2.954-.227-2.954-.227l-.8.013-.915-.02-.33-.074s-1.382.314-1.8.368-2,.008-2.607-.013-2.387-.194-2.514-.2-1.206-.414-1.206-.414l-1.206-.023-.733-.192-.488-.2-.667-.026-.549-.036-.322-.2s-.414-.153.051-.115,2.946.353,2.946.353l1.62.031,1.053.066a14.178,14.178,0,0,0,1.416.192c.417.01,1.618-.051,1.855-.013s1.981.143,1.981.143l.72-.013,1.942.153s1.561-.115,1.618-.133,1.244-.133,1.244-.133l.015-.008.3.059s3.767-.036,4.567-.033a51.236,51.236,0,0,0,5.221-.654c1.63-.281,5.647-1.211,6.853-1.541s3.189-.925,3.286-.979,1.868-1.227,1.868-1.227.47-.294.593-.355.222-.087.074-.13-.383-.089-.383-.089l-1.513-.192a5,5,0,0,0-.853-.207,13.066,13.066,0,0,0-2.75.529c-.754.261-2.765,1.278-3.4,1.589a8.3,8.3,0,0,1-1.939.667,1.455,1.455,0,0,1-1.1-.307,3.182,3.182,0,0,1-.394-.828l-.082-.309.187-.023a2.656,2.656,0,0,0,.135.6,1.108,1.108,0,0,0,.894.555,4.529,4.529,0,0,0,.9-.33c.069-.046,1.16-.593,2.308-1.237a10.28,10.28,0,0,1,3.67-1.083,16.236,16.236,0,0,1,4.191.207c.951.153,3.21.555,3.21.555s.186-.023.263-.043-.46-.371-.46-.371m-14.292-4.094c.153-.043.135.043.189.092a.184.184,0,0,1-.146.143.117.117,0,0,1-.153-.1s-.046-.092.11-.133m-8.512.836a.311.311,0,0,1,.284.026.72.72,0,0,0,.148.084s.57-.261.6-.153.11.135-.033.174-.47.138-.511.138a.947.947,0,0,1-.383-.12c-.082-.072-.207-.11-.1-.148M455.72,187.4c-.067.059-.447.026-.447.026l-.291-.059s-.762-.468-.825-.547-.215-.284-.115-.325a.3.3,0,0,1,.294-.026l.432.115s.616.082.621.2a.337.337,0,0,0,.1.207l.141.112s.161.233.095.291m8.714-3.956a12.81,12.81,0,0,1-1.278-.291s-1.275-.355-1.528-.452-1.406-.608-1.8-.83a13.677,13.677,0,0,1-1.523-1.114c-.146-.146-.417-.465-.491-.506s-.181-.138-.161-.061.24.432.263.509a1.131,1.131,0,0,0,.289.457c.164.141.731.629.935.777s.907.519.907.519a2.114,2.114,0,0,0,.174.406c.059.066.373.084.373.084l.961.565-.018.087-.585.2-.874-.547-.146-.312-.069-.023-4.692,1.28s-3.314.884-3.613.925a17.252,17.252,0,0,1-2.665.148c-.721-.072-1.7-.258-1.7-.258l-1.556-.774-.107-.089.207,0s1.74.309,1.85.34a1.217,1.217,0,0,0,.335.013l.184.22a17.71,17.71,0,0,0,1.817.225c.261-.028,3.227-.818,3.723-.974a12.606,12.606,0,0,1,1.73-.245c.059-.015.792-.051.792-.051s1.75-.478,1.853-.486a.517.517,0,0,0,.233-.125s.779-.626.833-.662a1.1,1.1,0,0,0,.146-.143l-.166-.161-.787-.756-.394.066-.227-.143s-.677.163-.736.179-.12-.069.056-.179.365-.245.365-.245l.335-.215-.1-.3-.207-.294-.652-.049-1.426-.148-1.748-.268-1.819-.164-1.385-.45-.36.038a9.629,9.629,0,0,0-.94-.261c-.281-.049-3.061-.777-3.061-.777l-.151-.02s-1.454.5-1.6.58-1.97.953-1.97.953-1.02.506-1.712.92l-.138.1s.015.059.092.038.787-.3.787-.3,1.4-.238,1.663-.266a9.393,9.393,0,0,0,1.293-.107,3.584,3.584,0,0,1,1.51.457c.069.1.222.971.445,1.633a3.219,3.219,0,0,0,1.211,1.262l.6-.061a2.588,2.588,0,0,0,.843.2c.192-.054,2.042-.312,2.042-.312s1.1-.279,1.285-.289.422.031.4.118-.5.22-.5.22a15.423,15.423,0,0,1-1.439.7,17.264,17.264,0,0,1-2.282.271c-.3-.023-1.822-.164-2.41-.271-.273-.051-.37-.072-.4-.082l-.3.038-.764-.631-.866-.675-.061-.148s-.069-.332-.087-.473-.02-.447-.57-.567a4.805,4.805,0,0,0-1.362,0l-.67-.1-1.219.227-.56.072s-.376-.084-.391-.143a.453.453,0,0,1-.013-.348,2.152,2.152,0,0,1,.5-.736c.174-.192,1.582-1.319,1.582-1.319s1.012-.526,1.1-.59,3.235-.946,3.235-.946l.266-.072c.194.064.327.1.327.1l1.648.488,2.742.657.475-.077.365.233,2.251.376s2.1.225,2.63.248,2.591.2,3.1.256,3.355.184,4.761.187,3.754.023,4.242,0,3.276-.013,3.716-.023,2.767-.151,2.767-.151l.3.084.8-.192a3.085,3.085,0,0,0,.792-.023c.255-.069-.041.151-.041.151l-.473-.01-1.147.23.685.394a7.313,7.313,0,0,0,.437.6,6.375,6.375,0,0,0,1.14.736,1.75,1.75,0,0,1,.35.179,14.236,14.236,0,0,0,1.8-.463,3.968,3.968,0,0,0,.465-.319l1.681-1.009a.347.347,0,0,0-.008-.33c-.1-.166-.383-.089-.383-.089a1.372,1.372,0,0,1-.4-.164c-.046-.072.043-.151.043-.151l3.606-.4a2.945,2.945,0,0,1-.13.319c-.069.123-.5.736-.5.736l-.427.406-.248.378a12.056,12.056,0,0,1-1.5,1.03c-.406.171-.422.342-1.017.5s-2.721.785-2.9.813-1.809.1-2.356.148-2.4-.008-2.974.005-1.784-.028-2.336-.084-2.262-.335-2.558-.358-1.934-.276-2-.281-.636.01-.636.01a1.553,1.553,0,0,0-.718-.279c-.261.028-1.61-.45-1.756-.452a4.066,4.066,0,0,1-.659-.151,12.208,12.208,0,0,1-1.62-.859c-.235-.184-.864-.59-.864-.59s-.4-.015-.445.038-.079.166-.005.207a6.373,6.373,0,0,0,.869.756,5.363,5.363,0,0,1,.831.394,14.651,14.651,0,0,0,1.865.935c.434.151,1.664.414,2.014.483s2,.365,2.683.447,2.318.235,2.859.253,2.364.036,3,.026,1.858-.156,2-.153.994-.066,1.521-.1a8.3,8.3,0,0,0,1.089-.174l.194.028s1.817-.391,2.162-.486a15.921,15.921,0,0,0,1.881-.68,9.232,9.232,0,0,0,.894-.511c.056-.015.3-.1.284-.015s-.018.087-.112.112-.94.649-1,.664a14.876,14.876,0,0,1-1.835.769,22.463,22.463,0,0,1-3.3.779,22.959,22.959,0,0,1-2.645.225c-.662-.005-3.1-.146-3.1-.146s-1.559-.194-1.957-.21-2.384-.258-2.66-.286-1.221-.161-1.518-.184m8.849,1.311c-.087.01-.808-.041-.892-.031s-.084-.036-.2.023a1.106,1.106,0,0,1-.465.1c-.146-.005-1.188-.11-1.188-.11a2.712,2.712,0,0,0-.355.023,8.1,8.1,0,0,1-.9-.128l-.253-.033-1.393.049c-.056,0-.45-.11-.45-.11l-.284-.141a2.425,2.425,0,0,1-.618.069c-.125-.038-.046-.118-.046-.118s-.066-.084.049-.087l.713.01s.026-.066.268.084a6.694,6.694,0,0,0,1.753.115c.1-.013.4-.036.455-.038s.715.138.754.112a1.216,1.216,0,0,1,.463-.054,6.728,6.728,0,0,0,.83.077c.041-.01.227.041.34.026s.417-.115.457-.125.35.064.69.087a2.038,2.038,0,0,0,.767-.11,2.056,2.056,0,0,1,.721-.008c.038.033.107.072.015.112a6.329,6.329,0,0,1-.764.064,4.547,4.547,0,0,1-.465.141m8.957-.882a4.336,4.336,0,0,1-.593.864c-.071.038-.7.233-.7.233a.1.1,0,0,1-.084-.082c-.02-.077.087-.291.087-.291l.554-.463.544-.583a.179.179,0,0,1,.171.1.357.357,0,0,1,.02.222m16.025-1.7c-.005.084-.411,0-.411,0s-.869-.148-1.308-.248a27.259,27.259,0,0,0-2.722-.58c-.3.026-.991-.005-.991-.005s-.654-.069-1.03-.133a7.08,7.08,0,0,0-1.755.233,12.413,12.413,0,0,0-2.742,1.656,7.546,7.546,0,0,1-1.158.813.344.344,0,0,1-.174-.337,2.876,2.876,0,0,0-.309-1.129,1.4,1.4,0,0,0-.92-.547,8.319,8.319,0,0,0-1.441.064l-.015.008c-.028-.092-.064-.243-.031-.279a6.744,6.744,0,0,0,.767-1.2,5.687,5.687,0,0,1,.005-.662c.005-.1.187-.69.25-.894a4.746,4.746,0,0,1,.58-.153c.133-.008.031.322.031.322a1.492,1.492,0,0,0-.493.713.732.732,0,0,0,.176.946,8.465,8.465,0,0,0,1.592.887,2.108,2.108,0,0,0,.892.143,12.332,12.332,0,0,0,1.574-.6,9.122,9.122,0,0,1,1.837-.833,9.274,9.274,0,0,1,3.079.069,13.119,13.119,0,0,1,2.067.511l1.421.465a.817.817,0,0,0,.291.059c.077-.02.046-.233.046-.342s.023-1.027.023-1.027l.013-.555s.33-.5.4-.659a7.862,7.862,0,0,0,.253-.785,1.313,1.313,0,0,0-.008-.33,1.483,1.483,0,0,1,.468.092,2.25,2.25,0,0,1,.859.925,1.05,1.05,0,0,1-.123.968,3.93,3.93,0,0,1-1.186.9.388.388,0,0,0-.294.44.587.587,0,0,0,.207.245,2.1,2.1,0,0,0,.263.562c.1.082.023.187.018.271" transform="translate(-437.904 -163.616)" fill="#1a1311"/>
            <path id="Path_3038" data-name="Path 3038" d="M446.07,179.682c.557.074,2.9.716,3.6.836s3.946.6,4.255.6,5.257.4,6.084.488,6.079.243,7.288.284,6.082-.276,7.513-.335A86.214,86.214,0,0,0,483.951,180c1.321-.383,6.077-2.032,6.619-2.325s2.338-1.651,2.561-1.814.084-.146.123-.24-.064,0-.123.013-.848.521-.848.521S490,177.42,489.576,177.6s-3.956,1.329-4.62,1.469-6.064,1.178-6.516,1.26-5.458.519-6.056.6-4.96.3-5.617.314-3.744-.01-4.13.01-6.545-.36-7.068-.383-5.1-.59-5.42-.629-2.7-.647-2.995-.751-2.681-.736-3.048-.8-2.141-.657-2.484-.769-1.9-1.053-1.9-1.053c-.258-.171-.179.028-.179.028a7,7,0,0,0,.836.785,9.306,9.306,0,0,0,2.261,1.014c.938.261,2.872.912,3.43.986" transform="translate(-435.39 -154.718)" fill="#1a1311"/>
            <path id="Path_3039" data-name="Path 3039" d="M492.609,177.9l-1.16.524s-2.307.856-3.381,1.232S483.7,181,481.8,181.516a53.53,53.53,0,0,1-6.91,1.1c-.838.041-4.878.072-4.878.072l-2.883.041-2.538.013-3.986-.069s-3.746-.176-4.206-.194-2.678-.345-2.745-.368-.532-.207-.532-.207L452,181.59l-1.211-.723-.294-.25s-.79-.465-.979-.557a.929.929,0,0,1-.36-.48c-.026-.1-.575-.445-.575-.445l-.3.041a1,1,0,0,1-.066-.166c-.02-.077-.24-.123-.24-.123l-.427.1s-.312-.079-.424-.112-2.026-.23-2.41-.353-1.888-.56-2.463-.774-1.643-.746-1.891-.869c-.215-.107.008.411.008.411s.644.92,1.2,1.8a3.377,3.377,0,0,0,1.758,1.669c.887.378,4.722,1.48,5.359,1.618s7.475,1.037,8.8,1.129,8.139.445,9.44.44,7.82-.419,9.792-.606a66.43,66.43,0,0,0,8.6-1.894,30.013,30.013,0,0,0,5.553-2.364c.45-.245,1.743-1.032,1.8-1.048s.061-.079.079-.166-.135.036-.135.036" transform="translate(-434.246 -152.731)" fill="#1a1311"/>
            <path id="Path_3040" data-name="Path 3040" d="M462.491,175.739c-.072-.008-.232.158-.279.187s-.054.11-.054.11l-.11.156-.335.434-.462.828-.291.452-.112.388-.113.2a5.057,5.057,0,0,0-.432.585,1.5,1.5,0,0,0-.12.118.91.91,0,0,1-.258.069s-.232.409-.266.432.1.22.1.22.079.089.148.084a2.748,2.748,0,0,0,.549-.151c.135-.064.164-.059.24-.135s.064-.169.176-.309.506-.621.506-.621l.064-.222.317-.652.013-.21.447-.882.123-.309a3.868,3.868,0,0,1,.238-.544c.061-.074.023-.064.038-.107s-.056-.11-.128-.118" transform="translate(-404.092 -154.476)" fill="#1a1311"/>
          </g>
        </g>
      </g>
    </g>
    <g id="Group_214" data-name="Group 214" transform="translate(42.52 189.796)">
      <g id="Group_213" data-name="Group 213" clip-path="url(#clip-path)">
        <text id="_1_burger_cook" data-name="+1 burger cook" transform="translate(48.293 186.527)" fill="#1a1311" font-size="8" font-family="AveriaSerifLibre-Regular, Averia Serif Libre"><tspan x="0" y="0">+1 burger cook</tspan></text>
        <text id="First_burger_produced" data-name="First burgerproduced" transform="translate(75.468 92.791)" fill="#1a1311" font-size="15" font-family="VTCSuperMarketSale"><tspan x="-36.517" y="0">First burger</tspan><tspan x="-27.465" y="18">produced</tspan></text>
        <path id="Path_593" data-name="Path 593" d="M61.212,213a52.911,52.911,0,0,0,9.057.281,50.614,50.614,0,0,0,8.026-1.112c1.394-.322,8.187-1.649,11.662-2.7.5-.149,5.911-1.479,8.153-2.088,4.893-1.332,9.873-2.38,14.778-3.62,2.277-.575,4.542-1.078,6.846-1.547a69.368,69.368,0,0,1,11.281-1.417,29.234,29.234,0,0,1,14.956,3.569,17.557,17.557,0,0,1,3.372,2.312,32.313,32.313,0,0,1,2.566,2.727c.408.445.951-.034.625-.447-.4-.5-.83-.984-1.259-1.466a15.178,15.178,0,0,0-2.124-2.114,39.436,39.436,0,0,0-4.738-3.277,27.9,27.9,0,0,0-7.921-2.7c-9.273-1.892-18.848-.716-27.811,1.95-2.3.684-4.581,1.46-6.889,2.033a35.225,35.225,0,0,0-3.431,1.093c-.484.228-5.991,1.909-6.682,2.118q-2.077.633-4.168,1.229c-1.469.42-2.954.788-4.432,1.178-.593.158-1.239.294-1.836.479-1.239.386-2.471.535-3.7.9a29.374,29.374,0,0,1-3.429.727,69.537,69.537,0,0,1-7.373,1.055,19.609,19.609,0,0,1-6.54-.46c-2.322-.69-4.467-2-5.236-4.3-.819-2.452,1.98-4.434,4.152-5.071a18.373,18.373,0,0,1,8.167-.136c.979.173,3.014.852,2.817,2.084-.1.6-.577.831-1.113,1.087-.4.194-.963.5-.591,1,.589.784,2.628.3,3.456.264,1.2-.055,2.434-.251,3.65-.394a44.67,44.67,0,0,0,8.254-2.039c1.643-.524,3.258-1.117,4.907-1.63,2.195-.684,4.378-1.364,6.577-2.037,1.462-.447,2.979-.663,4.433-1.131.36.006,1.2-.2.963-.718-.157-.341-.94-.279-1.236-.258a34.062,34.062,0,0,0-8.062,1.523c-2.133.695-3.7,1.389-5.489,2.069q-1.82.7-3.643,1.389c-1.074.409-2.224.637-3.29,1.036-.561.209-2.881.776-3.319.865a21.662,21.662,0,0,1-3.223.4c-.6.026-1.175-.026-1.28-.3-.217-.571.265-1.048.265-1.57a5.119,5.119,0,0,0-.084-1.46,5.254,5.254,0,0,0-2.074-2.612c-1.6-1.287-4.362-1.628-6.378-1.483-4.61.286-9.444,2.862-9.563,7.581a7.049,7.049,0,0,0,1.225,3.313A9.514,9.514,0,0,0,55.8,210.6,9.637,9.637,0,0,0,61.212,213" transform="translate(-28.766 -180.251)" fill="#1a1311"/>
        <path id="Path_594" data-name="Path 594" d="M151.651,217.795a8.573,8.573,0,0,0-.792-1.6c-.121-.192-.614-.829-.787-1.031a10.577,10.577,0,0,0-3.057-2.039,9.71,9.71,0,0,0-3.121-.955,27.907,27.907,0,0,0-6.1-.3c-2.076.16-4.341.475-5.258.607-2.14.309-8.1,1.57-9.349,1.864-1.41.332-2.842.59-4.245.942-.678.17-1.289.322-1.985.46-.545.107-3.741.95-4.791,1.151-1.246.236-4.61,1.134-5.1,1.217-.525.092-.992.283-1.526.4-1.079.226-4.17,1.033-4.585,1.144-1.143.3-2.306.575-3.438.916-.315-.015-2.642.658-3.178.805-1.189.326-7.321,1.72-9.2,2.105a46.784,46.784,0,0,1-9.447,1.18c-1.49,0-2.982-.045-4.46-.072-.271-.006-3.023-.347-4.334-.631-.577-.126-1.225-.245-1.814-.394s-.712-.17-1.773-.5a56.177,56.177,0,0,1-5.605-2.681,16.639,16.639,0,0,1-2.742-2.135l-.509-.5c-.436-.441-.477.262-.3.533a11.063,11.063,0,0,0,2.514,2.636,17.1,17.1,0,0,0,2.975,2.141,35.8,35.8,0,0,0,3.9,1.8,50.7,50.7,0,0,0,8.689,2.167,39.731,39.731,0,0,0,7.9.268,52.081,52.081,0,0,0,6.5-.6c1.645-.294,3.16-.569,4.77-.993.358-.094,5.067-1.383,6.118-1.724,3.6-1.168,12.526-3.908,14.979-4.649,1.957-.59,3.876-1.253,5.856-1.777,2.128-.562,4.248-1.057,6.346-1.666.659-.192,2.8-.718,3.217-.8a88.451,88.451,0,0,1,11.806-1.952,13.947,13.947,0,0,1,7.04,1.161,6.176,6.176,0,0,1,2.509,1.994,3.731,3.731,0,0,1,.6,1.634,5.1,5.1,0,0,1,.025,1.685c-.176,2.124-3.26,3.663-5.881,4.08a15.075,15.075,0,0,1-5.014-.309c-.944-.179-2.662-.594-3.31-1.568-.536-.8-.881-1.788.094-2.568.379-.3,1.043-.132,1.248-.686.182-.492-.582-.571-.876-.552l-1.7.126a38.345,38.345,0,0,0-6.15,1.108c-1.487.358-2.991.724-4.455,1.159-.933.277-4.049,1.144-6.842,2.092-1.227.418-2.487.884-3.718,1.289-2.192.722-4.458,1.259-6.716,1.847-1.289.335-2.7.2-3.967.6-1.506.471,1.608.918,2.042.923a27.182,27.182,0,0,0,8.046-1.338c1.1-.328,2.163-.656,3.255-.989,1.223-.373,6.691-2.2,8.1-2.815,1.3-.569,2.683-.9,4.02-1.374,1.389-.492,5.5-1.381,6-1.632.57-.286.269.426.089.6a2.627,2.627,0,0,0-.306,3.134,6.619,6.619,0,0,0,2.227,2.512,12.6,12.6,0,0,0,5.347,1.862,11.464,11.464,0,0,0,6.2-.835,7.551,7.551,0,0,0,4.109-4.732,6.071,6.071,0,0,0-.091-3.739" transform="translate(-27.733 -164.903)" fill="#1a1311"/>
        <path id="Path_595" data-name="Path 595" d="M140.678,209.263l.089.234.062.177.087.121.132.066a.42.42,0,0,0,.577-.2,1.611,1.611,0,0,0,.185-.556l.036-.411.052-.4.021-.181-.023-.183c-.039-.356-.233-.484-.586-.381l-.214.092-.281.313-.31.283c-.292.038-.579.064-.865.079s-.575.028-.865.036l-.4,0-.2-.083-.084-.179-.071-.309.009-.224c.043-.392.073-.784.094-1.174s.034-.784.048-1.176l.036-.349.1-.179.205-.064.36-.017.073,0a7.49,7.49,0,0,0,1.576-.034,5.349,5.349,0,0,1,.9-.036c.3.015.6.03.913.049l.148.032.08.087.048.1-.1.467.027.469a.4.4,0,0,0,.591.285l.183-.051.18-.064.2-.128.082-.2c.009-.262.011-.518,0-.771s-.014-.509-.025-.771l-.014-.07-.244-.26-.187-.047-.2-.006-.468.028-.479.013q-1.786-.054-3.543.06a8.051,8.051,0,0,1-1.262,0,5.074,5.074,0,0,0-.824-.011c-.271.019-.548.045-.828.072l-.262.245-.052.207c0,.29.167.473.5.55a.334.334,0,0,1,.317.36,5.281,5.281,0,0,0,.016,1.247l.014.288-.018.3q-.017.841-.043,1.66a14.725,14.725,0,0,0,.032,1.647l-.016.435-.048.516.055.52a5.734,5.734,0,0,1,.089.684,2.832,2.832,0,0,1-.032.693l-.3.313-.233.041-.235.043-.189.049-.189.051-.139.121-.036.166.014.085.039.141.041.143.214.264.342.075.543-.053.554-.011.2,0,.2-.028a10.473,10.473,0,0,1,1.2-.117c.4-.015.81-.026,1.23-.032q.811-.016,1.613,0c.536.013,1.072.021,1.613.03l.4-.023.388-.094.326-.367q.027-.364.041-.735l.027-.735-.011-.141-.091-.164-.169-.081h-.2l-.187.015-.386.241-.16.3-.071.326-.1.271-.29.124-.157.032-.16.015q-.39.016-.78.026c-.26.006-.525,0-.794,0l-.586,0-.586.053-.347.023-.358-.017-.132-.062-.071-.128-.014-.07-.011-.07-.011-.554-.071-.556-.03-.4-.016-.415-.018-.546-.064-.55-.009-.337.034-.32.048-.089.091-.075.376-.045.322.017.31-.026a3.031,3.031,0,0,1,.721-.034c.24.017.488.023.748.023m-11.32.364-.025.058-.057.021-.233-.243.066-.119.03,0,.014.006.016,0,.137.107Zm2.347-1.719.016,0,0,.162,0,.149a7.7,7.7,0,0,0,.039.891c.032.292.068.586.114.882l.064.4.034.4.007.07-.025.072-.011.03-.03.017-.073.009-.271-.254-.267-.239-.208-.209-.219-.209-.522-.458-.436-.524-.182-.213-.185-.213-.226-.286-.217-.315c-.125-.183-.251-.373-.379-.565s-.253-.381-.379-.565c-.194-.262-.386-.524-.579-.784s-.386-.526-.579-.8l-.084-.119-.114-.1-.233-.173-.192-.217-.155-.139-.224-.062c-.2-.015-.408-.036-.62-.066a1.012,1.012,0,0,0-.636.132l-.219.06-.253.034-.415.058-.417.06-.249.239-.075.347.043.085.075.07.114.03.114.015.379.038.183.092.075.19.05.326.023.175.007.175.055.531.066.528a6.82,6.82,0,0,1,.116.818c.025.279.043.554.057.827q.014.7.073,1.372c.025.3.052.6.084.893s.062.6.1.893l.021.315.048.311a4.851,4.851,0,0,1,.046.616c0,.2,0,.4,0,.605l-.24.352-.155.045-.1.081L124.3,215l-.221.2-.048.062-.016.072-.007.1.023.089.326.2.367.009c.265-.064.532-.119.8-.162s.529-.087.785-.134l.228-.068.21-.092.094-.124,0-.128-.114-.268-.251-.128a.337.337,0,0,1-.356-.3l-.064-.394-.05-.4q-.086-.668-.135-1.319t-.151-1.315c-.048-.324-.1-.643-.167-.957a4.2,4.2,0,0,1-.075-.963l0-.064-.014-.077-.078-.541-.062-.543a2.788,2.788,0,0,1,.112-.984l.05-.034.068.006.322.249.235.3a13.186,13.186,0,0,1,.9,1.144,8,8,0,0,0,.938,1.11l.13.134.1.151a13.293,13.293,0,0,0,1.214,1.532l.1.109.084.111.383.522.37.524a8.066,8.066,0,0,0,.716.916c.26.288.538.565.833.835l.365.241.438.023.194-.028.194-.028.185-.111.087-.215v-.092l0-.119c-.043-.268-.075-.539-.094-.814s-.025-.55-.018-.822l-.021-.428-.066-.422c-.082-.349-.146-.7-.2-1.065a9.554,9.554,0,0,1-.091-1.076c-.014-.271-.032-.543-.057-.818s-.057-.55-.1-.827l-.039-.356-.023-.358-.023-.371-.025-.356,0-.2.011-.219.03-.539-.048-.545.121-.168.146-.051.148-.036.356-.124.178-.315.087-.207-.048-.121-.121-.085-.151-.019-.153,0a6,6,0,0,0-.723.064,3.063,3.063,0,0,1-.725.021l-.324.085-.235.243-.068.17.036.173.121.17a.636.636,0,0,1,.267.492l.048.36.043.349q.031.531.062,1.042c.018.343.036.686.057,1.031m-16.081,5.406-.025-.188-.037-.158a2.078,2.078,0,0,1-.132-.646c-.011-.217-.021-.435-.03-.654l-.023-.5-.078-.471a1.783,1.783,0,0,1-.034-.631q.041-.316.089-.626l.03-.107.032-.107.123-.541.194-.556.292-.452.34-.45.089-.117.094-.092.164-.119.167-.1.543-.268a1.72,1.72,0,0,1,.611-.094l.44.017.427.051a1.264,1.264,0,0,1,.8.482l.292.428.292.428.13.245.1.239c.084.249.157.494.221.735s.135.482.219.722a2.741,2.741,0,0,1,.141,1.161l-.011.254.032.23a2.494,2.494,0,0,1,.052.727q-.024.371-.048.748l-.059.456-.1.45a3.753,3.753,0,0,1-1.268,2.077l-.253.181-.262.124a3.26,3.26,0,0,1-.721.175,2.258,2.258,0,0,1-.719-.026l-.566-.173-.445-.4-.308-.482-.308-.5-.2-.381-.135-.317-.082-.335Zm7.248-2.84-.1-.754a6.363,6.363,0,0,0-.306-.876c-.125-.286-.251-.562-.379-.833a5.533,5.533,0,0,0-.356-.631c-.125-.194-.258-.386-.395-.58l-.258-.292-.283-.258-.308-.217-.333-.183-.335-.132-.5-.128-.557-.053-.547.011-.461.045-.139.028-.153.045-.582.2-.593.234-.233.1-.23.132a2.2,2.2,0,0,0-.611.433l-.525.513a2.736,2.736,0,0,0-.6.8c-.141.292-.287.586-.436.884-.068.311-.141.618-.214.925a4.343,4.343,0,0,0-.119.948c.009.217.021.437.036.658a2.916,2.916,0,0,1-.036.673l.014.213c.043.249.087.5.13.739a2.1,2.1,0,0,0,.26.7l.2.447a4.242,4.242,0,0,0,.436.886,5.826,5.826,0,0,0,.618.778,4.9,4.9,0,0,0,.746.607,2.237,2.237,0,0,0,.919.345l.064.021.062.023a4.04,4.04,0,0,0,.735.132,3.485,3.485,0,0,0,.771-.021l.538-.087.532-.128a2.588,2.588,0,0,0,.757-.3l.575-.369.6-.341.235-.149.214-.2.363-.375.176-.2.119-.232c.039-.092.1-.245.194-.454l.018-.032.018-.032a2.37,2.37,0,0,0,.242-.609,2.694,2.694,0,0,0,.073-.631q0-.329-.007-.665a5.474,5.474,0,0,1,.021-.669l.009-.554Zm-11.014-1.579.271.1.283-.075a.507.507,0,0,0,.258-.539l-.132-.678a.676.676,0,0,0-.4-.582l-.235-.075-.237,0-.4.1-.39.066a6.243,6.243,0,0,0-1.282.364l-.57.194-.591.083-.319.077a4.112,4.112,0,0,1-.906.273c-.3.053-.614.1-.933.124-.278.028-.559.051-.837.07a2.519,2.519,0,0,0-.814.194l-.185.03-.155.021-.484.1-.479.107-.47.315-.08.222c.034.271.078.537.135.8s.119.522.192.784l.219.194h.358l.319-.192.05-.1.016-.1-.043-.309-.059-.3.055-.143.121-.117c.3-.081.6-.158.906-.23s.611-.151.919-.234l.087-.021.363.217.16.467.162.482.08.249.023.277.046.3.057.3a5.152,5.152,0,0,0,.228.893,5.1,5.1,0,0,1,.228.893c.05.258.1.509.162.754a3.94,3.94,0,0,0,.249.722,1.888,1.888,0,0,1,.116.522c.084.422.164.84.244,1.249s.157.829.23,1.253l-.007.075-.009.075-.039.147-.123.109a5.124,5.124,0,0,0-.632.194l-.164.243.066.309.249.136.29-.028.271-.049c.463-.13.922-.251,1.38-.367a8.409,8.409,0,0,1,1.408-.228l.447-.209.162-.183.162-.183.034-.254-.212-.181-.324-.023-.31.117-.212.081-.212-.066-.123-.245c-.05-.209-.1-.415-.137-.618s-.082-.4-.132-.605c-.089-.354-.176-.712-.256-1.072s-.169-.729-.262-1.1c-.128-.558-.256-1.117-.381-1.679s-.253-1.123-.381-1.681c-.043-.211-.078-.418-.107-.618s-.059-.407-.091-.62l-.025-.175v-.2l.242-.39.256-.126.262-.1c.308-.083.614-.158.915-.226s.607-.136.915-.211l.363.217.1.322Zm-10.026,1.579-.1-.509-.114-.226-.208-.16H101.2l-.157.09-.121.2-.116.209-.194.1-.228-.009-.237-.036a3.839,3.839,0,0,0-.874-.068,7.828,7.828,0,0,0-.89.079,5.119,5.119,0,0,0-1.2.339,3.423,3.423,0,0,0-1.052.705l-.367.445a1.514,1.514,0,0,0-.212.537,4.028,4.028,0,0,0-.071,1.038,4.685,4.685,0,0,0,.18,1.006l.137.3.205.268.13.119.135.134a3.526,3.526,0,0,0,.8.6,3.042,3.042,0,0,0,.958.33q.524.118,1.04.224a10.55,10.55,0,0,0,1.061.16l.486.107.454.185.2.1.212.1.424.373a2.521,2.521,0,0,1,.344,1.928,1.2,1.2,0,0,1-.319.571,2.019,2.019,0,0,1-.543.364l-.29.107-.315.07-.3.036-.315-.015c-.34-.072-.666-.16-.981-.26a2.351,2.351,0,0,1-.862-.507,1.918,1.918,0,0,0-.73-.371l-.235.043-.167.158-.039.066-.009.075a4.631,4.631,0,0,0-.055,1.006,7.843,7.843,0,0,0,.11.993l.1.194a.349.349,0,0,0,.447.179.879.879,0,0,0,.433-.2.681.681,0,0,0,.128-.415l0-.251-.009-.266.059-.087.116-.028.21.064a4.445,4.445,0,0,0,2.772.307l.109-.019.107-.034a5.534,5.534,0,0,0,.8-.407,3.416,3.416,0,0,0,.707-.571l.276-.335.16-.379.123-.362.2-.541-.057-.552-.057-.275a2.143,2.143,0,0,0-.173-.594l-.281-.533-.351-.486-.39-.469-.089-.066-.089-.064a3.6,3.6,0,0,0-1-.573c-.363-.139-.723-.286-1.077-.439l-.112-.023-.112-.023-.386-.058-.372-.077c-.253-.045-.5-.092-.751-.141a3.049,3.049,0,0,1-.712-.239l-.128-.07-.1-.1a2.145,2.145,0,0,1-.395-.707,2.631,2.631,0,0,1-.1-.793,1,1,0,0,1,.536-.884l.573-.256a3.525,3.525,0,0,1,.8-.13c.267-.013.532-.013.8,0l.36.128.447.326.386.4.24.175.306-.032.251-.264.03-.187.016-.185-.05-.328Zm-10.539,7.138.135.209.1.158.107.1.144.032a.43.43,0,0,0,.516-.343,1.662,1.662,0,0,0,.064-.588l-.048-.413-.032-.4-.018-.183L92.2,216q-.164-.511-.648-.232l-.187.141-.208.377-.242.356q-.411.16-.821.288c-.271.083-.547.166-.828.245l-.39.1-.212-.032-.116-.153-.135-.288-.036-.222c-.039-.394-.089-.786-.153-1.176s-.125-.778-.194-1.166l-.039-.352.057-.2.185-.113.347-.1.073-.017a7.345,7.345,0,0,0,1.517-.418,5.328,5.328,0,0,1,.865-.256c.294-.06.591-.117.894-.175l.151,0,.1.066.068.087-.009.482.125.456a.383.383,0,0,0,.63.134l.167-.094.162-.107.167-.175.039-.215c-.046-.26-.1-.511-.155-.759s-.119-.5-.183-.75l-.027-.066-.29-.2-.192,0-.2.045-.445.141-.463.13q-1.735.38-3.415.92a8.22,8.22,0,0,1-1.218.311,4.74,4.74,0,0,0-.8.19c-.258.085-.52.177-.787.273l-.205.3-.007.217c.059.283.26.422.6.413a.321.321,0,0,1,.381.277,5.272,5.272,0,0,0,.271,1.221l.073.279.043.3c.107.552.205,1.1.3,1.639a15.683,15.683,0,0,0,.372,1.609l.073.43.062.52.162.5a6.263,6.263,0,0,1,.226.648,2.983,2.983,0,0,1,.112.688l-.224.379-.217.1-.219.1-.171.1-.173.094-.109.153v.175l.027.079.068.13.068.128.262.209.347-.011.513-.185.536-.147.189-.047.183-.077a10.544,10.544,0,0,1,1.141-.409q.578-.169,1.186-.33.78-.214,1.56-.394c.52-.117,1.04-.239,1.565-.364l.381-.119.354-.185.242-.441c-.032-.243-.068-.486-.112-.731s-.084-.488-.125-.727l-.039-.136-.123-.138-.18-.038-.2.049-.178.062-.322.328-.1.33v.339l-.041.29-.256.192-.146.068-.151.055c-.251.072-.5.145-.751.213s-.506.134-.771.192l-.566.139-.557.194-.331.109-.351.068-.141-.026-.094-.109-.027-.066-.027-.066-.123-.541-.183-.528-.112-.386-.1-.4-.13-.533-.176-.524-.078-.328-.034-.322.027-.1.075-.1.356-.136.315-.062.292-.1a3.251,3.251,0,0,1,.691-.209c.235-.04.479-.094.73-.16m-13.076.264,0-.043.032.023Zm7.234,5.163-.041-.518L85.4,222.4l-.036-.087-.189-.335-.274-.241-.376-.006-.192.139-.1.2-.068.5-.068.482a.5.5,0,0,1-.415.452l-.18.066-.185.038-1.49.341c-.49.113-.988.226-1.487.339l-.148.019c-.258.034-.422.019-.493-.047a.674.674,0,0,1-.141-.392l-.014-.19.016-.177a3.688,3.688,0,0,0-.066-1.159c-.084-.371-.155-.746-.214-1.125a2.126,2.126,0,0,1-.144-.7,4.384,4.384,0,0,1,.034-.727l.011-.439-.109-.439-.046-.2-.03-.215a3.149,3.149,0,0,1-.014-.654c.018-.215.03-.43.032-.65,0-.3-.011-.6-.023-.895s-.021-.592-.025-.895l.235-.286.381-.1.363-.153.162-.247-.155-.249-.3-.072-.285-.077a2.212,2.212,0,0,0-1.1-.038l-.317.064-.317.077c-.226.049-.456.1-.691.164s-.472.109-.707.151l-.379.247-.155.43.123.224.246.1h.2l.2-.026.123.068.073.147.018.06.007.077a3.02,3.02,0,0,0,.025.825,3.543,3.543,0,0,1,.041.822l.011.147.041.143a3.7,3.7,0,0,1,.121.8c.011.273.011.545,0,.82,0,.247,0,.488.009.729a5.489,5.489,0,0,0,.071.7,7.279,7.279,0,0,0,.151.886c.066.292.121.588.164.882s.073.556.094.837.05.569.082.865l-.055.177-.164.094-.317.077-.315.079-.253.224-.078.356.08.166.151.1.157.015.171-.015c.415-.075.833-.139,1.252-.2a7.225,7.225,0,0,0,1.246-.277l.317-.07.319-.043c.415-.075.821-.141,1.223-.2s.808-.119,1.223-.183l.235-.047.251-.075a6.816,6.816,0,0,1,.737-.17,3.494,3.494,0,0,1,.746-.043l.319-.034.315-.092.322-.2.116-.349-.018-.337-.034-.335Zm-14.306,1.617-.217.045-.187.03-.386.213-.205.366v.092l.075.09.258.139.481.058.465.1.246-.081.246-.079.187-.051.187-.008.6.006.6-.034c.3.026.431-.126.4-.452a.386.386,0,0,0-.365-.388l-.189-.013-.187-.013-.183-.179-.021-.428-.094-.411-.025-.175,0-.175-.025-2.031-.027-.435-.027-.42,0-.349c0-.337-.007-.675,0-1.016s0-.682.009-1.029.011-.673.016-1.014a5.858,5.858,0,0,1,.107-1l.021-.224.066-.2.214-.094.278-.011.135-.043.208-.2,0-.337-.221-.341-.383-.032a4.411,4.411,0,0,1-1.706.188,5.624,5.624,0,0,0-.675-.034.435.435,0,0,0-.5.411l.032.209.151.138.151.04.151.041.212.181.055.209.025.209.03.554v.554c-.016.354-.032.71-.046,1.063s-.027.71-.032,1.065l0,.511.043.524.034.322-.009.309c-.018.243-.025.482-.023.714a4.507,4.507,0,0,0,.068.7l.018.239.018.251.007.526.023.524,0,.315Zm-3.226-8.828.2-.117.187-.119.317-.379-.036-.273-.214-.151c-.374-.038-.748-.081-1.118-.128s-.741-.085-1.118-.115a.784.784,0,0,0-.862.439l-.084.2-.146.286-.132.288c-.144.277-.281.55-.413.818s-.256.541-.367.814l-.141.288-.183.277a3.17,3.17,0,0,0-.42.624,7.135,7.135,0,0,0-.308.69,9.757,9.757,0,0,1-.42,1q-.236.489-.5.965l-.057.023-.068.008-.052-.055-.043-.145-.041-.145c-.027-.281-.064-.558-.112-.831a4.754,4.754,0,0,0-.217-.812l-.078-.36-.075-.375c-.1-.46-.187-.923-.246-1.383s-.132-.92-.219-1.379q-.092-.607-.178-1.2c-.057-.394-.1-.79-.135-1.189l-.109-.288-.237-.2-.36-.13q-.613-.141-1.2-.268t-1.186-.249l-.3-.019-.342.232-.016.241.1.2.169.158.185.16.125.326c-.023.273-.041.543-.052.814a3.7,3.7,0,0,0,.052.82l-.009.185-.021.181c-.048.392-.094.784-.141,1.176s-.1.782-.155,1.172c-.032.271-.075.537-.125.8a6.622,6.622,0,0,0-.109.788c-.043.354-.078.7-.1,1.046s-.055.684-.084,1.023l-.055.326-.125.3-.089.117-.128.068-.536.141-.538.168-.073.115.027.149.171.143.2.162a1.211,1.211,0,0,0,.776.275l.511.053.484.034.178.03.151,0,.214-.036.167-.145-.11-.467-.224-.324-.007-.369.064-.352.066-.367q.154-.786.269-1.558a8.842,8.842,0,0,0,.091-1.581l0-.107v-.124c.05-.42.1-.833.151-1.244s.107-.825.178-1.24l.1-.307.1-.3.048-.032.071.03.1.192.055.228q.133.642.276,1.274c.094.422.187.842.276,1.261.094.381.173.767.237,1.153s.132.771.205,1.159c.041.249.082.5.123.744s.089.49.151.733.109.475.171.71.123.469.185.712l.05.138.05.139.214.217.388.087.383,0,.1-.136.114-.134a1.565,1.565,0,0,0,.452-.524,4.494,4.494,0,0,0,.271-.633,8.927,8.927,0,0,1,.463-1.168,8.41,8.41,0,0,1,.632-1.089l.251-.392.18-.437c.073-.194.141-.388.2-.582a1.066,1.066,0,0,1,.344-.494l.023-.068.039-.064.433-.987.235-.454.29-.413.043-.055.059-.053.03-.006.032-.009.1.136.011.354-.05.354a4.526,4.526,0,0,1-.025.827l-.1.812c-.048.392-.1.782-.148,1.168s-.1.773-.162,1.163c-.046.307-.091.609-.132.912s-.084.607-.13.912l-.048.207-.048.219-.027.215-.041.215-.011.226-.1.224-.164.009-.182.019-.233.111-.164.181-.016.4.315.251.274.034.26.017.237.028.235.04a4.645,4.645,0,0,0,.837.151,4.676,4.676,0,0,1,.837.149l.306-.181-.064-.343-.324-.237-.367-.134-.155-.132v-.185a.972.972,0,0,0,.109-.552,3.586,3.586,0,0,1-.018-.714c.016-.23.046-.465.084-.705.055-.3.1-.586.125-.871s.052-.58.068-.882c.016-.207.036-.413.066-.616a3.685,3.685,0,0,1,.141-.6c.057-.237.1-.475.146-.716s.078-.482.116-.722c.062-.349.13-.7.208-1.046s.155-.69.235-1.027" transform="translate(-26.309 -174.133)" fill="#1a1311"/>
      </g>
    </g>
  </g>
</svg>
