<svg xmlns="http://www.w3.org/2000/svg" xmlns:xlink="http://www.w3.org/1999/xlink" width="148.75" height="215.843" viewBox="0 0 148.75 215.843">
  <defs>
    <clipPath id="clip-path">
      <path id="Path_559" data-name="Path 559" d="M55.8,189.8s-13.282,0-13.282,12.4V393.236c0,.192.1,12.4,13.282,12.4H177.986s13.284,0,13.284-12.405V202.2s0-12.4-13.284-12.4Z" transform="translate(-42.52 -189.796)" fill="none"/>
    </clipPath>
    <clipPath id="clip-path-2">
      <rect id="Rectangle_383" data-name="Rectangle 383" width="68.532" height="31.923" fill="none"/>
    </clipPath>
  </defs>
  <g id="Group_748" data-name="Group 748" transform="translate(-42.52 -189.796)">
    <g id="Group_210" data-name="Group 210" transform="translate(42.52 189.796)">
      <g id="Group_209" data-name="Group 209" clip-path="url(#clip-path)">
        <rect id="Rectangle_382" data-name="Rectangle 382" width="164.687" height="230.731" transform="translate(-7.968 -7.443)" fill="#87bfc8"/>
        <path id="Path_555" data-name="Path 555" d="M89.261,248.695l.29.138a7.822,7.822,0,0,0,.671,1.21l.189.04a7.307,7.307,0,0,1,1.3-1.127l.349.072a1.7,1.7,0,0,1,.436.761l.151.422.189.1.287-.207c.367-.324.744-.637,1.106-.955l.139-.021.335.332c.123.313.274.612.374.912l.205.166.219-.021a11.057,11.057,0,0,1,1.3-.748l.287.19.162.646.233.384.176.028a2.729,2.729,0,0,0,.983-.482l.465-.107.112.2-.021,1.008.267.362c.511-.256,1.052-.486,1.533-.767l.242.313c.062.249-.011.52.039.771l.267.426a8.751,8.751,0,0,1,1.225-.509l.461.119.1.339.1.541.027.452.2.09c.319-.055.6-.177.938-.209l.454,0,.187.269-.036.4c.039.209.071.426.091.624l.463.117a4.449,4.449,0,0,1,.723-.13l.205.264a6.428,6.428,0,0,0-.192,1.008l.157.147c.463-.023.853-.087,1.259-.128l.237.424a2.8,2.8,0,0,0-.251.993l.16.145a4.238,4.238,0,0,0,1.129-.03l.333.117.016.156a10.3,10.3,0,0,0-.3,1.106l.135.132a13.293,13.293,0,0,0,1.4-.006l.066.245a7.364,7.364,0,0,1-.579.98l-.073.258.176.175a12.1,12.1,0,0,0,1.323.111l.153.234a4.382,4.382,0,0,1-.484.8l-.228.273.4.254a7.56,7.56,0,0,0,1.125.209l.164.194c-.153.241-.379.484-.573.744l-.189.339.119.173a6.29,6.29,0,0,0,1.371.337l.141.164-.228.311c-.287.3-.545.633-.84.893l.144.251c.44.134.906.241,1.339.4l.283.254-.03.1c-.39.3-.693.688-1.07,1.023.059.2.258.279.415.369.292.164.6.311.917.45l.185.162-.121.239a4.612,4.612,0,0,0-.678.577l-.03.051.2.215c.249.151.509.3.764.462l.276.26-.007.181a8.822,8.822,0,0,1-1.063.652l-.1.17.114.126a2.547,2.547,0,0,1,.627.352l.47.249a.369.369,0,0,1,.176.447.724.724,0,0,1-.641.326l-.552.294.039.187a10.58,10.58,0,0,1,1.079.667l.073.156-.192.209a3.106,3.106,0,0,0-1.02.535l-.31.2.082.16a3.9,3.9,0,0,1,.849.563l.328.275v.07l-.328.175a4.387,4.387,0,0,1-.584.217l-.536.251-.082.177a4.634,4.634,0,0,0,.99.788l.169.234-.406.279c-.294.111-.625.177-.938.271l-.169.156.052.141a5.862,5.862,0,0,0,.931.765l-.08.4c-.468.136-.995.211-1.485.324l-.157.209a11.137,11.137,0,0,0,1,1.168l-.036.228a3.134,3.134,0,0,1-1.154.3l-.057.141a2.879,2.879,0,0,1,.668.744l-.1.369c-.5.034-.917.143-1.408.181l-.116.162c.182.469.392.908.573,1.372l-.356.266-1.2-.083-.155.16c.1.454.167.952.278,1.419l-.176.268-.445,0c-.244-.038-.516-.043-.76-.064l-.185.2a13.048,13.048,0,0,0,.258,1.481l-.3.288-.96.077-.189.183a5.866,5.866,0,0,0,.075.976l-.137.181h-.162c-.4-.141-.792-.258-1.184-.379l-.217.422a6.07,6.07,0,0,0,.068.876l-.224.228-.258-.075a9.737,9.737,0,0,0-.954-.407l-.23.213a12.367,12.367,0,0,1-.071,1.27l-.383.245a1.5,1.5,0,0,1-.568-.222l-.472-.19-.246.2c-.173.411-.269.891-.44,1.317l-.3.1c-.285-.147-.563-.311-.869-.439l-.244.03-.119.232c-.071.3-.1.612-.162.927l-.37.173a3.371,3.371,0,0,1-.913-.631l-.283,0a4.511,4.511,0,0,0-.586,1.229l-.351.092c-.354-.16-.548-.479-.851-.684l-.224-.019-.205.369c-.144.332-.244.663-.406.974l-.189.032a4.721,4.721,0,0,0-1.111-.837l-.235.187a3.887,3.887,0,0,1-.543.759l-.333.36c-.249-.09-.367-.337-.534-.52l-.44-.422-.2-.032L91.791,297.5l-.242,0a11.7,11.7,0,0,1-.794-.948l-.24-.187-.255.1a13.321,13.321,0,0,0-1.1,1.074l-.219.028a5.258,5.258,0,0,1-.682-.906l-.224-.311-.276-.036a7.366,7.366,0,0,0-1.143,1.144l-.171,0-.205-.224c-.2-.339-.271-.771-.568-1.014l-.173-.107-.34.164a5.713,5.713,0,0,0-.814.68l-.153.026a11.05,11.05,0,0,1-.767-1.163l-.235-.362-.244.026a10.472,10.472,0,0,0-1.189.929l-.219,0-.11-.175a5.366,5.366,0,0,0-.214-1.513l-.183-.09c-.543.315-1.074.641-1.583.978l-.287-.23a5.808,5.808,0,0,0-.039-1.215l-.167-.128-.456.2c-.354.187-.668.407-1.006.582l-.26-.179a12.307,12.307,0,0,1,.08-1.4l-.182-.141c-.212.072-.424.194-.682.288l-.821.33-.381-.2a4.071,4.071,0,0,1,.24-1.315l-.155-.179a1.711,1.711,0,0,0-.865.307,1.225,1.225,0,0,1-.678.188l-.23-.3a5.3,5.3,0,0,0,.322-1.085l-.162-.17a11.419,11.419,0,0,0-1.351.29L72,291.12l-.059-.181.2-.844-.187-.228-1.027-.015-.365.064-.221-.294a7.726,7.726,0,0,0,.408-1.379l-.157-.16a12.821,12.821,0,0,1-1.373-.015.455.455,0,0,1-.265-.565,3.634,3.634,0,0,1,.4-.972l-.141-.2a4.117,4.117,0,0,1-1.446-.173l-.194-.392a2.548,2.548,0,0,1,.415-.7l.148-.313-.429-.249c-.329-.1-.732-.111-1.072-.207l-.2-.283a3.34,3.34,0,0,1,.616-.906l.091-.341-.2-.126c-.413-.13-.89-.183-1.291-.322l-.139-.377a6.459,6.459,0,0,1,.924-1.014l-.075-.2a8.219,8.219,0,0,0-1.378-.467L64.742,280l.1-.187c.271-.3.6-.539.86-.842l-.032-.249a7.181,7.181,0,0,0-1.218-.6l-.107-.3a3.486,3.486,0,0,1,.949-.8l.009-.26a4.834,4.834,0,0,1-1.246-.729l-.023-.228c.153-.381.6-.5.928-.718l.055-.309a7.831,7.831,0,0,0-1.1-.673l-.075-.441c.338-.3.767-.5,1.134-.773l-.03-.245c-.347-.345-.771-.626-1.125-.97l-.009-.228c.23-.292.657-.4.949-.633l.192-.264a5.441,5.441,0,0,0-.575-.707,2.04,2.04,0,0,1-.417-.526l.358-.332a5.711,5.711,0,0,0,.8-.433l.062-.17a6.741,6.741,0,0,1-.735-1.057l-.05-.207a.828.828,0,0,1,.7-.58l.511-.145.1-.228a6.315,6.315,0,0,1-.659-1.3l.139-.384a1,1,0,0,1,.591-.241l.436-.087.436-.062.089-.145a6.979,6.979,0,0,1-.532-1.261.454.454,0,0,1,.267-.569,4.143,4.143,0,0,0,1.077-.092l.125-.177a8.978,8.978,0,0,0-.413-1.229l.032-.143c.08-.168.335-.164.568-.179.376-.023.748-.047,1.093-.1l.244-.311-.319-.98-.162-.347.18-.207.573-.009a3.452,3.452,0,0,0,.926.077l.167-.222c-.052-.49-.121-.948-.2-1.411l.162-.29.2.015a5.667,5.667,0,0,0,.844.251l.358-.2a10.486,10.486,0,0,1-.148-1.078.364.364,0,0,1,.31-.358l1.417.264.137-.128v-1.131a.5.5,0,0,1,.155-.618l.315-.019a8.657,8.657,0,0,0,1.163.5l.226-.194a12.186,12.186,0,0,1,.233-1.313l.324-.3c.356.2.735.349,1.09.533l.2,0,.121-.177.283-1.025.548-.121.992.546.256-.211c.116-.4.313-.744.429-1.112l.212-.132a5.643,5.643,0,0,1,.618.335,3.843,3.843,0,0,1,.623.373l.317-.381c.119-.3.2-.637.319-.935l.335-.2.139.072a4.642,4.642,0,0,0,.785.663l.226.006.205-.268a6.519,6.519,0,0,1,.411-.808l.379-.128c.3.281.573.626.883.942l.249-.047c.283-.356.552-.718.814-1.1l.313-.228c.212.06.313.288.42.469a8.11,8.11,0,0,1,.668.75l.23-.066a13.629,13.629,0,0,0,1.054-1.2Z" transform="translate(-15.241 -123.196)" fill="#fff3d8"/>
        <path id="Path_556" data-name="Path 556" d="M60.569,256.554l2.037,5.9,6.636-.011-5.375,3.635,2.062,5.892-5.361-3.654-5.363,3.654,2.065-5.892-5.377-3.635,6.636.011Z" transform="translate(-30.511 -114.309)" fill="#fff3d8"/>
        <path id="Path_557" data-name="Path 557" d="M99.421,256.554l2.037,5.9,6.636-.011-5.375,3.635,2.062,5.892-5.361-3.654-5.363,3.654,2.065-5.892-5.377-3.635,6.636.011Z" transform="translate(19.27 -114.309)" fill="#fff3d8"/>
        <path id="Path_558" data-name="Path 558" d="M127.831,272.232a6.322,6.322,0,0,1-1.163-.776c-.267-.3.014-.68.018-.767l.408-.358a3.427,3.427,0,0,0,.858-1.4,2.2,2.2,0,0,0-.593-1.515,6.645,6.645,0,0,0-1.572-1.038,20.214,20.214,0,0,0-2.4-.571l-1.134.147.123.111-.741.047-.08-.064,1.111-.537.137-.1a2.172,2.172,0,0,0,1.111-1.283,1.824,1.824,0,0,0-.066-1.259,2.069,2.069,0,0,0-.1-.788,8.27,8.27,0,0,0-1.111-1.707,19.493,19.493,0,0,0-2.01-1.837c-.08-.043-1.346-.884-1.672-1.076s-2.692-1.3-2.895-1.376l-3.789-1.257s-1.677-.545-1.9-.616-3.189-.6-4.163-.756-6-.588-7.056-.656-5.3-.151-7.01-.117-6.251.241-7.706.379-6.207.695-8.025,1.136a25.376,25.376,0,0,0-3.887,1.351c-.363.156-1.811,1.012-2.021,1.151s-.821.676-.878.71l-.6.364.078.153a12.028,12.028,0,0,0-1.243,1.148l-.413.2a9.982,9.982,0,0,0-1.362,1.025,2.753,2.753,0,0,0-.671,1.526c-.08.556-.214,1.436-.192,1.515a2.5,2.5,0,0,0,.052,1,3.293,3.293,0,0,0,1.337,1.888,5.128,5.128,0,0,0,1.116.513l-.224.09c-.1.028-2.715.4-3.178.516a8.256,8.256,0,0,0-3.014,1.551,4.4,4.4,0,0,0-1.168,1.5l-.328.739.269.375.308.281a1.752,1.752,0,0,0,.634.156c.244-.019.584-.021.995-.085.31-.047,1.353-.292,1.9-.407l.5.021.144.117-.039.179-1.07.294-.123.349a3.416,3.416,0,0,0,.148.967.962.962,0,0,0,.189.639l.376.558a1.021,1.021,0,0,0,.331.665l.007.006-.036.1s.208.209.445.424l.18.181a9.222,9.222,0,0,0,1.478,1.685l.057.141s.707.942,1.309,1.845a3.614,3.614,0,0,0,1.928,1.709c.974.388,5.178,1.517,5.874,1.656s8.194,1.063,9.65,1.157,8.922.456,10.348.452,8.573-.43,10.738-.622a77.391,77.391,0,0,0,9.424-1.937,34.532,34.532,0,0,0,6.089-2.42c.356-.183,2.605-4.73,3.251-5.587a1.511,1.511,0,0,0,.262-1.2l.5-.548c1.049.171,2.167.356,2.167.356l.29-.045Z" transform="translate(-20.367 -118.694)" fill="#fff3d8"/>
      </g>
    </g>
    <g id="Group_212" data-name="Group 212" transform="translate(81.963 323.744)">
      <g id="Group_211" data-name="Group 211" clip-path="url(#clip-path-2)">
        <path id="Path_560" data-name="Path 560" d="M63.988,257.937l.148-.183.465-.266a.909.909,0,0,1,.342-.3,27.942,27.942,0,0,1,2.617-1.2,55.9,55.9,0,0,1,6.258-1.575c1.3-.185,4.786-.5,5.245-.556s6.194-.332,7.321-.345,7.017.092,8.639.141,6.4.759,7.232.906,3.137.744,3.28.769,2.845.837,3.13.957,1.855.773,2.79,1.189a27.046,27.046,0,0,1,3.376,2.035c.164.168,1.718,1.464,1.953,1.722a8.161,8.161,0,0,1,1.052,1.822c.128.433.2.539.262.588l.253-.064c.064-.015.132-.245.21-.518a1.718,1.718,0,0,0-.064-1,8.3,8.3,0,0,0-1.109-1.7,20.013,20.013,0,0,0-2.008-1.837c-.08-.041-1.344-.88-1.67-1.072s-2.69-1.3-2.893-1.374l-3.782-1.255s-1.674-.545-1.9-.616-3.187-.605-4.159-.756-5.986-.586-7.047-.654-5.293-.151-7-.117-6.242.241-7.695.377-6.2.695-8.016,1.134a25.68,25.68,0,0,0-3.883,1.349c-.36.158-1.809,1.012-2.017,1.148s-.821.678-.878.712l-.6.364.141.173" transform="translate(-54.638 -252.646)" fill="#1a1311"/>
        <path id="Path_561" data-name="Path 561" d="M68.3,261.43l-.014.109a2.77,2.77,0,0,0,.865.477c.388.092,5.092.624,6.212.742s6.007.347,7.66.435,5.7-.017,7.943-.145,6.438-.5,8.6-.778a55.549,55.549,0,0,0,7.939-1.558c2.477-.737,2.742-1.144,3.007-1.4a2.23,2.23,0,0,0,.244-1.562,1.836,1.836,0,0,0-.267-.524,1.107,1.107,0,0,0-1.084-.23,2.065,2.065,0,0,0-1.129.626,2.27,2.27,0,0,0-.454,1c-.068.23-.176.4-.792.859a12.951,12.951,0,0,1-3.059,1.372,46.715,46.715,0,0,1-4.978.929c-.707.055-4.569.384-5.258.433s-4.832.113-5.619.124-4.811-.126-5.112-.156-4.234-.083-5.229-.081-6.474-.4-7.118-.511a15.711,15.711,0,0,0-2.354-.16" transform="translate(-48.954 -247.804)" fill="#1a1311"/>
        <path id="Path_562" data-name="Path 562" d="M69.975,255.427l-.529.443-.518.271-.374.571c.08.064.2.062.429.03a3.913,3.913,0,0,0,.885-.45.926.926,0,0,0,.376-.765l-.269-.1" transform="translate(-48.607 -249.531)" fill="#1a1311"/>
        <path id="Path_563" data-name="Path 563" d="M68.427,254.932l1.248.072.716-.211.153-.094.189-.4.05-.106-.1-.055a5.905,5.905,0,0,0-1.207.279c-.221.055-.208.109-.208.109l-.646.247-.192.162" transform="translate(-48.769 -251.003)" fill="#1a1311"/>
        <path id="Path_564" data-name="Path 564" d="M72.144,254.43l-1.109.2-.89.339-.032.092a3.133,3.133,0,0,0,.659.113,3.4,3.4,0,0,0,1.154-.156c.262-.121.381-.126.511-.3l-.294-.288" transform="translate(-46.608 -250.659)" fill="#1a1311"/>
        <path id="Path_565" data-name="Path 565" d="M71.306,256.213a8.119,8.119,0,0,1-.9.4l-.121.2a1.726,1.726,0,0,0,.785.023,2,2,0,0,0,1.227-.509c.21-.3.107-.251,0-.418s-.76.164-.988.307" transform="translate(-46.39 -249.041)" fill="#1a1311"/>
        <path id="Path_566" data-name="Path 566" d="M71.888,255.83l1.134-.318.335-.7-.021-.273-.34.17s-.792.563-1.1.84-.162.262-.007.279" transform="translate(-44.558 -250.533)" fill="#1a1311"/>
        <path id="Path_567" data-name="Path 567" d="M73.813,254.033a.639.639,0,0,0,.4-.577l-.253-.047-2.081.558c-.123.087.13.134.347.164a5.145,5.145,0,0,0,1.588-.1" transform="translate(-44.389 -251.813)" fill="#1a1311"/>
        <path id="Path_568" data-name="Path 568" d="M73.489,254.728a6.374,6.374,0,0,0,1.481-.153c.459-.173.479-.345.493-.573l-.221-.141-1.079.3-.878.475.205.087" transform="translate(-42.546 -251.302)" fill="#1a1311"/>
        <path id="Path_569" data-name="Path 569" d="M73.359,256.332l1.743-.388.009-.479c-.046-.156-1.045.211-1.316.309s-.9.4-.9.4l.465.162" transform="translate(-43.046 -249.531)" fill="#1a1311"/>
        <path id="Path_570" data-name="Path 570" d="M76.266,256.011c.084-.021.406-.356.064-.6a3.054,3.054,0,0,0-1.3-.537c-.4-.038-.855-.062-.769.03,0,0,1.143.631,1.371.795a1.527,1.527,0,0,0,.63.315" transform="translate(-41.303 -250.198)" fill="#1a1311"/>
        <path id="Path_571" data-name="Path 571" d="M76.576,254.108a6.6,6.6,0,0,0-.723-.43l-.547-.028s.5.6.691.829a2.4,2.4,0,0,0,.86.592l.128-.283c-.039-.13-.2-.567-.408-.68" transform="translate(-39.957 -251.541)" fill="#1a1311"/>
        <path id="Path_572" data-name="Path 572" d="M75.616,255.921l0,.113.226.251,1.408.8.344-.06.137-.26a2.083,2.083,0,0,0-.691-.5,6.971,6.971,0,0,0-1.426-.341" transform="translate(-39.558 -248.973)" fill="#1a1311"/>
        <path id="Path_573" data-name="Path 573" d="M76.4,255.09a6.454,6.454,0,0,0,.773.712c.258.187.746.614.913.569l.059-.416a.936.936,0,0,0-.525-.479c-.31-.132-.915-.452-1.07-.488-.217-.049-.253-.019-.151.1" transform="translate(-38.62 -250.053)" fill="#1a1311"/>
        <path id="Path_574" data-name="Path 574" d="M78.514,253.708c-.148-.047-1.084-.173-1.535-.222l-.167.128a3.1,3.1,0,0,0,.388.239c.24.13,1.23.573,1.353.605l.244-.251-.283-.5" transform="translate(-38.026 -251.726)" fill="#1a1311"/>
        <path id="Path_575" data-name="Path 575" d="M79.947,255.6l-.351-.5a5.324,5.324,0,0,0-1.325-.358l-.34.149.3.241,1.4.7.317-.228" transform="translate(-36.593 -250.311)" fill="#1a1311"/>
        <path id="Path_576" data-name="Path 576" d="M80.38,253.868l-.725,0-.559-.132-.233.058.737.426,1.129.535.383-.16-.073-.32Z" transform="translate(-35.398 -251.448)" fill="#1a1311"/>
        <path id="Path_577" data-name="Path 577" d="M77.616,255.78l.308.121c.084.021.89.65,1.182.756s.682.089.725,0l-.219-.514-.773-.29a4.6,4.6,0,0,0-.97-.143l-.253.064" transform="translate(-36.996 -249.205)" fill="#1a1311"/>
        <path id="Path_578" data-name="Path 578" d="M80.521,256.51l-1.168-.59-.192.038.121.339.522.354.947.763.146-.239Z" transform="translate(-35.016 -248.973)" fill="#1a1311"/>
        <path id="Path_579" data-name="Path 579" d="M80.631,255.708l.456.168a.537.537,0,0,0,.1-.594c-.128-.2-.591-.315-.817-.437s-.7-.33-.73-.364l-.148-.045,0,.241,1.138,1.031" transform="translate(-34.595 -250.652)" fill="#1a1311"/>
        <path id="Path_580" data-name="Path 580" d="M83.033,254.928l-.951-.158-.874-.128-.274.07.545.358a8.9,8.9,0,0,0,1.385.439c.342.051.3-.13.363-.188l-.194-.394" transform="translate(-32.745 -250.418)" fill="#1a1311"/>
        <path id="Path_581" data-name="Path 581" d="M81.972,256l-.388-.049-.4-.224-.075.092.144.143.123.232,1.084.918.456.053-.194-.469Z" transform="translate(-32.526 -249.187)" fill="#1a1311"/>
        <path id="Path_582" data-name="Path 582" d="M71.522,261.141l1.209.42.443.047.21.094a5.389,5.389,0,0,0,1.325-.147,1.48,1.48,0,0,0,.894-.693c.089-.16-.408-.119-.671-.126s-1.75.013-2.035,0-1.741.043-1.912,0l-.009-.03-.2.043.748.39" transform="translate(-45.762 -243.56)" fill="#1a1311"/>
        <path id="Path_583" data-name="Path 583" d="M72.8,262.05l.367-.136.527-.906,0-.147.427-.089,0-.106-.561.092-.4.45-.287.529Z" transform="translate(-43.168 -243.608)" fill="#1a1311"/>
        <path id="Path_584" data-name="Path 584" d="M74.247,260.876l.459-.138,0-.1-.164.021-.97.087-.107.017.068.121Z" transform="translate(-42.309 -243.635)" fill="#1a1311"/>
        <path id="Path_585" data-name="Path 585" d="M74.224,261.078l-.128.413-.173.107-.164.4-.03.092.354-.07.4-.65.221-.479.217-.149.007-.1-.246.053-.089.117Z" transform="translate(-41.976 -243.631)" fill="#1a1311"/>
        <path id="Path_586" data-name="Path 586" d="M74.1,261.963a2.773,2.773,0,0,0,.652.415,6.873,6.873,0,0,0,1.268.237,2.718,2.718,0,0,1,.8.26l.522-.028.76.081.636.124.29-.011.769-.239c-.046-.115-.287-1.014-.424-1.3s-.408-.816-.632-.886-1.4.126-1.713.1-1.912.117-1.971.111l-.139-.092-.317.038-.062.1a6.825,6.825,0,0,0-.39.829l-.05.256" transform="translate(-41.503 -243.675)" fill="#1a1311"/>
        <path id="Path_587" data-name="Path 587" d="M78.049,261.833l.664.571.7.213.29-.1-.107-.479-1.1-.818-.265-.049-.18-.271-.543-.19-.055-.23-.376.066-.064.089Z" transform="translate(-37.771 -243.813)" fill="#1a1311"/>
        <path id="Path_588" data-name="Path 588" d="M63.484,262.39l.03,0Z" transform="translate(-55.103 -241.662)" fill="#1a1311"/>
        <path id="Path_589" data-name="Path 589" d="M127.748,268.824a6.281,6.281,0,0,1-1.161-.774c-.267-.3.014-.68.018-.765l.408-.358a3.451,3.451,0,0,0,.858-1.4,2.212,2.212,0,0,0-.593-1.511,6.677,6.677,0,0,0-1.57-1.038,20.181,20.181,0,0,0-2.4-.571l-1.134.147.123.111-.739.047-.08-.064,1.111-.537.9-.848-.009-.138s-.671.283-.908.4a18.714,18.714,0,0,1-2.571.908c-.767.168-2.66.707-3.677.94s-4.232.8-5.272.948-3.246.349-4.1.426-4.946.416-5.95.39-3.723.16-4.289.192-3.837.077-4.446.064-2.71.015-3.132.009-3.969-.058-4.556-.1-4.521-.4-5.245-.5-3.052-.741-3.479-.859-1.677-.475-1.946-.575a18.555,18.555,0,0,0-1.8-.669,6.674,6.674,0,0,1-1.565-.812l-1.455-.955a16.226,16.226,0,0,1-.76-2.4,4.662,4.662,0,0,1,.039-1.926c.169-.352.071-.384-.023-.7L68,255.658l-.566.228a9.975,9.975,0,0,0-1.36,1.023,2.721,2.721,0,0,0-.671,1.523c-.08.556-.214,1.436-.192,1.515a2.5,2.5,0,0,0,.05,1,3.309,3.309,0,0,0,1.337,1.886,5.215,5.215,0,0,0,1.113.513l-.221.09c-.1.026-2.712.4-3.176.513A8.286,8.286,0,0,0,61.31,265.5a4.428,4.428,0,0,0-1.168,1.5l-.326.739.269.375.308.279a1.689,1.689,0,0,0,.632.156c.244-.019.582-.021.995-.083s2.122-.477,2.24-.467l.306.2-.039.179-1.068.292-.125.349a3.191,3.191,0,0,0,.224,1.149,8.4,8.4,0,0,0,1.811,1.4c.283.117,1.914,1.053,2.085,1.1s4.109.98,4.519,1.065,2.108.477,2.172.46,3.258.311,3.666.4,3.823.462,4.727.614,3.684.222,4.152.273,3.673.1,3.994.121,3.315.19,3.616.219,3.009-.006,3.807.021,2.557,0,3.552-.081,4.585-.409,5.046-.462,3.942-.752,3.942-.752l1.045-.224.169.043,2.434-.58.49-.251,2.722-.756.018-.09c-.091,0-2.847.556-3.237.614s-2.92.618-3.417.618-2.477.188-3.039.2-2.708.33-3.084.364-3.486.382-4.391.379-3.235-.232-3.235-.232l-.878.013-1-.019-.36-.077s-1.512.322-1.973.375-2.19.011-2.854-.011-2.614-.2-2.751-.207l-1.323-.424-1.319-.023-.805-.2-.534-.2-.732-.023-.6-.038-.354-.2s-.454-.16.055-.121,3.228.36,3.228.36l1.775.034,1.15.066s1.1.185,1.551.2,1.773-.049,2.033-.011,2.167.145,2.167.145l.789-.011,2.126.153,1.77-.134,1.364-.136.016-.009.331.062s4.122-.036,5-.034,3.931-.384,5.717-.669,6.182-1.238,7.5-1.575,3.493-.948,3.6-1l2.046-1.253.648-.362.082-.134-.417-.092-1.656-.2a5.947,5.947,0,0,0-.938-.213,15.123,15.123,0,0,0-3.009.543c-.826.266-3.027,1.306-3.718,1.624a9.346,9.346,0,0,1-2.124.682,1.667,1.667,0,0,1-1.207-.311,3.208,3.208,0,0,1-.429-.85l-.091-.313.2-.026a2.73,2.73,0,0,0,.148.612,1.222,1.222,0,0,0,.981.567,4.964,4.964,0,0,0,.988-.337c.075-.047,1.271-.605,2.525-1.263a11.883,11.883,0,0,1,4.02-1.11,19.185,19.185,0,0,1,4.588.211c1.04.158,3.513.569,3.513.569l.29-.045-.5-.379M112.1,264.637l.208.1-.16.145-.167-.1.119-.136m-9.319.854.313.026.16.087.657-.158-.039.179-.559.143-.42-.126-.112-.151M79.309,273.6l-.49.026-.317-.06L77.6,273l-.128-.335.324-.026.472.119.68.207.107.213.155.115.1.3m9.543-4.046c-.324-.023-1.4-.3-1.4-.3s-1.394-.362-1.672-.46-1.54-.622-1.969-.852a15.009,15.009,0,0,1-1.668-1.138l-.536-.518-.176-.062.287.52.317.467c.178.145.8.643,1.024.8s.992.528.992.528l.189.416.411.087,1.049.577-.018.09-.641.2-.956-.558-.16-.32-.075-.023-5.137,1.31s-3.627.9-3.956.946a20.225,20.225,0,0,1-2.918.151c-.792-.072-1.864-.264-1.864-.264l-1.7-.79-.119-.092h.228l2.026.349.365.013.2.224s1.706.262,1.992.232,3.534-.837,4.077-1a14.941,14.941,0,0,1,1.893-.251l.867-.051,2.028-.5.256-.128.912-.678.16-.145-.182-.166-.86-.774-.433.068-.246-.147-.805.183.059-.183.4-.251.365-.219-.114-.309-.224-.3-.716-.051-1.56-.151-1.912-.273-1.994-.166-1.515-.46-.4.038s-.719-.219-1.027-.266-3.356-.795-3.356-.795l-.164-.019-1.75.592-2.158.974s-1.116.518-1.873.942l-.153.1.1.038.862-.3s1.533-.243,1.818-.273a11.43,11.43,0,0,0,1.417-.109,4.123,4.123,0,0,1,1.654.467c.075.107.244.993.488,1.67s1.325,1.289,1.325,1.289l.662-.062a2.959,2.959,0,0,0,.922.209c.21-.053,2.236-.318,2.236-.318l1.408-.3.443.121-.545.224a17.078,17.078,0,0,1-1.579.718,20.128,20.128,0,0,1-2.5.277c-.322-.021-1.994-.166-2.637-.277-.3-.051-.406-.075-.438-.083l-.329.038-.837-.646-.949-.688L66,268.551l-.1-.484c-.018-.143-.021-.458-.623-.58a5.585,5.585,0,0,0-1.492,0l-.735-.109-1.332.234-.614.07-.427-.145a.421.421,0,0,1-.014-.356,2.215,2.215,0,0,1,.55-.752c.192-.2,1.731-1.351,1.731-1.351l1.2-.6,3.541-.967.292-.075c.212.068.358.107.358.107l1.8.5,3,.673.52-.077.4.234,2.466.386s2.3.232,2.879.254,2.836.207,3.395.26,3.675.192,5.213.192,4.111.023,4.647,0,3.584-.013,4.065-.023,3.032-.151,3.032-.151l.326.085.878-.2a3.77,3.77,0,0,0,.867-.023c.283-.072-.046.151-.046.151l-.516-.009-1.257.237.751.4.479.609a6.954,6.954,0,0,0,1.246.752,1.927,1.927,0,0,1,.386.183l1.973-.473.509-.328,1.839-1.031-.007-.337-.42-.092-.44-.168.046-.151,3.947-.411-.141.328-.548.752-.468.416-.271.386a13.387,13.387,0,0,1-1.638,1.05,5.2,5.2,0,0,1-1.116.518c-.655.166-2.979.8-3.176.831s-1.982.1-2.58.149-2.626-.006-3.255.006-1.955-.03-2.56-.085-2.475-.343-2.8-.364-2.119-.285-2.188-.288l-.7.009a1.752,1.752,0,0,0-.785-.285c-.285.03-1.763-.46-1.923-.46l-.723-.156a13.961,13.961,0,0,1-1.773-.878c-.258-.188-.947-.605-.947-.605l-.486.04,0,.213a7,7,0,0,0,.949.771,6.034,6.034,0,0,1,.91.4,16.3,16.3,0,0,0,2.044.957c.475.153,1.82.424,2.2.494s2.19.373,2.938.456,2.537.241,3.13.258,2.589.038,3.287.028,2.035-.158,2.195-.158,1.09-.066,1.665-.107a9.479,9.479,0,0,0,1.193-.177l.212.03s1.987-.4,2.366-.5a18.451,18.451,0,0,0,2.06-.692,10.838,10.838,0,0,0,.979-.524l.31-.017-.123.117-1.093.68a16.809,16.809,0,0,1-2.008.786,26.065,26.065,0,0,1-3.614.795,26.9,26.9,0,0,1-2.9.232c-.725-.006-3.392-.149-3.392-.149s-1.709-.2-2.144-.215-2.61-.264-2.913-.292-1.339-.166-1.661-.19m9.686,1.342-.976-.032-.214.023-.509.1-1.3-.111-.388.023-.99-.132-.278-.032-1.524.047-.493-.111-.31-.143-.678.07-.05-.121.052-.087.78.008s.027-.066.294.087a7.785,7.785,0,0,0,1.921.117l.5-.036.826.115.506-.055.91.079.372.023.5-.128c.043-.013.383.064.755.087a2.488,2.488,0,0,0,.84-.109,2.4,2.4,0,0,1,.789-.011l.016.115-.835.064-.513.147m9.807-.9-.646.884-.769.237-.091-.081.094-.3.609-.471.6-.6.187.1.021.228m17.548-1.734-.452,0s-.949-.151-1.433-.254-2.653-.62-2.977-.594-1.088,0-1.088,0-.714-.07-1.125-.134a8.38,8.38,0,0,0-1.923.237,13.817,13.817,0,0,0-3,1.694,8.371,8.371,0,0,1-1.266.831.349.349,0,0,1-.192-.345,2.821,2.821,0,0,0-.338-1.155,1.564,1.564,0,0,0-1.008-.56,9.937,9.937,0,0,0-1.581.066l-.014.009-.036-.286.84-1.227.007-.678a9.536,9.536,0,0,1,.276-.914l.632-.156.037.328a1.557,1.557,0,0,0-.541.729.717.717,0,0,0,.192.965,9.457,9.457,0,0,0,1.743.908,2.436,2.436,0,0,0,.979.147,13.956,13.956,0,0,0,1.722-.609,10.389,10.389,0,0,1,2.014-.85,10.727,10.727,0,0,1,3.367.07,15.034,15.034,0,0,1,2.265.522l1.556.475.319.06.048-.349.025-1.05.016-.567.436-.676.278-.8-.007-.335a1.683,1.683,0,0,1,.511.094,2.37,2.37,0,0,1,.938.944,1.014,1.014,0,0,1-.132.993,4.358,4.358,0,0,1-1.3.923.391.391,0,0,0-.322.447l.226.254.287.573.021.277" transform="translate(-59.802 -249.27)" fill="#1a1311"/>
        <path id="Path_590" data-name="Path 590" d="M68.955,266.844c.611.077,3.178.733,3.937.854s4.318.612,4.658.609,5.753.413,6.661.5,6.654.247,7.98.29,6.659-.281,8.226-.343a100.116,100.116,0,0,0,10.012-1.581c1.446-.39,6.654-2.077,7.245-2.376s2.562-1.688,2.806-1.856.091-.151.132-.245l-.132.013-.931.533s-2.5,1.291-2.961,1.472-4.332,1.359-5.06,1.5-6.638,1.206-7.134,1.291-5.977.531-6.632.614-5.429.307-6.148.32-4.1-.011-4.521.013-7.168-.371-7.74-.394-5.585-.605-5.934-.641-2.954-.663-3.28-.769-2.934-.752-3.338-.818-2.345-.671-2.719-.786-2.078-1.076-2.078-1.076c-.283-.177-.2.028-.2.028a7.532,7.532,0,0,0,.913.8,10.756,10.756,0,0,0,2.477,1.038c1.027.266,3.144.931,3.755,1.008" transform="translate(-57.263 -241.313)" fill="#1a1311"/>
        <path id="Path_591" data-name="Path 591" d="M120.009,265.306l-1.268.535s-2.528.878-3.7,1.261-4.782,1.368-6.864,1.9a62.052,62.052,0,0,1-7.567,1.127c-.915.043-5.34.072-5.34.072l-3.155.043-2.781.013-4.364-.07s-4.1-.181-4.606-.2-2.929-.352-3-.375l-.582-.211-1.225-.322-1.325-.739-.324-.256s-.862-.477-1.072-.571a.952.952,0,0,1-.392-.492l-.63-.452-.326.04-.073-.17-.262-.124-.47.1-.463-.115c-.123-.032-2.217-.236-2.639-.362s-2.067-.571-2.7-.791-1.8-.763-2.071-.889c-.235-.109.011.42.011.42s.7.94,1.307,1.843a3.6,3.6,0,0,0,1.923,1.707c.974.386,5.172,1.513,5.867,1.654s8.185,1.061,9.638,1.157,8.911.454,10.334.45,8.562-.43,10.724-.622a77.1,77.1,0,0,0,9.41-1.935,34.574,34.574,0,0,0,6.082-2.416c.49-.254,1.907-1.057,1.971-1.074l.087-.171-.148.038" transform="translate(-56.107 -239.565)" fill="#1a1311"/>
        <path id="Path_592" data-name="Path 592" d="M89.581,262.866l-.306.19-.059.115-.119.158-.367.445-.506.848-.317.46-.125.4-.123.2-.472.6-.132.119-.281.07-.294.441.112.226.162.085.6-.153.262-.136.194-.318.554-.635.068-.228.347-.667.014-.215.49-.9.135-.315.258-.56.043-.109Z" transform="translate(-25.64 -241.12)" fill="#1a1311"/>
      </g>
    </g>
    <g id="Group_214" data-name="Group 214" transform="translate(42.52 189.796)">
      <g id="Group_213" data-name="Group 213" clip-path="url(#clip-path)">
        <text id="_5_for_every_burger_sold" data-name="+$5 for every burger sold" transform="translate(30.293 186.527)" fill="#1a1311" font-size="8" font-family="AveriaSerifLibre-Regular, Averia Serif Libre"><tspan x="0" y="0">+$5 for every burger sold</tspan></text>
        <text id="First_burger" data-name="First burger" transform="translate(39.468 91.791)" fill="#1a1311" font-size="15" font-family="VTCSuperMarketSale"><tspan x="0" y="0">First burger</tspan></text>
        <text id="marketed" transform="translate(46.883 110.265)" fill="#1a1311" font-size="15" font-family="VTCSuperMarketSale"><tspan x="0" y="0">m</tspan><tspan y="0" letter-spacing="-0.043em">a</tspan><tspan y="0">rketed</tspan></text>
        <path id="Path_593" data-name="Path 593" d="M61.212,213a52.911,52.911,0,0,0,9.057.281,50.614,50.614,0,0,0,8.026-1.112c1.394-.322,8.187-1.649,11.662-2.7.5-.149,5.911-1.479,8.153-2.088,4.893-1.332,9.873-2.38,14.778-3.62,2.277-.575,4.542-1.078,6.846-1.547a69.368,69.368,0,0,1,11.281-1.417,29.234,29.234,0,0,1,14.956,3.569,17.557,17.557,0,0,1,3.372,2.312,32.313,32.313,0,0,1,2.566,2.727c.408.445.951-.034.625-.447-.4-.5-.83-.984-1.259-1.466a15.178,15.178,0,0,0-2.124-2.114,39.436,39.436,0,0,0-4.738-3.277,27.9,27.9,0,0,0-7.921-2.7c-9.273-1.892-18.848-.716-27.811,1.95-2.3.684-4.581,1.46-6.889,2.033a35.225,35.225,0,0,0-3.431,1.093c-.484.228-5.991,1.909-6.682,2.118q-2.077.633-4.168,1.229c-1.469.42-2.954.788-4.432,1.178-.593.158-1.239.294-1.836.479-1.239.386-2.471.535-3.7.9a29.374,29.374,0,0,1-3.429.727,69.537,69.537,0,0,1-7.373,1.055,19.609,19.609,0,0,1-6.54-.46c-2.322-.69-4.467-2-5.236-4.3-.819-2.452,1.98-4.434,4.152-5.071a18.373,18.373,0,0,1,8.167-.136c.979.173,3.014.852,2.817,2.084-.1.6-.577.831-1.113,1.087-.4.194-.963.5-.591,1,.589.784,2.628.3,3.456.264,1.2-.055,2.434-.251,3.65-.394a44.67,44.67,0,0,0,8.254-2.039c1.643-.524,3.258-1.117,4.907-1.63,2.195-.684,4.378-1.364,6.577-2.037,1.462-.447,2.979-.663,4.433-1.131.36.006,1.2-.2.963-.718-.157-.341-.94-.279-1.236-.258a34.062,34.062,0,0,0-8.062,1.523c-2.133.695-3.7,1.389-5.489,2.069q-1.82.7-3.643,1.389c-1.074.409-2.224.637-3.29,1.036-.561.209-2.881.776-3.319.865a21.662,21.662,0,0,1-3.223.4c-.6.026-1.175-.026-1.28-.3-.217-.571.265-1.048.265-1.57a5.119,5.119,0,0,0-.084-1.46,5.254,5.254,0,0,0-2.074-2.612c-1.6-1.287-4.362-1.628-6.378-1.483-4.61.286-9.444,2.862-9.563,7.581a7.049,7.049,0,0,0,1.225,3.313A9.514,9.514,0,0,0,55.8,210.6,9.637,9.637,0,0,0,61.212,213" transform="translate(-28.766 -180.251)" fill="#1a1311"/>
        <path id="Path_594" data-name="Path 594" d="M151.651,217.795a8.573,8.573,0,0,0-.792-1.6c-.121-.192-.614-.829-.787-1.031a10.577,10.577,0,0,0-3.057-2.039,9.71,9.71,0,0,0-3.121-.955,27.907,27.907,0,0,0-6.1-.3c-2.076.16-4.341.475-5.258.607-2.14.309-8.1,1.57-9.349,1.864-1.41.332-2.842.59-4.245.942-.678.17-1.289.322-1.985.46-.545.107-3.741.95-4.791,1.151-1.246.236-4.61,1.134-5.1,1.217-.525.092-.992.283-1.526.4-1.079.226-4.17,1.033-4.585,1.144-1.143.3-2.306.575-3.438.916-.315-.015-2.642.658-3.178.805-1.189.326-7.321,1.72-9.2,2.105a46.784,46.784,0,0,1-9.447,1.18c-1.49,0-2.982-.045-4.46-.072-.271-.006-3.023-.347-4.334-.631-.577-.126-1.225-.245-1.814-.394s-.712-.17-1.773-.5a56.177,56.177,0,0,1-5.605-2.681,16.639,16.639,0,0,1-2.742-2.135l-.509-.5c-.436-.441-.477.262-.3.533a11.063,11.063,0,0,0,2.514,2.636,17.1,17.1,0,0,0,2.975,2.141,35.8,35.8,0,0,0,3.9,1.8,50.7,50.7,0,0,0,8.689,2.167,39.731,39.731,0,0,0,7.9.268,52.081,52.081,0,0,0,6.5-.6c1.645-.294,3.16-.569,4.77-.993.358-.094,5.067-1.383,6.118-1.724,3.6-1.168,12.526-3.908,14.979-4.649,1.957-.59,3.876-1.253,5.856-1.777,2.128-.562,4.248-1.057,6.346-1.666.659-.192,2.8-.718,3.217-.8a88.451,88.451,0,0,1,11.806-1.952,13.947,13.947,0,0,1,7.04,1.161,6.176,6.176,0,0,1,2.509,1.994,3.731,3.731,0,0,1,.6,1.634,5.1,5.1,0,0,1,.025,1.685c-.176,2.124-3.26,3.663-5.881,4.08a15.075,15.075,0,0,1-5.014-.309c-.944-.179-2.662-.594-3.31-1.568-.536-.8-.881-1.788.094-2.568.379-.3,1.043-.132,1.248-.686.182-.492-.582-.571-.876-.552l-1.7.126a38.345,38.345,0,0,0-6.15,1.108c-1.487.358-2.991.724-4.455,1.159-.933.277-4.049,1.144-6.842,2.092-1.227.418-2.487.884-3.718,1.289-2.192.722-4.458,1.259-6.716,1.847-1.289.335-2.7.2-3.967.6-1.506.471,1.608.918,2.042.923a27.182,27.182,0,0,0,8.046-1.338c1.1-.328,2.163-.656,3.255-.989,1.223-.373,6.691-2.2,8.1-2.815,1.3-.569,2.683-.9,4.02-1.374,1.389-.492,5.5-1.381,6-1.632.57-.286.269.426.089.6a2.627,2.627,0,0,0-.306,3.134,6.619,6.619,0,0,0,2.227,2.512,12.6,12.6,0,0,0,5.347,1.862,11.464,11.464,0,0,0,6.2-.835,7.551,7.551,0,0,0,4.109-4.732,6.071,6.071,0,0,0-.091-3.739" transform="translate(-27.733 -164.903)" fill="#1a1311"/>
        <path id="Path_595" data-name="Path 595" d="M140.678,209.263l.089.234.062.177.087.121.132.066a.42.42,0,0,0,.577-.2,1.611,1.611,0,0,0,.185-.556l.036-.411.052-.4.021-.181-.023-.183c-.039-.356-.233-.484-.586-.381l-.214.092-.281.313-.31.283c-.292.038-.579.064-.865.079s-.575.028-.865.036l-.4,0-.2-.083-.084-.179-.071-.309.009-.224c.043-.392.073-.784.094-1.174s.034-.784.048-1.176l.036-.349.1-.179.205-.064.36-.017.073,0a7.49,7.49,0,0,0,1.576-.034,5.349,5.349,0,0,1,.9-.036c.3.015.6.03.913.049l.148.032.08.087.048.1-.1.467.027.469a.4.4,0,0,0,.591.285l.183-.051.18-.064.2-.128.082-.2c.009-.262.011-.518,0-.771s-.014-.509-.025-.771l-.014-.07-.244-.26-.187-.047-.2-.006-.468.028-.479.013q-1.786-.054-3.543.06a8.051,8.051,0,0,1-1.262,0,5.074,5.074,0,0,0-.824-.011c-.271.019-.548.045-.828.072l-.262.245-.052.207c0,.29.167.473.5.55a.334.334,0,0,1,.317.36,5.281,5.281,0,0,0,.016,1.247l.014.288-.018.3q-.017.841-.043,1.66a14.725,14.725,0,0,0,.032,1.647l-.016.435-.048.516.055.52a5.734,5.734,0,0,1,.089.684,2.832,2.832,0,0,1-.032.693l-.3.313-.233.041-.235.043-.189.049-.189.051-.139.121-.036.166.014.085.039.141.041.143.214.264.342.075.543-.053.554-.011.2,0,.2-.028a10.473,10.473,0,0,1,1.2-.117c.4-.015.81-.026,1.23-.032q.811-.016,1.613,0c.536.013,1.072.021,1.613.03l.4-.023.388-.094.326-.367q.027-.364.041-.735l.027-.735-.011-.141-.091-.164-.169-.081h-.2l-.187.015-.386.241-.16.3-.071.326-.1.271-.29.124-.157.032-.16.015q-.39.016-.78.026c-.26.006-.525,0-.794,0l-.586,0-.586.053-.347.023-.358-.017-.132-.062-.071-.128-.014-.07-.011-.07-.011-.554-.071-.556-.03-.4-.016-.415-.018-.546-.064-.55-.009-.337.034-.32.048-.089.091-.075.376-.045.322.017.31-.026a3.031,3.031,0,0,1,.721-.034c.24.017.488.023.748.023m-11.32.364-.025.058-.057.021-.233-.243.066-.119.03,0,.014.006.016,0,.137.107Zm2.347-1.719.016,0,0,.162,0,.149a7.7,7.7,0,0,0,.039.891c.032.292.068.586.114.882l.064.4.034.4.007.07-.025.072-.011.03-.03.017-.073.009-.271-.254-.267-.239-.208-.209-.219-.209-.522-.458-.436-.524-.182-.213-.185-.213-.226-.286-.217-.315c-.125-.183-.251-.373-.379-.565s-.253-.381-.379-.565c-.194-.262-.386-.524-.579-.784s-.386-.526-.579-.8l-.084-.119-.114-.1-.233-.173-.192-.217-.155-.139-.224-.062c-.2-.015-.408-.036-.62-.066a1.012,1.012,0,0,0-.636.132l-.219.06-.253.034-.415.058-.417.06-.249.239-.075.347.043.085.075.07.114.03.114.015.379.038.183.092.075.19.05.326.023.175.007.175.055.531.066.528a6.82,6.82,0,0,1,.116.818c.025.279.043.554.057.827q.014.7.073,1.372c.025.3.052.6.084.893s.062.6.1.893l.021.315.048.311a4.851,4.851,0,0,1,.046.616c0,.2,0,.4,0,.605l-.24.352-.155.045-.1.081L124.3,215l-.221.2-.048.062-.016.072-.007.1.023.089.326.2.367.009c.265-.064.532-.119.8-.162s.529-.087.785-.134l.228-.068.21-.092.094-.124,0-.128-.114-.268-.251-.128a.337.337,0,0,1-.356-.3l-.064-.394-.05-.4q-.086-.668-.135-1.319t-.151-1.315c-.048-.324-.1-.643-.167-.957a4.2,4.2,0,0,1-.075-.963l0-.064-.014-.077-.078-.541-.062-.543a2.788,2.788,0,0,1,.112-.984l.05-.034.068.006.322.249.235.3a13.186,13.186,0,0,1,.9,1.144,8,8,0,0,0,.938,1.11l.13.134.1.151a13.293,13.293,0,0,0,1.214,1.532l.1.109.084.111.383.522.37.524a8.066,8.066,0,0,0,.716.916c.26.288.538.565.833.835l.365.241.438.023.194-.028.194-.028.185-.111.087-.215v-.092l0-.119c-.043-.268-.075-.539-.094-.814s-.025-.55-.018-.822l-.021-.428-.066-.422c-.082-.349-.146-.7-.2-1.065a9.554,9.554,0,0,1-.091-1.076c-.014-.271-.032-.543-.057-.818s-.057-.55-.1-.827l-.039-.356-.023-.358-.023-.371-.025-.356,0-.2.011-.219.03-.539-.048-.545.121-.168.146-.051.148-.036.356-.124.178-.315.087-.207-.048-.121-.121-.085-.151-.019-.153,0a6,6,0,0,0-.723.064,3.063,3.063,0,0,1-.725.021l-.324.085-.235.243-.068.17.036.173.121.17a.636.636,0,0,1,.267.492l.048.36.043.349q.031.531.062,1.042c.018.343.036.686.057,1.031m-16.081,5.406-.025-.188-.037-.158a2.078,2.078,0,0,1-.132-.646c-.011-.217-.021-.435-.03-.654l-.023-.5-.078-.471a1.783,1.783,0,0,1-.034-.631q.041-.316.089-.626l.03-.107.032-.107.123-.541.194-.556.292-.452.34-.45.089-.117.094-.092.164-.119.167-.1.543-.268a1.72,1.72,0,0,1,.611-.094l.44.017.427.051a1.264,1.264,0,0,1,.8.482l.292.428.292.428.13.245.1.239c.084.249.157.494.221.735s.135.482.219.722a2.741,2.741,0,0,1,.141,1.161l-.011.254.032.23a2.494,2.494,0,0,1,.052.727q-.024.371-.048.748l-.059.456-.1.45a3.753,3.753,0,0,1-1.268,2.077l-.253.181-.262.124a3.26,3.26,0,0,1-.721.175,2.258,2.258,0,0,1-.719-.026l-.566-.173-.445-.4-.308-.482-.308-.5-.2-.381-.135-.317-.082-.335Zm7.248-2.84-.1-.754a6.363,6.363,0,0,0-.306-.876c-.125-.286-.251-.562-.379-.833a5.533,5.533,0,0,0-.356-.631c-.125-.194-.258-.386-.395-.58l-.258-.292-.283-.258-.308-.217-.333-.183-.335-.132-.5-.128-.557-.053-.547.011-.461.045-.139.028-.153.045-.582.2-.593.234-.233.1-.23.132a2.2,2.2,0,0,0-.611.433l-.525.513a2.736,2.736,0,0,0-.6.8c-.141.292-.287.586-.436.884-.068.311-.141.618-.214.925a4.343,4.343,0,0,0-.119.948c.009.217.021.437.036.658a2.916,2.916,0,0,1-.036.673l.014.213c.043.249.087.5.13.739a2.1,2.1,0,0,0,.26.7l.2.447a4.242,4.242,0,0,0,.436.886,5.826,5.826,0,0,0,.618.778,4.9,4.9,0,0,0,.746.607,2.237,2.237,0,0,0,.919.345l.064.021.062.023a4.04,4.04,0,0,0,.735.132,3.485,3.485,0,0,0,.771-.021l.538-.087.532-.128a2.588,2.588,0,0,0,.757-.3l.575-.369.6-.341.235-.149.214-.2.363-.375.176-.2.119-.232c.039-.092.1-.245.194-.454l.018-.032.018-.032a2.37,2.37,0,0,0,.242-.609,2.694,2.694,0,0,0,.073-.631q0-.329-.007-.665a5.474,5.474,0,0,1,.021-.669l.009-.554Zm-11.014-1.579.271.1.283-.075a.507.507,0,0,0,.258-.539l-.132-.678a.676.676,0,0,0-.4-.582l-.235-.075-.237,0-.4.1-.39.066a6.243,6.243,0,0,0-1.282.364l-.57.194-.591.083-.319.077a4.112,4.112,0,0,1-.906.273c-.3.053-.614.1-.933.124-.278.028-.559.051-.837.07a2.519,2.519,0,0,0-.814.194l-.185.03-.155.021-.484.1-.479.107-.47.315-.08.222c.034.271.078.537.135.8s.119.522.192.784l.219.194h.358l.319-.192.05-.1.016-.1-.043-.309-.059-.3.055-.143.121-.117c.3-.081.6-.158.906-.23s.611-.151.919-.234l.087-.021.363.217.16.467.162.482.08.249.023.277.046.3.057.3a5.152,5.152,0,0,0,.228.893,5.1,5.1,0,0,1,.228.893c.05.258.1.509.162.754a3.94,3.94,0,0,0,.249.722,1.888,1.888,0,0,1,.116.522c.084.422.164.84.244,1.249s.157.829.23,1.253l-.007.075-.009.075-.039.147-.123.109a5.124,5.124,0,0,0-.632.194l-.164.243.066.309.249.136.29-.028.271-.049c.463-.13.922-.251,1.38-.367a8.409,8.409,0,0,1,1.408-.228l.447-.209.162-.183.162-.183.034-.254-.212-.181-.324-.023-.31.117-.212.081-.212-.066-.123-.245c-.05-.209-.1-.415-.137-.618s-.082-.4-.132-.605c-.089-.354-.176-.712-.256-1.072s-.169-.729-.262-1.1c-.128-.558-.256-1.117-.381-1.679s-.253-1.123-.381-1.681c-.043-.211-.078-.418-.107-.618s-.059-.407-.091-.62l-.025-.175v-.2l.242-.39.256-.126.262-.1c.308-.083.614-.158.915-.226s.607-.136.915-.211l.363.217.1.322Zm-10.026,1.579-.1-.509-.114-.226-.208-.16H101.2l-.157.09-.121.2-.116.209-.194.1-.228-.009-.237-.036a3.839,3.839,0,0,0-.874-.068,7.828,7.828,0,0,0-.89.079,5.119,5.119,0,0,0-1.2.339,3.423,3.423,0,0,0-1.052.705l-.367.445a1.514,1.514,0,0,0-.212.537,4.028,4.028,0,0,0-.071,1.038,4.685,4.685,0,0,0,.18,1.006l.137.3.205.268.13.119.135.134a3.526,3.526,0,0,0,.8.6,3.042,3.042,0,0,0,.958.33q.524.118,1.04.224a10.55,10.55,0,0,0,1.061.16l.486.107.454.185.2.1.212.1.424.373a2.521,2.521,0,0,1,.344,1.928,1.2,1.2,0,0,1-.319.571,2.019,2.019,0,0,1-.543.364l-.29.107-.315.07-.3.036-.315-.015c-.34-.072-.666-.16-.981-.26a2.351,2.351,0,0,1-.862-.507,1.918,1.918,0,0,0-.73-.371l-.235.043-.167.158-.039.066-.009.075a4.631,4.631,0,0,0-.055,1.006,7.843,7.843,0,0,0,.11.993l.1.194a.349.349,0,0,0,.447.179.879.879,0,0,0,.433-.2.681.681,0,0,0,.128-.415l0-.251-.009-.266.059-.087.116-.028.21.064a4.445,4.445,0,0,0,2.772.307l.109-.019.107-.034a5.534,5.534,0,0,0,.8-.407,3.416,3.416,0,0,0,.707-.571l.276-.335.16-.379.123-.362.2-.541-.057-.552-.057-.275a2.143,2.143,0,0,0-.173-.594l-.281-.533-.351-.486-.39-.469-.089-.066-.089-.064a3.6,3.6,0,0,0-1-.573c-.363-.139-.723-.286-1.077-.439l-.112-.023-.112-.023-.386-.058-.372-.077c-.253-.045-.5-.092-.751-.141a3.049,3.049,0,0,1-.712-.239l-.128-.07-.1-.1a2.145,2.145,0,0,1-.395-.707,2.631,2.631,0,0,1-.1-.793,1,1,0,0,1,.536-.884l.573-.256a3.525,3.525,0,0,1,.8-.13c.267-.013.532-.013.8,0l.36.128.447.326.386.4.24.175.306-.032.251-.264.03-.187.016-.185-.05-.328Zm-10.539,7.138.135.209.1.158.107.1.144.032a.43.43,0,0,0,.516-.343,1.662,1.662,0,0,0,.064-.588l-.048-.413-.032-.4-.018-.183L92.2,216q-.164-.511-.648-.232l-.187.141-.208.377-.242.356q-.411.16-.821.288c-.271.083-.547.166-.828.245l-.39.1-.212-.032-.116-.153-.135-.288-.036-.222c-.039-.394-.089-.786-.153-1.176s-.125-.778-.194-1.166l-.039-.352.057-.2.185-.113.347-.1.073-.017a7.345,7.345,0,0,0,1.517-.418,5.328,5.328,0,0,1,.865-.256c.294-.06.591-.117.894-.175l.151,0,.1.066.068.087-.009.482.125.456a.383.383,0,0,0,.63.134l.167-.094.162-.107.167-.175.039-.215c-.046-.26-.1-.511-.155-.759s-.119-.5-.183-.75l-.027-.066-.29-.2-.192,0-.2.045-.445.141-.463.13q-1.735.38-3.415.92a8.22,8.22,0,0,1-1.218.311,4.74,4.74,0,0,0-.8.19c-.258.085-.52.177-.787.273l-.205.3-.007.217c.059.283.26.422.6.413a.321.321,0,0,1,.381.277,5.272,5.272,0,0,0,.271,1.221l.073.279.043.3c.107.552.205,1.1.3,1.639a15.683,15.683,0,0,0,.372,1.609l.073.43.062.52.162.5a6.263,6.263,0,0,1,.226.648,2.983,2.983,0,0,1,.112.688l-.224.379-.217.1-.219.1-.171.1-.173.094-.109.153v.175l.027.079.068.13.068.128.262.209.347-.011.513-.185.536-.147.189-.047.183-.077a10.544,10.544,0,0,1,1.141-.409q.578-.169,1.186-.33.78-.214,1.56-.394c.52-.117,1.04-.239,1.565-.364l.381-.119.354-.185.242-.441c-.032-.243-.068-.486-.112-.731s-.084-.488-.125-.727l-.039-.136-.123-.138-.18-.038-.2.049-.178.062-.322.328-.1.33v.339l-.041.29-.256.192-.146.068-.151.055c-.251.072-.5.145-.751.213s-.506.134-.771.192l-.566.139-.557.194-.331.109-.351.068-.141-.026-.094-.109-.027-.066-.027-.066-.123-.541-.183-.528-.112-.386-.1-.4-.13-.533-.176-.524-.078-.328-.034-.322.027-.1.075-.1.356-.136.315-.062.292-.1a3.251,3.251,0,0,1,.691-.209c.235-.04.479-.094.73-.16m-13.076.264,0-.043.032.023Zm7.234,5.163-.041-.518L85.4,222.4l-.036-.087-.189-.335-.274-.241-.376-.006-.192.139-.1.2-.068.5-.068.482a.5.5,0,0,1-.415.452l-.18.066-.185.038-1.49.341c-.49.113-.988.226-1.487.339l-.148.019c-.258.034-.422.019-.493-.047a.674.674,0,0,1-.141-.392l-.014-.19.016-.177a3.688,3.688,0,0,0-.066-1.159c-.084-.371-.155-.746-.214-1.125a2.126,2.126,0,0,1-.144-.7,4.384,4.384,0,0,1,.034-.727l.011-.439-.109-.439-.046-.2-.03-.215a3.149,3.149,0,0,1-.014-.654c.018-.215.03-.43.032-.65,0-.3-.011-.6-.023-.895s-.021-.592-.025-.895l.235-.286.381-.1.363-.153.162-.247-.155-.249-.3-.072-.285-.077a2.212,2.212,0,0,0-1.1-.038l-.317.064-.317.077c-.226.049-.456.1-.691.164s-.472.109-.707.151l-.379.247-.155.43.123.224.246.1h.2l.2-.026.123.068.073.147.018.06.007.077a3.02,3.02,0,0,0,.025.825,3.543,3.543,0,0,1,.041.822l.011.147.041.143a3.7,3.7,0,0,1,.121.8c.011.273.011.545,0,.82,0,.247,0,.488.009.729a5.489,5.489,0,0,0,.071.7,7.279,7.279,0,0,0,.151.886c.066.292.121.588.164.882s.073.556.094.837.05.569.082.865l-.055.177-.164.094-.317.077-.315.079-.253.224-.078.356.08.166.151.1.157.015.171-.015c.415-.075.833-.139,1.252-.2a7.225,7.225,0,0,0,1.246-.277l.317-.07.319-.043c.415-.075.821-.141,1.223-.2s.808-.119,1.223-.183l.235-.047.251-.075a6.816,6.816,0,0,1,.737-.17,3.494,3.494,0,0,1,.746-.043l.319-.034.315-.092.322-.2.116-.349-.018-.337-.034-.335Zm-14.306,1.617-.217.045-.187.03-.386.213-.205.366v.092l.075.09.258.139.481.058.465.1.246-.081.246-.079.187-.051.187-.008.6.006.6-.034c.3.026.431-.126.4-.452a.386.386,0,0,0-.365-.388l-.189-.013-.187-.013-.183-.179-.021-.428-.094-.411-.025-.175,0-.175-.025-2.031-.027-.435-.027-.42,0-.349c0-.337-.007-.675,0-1.016s0-.682.009-1.029.011-.673.016-1.014a5.858,5.858,0,0,1,.107-1l.021-.224.066-.2.214-.094.278-.011.135-.043.208-.2,0-.337-.221-.341-.383-.032a4.411,4.411,0,0,1-1.706.188,5.624,5.624,0,0,0-.675-.034.435.435,0,0,0-.5.411l.032.209.151.138.151.04.151.041.212.181.055.209.025.209.03.554v.554c-.016.354-.032.71-.046,1.063s-.027.71-.032,1.065l0,.511.043.524.034.322-.009.309c-.018.243-.025.482-.023.714a4.507,4.507,0,0,0,.068.7l.018.239.018.251.007.526.023.524,0,.315Zm-3.226-8.828.2-.117.187-.119.317-.379-.036-.273-.214-.151c-.374-.038-.748-.081-1.118-.128s-.741-.085-1.118-.115a.784.784,0,0,0-.862.439l-.084.2-.146.286-.132.288c-.144.277-.281.55-.413.818s-.256.541-.367.814l-.141.288-.183.277a3.17,3.17,0,0,0-.42.624,7.135,7.135,0,0,0-.308.69,9.757,9.757,0,0,1-.42,1q-.236.489-.5.965l-.057.023-.068.008-.052-.055-.043-.145-.041-.145c-.027-.281-.064-.558-.112-.831a4.754,4.754,0,0,0-.217-.812l-.078-.36-.075-.375c-.1-.46-.187-.923-.246-1.383s-.132-.92-.219-1.379q-.092-.607-.178-1.2c-.057-.394-.1-.79-.135-1.189l-.109-.288-.237-.2-.36-.13q-.613-.141-1.2-.268t-1.186-.249l-.3-.019-.342.232-.016.241.1.2.169.158.185.16.125.326c-.023.273-.041.543-.052.814a3.7,3.7,0,0,0,.052.82l-.009.185-.021.181c-.048.392-.094.784-.141,1.176s-.1.782-.155,1.172c-.032.271-.075.537-.125.8a6.622,6.622,0,0,0-.109.788c-.043.354-.078.7-.1,1.046s-.055.684-.084,1.023l-.055.326-.125.3-.089.117-.128.068-.536.141-.538.168-.073.115.027.149.171.143.2.162a1.211,1.211,0,0,0,.776.275l.511.053.484.034.178.03.151,0,.214-.036.167-.145-.11-.467-.224-.324-.007-.369.064-.352.066-.367q.154-.786.269-1.558a8.842,8.842,0,0,0,.091-1.581l0-.107v-.124c.05-.42.1-.833.151-1.244s.107-.825.178-1.24l.1-.307.1-.3.048-.032.071.03.1.192.055.228q.133.642.276,1.274c.094.422.187.842.276,1.261.094.381.173.767.237,1.153s.132.771.205,1.159c.041.249.082.5.123.744s.089.49.151.733.109.475.171.71.123.469.185.712l.05.138.05.139.214.217.388.087.383,0,.1-.136.114-.134a1.565,1.565,0,0,0,.452-.524,4.494,4.494,0,0,0,.271-.633,8.927,8.927,0,0,1,.463-1.168,8.41,8.41,0,0,1,.632-1.089l.251-.392.18-.437c.073-.194.141-.388.2-.582a1.066,1.066,0,0,1,.344-.494l.023-.068.039-.064.433-.987.235-.454.29-.413.043-.055.059-.053.03-.006.032-.009.1.136.011.354-.05.354a4.526,4.526,0,0,1-.025.827l-.1.812c-.048.392-.1.782-.148,1.168s-.1.773-.162,1.163c-.046.307-.091.609-.132.912s-.084.607-.13.912l-.048.207-.048.219-.027.215-.041.215-.011.226-.1.224-.164.009-.182.019-.233.111-.164.181-.016.4.315.251.274.034.26.017.237.028.235.04a4.645,4.645,0,0,0,.837.151,4.676,4.676,0,0,1,.837.149l.306-.181-.064-.343-.324-.237-.367-.134-.155-.132v-.185a.972.972,0,0,0,.109-.552,3.586,3.586,0,0,1-.018-.714c.016-.23.046-.465.084-.705.055-.3.1-.586.125-.871s.052-.58.068-.882c.016-.207.036-.413.066-.616a3.685,3.685,0,0,1,.141-.6c.057-.237.1-.475.146-.716s.078-.482.116-.722c.062-.349.13-.7.208-1.046s.155-.69.235-1.027" transform="translate(-26.309 -174.133)" fill="#1a1311"/>
      </g>
    </g>
  </g>
</svg>
