<svg xmlns="http://www.w3.org/2000/svg" xmlns:xlink="http://www.w3.org/1999/xlink" width="148.75" height="215.843" viewBox="0 0 148.75 215.843">
  <defs>
    <clipPath id="clip-path">
      <path id="Path_559" data-name="Path 559" d="M55.8,189.8s-13.282,0-13.282,12.4V393.236c0,.192.1,12.4,13.282,12.4H177.986s13.284,0,13.284-12.405V202.2s0-12.4-13.284-12.4Z" transform="translate(-42.52 -189.796)" fill="none"/>
    </clipPath>
  </defs>
  <g id="Group_783" data-name="Group 783" transform="translate(-42.52 -189.796)">
    <g id="Group_210" data-name="Group 210" transform="translate(42.52 189.796)">
      <g id="Group_209" data-name="Group 209" clip-path="url(#clip-path)">
        <path id="Path_2856" data-name="Path 2856" d="M0,0H164.687V230.731H0Z" transform="translate(-7.968 -7.443)" fill="#cbc4c0"/>
        <path id="Path_555" data-name="Path 555" d="M89.261,248.695l.29.138a7.822,7.822,0,0,0,.671,1.21l.189.04a7.307,7.307,0,0,1,1.3-1.127l.349.072a1.7,1.7,0,0,1,.436.761l.151.422.189.1.287-.207c.367-.324.744-.637,1.106-.955l.139-.021.335.332c.123.313.274.612.374.912l.205.166.219-.021a11.057,11.057,0,0,1,1.3-.748l.287.19.162.646.233.384.176.028a2.729,2.729,0,0,0,.983-.482l.465-.107.112.2-.021,1.008.267.362c.511-.256,1.052-.486,1.533-.767l.242.313c.062.249-.011.52.039.771l.267.426a8.751,8.751,0,0,1,1.225-.509l.461.119.1.339.1.541.027.452.2.09c.319-.055.6-.177.938-.209l.454,0,.187.269-.036.4c.039.209.071.426.091.624l.463.117a4.449,4.449,0,0,1,.723-.13l.205.264a6.428,6.428,0,0,0-.192,1.008l.157.147c.463-.023.853-.087,1.259-.128l.237.424a2.8,2.8,0,0,0-.251.993l.16.145a4.238,4.238,0,0,0,1.129-.03l.333.117.016.156a10.3,10.3,0,0,0-.3,1.106l.135.132a13.293,13.293,0,0,0,1.4-.006l.066.245a7.364,7.364,0,0,1-.579.98l-.073.258.176.175a12.1,12.1,0,0,0,1.323.111l.153.234a4.382,4.382,0,0,1-.484.8l-.228.273.4.254a7.56,7.56,0,0,0,1.125.209l.164.194c-.153.241-.379.484-.573.744l-.189.339.119.173a6.29,6.29,0,0,0,1.371.337l.141.164-.228.311c-.287.3-.545.633-.84.893l.144.251c.44.134.906.241,1.339.4l.283.254-.03.1c-.39.3-.693.688-1.07,1.023.059.2.258.279.415.369.292.164.6.311.917.45l.185.162-.121.239a4.612,4.612,0,0,0-.678.577l-.03.051.2.215c.249.151.509.3.764.462l.276.26-.007.181a8.822,8.822,0,0,1-1.063.652l-.1.17.114.126a2.547,2.547,0,0,1,.627.352l.47.249a.369.369,0,0,1,.176.447.724.724,0,0,1-.641.326l-.552.294.039.187a10.58,10.58,0,0,1,1.079.667l.073.156-.192.209a3.106,3.106,0,0,0-1.02.535l-.31.2.082.16a3.9,3.9,0,0,1,.849.563l.328.275v.07l-.328.175a4.387,4.387,0,0,1-.584.217l-.536.251-.082.177a4.634,4.634,0,0,0,.99.788l.169.234-.406.279c-.294.111-.625.177-.938.271l-.169.156.052.141a5.862,5.862,0,0,0,.931.765l-.08.4c-.468.136-.995.211-1.485.324l-.157.209a11.137,11.137,0,0,0,1,1.168l-.036.228a3.134,3.134,0,0,1-1.154.3l-.057.141a2.879,2.879,0,0,1,.668.744l-.1.369c-.5.034-.917.143-1.408.181l-.116.162c.182.469.392.908.573,1.372l-.356.266-1.2-.083-.155.16c.1.454.167.952.278,1.419l-.176.268-.445,0c-.244-.038-.516-.043-.76-.064l-.185.2a13.048,13.048,0,0,0,.258,1.481l-.3.288-.96.077-.189.183a5.866,5.866,0,0,0,.075.976l-.137.181h-.162c-.4-.141-.792-.258-1.184-.379l-.217.422a6.07,6.07,0,0,0,.068.876l-.224.228-.258-.075a9.737,9.737,0,0,0-.954-.407l-.23.213a12.367,12.367,0,0,1-.071,1.27l-.383.245a1.5,1.5,0,0,1-.568-.222l-.472-.19-.246.2c-.173.411-.269.891-.44,1.317l-.3.1c-.285-.147-.563-.311-.869-.439l-.244.03-.119.232c-.071.3-.1.612-.162.927l-.37.173a3.371,3.371,0,0,1-.913-.631l-.283,0a4.511,4.511,0,0,0-.586,1.229l-.351.092c-.354-.16-.548-.479-.851-.684l-.224-.019-.205.369c-.144.332-.244.663-.406.974l-.189.032a4.721,4.721,0,0,0-1.111-.837l-.235.187a3.887,3.887,0,0,1-.543.759l-.333.36c-.249-.09-.367-.337-.534-.52l-.44-.422-.2-.032L91.791,297.5l-.242,0a11.7,11.7,0,0,1-.794-.948l-.24-.187-.255.1a13.321,13.321,0,0,0-1.1,1.074l-.219.028a5.258,5.258,0,0,1-.682-.906l-.224-.311-.276-.036a7.366,7.366,0,0,0-1.143,1.144l-.171,0-.205-.224c-.2-.339-.271-.771-.568-1.014l-.173-.107-.34.164a5.713,5.713,0,0,0-.814.68l-.153.026a11.05,11.05,0,0,1-.767-1.163l-.235-.362-.244.026a10.472,10.472,0,0,0-1.189.929l-.219,0-.11-.175a5.366,5.366,0,0,0-.214-1.513l-.183-.09c-.543.315-1.074.641-1.583.978l-.287-.23a5.808,5.808,0,0,0-.039-1.215l-.167-.128-.456.2c-.354.187-.668.407-1.006.582l-.26-.179a12.307,12.307,0,0,1,.08-1.4l-.182-.141c-.212.072-.424.194-.682.288l-.821.33-.381-.2a4.071,4.071,0,0,1,.24-1.315l-.155-.179a1.711,1.711,0,0,0-.865.307,1.225,1.225,0,0,1-.678.188l-.23-.3a5.3,5.3,0,0,0,.322-1.085l-.162-.17a11.419,11.419,0,0,0-1.351.29L72,291.12l-.059-.181.2-.844-.187-.228-1.027-.015-.365.064-.221-.294a7.726,7.726,0,0,0,.408-1.379l-.157-.16a12.821,12.821,0,0,1-1.373-.015.455.455,0,0,1-.265-.565,3.634,3.634,0,0,1,.4-.972l-.141-.2a4.117,4.117,0,0,1-1.446-.173l-.194-.392a2.548,2.548,0,0,1,.415-.7l.148-.313-.429-.249c-.329-.1-.732-.111-1.072-.207l-.2-.283a3.34,3.34,0,0,1,.616-.906l.091-.341-.2-.126c-.413-.13-.89-.183-1.291-.322l-.139-.377a6.459,6.459,0,0,1,.924-1.014l-.075-.2a8.219,8.219,0,0,0-1.378-.467L64.742,280l.1-.187c.271-.3.6-.539.86-.842l-.032-.249a7.181,7.181,0,0,0-1.218-.6l-.107-.3a3.486,3.486,0,0,1,.949-.8l.009-.26a4.834,4.834,0,0,1-1.246-.729l-.023-.228c.153-.381.6-.5.928-.718l.055-.309a7.831,7.831,0,0,0-1.1-.673l-.075-.441c.338-.3.767-.5,1.134-.773l-.03-.245c-.347-.345-.771-.626-1.125-.97l-.009-.228c.23-.292.657-.4.949-.633l.192-.264a5.441,5.441,0,0,0-.575-.707,2.04,2.04,0,0,1-.417-.526l.358-.332a5.711,5.711,0,0,0,.8-.433l.062-.17a6.741,6.741,0,0,1-.735-1.057l-.05-.207a.828.828,0,0,1,.7-.58l.511-.145.1-.228a6.315,6.315,0,0,1-.659-1.3l.139-.384a1,1,0,0,1,.591-.241l.436-.087.436-.062.089-.145a6.979,6.979,0,0,1-.532-1.261.454.454,0,0,1,.267-.569,4.143,4.143,0,0,0,1.077-.092l.125-.177a8.978,8.978,0,0,0-.413-1.229l.032-.143c.08-.168.335-.164.568-.179.376-.023.748-.047,1.093-.1l.244-.311-.319-.98-.162-.347.18-.207.573-.009a3.452,3.452,0,0,0,.926.077l.167-.222c-.052-.49-.121-.948-.2-1.411l.162-.29.2.015a5.667,5.667,0,0,0,.844.251l.358-.2a10.486,10.486,0,0,1-.148-1.078.364.364,0,0,1,.31-.358l1.417.264.137-.128v-1.131a.5.5,0,0,1,.155-.618l.315-.019a8.657,8.657,0,0,0,1.163.5l.226-.194a12.186,12.186,0,0,1,.233-1.313l.324-.3c.356.2.735.349,1.09.533l.2,0,.121-.177.283-1.025.548-.121.992.546.256-.211c.116-.4.313-.744.429-1.112l.212-.132a5.643,5.643,0,0,1,.618.335,3.843,3.843,0,0,1,.623.373l.317-.381c.119-.3.2-.637.319-.935l.335-.2.139.072a4.642,4.642,0,0,0,.785.663l.226.006.205-.268a6.519,6.519,0,0,1,.411-.808l.379-.128c.3.281.573.626.883.942l.249-.047c.283-.356.552-.718.814-1.1l.313-.228c.212.06.313.288.42.469a8.11,8.11,0,0,1,.668.75l.23-.066a13.629,13.629,0,0,0,1.054-1.2Z" transform="translate(-15.241 -123.196)" fill="#fff3d8"/>
        <path id="Path_556" data-name="Path 556" d="M60.569,256.554l2.037,5.9,6.636-.011-5.375,3.635,2.062,5.892-5.361-3.654-5.363,3.654,2.065-5.892-5.377-3.635,6.636.011Z" transform="translate(-30.511 -114.309)" fill="#fff3d8"/>
        <path id="Path_557" data-name="Path 557" d="M99.421,256.554l2.037,5.9,6.636-.011-5.375,3.635,2.062,5.892-5.361-3.654-5.363,3.654,2.065-5.892-5.377-3.635,6.636.011Z" transform="translate(19.27 -114.309)" fill="#fff3d8"/>
      </g>
      <g id="Group_825" data-name="Group 825" transform="translate(-383 55.182)">
        <g id="Group_822" data-name="Group 822" transform="translate(445.589 69.246)">
          <g id="Group_826" data-name="Group 826">
            <path id="Path_3155" data-name="Path 3155" d="M469.936,74.567l.148.043-.014-.684a12.677,12.677,0,0,1-3.136-1.149c-.557-.185-1.017-.48-1.578-.673s-1.057-.449-1.63-.646l-4.32-1.531c-.4-.125-.787-.262-1.209-.4-.371-.121-.807-.2-1.194-.295l-7.085.13c-.85,0-1.459.036-2.325.045-.688.005-1.39-.054-2.123-.009l-.23.087-.264.315a1.659,1.659,0,0,0,.769.465l3.058,1.2.022.536c-.031.257-.092.47-.109.724l-.067.1-.1-.154a5.528,5.528,0,0,0-.009-.963c-.016-.228-.255-.311-.471-.328a.574.574,0,0,0-.192.436c-.078.72-.157,1.437-.215,2.161-.033.405-.062.813-.092,1.218-.1,1.4-.308,2.783-.4,4.18-.009.154.036.338.2.349l.134-.154a3.671,3.671,0,0,1,.1-1.051l.06-.049a5.58,5.58,0,0,0,.025.695l.2-.06c.074-.974.244-1.893.371-2.917l.038.483-.152,1.867c.062.2.1.331.21.407l.2-.116c.119-.928.219-1.86.378-2.781a9.913,9.913,0,0,0,.168-1.7c0-.447.047-.889.033-1.337-.007-.23.053-.456.056-.686a2.376,2.376,0,0,1-.011-.641c.259.027.49.206.749.235L452.23,73l-.561.577a10.623,10.623,0,0,0-.849.934c-.244.338-.432.713-.684,1.044a4.157,4.157,0,0,0-.8,1.716c-.034.21.109.333.116.543a8.522,8.522,0,0,0-.637,2.3c-.04.449-.1.8-.15,1.187l.018.735.067.074-.176.309-.049.038a2.4,2.4,0,0,0-.494,1.16l-.009.092-.2.143a.321.321,0,0,1-.443-.138l-.118-.275-.188-.081-.174.148.02.469-.1.047a.764.764,0,0,1-.19-.536,2.834,2.834,0,0,1,.447-1.58l.141-.177-.072-.136-.176.112-.165.031c-.219.306-.382.662-.583.957a3.4,3.4,0,0,0,.016,1.079,1.58,1.58,0,0,0,1.111,1.118l.051.154-.221.005c-.177-.081-.395-.092-.57-.181l-.261-.109-.3-.042-.081.188.045.309-.244.112-.049.28a3.94,3.94,0,0,0,.355.974l.112.094a1.2,1.2,0,0,1,.556.148l.152.143-.052.1-.378-.024-.072.174a2.119,2.119,0,0,0,.5.784c-.107.474.4.628.673.894a2.541,2.541,0,0,0,.838.483c.308.132.378.449.539.727a10.686,10.686,0,0,1,.874,2.076,10.861,10.861,0,0,0,.695,2.05,4.237,4.237,0,0,0,1.059,1.118,1.814,1.814,0,0,0,1.015.384c.2.014.476-.038.642.112l.069.092c-.192.13-.385.262-.579.393l-.1-.027-.253.118c-.628.259-1.178.612-1.77.908l.161.206a3.646,3.646,0,0,0-1.406,1.386l-.011,0a3.407,3.407,0,0,0-.693.454,6.494,6.494,0,0,0-.838,1,17.139,17.139,0,0,0-1.63,3.2c-.563,1.312-1.24,2.6-1.732,3.945h25.058a8.373,8.373,0,0,0-.914-5.259c-1.028-1.849-2.707-2.892-4.249-4.227a1.785,1.785,0,0,1-.715-.519l-.031-.172a9.675,9.675,0,0,1-.695-1.525c-.181-.518-.268-1.06-.465-1.573a1.834,1.834,0,0,0-.288-.613l-.51-.563c-.371-.052-.673-.2-1.037-.288a9.293,9.293,0,0,1,.157-1.115,2.41,2.41,0,0,0-.029-.76l.273-.04a6.146,6.146,0,0,0,1.909-.335,2.325,2.325,0,0,0,.939-.677,5.116,5.116,0,0,0,.7-1.024l.005-.206-.168.043-.241.166-.007-.116.393-.177c1.133-.121,1.54-1.573,1.281-2.541a5.723,5.723,0,0,1-.036-.713,3.775,3.775,0,0,0-.9-1.913L464.655,83l-.121-.337c-.062-.166-.145-.32-.219-.481l.014-.179-.031-.326.252-.355a4.259,4.259,0,0,0-.029-1.71c-.062-.63-.147-1.258-.2-1.889a6.186,6.186,0,0,0-.525-1.877,8.939,8.939,0,0,0-.586-1.178l.087-.1c.928-.036,1.866-.138,2.8-.1,1.27.052,2.53.119,3.836.1m-22.756-1.98c-.009.253-.472,5-.55,5.4l-.215,1.9.094.19.2.047.186-.333.016-.279c.118-.651.15-1.379.259-2.025.06-.347.226-2.729.226-2.729.061-.648.1-1.39.174-2.074.009-.074.02-.831,0-1.1l-.147-.1-.141.152a3.891,3.891,0,0,0-.1.943" transform="translate(-444.451 -69.231)" fill="#fff3d8"/>
          </g>
        </g>
        <g id="Group_824" data-name="Group 824" transform="translate(443.046 69.213)">
          <g id="Group_827" data-name="Group 827">
            <path id="Path_3156" data-name="Path 3156" d="M452.47,77.282a2.122,2.122,0,0,0-1.6-.367c-.23.047-.409.165-.622.217-.08.02-.161.09-.15.156s.1.045.174.071a.814.814,0,0,1,.364-.147,3.206,3.206,0,0,1,1.124-.025c.244.036.434.2.68.239a.079.079,0,0,0,.033-.143" transform="translate(-437.339 -63.008)" fill="#1a1311"/>
            <path id="Path_3157" data-name="Path 3157" d="M446.253,76.528c.06-.351.233-2.752.233-2.752.063-.653.1-1.4.179-2.094.009-.074.022-.836,0-1.106a.121.121,0,0,0-.152-.1.211.211,0,0,0-.145.152,3.782,3.782,0,0,0-.107.952c-.009.255-.489,5.04-.568,5.452-.016.085-.183,1.82-.224,1.915-.027.067.067.127.1.194a.168.168,0,0,0,.206.047.966.966,0,0,0,.194-.337c.027-.062,0-.181.016-.282.121-.655.156-1.39.268-2.041" transform="translate(-441.088 -68.193)" fill="#1a1311"/>
            <path id="Path_3158" data-name="Path 3158" d="M447.778,90.835a19.953,19.953,0,0,1,1.1-2.28,6.371,6.371,0,0,1,1.3-2.047c.132-.239.405-.378.44-.671.011-.094-.062-.1-.168-.06a3.7,3.7,0,0,0-.715.458,6.733,6.733,0,0,0-.867,1,17.22,17.22,0,0,0-1.683,3.23c-.635,1.446-1.421,2.856-1.933,4.352l-1.779,5.2c-.145.7-.329,1.375-.425,2.114a.826.826,0,0,0,0,.177l.239.174,0-.047a2.93,2.93,0,0,1,.127-.592,5.92,5.92,0,0,1,.192-.9c.134-.36.322-.708.481-1.057.081-.176.163-.349.25-.521.172-.342.3-.717.481-1.051a21.716,21.716,0,0,0,.966-2.108c.271-.66.585-1.312.8-1.992.369-1.164.758-2.291,1.193-3.38" transform="translate(-443.046 -55.821)" fill="#1a1311"/>
            <path id="Path_3159" data-name="Path 3159" d="M455.21,90.636a.319.319,0,0,0,.17,0,.284.284,0,0,0,.114-.121.547.547,0,0,0-.007-.161,12.325,12.325,0,0,0-.217-1.256,3.223,3.223,0,0,0-.454-.894,1.643,1.643,0,0,0-.44-.6c-.036.036-.078.062-.09.087a.612.612,0,0,0-.007.346c.051.279.15.545.215.813a7.076,7.076,0,0,0,.384,1.283,1.271,1.271,0,0,0,.333.507" transform="translate(-433.969 -54.326)" fill="#1a1311"/>
            <path id="Path_3160" data-name="Path 3160" d="M463.573,74.6c.961-.036,1.929-.139,2.9-.1,1.312.052,2.613.119,3.963.1a.225.225,0,0,1,.154.043l-.015-.688a13.352,13.352,0,0,1-3.239-1.16c-.577-.186-1.053-.483-1.632-.68s-1.091-.451-1.685-.65l-4.461-1.547c-.413-.125-.814-.264-1.25-.4-.382-.123-.834-.2-1.232-.3l-7.32.132c-.878,0-1.506.038-2.4.045-.711.005-1.437-.054-2.191-.009a.369.369,0,0,0-.239.089,1.2,1.2,0,0,0-.273.318,1.719,1.719,0,0,0,.794.467l3.16,1.207a.984.984,0,0,1,.022.541c-.033.259-.094.474-.11.729,0,.038-.02.136-.069.1s-.112-.083-.1-.156a5.465,5.465,0,0,0-.011-.972c-.016-.23-.262-.313-.485-.329a.568.568,0,0,0-.2.438c-.08.727-.163,1.451-.223,2.181-.034.409-.063.82-.1,1.229-.109,1.41-.317,2.808-.411,4.218-.009.154.038.34.21.351a.148.148,0,0,0,.138-.154,3.588,3.588,0,0,1,.107-1.06c0-.011-.005-.085.063-.051a5.058,5.058,0,0,0,.025.7c.007.049.2.06.206-.062.076-.981.252-1.909.384-2.942a1.171,1.171,0,0,1,.04.487l-.156,1.884c.063.2.1.335.215.411.085.058.19-.033.2-.116.125-.936.226-1.877.393-2.807a10.055,10.055,0,0,0,.174-1.715c0-.451.047-.9.033-1.348-.007-.233.054-.461.058-.693a2.341,2.341,0,0,1-.011-.646c.268.029.507.208.773.237l2.374,1.1c-.087-.04-.51.507-.581.581a11.042,11.042,0,0,0-.876.943c-.252.34-.447.718-.708,1.053a4.207,4.207,0,0,0-.823,1.73c-.034.212.112.337.121.55a8.445,8.445,0,0,0-.659,2.316c-.04.452-.109.809-.154,1.2l.018.74a.514.514,0,0,1,.163.333,1.343,1.343,0,0,1,.072.47.085.085,0,0,1-.1.074c-.04-.013-.091-.036-.121-.024a.164.164,0,0,0-.083.092c-.033.087.027.147.063.223a.827.827,0,0,0,.68.485c.027,0,.116.009.132-.007a.454.454,0,0,1,.255-.148l.49-.043c.031.179-.022.434.107.514a1.189,1.189,0,0,0,.375.38.891.891,0,0,0,.509-.2c.125-.072.259-.069.356-.123s.047-.174.016-.244c-.081-.188-.306-.219-.42-.373-.036-.047-.11-.157,0-.2.062-.024.119-.1.065-.17a1.6,1.6,0,0,0-1.52-.612c-.091.014-.141.1-.194.166-.025.034.025.1.069.1l.671,0c.2.13.385.179.5.351a3.02,3.02,0,0,1-.485-.179,1.973,1.973,0,0,0-.7.212.281.281,0,0,1-.3-.049.239.239,0,0,1-.071-.143l-.02-.624c0-.054.033-.128.08-.127a3.016,3.016,0,0,1,1.54.228l.465.32c.036.025.125.047.125,0l-.015-.385a2.982,2.982,0,0,0-.233-.637,2.365,2.365,0,0,0-1.183-.91,2.155,2.155,0,0,0-.709-.042.171.171,0,0,1-.121-.114,7.827,7.827,0,0,1,.333-1.567,6.848,6.848,0,0,1,.382-1.113c.031-.065.1.013.132.025a17.252,17.252,0,0,1,1.665.932,5.34,5.34,0,0,0,1.325.633A3.709,3.709,0,0,0,454.2,79.6a8.721,8.721,0,0,1,2.4-.2c.519.042,1.075.11,1.614.172.476.13,1.048.168,1.518.326a17.415,17.415,0,0,1,1.716.556l1.945,1.082.532.143a.133.133,0,0,1,.074.069c.058.328.156.635.186.948a1.993,1.993,0,0,0-.9-.688.976.976,0,0,0-.255-.042c-.365-.011-.782,0-1.138.022a.388.388,0,0,0-.174.092c-.072.056-.145-.042-.212-.09a3.654,3.654,0,0,1-.682-.644,2.108,2.108,0,0,0-.438-.4c-.08-.054-.141.051-.2.116a3.26,3.26,0,0,0,.787,1.278,4.379,4.379,0,0,1,.695.315c.056.025.165.118.116.118a1.017,1.017,0,0,1-.738-.25,8.521,8.521,0,0,1-1.075-1.093.146.146,0,0,0-.2-.005.189.189,0,0,0-.063.1.452.452,0,0,0,0,.139,9.567,9.567,0,0,0,.755,1.182,2.126,2.126,0,0,1,.447.566,2.669,2.669,0,0,0,.916.476.4.4,0,0,1,.2.161,1.148,1.148,0,0,1-.537-.04l-.666-.132a.832.832,0,0,0-.409-.072c-.051,0-.136-.025-.2-.036-.655-.114-1.218-.309-1.882-.454a4.447,4.447,0,0,0-.433-.362c-.069-.04.011-.08.034-.083a.157.157,0,0,0,.127-.112c.027-.08.067-.172.005-.241-.242-.27-.565-.442-.829-.686a1.786,1.786,0,0,0-.6-.413,2.078,2.078,0,0,0-.948.1,3.673,3.673,0,0,0-1,.324,1.408,1.408,0,0,0-.512.335.21.21,0,0,0,.025.255,1.848,1.848,0,0,0,.271.3.337.337,0,0,1-.295.114,12.3,12.3,0,0,1-2.257-.112,1.54,1.54,0,0,1-.4-.405c-.029-.038-.2-.054-.223.043a.833.833,0,0,0,.087.467,6.35,6.35,0,0,1,.266.708,2.14,2.14,0,0,1,.081.44,1.664,1.664,0,0,1-1.464,1.609,2.941,2.941,0,0,1-.9-.014,1,1,0,0,1-.385-.214.3.3,0,0,1-.1-.215,5.459,5.459,0,0,1,.156-.7.621.621,0,0,0-.072-.4.325.325,0,0,0-.165-.136c-.076-.022-.163.112-.2.181-.074.154-.071.36-.141.5-.132,0-.065-.156-.081-.224s-.074-.132-.038-.194a.549.549,0,0,0,.11-.364c-.007-.08-.224-.089-.219-.219a2.819,2.819,0,0,0,.072-.452,1.563,1.563,0,0,0,.23-.5c.02-.063,0-.143-.067-.154a.207.207,0,0,0-.148.067,2.38,2.38,0,0,0-.51,1.169c0,.02,0,.081-.009.092-.04.085-.132.1-.2.147a.338.338,0,0,1-.458-.139l-.121-.277c-.029-.056-.132-.074-.2-.083a.174.174,0,0,0-.179.15,1.866,1.866,0,0,0,.022.472c0,.049-.065.089-.1.047a.763.763,0,0,1-.2-.539A2.793,2.793,0,0,1,446.825,82c.042-.067.112-.116.145-.179a.1.1,0,0,0-.074-.136.147.147,0,0,0-.183.112c-.056,0-.121-.033-.168.033-.228.308-.394.666-.6.965a3.4,3.4,0,0,0,.018,1.088,1.612,1.612,0,0,0,1.147,1.127.341.341,0,0,1,.054.157c.007.067-.17.031-.23,0-.183-.083-.407-.092-.588-.183a2.616,2.616,0,0,1-.27-.109.511.511,0,0,0-.311-.043c.04.085-.072.132-.085.19a.753.753,0,0,0,.049.313c-.072.04-.19.031-.253.114a.34.34,0,0,0-.051.282,3.9,3.9,0,0,0,.366.983c.027.04.072.092.116.094a1.274,1.274,0,0,1,.574.15.921.921,0,0,1,.157.143c.031.045-.018.1-.054.1a1.709,1.709,0,0,1-.391-.024c-.076-.018-.092.132-.074.176a2.13,2.13,0,0,0,.519.789c-.11.48.413.635.7.9a2.637,2.637,0,0,0,.865.487c.317.134.391.452.556.735a10.512,10.512,0,0,1,.9,2.094,10.97,10.97,0,0,0,.718,2.068,4.294,4.294,0,0,0,1.095,1.127,1.916,1.916,0,0,0,1.048.389c.208.013.492-.04.664.11s.1.353.02.528a4.826,4.826,0,0,0-.463,1.79,9.916,9.916,0,0,0,.143,1.182.176.176,0,0,0,.123.132c.094.018.128-.143.156-.177a4.753,4.753,0,0,0,.518-1.346,2.952,2.952,0,0,0,.172-.724,4.7,4.7,0,0,0,.02-.968l-.13-.481a5.263,5.263,0,0,0,1.212-.445,20.072,20.072,0,0,0,2.266-1.62c.639-.5,1.319-.894,1.92-1.41l.717-.737a1.461,1.461,0,0,0,.3-.632c.009-.065-.091-.085-.114-.052a9.762,9.762,0,0,1-2.716,2.153c-.8.395-1.45.95-2.313,1.31a7.206,7.206,0,0,1-2.2.668,2.444,2.444,0,0,1-1.862-.574,4.4,4.4,0,0,1-.766-2.164,7.352,7.352,0,0,0-.561-1.573c-.174-.375-.335-.756-.494-1.136-.147-.351-.335-.688-.449-1.051-.091-.291-.136-.6-.215-.892a1.789,1.789,0,0,1-.083-.992l.273-1.01c.02-.071.11-.067.165-.052a2.583,2.583,0,0,0,1.031.152l.5-.036a7.333,7.333,0,0,0,1.118-.467c.045-.018.107.034.094.074a1.646,1.646,0,0,0-.121.347c0,.024.043.062.072.071s.118.013.132-.009a2.124,2.124,0,0,0,.414-.879A2.921,2.921,0,0,0,452.1,83.4a4.211,4.211,0,0,0,1.312.016c.054.114-.069.152-.083.223a5.91,5.91,0,0,0-.129.646.092.092,0,0,0,.167.058,2.886,2.886,0,0,0,.338-.626,1.249,1.249,0,0,1,1.185-.722,4.694,4.694,0,0,1,2.128.049,2.014,2.014,0,0,1,1.01.44,2.207,2.207,0,0,1-1.567,2.593,2.235,2.235,0,0,1-2.36-.494c-.147-.166-.331-.3-.485-.452-.042-.038-.215-.04-.219.02a.747.747,0,0,0,.214.548,3.282,3.282,0,0,0,.42.5,2.449,2.449,0,0,0,1.2.44,2.82,2.82,0,0,0,2.879-1.542c.138-.358.25-.736.394-1.05a.187.187,0,0,1,.181-.1l1.489.159c.242.109.6.08.805.239.139.219.223.474.371.7a.675.675,0,0,1,.089.315.988.988,0,0,1-.065.539.315.315,0,0,0-.083.375,1.065,1.065,0,0,0,.86.143,1.539,1.539,0,0,0,.619.058.366.366,0,0,0,.271-.27l.34-.422c.161-.4-.1-.807-.264-1.129a2.048,2.048,0,0,0-.7-.612.074.074,0,0,1,.018-.134c.06-.02.138.141.2.17a1.62,1.62,0,0,1,.9,1.164l.23.668a1.078,1.078,0,0,0,.009.711c.016.036.078.062.052.1a1.557,1.557,0,0,1-1.086.617c-.038.005-.1.042-.123,0s.009-.152-.04-.161a1.183,1.183,0,0,0-.46.083c-.042.007-.1-.029-.074-.069.04-.056.085-.121.145-.134.083-.02.181.043.271.031a1.063,1.063,0,0,0,.19-.083.363.363,0,0,0-.147-.2.4.4,0,0,0-.3-.038,2.584,2.584,0,0,1-1.182.17,3.013,3.013,0,0,1-1.437-.519.073.073,0,0,0-.1.029.222.222,0,0,0,0,.17,1.617,1.617,0,0,0,.99.784c.121.038-.038.062-.067.062a1.987,1.987,0,0,1-.99-.38c-.15.1-.1.233-.071.344.027.094.112.152.112.2a.8.8,0,0,0,.394.68,1.281,1.281,0,0,0,.315.337c.063.051.007.114-.038.074s-.11-.1-.163-.1a.615.615,0,0,1-.472-.235.185.185,0,0,0-.266.009c-.148.174.022.5.072.7a1.227,1.227,0,0,0,.167.371c.29.508.55.809,1.187.765.109-.007.293.045.268.128-.045.15-.176.214-.241.308-.036.049.023.177,0,.253a10.81,10.81,0,0,0-.358,1.4,13.576,13.576,0,0,0-.031,1.918l.241.474c-.615.235-1.254.474-1.839.727a12.217,12.217,0,0,0-3.073,1.75,2.517,2.517,0,0,0-.452.478,1.75,1.75,0,0,1-.353.48,16.217,16.217,0,0,0-1.229,1.138,3.465,3.465,0,0,0-.6.771.464.464,0,0,1-.27.224,3.446,3.446,0,0,0-2.063-2.248c-.067-.025-.143-.067-.212-.036a.151.151,0,0,0-.089.1c-.016.3.152.416.235.606a8.045,8.045,0,0,0,1.022,1.715c.051.067.009.159-.027.257a2.238,2.238,0,0,1-.483.671,30.351,30.351,0,0,1-2.729,2.577c-.653.552-1.321,1.093-1.969,1.654a7.285,7.285,0,0,0-.461.872.307.307,0,0,0,.072.328c.087.074.241.063.416.112a1.136,1.136,0,0,1-.277.523,3.092,3.092,0,0,0-.547,1.44c-.009.08.154.226.237.192a2.247,2.247,0,0,0,.584-.326,1.721,1.721,0,0,0,.688-1.013c.074-.141-.007-.4.078-.537.022-.034.04-.06.085-.051a1.348,1.348,0,0,1,.456.134c.045.029.036.138.014.172a23.006,23.006,0,0,0-1.151,2.056,24.093,24.093,0,0,0-1.287,2.861,3.361,3.361,0,0,0-.221,1.183,2.173,2.173,0,0,0,.217.91c.1.161.375.311.532.161.206-.2.168-.718.228-.977a12.411,12.411,0,0,1,.7-1.929c.36-.86.813-1.654,1.234-2.465.1-.2.208-.438.3-.655a4.076,4.076,0,0,0,.282-1.03c.014-.1.128-.045.179-.04a.275.275,0,0,1,.255.318l-.563,1.415a17.158,17.158,0,0,0-.963,3.187,9.034,9.034,0,0,0-.351,3.174c.1.744-.016,1.636.606,2.188.322.286.872.375,1.064-.1a4.294,4.294,0,0,0,0-1.475c0-.6.014-1.2.025-1.8a8.58,8.58,0,0,1,.081-1.67c.074-.344.063-.711.157-1.051.337-1.2.632-2.445.876-3.76.007-.04.014-.17.1-.148.86.224,1.7.5,2.577.738.036.009.1.052.072.1l-.814,1.506a.177.177,0,0,0-.029.132c.013.033.052.094.1.076l.6-.277a6.2,6.2,0,0,0,.688-1.068.3.3,0,0,1,.208-.318c.13-.022.3-.027.34.1a6.739,6.739,0,0,1-.394.682,14.875,14.875,0,0,0-1.03,2.481c-.293.825-.762,1.6-1.015,2.432-.181.6-.385,1.2-.577,1.8-.1.306-.2.613-.3.917a21.859,21.859,0,0,0-.809,3.55,19.069,19.069,0,0,0,3.516-.916c.624-.293,1.23-.624,1.824-.979a2.573,2.573,0,0,0,.2-.726,30.383,30.383,0,0,0,.051-3.518l.547-1.985a7.885,7.885,0,0,1,.436-1.06c.237-.429.394-.889.613-1.335a27.335,27.335,0,0,1,1.411-2.367c.369-.594.633-1.308.992-1.916a6.838,6.838,0,0,1,.565-.831,1.486,1.486,0,0,0,.138-1.077.832.832,0,0,1,.123-.443.231.231,0,0,1,.185-.049.486.486,0,0,1,.286.152,2.275,2.275,0,0,1,.038.945,1.22,1.22,0,0,1-.226.787,2.861,2.861,0,0,0-.476,1.913c-.025.34-.067.684-.063,1.028,0,.112-.023.423.118.48s.308-.174.382-.261a10.072,10.072,0,0,0,.946-1.46,4.2,4.2,0,0,0,.34-3.938,1.083,1.083,0,0,1-.076-.581c.029-.139.2-.154.293-.2a1.066,1.066,0,0,1,.849.049l.02.682a11.271,11.271,0,0,0,1.095,1.808.749.749,0,0,0,.308.3.294.294,0,0,0,.148-.007c.109-.125.273-.163.4-.275a1.024,1.024,0,0,0-.145-.879c-.223-.646-.537-1.209-.8-1.82a.211.211,0,0,1-.02-.172c.054-.1.194-.109.3-.1l.715.033.409.157a2.489,2.489,0,0,1,.4.572c-.052.653.434,1.033.615,1.611.13.418-.181.784-.362,1.135-.731,1.426-1.9,3.024-2.275,4.595-.13.55-.239,1.062-.342,1.62-.074.4-.1.765-.2,1.178a3.382,3.382,0,0,0-.09,1.256c.262-.128.528-.252.8-.373.206-.442.405-.955.487-1.107.275-.518.6-.981.885-1.484a33.449,33.449,0,0,0,1.7-3.55c.147-.356.313-.706.465-1.06a6.124,6.124,0,0,0,.613-1.987,3.174,3.174,0,0,0-.561-1.9,7.349,7.349,0,0,1-.519-.961.885.885,0,0,0-.916-.492c-.461,0-.912.047-1.375.029a4.452,4.452,0,0,0-1.339.235c-.442.112-.326-.21-.281-.53a.68.68,0,0,0-.393-.8.538.538,0,0,1-.261-.751,5.134,5.134,0,0,1,.575-.78,7.732,7.732,0,0,0,.492-.879c.373.608,1.086.9,1.518,1.464a17.491,17.491,0,0,0,2.137,2.085q.391.358.771.726a5.428,5.428,0,0,1,.717.726,3.512,3.512,0,0,1,.61,3.711,11.952,11.952,0,0,1-1.468,2.685c-.528.805-1,1.98.233,2.5,1.555.661,2.038-2.443,2.208-3.373a8.3,8.3,0,0,0-.914-5.617c-1.062-1.867-2.8-2.917-4.388-4.265a1.839,1.839,0,0,1-.738-.523c-.025-.033,0-.116-.033-.174a9.653,9.653,0,0,1-.717-1.538c-.188-.523-.277-1.071-.479-1.587a1.886,1.886,0,0,0-.3-.619c-.1-.121-.364-.547-.527-.568-.384-.052-.695-.2-1.071-.29a9.094,9.094,0,0,1,.161-1.124,2.348,2.348,0,0,0-.029-.767.646.646,0,0,1,.282-.042,6.471,6.471,0,0,0,1.971-.337,2.381,2.381,0,0,0,.972-.684,5.2,5.2,0,0,0,.72-1.031c.031-.062.072-.166.005-.21a.144.144,0,0,0-.174.045c-.067.063-.15.159-.248.168-.051,0-.042-.087-.009-.118.1-.1.266-.1.405-.179,1.171-.123,1.592-1.587,1.325-2.562a5.811,5.811,0,0,1-.038-.718,3.77,3.77,0,0,0-.925-1.931c-.087-.119-.15-.242-.237-.376l-.125-.338a6.736,6.736,0,0,1-.364-.863,1.881,1.881,0,0,0,.38-.49,4.141,4.141,0,0,0-.029-1.725c-.063-.637-.15-1.269-.2-1.906a6.121,6.121,0,0,0-.543-1.893,8.928,8.928,0,0,0-.606-1.189c-.031-.049.042-.1.089-.1m-14.558,7.273a5.694,5.694,0,0,1,.914.123c.049.016.052.128-.016.116a8.516,8.516,0,0,0-.885-.132c-.049,0-.06-.116-.013-.107m8.266.849a5.308,5.308,0,0,0-1.366-.253,2.153,2.153,0,0,0-.389.051c-.051.009-.063-.058-.054-.1a.638.638,0,0,0,.157-.051,1.08,1.08,0,0,1,.619.031,6.472,6.472,0,0,1,.961.2c.067.034.081.128.072.119M449.528,106.8c-.027.065-.152.014-.217-.011-.045-.016-.143-.062-.1-.139.456-.8.892-1.623,1.341-2.438.255-.463.411-1.031.673-1.489.188-.326.405-.6.6-.914.071.009.016.1.022.078a3.818,3.818,0,0,1-.577,1.149c-.257.411-.429.91-.655,1.368-.382.776-.755,1.571-1.091,2.4m2.89.932c-.791-.206-1.542-.438-2.282-.708-.08-.029-.031-.1-.011-.156l.478-1.187c.018-.049.08-.024.143-.029a7.111,7.111,0,0,1,.38.659.634.634,0,0,0,.472.773,1.557,1.557,0,0,0,.429.031c.109-.016.2-.128.286-.118a.174.174,0,0,1,.141.139l.069.532c0,.056-.067.072-.1.063m13.183-6.194a1.771,1.771,0,0,1,.747.118.182.182,0,0,1,.1.242c-.031.076-.2.121-.183.192l.128.545a.323.323,0,0,1-.2-.266l-.651-.729c-.029-.034.007-.1.062-.1m-10.834,9.12c-.194.61-.436,1.142-.657,1.71a10.777,10.777,0,0,0-.34,1.024.8.8,0,0,1,0,.152.244.244,0,0,1-.116.11c-.038.014-.141.022-.128-.031.246-1.08.467-2.168.816-3.219.177-.532.308-1.1.431-1.643.856-.183.1,1.553-.009,1.9m6.352-16.18c-.058.016-.134-.013-.174.025a3.9,3.9,0,0,0-.119-.737,2.4,2.4,0,0,1-.013-.309,5.637,5.637,0,0,0,.852.21c.118.005.147.143.2.237a2.227,2.227,0,0,1,.174.776,4.711,4.711,0,0,0,.375,1.513,6.078,6.078,0,0,0,.474.793c.023.036-.04.1-.069.1a3.812,3.812,0,0,0-2.682,1.126c-.55.3-1.024.684-1.544,1.012-.239.15-.5.281-.74.4a.423.423,0,0,1-.286.051,4.717,4.717,0,0,0-2.852-.344c-.078.024-.737.181-.735.174.02-.157.19-.257.286-.3.337-.337.738-.6,1.086-.927a9.163,9.163,0,0,1,1.077-.939,18.968,18.968,0,0,1,1.775-1.024,7.616,7.616,0,0,1,1.951-.865,2.258,2.258,0,0,0,1.131-.825c.043-.071-.085-.174-.163-.148m3.538-8.371a2.467,2.467,0,0,0-.112-1.247.071.071,0,0,1,.038-.085.827.827,0,0,0,.51.514c.069.018.192-.02.183-.112a2.109,2.109,0,0,0-.326-.889.616.616,0,0,1-.071-.346c0-.014.042-.049.078-.089.139.138.226.376.413.456a.871.871,0,0,1,.259.563c.036.29.078.579.1.87a3.054,3.054,0,0,1-.244,1.585,1.48,1.48,0,0,1-.474.622,2.5,2.5,0,0,1-.825.262,4.276,4.276,0,0,1-.447.132c-.076.014-.11.08-.072.11a3.049,3.049,0,0,0,.409.28,2.414,2.414,0,0,1-.823.548c-.045-.11.125-.183.159-.262.023-.051-.016-.215.007-.255a.158.158,0,0,0,.014-.172c-.034-.058-.156-.011-.226-.024a.072.072,0,0,1-.051-.116,2.1,2.1,0,0,0,.262-.261.3.3,0,0,1,.194-.313.146.146,0,0,0,.08-.181c-.011-.027-.04-.071-.083-.06l-1.028.29c-.038.011-.076-.056-.06-.089a.574.574,0,0,1,.65-.248,1.381,1.381,0,0,0,.425-.224c.257-.206.53-.4.774-.563a2.226,2.226,0,0,0,.282-.7m-14.725-8.442c-.025-.007-.112,0-.125-.007-.054-.038-.145-.078-.109-.157l.051-.06c.271.107.548.277.825.407Zm4.537-3.388a12.424,12.424,0,0,0-1.513.726l-.326.237a4.258,4.258,0,0,0-.805,1.131,3,3,0,0,1,.109.53c0,.029-.051.087-.08.083l-1.086-.15c-.063-.009-.128.109-.138.179-.005.054.009.224,0,.264-.022.118-.134.074-.2.045a2.6,2.6,0,0,0-.552-.128c-.062-.014-.04-.141-.02-.181.1-.224.23-.409.337-.606a9.537,9.537,0,0,0,.883-1.274c.423-.46.822-.943,1.3-1.4a1.613,1.613,0,0,0,.223-.19c.067-.087-.009-.2-.005-.3,0-.014.027-.033.042-.051a13.361,13.361,0,0,0,1.466.434c.058.014.04.128-.007.181a.148.148,0,0,0-.023.123c.074.159.206.179.356.223.049.014.089.1.033.128m9.289,2.68.013.447c0,.058-.078.024-.092-.005-.416-.822-1-1.471-1.433-2.258l-.2-.425c-.005-.014-.036-.022-.051-.047-.033-.062.118-.047.163-.038.454.1.673.467.869.87.233.481.528.914.733,1.457m-5.1-4.522c-1.017.029-1.974-.121-2.977-.161a9.839,9.839,0,0,0-1.538.045,2.006,2.006,0,0,0-.742.056c-.279.071-.463-.06-.717-.163-.313-.125-.63-.244-.945-.364-.63-.235-1.263-.465-1.88-.729a.092.092,0,0,1-.054-.1,2.3,2.3,0,0,1,.619.163c.369.081.737.165,1.106.244.619.136,1.221.177,1.849.255a7.53,7.53,0,0,0,1.084.141,2.92,2.92,0,0,0,1.417-.132c.324-.2-.071-.322-.116-.525.1-.047.206-.15.2-.239a3.479,3.479,0,0,0-.132-.585c.147.1.208.252.3.337.121.058.277.009.286-.114a.664.664,0,0,0-.21-.472.348.348,0,0,1-.252-.228.087.087,0,0,1,.056-.094,1.27,1.27,0,0,1,.235-.033c.264.007.514-.042.677-.02a.715.715,0,0,1,.349.163.761.761,0,0,0-.051.163.454.454,0,0,0,.253.19l.463.172c.083.081.089.259.17.382.031.049-.065.1-.112.1a1.119,1.119,0,0,1-.8-.389.294.294,0,0,0-.194-.118.262.262,0,0,0-.219.154.491.491,0,0,1-.183.159c-.011.007-.092-.007-.11,0-.036.022-.08.06-.085.094a.412.412,0,0,0,.148.358,1.784,1.784,0,0,0,.939.59,1.2,1.2,0,0,0,1.14-.409.176.176,0,0,1,.123-.029c.089.018.259.036.232.125s-.038.172.031.194c1.193.38,2.5.644,3.742.963l1.681.413c.34.067.689.147,1.051.188.034,0,.15.069.112.063Z" transform="translate(-441.75 -69.213)" fill="#1a1311"/>
            <path id="Path_3161" data-name="Path 3161" d="M451.465,78.22a.467.467,0,0,0,.371.32,1.1,1.1,0,0,0,.585-.183c.163-.09.116-.139.192-.3.1-.212.13-.092.282-.107a1.119,1.119,0,0,0,.539-.295.077.077,0,0,0-.042-.109.684.684,0,0,0-.413.005c-.3-.038-.509-.194-.8-.25a3.666,3.666,0,0,0-.592-.145h-.072a2.83,2.83,0,0,0-.6.071c-.326.072-.809.212-.818.615,0,.022.027.1.072.118a.462.462,0,0,0,.463-.148.665.665,0,0,1,.854-.007,1.331,1.331,0,0,0-.02.413" transform="translate(-437.339 -62.779)" fill="#1a1311"/>
            <path id="Path_3162" data-name="Path 3162" d="M448.054,85.558a2.468,2.468,0,0,0,.621-.147,3.012,3.012,0,0,0,1.361-.966.094.094,0,0,0,.022-.1c-.02-.031-.063-.072-.109-.034a.937.937,0,0,1-.264.118c-.648.262-1.216.617-1.828.916a.2.2,0,0,0,.2.212" transform="translate(-439.151 -57.001)" fill="#1a1311"/>
            <path id="Path_3163" data-name="Path 3163" d="M449.238,83.2a.633.633,0,0,1-.264-.062.691.691,0,0,0-.355-.127c-.092,0-.127.165-.065.248a1.423,1.423,0,0,0,.955.546,6.687,6.687,0,0,0,1.544-.432,8.928,8.928,0,0,0,1.424-1.227c.056-.052-.014-.208.08-.279a.465.465,0,0,0,.172-.53l-.306-.235c-.074-.049-.235.036-.373-.022a5.809,5.809,0,0,0-1.413-.385,2.127,2.127,0,0,0-.516-.016,4.956,4.956,0,0,0-.856.232.279.279,0,0,1-.279-.054,2.481,2.481,0,0,0-.856-.545.16.16,0,0,0-.112.024c-.052.042-.121.062-.141.125-.011.036-.027.192,0,.21a2.388,2.388,0,0,1,.583.666c.018.1-.058.2-.074.318a.9.9,0,0,0,.308,1.147,1.545,1.545,0,0,0,.576.284c.063.022,0,.116-.031.114m-.051-.827c-.127-.024-.163-.166-.2-.284a2.75,2.75,0,0,1-.134-.626c0-.013.025-.031.049-.06.056.058.168.226.315.143a1.494,1.494,0,0,1,.514-.087c.708.089,1.381.253,2.141.367a2.465,2.465,0,0,1-.945.418,4.5,4.5,0,0,1-1.744.128" transform="translate(-439.146 -60.233)" fill="#1a1311"/>
            <path id="Path_3164" data-name="Path 3164" d="M449.919,77.593a.126.126,0,0,0-.192-.051,2.036,2.036,0,0,0-.248.271.5.5,0,0,0,0,.239.172.172,0,0,0,.1.089.66.66,0,0,0,.279-.005c.049-.022.06-.109.08-.177.007-.022-.031-.045-.058-.076a.4.4,0,0,0,.043-.29" transform="translate(-437.849 -62.49)" fill="#1a1311"/>
            <path id="Path_3165" data-name="Path 3165" d="M448.951,79.875c.04.013.2-.04.253-.005a.569.569,0,0,0,.458.147c.083-.014.069-.2-.013-.286a1.132,1.132,0,0,0-.887-.275.35.35,0,0,0-.215.1.135.135,0,0,0,.063.219Z" transform="translate(-438.62 -60.928)" fill="#1a1311"/>
          </g>
        </g>
      </g>
    </g>
    <g id="Group_214" data-name="Group 214" transform="translate(42.52 189.796)">
      <g id="Group_213" data-name="Group 213" clip-path="url(#clip-path)">
        <text id="_15_discount_on_salaries" data-name="$15 discount on salaries" transform="translate(32.293 190.527)" fill="#1a1311" font-size="8" font-family="AveriaSerifLibre-Regular, Averia Serif Libre"><tspan x="0" y="0">$15 discount on salaries</tspan></text>
        <text id="First_to_train_someone" data-name="First to
train
someone" transform="translate(74.468 81.791)" fill="#1a1311" font-size="15" font-family="VTCSuperMarketSale"><tspan x="-22.98" y="0">First to</tspan><tspan x="-15.622" y="18">train</tspan><tspan x="-23.858" y="36">someone</tspan></text>
        <path id="Path_593" data-name="Path 593" d="M61.212,213a52.911,52.911,0,0,0,9.057.281,50.614,50.614,0,0,0,8.026-1.112c1.394-.322,8.187-1.649,11.662-2.7.5-.149,5.911-1.479,8.153-2.088,4.893-1.332,9.873-2.38,14.778-3.62,2.277-.575,4.542-1.078,6.846-1.547a69.368,69.368,0,0,1,11.281-1.417,29.234,29.234,0,0,1,14.956,3.569,17.557,17.557,0,0,1,3.372,2.312,32.313,32.313,0,0,1,2.566,2.727c.408.445.951-.034.625-.447-.4-.5-.83-.984-1.259-1.466a15.178,15.178,0,0,0-2.124-2.114,39.436,39.436,0,0,0-4.738-3.277,27.9,27.9,0,0,0-7.921-2.7c-9.273-1.892-18.848-.716-27.811,1.95-2.3.684-4.581,1.46-6.889,2.033a35.225,35.225,0,0,0-3.431,1.093c-.484.228-5.991,1.909-6.682,2.118q-2.077.633-4.168,1.229c-1.469.42-2.954.788-4.432,1.178-.593.158-1.239.294-1.836.479-1.239.386-2.471.535-3.7.9a29.374,29.374,0,0,1-3.429.727,69.537,69.537,0,0,1-7.373,1.055,19.609,19.609,0,0,1-6.54-.46c-2.322-.69-4.467-2-5.236-4.3-.819-2.452,1.98-4.434,4.152-5.071a18.373,18.373,0,0,1,8.167-.136c.979.173,3.014.852,2.817,2.084-.1.6-.577.831-1.113,1.087-.4.194-.963.5-.591,1,.589.784,2.628.3,3.456.264,1.2-.055,2.434-.251,3.65-.394a44.67,44.67,0,0,0,8.254-2.039c1.643-.524,3.258-1.117,4.907-1.63,2.195-.684,4.378-1.364,6.577-2.037,1.462-.447,2.979-.663,4.433-1.131.36.006,1.2-.2.963-.718-.157-.341-.94-.279-1.236-.258a34.062,34.062,0,0,0-8.062,1.523c-2.133.695-3.7,1.389-5.489,2.069q-1.82.7-3.643,1.389c-1.074.409-2.224.637-3.29,1.036-.561.209-2.881.776-3.319.865a21.662,21.662,0,0,1-3.223.4c-.6.026-1.175-.026-1.28-.3-.217-.571.265-1.048.265-1.57a5.119,5.119,0,0,0-.084-1.46,5.254,5.254,0,0,0-2.074-2.612c-1.6-1.287-4.362-1.628-6.378-1.483-4.61.286-9.444,2.862-9.563,7.581a7.049,7.049,0,0,0,1.225,3.313A9.514,9.514,0,0,0,55.8,210.6,9.637,9.637,0,0,0,61.212,213" transform="translate(-28.766 -180.251)" fill="#1a1311"/>
        <path id="Path_594" data-name="Path 594" d="M151.651,217.795a8.573,8.573,0,0,0-.792-1.6c-.121-.192-.614-.829-.787-1.031a10.577,10.577,0,0,0-3.057-2.039,9.71,9.71,0,0,0-3.121-.955,27.907,27.907,0,0,0-6.1-.3c-2.076.16-4.341.475-5.258.607-2.14.309-8.1,1.57-9.349,1.864-1.41.332-2.842.59-4.245.942-.678.17-1.289.322-1.985.46-.545.107-3.741.95-4.791,1.151-1.246.236-4.61,1.134-5.1,1.217-.525.092-.992.283-1.526.4-1.079.226-4.17,1.033-4.585,1.144-1.143.3-2.306.575-3.438.916-.315-.015-2.642.658-3.178.805-1.189.326-7.321,1.72-9.2,2.105a46.784,46.784,0,0,1-9.447,1.18c-1.49,0-2.982-.045-4.46-.072-.271-.006-3.023-.347-4.334-.631-.577-.126-1.225-.245-1.814-.394s-.712-.17-1.773-.5a56.177,56.177,0,0,1-5.605-2.681,16.639,16.639,0,0,1-2.742-2.135l-.509-.5c-.436-.441-.477.262-.3.533a11.063,11.063,0,0,0,2.514,2.636,17.1,17.1,0,0,0,2.975,2.141,35.8,35.8,0,0,0,3.9,1.8,50.7,50.7,0,0,0,8.689,2.167,39.731,39.731,0,0,0,7.9.268,52.081,52.081,0,0,0,6.5-.6c1.645-.294,3.16-.569,4.77-.993.358-.094,5.067-1.383,6.118-1.724,3.6-1.168,12.526-3.908,14.979-4.649,1.957-.59,3.876-1.253,5.856-1.777,2.128-.562,4.248-1.057,6.346-1.666.659-.192,2.8-.718,3.217-.8a88.451,88.451,0,0,1,11.806-1.952,13.947,13.947,0,0,1,7.04,1.161,6.176,6.176,0,0,1,2.509,1.994,3.731,3.731,0,0,1,.6,1.634,5.1,5.1,0,0,1,.025,1.685c-.176,2.124-3.26,3.663-5.881,4.08a15.075,15.075,0,0,1-5.014-.309c-.944-.179-2.662-.594-3.31-1.568-.536-.8-.881-1.788.094-2.568.379-.3,1.043-.132,1.248-.686.182-.492-.582-.571-.876-.552l-1.7.126a38.345,38.345,0,0,0-6.15,1.108c-1.487.358-2.991.724-4.455,1.159-.933.277-4.049,1.144-6.842,2.092-1.227.418-2.487.884-3.718,1.289-2.192.722-4.458,1.259-6.716,1.847-1.289.335-2.7.2-3.967.6-1.506.471,1.608.918,2.042.923a27.182,27.182,0,0,0,8.046-1.338c1.1-.328,2.163-.656,3.255-.989,1.223-.373,6.691-2.2,8.1-2.815,1.3-.569,2.683-.9,4.02-1.374,1.389-.492,5.5-1.381,6-1.632.57-.286.269.426.089.6a2.627,2.627,0,0,0-.306,3.134,6.619,6.619,0,0,0,2.227,2.512,12.6,12.6,0,0,0,5.347,1.862,11.464,11.464,0,0,0,6.2-.835,7.551,7.551,0,0,0,4.109-4.732,6.071,6.071,0,0,0-.091-3.739" transform="translate(-27.733 -164.903)" fill="#1a1311"/>
        <path id="Path_595" data-name="Path 595" d="M140.678,209.263l.089.234.062.177.087.121.132.066a.42.42,0,0,0,.577-.2,1.611,1.611,0,0,0,.185-.556l.036-.411.052-.4.021-.181-.023-.183c-.039-.356-.233-.484-.586-.381l-.214.092-.281.313-.31.283c-.292.038-.579.064-.865.079s-.575.028-.865.036l-.4,0-.2-.083-.084-.179-.071-.309.009-.224c.043-.392.073-.784.094-1.174s.034-.784.048-1.176l.036-.349.1-.179.205-.064.36-.017.073,0a7.49,7.49,0,0,0,1.576-.034,5.349,5.349,0,0,1,.9-.036c.3.015.6.03.913.049l.148.032.08.087.048.1-.1.467.027.469a.4.4,0,0,0,.591.285l.183-.051.18-.064.2-.128.082-.2c.009-.262.011-.518,0-.771s-.014-.509-.025-.771l-.014-.07-.244-.26-.187-.047-.2-.006-.468.028-.479.013q-1.786-.054-3.543.06a8.051,8.051,0,0,1-1.262,0,5.074,5.074,0,0,0-.824-.011c-.271.019-.548.045-.828.072l-.262.245-.052.207c0,.29.167.473.5.55a.334.334,0,0,1,.317.36,5.281,5.281,0,0,0,.016,1.247l.014.288-.018.3q-.017.841-.043,1.66a14.725,14.725,0,0,0,.032,1.647l-.016.435-.048.516.055.52a5.734,5.734,0,0,1,.089.684,2.832,2.832,0,0,1-.032.693l-.3.313-.233.041-.235.043-.189.049-.189.051-.139.121-.036.166.014.085.039.141.041.143.214.264.342.075.543-.053.554-.011.2,0,.2-.028a10.473,10.473,0,0,1,1.2-.117c.4-.015.81-.026,1.23-.032q.811-.016,1.613,0c.536.013,1.072.021,1.613.03l.4-.023.388-.094.326-.367q.027-.364.041-.735l.027-.735-.011-.141-.091-.164-.169-.081h-.2l-.187.015-.386.241-.16.3-.071.326-.1.271-.29.124-.157.032-.16.015q-.39.016-.78.026c-.26.006-.525,0-.794,0l-.586,0-.586.053-.347.023-.358-.017-.132-.062-.071-.128-.014-.07-.011-.07-.011-.554-.071-.556-.03-.4-.016-.415-.018-.546-.064-.55-.009-.337.034-.32.048-.089.091-.075.376-.045.322.017.31-.026a3.031,3.031,0,0,1,.721-.034c.24.017.488.023.748.023m-11.32.364-.025.058-.057.021-.233-.243.066-.119.03,0,.014.006.016,0,.137.107Zm2.347-1.719.016,0,0,.162,0,.149a7.7,7.7,0,0,0,.039.891c.032.292.068.586.114.882l.064.4.034.4.007.07-.025.072-.011.03-.03.017-.073.009-.271-.254-.267-.239-.208-.209-.219-.209-.522-.458-.436-.524-.182-.213-.185-.213-.226-.286-.217-.315c-.125-.183-.251-.373-.379-.565s-.253-.381-.379-.565c-.194-.262-.386-.524-.579-.784s-.386-.526-.579-.8l-.084-.119-.114-.1-.233-.173-.192-.217-.155-.139-.224-.062c-.2-.015-.408-.036-.62-.066a1.012,1.012,0,0,0-.636.132l-.219.06-.253.034-.415.058-.417.06-.249.239-.075.347.043.085.075.07.114.03.114.015.379.038.183.092.075.19.05.326.023.175.007.175.055.531.066.528a6.82,6.82,0,0,1,.116.818c.025.279.043.554.057.827q.014.7.073,1.372c.025.3.052.6.084.893s.062.6.1.893l.021.315.048.311a4.851,4.851,0,0,1,.046.616c0,.2,0,.4,0,.605l-.24.352-.155.045-.1.081L124.3,215l-.221.2-.048.062-.016.072-.007.1.023.089.326.2.367.009c.265-.064.532-.119.8-.162s.529-.087.785-.134l.228-.068.21-.092.094-.124,0-.128-.114-.268-.251-.128a.337.337,0,0,1-.356-.3l-.064-.394-.05-.4q-.086-.668-.135-1.319t-.151-1.315c-.048-.324-.1-.643-.167-.957a4.2,4.2,0,0,1-.075-.963l0-.064-.014-.077-.078-.541-.062-.543a2.788,2.788,0,0,1,.112-.984l.05-.034.068.006.322.249.235.3a13.186,13.186,0,0,1,.9,1.144,8,8,0,0,0,.938,1.11l.13.134.1.151a13.293,13.293,0,0,0,1.214,1.532l.1.109.084.111.383.522.37.524a8.066,8.066,0,0,0,.716.916c.26.288.538.565.833.835l.365.241.438.023.194-.028.194-.028.185-.111.087-.215v-.092l0-.119c-.043-.268-.075-.539-.094-.814s-.025-.55-.018-.822l-.021-.428-.066-.422c-.082-.349-.146-.7-.2-1.065a9.554,9.554,0,0,1-.091-1.076c-.014-.271-.032-.543-.057-.818s-.057-.55-.1-.827l-.039-.356-.023-.358-.023-.371-.025-.356,0-.2.011-.219.03-.539-.048-.545.121-.168.146-.051.148-.036.356-.124.178-.315.087-.207-.048-.121-.121-.085-.151-.019-.153,0a6,6,0,0,0-.723.064,3.063,3.063,0,0,1-.725.021l-.324.085-.235.243-.068.17.036.173.121.17a.636.636,0,0,1,.267.492l.048.36.043.349q.031.531.062,1.042c.018.343.036.686.057,1.031m-16.081,5.406-.025-.188-.037-.158a2.078,2.078,0,0,1-.132-.646c-.011-.217-.021-.435-.03-.654l-.023-.5-.078-.471a1.783,1.783,0,0,1-.034-.631q.041-.316.089-.626l.03-.107.032-.107.123-.541.194-.556.292-.452.34-.45.089-.117.094-.092.164-.119.167-.1.543-.268a1.72,1.72,0,0,1,.611-.094l.44.017.427.051a1.264,1.264,0,0,1,.8.482l.292.428.292.428.13.245.1.239c.084.249.157.494.221.735s.135.482.219.722a2.741,2.741,0,0,1,.141,1.161l-.011.254.032.23a2.494,2.494,0,0,1,.052.727q-.024.371-.048.748l-.059.456-.1.45a3.753,3.753,0,0,1-1.268,2.077l-.253.181-.262.124a3.26,3.26,0,0,1-.721.175,2.258,2.258,0,0,1-.719-.026l-.566-.173-.445-.4-.308-.482-.308-.5-.2-.381-.135-.317-.082-.335Zm7.248-2.84-.1-.754a6.363,6.363,0,0,0-.306-.876c-.125-.286-.251-.562-.379-.833a5.533,5.533,0,0,0-.356-.631c-.125-.194-.258-.386-.395-.58l-.258-.292-.283-.258-.308-.217-.333-.183-.335-.132-.5-.128-.557-.053-.547.011-.461.045-.139.028-.153.045-.582.2-.593.234-.233.1-.23.132a2.2,2.2,0,0,0-.611.433l-.525.513a2.736,2.736,0,0,0-.6.8c-.141.292-.287.586-.436.884-.068.311-.141.618-.214.925a4.343,4.343,0,0,0-.119.948c.009.217.021.437.036.658a2.916,2.916,0,0,1-.036.673l.014.213c.043.249.087.5.13.739a2.1,2.1,0,0,0,.26.7l.2.447a4.242,4.242,0,0,0,.436.886,5.826,5.826,0,0,0,.618.778,4.9,4.9,0,0,0,.746.607,2.237,2.237,0,0,0,.919.345l.064.021.062.023a4.04,4.04,0,0,0,.735.132,3.485,3.485,0,0,0,.771-.021l.538-.087.532-.128a2.588,2.588,0,0,0,.757-.3l.575-.369.6-.341.235-.149.214-.2.363-.375.176-.2.119-.232c.039-.092.1-.245.194-.454l.018-.032.018-.032a2.37,2.37,0,0,0,.242-.609,2.694,2.694,0,0,0,.073-.631q0-.329-.007-.665a5.474,5.474,0,0,1,.021-.669l.009-.554Zm-11.014-1.579.271.1.283-.075a.507.507,0,0,0,.258-.539l-.132-.678a.676.676,0,0,0-.4-.582l-.235-.075-.237,0-.4.1-.39.066a6.243,6.243,0,0,0-1.282.364l-.57.194-.591.083-.319.077a4.112,4.112,0,0,1-.906.273c-.3.053-.614.1-.933.124-.278.028-.559.051-.837.07a2.519,2.519,0,0,0-.814.194l-.185.03-.155.021-.484.1-.479.107-.47.315-.08.222c.034.271.078.537.135.8s.119.522.192.784l.219.194h.358l.319-.192.05-.1.016-.1-.043-.309-.059-.3.055-.143.121-.117c.3-.081.6-.158.906-.23s.611-.151.919-.234l.087-.021.363.217.16.467.162.482.08.249.023.277.046.3.057.3a5.152,5.152,0,0,0,.228.893,5.1,5.1,0,0,1,.228.893c.05.258.1.509.162.754a3.94,3.94,0,0,0,.249.722,1.888,1.888,0,0,1,.116.522c.084.422.164.84.244,1.249s.157.829.23,1.253l-.007.075-.009.075-.039.147-.123.109a5.124,5.124,0,0,0-.632.194l-.164.243.066.309.249.136.29-.028.271-.049c.463-.13.922-.251,1.38-.367a8.409,8.409,0,0,1,1.408-.228l.447-.209.162-.183.162-.183.034-.254-.212-.181-.324-.023-.31.117-.212.081-.212-.066-.123-.245c-.05-.209-.1-.415-.137-.618s-.082-.4-.132-.605c-.089-.354-.176-.712-.256-1.072s-.169-.729-.262-1.1c-.128-.558-.256-1.117-.381-1.679s-.253-1.123-.381-1.681c-.043-.211-.078-.418-.107-.618s-.059-.407-.091-.62l-.025-.175v-.2l.242-.39.256-.126.262-.1c.308-.083.614-.158.915-.226s.607-.136.915-.211l.363.217.1.322Zm-10.026,1.579-.1-.509-.114-.226-.208-.16H101.2l-.157.09-.121.2-.116.209-.194.1-.228-.009-.237-.036a3.839,3.839,0,0,0-.874-.068,7.828,7.828,0,0,0-.89.079,5.119,5.119,0,0,0-1.2.339,3.423,3.423,0,0,0-1.052.705l-.367.445a1.514,1.514,0,0,0-.212.537,4.028,4.028,0,0,0-.071,1.038,4.685,4.685,0,0,0,.18,1.006l.137.3.205.268.13.119.135.134a3.526,3.526,0,0,0,.8.6,3.042,3.042,0,0,0,.958.33q.524.118,1.04.224a10.55,10.55,0,0,0,1.061.16l.486.107.454.185.2.1.212.1.424.373a2.521,2.521,0,0,1,.344,1.928,1.2,1.2,0,0,1-.319.571,2.019,2.019,0,0,1-.543.364l-.29.107-.315.07-.3.036-.315-.015c-.34-.072-.666-.16-.981-.26a2.351,2.351,0,0,1-.862-.507,1.918,1.918,0,0,0-.73-.371l-.235.043-.167.158-.039.066-.009.075a4.631,4.631,0,0,0-.055,1.006,7.843,7.843,0,0,0,.11.993l.1.194a.349.349,0,0,0,.447.179.879.879,0,0,0,.433-.2.681.681,0,0,0,.128-.415l0-.251-.009-.266.059-.087.116-.028.21.064a4.445,4.445,0,0,0,2.772.307l.109-.019.107-.034a5.534,5.534,0,0,0,.8-.407,3.416,3.416,0,0,0,.707-.571l.276-.335.16-.379.123-.362.2-.541-.057-.552-.057-.275a2.143,2.143,0,0,0-.173-.594l-.281-.533-.351-.486-.39-.469-.089-.066-.089-.064a3.6,3.6,0,0,0-1-.573c-.363-.139-.723-.286-1.077-.439l-.112-.023-.112-.023-.386-.058-.372-.077c-.253-.045-.5-.092-.751-.141a3.049,3.049,0,0,1-.712-.239l-.128-.07-.1-.1a2.145,2.145,0,0,1-.395-.707,2.631,2.631,0,0,1-.1-.793,1,1,0,0,1,.536-.884l.573-.256a3.525,3.525,0,0,1,.8-.13c.267-.013.532-.013.8,0l.36.128.447.326.386.4.24.175.306-.032.251-.264.03-.187.016-.185-.05-.328Zm-10.539,7.138.135.209.1.158.107.1.144.032a.43.43,0,0,0,.516-.343,1.662,1.662,0,0,0,.064-.588l-.048-.413-.032-.4-.018-.183L92.2,216q-.164-.511-.648-.232l-.187.141-.208.377-.242.356q-.411.16-.821.288c-.271.083-.547.166-.828.245l-.39.1-.212-.032-.116-.153-.135-.288-.036-.222c-.039-.394-.089-.786-.153-1.176s-.125-.778-.194-1.166l-.039-.352.057-.2.185-.113.347-.1.073-.017a7.345,7.345,0,0,0,1.517-.418,5.328,5.328,0,0,1,.865-.256c.294-.06.591-.117.894-.175l.151,0,.1.066.068.087-.009.482.125.456a.383.383,0,0,0,.63.134l.167-.094.162-.107.167-.175.039-.215c-.046-.26-.1-.511-.155-.759s-.119-.5-.183-.75l-.027-.066-.29-.2-.192,0-.2.045-.445.141-.463.13q-1.735.38-3.415.92a8.22,8.22,0,0,1-1.218.311,4.74,4.74,0,0,0-.8.19c-.258.085-.52.177-.787.273l-.205.3-.007.217c.059.283.26.422.6.413a.321.321,0,0,1,.381.277,5.272,5.272,0,0,0,.271,1.221l.073.279.043.3c.107.552.205,1.1.3,1.639a15.683,15.683,0,0,0,.372,1.609l.073.43.062.52.162.5a6.263,6.263,0,0,1,.226.648,2.983,2.983,0,0,1,.112.688l-.224.379-.217.1-.219.1-.171.1-.173.094-.109.153v.175l.027.079.068.13.068.128.262.209.347-.011.513-.185.536-.147.189-.047.183-.077a10.544,10.544,0,0,1,1.141-.409q.578-.169,1.186-.33.78-.214,1.56-.394c.52-.117,1.04-.239,1.565-.364l.381-.119.354-.185.242-.441c-.032-.243-.068-.486-.112-.731s-.084-.488-.125-.727l-.039-.136-.123-.138-.18-.038-.2.049-.178.062-.322.328-.1.33v.339l-.041.29-.256.192-.146.068-.151.055c-.251.072-.5.145-.751.213s-.506.134-.771.192l-.566.139-.557.194-.331.109-.351.068-.141-.026-.094-.109-.027-.066-.027-.066-.123-.541-.183-.528-.112-.386-.1-.4-.13-.533-.176-.524-.078-.328-.034-.322.027-.1.075-.1.356-.136.315-.062.292-.1a3.251,3.251,0,0,1,.691-.209c.235-.04.479-.094.73-.16m-13.076.264,0-.043.032.023Zm7.234,5.163-.041-.518L85.4,222.4l-.036-.087-.189-.335-.274-.241-.376-.006-.192.139-.1.2-.068.5-.068.482a.5.5,0,0,1-.415.452l-.18.066-.185.038-1.49.341c-.49.113-.988.226-1.487.339l-.148.019c-.258.034-.422.019-.493-.047a.674.674,0,0,1-.141-.392l-.014-.19.016-.177a3.688,3.688,0,0,0-.066-1.159c-.084-.371-.155-.746-.214-1.125a2.126,2.126,0,0,1-.144-.7,4.384,4.384,0,0,1,.034-.727l.011-.439-.109-.439-.046-.2-.03-.215a3.149,3.149,0,0,1-.014-.654c.018-.215.03-.43.032-.65,0-.3-.011-.6-.023-.895s-.021-.592-.025-.895l.235-.286.381-.1.363-.153.162-.247-.155-.249-.3-.072-.285-.077a2.212,2.212,0,0,0-1.1-.038l-.317.064-.317.077c-.226.049-.456.1-.691.164s-.472.109-.707.151l-.379.247-.155.43.123.224.246.1h.2l.2-.026.123.068.073.147.018.06.007.077a3.02,3.02,0,0,0,.025.825,3.543,3.543,0,0,1,.041.822l.011.147.041.143a3.7,3.7,0,0,1,.121.8c.011.273.011.545,0,.82,0,.247,0,.488.009.729a5.489,5.489,0,0,0,.071.7,7.279,7.279,0,0,0,.151.886c.066.292.121.588.164.882s.073.556.094.837.05.569.082.865l-.055.177-.164.094-.317.077-.315.079-.253.224-.078.356.08.166.151.1.157.015.171-.015c.415-.075.833-.139,1.252-.2a7.225,7.225,0,0,0,1.246-.277l.317-.07.319-.043c.415-.075.821-.141,1.223-.2s.808-.119,1.223-.183l.235-.047.251-.075a6.816,6.816,0,0,1,.737-.17,3.494,3.494,0,0,1,.746-.043l.319-.034.315-.092.322-.2.116-.349-.018-.337-.034-.335Zm-14.306,1.617-.217.045-.187.03-.386.213-.205.366v.092l.075.09.258.139.481.058.465.1.246-.081.246-.079.187-.051.187-.008.6.006.6-.034c.3.026.431-.126.4-.452a.386.386,0,0,0-.365-.388l-.189-.013-.187-.013-.183-.179-.021-.428-.094-.411-.025-.175,0-.175-.025-2.031-.027-.435-.027-.42,0-.349c0-.337-.007-.675,0-1.016s0-.682.009-1.029.011-.673.016-1.014a5.858,5.858,0,0,1,.107-1l.021-.224.066-.2.214-.094.278-.011.135-.043.208-.2,0-.337-.221-.341-.383-.032a4.411,4.411,0,0,1-1.706.188,5.624,5.624,0,0,0-.675-.034.435.435,0,0,0-.5.411l.032.209.151.138.151.04.151.041.212.181.055.209.025.209.03.554v.554c-.016.354-.032.71-.046,1.063s-.027.71-.032,1.065l0,.511.043.524.034.322-.009.309c-.018.243-.025.482-.023.714a4.507,4.507,0,0,0,.068.7l.018.239.018.251.007.526.023.524,0,.315Zm-3.226-8.828.2-.117.187-.119.317-.379-.036-.273-.214-.151c-.374-.038-.748-.081-1.118-.128s-.741-.085-1.118-.115a.784.784,0,0,0-.862.439l-.084.2-.146.286-.132.288c-.144.277-.281.55-.413.818s-.256.541-.367.814l-.141.288-.183.277a3.17,3.17,0,0,0-.42.624,7.135,7.135,0,0,0-.308.69,9.757,9.757,0,0,1-.42,1q-.236.489-.5.965l-.057.023-.068.008-.052-.055-.043-.145-.041-.145c-.027-.281-.064-.558-.112-.831a4.754,4.754,0,0,0-.217-.812l-.078-.36-.075-.375c-.1-.46-.187-.923-.246-1.383s-.132-.92-.219-1.379q-.092-.607-.178-1.2c-.057-.394-.1-.79-.135-1.189l-.109-.288-.237-.2-.36-.13q-.613-.141-1.2-.268t-1.186-.249l-.3-.019-.342.232-.016.241.1.2.169.158.185.16.125.326c-.023.273-.041.543-.052.814a3.7,3.7,0,0,0,.052.82l-.009.185-.021.181c-.048.392-.094.784-.141,1.176s-.1.782-.155,1.172c-.032.271-.075.537-.125.8a6.622,6.622,0,0,0-.109.788c-.043.354-.078.7-.1,1.046s-.055.684-.084,1.023l-.055.326-.125.3-.089.117-.128.068-.536.141-.538.168-.073.115.027.149.171.143.2.162a1.211,1.211,0,0,0,.776.275l.511.053.484.034.178.03.151,0,.214-.036.167-.145-.11-.467-.224-.324-.007-.369.064-.352.066-.367q.154-.786.269-1.558a8.842,8.842,0,0,0,.091-1.581l0-.107v-.124c.05-.42.1-.833.151-1.244s.107-.825.178-1.24l.1-.307.1-.3.048-.032.071.03.1.192.055.228q.133.642.276,1.274c.094.422.187.842.276,1.261.094.381.173.767.237,1.153s.132.771.205,1.159c.041.249.082.5.123.744s.089.49.151.733.109.475.171.71.123.469.185.712l.05.138.05.139.214.217.388.087.383,0,.1-.136.114-.134a1.565,1.565,0,0,0,.452-.524,4.494,4.494,0,0,0,.271-.633,8.927,8.927,0,0,1,.463-1.168,8.41,8.41,0,0,1,.632-1.089l.251-.392.18-.437c.073-.194.141-.388.2-.582a1.066,1.066,0,0,1,.344-.494l.023-.068.039-.064.433-.987.235-.454.29-.413.043-.055.059-.053.03-.006.032-.009.1.136.011.354-.05.354a4.526,4.526,0,0,1-.025.827l-.1.812c-.048.392-.1.782-.148,1.168s-.1.773-.162,1.163c-.046.307-.091.609-.132.912s-.084.607-.13.912l-.048.207-.048.219-.027.215-.041.215-.011.226-.1.224-.164.009-.182.019-.233.111-.164.181-.016.4.315.251.274.034.26.017.237.028.235.04a4.645,4.645,0,0,0,.837.151,4.676,4.676,0,0,1,.837.149l.306-.181-.064-.343-.324-.237-.367-.134-.155-.132v-.185a.972.972,0,0,0,.109-.552,3.586,3.586,0,0,1-.018-.714c.016-.23.046-.465.084-.705.055-.3.1-.586.125-.871s.052-.58.068-.882c.016-.207.036-.413.066-.616a3.685,3.685,0,0,1,.141-.6c.057-.237.1-.475.146-.716s.078-.482.116-.722c.062-.349.13-.7.208-1.046s.155-.69.235-1.027" transform="translate(-26.309 -174.133)" fill="#1a1311"/>
      </g>
    </g>
  </g>
</svg>
