<svg xmlns="http://www.w3.org/2000/svg" xmlns:xlink="http://www.w3.org/1999/xlink" width="148.75" height="215.843" viewBox="0 0 148.75 215.843">
  <defs>
    <clipPath id="clip-path">
      <path id="Path_559" data-name="Path 559" d="M55.8,189.8s-13.282,0-13.282,12.4V393.236c0,.192.1,12.4,13.282,12.4H177.986s13.284,0,13.284-12.405V202.2s0-12.4-13.284-12.4Z" transform="translate(-42.52 -189.796)" fill="none"/>
    </clipPath>
  </defs>
  <g id="Group_805" data-name="Group 805" transform="translate(-42.52 -189.796)">
    <g id="Group_210" data-name="Group 210" transform="translate(42.52 189.796)">
      <g id="Group_209" data-name="Group 209" clip-path="url(#clip-path)">
        <path id="Path_2857" data-name="Path 2857" d="M0,0H164.687V230.731H0Z" transform="translate(-7.968 -7.443)" fill="#a8d085"/>
        <path id="Path_555" data-name="Path 555" d="M89.261,248.695l.29.138a7.822,7.822,0,0,0,.671,1.21l.189.04a7.307,7.307,0,0,1,1.3-1.127l.349.072a1.7,1.7,0,0,1,.436.761l.151.422.189.1.287-.207c.367-.324.744-.637,1.106-.955l.139-.021.335.332c.123.313.274.612.374.912l.205.166.219-.021a11.057,11.057,0,0,1,1.3-.748l.287.19.162.646.233.384.176.028a2.729,2.729,0,0,0,.983-.482l.465-.107.112.2-.021,1.008.267.362c.511-.256,1.052-.486,1.533-.767l.242.313c.062.249-.011.52.039.771l.267.426a8.751,8.751,0,0,1,1.225-.509l.461.119.1.339.1.541.027.452.2.09c.319-.055.6-.177.938-.209l.454,0,.187.269-.036.4c.039.209.071.426.091.624l.463.117a4.449,4.449,0,0,1,.723-.13l.205.264a6.428,6.428,0,0,0-.192,1.008l.157.147c.463-.023.853-.087,1.259-.128l.237.424a2.8,2.8,0,0,0-.251.993l.16.145a4.238,4.238,0,0,0,1.129-.03l.333.117.016.156a10.3,10.3,0,0,0-.3,1.106l.135.132a13.293,13.293,0,0,0,1.4-.006l.066.245a7.364,7.364,0,0,1-.579.98l-.073.258.176.175a12.1,12.1,0,0,0,1.323.111l.153.234a4.382,4.382,0,0,1-.484.8l-.228.273.4.254a7.56,7.56,0,0,0,1.125.209l.164.194c-.153.241-.379.484-.573.744l-.189.339.119.173a6.29,6.29,0,0,0,1.371.337l.141.164-.228.311c-.287.3-.545.633-.84.893l.144.251c.44.134.906.241,1.339.4l.283.254-.03.1c-.39.3-.693.688-1.07,1.023.059.2.258.279.415.369.292.164.6.311.917.45l.185.162-.121.239a4.612,4.612,0,0,0-.678.577l-.03.051.2.215c.249.151.509.3.764.462l.276.26-.007.181a8.822,8.822,0,0,1-1.063.652l-.1.17.114.126a2.547,2.547,0,0,1,.627.352l.47.249a.369.369,0,0,1,.176.447.724.724,0,0,1-.641.326l-.552.294.039.187a10.58,10.58,0,0,1,1.079.667l.073.156-.192.209a3.106,3.106,0,0,0-1.02.535l-.31.2.082.16a3.9,3.9,0,0,1,.849.563l.328.275v.07l-.328.175a4.387,4.387,0,0,1-.584.217l-.536.251-.082.177a4.634,4.634,0,0,0,.99.788l.169.234-.406.279c-.294.111-.625.177-.938.271l-.169.156.052.141a5.862,5.862,0,0,0,.931.765l-.08.4c-.468.136-.995.211-1.485.324l-.157.209a11.137,11.137,0,0,0,1,1.168l-.036.228a3.134,3.134,0,0,1-1.154.3l-.057.141a2.879,2.879,0,0,1,.668.744l-.1.369c-.5.034-.917.143-1.408.181l-.116.162c.182.469.392.908.573,1.372l-.356.266-1.2-.083-.155.16c.1.454.167.952.278,1.419l-.176.268-.445,0c-.244-.038-.516-.043-.76-.064l-.185.2a13.048,13.048,0,0,0,.258,1.481l-.3.288-.96.077-.189.183a5.866,5.866,0,0,0,.075.976l-.137.181h-.162c-.4-.141-.792-.258-1.184-.379l-.217.422a6.07,6.07,0,0,0,.068.876l-.224.228-.258-.075a9.737,9.737,0,0,0-.954-.407l-.23.213a12.367,12.367,0,0,1-.071,1.27l-.383.245a1.5,1.5,0,0,1-.568-.222l-.472-.19-.246.2c-.173.411-.269.891-.44,1.317l-.3.1c-.285-.147-.563-.311-.869-.439l-.244.03-.119.232c-.071.3-.1.612-.162.927l-.37.173a3.371,3.371,0,0,1-.913-.631l-.283,0a4.511,4.511,0,0,0-.586,1.229l-.351.092c-.354-.16-.548-.479-.851-.684l-.224-.019-.205.369c-.144.332-.244.663-.406.974l-.189.032a4.721,4.721,0,0,0-1.111-.837l-.235.187a3.887,3.887,0,0,1-.543.759l-.333.36c-.249-.09-.367-.337-.534-.52l-.44-.422-.2-.032L91.791,297.5l-.242,0a11.7,11.7,0,0,1-.794-.948l-.24-.187-.255.1a13.321,13.321,0,0,0-1.1,1.074l-.219.028a5.258,5.258,0,0,1-.682-.906l-.224-.311-.276-.036a7.366,7.366,0,0,0-1.143,1.144l-.171,0-.205-.224c-.2-.339-.271-.771-.568-1.014l-.173-.107-.34.164a5.713,5.713,0,0,0-.814.68l-.153.026a11.05,11.05,0,0,1-.767-1.163l-.235-.362-.244.026a10.472,10.472,0,0,0-1.189.929l-.219,0-.11-.175a5.366,5.366,0,0,0-.214-1.513l-.183-.09c-.543.315-1.074.641-1.583.978l-.287-.23a5.808,5.808,0,0,0-.039-1.215l-.167-.128-.456.2c-.354.187-.668.407-1.006.582l-.26-.179a12.307,12.307,0,0,1,.08-1.4l-.182-.141c-.212.072-.424.194-.682.288l-.821.33-.381-.2a4.071,4.071,0,0,1,.24-1.315l-.155-.179a1.711,1.711,0,0,0-.865.307,1.225,1.225,0,0,1-.678.188l-.23-.3a5.3,5.3,0,0,0,.322-1.085l-.162-.17a11.419,11.419,0,0,0-1.351.29L72,291.12l-.059-.181.2-.844-.187-.228-1.027-.015-.365.064-.221-.294a7.726,7.726,0,0,0,.408-1.379l-.157-.16a12.821,12.821,0,0,1-1.373-.015.455.455,0,0,1-.265-.565,3.634,3.634,0,0,1,.4-.972l-.141-.2a4.117,4.117,0,0,1-1.446-.173l-.194-.392a2.548,2.548,0,0,1,.415-.7l.148-.313-.429-.249c-.329-.1-.732-.111-1.072-.207l-.2-.283a3.34,3.34,0,0,1,.616-.906l.091-.341-.2-.126c-.413-.13-.89-.183-1.291-.322l-.139-.377a6.459,6.459,0,0,1,.924-1.014l-.075-.2a8.219,8.219,0,0,0-1.378-.467L64.742,280l.1-.187c.271-.3.6-.539.86-.842l-.032-.249a7.181,7.181,0,0,0-1.218-.6l-.107-.3a3.486,3.486,0,0,1,.949-.8l.009-.26a4.834,4.834,0,0,1-1.246-.729l-.023-.228c.153-.381.6-.5.928-.718l.055-.309a7.831,7.831,0,0,0-1.1-.673l-.075-.441c.338-.3.767-.5,1.134-.773l-.03-.245c-.347-.345-.771-.626-1.125-.97l-.009-.228c.23-.292.657-.4.949-.633l.192-.264a5.441,5.441,0,0,0-.575-.707,2.04,2.04,0,0,1-.417-.526l.358-.332a5.711,5.711,0,0,0,.8-.433l.062-.17a6.741,6.741,0,0,1-.735-1.057l-.05-.207a.828.828,0,0,1,.7-.58l.511-.145.1-.228a6.315,6.315,0,0,1-.659-1.3l.139-.384a1,1,0,0,1,.591-.241l.436-.087.436-.062.089-.145a6.979,6.979,0,0,1-.532-1.261.454.454,0,0,1,.267-.569,4.143,4.143,0,0,0,1.077-.092l.125-.177a8.978,8.978,0,0,0-.413-1.229l.032-.143c.08-.168.335-.164.568-.179.376-.023.748-.047,1.093-.1l.244-.311-.319-.98-.162-.347.18-.207.573-.009a3.452,3.452,0,0,0,.926.077l.167-.222c-.052-.49-.121-.948-.2-1.411l.162-.29.2.015a5.667,5.667,0,0,0,.844.251l.358-.2a10.486,10.486,0,0,1-.148-1.078.364.364,0,0,1,.31-.358l1.417.264.137-.128v-1.131a.5.5,0,0,1,.155-.618l.315-.019a8.657,8.657,0,0,0,1.163.5l.226-.194a12.186,12.186,0,0,1,.233-1.313l.324-.3c.356.2.735.349,1.09.533l.2,0,.121-.177.283-1.025.548-.121.992.546.256-.211c.116-.4.313-.744.429-1.112l.212-.132a5.643,5.643,0,0,1,.618.335,3.843,3.843,0,0,1,.623.373l.317-.381c.119-.3.2-.637.319-.935l.335-.2.139.072a4.642,4.642,0,0,0,.785.663l.226.006.205-.268a6.519,6.519,0,0,1,.411-.808l.379-.128c.3.281.573.626.883.942l.249-.047c.283-.356.552-.718.814-1.1l.313-.228c.212.06.313.288.42.469a8.11,8.11,0,0,1,.668.75l.23-.066a13.629,13.629,0,0,0,1.054-1.2Z" transform="translate(-15.241 -123.196)" fill="#fff3d8"/>
        <path id="Path_556" data-name="Path 556" d="M60.569,256.554l2.037,5.9,6.636-.011-5.375,3.635,2.062,5.892-5.361-3.654-5.363,3.654,2.065-5.892-5.377-3.635,6.636.011Z" transform="translate(-30.511 -114.309)" fill="#fff3d8"/>
        <path id="Path_557" data-name="Path 557" d="M99.421,256.554l2.037,5.9,6.636-.011-5.375,3.635,2.062,5.892-5.361-3.654-5.363,3.654,2.065-5.892-5.377-3.635,6.636.011Z" transform="translate(19.27 -114.309)" fill="#fff3d8"/>
      </g>
      <g id="Group_809" data-name="Group 809" transform="translate(-380 -200.844)">
        <path id="Path_3041" data-name="Path 3041" d="M434.347,355.346l-.133.16.014-.1Zm3.124-4.446.012.083-.005.016Zm1-.11-.017-.009,0-.021Zm29.809,1.228h.017l-.21.095ZM439.2,331.845l-.014.016.017-.026Zm33.413,23.705.139.193Zm1.743,2.383a8.657,8.657,0,0,0-1.088-.5l-.27-.21a5.127,5.127,0,0,0,.121-1.329c-.038-.627-.319-.95-.687-1.033a1.424,1.424,0,0,0-1.016.107l-.038.014-.007-.141a.772.772,0,0,0,.3-.625,3.328,3.328,0,0,0-1.517-1.872,3.98,3.98,0,0,0-1.992-.766.6.6,0,0,0-.475.448,3.07,3.07,0,0,0-1.241.145,6.811,6.811,0,0,0-1.34,1.107c-.071.076-.047-.115-.236-.239a3.111,3.111,0,0,0-.783-.339c-.072-.019-.04-.4-.27-1.372a4.1,4.1,0,0,0-.53-1.217,5.412,5.412,0,0,1,1.46-.589,1.34,1.34,0,0,0,.844-.568,1.4,1.4,0,0,0-.046-.845,3.5,3.5,0,0,0-.021-.449l-.01-.138a2.326,2.326,0,0,0,.077-1.284,3.446,3.446,0,0,0-1.531-2,9.1,9.1,0,0,1-1.266-1.135.662.662,0,0,1-.238-.448,2.356,2.356,0,0,0-.673-1.24,6.274,6.274,0,0,0-1.285-.773c-.267-.239-.759-.3-.944-.489s-1.062-.988-1.6-1.457a5.223,5.223,0,0,0-2.047-.914,6.754,6.754,0,0,1-2.5-.906,6.519,6.519,0,0,0-2.085-.94c-.308-.045-.474-.048-.474.057l.207.294-.084.026-.145-.141c-.208-.212-.458-.362-.649-.556a2.32,2.32,0,0,1-.427-.654l-.141-.033-.033-.157-.067-.181a3.176,3.176,0,0,1,.525-.765,6.183,6.183,0,0,0,1.464-2.572,7.52,7.52,0,0,0,.1-2.483,16.1,16.1,0,0,0-.365-1.86,2.962,2.962,0,0,0-.644-.673l-.158-.2-.088-.594a1.328,1.328,0,0,0-.536-.286c-.217-.031-.108-.1.129-.071a1.2,1.2,0,0,1,.544.15l.1-.139a1.061,1.061,0,0,0-.4-.346c-.169-.079-.277-.317-.436-.336a2.432,2.432,0,0,0-1.148.248l-.195.157-.134-.015.22-.183.42-.148-.222-.158a1.132,1.132,0,0,0-.6.208c-.129.09.119-.227.3-.248s.217-.069.06-.108a.914.914,0,0,0-.684.108c-.188.148-.336.188-.375.129s-.169-.3-.386-.288-.578-.069-.832-.088a15.984,15.984,0,0,0-2.938.079c-.572.053-.771.158-.969.138a1.023,1.023,0,0,0-.584.288.529.529,0,0,1-.456.127c-.207-.029-.434-.04-.386.021l.01.267c-.1-.01-.584.019-.584-.217s.367-.446.584-.475.188-.238.04-.346l-.386-.029-.465.088a1.057,1.057,0,0,1-.375.2c-.248.083-.734.322-.8.692a1.247,1.247,0,0,0,.119.723l-.021.169-.158-.186-.117-.35-.188-.04-.108.143-.183.105-.129.251-.071.164-.1.27a.576.576,0,0,0,.245.716c.191.1.26.382.517.468s.263.613.425.632l.334.014-.038.1a2.106,2.106,0,0,0-.475,1.069,4.112,4.112,0,0,0,.232,1.2,5.665,5.665,0,0,0,.115.585,1.172,1.172,0,0,1-.181.628c-.186.263-1.052,1.148-1.066,1.424-.019.387.327.554.675.816.184.139.4.083.425.014h.014l-.034.358-.241.267a1.162,1.162,0,0,0,.546.663.831.831,0,0,0,.468.131l.01.041-.4.589c-.088.139.258.436.367.277l.024-.033.16.387-.016.071c-.01.139-.253.236-.253.532s.208.809.6.887a5.06,5.06,0,0,0,1.608-.079c.239-.048.582-.162.83-.2a1.533,1.533,0,0,1,.678.038c.439.141.673.544.988.9.184.208.386.382.425.427l-.043.208a9.039,9.039,0,0,0-1.076.88c-.377.336-.823.723-.923.842s-.262.5-.045.69a1.7,1.7,0,0,0,.775.208c.165.012.184.158.086.317a.748.748,0,0,0,.122.871c.16.115.553.443.8.62l.238.267-.064.181a5.157,5.157,0,0,0-.17,1.4,10.158,10.158,0,0,0,.847,2.941c.334.759.518,1.6.666,1.984l.012.09a4.07,4.07,0,0,0,.114.616l-.081-.076-.923-1.4c-.079-.131-.248-.077-.682-.1-.556-.033-1.245-.16-1.443-.16s-.16.11-.356.277c-.091.077-.987.973-1.57,1.557l-.086.072-.129.105-.05-.017.174-.148c.093-.065-.026-.289-.184-.276s.091-.088.121-.329a.6.6,0,0,0-.566-.594.786.786,0,0,0-.689.263l-.2-.04c-.053-.067-.289-.146-.554.131a.5.5,0,0,0-.115.611l.014.134-.022-.022-.048-.043-.01-.031c-.046-.16-.234-.291-.272-.46a1,1,0,0,0-.535-.5.675.675,0,0,0-.591.076l-.15.441-.136.293-.01.136-.262.143a.467.467,0,0,0-.455.4,1.037,1.037,0,0,0,.207.837c.084.1-.263.112-.523.158-.307.055-.744.277-.77.515s.265.48.5.5c.16.009.114.105.179.329s.348.32.429.341c.048.012-.234.117-.463.288l-.059.129-.251.2a.4.4,0,0,0-.37-.059c-.325.067-1.252.119-1.364.324a6.533,6.533,0,0,0-.148,1.376.644.644,0,0,0,.248.542l.072.246c.041.554.04,3.8.145,5.29a2.189,2.189,0,0,0,1.279,2.158c.553.289,9.734,5.346,10.631,5.782s10.237,5.329,10.975,5.632a4.3,4.3,0,0,0,3.008-.17c.976-.436,3.483-1.615,4.349-2.013a52.046,52.046,0,0,0,5.24-2.393c1.925-1.088,3.39-1.913,3.957-2.757a4.8,4.8,0,0,0,.541-2.48c.067-.66.148-4.8.162-4.985l.4-.381a.462.462,0,0,0,.122-.374c0-.1.007-.467.007-.894,0-.207.108-.494.095-.735a1.281,1.281,0,0,0-.749-1.052" transform="translate(0 0.021)" fill="#fff3d8"/>
        <g id="Group_808" data-name="Group 808" transform="translate(433.868 323.851)">
          <path id="Path_3042" data-name="Path 3042" d="M437.916,329.177a.163.163,0,0,0,.172.158.471.471,0,0,0,.224-.184.763.763,0,0,0,.071-.226s.26.052.312-.012.079-.172,0-.224-.189-.072-.317-.146a2.274,2.274,0,0,1-.58-.436.252.252,0,0,0-.3-.038.177.177,0,0,0,.04.248c.052.052.5.4.541.456a.272.272,0,0,1,.005.2c-.04.095-.164.15-.164.2" transform="translate(-431.277 -320.831)" fill="#1a1311"/>
          <path id="Path_3043" data-name="Path 3043" d="M438.531,328.71c.093-.079-.04-.158-.133-.158s-.158.04-.119.133.158.105.251.026" transform="translate(-430.691 -320.458)" fill="#1a1311"/>
          <path id="Path_3044" data-name="Path 3044" d="M445.269,331.913a6.361,6.361,0,0,0-1.663,1.57,5,5,0,0,0-.806,1.557c-.06.219.079.267.251.1.4-.368,1.021-1.495,1.958-2.545a2.5,2.5,0,0,1,.563-.608c.093-.059.052-.2-.3-.079" transform="translate(-427.431 -318.066)" fill="#1a1311"/>
          <path id="Path_3045" data-name="Path 3045" d="M440.8,334.62c-.119.014-.2.3-.172.527s.067.554.212.554a.468.468,0,0,0,.368-.436c0-.224-.238-.665-.408-.646" transform="translate(-428.991 -316.078)" fill="#1a1311"/>
          <path id="Path_3046" data-name="Path 3046" d="M435.987,340.339c.16.141.153.076.21-.027s-.2-.3-.122-.4c.06-.081.014-.25.179-.372a.642.642,0,0,1,.432-.081.632.632,0,0,1,.4.4c.065.158.2.286.215.456.01.15.134.207.276.188s-.019-.264-.065-.422-.234-.291-.272-.46a1,1,0,0,0-.536-.5.669.669,0,0,0-.591.076.615.615,0,0,0-.15.441c0,.139-.1.22-.136.293a.386.386,0,0,0,.16.41" transform="translate(-432.466 -312.853)" fill="#1a1311"/>
          <path id="Path_3047" data-name="Path 3047" d="M448.376,337.2a2.023,2.023,0,0,0-.778.243c-.136.071-.2.088-.279.045a5.826,5.826,0,0,0-1.55-.525,9.617,9.617,0,0,0-1.483-.184,7.351,7.351,0,0,1-.527-1.121,7.617,7.617,0,0,1-.4-1.069c-.065-.22-.234-.585-.331-.422-.127.22.121.849.281,1.217.219.5.666,1.262.69,1.381.014.065-.47.022-.962.1-.21.033-.114.155.031.181s1.207.152,2.2.37c1.052.229,2.149.62,2.3.62s.2-.281.62-.515c.276-.155.632-.2.632-.263s-.21-.079-.448-.053" transform="translate(-427.333 -316.438)" fill="#1a1311"/>
          <path id="Path_3048" data-name="Path 3048" d="M442.486,336.739a4.2,4.2,0,0,0-1,.656c-.4.324-.472.84-.4.873.09.041.231-.3.632-.613.434-.336,1-.41,1.431-.816a.849.849,0,0,0,.2-.856c-.079-.145-.486.582-.859.756" transform="translate(-428.676 -315.107)" fill="#1a1311"/>
          <path id="Path_3049" data-name="Path 3049" d="M442.489,338.482a6.451,6.451,0,0,1,.541,1.86c.014.647.275.687.329.461a5.118,5.118,0,0,0-.158-1.582,2.681,2.681,0,0,1-.331-1.107c0-.449.226-.925.226-1.254a2.725,2.725,0,0,0-.331-1.228c-.158-.158-.262.04-.2.186a2.2,2.2,0,0,1,.064,1.161,2.866,2.866,0,0,0-.143,1.5" transform="translate(-427.685 -315.389)" fill="#1a1311"/>
          <path id="Path_3050" data-name="Path 3050" d="M441.29,338.7a4.422,4.422,0,0,1-.449-1.932c.021-.472.193-.73.21-1.055.012-.212-.15-.229-.224-.014a2.931,2.931,0,0,0-.256,1.148,4.047,4.047,0,0,0,.391,1.55,1.9,1.9,0,0,1,.284.642c0,.1-.09.064-.155.169a1.154,1.154,0,0,0,.119.673c.079.131.422.343.436.079a1.282,1.282,0,0,0-.293-.777c-.107-.065,0-.231-.062-.484" transform="translate(-429.03 -315.412)" fill="#1a1311"/>
          <path id="Path_3051" data-name="Path 3051" d="M441.2,338.4c-.1-.059-.158-.01-.129.069s.129.306.179.465a6.256,6.256,0,0,0,.356,1.069c.138.217.241-.017.219-.227a5.3,5.3,0,0,0-.262-.806,1.451,1.451,0,0,0-.363-.57" transform="translate(-428.673 -313.369)" fill="#1a1311"/>
          <path id="Path_3052" data-name="Path 3052" d="M442.577,339.736a2.924,2.924,0,0,0,.832-.09,1.3,1.3,0,0,1,.444-.127c.108-.01.139-.139-.059-.179a1.2,1.2,0,0,0-.584.069,2.9,2.9,0,0,1-.723.01c-.119-.01-.119.317.09.317" transform="translate(-427.704 -312.679)" fill="#1a1311"/>
          <path id="Path_3053" data-name="Path 3053" d="M445.926,336.446c-.04.119.217.238.436.317s.7.138.751-.029-.167-.417-.336-.436-.778-.069-.851.148" transform="translate(-425.167 -314.88)" fill="#1a1311"/>
          <path id="Path_3054" data-name="Path 3054" d="M440.506,331.123c0,.177.647.117.8.05a2.614,2.614,0,0,0,.465-.219,2.317,2.317,0,0,0,.961-1.662,1.575,1.575,0,0,0-.554-1.305.12.12,0,0,0-.148.04c-.021.04.167.207.306.455a1.577,1.577,0,0,1-.158,1.167,3.394,3.394,0,0,1-1.186,1.207c-.356.188-.486.09-.486.267" transform="translate(-429.076 -320.875)" fill="#1a1311"/>
          <path id="Path_3055" data-name="Path 3055" d="M440.9,329.162c-.1,0-.09.317-.238.5a.342.342,0,0,0,.021.486.316.316,0,0,0,.425-.031c.069-.088.267-.079.365-.127s.119-.15.179-.248a3.9,3.9,0,0,0,.415-.98c0-.207-.2-.3-.208-.415a.5.5,0,0,0-.455-.386c-.317.01-.573.515-.573.732s.5.554.584.613.138-.01.1-.079a.946.946,0,0,0-.257-.317.274.274,0,0,1-.158-.246c0-.1.336-.169.455-.169a.2.2,0,0,1,.219.217,1.68,1.68,0,0,1-.071.663,1.072,1.072,0,0,1-.465.356c-.148.069-.059-.188-.048-.336s-.189-.238-.288-.238" transform="translate(-429.032 -320.882)" fill="#1a1311"/>
          <path id="Path_3056" data-name="Path 3056" d="M440.625,329.172c-.059-.029-.217.188-.307.336s.029.425.129.536.138-.04.119-.15a.473.473,0,0,1,.1-.394.226.226,0,0,0-.04-.327" transform="translate(-429.235 -320.012)" fill="#1a1311"/>
          <path id="Path_3057" data-name="Path 3057" d="M439.816,331.835c-.129.129-.057.243.1.243s.721-.539.914-.792a3.463,3.463,0,0,0,.48-.859c.115-.291-.045-.465-.2-.386a9.455,9.455,0,0,0-.515.878,5.279,5.279,0,0,1-.784.916" transform="translate(-429.622 -319.397)" fill="#1a1311"/>
          <path id="Path_3058" data-name="Path 3058" d="M439.87,325.478c.148.01.145-.165.26-.184a2.067,2.067,0,0,0,.78-.26c.108-.129.11-.2-.052-.267a1.7,1.7,0,0,0-.775-.162,8.735,8.735,0,0,0-.914.208,5.589,5.589,0,0,1-.684.2c-.127.029-.053.131.195.172.651.105,1.042.284,1.19.294" transform="translate(-430.579 -323.311)" fill="#1a1311"/>
          <path id="Path_3059" data-name="Path 3059" d="M437.722,325.239c-.2-.019-.071.129.117.188s.677-.019.9.012a3.31,3.31,0,0,1,.563.186.373.373,0,0,0,.356-.238c.021-.129-.456-.4-.876-.4-.544,0-.864.274-1.061.255" transform="translate(-431.158 -323.033)" fill="#1a1311"/>
          <path id="Path_3060" data-name="Path 3060" d="M437.789,325.931a1.712,1.712,0,0,1,.673-.208c.167-.029.355-.148.306-.286-.09-.258-1.069.286-1.128.425s.059.177.148.069" transform="translate(-431.156 -322.756)" fill="#1a1311"/>
          <path id="Path_3061" data-name="Path 3061" d="M436.81,330.431a1.16,1.16,0,0,0,.548.663c.257.138.529.208.6.024.055-.143.449-.133.537-.084a.339.339,0,0,0,.219.053.3.3,0,0,0,.2-.122c.048-.108.148-.079.317-.009s.592.069.494-.079a2.736,2.736,0,0,0-.666-.436,1.981,1.981,0,0,1-.527-.634c-.079-.2-.034-.425-.143-.436s-.119.129-.119.425a1.283,1.283,0,0,0,.389.758c.079.059-.048.121-.2.169a2.042,2.042,0,0,1-.863-.095,1.087,1.087,0,0,1-.52-.446c-.059-.1-.279.119-.265.248" transform="translate(-431.745 -319.866)" fill="#1a1311"/>
          <path id="Path_3062" data-name="Path 3062" d="M437.384,329.161c-.077-.048-.177.019-.108.09a.719.719,0,0,1,.167.386c.01.138,0,.3.09.307s.193-.129.193-.343c0-.148-.2-.353-.341-.439" transform="translate(-431.425 -320.03)" fill="#1a1311"/>
          <path id="Path_3063" data-name="Path 3063" d="M437.27,329.361c-.131-.09-.246-.139-.337-.05-.057.059-.107.155-.071.191.06.059.253.05.355.122.15.1.257.227.279.162.034-.1-.1-.336-.226-.425" transform="translate(-431.715 -319.944)" fill="#1a1311"/>
          <path id="Path_3064" data-name="Path 3064" d="M437.547,331.368c.107-.158.553-.692.534-.792s-.436-.193-.475-.119c-.059.11-.337.5-.427.634s.258.436.368.277" transform="translate(-431.488 -319.102)" fill="#1a1311"/>
          <path id="Path_3065" data-name="Path 3065" d="M439.583,339.863a1.377,1.377,0,0,0-1.247,1.078.7.7,0,0,0,.742.792,1.45,1.45,0,0,0,1.34-.916.826.826,0,0,0-.835-.954" transform="translate(-430.646 -312.293)" fill="#1a1311"/>
          <path id="Path_3066" data-name="Path 3066" d="M437.184,340.338c-.1.014-.112-.034-.148-.131-.119-.3-.265-.491-.4-.52a.5.5,0,0,0-.455.663c.057.153.2.088.2-.071s.072-.337.25-.344c.148-.007.25.365.267.465.024.136.091.21.177.191a.323.323,0,0,1,.367.145,1.071,1.071,0,0,1,.108.573c0,.179.224.238.26,0a1.15,1.15,0,0,0-.21-.828.475.475,0,0,0-.408-.141" transform="translate(-432.225 -312.423)" fill="#1a1311"/>
          <path id="Path_3067" data-name="Path 3067" d="M437.72,341.656a2.264,2.264,0,0,1-.678-.308.846.846,0,0,1-.37-.53,1.079,1.079,0,0,0-.63-.684c-.25-.034-.172.146,0,.231.3.148.312.4.362.594a1.19,1.19,0,0,0,.663.765c.5.288,1.073.3,1.427.544.267.184.8.706.866.651.11-.1-.294-.422-.522-.689a2,2,0,0,0-1.121-.573" transform="translate(-432.414 -312.1)" fill="#1a1311"/>
          <path id="Path_3068" data-name="Path 3068" d="M435.935,340.933c-.119-.05-.267.083-.286.3s.212.418.281.387-.069-.186.057-.432c.041-.081.071-.2-.052-.255" transform="translate(-432.583 -311.528)" fill="#1a1311"/>
          <path id="Path_3069" data-name="Path 3069" d="M437.773,341.95c-.067-.034-.372.293-.992.7a4.016,4.016,0,0,1-.945.465c-.129.05-.208.1-.133.191a.314.314,0,0,0,.367.122,3.409,3.409,0,0,0,1.6-1.073c.146-.231.222-.346.1-.408" transform="translate(-432.564 -310.788)" fill="#1a1311"/>
          <path id="Path_3070" data-name="Path 3070" d="M436.206,343.378c-.062.059.337.272.486.183a10.122,10.122,0,0,0,1.035-.863c.079-.108-.036-.167-.165-.167a2.608,2.608,0,0,0-.649.358,6.108,6.108,0,0,0-.706.489" transform="translate(-432.185 -310.367)" fill="#1a1311"/>
          <path id="Path_3071" data-name="Path 3071" d="M441.85,340.407a1.2,1.2,0,0,0-.554.673c-.029.158.069.148.2.238s.219.029.267-.1.337-.325.475-.455.079-.227,0-.317-.148-.129-.386-.04" transform="translate(-428.51 -311.936)" fill="#1a1311"/>
          <path id="Path_3072" data-name="Path 3072" d="M437.684,341.847c-.06.069.162.232.41.492.157.164.332.379.429.269.059-.064-.227-.346-.334-.465s-.434-.381-.5-.3" transform="translate(-431.12 -310.872)" fill="#1a1311"/>
          <path id="Path_3073" data-name="Path 3073" d="M446.959,343.291c-.133-.065-.461-.4-.659-.133a1.456,1.456,0,0,0-.172.778.727.727,0,0,1-.2.475,4.683,4.683,0,0,0-.83,1.121c-.133.277-.422,1.035-.119,1.03.243-.005.189-.424.432-.887a2.226,2.226,0,0,1,.816-.988.662.662,0,0,0,.348-.579c0-.251-.065-.527.079-.527s.382.276.594.315.553.053.553-.145a.823.823,0,0,0-.158-.541c-.119-.133-.065-.26.072-.363a1.85,1.85,0,0,1,.931-.4c.289-.014.7.105.672.343s.067.408.158.436.529-.093.713,0,.263.3.112.418c-.179.143-.238.133-.4-.053a1.034,1.034,0,0,0-.926-.088,1.361,1.361,0,0,0-.95.828c-.217.53.067.728.238.728s.449-.027.317.078a2.891,2.891,0,0,0-.728,1.1,1.269,1.269,0,0,0,.136.88c.153.062.269.129.308-.083a2.093,2.093,0,0,1,.133-.8,3.031,3.031,0,0,1,1-1.068c.214-.148.131-.172.012-.3a.576.576,0,0,0-.62-.212c-.263.105-.491.134-.482,0a1.031,1.031,0,0,1,.443-.6,1.249,1.249,0,0,1,.749-.222c.183.052.263.215.346.22.131.007.145.095.291.095a.3.3,0,0,0,.246-.083.793.793,0,0,1,.37-.162c.2-.046.386.021.425-.165s-.133-.329-.251-.289-.184.026-.21-.04-.331-.541-.541-.554-.515-.012-.529-.079a.8.8,0,0,0-.436-.527,1.037,1.037,0,0,0-.968-.076c-.262.109-.971.22-1.1.379a.671.671,0,0,0-.093.567c.04.172.014.238-.119.172" transform="translate(-425.942 -310.687)" fill="#1a1311"/>
          <path id="Path_3074" data-name="Path 3074" d="M450.662,344.046a.149.149,0,0,0,.277.079c.105-.145.17-.384.026-.448-.119-.053-.3.236-.3.368" transform="translate(-421.745 -309.544)" fill="#1a1311"/>
          <path id="Path_3075" data-name="Path 3075" d="M452.88,343.737c-.053.053-.119-.105-.277-.105a.422.422,0,0,0-.343.184c-.065.093-.2-.014-.2-.093s-.329-.04-.4.028-.277.026-.368.026-.267.282-.3.382-.04.251.131.251.212-.186.291-.251.1.119.263.158.224-.079.317-.158.184-.052.17.04.3.014.37-.065.25.026.329.065.422-.158.529-.145a.556.556,0,0,0,.448-.291c.107-.2-.026-.3-.158-.3a.425.425,0,0,0-.343.212c-.065.119-.17.079-.17-.028s-.238.04-.291.093" transform="translate(-421.521 -309.696)" fill="#1a1311"/>
          <path id="Path_3076" data-name="Path 3076" d="M451.2,343.143a.705.705,0,0,0,.291-.422.608.608,0,0,0-.671-.539c-.541-.012-.74.05-.715.1.048.1.436,1.543.515,1.715s.436.145.329-.053-.382-1.161-.448-1.305-.012-.129.119-.145c.165-.021.467-.014.5.165.031.16-.158.269-.238.362a.289.289,0,0,0,.04.37c.105.131.727.62.818.739s.434-.078.317-.2a6.441,6.441,0,0,0-.775-.6c-.1-.065-.176-.136-.083-.189" transform="translate(-422.149 -310.619)" fill="#1a1311"/>
          <path id="Path_3077" data-name="Path 3077" d="M452.081,342.808c-.133.026-.458.01-.472-.041a1.336,1.336,0,0,0-.267-.42c-.119-.105-.238-.026-.212.04.045.108.475,1.4.5,1.569s.382.172.355,0-.2-.62-.119-.672a.761.761,0,0,1,.468,0,6.505,6.505,0,0,1,.231.689c.053.172.291.172.291-.091a4.245,4.245,0,0,0-.2-.868,3.377,3.377,0,0,0-.35-.914c-.079-.052-.264-.065-.224.119s.119.331.119.422.014.146-.119.172" transform="translate(-421.409 -310.706)" fill="#1a1311"/>
          <path id="Path_3078" data-name="Path 3078" d="M453.045,342.25c.053-.172-.133-.251-.3-.172a1.232,1.232,0,0,0-.5.871,1.345,1.345,0,0,0,.394,1,.678.678,0,0,0,.919-.089.959.959,0,0,0,.084-.859c-.107-.277-.2-.186-.226-.027a1.8,1.8,0,0,1-.065.418,1.363,1.363,0,0,1-.238.358.218.218,0,0,1-.329-.05,1.023,1.023,0,0,1-.172-.911c.155-.386.382-.368.436-.541" transform="translate(-420.605 -310.716)" fill="#1a1311"/>
          <path id="Path_3079" data-name="Path 3079" d="M453.65,343.873c.133-.172.145-.408-.014-.448s-.224.065-.343.079-.224-.093-.25-.04c-.052.1-.331.329-.3.487s.291.065.331-.026.238-.158.224-.067.224.186.356.014" transform="translate(-420.247 -309.727)" fill="#1a1311"/>
          <path id="Path_3080" data-name="Path 3080" d="M454.021,347.7c-.133-.064-.949,1.026-.921,1.185s.2.317.277.238.551-.764.6-.856.091-.129.145-.117.365.182.48.241c.3.15.289.265.434.317s.177-.022.126-.127a4.194,4.194,0,0,0-1-.587c-.053-.01.105-.172-.148-.293" transform="translate(-419.986 -306.638)" fill="#1a1311"/>
          <path id="Path_3081" data-name="Path 3081" d="M455.609,348.169a.255.255,0,0,0-.325.071c-.107.119-.086.375-.224.589-.071.11-.9,1.359-1.014,1.624s.045.214.243.016a15.578,15.578,0,0,0,1.03-1.56c.067-.133.158.014.226.079a7.935,7.935,0,0,0,.887.517c.131.052.165-.121.086-.213a10.538,10.538,0,0,0-.98-.584c-.093-.053.05-.117.126-.246.04-.071.091-.226-.053-.291" transform="translate(-419.331 -306.319)" fill="#1a1311"/>
          <path id="Path_3082" data-name="Path 3082" d="M456.294,349.532c.05-.1.126-.162.231-.083s.663.444.782.5a.1.1,0,0,0,.107-.179c-.119-.079-.818-.515-.87-.568s.079-.158.119-.25-.16-.282-.3-.184a.285.285,0,0,0-.131.265.709.709,0,0,1-.1.329c-.188.353-.744,1.131-.875,1.341s-.343.517-.212.57.4-.394.627-.711a11.324,11.324,0,0,0,.628-1.028" transform="translate(-418.615 -305.886)" fill="#1a1311"/>
          <path id="Path_3083" data-name="Path 3083" d="M456.785,350.242c.224-.291.446-.752.356-.806-.065-.04-.427.5-.584.713s-.475.7-.432.739c.114.115.436-.355.659-.646" transform="translate(-417.804 -305.384)" fill="#1a1311"/>
          <path id="Path_3084" data-name="Path 3084" d="M457.855,348.918c.079-.065-.143-.427-.353-.572s-.425-.232-.7-.418a6.3,6.3,0,0,0-.764-.448c-.086-.034-.145-.04-.145-.145s-.052-.455-.158-.455-.189.057-.272.289c-.065.188-.033.429.114.429s.307-.043.36.062.87.558,1.114.746c.079.06-.01.164-.09.3s-.511.778-.6.95.064.332.143.227a12.544,12.544,0,0,0,.763-1.188c.053-.133.122-.115.265,0,.09.071.251.289.331.224" transform="translate(-418.305 -307.227)" fill="#1a1311"/>
          <path id="Path_3085" data-name="Path 3085" d="M455.165,350.467c-.04-.079-.105-.079-.172-.04-.1.059-.408.331-.408.487a.153.153,0,0,0,.269.1c.093-.093.127-.088.179-.022a2.167,2.167,0,0,0,.642.4c.127-.028.2-.114.084-.193s-.713-.382-.673-.487.119-.172.079-.251" transform="translate(-418.913 -304.686)" fill="#1a1311"/>
          <path id="Path_3086" data-name="Path 3086" d="M454.531,350.226c.108.09.573.336.642.386s.418.019.176-.148a6.759,6.759,0,0,0-.987-.534,20.323,20.323,0,0,0-1.276,1.672c-.1.167.04.415.1.307s1.1-1.495,1.147-1.624.09-.148.2-.059" transform="translate(-420.019 -305.026)" fill="#1a1311"/>
          <path id="Path_3087" data-name="Path 3087" d="M453.518,349.492c.1-.026.327-.263.288-.386s-.338-.425-.425-.336a4.415,4.415,0,0,0-.446.78c-.059.158-.99,1.495-1.049,1.6s.007.3.136.176a15.119,15.119,0,0,0,1-1.455c.071-.136.22-.15.264-.095.074.095.854.558,1.129.752.141.1.448.11.279-.071a12.881,12.881,0,0,0-1.112-.756c-.2-.129-.2-.177-.065-.214" transform="translate(-420.877 -305.874)" fill="#1a1311"/>
          <path id="Path_3088" data-name="Path 3088" d="M453.107,351.123c-.138-.079-.327.307-.406.4s.09.246.139.317.188.04.238-.04.217-.317.267-.4-.129-.215-.238-.277" transform="translate(-420.288 -304.172)" fill="#1a1311"/>
          <path id="Path_3089" data-name="Path 3089" d="M453.436,351.829c.138.069.41.208.455.127.062-.112-.174-.253-.363-.346a1.219,1.219,0,0,0-.393-.146c-.079,0-.119.14-.069.169s.232.127.37.2" transform="translate(-420.025 -303.918)" fill="#1a1311"/>
          <path id="Path_3090" data-name="Path 3090" d="M450.427,353.431c-.089.119.081.362.171.243s1.593-2.216,1.682-2.452c.052-.14.11-.176.219-.126s.513.365.732.494a3.464,3.464,0,0,0,.651.343c.139.029.238-.021.079-.139s-1.147-.79-1.247-.82-.009-.189-.127-.269a.37.37,0,0,0-.455-.048c-.169.127-.348.4-.258.455s.179.143.131.22c-.208.336-1.488,1.98-1.577,2.1" transform="translate(-421.933 -304.546)" fill="#1a1311"/>
          <path id="Path_3091" data-name="Path 3091" d="M451,349.564c-.138-.04-.288.148-.375.306a3.606,3.606,0,0,0-.138.441c-.069.158-1.286,1.753-1.376,1.94s.077.294.246.076,1.2-1.734,1.257-1.853.21-.112.339.017a7.214,7.214,0,0,0,1.56.794c.2.029.183-.232.079-.258a6.1,6.1,0,0,1-1.629-.847c-.065-.057.115-.231.174-.339a.192.192,0,0,0-.138-.277" transform="translate(-422.881 -305.293)" fill="#1a1311"/>
          <path id="Path_3092" data-name="Path 3092" d="M448.876,352.173a1.478,1.478,0,0,0,.356-.463c.09-.158-.014-.269-.1-.269-.108,0-.425.523-.513.623s.152.167.26.108" transform="translate(-423.236 -303.935)" fill="#1a1311"/>
          <path id="Path_3093" data-name="Path 3093" d="M448.251,352.8c-.1.158-.251.446-.009.517.174.05.3-.146.331-.294a7.778,7.778,0,0,1,.508-.8c.1-.207-.136-.274-.262-.148a6.711,6.711,0,0,0-.568.728" transform="translate(-423.585 -303.525)" fill="#1a1311"/>
          <path id="Path_3094" data-name="Path 3094" d="M441.652,346.164a.665.665,0,0,0-.346-.317c-.1-.019-.14-.01-.14.169a.478.478,0,0,0,.367.436c.188.009.148-.189.119-.288" transform="translate(-428.6 -307.978)" fill="#1a1311"/>
          <path id="Path_3095" data-name="Path 3095" d="M442.055,346.7c.05-.109-.229-.494-.375-.475a.25.25,0,0,0-.09.4c.158.177.415.188.465.079" transform="translate(-428.341 -307.697)" fill="#1a1311"/>
          <path id="Path_3096" data-name="Path 3096" d="M442.376,346.485c.04-.169-.234-.348-.367-.336s-.158.356-.009.494.336.01.375-.158" transform="translate(-428.067 -307.755)" fill="#1a1311"/>
          <path id="Path_3097" data-name="Path 3097" d="M435.911,345.615c.129-.007.255.212.325.37s.084.188.2.148c.2-.067.589-.176.565-.267a1.373,1.373,0,0,0-.98-1.167c-.821-.188-1.2.961-1.257,1.493a2.769,2.769,0,0,0,.415,1.851.844.844,0,0,0,1.5-.04c.35-.706.325-.959.257-1.049s-.861-.544-.94-.6-.11,0-.127.129-.1.623.009.653.241.086.215.152c-.045.11-.222.329-.432.155a1.237,1.237,0,0,1-.208-1.157c.071-.4.229-.654.451-.666" transform="translate(-433.23 -308.817)" fill="#1a1311"/>
          <path id="Path_3098" data-name="Path 3098" d="M437.94,347.845c.045-.632.379-1.081.561-1.068.351.026.5.587.48,1.073s-.344.99-.63,1.009-.455-.382-.412-1.014m.9,1.87a2.552,2.552,0,0,0,.937-2.213,1.459,1.459,0,0,0-1.205-1.569c-1.2-.072-1.469,1.987-1.235,2.8s1.028,1.267,1.5.982" transform="translate(-431.421 -307.912)" fill="#1a1311"/>
          <path id="Path_3099" data-name="Path 3099" d="M440.039,346.574a1.13,1.13,0,0,0-1.009.771,3.747,3.747,0,0,0-.248,2.039,1.544,1.544,0,0,0,1.012,1.226,1.226,1.226,0,0,0,1.049-.153c.09-.071.164-.126.129-.224a4.1,4.1,0,0,0-.32-.542c-.05-.069-.057-.145-.214-.052a.493.493,0,0,1-.775-.176,1.976,1.976,0,0,1-.06-1.386c.105-.341.312-.613.594-.544a.683.683,0,0,1,.482.542c.026.076.041.131.141.1a2.23,2.23,0,0,0,.455-.386c.108-.1.1-.174-.047-.4a1.341,1.341,0,0,0-1.19-.813" transform="translate(-430.35 -307.448)" fill="#1a1311"/>
          <path id="Path_3100" data-name="Path 3100" d="M441.528,348.361c.164.065.628.289.756.35.079.036.155.046.155-.093v-.553a.247.247,0,0,0-.086-.222c-.119-.1-1.445-.715-1.617-.818-.1-.059-.188.021-.188.129s-.164,1.865-.232,2.5c-.06.561-.133,1.03-.143,1.148a.3.3,0,0,0,.158.267c.069.029,1.178.644,1.286.692s.246.139.286.01.265-.561.3-.632-.029-.15-.117-.208-.759-.43-.839-.47a.166.166,0,0,1-.1-.143v-.337c0-.088.034-.112.127-.069.172.078.446.188.546.248s.21.053.22-.017.141-.549.184-.666c.029-.081-.546-.313-.782-.436-.1-.052-.158-.088-.158-.167s.031-.446.04-.525.122-.024.208.01" transform="translate(-429.317 -307.137)" fill="#1a1311"/>
          <path id="Path_3101" data-name="Path 3101" d="M443.012,350.232c-.227.169-.5.217-.5.119s.091-1.111.1-1.279.026-.195.105-.176a.942.942,0,0,1,.584.565.692.692,0,0,1-.294.771m.463.663a1.014,1.014,0,0,0,.732-.682,1.567,1.567,0,0,0-.246-1.545,3.45,3.45,0,0,0-1.643-.959c-.239-.064-.386-.09-.4-.029l-.01.04c0,.148-.365,3.749-.365,3.9a.209.209,0,0,0,.138.208c.16.1.6.367.644.317a1.168,1.168,0,0,0,.108-.565c0-.177-.04-.623.029-.632s.172.329.212.508.172.635.224.842c.033.134.1.245.177.213.174-.076.751-.282.732-.356-.033-.138-.257-.811-.325-.99-.06-.153-.108-.232-.01-.267" transform="translate(-428.325 -306.674)" fill="#1a1311"/>
          <path id="Path_3102" data-name="Path 3102" d="M443.882,353.026c.129.059.158-.021.169-.148s.394-3.73.4-3.9.062-.2-.057-.279-.446-.207-.685-.334c-.1-.052-.177-.029-.177.059,0,.294-.16,2.106-.2,2.45-.059.474-.153,1.031-.17,1.495a.343.343,0,0,0,.146.32,5.834,5.834,0,0,0,.573.336" transform="translate(-427.159 -306.174)" fill="#1a1311"/>
          <path id="Path_3103" data-name="Path 3103" d="M444.075,352.878c-.04.2.005.229.114.288s1.252.634,1.408.721.258.021.3-.119a4.52,4.52,0,0,1,.277-.494.218.218,0,0,0-.069-.267c-.077-.04-.82-.417-.89-.456a.24.24,0,0,1-.148-.2c0-.1.05-.434.05-.5s.05-.127.157-.077.406.193.542.251.224.107.284.017a5.419,5.419,0,0,0,.241-.558.211.211,0,0,0-.1-.265c-.119-.069-.832-.386-.942-.425s-.017-.412-.017-.53.031-.119.179-.069.766.324.954.4.169-.024.189-.231.053-.6-.065-.721a17.864,17.864,0,0,0-1.93-.89c-.06-.01-.16.05-.148.227s-.2,2.256-.258,2.85-.09.851-.127,1.049" transform="translate(-426.51 -305.876)" fill="#1a1311"/>
          <path id="Path_3104" data-name="Path 3104" d="M446.639,353.078c-.267-.069-.534-.436-.613-.534s-.107-.086-.183-.026a2.931,2.931,0,0,0-.413.413c-.077.119-.117.126-.048.284a2.029,2.029,0,0,0,1.223.9,1.365,1.365,0,0,0,1.384-.6,1.31,1.31,0,0,0-.034-1.247c-.176-.325-.971-.988-1.049-1.238a.246.246,0,0,1,.317-.317.93.93,0,0,1,.465.506c.04.1.1.107.208.067a2.5,2.5,0,0,0,.474-.327c.09-.079.158-.167.01-.465a1.641,1.641,0,0,0-1.328-.787,1.171,1.171,0,0,0-1.1,1.1,1.763,1.763,0,0,0,.6,1.193c.258.277.577.572.6.82s-.241.327-.508.258" transform="translate(-425.582 -305.186)" fill="#1a1311"/>
          <path id="Path_3105" data-name="Path 3105" d="M444.045,343.944c-.069.01-.04-.307-.09-.436a2.34,2.34,0,0,0-.553-.634c-.11-.069-.169.119-.119.219s.315.257.415.455a1.4,1.4,0,0,1,.1.573c0,.1-.148.139-.148.248s.219.367.3.436.148.108.207-.01a2.439,2.439,0,0,1,.663-.523.685.685,0,0,1,.475-.089c.069.019.019-.208-.1-.307s-.444.148-.553.158-.129.009-.129-.04a1.55,1.55,0,0,0-.09-.644c-.108-.2-.227-.217-.307-.158s.05.158.109.3a.725.725,0,0,1,.01.356c0,.077-.119.088-.188.1" transform="translate(-427.084 -310.13)" fill="#1a1311"/>
          <path id="Path_3106" data-name="Path 3106" d="M443.183,344.3c.09.05.108.317.108.446a.651.651,0,0,0,.288.434c.108.031.277-.148.4-.108s.15.219.288.238.177-.129.367-.169a1.452,1.452,0,0,0,.692-.425c.04-.127-.327-.5-.425-.544s-.139.15-.139.267a.281.281,0,0,1-.138.277,3.261,3.261,0,0,1-.763.021c-.088,0-.167-.04-.1-.129s-.04-.217-.119-.336-.277-.139-.238-.188a1.119,1.119,0,0,1,.267-.337c.108-.069-.088-.277-.207-.148s-.327.4-.386.475.009.177.1.227" transform="translate(-427.231 -309.626)" fill="#1a1311"/>
          <path id="Path_3107" data-name="Path 3107" d="M442.879,344.795a.762.762,0,0,0,.2.465.362.362,0,0,0,.3.069c.1,0,.179.119.3.258a.491.491,0,0,0,.415.177c.169,0,.375-.119.386-.217s-.119-.238-.257-.277-.337.05-.417-.029a.711.711,0,0,0-.455-.189c-.148.021-.208-.048-.217-.2s.138-.276.158-.386.029-.284-.079-.315c-.238-.071-.317.494-.327.642" transform="translate(-427.363 -309.201)" fill="#1a1311"/>
          <path id="Path_3108" data-name="Path 3108" d="M444.859,344.251c0-.129-.108-.394-.288-.406s.04.356.119.456.169.079.169-.05" transform="translate(-426.187 -309.418)" fill="#1a1311"/>
          <path id="Path_3109" data-name="Path 3109" d="M437.62,325.271c.095-.052.191.046.158.172a.118.118,0,0,1-.217.033.141.141,0,0,1,.059-.2m6.975,4.573a1.368,1.368,0,0,1-.565.189c-.158-.01-.108-.229.04-.229a.463.463,0,0,0,.338-.108c.04-.059.1-.2.158-.158.1.067.119.248.029.307m-1.128.436c-.05-.069-.3-.317-.148-.256.1.04.238.177.238.256s-.04.069-.09,0m-.415.534c-.021.05-.071.071-.1,0s-.05-.119.021-.127.1.079.079.127m-.308-1.049c-.127-.009-.246-.069-.177-.088s.486.009.475.059-.079.238-.079.158-.09-.119-.219-.129m-.167.861a1.071,1.071,0,0,0-.248-.227c-.059-.04-.05-.169.01-.129.083.055.317.179.317.258s-.04.167-.079.1M442,329.469c-.09-.04-.071-.09-.11-.169-.026-.053.179.15.248.15s-.05.059-.138.019m-1.159-.177a.637.637,0,0,1-.127-.337c0-.112.227.277.286.337s-.069.1-.158,0m2.572-2.85c-.019.04-.129.019-.158-.06s-.069-.1-.009-.138c.076-.05.188.158.167.2m-.306.544c-.1.05-.219-.064-.257-.148s.138-.06.2-.01.158.108.059.158m-6.591-.141c.191.1.26.381.517.467s.263.615.425.634c.084.01.408-.047.332.059a2.23,2.23,0,0,0-.511,1.121,6.04,6.04,0,0,0,.319,1.5,1.212,1.212,0,0,1-.152.911c-.186.263-1.052,1.147-1.066,1.424-.019.387.327.554.675.816.208.157.463.065.424-.014a1.646,1.646,0,0,0-.451-.384c-.164-.1-.37-.138-.31-.41a2.393,2.393,0,0,1,.42-.627,3.661,3.661,0,0,0,.656-1.124,2.68,2.68,0,0,0-.074-1.04,3,3,0,0,1-.026-1.545,2.453,2.453,0,0,1,.556-1.064c.108-.148.069-.306-.05-.317s-.4-.158-.257-.208.523-.346.642-.4.031-.179-.108-.148a2.865,2.865,0,0,1-.83.108c-.544.01-1.011-.079-1.064-.322s.162-.682.3-.711.15.36.308.568a.991.991,0,0,0,.95.119c.207-.119.188-.4.554-.555a5.6,5.6,0,0,0,.978-.415,3.794,3.794,0,0,1,1.624-.554,7.613,7.613,0,0,1,2.156.544c.248.09.565.05.515-.05a2.207,2.207,0,0,0-.673-.663c-.325-.188-.267-.238-.029-.119a5.848,5.848,0,0,1,.98.644c.138.148.317.177.325.048s0-.246.1-.246a1.638,1.638,0,0,0,.554.029c.148-.059.236-.029.267.05s.188.475.257.325.01-.257.129-.267.119.179.119.277-.129.267-.277.208a3.891,3.891,0,0,0-1.326-.04,9.348,9.348,0,0,0-.99.129c-.286.009-.346.009-.394.077s-.277.071-.346.219-.11.217-.179.177-.257-.105-.3-.072-.107.2-.191.191a1.058,1.058,0,0,0-.291.021c-.091.019-.138.1-.238.1a.7.7,0,0,0-.31.072.283.283,0,0,1-.231.072.411.411,0,0,0-.31.047c-.04.053-.072.119-.152.119a1.178,1.178,0,0,0-.508.27c-.026.079-.165.112-.25.112s-.925.508-.925.95.159.415.238.375.158-.019.152.086a2.188,2.188,0,0,0,.331.765c.1.079.145-.033.145-.2a2.425,2.425,0,0,1,.065-.95c.14-.4.436-.646.436-.753s-.033-.184.079-.217.248-.033.277-.1.257-.09.257-.04.129.1.248.079.129.048.129.119a1.129,1.129,0,0,0,.277.851,1.65,1.65,0,0,0,.83.613c.129,0,.208-.139.337-.148s.74-.06.74-.188-.355-.2-.355-.258a.247.247,0,0,0-.208-.207.694.694,0,0,1-.573-.277c-.188-.267-.208-.525-.148-.575s.148-.059.167.021.227.138.169.059a.748.748,0,0,1-.1-.4c.021-.09.139-.139.15-.021a1.218,1.218,0,0,0,.207.554,2.3,2.3,0,0,0,.7.494c.2.04.634.158.634.05a.2.2,0,0,1,.248-.188c.127.05.434.188.474.3s.227.079.227-.009.071-.277.158-.219.417.179.327.06-.317-.248-.317-.367a.167.167,0,0,1,.258-.119,2.968,2.968,0,0,0,.592.386,2.8,2.8,0,0,0,.536-.494c.059-.079.148-.139.217-.069s.267.336.306.325-.09-.306-.138-.386a1.483,1.483,0,0,1-.04-.523c.009-.11.138-.06.167.04s.307.592.456.632a1.433,1.433,0,0,1,.444.139,3.145,3.145,0,0,0,.475.317c.069,0-.021-.229.09-.238a.291.291,0,0,1,.286.177c.031.109.169.248.277.219s.139.108.139.167.127.6.127.782-.1.238-.127.1a2.771,2.771,0,0,0-.377-.733c-.108-.108-.246-.069-.158.05a1.754,1.754,0,0,1,.258.565c0,.1-.129.167-.179.069a8.228,8.228,0,0,0-.7-.94c-.108-.09-.3-.346-.394-.306s-.189.108-.04.238a.988.988,0,0,1,.276.544c0,.119-.1.277-.177.109a3.666,3.666,0,0,0-.288-.484c-.069-.1-.167.019-.148.127s-.069.188-.1.108a2.443,2.443,0,0,0-.386-.425c-.11-.1-.188-.009-.129.09s.138.248.169.317-.11.169-.189.129-.157.079-.117.148a.7.7,0,0,1,.088.307c0,.108-.079.169-.119.079a4.1,4.1,0,0,1-.2-.465c-.019-.1-.138-.09-.127-.029s-.129.2-.179.108-.2-.219-.2-.148-.029.246-.119.177-.3-.217-.365-.277-.1.021-.069.079.573.634.672.792.071.386-.04.277a4.22,4.22,0,0,1-.465-.475c-.04-.09-.177-.06-.148-.01s-.019.1-.059.029-.248-.1-.143.043.165.337.133.356a.156.156,0,0,1-.179-.065c-.04-.072-.174-.212-.224-.2-.165.047.028.257.067.3s.033.119-.047.093-.172-.072-.219-.04-.019.152-.079.152-.17-.007-.191-.093a.865.865,0,0,0-.408-.363,2.365,2.365,0,0,0-.868-.1,3.844,3.844,0,0,1-1.236-.1c-.3-.139-.565-.367-.6-.594s-.14-.2-.189-.152-.2.2.022.508.594.573.653.682.05.169-.09.139a.8.8,0,0,1-.672-.575,2.789,2.789,0,0,1-.031-1.1c.053-.289-.048-.425-.246-.238a1.7,1.7,0,0,0-.623,1.255,1.426,1.426,0,0,0,.475,1.088c.138.11.157-.019.157-.108s.021-.169.11-.079.257.179.238.258a.451.451,0,0,0,.138.465,2.082,2.082,0,0,1,.653.642c.122.207.1.415.2.544s.248.317.375.317.158-.1.158-.227-.138-.515-.2-.5-.188.148-.207.029a1.22,1.22,0,0,0-.277-.515,2.374,2.374,0,0,0-.486-.415c-.119-.06-.1-.138.031-.129a.8.8,0,0,1,.455.288c.169.177.663.563.732.673a.731.731,0,0,1,.148.325c.01.119-.04.346.09.346s.22-.313.406-.336c.108-.014.16-.04.16-.184s-.012-.331.186-.331.343.105.224.224-.238.384-.145.436.17-.145.289-.3.422-.58.62-.58a1.638,1.638,0,0,1,.883.184c.2.172.792.818.792,1.081s-.119.647-.014.647.356,0,.356-.107-.091-.224.079-.224.107.277.067.37a1.985,1.985,0,0,1-.265.527c-.119.119-.012.2.093.093a1.618,1.618,0,0,0,.343-.594c.014-.145.158-.145.145-.026a12.01,12.01,0,0,1-.672,1.489c-.107.146.091.3.158.146s.448-.857.461-.95.091.119.091.238a3.656,3.656,0,0,0-.119.408c.028.172.286-.274.291-.224.012.115-.119.351-.119.422,0,.146.145.133.238.014a1.6,1.6,0,0,0,.382-.606c.04-.238.263-.158.238-.04a11.61,11.61,0,0,1-.382,1.121c-.093.184-.026.382-.133.606s-1.226,1.372-1.767,2.032a13.8,13.8,0,0,0-1.538,2.386,1.837,1.837,0,0,0-.224-.272c-.055-.064-.372-.356-.68-.687-.477-.506-.82-1.052-1.169-1.223a1.522,1.522,0,0,0-1.154-.114,3.9,3.9,0,0,1-1.588.36c-.238-.007-.554,0-.692-.167a.689.689,0,0,1-.021-.663c.09-.09.071-.317.01-.465s-.208.04-.217.177-.253.236-.253.532.208.808.6.887a5.06,5.06,0,0,0,1.608-.079c.239-.048.582-.164.83-.2a1.507,1.507,0,0,1,.678.038c.439.141.673.544.988.9.184.208.386.382.425.427.108.119.057.164-.043.208a8.7,8.7,0,0,0-1.076.88c-.377.336-.823.723-.923.842s-.262.5-.045.69a1.676,1.676,0,0,0,.775.207c.165.012.184.16.086.319a.751.751,0,0,0,.122.871c.207.148.808.654.976.73.105.048.079.158,0,.337a5.156,5.156,0,0,0-.17,1.4,10.131,10.131,0,0,0,.847,2.939c.358.814.544,1.718.7,2.061.127.284.289.239.2-.014a24.379,24.379,0,0,0-.785-2.4,16.634,16.634,0,0,1-.487-1.925,4.579,4.579,0,0,1,.1-2.032,3.91,3.91,0,0,0-.053-1.266c-.016-.079-.093-.052-.117.112-.014.1-.036.418-.057.539-.012.077-.036.071-.105.041a8.449,8.449,0,0,1-.861-.792c-.117-.157-.019-.365.028-.515.115-.386-.017-.666-.262-.706-.124-.021-.381-.048-.6-.09-.136-.024-.145-.169,0-.322.095-.1,1.92-1.73,1.978-1.8s.09-.01.148.059-.016.158-.133.245a2.379,2.379,0,0,0-.666,1c-.108.327-.162.888,0,.888s.148-.344.355-.778.556-.787.577-1.023c.007-.079.05-.158.119-.167.028-.005.15.047.2.045a6.073,6.073,0,0,0-.444,1.13,6.361,6.361,0,0,0-.253,1.734c0,.17.119.277.17.052a11.647,11.647,0,0,1,.577-2.237,11.949,11.949,0,0,1,2.149-3.3,6.812,6.812,0,0,0,1.457-1.779.378.378,0,0,1-.005-.319l.007-.019a3.708,3.708,0,0,1,.661-1.05,6.2,6.2,0,0,0,1.464-2.572,7.519,7.519,0,0,0,.1-2.483,15.844,15.844,0,0,0-.365-1.861,2.986,2.986,0,0,0-.644-.672c-.088-.069-.158-.05-.158-.2a1.656,1.656,0,0,0-.088-.594,1.331,1.331,0,0,0-.534-.288c-.219-.029-.11-.1.127-.069a1.2,1.2,0,0,1,.544.148c.119.09.2,0,.1-.138a1.048,1.048,0,0,0-.4-.346c-.169-.079-.277-.317-.436-.336a2.432,2.432,0,0,0-1.148.248c-.215.133-.339.341-.468.41s-.174.193-.026.2.317.09.317.189-.129.167-.267.088-.138,0-.227-.04-.158-.1-.06-.257a2.893,2.893,0,0,1,.623-.634c.091-.064.368-.09.42-.148s-.127-.148-.222-.158a1.131,1.131,0,0,0-.6.208c-.129.088.119-.227.3-.248s.219-.069.06-.108a.914.914,0,0,0-.684.108c-.188.148-.336.188-.375.129s-.169-.3-.386-.287-.579-.069-.832-.09a16.3,16.3,0,0,0-2.938.079c-.572.055-.771.158-.969.139s-.465.188-.584.288a.534.534,0,0,1-.456.127c-.207-.029-.434-.04-.386.021s.11.277.01.267-.584.019-.584-.219.367-.444.584-.473.188-.238.04-.346-.356-.09-.386-.031-.4.021-.465.09a1.057,1.057,0,0,1-.375.2c-.248.083-.734.322-.8.692a1.247,1.247,0,0,0,.119.723c.05.138-.069.267-.108.148a2.3,2.3,0,0,1-.188-.515c0-.139-.129-.139-.188-.04-.019.031-.059.078-.109.143s-.127.016-.182.105a4.282,4.282,0,0,0-.3.685.576.576,0,0,0,.244.716" transform="translate(-432.157 -323.851)" fill="#1a1311"/>
          <path id="Path_3110" data-name="Path 3110" d="M437.188,327.436c-.076.133.251.42.558.575.25.126.878.4,1.035.46s.325.005.212-.076c-.332-.236-.78-.658-.95-.773a1.721,1.721,0,0,0-.854-.186" transform="translate(-431.48 -321.275)" fill="#1a1311"/>
          <path id="Path_3111" data-name="Path 3111" d="M474.59,356.16c-.124.1-1.632.907-2.622,1.395s-2.95,1.384-3.068,1.45-.165,0-.165-.157a3.6,3.6,0,0,1,.059-1c.184-.076,3.272-1.484,3.859-1.78.508-.257,1.636-.785,1.78-.89s.264-.193.264-.086-.012.592-.012.659.007.332-.093.412m-32.917-4.675c-.047.1-.115.109-.105-.06a.873.873,0,0,1,.238-.515,1.208,1.208,0,0,1,.325-.269c.165-.084.208-.041.244-.009.093.084.145.114.052.145a1.44,1.44,0,0,0-.408.294,1.544,1.544,0,0,0-.346.413m1-.546a9.814,9.814,0,0,1,1.057.911c.079.093,0,.119-.11.148a2.521,2.521,0,0,0-.641.35c-.06.064-.1.05-.17-.033-.188-.224-.682-.684-.737-.758s-.069-.1.019-.238c.108-.165.463-.441.582-.381m.739-5.813c.126,0,.963.077,1.18.1.112.01.244.026.139.108a.6.6,0,0,0-.191.541,1.083,1.083,0,0,0,.5.813c.274.2.548.276.456.282s-.778.033-.864.033-.133-.046-.2-.172-.749-1.149-.883-1.365c-.072-.115-.226-.339-.133-.339m1.7,4.339c.009-.108.158-.3.257-.276a1.615,1.615,0,0,1,.465.315.156.156,0,0,1-.019.189c-.06.069-.238.375-.288.346s-.3-.238-.367-.306-.059-.158-.048-.269m.267.961c-.05.059-.169.01-.2-.1s-.069-.257.01-.227a.841.841,0,0,1,.217.119c.04.04.019.148-.029.208m1.068-1.376c.09.109-.2.455-.267.336-.095-.164.179-.444.267-.336m12.885,9.426c-.188.067-1.849.548-1.968.6s-.234-.016-.432-.095-5.674-2.44-5.791-2.468-.193-.158-.083-.191c.251-.076,1.52-.523,1.98-.737.143-.065.244-.126.355-.053.251.165,5.259,2.318,5.849,2.679.212.129.308.189.09.265m2.638.477c.065-.158.8-1.61.857-1.687.065-.093.158.04.119.17s-.753,1.346-.845,1.57-.2.105-.131-.053m10.817-6.872a11.169,11.169,0,0,1-.647,2c-.1.146-.158.146-.21-.131a2.175,2.175,0,0,0-.62-1.03c-.317-.277-.857-.394-.752-.566a6.635,6.635,0,0,0,.566-.949c.158-.381.2-.534.331-.606a1.09,1.09,0,0,1,1.068.052c.37.279.351.682.265,1.226m-3.089.84c-.2.263-.577.766-.711.95-.1.145-.21.188-.3-.01s-.567-1.305-.79-1.806-.832-1.834-.9-2.006a.318.318,0,0,0-.37-.21c-.184.012-1.78.04-1.885.04s-.239-.017-.107-.184a9.256,9.256,0,0,1,1.743-1.755,1.2,1.2,0,0,1,.685-.226c.079,0,.117.014.1.079a1.681,1.681,0,0,0,.41,1.319,5.857,5.857,0,0,0,2.321,1.7c.592.236.689.172.737.007.052-.183,0-.253-.143-.3a7.932,7.932,0,0,1-2.046-1.056,2.126,2.126,0,0,1-.973-1.434c-.017-.3.076-.346.169-.346s.105.079.105.145a1.626,1.626,0,0,0,.41.95,5.827,5.827,0,0,0,1.45,1.161c.634.41,1.326.489,1.36.634a1.222,1.222,0,0,1-.138.825,18.455,18.455,0,0,1-1.131,1.519m-1.419-5.52a3.859,3.859,0,0,1,1.734.746,3.375,3.375,0,0,1,1.24,1.245.419.419,0,0,1-.527.544,4.845,4.845,0,0,1-2.328-1.486c-.4-.492-.527-1-.119-1.049m-7.21-1.5c-.169.04-.183.172-.1.257a2.42,2.42,0,0,1,.573.813c.224.5.265,1.033.165,1.045a3.837,3.837,0,0,0-.62.141c-.088.029-.086-.034-.105-.158s-.133-1.266-.164-1.434-.029-.257-.157-.327-.971-.365-1.109-.415a.883.883,0,0,0-.455,0c-.169.029-3.261.7-3.394.771s-.284.176-.288.339c0,.1.029.591.034.778.005.145-.093.158-.212.189s-1.672.474-1.791.5-.148-.01-.238-.071a12.491,12.491,0,0,0-1.384-.692.8.8,0,0,0-.455.09c-.11.05-.27.065-.129-.09a7.58,7.58,0,0,1,1.586-1.405,10.07,10.07,0,0,1,1.5-.551,7.907,7.907,0,0,0,1.56-.923,11.484,11.484,0,0,1,1.789-1.023,6.883,6.883,0,0,0,1.441-1.117,7.582,7.582,0,0,1,2.145-1.378c.489-.2.806-.172.787-.327-.022-.188-.262-.191-.52-.141a5.253,5.253,0,0,0-1.595.684,7.732,7.732,0,0,0-1.135.87c-.119.119-.217.029-.217-.04a.623.623,0,0,0-.188-.306c-.06-.029-.127-.036-.062-.169a9.208,9.208,0,0,1,.425-1.9,7.214,7.214,0,0,1,2.159-1.722c.208-.107.155-.319-.029-.277a4.725,4.725,0,0,0-1.14.613,11.135,11.135,0,0,0-1.29,1.045,2.873,2.873,0,0,0-.158.639,8.546,8.546,0,0,0-.214.871,4.148,4.148,0,0,0-.052.765c.012.107-.014.114-.1.1a2.02,2.02,0,0,1-.672-.3c-.076-.057-.079-.09-.034-.246a6.923,6.923,0,0,1,.832-1.849,10.7,10.7,0,0,1,1.255-1.436c.15-.136.026-.229-.11-.146a7.7,7.7,0,0,0-1.312,1.138,8.753,8.753,0,0,0-.833,2.085c-.022.162-.041.307-.212.2-.077-.048-.224-.155-.164-.265a.98.98,0,0,0,.207-.622,4.578,4.578,0,0,0-.177-.921c-.05-.3-.177-.7-.238-.7s-.167.169-.108.356a2.361,2.361,0,0,1,.069.93c-.059.258-.129.317-.274.215-.127-.091-.324-.3-.26-.453a8.958,8.958,0,0,1,.415-1.405,4.008,4.008,0,0,1,1.45-1.675,6.158,6.158,0,0,1,2.311-.768c.136.053.613.277.573.456s-.327.055-.5.059a7.6,7.6,0,0,0-1.668.57c-.441.219-.926.53-.885.8.034.214.456.238.673.119a12.45,12.45,0,0,1,1.369-.608,13.972,13.972,0,0,1,1.5-.451c.169-.029.336-.091.446-.029.179.1.653.623.475.713s-.248-.09-.4-.1-.565-.04-.565.109.3.238.417.238a.308.308,0,0,1,.246.09c.06.059.921.9,1.088,1.138a8.384,8.384,0,0,0,1.207,1.226,4.08,4.08,0,0,1,1.019,1.138,1.071,1.071,0,0,1-.04.682,2.365,2.365,0,0,0-.04,1c.079.227.138.971,0,1.05a1.854,1.854,0,0,1-.871.255c-.4.016-.566.272-.856.425a18.958,18.958,0,0,1-2.2.93m-.491,1.849c-.079-.105-1-1.007-1.062-1.068s-.014-.317-.014-.422.107-.133.238-.065a5.317,5.317,0,0,0,.742.251c.139.029.146.274.152.381.005.153.065.694.065.9,0,.158-.041.124-.121.019m-1.419-1.247c-.083.088-1.45.878-1.885,1.169a13.563,13.563,0,0,0-1.359.975c-.119.146-.158.191-.158.064,0-.17-.133-1.686-.119-1.791s-.024-.172.186-.189c.25-.021,1.169-.238,1.818-.37.554-.114,1.131-.227,1.407-.281.136-.026.167-.033.165.083s0,.277-.055.341m-.105,1.445c0,.172-.158.146-.212.119s-.007-.449-.026-.606c-.014-.105.145-.119.212-.079s.026.4.026.566m-.479.334c-.04.1-.17.086-.319,0-.234-.134-.439-.219-.377-.36.043-.1.176-.005.282.06s.444.226.413.3m-.286.577c-.093.04-.212-.105-.291-.184s-.105.145-.105.3-.238.158-.238.04a1.216,1.216,0,0,0-.105-.566c-.093-.107-.3-.04-.3.052a5.818,5.818,0,0,1-.124,1.293c-.093.139-.22.158-.3.053s.014-.238.093-.331a4.417,4.417,0,0,0,.069-1,.367.367,0,0,1,.172-.358c.093-.06.2-.033.365.055.2.1.7.327.818.394.081.048.04.212-.052.251m-1.7.634c-.065-.028-.369-.158-.355-.382.009-.152.289-.133.408.012s.014.4-.053.37m17.768,3.821a8.657,8.657,0,0,0-1.088-.5c-.122-.047-.31-.091-.27-.21a5.127,5.127,0,0,0,.121-1.329c-.038-.627-.319-.95-.687-1.033a1.415,1.415,0,0,0-1.016.107c-.126.06-.119-.04-.053-.119a.782.782,0,0,0,.3-.634,3.328,3.328,0,0,0-1.517-1.872,3.98,3.98,0,0,0-1.992-.766.6.6,0,0,0-.475.448,3.079,3.079,0,0,0-1.243.145,6.846,6.846,0,0,0-1.338,1.107c-.071.076-.047-.115-.236-.239a3.112,3.112,0,0,0-.783-.339c-.072-.019-.04-.4-.27-1.372a4.1,4.1,0,0,0-.53-1.217,5.412,5.412,0,0,1,1.46-.589,1.34,1.34,0,0,0,.844-.568c.158-.289-.093-.909-.119-1.186a3.5,3.5,0,0,0,.119-1.531,3.446,3.446,0,0,0-1.531-2,9,9,0,0,1-1.266-1.135.662.662,0,0,1-.238-.448,2.366,2.366,0,0,0-.673-1.241,6.375,6.375,0,0,0-1.285-.771c-.267-.239-.759-.3-.944-.489s-1.062-.988-1.6-1.457a5.223,5.223,0,0,0-2.047-.914,6.754,6.754,0,0,1-2.5-.906,6.519,6.519,0,0,0-2.085-.94c-.308-.045-.474-.048-.474.057s.25.277.236.382-.06.04-.121-.043a6.841,6.841,0,0,0-.787-.716,2.32,2.32,0,0,1-.427-.654c-.069-.141-.244-.048-.146.253.229.7,1.08,1.124,1.223,1.424a.353.353,0,0,1,0,.363,3.8,3.8,0,0,1-.561.567c-.1.048-.012-.17.038-.339a.26.26,0,0,0-.158-.325c-.1-.031-.139.2-.277.5a8.613,8.613,0,0,1-1.434,1.612c-.6.565-1.31.894-1.842,1.469a5.706,5.706,0,0,0-.878,1.193c-.069.2-.069.355.069.386s.728-.746,1.2-1.235c.4-.417,1.662-1.279,1.978-1.557s.723-.851.94-.978a12.555,12.555,0,0,0,1.613-1.445.873.873,0,0,0-.158-.486c-.069-.059.088-.1.356,0a6.966,6.966,0,0,1,1.489.935,4.292,4.292,0,0,0,1.586.718,14.407,14.407,0,0,1,2.316.653,6.692,6.692,0,0,1,.99.523c.143.108.217.158.157.229s-.265-.1-.394-.165-.226-.091-.258,0c-.024.067.145.176.281.289s.184.165.145.226-.336.034-.48-.062a4.311,4.311,0,0,0-1.231-.109c-.272.005-.79.1-.94.121s-.573.048-.561-.021a3.62,3.62,0,0,1,.735-.276c.172-.043.064-.229-.153-.179s-1.148.367-1.267.425-.127.386.11.377,2.967-.084,3.067-.079c.164.007.356.207.563.207a6.368,6.368,0,0,1,.969.031c.227.048.6.3.532.344s-1.064.327-1.619.567a3.9,3.9,0,0,0-1.822,1.7,3.951,3.951,0,0,0-.436,1.732c.041.307.446.672.554.771s.079.367.2.613a3.4,3.4,0,0,0,1,.792,2.393,2.393,0,0,0,.727.358c.165.031.332.245.214.315a6.707,6.707,0,0,0-.6.484c-.06.059-.11.059-.11.01s-.127-.188-.455-.238a4.2,4.2,0,0,0-1.019.1c-.177.021-.048-.177.01-.217s.04-.257-.019-.336a.245.245,0,0,0-.346-.11c-.2.1-.99.436-1.415.634A9.142,9.142,0,0,1,453,343.6c-.229.05-.387.189-.327.338s.148.177.444.059,1.959-.83,2.068-.909.238-.04.248,0-.217.188-.356.286-.079.327.029.456.486-.01.753-.15a3.151,3.151,0,0,1,1.147-.069c.129.01.15.139.04.2s-1.167.692-1.334.782-.436.079-1.593.563a9.448,9.448,0,0,0-4.226,3.711,11.522,11.522,0,0,0-1.226,4.63c-.11,1.21-.129,2.9-.129,3.037s.01.436.1.523a10.723,10.723,0,0,0,1.255.584c.208.079.3.04.327-.138a3.243,3.243,0,0,0-.386-1.405,1.341,1.341,0,0,0-.84-.7c-.108-.021-.124-.105-.124-.195s.017-.945.077-1.631a13.641,13.641,0,0,1,.253-1.775c.026-.117.145.047.346.048s.553-.326,1.049-.346a1.059,1.059,0,0,1,.98.386c.222.288.108.515.179.792s.246-.01.227-.059.356,0,.523.207a1.3,1.3,0,0,1,.238.613c.021.129.188.158.227,0a1.223,1.223,0,0,0-.306-.851,1.148,1.148,0,0,0-.673-.386c-.1,0,0-.152-.208-.484a1.4,1.4,0,0,0-1.216-.6,1.978,1.978,0,0,0-1.176.474c-.074.086-.146.117-.122-.069A8.469,8.469,0,0,1,449.72,350a5.494,5.494,0,0,1,.732-1.434.653.653,0,0,1,.436-.229,2,2,0,0,0,.6-.276.539.539,0,0,1,.594.148,6.872,6.872,0,0,0,.98.523c.177.079.277.515.336.6s.014.122-.105.213a2.5,2.5,0,0,0-.923,1.367,1.354,1.354,0,0,0,.095,1.15c.081.09.193.076.15-.083a1.99,1.99,0,0,1,.4-1.629,2.6,2.6,0,0,1,2.471-1.117c.885.115,1.359,1.136,1.477,1.235s.257.01.484-.157.642-.477.878-.641c.279-.195,1.16-.677,1.229-.706s.062.26.062.487c0,.291.136.668.143.892.007.17.033.362.141.362s.074-.391.069-.579c-.007-.26-.119-.568-.108-.7s-.05-.327.124-.222c.108.065.74.7.88.827.2.188.133.208.2.251.086.055.124-.219.119-.591a8.414,8.414,0,0,0-.072-1.021c-.024-.141-.01-.207.072-.258a4.83,4.83,0,0,1,1.617-.172,4.651,4.651,0,0,1,1.978.515c.117.06.148.117.048.236s-.584.7-.653.782-.119.14-.227.14-2.116.059-2.306.079-.108.188.11.217,4.649-.029,4.787-.029.189.119.229.217,1.078,2.4,1.345,3.027.94,2.533,1.009,2.781.455.04.386-.139-.534-1.434-.573-1.522a.227.227,0,0,1,.059-.227l.508-.627c.065-.079.136-.076.234-.076a6.364,6.364,0,0,1,1.128.761,1.44,1.44,0,0,1,.554.88c0,.317-.455.7-.5.771a.617.617,0,0,1-.248.158c-.088.04-1.157.575-1.295.673s-.079.2.148.108,3.423-1.582,4.1-1.9.811-.594.842-.8-.269-.534-.565-.653-.821-.356-.919-.377-.136-.046-.11-.148.055-.138.224-.067a5.908,5.908,0,0,1,1.479.78.683.683,0,0,1,.246.721.354.354,0,0,1-.143.244c-.362.2-1.724.89-2.815,1.388-.675.31-2.758,1.291-3.013,1.417a1.327,1.327,0,0,1-.443.121c-.091,0-2.994,1.161-3.64,1.4s-3.759,1.464-4.195,1.648a9.817,9.817,0,0,1-1.808.461c-.289.028-.408-.04-.2-.091s1.068-.251,1.582-.436a8.616,8.616,0,0,0,2.071-1.016c.062-.093.06-.143.031-.162.43.016.851.029.971.029.25,0,.238-.117.368-.236s2.915-1.267,3.285-1.372,1.042-.436,1.464-.554a1.831,1.831,0,0,0,.844-.566c.146-.158.277-.291-.012-.291s-5.91.382-6.056.382-.17-.052-.2-.238-.5-1.543-.659-2.044-1.553-4.217-1.662-4.393c-.184-.3-.343.2-.594.566a3.8,3.8,0,0,0-.711,1.477c.026.343.436.422.646.515s-.158.317-.17.713.79,1.252,1.2,1.965a3.788,3.788,0,0,1,.436,1.992c-.067.212-.344,1.438-.356,1.662s-.053.356.145.356c.1,0,.539.017.987.033a.234.234,0,0,0-.129.1,5.043,5.043,0,0,1-1.345.554c-.133,0-.158-.093-.158-.186s-.226-1.384-.238-1.557-.463-.193-.671-.351c-.313-.236-1.913-.857-2.374-1.081s-3.213-1.346-3.774-1.76c-.145-.105-.4,0-.527.04s-2.244.857-2.414.925-.224.119-.145.329a4.027,4.027,0,0,1,.105,1.161c-.04.172-.04.265.145.343s5.949,2.758,6.292,2.877.449,0,.489-.238a4.91,4.91,0,0,0-.119-.99c-.014-.105.012-.25.119-.263s2.13-.687,2.228-.725c.136-.053.282-.065.3.053s.179,1.252.219,1.41-.026.2-.158.25-1.755.41-1.965.449-.37.329-.41.382a5.1,5.1,0,0,1-1.042-.21c-.63-.164-13.686-6.194-13.934-6.283s-.325.108-.127.248,11.97,5.448,12.5,5.665a7.029,7.029,0,0,0,3.06.9,9.122,9.122,0,0,0,3.945-1.052c.821-.3,6.2-2.583,6.321-2.612s.139-.01.139.1-.021,1.276-.031,1.395-.572.374-.938.486c-.4.121-3.938,1.562-4.8,1.918a23.425,23.425,0,0,1-3.592,1.186,3.1,3.1,0,0,1-1.593-.059c-.553-.277-6.61-2.882-7.578-3.315-1.288-.575-7.132-3.215-7.359-3.315s-.346.158-.1.267,2.33,1.105,3.325,1.524c1.054.444,6.442,2.9,9.457,4.215.878.382,1.725.752,2.009.9a2.886,2.886,0,0,0,1.622.181,22.221,22.221,0,0,0,2.512-.761c.475-.169,1.495-.6,1.574-.644s.153-.043.124.065a2.572,2.572,0,0,1-.486.77c-.095.086-.162.288.005.313.124.019.387-.32.575-.577a1.339,1.339,0,0,0,.263-.634c0-.1.091-.145.152-.165s.108,0,.158.09a5.9,5.9,0,0,0,1.1.721c.238.1.169-.167.1-.267a6.483,6.483,0,0,0-.969-.623c-.06-.01-.129-.04.048-.119s4.363-1.76,4.492-1.839.217-.15.2-.219.01-.136.1-.186.821-.358.871-.377a.171.171,0,0,1,.158,0c.04.029.148.148.217.207s.188.139.248.079-.09-.267-.148-.306-.09-.129,0-.158,2.087-.969,2.185-1.009a.188.188,0,0,1,.238.04,2.121,2.121,0,0,0,.716.432c.248.059.269-.127.158-.191-.133-.078-.577-.324-.684-.381-.083-.045-.081-.107.036-.177s.673-.307.752-.355.546-.31.554-.238a.76.76,0,0,1-.079.444,1.732,1.732,0,0,0-.09.663c0,.1-.046.136-.127.217a4.985,4.985,0,0,0-.813,1.138c-.069.248.153.312.243.232s.5-.888.546-.968.122-.086.122.072-.158,3.384-.169,3.75a3.246,3.246,0,0,1-.663,1.918,20,20,0,0,1-3.2,2.168c-.544.267-1.326.632-1.87.92s-2.137.89-2.256.94-.148.029-.1-.06.544-.88.615-1-.119-.177-.248-.05a10.412,10.412,0,0,0-.682,1.119.493.493,0,0,1-.219.207c-.1.05-1.028.5-1.167.554a.379.379,0,0,1-.348-.033c-.444-.232-.8-.523-.959-.572-.188-.057-.334.071-.246.129s.921.525,1.038.573.05.11-.069.169-2.206.99-2.343,1.069-.3.134-.2-.024.937-1.334,1.143-1.636c.129-.186-.05-.279-.219-.083s-1.178,1.6-1.257,1.732a.879.879,0,0,1-.375.386c-.177.069-.613.217-.9.346a4.931,4.931,0,0,1-2.028-.148c-.346-.158-12.594-6.4-13.494-6.9s-7.557-3.936-8.21-4.441a1.9,1.9,0,0,1-.806-1.557c-.089-.653-.117-3.234-.155-3.855-.024-.436-.088-1.355-.088-1.455s.059-.108.188-.059,6.825,3.284,7.2,3.442.346-.208.079-.3-7.585-3.588-7.685-3.647a.318.318,0,0,1-.112-.291c0-.108.029-1.059.06-1.178s.3-.059.3.079.148.267.346.367,7.044,3.354,7.2,3.4.217.031.257-.04-.109-.2-.257-.386-.179-.375-.108-.436a1.52,1.52,0,0,0,.365-.632c.021-.208-.286-.494-.346-.515s-.09-.1-.09-.217-.127-.288-.177-.4.09-.219.138-.267.108-.062.148-.01c.133.17.575.594.694.8.045.079-.179.139-.248.227s.069.308.119.387.129.1.169-.05a1.886,1.886,0,0,1,.721-.653,2.513,2.513,0,0,1,1.286-.288,1.4,1.4,0,0,1,.761.623c.05.079.208-.05.169-.129s.133-.052.307.079a.772.772,0,0,1,.327.465c.026.1.2,0,.158-.158a1.319,1.319,0,0,0-.337-.6.777.777,0,0,0-.632-.2.127.127,0,0,1-.146-.045,1.257,1.257,0,0,0-.546-.394.972.972,0,0,0-.628-.007c-.124.045-.152-.043.016-.181s1.235-.957,1.443-1.136a.937.937,0,0,0,.286-.523c.024-.091.079-.091.16-.01a.616.616,0,0,1,.263.47.507.507,0,0,1-.036.322c-.053.088.014.181.158.217a.936.936,0,0,1,.455.238,4.171,4.171,0,0,1-.169,1.078c-.109.594-.239,1.91-.246,2.058-.007.124-.046.081-.238.06a1.109,1.109,0,0,0-.632.162c-.107.071-.117.059-.114-.031a2.021,2.021,0,0,0-.052-.782,1.614,1.614,0,0,0-1.031-1.061,1.57,1.57,0,0,0-1.15.139c-.119.079-.306.217-.257.286s.188.246.267.167a.962.962,0,0,1,.756-.258c.52.043.971.2,1.074.763a1.915,1.915,0,0,1-.227,1.09c-.09.167-.129.386-.04.455a10.26,10.26,0,0,0,1.88.751c0-.108.067-1.1.188-2.146a12.539,12.539,0,0,1,1.365-5.164,7.037,7.037,0,0,1,2.87-2.925,15.621,15.621,0,0,1,5.212-1.784c.188-.043.1-.14-.031-.14s-1.088.188-1.939.377a11.741,11.741,0,0,0-3.59,1.374,7.749,7.749,0,0,0-2.783,2.845,8.664,8.664,0,0,0-.978,2.261c-.04.127-.009.177-.088.108a.8.8,0,0,0-.281-.15c-.06-.01-.04-.279-.183-.51a1.419,1.419,0,0,0-.5-.443c-.029-.017.055-.105.065-.145s.238.069.336-.029.406-.406.406-.594a.4.4,0,0,0-.425-.386c-.277,0-.475.288-.554.425s-.119.079-.188.04-.267-.217-.248-.375a10.977,10.977,0,0,1,1.157-1.455c.11-.1.01-.167-.157-.1a5.838,5.838,0,0,0-.821.9,1.346,1.346,0,0,0-.3.444c-.029.129-.108-.019-.177-.169a.84.84,0,0,0-.864-.41c-.579.052-1.042.8-1.078,1.295a.792.792,0,0,0,.794.808.862.862,0,0,0,.852-.386c.069-.05.109-.169.1-.029a3.457,3.457,0,0,0,.019.425,1.389,1.389,0,0,0,.208.513c.05.071-.172.174-.227.229-.029.027-.122-.258-.413-.375a1.291,1.291,0,0,0-1.026.005,1.685,1.685,0,0,0-.525.491c-.033.034-.238-.126-.214-.176a1.843,1.843,0,0,0,.319-.954,1.01,1.01,0,0,0-1.037-.938,1.159,1.159,0,0,0-.646.2c-.108.059-.139-.059-.189-.165a4.2,4.2,0,0,0-.992-1.071,1.354,1.354,0,0,1-.422-1.059c.05-.536.377-.964.7-1,.2-.019.322.119.277.272-.031.11-.288.238-.367.306a.162.162,0,0,0,.11.275c.129.009.377.036.243.141-.072.057-.3.229-.367.3a.172.172,0,0,0,.005.253c.079.071.284.065.391.284.05.1.258.091.346.17s.045.525.045.634.177.189.207.021a2.763,2.763,0,0,0-.048-.792.52.52,0,0,0-.22-.115c-.045-.009-.141-.088-.2-.091s.005-.059.052-.105c.105-.105.553-.572.611-.62a.183.183,0,0,1,.2-.038,2.191,2.191,0,0,0,1.223-.138.958.958,0,0,0,.5-.563c.012-.065.062-.081.169.052s.685,1.109.765,1.226a4.944,4.944,0,0,0,.224.449.91.91,0,0,0,.5.224c.119.014.291.133.382.04s-.184-.264-.422-.264a.483.483,0,0,1-.408-.212c-.028-.052-.04-.17.052-.17a3.075,3.075,0,0,0,.766-.04c.119-.067.21-.224.382-.224a1.2,1.2,0,0,0,.554-.251.758.758,0,0,1,.422-.172,5.309,5.309,0,0,0,1.107-.145c.146-.079.4-.119.4-.25s-.487-.028-.62.052a1.305,1.305,0,0,1-.606.053,1.256,1.256,0,0,0-.7.17c-.093.093-.146.053-.2-.026s-.845-1.266-.923-1.4-.248-.077-.682-.1c-.556-.033-1.245-.16-1.443-.16s-.16.11-.356.277c-.134.115-2,1.992-2.07,2.058s-.107-.04-.028-.105.343-.317.436-.384-.026-.289-.184-.275.091-.088.121-.329a.6.6,0,0,0-.566-.594.786.786,0,0,0-.689.263c-.083.1-.145.026-.2-.04s-.289-.146-.554.131a.505.505,0,0,0-.079.673c.093.131.186.052.226,0s-.176-.315-.029-.475.332-.026.4-.014-.093.356-.119.806a1.665,1.665,0,0,0,.554,1.226,5.793,5.793,0,0,1,.814.753,1.568,1.568,0,0,1,.267.487,8.31,8.31,0,0,0,.954,1.107c.117.107.019.088-.105.165-.1.059-.1.017-.133-.017a9.134,9.134,0,0,1-1.045-1.295,5.9,5.9,0,0,0-.832-.79c-.105-.067-.213.026-.081.126a3.953,3.953,0,0,1,.861.861,8.822,8.822,0,0,0,1,1.2c.043.04-.093.124-.277.355a1.283,1.283,0,0,0-.224.554c-.014.171-.212.079-.277-.065a3.514,3.514,0,0,0-.475-.673,10.007,10.007,0,0,0-.909-.792c-.107-.079-.112-.25-.239-.393a1.688,1.688,0,0,0-1.266-.293,2.966,2.966,0,0,0-1.133.21c-.1.046-.093-.184-.317-.145s-.375-.2-.377-.436c0-.119-.09-.2-.255-.207s-.227-.181-.133-.26a1.134,1.134,0,0,1,.61-.176,4.472,4.472,0,0,1,.537.1c.133,0,.158-.263.277-.289s.036-.164-.2-.255a.534.534,0,0,1-.26-.618c.043-.157.212-.217.269-.274.095-.095.139-.146-.005-.319s-.539,0-.589.337a1.038,1.038,0,0,0,.207.837c.084.1-.263.112-.523.158-.307.055-.744.277-.77.515s.265.48.5.5c.16.009.114.105.179.329s.348.32.429.341c.048.012-.234.117-.463.288-.108.081-.055.186,0,.17.117-.033.324-.152.623-.262a4.063,4.063,0,0,1,1.865-.258c.274.017.482.081.307.215a3.079,3.079,0,0,1-1.31.551,4.842,4.842,0,0,1-1.384.088c-.239-.022-.289.129-.071.195a4.108,4.108,0,0,0,1.793-.048,2.227,2.227,0,0,0,1.2-.627c.04-.04.091-.053.105.052s.133.594.25,1.069a4.108,4.108,0,0,0,.315.833c.017.048-.312.184-.613.579-.072.1.136.26.246.145.236-.248.293-.107.422-.133s.126-.12.257-.2a1.805,1.805,0,0,1,.646-.233c.417-.069.808-.076.957.277.165.394-.844,1.148-.949,1.228s-.238.052-.582-.133-3.9-1.873-4.088-1.953-.172-.541-.186-.9-.184-.453-.482-.391c-.325.067-1.252.119-1.364.324a6.521,6.521,0,0,0-.148,1.376.644.644,0,0,0,.248.542c.093.065.064.153.071.246.043.554.04,3.8.146,5.29a2.189,2.189,0,0,0,1.279,2.158c.553.289,9.734,5.346,10.631,5.782s10.237,5.329,10.975,5.632a4.306,4.306,0,0,0,3.008-.17c.976-.436,3.483-1.615,4.349-2.013a52.046,52.046,0,0,0,5.24-2.393c1.925-1.088,3.39-1.913,3.957-2.757a4.8,4.8,0,0,0,.541-2.48c.067-.66.148-4.8.162-4.985.005-.074.31-.315.4-.381A.462.462,0,0,0,475,356c0-.1.007-.467.007-.894,0-.207.108-.494.095-.735a1.281,1.281,0,0,0-.749-1.052" transform="translate(-433.868 -319.214)" fill="#1a1311"/>
          <path id="Path_3112" data-name="Path 3112" d="M437.377,347.206c-.15.287-.344.4-.46.391-.065,0-.083-.012-.083-.062,0-.093.117-1.136.124-1.207s.26.009.379.215a.765.765,0,0,1,.04.663m.338.735a1.17,1.17,0,0,0,.489-.9,1.494,1.494,0,0,0-.565-1.414,2.488,2.488,0,0,0-1.078-.5c-.158-.026-.186-.007-.2.1-.021.157-.2,2.419-.248,2.81a3.182,3.182,0,0,0-.036.747c.108.079.577.375.591.32.036-.145.041-.332.076-.577.036-.26.046-.472.095-.389a3.308,3.308,0,0,1,.245.728c.114.422.108.51.217.5.129-.012.656-.033.639-.129a10.546,10.546,0,0,0-.22-1.047c-.059-.167-.059-.212-.005-.241" transform="translate(-432.282 -308.506)" fill="#1a1311"/>
          <path id="Path_3113" data-name="Path 3113" d="M453.74,346.514a.4.4,0,0,0-.2.369.234.234,0,0,0,.422.079c.141-.186-.064-.5-.22-.448" transform="translate(-419.669 -307.495)" fill="#1a1311"/>
          <path id="Path_3114" data-name="Path 3114" d="M453.606,347.461c.1.053.281-.093.375-.22s.036-.307-.088-.269c-.107.034-.387.436-.288.489" transform="translate(-419.635 -307.164)" fill="#1a1311"/>
          <path id="Path_3115" data-name="Path 3115" d="M442.322,329.051c-.014.039-.172.382-.212.382s-.224.093-.131-.105.317-.461.317-.422a1,1,0,0,0,.026.145" transform="translate(-428.032 -320.205)" fill="#1a1311"/>
        </g>
      </g>
    </g>
    <g id="Group_214" data-name="Group 214" transform="translate(42.52 189.796)">
      <g id="Group_213" data-name="Group 213" clip-path="url(#clip-path)">
        <text id="All_buyers_get_1_drink_from_each_source" data-name="All buyers get + 1
drink from each source" transform="translate(75.293 186.527)" fill="#1a1311" font-size="8" font-family="AveriaSerifLibre-Regular, Averia Serif Libre"><tspan x="-31.121" y="0">All buyers get + 1</tspan><tspan x="-42.381" y="10">drink from each source</tspan></text>
        <text id="First_errand_boy_played" data-name="First errand
boy played" transform="translate(75.468 94.791)" fill="#1a1311" font-size="15" font-family="VTCSuperMarketSale"><tspan x="-37.118" y="0">First errand</tspan><tspan x="-31.612" y="18">boy played</tspan></text>
        <path id="Path_593" data-name="Path 593" d="M61.212,213a52.911,52.911,0,0,0,9.057.281,50.614,50.614,0,0,0,8.026-1.112c1.394-.322,8.187-1.649,11.662-2.7.5-.149,5.911-1.479,8.153-2.088,4.893-1.332,9.873-2.38,14.778-3.62,2.277-.575,4.542-1.078,6.846-1.547a69.368,69.368,0,0,1,11.281-1.417,29.234,29.234,0,0,1,14.956,3.569,17.557,17.557,0,0,1,3.372,2.312,32.313,32.313,0,0,1,2.566,2.727c.408.445.951-.034.625-.447-.4-.5-.83-.984-1.259-1.466a15.178,15.178,0,0,0-2.124-2.114,39.436,39.436,0,0,0-4.738-3.277,27.9,27.9,0,0,0-7.921-2.7c-9.273-1.892-18.848-.716-27.811,1.95-2.3.684-4.581,1.46-6.889,2.033a35.225,35.225,0,0,0-3.431,1.093c-.484.228-5.991,1.909-6.682,2.118q-2.077.633-4.168,1.229c-1.469.42-2.954.788-4.432,1.178-.593.158-1.239.294-1.836.479-1.239.386-2.471.535-3.7.9a29.374,29.374,0,0,1-3.429.727,69.537,69.537,0,0,1-7.373,1.055,19.609,19.609,0,0,1-6.54-.46c-2.322-.69-4.467-2-5.236-4.3-.819-2.452,1.98-4.434,4.152-5.071a18.373,18.373,0,0,1,8.167-.136c.979.173,3.014.852,2.817,2.084-.1.6-.577.831-1.113,1.087-.4.194-.963.5-.591,1,.589.784,2.628.3,3.456.264,1.2-.055,2.434-.251,3.65-.394a44.67,44.67,0,0,0,8.254-2.039c1.643-.524,3.258-1.117,4.907-1.63,2.195-.684,4.378-1.364,6.577-2.037,1.462-.447,2.979-.663,4.433-1.131.36.006,1.2-.2.963-.718-.157-.341-.94-.279-1.236-.258a34.062,34.062,0,0,0-8.062,1.523c-2.133.695-3.7,1.389-5.489,2.069q-1.82.7-3.643,1.389c-1.074.409-2.224.637-3.29,1.036-.561.209-2.881.776-3.319.865a21.662,21.662,0,0,1-3.223.4c-.6.026-1.175-.026-1.28-.3-.217-.571.265-1.048.265-1.57a5.119,5.119,0,0,0-.084-1.46,5.254,5.254,0,0,0-2.074-2.612c-1.6-1.287-4.362-1.628-6.378-1.483-4.61.286-9.444,2.862-9.563,7.581a7.049,7.049,0,0,0,1.225,3.313A9.514,9.514,0,0,0,55.8,210.6,9.637,9.637,0,0,0,61.212,213" transform="translate(-28.766 -180.251)" fill="#1a1311"/>
        <path id="Path_594" data-name="Path 594" d="M151.651,217.795a8.573,8.573,0,0,0-.792-1.6c-.121-.192-.614-.829-.787-1.031a10.577,10.577,0,0,0-3.057-2.039,9.71,9.71,0,0,0-3.121-.955,27.907,27.907,0,0,0-6.1-.3c-2.076.16-4.341.475-5.258.607-2.14.309-8.1,1.57-9.349,1.864-1.41.332-2.842.59-4.245.942-.678.17-1.289.322-1.985.46-.545.107-3.741.95-4.791,1.151-1.246.236-4.61,1.134-5.1,1.217-.525.092-.992.283-1.526.4-1.079.226-4.17,1.033-4.585,1.144-1.143.3-2.306.575-3.438.916-.315-.015-2.642.658-3.178.805-1.189.326-7.321,1.72-9.2,2.105a46.784,46.784,0,0,1-9.447,1.18c-1.49,0-2.982-.045-4.46-.072-.271-.006-3.023-.347-4.334-.631-.577-.126-1.225-.245-1.814-.394s-.712-.17-1.773-.5a56.177,56.177,0,0,1-5.605-2.681,16.639,16.639,0,0,1-2.742-2.135l-.509-.5c-.436-.441-.477.262-.3.533a11.063,11.063,0,0,0,2.514,2.636,17.1,17.1,0,0,0,2.975,2.141,35.8,35.8,0,0,0,3.9,1.8,50.7,50.7,0,0,0,8.689,2.167,39.731,39.731,0,0,0,7.9.268,52.081,52.081,0,0,0,6.5-.6c1.645-.294,3.16-.569,4.77-.993.358-.094,5.067-1.383,6.118-1.724,3.6-1.168,12.526-3.908,14.979-4.649,1.957-.59,3.876-1.253,5.856-1.777,2.128-.562,4.248-1.057,6.346-1.666.659-.192,2.8-.718,3.217-.8a88.451,88.451,0,0,1,11.806-1.952,13.947,13.947,0,0,1,7.04,1.161,6.176,6.176,0,0,1,2.509,1.994,3.731,3.731,0,0,1,.6,1.634,5.1,5.1,0,0,1,.025,1.685c-.176,2.124-3.26,3.663-5.881,4.08a15.075,15.075,0,0,1-5.014-.309c-.944-.179-2.662-.594-3.31-1.568-.536-.8-.881-1.788.094-2.568.379-.3,1.043-.132,1.248-.686.182-.492-.582-.571-.876-.552l-1.7.126a38.345,38.345,0,0,0-6.15,1.108c-1.487.358-2.991.724-4.455,1.159-.933.277-4.049,1.144-6.842,2.092-1.227.418-2.487.884-3.718,1.289-2.192.722-4.458,1.259-6.716,1.847-1.289.335-2.7.2-3.967.6-1.506.471,1.608.918,2.042.923a27.182,27.182,0,0,0,8.046-1.338c1.1-.328,2.163-.656,3.255-.989,1.223-.373,6.691-2.2,8.1-2.815,1.3-.569,2.683-.9,4.02-1.374,1.389-.492,5.5-1.381,6-1.632.57-.286.269.426.089.6a2.627,2.627,0,0,0-.306,3.134,6.619,6.619,0,0,0,2.227,2.512,12.6,12.6,0,0,0,5.347,1.862,11.464,11.464,0,0,0,6.2-.835,7.551,7.551,0,0,0,4.109-4.732,6.071,6.071,0,0,0-.091-3.739" transform="translate(-27.733 -164.903)" fill="#1a1311"/>
        <path id="Path_595" data-name="Path 595" d="M140.678,209.263l.089.234.062.177.087.121.132.066a.42.42,0,0,0,.577-.2,1.611,1.611,0,0,0,.185-.556l.036-.411.052-.4.021-.181-.023-.183c-.039-.356-.233-.484-.586-.381l-.214.092-.281.313-.31.283c-.292.038-.579.064-.865.079s-.575.028-.865.036l-.4,0-.2-.083-.084-.179-.071-.309.009-.224c.043-.392.073-.784.094-1.174s.034-.784.048-1.176l.036-.349.1-.179.205-.064.36-.017.073,0a7.49,7.49,0,0,0,1.576-.034,5.349,5.349,0,0,1,.9-.036c.3.015.6.03.913.049l.148.032.08.087.048.1-.1.467.027.469a.4.4,0,0,0,.591.285l.183-.051.18-.064.2-.128.082-.2c.009-.262.011-.518,0-.771s-.014-.509-.025-.771l-.014-.07-.244-.26-.187-.047-.2-.006-.468.028-.479.013q-1.786-.054-3.543.06a8.051,8.051,0,0,1-1.262,0,5.074,5.074,0,0,0-.824-.011c-.271.019-.548.045-.828.072l-.262.245-.052.207c0,.29.167.473.5.55a.334.334,0,0,1,.317.36,5.281,5.281,0,0,0,.016,1.247l.014.288-.018.3q-.017.841-.043,1.66a14.725,14.725,0,0,0,.032,1.647l-.016.435-.048.516.055.52a5.734,5.734,0,0,1,.089.684,2.832,2.832,0,0,1-.032.693l-.3.313-.233.041-.235.043-.189.049-.189.051-.139.121-.036.166.014.085.039.141.041.143.214.264.342.075.543-.053.554-.011.2,0,.2-.028a10.473,10.473,0,0,1,1.2-.117c.4-.015.81-.026,1.23-.032q.811-.016,1.613,0c.536.013,1.072.021,1.613.03l.4-.023.388-.094.326-.367q.027-.364.041-.735l.027-.735-.011-.141-.091-.164-.169-.081h-.2l-.187.015-.386.241-.16.3-.071.326-.1.271-.29.124-.157.032-.16.015q-.39.016-.78.026c-.26.006-.525,0-.794,0l-.586,0-.586.053-.347.023-.358-.017-.132-.062-.071-.128-.014-.07-.011-.07-.011-.554-.071-.556-.03-.4-.016-.415-.018-.546-.064-.55-.009-.337.034-.32.048-.089.091-.075.376-.045.322.017.31-.026a3.031,3.031,0,0,1,.721-.034c.24.017.488.023.748.023m-11.32.364-.025.058-.057.021-.233-.243.066-.119.03,0,.014.006.016,0,.137.107Zm2.347-1.719.016,0,0,.162,0,.149a7.7,7.7,0,0,0,.039.891c.032.292.068.586.114.882l.064.4.034.4.007.07-.025.072-.011.03-.03.017-.073.009-.271-.254-.267-.239-.208-.209-.219-.209-.522-.458-.436-.524-.182-.213-.185-.213-.226-.286-.217-.315c-.125-.183-.251-.373-.379-.565s-.253-.381-.379-.565c-.194-.262-.386-.524-.579-.784s-.386-.526-.579-.8l-.084-.119-.114-.1-.233-.173-.192-.217-.155-.139-.224-.062c-.2-.015-.408-.036-.62-.066a1.012,1.012,0,0,0-.636.132l-.219.06-.253.034-.415.058-.417.06-.249.239-.075.347.043.085.075.07.114.03.114.015.379.038.183.092.075.19.05.326.023.175.007.175.055.531.066.528a6.82,6.82,0,0,1,.116.818c.025.279.043.554.057.827q.014.7.073,1.372c.025.3.052.6.084.893s.062.6.1.893l.021.315.048.311a4.851,4.851,0,0,1,.046.616c0,.2,0,.4,0,.605l-.24.352-.155.045-.1.081L124.3,215l-.221.2-.048.062-.016.072-.007.1.023.089.326.2.367.009c.265-.064.532-.119.8-.162s.529-.087.785-.134l.228-.068.21-.092.094-.124,0-.128-.114-.268-.251-.128a.337.337,0,0,1-.356-.3l-.064-.394-.05-.4q-.086-.668-.135-1.319t-.151-1.315c-.048-.324-.1-.643-.167-.957a4.2,4.2,0,0,1-.075-.963l0-.064-.014-.077-.078-.541-.062-.543a2.788,2.788,0,0,1,.112-.984l.05-.034.068.006.322.249.235.3a13.186,13.186,0,0,1,.9,1.144,8,8,0,0,0,.938,1.11l.13.134.1.151a13.293,13.293,0,0,0,1.214,1.532l.1.109.084.111.383.522.37.524a8.066,8.066,0,0,0,.716.916c.26.288.538.565.833.835l.365.241.438.023.194-.028.194-.028.185-.111.087-.215v-.092l0-.119c-.043-.268-.075-.539-.094-.814s-.025-.55-.018-.822l-.021-.428-.066-.422c-.082-.349-.146-.7-.2-1.065a9.554,9.554,0,0,1-.091-1.076c-.014-.271-.032-.543-.057-.818s-.057-.55-.1-.827l-.039-.356-.023-.358-.023-.371-.025-.356,0-.2.011-.219.03-.539-.048-.545.121-.168.146-.051.148-.036.356-.124.178-.315.087-.207-.048-.121-.121-.085-.151-.019-.153,0a6,6,0,0,0-.723.064,3.063,3.063,0,0,1-.725.021l-.324.085-.235.243-.068.17.036.173.121.17a.636.636,0,0,1,.267.492l.048.36.043.349q.031.531.062,1.042c.018.343.036.686.057,1.031m-16.081,5.406-.025-.188-.037-.158a2.078,2.078,0,0,1-.132-.646c-.011-.217-.021-.435-.03-.654l-.023-.5-.078-.471a1.783,1.783,0,0,1-.034-.631q.041-.316.089-.626l.03-.107.032-.107.123-.541.194-.556.292-.452.34-.45.089-.117.094-.092.164-.119.167-.1.543-.268a1.72,1.72,0,0,1,.611-.094l.44.017.427.051a1.264,1.264,0,0,1,.8.482l.292.428.292.428.13.245.1.239c.084.249.157.494.221.735s.135.482.219.722a2.741,2.741,0,0,1,.141,1.161l-.011.254.032.23a2.494,2.494,0,0,1,.052.727q-.024.371-.048.748l-.059.456-.1.45a3.753,3.753,0,0,1-1.268,2.077l-.253.181-.262.124a3.26,3.26,0,0,1-.721.175,2.258,2.258,0,0,1-.719-.026l-.566-.173-.445-.4-.308-.482-.308-.5-.2-.381-.135-.317-.082-.335Zm7.248-2.84-.1-.754a6.363,6.363,0,0,0-.306-.876c-.125-.286-.251-.562-.379-.833a5.533,5.533,0,0,0-.356-.631c-.125-.194-.258-.386-.395-.58l-.258-.292-.283-.258-.308-.217-.333-.183-.335-.132-.5-.128-.557-.053-.547.011-.461.045-.139.028-.153.045-.582.2-.593.234-.233.1-.23.132a2.2,2.2,0,0,0-.611.433l-.525.513a2.736,2.736,0,0,0-.6.8c-.141.292-.287.586-.436.884-.068.311-.141.618-.214.925a4.343,4.343,0,0,0-.119.948c.009.217.021.437.036.658a2.916,2.916,0,0,1-.036.673l.014.213c.043.249.087.5.13.739a2.1,2.1,0,0,0,.26.7l.2.447a4.242,4.242,0,0,0,.436.886,5.826,5.826,0,0,0,.618.778,4.9,4.9,0,0,0,.746.607,2.237,2.237,0,0,0,.919.345l.064.021.062.023a4.04,4.04,0,0,0,.735.132,3.485,3.485,0,0,0,.771-.021l.538-.087.532-.128a2.588,2.588,0,0,0,.757-.3l.575-.369.6-.341.235-.149.214-.2.363-.375.176-.2.119-.232c.039-.092.1-.245.194-.454l.018-.032.018-.032a2.37,2.37,0,0,0,.242-.609,2.694,2.694,0,0,0,.073-.631q0-.329-.007-.665a5.474,5.474,0,0,1,.021-.669l.009-.554Zm-11.014-1.579.271.1.283-.075a.507.507,0,0,0,.258-.539l-.132-.678a.676.676,0,0,0-.4-.582l-.235-.075-.237,0-.4.1-.39.066a6.243,6.243,0,0,0-1.282.364l-.57.194-.591.083-.319.077a4.112,4.112,0,0,1-.906.273c-.3.053-.614.1-.933.124-.278.028-.559.051-.837.07a2.519,2.519,0,0,0-.814.194l-.185.03-.155.021-.484.1-.479.107-.47.315-.08.222c.034.271.078.537.135.8s.119.522.192.784l.219.194h.358l.319-.192.05-.1.016-.1-.043-.309-.059-.3.055-.143.121-.117c.3-.081.6-.158.906-.23s.611-.151.919-.234l.087-.021.363.217.16.467.162.482.08.249.023.277.046.3.057.3a5.152,5.152,0,0,0,.228.893,5.1,5.1,0,0,1,.228.893c.05.258.1.509.162.754a3.94,3.94,0,0,0,.249.722,1.888,1.888,0,0,1,.116.522c.084.422.164.84.244,1.249s.157.829.23,1.253l-.007.075-.009.075-.039.147-.123.109a5.124,5.124,0,0,0-.632.194l-.164.243.066.309.249.136.29-.028.271-.049c.463-.13.922-.251,1.38-.367a8.409,8.409,0,0,1,1.408-.228l.447-.209.162-.183.162-.183.034-.254-.212-.181-.324-.023-.31.117-.212.081-.212-.066-.123-.245c-.05-.209-.1-.415-.137-.618s-.082-.4-.132-.605c-.089-.354-.176-.712-.256-1.072s-.169-.729-.262-1.1c-.128-.558-.256-1.117-.381-1.679s-.253-1.123-.381-1.681c-.043-.211-.078-.418-.107-.618s-.059-.407-.091-.62l-.025-.175v-.2l.242-.39.256-.126.262-.1c.308-.083.614-.158.915-.226s.607-.136.915-.211l.363.217.1.322Zm-10.026,1.579-.1-.509-.114-.226-.208-.16H101.2l-.157.09-.121.2-.116.209-.194.1-.228-.009-.237-.036a3.839,3.839,0,0,0-.874-.068,7.828,7.828,0,0,0-.89.079,5.119,5.119,0,0,0-1.2.339,3.423,3.423,0,0,0-1.052.705l-.367.445a1.514,1.514,0,0,0-.212.537,4.028,4.028,0,0,0-.071,1.038,4.685,4.685,0,0,0,.18,1.006l.137.3.205.268.13.119.135.134a3.526,3.526,0,0,0,.8.6,3.042,3.042,0,0,0,.958.33q.524.118,1.04.224a10.55,10.55,0,0,0,1.061.16l.486.107.454.185.2.1.212.1.424.373a2.521,2.521,0,0,1,.344,1.928,1.2,1.2,0,0,1-.319.571,2.019,2.019,0,0,1-.543.364l-.29.107-.315.07-.3.036-.315-.015c-.34-.072-.666-.16-.981-.26a2.351,2.351,0,0,1-.862-.507,1.918,1.918,0,0,0-.73-.371l-.235.043-.167.158-.039.066-.009.075a4.631,4.631,0,0,0-.055,1.006,7.843,7.843,0,0,0,.11.993l.1.194a.349.349,0,0,0,.447.179.879.879,0,0,0,.433-.2.681.681,0,0,0,.128-.415l0-.251-.009-.266.059-.087.116-.028.21.064a4.445,4.445,0,0,0,2.772.307l.109-.019.107-.034a5.534,5.534,0,0,0,.8-.407,3.416,3.416,0,0,0,.707-.571l.276-.335.16-.379.123-.362.2-.541-.057-.552-.057-.275a2.143,2.143,0,0,0-.173-.594l-.281-.533-.351-.486-.39-.469-.089-.066-.089-.064a3.6,3.6,0,0,0-1-.573c-.363-.139-.723-.286-1.077-.439l-.112-.023-.112-.023-.386-.058-.372-.077c-.253-.045-.5-.092-.751-.141a3.049,3.049,0,0,1-.712-.239l-.128-.07-.1-.1a2.145,2.145,0,0,1-.395-.707,2.631,2.631,0,0,1-.1-.793,1,1,0,0,1,.536-.884l.573-.256a3.525,3.525,0,0,1,.8-.13c.267-.013.532-.013.8,0l.36.128.447.326.386.4.24.175.306-.032.251-.264.03-.187.016-.185-.05-.328Zm-10.539,7.138.135.209.1.158.107.1.144.032a.43.43,0,0,0,.516-.343,1.662,1.662,0,0,0,.064-.588l-.048-.413-.032-.4-.018-.183L92.2,216q-.164-.511-.648-.232l-.187.141-.208.377-.242.356q-.411.16-.821.288c-.271.083-.547.166-.828.245l-.39.1-.212-.032-.116-.153-.135-.288-.036-.222c-.039-.394-.089-.786-.153-1.176s-.125-.778-.194-1.166l-.039-.352.057-.2.185-.113.347-.1.073-.017a7.345,7.345,0,0,0,1.517-.418,5.328,5.328,0,0,1,.865-.256c.294-.06.591-.117.894-.175l.151,0,.1.066.068.087-.009.482.125.456a.383.383,0,0,0,.63.134l.167-.094.162-.107.167-.175.039-.215c-.046-.26-.1-.511-.155-.759s-.119-.5-.183-.75l-.027-.066-.29-.2-.192,0-.2.045-.445.141-.463.13q-1.735.38-3.415.92a8.22,8.22,0,0,1-1.218.311,4.74,4.74,0,0,0-.8.19c-.258.085-.52.177-.787.273l-.205.3-.007.217c.059.283.26.422.6.413a.321.321,0,0,1,.381.277,5.272,5.272,0,0,0,.271,1.221l.073.279.043.3c.107.552.205,1.1.3,1.639a15.683,15.683,0,0,0,.372,1.609l.073.43.062.52.162.5a6.263,6.263,0,0,1,.226.648,2.983,2.983,0,0,1,.112.688l-.224.379-.217.1-.219.1-.171.1-.173.094-.109.153v.175l.027.079.068.13.068.128.262.209.347-.011.513-.185.536-.147.189-.047.183-.077a10.544,10.544,0,0,1,1.141-.409q.578-.169,1.186-.33.78-.214,1.56-.394c.52-.117,1.04-.239,1.565-.364l.381-.119.354-.185.242-.441c-.032-.243-.068-.486-.112-.731s-.084-.488-.125-.727l-.039-.136-.123-.138-.18-.038-.2.049-.178.062-.322.328-.1.33v.339l-.041.29-.256.192-.146.068-.151.055c-.251.072-.5.145-.751.213s-.506.134-.771.192l-.566.139-.557.194-.331.109-.351.068-.141-.026-.094-.109-.027-.066-.027-.066-.123-.541-.183-.528-.112-.386-.1-.4-.13-.533-.176-.524-.078-.328-.034-.322.027-.1.075-.1.356-.136.315-.062.292-.1a3.251,3.251,0,0,1,.691-.209c.235-.04.479-.094.73-.16m-13.076.264,0-.043.032.023Zm7.234,5.163-.041-.518L85.4,222.4l-.036-.087-.189-.335-.274-.241-.376-.006-.192.139-.1.2-.068.5-.068.482a.5.5,0,0,1-.415.452l-.18.066-.185.038-1.49.341c-.49.113-.988.226-1.487.339l-.148.019c-.258.034-.422.019-.493-.047a.674.674,0,0,1-.141-.392l-.014-.19.016-.177a3.688,3.688,0,0,0-.066-1.159c-.084-.371-.155-.746-.214-1.125a2.126,2.126,0,0,1-.144-.7,4.384,4.384,0,0,1,.034-.727l.011-.439-.109-.439-.046-.2-.03-.215a3.149,3.149,0,0,1-.014-.654c.018-.215.03-.43.032-.65,0-.3-.011-.6-.023-.895s-.021-.592-.025-.895l.235-.286.381-.1.363-.153.162-.247-.155-.249-.3-.072-.285-.077a2.212,2.212,0,0,0-1.1-.038l-.317.064-.317.077c-.226.049-.456.1-.691.164s-.472.109-.707.151l-.379.247-.155.43.123.224.246.1h.2l.2-.026.123.068.073.147.018.06.007.077a3.02,3.02,0,0,0,.025.825,3.543,3.543,0,0,1,.041.822l.011.147.041.143a3.7,3.7,0,0,1,.121.8c.011.273.011.545,0,.82,0,.247,0,.488.009.729a5.489,5.489,0,0,0,.071.7,7.279,7.279,0,0,0,.151.886c.066.292.121.588.164.882s.073.556.094.837.05.569.082.865l-.055.177-.164.094-.317.077-.315.079-.253.224-.078.356.08.166.151.1.157.015.171-.015c.415-.075.833-.139,1.252-.2a7.225,7.225,0,0,0,1.246-.277l.317-.07.319-.043c.415-.075.821-.141,1.223-.2s.808-.119,1.223-.183l.235-.047.251-.075a6.816,6.816,0,0,1,.737-.17,3.494,3.494,0,0,1,.746-.043l.319-.034.315-.092.322-.2.116-.349-.018-.337-.034-.335Zm-14.306,1.617-.217.045-.187.03-.386.213-.205.366v.092l.075.09.258.139.481.058.465.1.246-.081.246-.079.187-.051.187-.008.6.006.6-.034c.3.026.431-.126.4-.452a.386.386,0,0,0-.365-.388l-.189-.013-.187-.013-.183-.179-.021-.428-.094-.411-.025-.175,0-.175-.025-2.031-.027-.435-.027-.42,0-.349c0-.337-.007-.675,0-1.016s0-.682.009-1.029.011-.673.016-1.014a5.858,5.858,0,0,1,.107-1l.021-.224.066-.2.214-.094.278-.011.135-.043.208-.2,0-.337-.221-.341-.383-.032a4.411,4.411,0,0,1-1.706.188,5.624,5.624,0,0,0-.675-.034.435.435,0,0,0-.5.411l.032.209.151.138.151.04.151.041.212.181.055.209.025.209.03.554v.554c-.016.354-.032.71-.046,1.063s-.027.71-.032,1.065l0,.511.043.524.034.322-.009.309c-.018.243-.025.482-.023.714a4.507,4.507,0,0,0,.068.7l.018.239.018.251.007.526.023.524,0,.315Zm-3.226-8.828.2-.117.187-.119.317-.379-.036-.273-.214-.151c-.374-.038-.748-.081-1.118-.128s-.741-.085-1.118-.115a.784.784,0,0,0-.862.439l-.084.2-.146.286-.132.288c-.144.277-.281.55-.413.818s-.256.541-.367.814l-.141.288-.183.277a3.17,3.17,0,0,0-.42.624,7.135,7.135,0,0,0-.308.69,9.757,9.757,0,0,1-.42,1q-.236.489-.5.965l-.057.023-.068.008-.052-.055-.043-.145-.041-.145c-.027-.281-.064-.558-.112-.831a4.754,4.754,0,0,0-.217-.812l-.078-.36-.075-.375c-.1-.46-.187-.923-.246-1.383s-.132-.92-.219-1.379q-.092-.607-.178-1.2c-.057-.394-.1-.79-.135-1.189l-.109-.288-.237-.2-.36-.13q-.613-.141-1.2-.268t-1.186-.249l-.3-.019-.342.232-.016.241.1.2.169.158.185.16.125.326c-.023.273-.041.543-.052.814a3.7,3.7,0,0,0,.052.82l-.009.185-.021.181c-.048.392-.094.784-.141,1.176s-.1.782-.155,1.172c-.032.271-.075.537-.125.8a6.622,6.622,0,0,0-.109.788c-.043.354-.078.7-.1,1.046s-.055.684-.084,1.023l-.055.326-.125.3-.089.117-.128.068-.536.141-.538.168-.073.115.027.149.171.143.2.162a1.211,1.211,0,0,0,.776.275l.511.053.484.034.178.03.151,0,.214-.036.167-.145-.11-.467-.224-.324-.007-.369.064-.352.066-.367q.154-.786.269-1.558a8.842,8.842,0,0,0,.091-1.581l0-.107v-.124c.05-.42.1-.833.151-1.244s.107-.825.178-1.24l.1-.307.1-.3.048-.032.071.03.1.192.055.228q.133.642.276,1.274c.094.422.187.842.276,1.261.094.381.173.767.237,1.153s.132.771.205,1.159c.041.249.082.5.123.744s.089.49.151.733.109.475.171.71.123.469.185.712l.05.138.05.139.214.217.388.087.383,0,.1-.136.114-.134a1.565,1.565,0,0,0,.452-.524,4.494,4.494,0,0,0,.271-.633,8.927,8.927,0,0,1,.463-1.168,8.41,8.41,0,0,1,.632-1.089l.251-.392.18-.437c.073-.194.141-.388.2-.582a1.066,1.066,0,0,1,.344-.494l.023-.068.039-.064.433-.987.235-.454.29-.413.043-.055.059-.053.03-.006.032-.009.1.136.011.354-.05.354a4.526,4.526,0,0,1-.025.827l-.1.812c-.048.392-.1.782-.148,1.168s-.1.773-.162,1.163c-.046.307-.091.609-.132.912s-.084.607-.13.912l-.048.207-.048.219-.027.215-.041.215-.011.226-.1.224-.164.009-.182.019-.233.111-.164.181-.016.4.315.251.274.034.26.017.237.028.235.04a4.645,4.645,0,0,0,.837.151,4.676,4.676,0,0,1,.837.149l.306-.181-.064-.343-.324-.237-.367-.134-.155-.132v-.185a.972.972,0,0,0,.109-.552,3.586,3.586,0,0,1-.018-.714c.016-.23.046-.465.084-.705.055-.3.1-.586.125-.871s.052-.58.068-.882c.016-.207.036-.413.066-.616a3.685,3.685,0,0,1,.141-.6c.057-.237.1-.475.146-.716s.078-.482.116-.722c.062-.349.13-.7.208-1.046s.155-.69.235-1.027" transform="translate(-26.309 -174.133)" fill="#1a1311"/>
      </g>
    </g>
  </g>
</svg>
