<svg id="Group_589" data-name="Group 589" xmlns="http://www.w3.org/2000/svg" width="12.704" height="33.74" viewBox="0 0 12.704 33.74">
  <path id="Path_552" data-name="Path 552" d="M61.148,646.5a6.878,6.878,0,0,1-.008-3.52c.215-.822,1.076-2.4.662-6.955a21.725,21.725,0,0,0-2.1-5.962c-1.231-2.07-1.143-6.814-1.019-6.933a2.385,2.385,0,0,0,.134-2.161,6.267,6.267,0,0,0-2.283-.209c-.19,0-.432,0-.7,0s-.51,0-.7,0a6.261,6.261,0,0,0-2.282.209,2.384,2.384,0,0,0,.133,2.161c.124.12.212,4.863-1.019,6.933a21.725,21.725,0,0,0-2.1,5.962c-.414,4.554.447,6.133.662,6.955a6.878,6.878,0,0,1-.008,3.52c-.162.519-1.314,4.119-.98,6.117a2.371,2.371,0,0,0,2.35,1.858l.043.023h7.8l.044-.023a2.372,2.372,0,0,0,2.35-1.858c.333-2-.819-5.6-.981-6.117" transform="translate(-49.485 -620.764)" fill="#9d0012"/>
</svg>
