<svg id="Group_590" data-name="Group 590" xmlns="http://www.w3.org/2000/svg" width="30.672" height="19.914" viewBox="0 0 30.672 19.914">
  <path id="Path_553" data-name="Path 553" d="M151.795,747.524c-.611-5.285-6.279-9.464-13.134-9.464s-12.524,4.178-13.134,9.464a2.457,2.457,0,0,0-2.2,2.436v.021a2.456,2.456,0,0,0,2.237,2.437v.842a4.728,4.728,0,0,0,4.714,4.714h16.77a4.728,4.728,0,0,0,4.714-4.714v-.842A2.455,2.455,0,0,0,154,749.98v-.021a2.456,2.456,0,0,0-2.2-2.436" transform="translate(-123.324 -738.06)" fill="#8c5a1b"/>
</svg>
