<svg id="Group_588" data-name="Group 588" xmlns="http://www.w3.org/2000/svg" width="12.843" height="33.74" viewBox="0 0 12.843 33.74">
  <path id="Path_551" data-name="Path 551" d="M154.066,652.035q.006-1.741,0-3.481l.009-.012-.006-6.6h0c0-.915,0-1.83,0-2.745a7.1,7.1,0,0,0-.431-3.385,16.2,16.2,0,0,0-1.018-1.68h.018a10.42,10.42,0,0,1-1.741-5.049c-.156-1.241-.194-2.5-.267-3.747a1.483,1.483,0,0,1,.1-.713c.661-1.23-.2-3.848-.808-3.848-.527,0-2.059-.007-2.686-.014h-.038c-.628.007-1.278.014-1.806.013-.608,0-1.469,2.619-.808,3.848a1.493,1.493,0,0,1,.1.714c-.074,1.25-.112,2.506-.268,3.747a10.42,10.42,0,0,1-1.74,5.049h.032a16.105,16.105,0,0,0-1.018,1.68,7.1,7.1,0,0,0-.431,3.385q-.007,1.372,0,2.745l-.006,6.6.009.012q-.008,1.741,0,3.481h-.009v.315a2.159,2.159,0,0,0,2.153,2.153h8.538a2.159,2.159,0,0,0,2.153-2.153v-.315Z" transform="translate(-141.238 -620.763)" fill="#003e28"/>
</svg>
