<svg xmlns="http://www.w3.org/2000/svg" width="16.638" height="8.212" viewBox="0 0 16.638 8.212">
  <path id="infinity" d="M446.956,562.2a1.761,1.761,0,0,1-2.465-.018l-1.254-1.207,1.273-1.221a1.768,1.768,0,0,1,2.446,0,1.731,1.731,0,0,1,0,2.446m-8.426,0a1.768,1.768,0,0,1-2.446,0,1.73,1.73,0,1,1,2.465-2.428l1.258,1.207Zm7.2-5.329a4.081,4.081,0,0,0-2.888,1.184l-1.327,1.276-1.31-1.257a4.1,4.1,0,1,0-.013,5.825l1.323-1.271,1.309,1.252a4.106,4.106,0,1,0,2.906-7.009" transform="translate(-433.201 -556.869)" fill="#fff3d8"/>
</svg>
