<svg xmlns="http://www.w3.org/2000/svg" xmlns:xlink="http://www.w3.org/1999/xlink" width="148.75" height="215.843" viewBox="0 0 148.75 215.843">
  <defs>
    <clipPath id="clip-path">
      <path id="Path_559" data-name="Path 559" d="M55.8,189.8s-13.282,0-13.282,12.4V393.236c0,.192.1,12.4,13.282,12.4H177.986s13.284,0,13.284-12.405V202.2s0-12.4-13.284-12.4Z" transform="translate(-42.52 -189.796)" fill="none"/>
    </clipPath>
  </defs>
  <g id="Group_788" data-name="Group 788" transform="translate(-42.52 -189.796)">
    <g id="Group_210" data-name="Group 210" transform="translate(42.52 189.796)">
      <g id="Group_209" data-name="Group 209" clip-path="url(#clip-path)">
        <path id="Path_2857" data-name="Path 2857" d="M0,0H164.687V230.731H0Z" transform="translate(-7.968 -7.443)" fill="#a8d085"/>
        <path id="Path_555" data-name="Path 555" d="M89.261,248.695l.29.138a7.822,7.822,0,0,0,.671,1.21l.189.04a7.307,7.307,0,0,1,1.3-1.127l.349.072a1.7,1.7,0,0,1,.436.761l.151.422.189.1.287-.207c.367-.324.744-.637,1.106-.955l.139-.021.335.332c.123.313.274.612.374.912l.205.166.219-.021a11.057,11.057,0,0,1,1.3-.748l.287.19.162.646.233.384.176.028a2.729,2.729,0,0,0,.983-.482l.465-.107.112.2-.021,1.008.267.362c.511-.256,1.052-.486,1.533-.767l.242.313c.062.249-.011.52.039.771l.267.426a8.751,8.751,0,0,1,1.225-.509l.461.119.1.339.1.541.027.452.2.09c.319-.055.6-.177.938-.209l.454,0,.187.269-.036.4c.039.209.071.426.091.624l.463.117a4.449,4.449,0,0,1,.723-.13l.205.264a6.428,6.428,0,0,0-.192,1.008l.157.147c.463-.023.853-.087,1.259-.128l.237.424a2.8,2.8,0,0,0-.251.993l.16.145a4.238,4.238,0,0,0,1.129-.03l.333.117.016.156a10.3,10.3,0,0,0-.3,1.106l.135.132a13.293,13.293,0,0,0,1.4-.006l.066.245a7.364,7.364,0,0,1-.579.98l-.073.258.176.175a12.1,12.1,0,0,0,1.323.111l.153.234a4.382,4.382,0,0,1-.484.8l-.228.273.4.254a7.56,7.56,0,0,0,1.125.209l.164.194c-.153.241-.379.484-.573.744l-.189.339.119.173a6.29,6.29,0,0,0,1.371.337l.141.164-.228.311c-.287.3-.545.633-.84.893l.144.251c.44.134.906.241,1.339.4l.283.254-.03.1c-.39.3-.693.688-1.07,1.023.059.2.258.279.415.369.292.164.6.311.917.45l.185.162-.121.239a4.612,4.612,0,0,0-.678.577l-.03.051.2.215c.249.151.509.3.764.462l.276.26-.007.181a8.822,8.822,0,0,1-1.063.652l-.1.17.114.126a2.547,2.547,0,0,1,.627.352l.47.249a.369.369,0,0,1,.176.447.724.724,0,0,1-.641.326l-.552.294.039.187a10.58,10.58,0,0,1,1.079.667l.073.156-.192.209a3.106,3.106,0,0,0-1.02.535l-.31.2.082.16a3.9,3.9,0,0,1,.849.563l.328.275v.07l-.328.175a4.387,4.387,0,0,1-.584.217l-.536.251-.082.177a4.634,4.634,0,0,0,.99.788l.169.234-.406.279c-.294.111-.625.177-.938.271l-.169.156.052.141a5.862,5.862,0,0,0,.931.765l-.08.4c-.468.136-.995.211-1.485.324l-.157.209a11.137,11.137,0,0,0,1,1.168l-.036.228a3.134,3.134,0,0,1-1.154.3l-.057.141a2.879,2.879,0,0,1,.668.744l-.1.369c-.5.034-.917.143-1.408.181l-.116.162c.182.469.392.908.573,1.372l-.356.266-1.2-.083-.155.16c.1.454.167.952.278,1.419l-.176.268-.445,0c-.244-.038-.516-.043-.76-.064l-.185.2a13.048,13.048,0,0,0,.258,1.481l-.3.288-.96.077-.189.183a5.866,5.866,0,0,0,.075.976l-.137.181h-.162c-.4-.141-.792-.258-1.184-.379l-.217.422a6.07,6.07,0,0,0,.068.876l-.224.228-.258-.075a9.737,9.737,0,0,0-.954-.407l-.23.213a12.367,12.367,0,0,1-.071,1.27l-.383.245a1.5,1.5,0,0,1-.568-.222l-.472-.19-.246.2c-.173.411-.269.891-.44,1.317l-.3.1c-.285-.147-.563-.311-.869-.439l-.244.03-.119.232c-.071.3-.1.612-.162.927l-.37.173a3.371,3.371,0,0,1-.913-.631l-.283,0a4.511,4.511,0,0,0-.586,1.229l-.351.092c-.354-.16-.548-.479-.851-.684l-.224-.019-.205.369c-.144.332-.244.663-.406.974l-.189.032a4.721,4.721,0,0,0-1.111-.837l-.235.187a3.887,3.887,0,0,1-.543.759l-.333.36c-.249-.09-.367-.337-.534-.52l-.44-.422-.2-.032L91.791,297.5l-.242,0a11.7,11.7,0,0,1-.794-.948l-.24-.187-.255.1a13.321,13.321,0,0,0-1.1,1.074l-.219.028a5.258,5.258,0,0,1-.682-.906l-.224-.311-.276-.036a7.366,7.366,0,0,0-1.143,1.144l-.171,0-.205-.224c-.2-.339-.271-.771-.568-1.014l-.173-.107-.34.164a5.713,5.713,0,0,0-.814.68l-.153.026a11.05,11.05,0,0,1-.767-1.163l-.235-.362-.244.026a10.472,10.472,0,0,0-1.189.929l-.219,0-.11-.175a5.366,5.366,0,0,0-.214-1.513l-.183-.09c-.543.315-1.074.641-1.583.978l-.287-.23a5.808,5.808,0,0,0-.039-1.215l-.167-.128-.456.2c-.354.187-.668.407-1.006.582l-.26-.179a12.307,12.307,0,0,1,.08-1.4l-.182-.141c-.212.072-.424.194-.682.288l-.821.33-.381-.2a4.071,4.071,0,0,1,.24-1.315l-.155-.179a1.711,1.711,0,0,0-.865.307,1.225,1.225,0,0,1-.678.188l-.23-.3a5.3,5.3,0,0,0,.322-1.085l-.162-.17a11.419,11.419,0,0,0-1.351.29L72,291.12l-.059-.181.2-.844-.187-.228-1.027-.015-.365.064-.221-.294a7.726,7.726,0,0,0,.408-1.379l-.157-.16a12.821,12.821,0,0,1-1.373-.015.455.455,0,0,1-.265-.565,3.634,3.634,0,0,1,.4-.972l-.141-.2a4.117,4.117,0,0,1-1.446-.173l-.194-.392a2.548,2.548,0,0,1,.415-.7l.148-.313-.429-.249c-.329-.1-.732-.111-1.072-.207l-.2-.283a3.34,3.34,0,0,1,.616-.906l.091-.341-.2-.126c-.413-.13-.89-.183-1.291-.322l-.139-.377a6.459,6.459,0,0,1,.924-1.014l-.075-.2a8.219,8.219,0,0,0-1.378-.467L64.742,280l.1-.187c.271-.3.6-.539.86-.842l-.032-.249a7.181,7.181,0,0,0-1.218-.6l-.107-.3a3.486,3.486,0,0,1,.949-.8l.009-.26a4.834,4.834,0,0,1-1.246-.729l-.023-.228c.153-.381.6-.5.928-.718l.055-.309a7.831,7.831,0,0,0-1.1-.673l-.075-.441c.338-.3.767-.5,1.134-.773l-.03-.245c-.347-.345-.771-.626-1.125-.97l-.009-.228c.23-.292.657-.4.949-.633l.192-.264a5.441,5.441,0,0,0-.575-.707,2.04,2.04,0,0,1-.417-.526l.358-.332a5.711,5.711,0,0,0,.8-.433l.062-.17a6.741,6.741,0,0,1-.735-1.057l-.05-.207a.828.828,0,0,1,.7-.58l.511-.145.1-.228a6.315,6.315,0,0,1-.659-1.3l.139-.384a1,1,0,0,1,.591-.241l.436-.087.436-.062.089-.145a6.979,6.979,0,0,1-.532-1.261.454.454,0,0,1,.267-.569,4.143,4.143,0,0,0,1.077-.092l.125-.177a8.978,8.978,0,0,0-.413-1.229l.032-.143c.08-.168.335-.164.568-.179.376-.023.748-.047,1.093-.1l.244-.311-.319-.98-.162-.347.18-.207.573-.009a3.452,3.452,0,0,0,.926.077l.167-.222c-.052-.49-.121-.948-.2-1.411l.162-.29.2.015a5.667,5.667,0,0,0,.844.251l.358-.2a10.486,10.486,0,0,1-.148-1.078.364.364,0,0,1,.31-.358l1.417.264.137-.128v-1.131a.5.5,0,0,1,.155-.618l.315-.019a8.657,8.657,0,0,0,1.163.5l.226-.194a12.186,12.186,0,0,1,.233-1.313l.324-.3c.356.2.735.349,1.09.533l.2,0,.121-.177.283-1.025.548-.121.992.546.256-.211c.116-.4.313-.744.429-1.112l.212-.132a5.643,5.643,0,0,1,.618.335,3.843,3.843,0,0,1,.623.373l.317-.381c.119-.3.2-.637.319-.935l.335-.2.139.072a4.642,4.642,0,0,0,.785.663l.226.006.205-.268a6.519,6.519,0,0,1,.411-.808l.379-.128c.3.281.573.626.883.942l.249-.047c.283-.356.552-.718.814-1.1l.313-.228c.212.06.313.288.42.469a8.11,8.11,0,0,1,.668.75l.23-.066a13.629,13.629,0,0,0,1.054-1.2Z" transform="translate(-15.241 -123.196)" fill="#fff3d8"/>
        <path id="Path_556" data-name="Path 556" d="M60.569,256.554l2.037,5.9,6.636-.011-5.375,3.635,2.062,5.892-5.361-3.654-5.363,3.654,2.065-5.892-5.377-3.635,6.636.011Z" transform="translate(-30.511 -114.309)" fill="#fff3d8"/>
        <path id="Path_557" data-name="Path 557" d="M99.421,256.554l2.037,5.9,6.636-.011-5.375,3.635,2.062,5.892-5.361-3.654-5.363,3.654,2.065-5.892-5.377-3.635,6.636.011Z" transform="translate(19.27 -114.309)" fill="#fff3d8"/>
      </g>
    </g>
    <g id="Group_214" data-name="Group 214" transform="translate(42.52 189.796)">
      <g id="Group_213" data-name="Group 213" clip-path="url(#clip-path)">
        <text id="Buyers_get_range_1" data-name="Buyers get range +1" transform="translate(75.293 186.527)" fill="#1a1311" font-size="8" font-family="AveriaSerifLibre-Regular, Averia Serif Libre"><tspan x="-35.525" y="0">Buyers get range +1</tspan></text>
        <text id="First_cart_operator_played" data-name="First cart
operator played" transform="translate(74.468 95.791)" fill="#1a1311" font-size="15" font-family="VTCSuperMarketSale"><tspan x="-29.948" y="0">First cart</tspan><tspan x="-48.975" y="18">operator played</tspan></text>
        <path id="Path_593" data-name="Path 593" d="M61.212,213a52.911,52.911,0,0,0,9.057.281,50.614,50.614,0,0,0,8.026-1.112c1.394-.322,8.187-1.649,11.662-2.7.5-.149,5.911-1.479,8.153-2.088,4.893-1.332,9.873-2.38,14.778-3.62,2.277-.575,4.542-1.078,6.846-1.547a69.368,69.368,0,0,1,11.281-1.417,29.234,29.234,0,0,1,14.956,3.569,17.557,17.557,0,0,1,3.372,2.312,32.313,32.313,0,0,1,2.566,2.727c.408.445.951-.034.625-.447-.4-.5-.83-.984-1.259-1.466a15.178,15.178,0,0,0-2.124-2.114,39.436,39.436,0,0,0-4.738-3.277,27.9,27.9,0,0,0-7.921-2.7c-9.273-1.892-18.848-.716-27.811,1.95-2.3.684-4.581,1.46-6.889,2.033a35.225,35.225,0,0,0-3.431,1.093c-.484.228-5.991,1.909-6.682,2.118q-2.077.633-4.168,1.229c-1.469.42-2.954.788-4.432,1.178-.593.158-1.239.294-1.836.479-1.239.386-2.471.535-3.7.9a29.374,29.374,0,0,1-3.429.727,69.537,69.537,0,0,1-7.373,1.055,19.609,19.609,0,0,1-6.54-.46c-2.322-.69-4.467-2-5.236-4.3-.819-2.452,1.98-4.434,4.152-5.071a18.373,18.373,0,0,1,8.167-.136c.979.173,3.014.852,2.817,2.084-.1.6-.577.831-1.113,1.087-.4.194-.963.5-.591,1,.589.784,2.628.3,3.456.264,1.2-.055,2.434-.251,3.65-.394a44.67,44.67,0,0,0,8.254-2.039c1.643-.524,3.258-1.117,4.907-1.63,2.195-.684,4.378-1.364,6.577-2.037,1.462-.447,2.979-.663,4.433-1.131.36.006,1.2-.2.963-.718-.157-.341-.94-.279-1.236-.258a34.062,34.062,0,0,0-8.062,1.523c-2.133.695-3.7,1.389-5.489,2.069q-1.82.7-3.643,1.389c-1.074.409-2.224.637-3.29,1.036-.561.209-2.881.776-3.319.865a21.662,21.662,0,0,1-3.223.4c-.6.026-1.175-.026-1.28-.3-.217-.571.265-1.048.265-1.57a5.119,5.119,0,0,0-.084-1.46,5.254,5.254,0,0,0-2.074-2.612c-1.6-1.287-4.362-1.628-6.378-1.483-4.61.286-9.444,2.862-9.563,7.581a7.049,7.049,0,0,0,1.225,3.313A9.514,9.514,0,0,0,55.8,210.6,9.637,9.637,0,0,0,61.212,213" transform="translate(-28.766 -180.251)" fill="#1a1311"/>
        <path id="Path_594" data-name="Path 594" d="M151.651,217.795a8.573,8.573,0,0,0-.792-1.6c-.121-.192-.614-.829-.787-1.031a10.577,10.577,0,0,0-3.057-2.039,9.71,9.71,0,0,0-3.121-.955,27.907,27.907,0,0,0-6.1-.3c-2.076.16-4.341.475-5.258.607-2.14.309-8.1,1.57-9.349,1.864-1.41.332-2.842.59-4.245.942-.678.17-1.289.322-1.985.46-.545.107-3.741.95-4.791,1.151-1.246.236-4.61,1.134-5.1,1.217-.525.092-.992.283-1.526.4-1.079.226-4.17,1.033-4.585,1.144-1.143.3-2.306.575-3.438.916-.315-.015-2.642.658-3.178.805-1.189.326-7.321,1.72-9.2,2.105a46.784,46.784,0,0,1-9.447,1.18c-1.49,0-2.982-.045-4.46-.072-.271-.006-3.023-.347-4.334-.631-.577-.126-1.225-.245-1.814-.394s-.712-.17-1.773-.5a56.177,56.177,0,0,1-5.605-2.681,16.639,16.639,0,0,1-2.742-2.135l-.509-.5c-.436-.441-.477.262-.3.533a11.063,11.063,0,0,0,2.514,2.636,17.1,17.1,0,0,0,2.975,2.141,35.8,35.8,0,0,0,3.9,1.8,50.7,50.7,0,0,0,8.689,2.167,39.731,39.731,0,0,0,7.9.268,52.081,52.081,0,0,0,6.5-.6c1.645-.294,3.16-.569,4.77-.993.358-.094,5.067-1.383,6.118-1.724,3.6-1.168,12.526-3.908,14.979-4.649,1.957-.59,3.876-1.253,5.856-1.777,2.128-.562,4.248-1.057,6.346-1.666.659-.192,2.8-.718,3.217-.8a88.451,88.451,0,0,1,11.806-1.952,13.947,13.947,0,0,1,7.04,1.161,6.176,6.176,0,0,1,2.509,1.994,3.731,3.731,0,0,1,.6,1.634,5.1,5.1,0,0,1,.025,1.685c-.176,2.124-3.26,3.663-5.881,4.08a15.075,15.075,0,0,1-5.014-.309c-.944-.179-2.662-.594-3.31-1.568-.536-.8-.881-1.788.094-2.568.379-.3,1.043-.132,1.248-.686.182-.492-.582-.571-.876-.552l-1.7.126a38.345,38.345,0,0,0-6.15,1.108c-1.487.358-2.991.724-4.455,1.159-.933.277-4.049,1.144-6.842,2.092-1.227.418-2.487.884-3.718,1.289-2.192.722-4.458,1.259-6.716,1.847-1.289.335-2.7.2-3.967.6-1.506.471,1.608.918,2.042.923a27.182,27.182,0,0,0,8.046-1.338c1.1-.328,2.163-.656,3.255-.989,1.223-.373,6.691-2.2,8.1-2.815,1.3-.569,2.683-.9,4.02-1.374,1.389-.492,5.5-1.381,6-1.632.57-.286.269.426.089.6a2.627,2.627,0,0,0-.306,3.134,6.619,6.619,0,0,0,2.227,2.512,12.6,12.6,0,0,0,5.347,1.862,11.464,11.464,0,0,0,6.2-.835,7.551,7.551,0,0,0,4.109-4.732,6.071,6.071,0,0,0-.091-3.739" transform="translate(-27.733 -164.903)" fill="#1a1311"/>
        <path id="Path_595" data-name="Path 595" d="M140.678,209.263l.089.234.062.177.087.121.132.066a.42.42,0,0,0,.577-.2,1.611,1.611,0,0,0,.185-.556l.036-.411.052-.4.021-.181-.023-.183c-.039-.356-.233-.484-.586-.381l-.214.092-.281.313-.31.283c-.292.038-.579.064-.865.079s-.575.028-.865.036l-.4,0-.2-.083-.084-.179-.071-.309.009-.224c.043-.392.073-.784.094-1.174s.034-.784.048-1.176l.036-.349.1-.179.205-.064.36-.017.073,0a7.49,7.49,0,0,0,1.576-.034,5.349,5.349,0,0,1,.9-.036c.3.015.6.03.913.049l.148.032.08.087.048.1-.1.467.027.469a.4.4,0,0,0,.591.285l.183-.051.18-.064.2-.128.082-.2c.009-.262.011-.518,0-.771s-.014-.509-.025-.771l-.014-.07-.244-.26-.187-.047-.2-.006-.468.028-.479.013q-1.786-.054-3.543.06a8.051,8.051,0,0,1-1.262,0,5.074,5.074,0,0,0-.824-.011c-.271.019-.548.045-.828.072l-.262.245-.052.207c0,.29.167.473.5.55a.334.334,0,0,1,.317.36,5.281,5.281,0,0,0,.016,1.247l.014.288-.018.3q-.017.841-.043,1.66a14.725,14.725,0,0,0,.032,1.647l-.016.435-.048.516.055.52a5.734,5.734,0,0,1,.089.684,2.832,2.832,0,0,1-.032.693l-.3.313-.233.041-.235.043-.189.049-.189.051-.139.121-.036.166.014.085.039.141.041.143.214.264.342.075.543-.053.554-.011.2,0,.2-.028a10.473,10.473,0,0,1,1.2-.117c.4-.015.81-.026,1.23-.032q.811-.016,1.613,0c.536.013,1.072.021,1.613.03l.4-.023.388-.094.326-.367q.027-.364.041-.735l.027-.735-.011-.141-.091-.164-.169-.081h-.2l-.187.015-.386.241-.16.3-.071.326-.1.271-.29.124-.157.032-.16.015q-.39.016-.78.026c-.26.006-.525,0-.794,0l-.586,0-.586.053-.347.023-.358-.017-.132-.062-.071-.128-.014-.07-.011-.07-.011-.554-.071-.556-.03-.4-.016-.415-.018-.546-.064-.55-.009-.337.034-.32.048-.089.091-.075.376-.045.322.017.31-.026a3.031,3.031,0,0,1,.721-.034c.24.017.488.023.748.023m-11.32.364-.025.058-.057.021-.233-.243.066-.119.03,0,.014.006.016,0,.137.107Zm2.347-1.719.016,0,0,.162,0,.149a7.7,7.7,0,0,0,.039.891c.032.292.068.586.114.882l.064.4.034.4.007.07-.025.072-.011.03-.03.017-.073.009-.271-.254-.267-.239-.208-.209-.219-.209-.522-.458-.436-.524-.182-.213-.185-.213-.226-.286-.217-.315c-.125-.183-.251-.373-.379-.565s-.253-.381-.379-.565c-.194-.262-.386-.524-.579-.784s-.386-.526-.579-.8l-.084-.119-.114-.1-.233-.173-.192-.217-.155-.139-.224-.062c-.2-.015-.408-.036-.62-.066a1.012,1.012,0,0,0-.636.132l-.219.06-.253.034-.415.058-.417.06-.249.239-.075.347.043.085.075.07.114.03.114.015.379.038.183.092.075.19.05.326.023.175.007.175.055.531.066.528a6.82,6.82,0,0,1,.116.818c.025.279.043.554.057.827q.014.7.073,1.372c.025.3.052.6.084.893s.062.6.1.893l.021.315.048.311a4.851,4.851,0,0,1,.046.616c0,.2,0,.4,0,.605l-.24.352-.155.045-.1.081L124.3,215l-.221.2-.048.062-.016.072-.007.1.023.089.326.2.367.009c.265-.064.532-.119.8-.162s.529-.087.785-.134l.228-.068.21-.092.094-.124,0-.128-.114-.268-.251-.128a.337.337,0,0,1-.356-.3l-.064-.394-.05-.4q-.086-.668-.135-1.319t-.151-1.315c-.048-.324-.1-.643-.167-.957a4.2,4.2,0,0,1-.075-.963l0-.064-.014-.077-.078-.541-.062-.543a2.788,2.788,0,0,1,.112-.984l.05-.034.068.006.322.249.235.3a13.186,13.186,0,0,1,.9,1.144,8,8,0,0,0,.938,1.11l.13.134.1.151a13.293,13.293,0,0,0,1.214,1.532l.1.109.084.111.383.522.37.524a8.066,8.066,0,0,0,.716.916c.26.288.538.565.833.835l.365.241.438.023.194-.028.194-.028.185-.111.087-.215v-.092l0-.119c-.043-.268-.075-.539-.094-.814s-.025-.55-.018-.822l-.021-.428-.066-.422c-.082-.349-.146-.7-.2-1.065a9.554,9.554,0,0,1-.091-1.076c-.014-.271-.032-.543-.057-.818s-.057-.55-.1-.827l-.039-.356-.023-.358-.023-.371-.025-.356,0-.2.011-.219.03-.539-.048-.545.121-.168.146-.051.148-.036.356-.124.178-.315.087-.207-.048-.121-.121-.085-.151-.019-.153,0a6,6,0,0,0-.723.064,3.063,3.063,0,0,1-.725.021l-.324.085-.235.243-.068.17.036.173.121.17a.636.636,0,0,1,.267.492l.048.36.043.349q.031.531.062,1.042c.018.343.036.686.057,1.031m-16.081,5.406-.025-.188-.037-.158a2.078,2.078,0,0,1-.132-.646c-.011-.217-.021-.435-.03-.654l-.023-.5-.078-.471a1.783,1.783,0,0,1-.034-.631q.041-.316.089-.626l.03-.107.032-.107.123-.541.194-.556.292-.452.34-.45.089-.117.094-.092.164-.119.167-.1.543-.268a1.72,1.72,0,0,1,.611-.094l.44.017.427.051a1.264,1.264,0,0,1,.8.482l.292.428.292.428.13.245.1.239c.084.249.157.494.221.735s.135.482.219.722a2.741,2.741,0,0,1,.141,1.161l-.011.254.032.23a2.494,2.494,0,0,1,.052.727q-.024.371-.048.748l-.059.456-.1.45a3.753,3.753,0,0,1-1.268,2.077l-.253.181-.262.124a3.26,3.26,0,0,1-.721.175,2.258,2.258,0,0,1-.719-.026l-.566-.173-.445-.4-.308-.482-.308-.5-.2-.381-.135-.317-.082-.335Zm7.248-2.84-.1-.754a6.363,6.363,0,0,0-.306-.876c-.125-.286-.251-.562-.379-.833a5.533,5.533,0,0,0-.356-.631c-.125-.194-.258-.386-.395-.58l-.258-.292-.283-.258-.308-.217-.333-.183-.335-.132-.5-.128-.557-.053-.547.011-.461.045-.139.028-.153.045-.582.2-.593.234-.233.1-.23.132a2.2,2.2,0,0,0-.611.433l-.525.513a2.736,2.736,0,0,0-.6.8c-.141.292-.287.586-.436.884-.068.311-.141.618-.214.925a4.343,4.343,0,0,0-.119.948c.009.217.021.437.036.658a2.916,2.916,0,0,1-.036.673l.014.213c.043.249.087.5.13.739a2.1,2.1,0,0,0,.26.7l.2.447a4.242,4.242,0,0,0,.436.886,5.826,5.826,0,0,0,.618.778,4.9,4.9,0,0,0,.746.607,2.237,2.237,0,0,0,.919.345l.064.021.062.023a4.04,4.04,0,0,0,.735.132,3.485,3.485,0,0,0,.771-.021l.538-.087.532-.128a2.588,2.588,0,0,0,.757-.3l.575-.369.6-.341.235-.149.214-.2.363-.375.176-.2.119-.232c.039-.092.1-.245.194-.454l.018-.032.018-.032a2.37,2.37,0,0,0,.242-.609,2.694,2.694,0,0,0,.073-.631q0-.329-.007-.665a5.474,5.474,0,0,1,.021-.669l.009-.554Zm-11.014-1.579.271.1.283-.075a.507.507,0,0,0,.258-.539l-.132-.678a.676.676,0,0,0-.4-.582l-.235-.075-.237,0-.4.1-.39.066a6.243,6.243,0,0,0-1.282.364l-.57.194-.591.083-.319.077a4.112,4.112,0,0,1-.906.273c-.3.053-.614.1-.933.124-.278.028-.559.051-.837.07a2.519,2.519,0,0,0-.814.194l-.185.03-.155.021-.484.1-.479.107-.47.315-.08.222c.034.271.078.537.135.8s.119.522.192.784l.219.194h.358l.319-.192.05-.1.016-.1-.043-.309-.059-.3.055-.143.121-.117c.3-.081.6-.158.906-.23s.611-.151.919-.234l.087-.021.363.217.16.467.162.482.08.249.023.277.046.3.057.3a5.152,5.152,0,0,0,.228.893,5.1,5.1,0,0,1,.228.893c.05.258.1.509.162.754a3.94,3.94,0,0,0,.249.722,1.888,1.888,0,0,1,.116.522c.084.422.164.84.244,1.249s.157.829.23,1.253l-.007.075-.009.075-.039.147-.123.109a5.124,5.124,0,0,0-.632.194l-.164.243.066.309.249.136.29-.028.271-.049c.463-.13.922-.251,1.38-.367a8.409,8.409,0,0,1,1.408-.228l.447-.209.162-.183.162-.183.034-.254-.212-.181-.324-.023-.31.117-.212.081-.212-.066-.123-.245c-.05-.209-.1-.415-.137-.618s-.082-.4-.132-.605c-.089-.354-.176-.712-.256-1.072s-.169-.729-.262-1.1c-.128-.558-.256-1.117-.381-1.679s-.253-1.123-.381-1.681c-.043-.211-.078-.418-.107-.618s-.059-.407-.091-.62l-.025-.175v-.2l.242-.39.256-.126.262-.1c.308-.083.614-.158.915-.226s.607-.136.915-.211l.363.217.1.322Zm-10.026,1.579-.1-.509-.114-.226-.208-.16H101.2l-.157.09-.121.2-.116.209-.194.1-.228-.009-.237-.036a3.839,3.839,0,0,0-.874-.068,7.828,7.828,0,0,0-.89.079,5.119,5.119,0,0,0-1.2.339,3.423,3.423,0,0,0-1.052.705l-.367.445a1.514,1.514,0,0,0-.212.537,4.028,4.028,0,0,0-.071,1.038,4.685,4.685,0,0,0,.18,1.006l.137.3.205.268.13.119.135.134a3.526,3.526,0,0,0,.8.6,3.042,3.042,0,0,0,.958.33q.524.118,1.04.224a10.55,10.55,0,0,0,1.061.16l.486.107.454.185.2.1.212.1.424.373a2.521,2.521,0,0,1,.344,1.928,1.2,1.2,0,0,1-.319.571,2.019,2.019,0,0,1-.543.364l-.29.107-.315.07-.3.036-.315-.015c-.34-.072-.666-.16-.981-.26a2.351,2.351,0,0,1-.862-.507,1.918,1.918,0,0,0-.73-.371l-.235.043-.167.158-.039.066-.009.075a4.631,4.631,0,0,0-.055,1.006,7.843,7.843,0,0,0,.11.993l.1.194a.349.349,0,0,0,.447.179.879.879,0,0,0,.433-.2.681.681,0,0,0,.128-.415l0-.251-.009-.266.059-.087.116-.028.21.064a4.445,4.445,0,0,0,2.772.307l.109-.019.107-.034a5.534,5.534,0,0,0,.8-.407,3.416,3.416,0,0,0,.707-.571l.276-.335.16-.379.123-.362.2-.541-.057-.552-.057-.275a2.143,2.143,0,0,0-.173-.594l-.281-.533-.351-.486-.39-.469-.089-.066-.089-.064a3.6,3.6,0,0,0-1-.573c-.363-.139-.723-.286-1.077-.439l-.112-.023-.112-.023-.386-.058-.372-.077c-.253-.045-.5-.092-.751-.141a3.049,3.049,0,0,1-.712-.239l-.128-.07-.1-.1a2.145,2.145,0,0,1-.395-.707,2.631,2.631,0,0,1-.1-.793,1,1,0,0,1,.536-.884l.573-.256a3.525,3.525,0,0,1,.8-.13c.267-.013.532-.013.8,0l.36.128.447.326.386.4.24.175.306-.032.251-.264.03-.187.016-.185-.05-.328Zm-10.539,7.138.135.209.1.158.107.1.144.032a.43.43,0,0,0,.516-.343,1.662,1.662,0,0,0,.064-.588l-.048-.413-.032-.4-.018-.183L92.2,216q-.164-.511-.648-.232l-.187.141-.208.377-.242.356q-.411.16-.821.288c-.271.083-.547.166-.828.245l-.39.1-.212-.032-.116-.153-.135-.288-.036-.222c-.039-.394-.089-.786-.153-1.176s-.125-.778-.194-1.166l-.039-.352.057-.2.185-.113.347-.1.073-.017a7.345,7.345,0,0,0,1.517-.418,5.328,5.328,0,0,1,.865-.256c.294-.06.591-.117.894-.175l.151,0,.1.066.068.087-.009.482.125.456a.383.383,0,0,0,.63.134l.167-.094.162-.107.167-.175.039-.215c-.046-.26-.1-.511-.155-.759s-.119-.5-.183-.75l-.027-.066-.29-.2-.192,0-.2.045-.445.141-.463.13q-1.735.38-3.415.92a8.22,8.22,0,0,1-1.218.311,4.74,4.74,0,0,0-.8.19c-.258.085-.52.177-.787.273l-.205.3-.007.217c.059.283.26.422.6.413a.321.321,0,0,1,.381.277,5.272,5.272,0,0,0,.271,1.221l.073.279.043.3c.107.552.205,1.1.3,1.639a15.683,15.683,0,0,0,.372,1.609l.073.43.062.52.162.5a6.263,6.263,0,0,1,.226.648,2.983,2.983,0,0,1,.112.688l-.224.379-.217.1-.219.1-.171.1-.173.094-.109.153v.175l.027.079.068.13.068.128.262.209.347-.011.513-.185.536-.147.189-.047.183-.077a10.544,10.544,0,0,1,1.141-.409q.578-.169,1.186-.33.78-.214,1.56-.394c.52-.117,1.04-.239,1.565-.364l.381-.119.354-.185.242-.441c-.032-.243-.068-.486-.112-.731s-.084-.488-.125-.727l-.039-.136-.123-.138-.18-.038-.2.049-.178.062-.322.328-.1.33v.339l-.041.29-.256.192-.146.068-.151.055c-.251.072-.5.145-.751.213s-.506.134-.771.192l-.566.139-.557.194-.331.109-.351.068-.141-.026-.094-.109-.027-.066-.027-.066-.123-.541-.183-.528-.112-.386-.1-.4-.13-.533-.176-.524-.078-.328-.034-.322.027-.1.075-.1.356-.136.315-.062.292-.1a3.251,3.251,0,0,1,.691-.209c.235-.04.479-.094.73-.16m-13.076.264,0-.043.032.023Zm7.234,5.163-.041-.518L85.4,222.4l-.036-.087-.189-.335-.274-.241-.376-.006-.192.139-.1.2-.068.5-.068.482a.5.5,0,0,1-.415.452l-.18.066-.185.038-1.49.341c-.49.113-.988.226-1.487.339l-.148.019c-.258.034-.422.019-.493-.047a.674.674,0,0,1-.141-.392l-.014-.19.016-.177a3.688,3.688,0,0,0-.066-1.159c-.084-.371-.155-.746-.214-1.125a2.126,2.126,0,0,1-.144-.7,4.384,4.384,0,0,1,.034-.727l.011-.439-.109-.439-.046-.2-.03-.215a3.149,3.149,0,0,1-.014-.654c.018-.215.03-.43.032-.65,0-.3-.011-.6-.023-.895s-.021-.592-.025-.895l.235-.286.381-.1.363-.153.162-.247-.155-.249-.3-.072-.285-.077a2.212,2.212,0,0,0-1.1-.038l-.317.064-.317.077c-.226.049-.456.1-.691.164s-.472.109-.707.151l-.379.247-.155.43.123.224.246.1h.2l.2-.026.123.068.073.147.018.06.007.077a3.02,3.02,0,0,0,.025.825,3.543,3.543,0,0,1,.041.822l.011.147.041.143a3.7,3.7,0,0,1,.121.8c.011.273.011.545,0,.82,0,.247,0,.488.009.729a5.489,5.489,0,0,0,.071.7,7.279,7.279,0,0,0,.151.886c.066.292.121.588.164.882s.073.556.094.837.05.569.082.865l-.055.177-.164.094-.317.077-.315.079-.253.224-.078.356.08.166.151.1.157.015.171-.015c.415-.075.833-.139,1.252-.2a7.225,7.225,0,0,0,1.246-.277l.317-.07.319-.043c.415-.075.821-.141,1.223-.2s.808-.119,1.223-.183l.235-.047.251-.075a6.816,6.816,0,0,1,.737-.17,3.494,3.494,0,0,1,.746-.043l.319-.034.315-.092.322-.2.116-.349-.018-.337-.034-.335Zm-14.306,1.617-.217.045-.187.03-.386.213-.205.366v.092l.075.09.258.139.481.058.465.1.246-.081.246-.079.187-.051.187-.008.6.006.6-.034c.3.026.431-.126.4-.452a.386.386,0,0,0-.365-.388l-.189-.013-.187-.013-.183-.179-.021-.428-.094-.411-.025-.175,0-.175-.025-2.031-.027-.435-.027-.42,0-.349c0-.337-.007-.675,0-1.016s0-.682.009-1.029.011-.673.016-1.014a5.858,5.858,0,0,1,.107-1l.021-.224.066-.2.214-.094.278-.011.135-.043.208-.2,0-.337-.221-.341-.383-.032a4.411,4.411,0,0,1-1.706.188,5.624,5.624,0,0,0-.675-.034.435.435,0,0,0-.5.411l.032.209.151.138.151.04.151.041.212.181.055.209.025.209.03.554v.554c-.016.354-.032.71-.046,1.063s-.027.71-.032,1.065l0,.511.043.524.034.322-.009.309c-.018.243-.025.482-.023.714a4.507,4.507,0,0,0,.068.7l.018.239.018.251.007.526.023.524,0,.315Zm-3.226-8.828.2-.117.187-.119.317-.379-.036-.273-.214-.151c-.374-.038-.748-.081-1.118-.128s-.741-.085-1.118-.115a.784.784,0,0,0-.862.439l-.084.2-.146.286-.132.288c-.144.277-.281.55-.413.818s-.256.541-.367.814l-.141.288-.183.277a3.17,3.17,0,0,0-.42.624,7.135,7.135,0,0,0-.308.69,9.757,9.757,0,0,1-.42,1q-.236.489-.5.965l-.057.023-.068.008-.052-.055-.043-.145-.041-.145c-.027-.281-.064-.558-.112-.831a4.754,4.754,0,0,0-.217-.812l-.078-.36-.075-.375c-.1-.46-.187-.923-.246-1.383s-.132-.92-.219-1.379q-.092-.607-.178-1.2c-.057-.394-.1-.79-.135-1.189l-.109-.288-.237-.2-.36-.13q-.613-.141-1.2-.268t-1.186-.249l-.3-.019-.342.232-.016.241.1.2.169.158.185.16.125.326c-.023.273-.041.543-.052.814a3.7,3.7,0,0,0,.052.82l-.009.185-.021.181c-.048.392-.094.784-.141,1.176s-.1.782-.155,1.172c-.032.271-.075.537-.125.8a6.622,6.622,0,0,0-.109.788c-.043.354-.078.7-.1,1.046s-.055.684-.084,1.023l-.055.326-.125.3-.089.117-.128.068-.536.141-.538.168-.073.115.027.149.171.143.2.162a1.211,1.211,0,0,0,.776.275l.511.053.484.034.178.03.151,0,.214-.036.167-.145-.11-.467-.224-.324-.007-.369.064-.352.066-.367q.154-.786.269-1.558a8.842,8.842,0,0,0,.091-1.581l0-.107v-.124c.05-.42.1-.833.151-1.244s.107-.825.178-1.24l.1-.307.1-.3.048-.032.071.03.1.192.055.228q.133.642.276,1.274c.094.422.187.842.276,1.261.094.381.173.767.237,1.153s.132.771.205,1.159c.041.249.082.5.123.744s.089.49.151.733.109.475.171.71.123.469.185.712l.05.138.05.139.214.217.388.087.383,0,.1-.136.114-.134a1.565,1.565,0,0,0,.452-.524,4.494,4.494,0,0,0,.271-.633,8.927,8.927,0,0,1,.463-1.168,8.41,8.41,0,0,1,.632-1.089l.251-.392.18-.437c.073-.194.141-.388.2-.582a1.066,1.066,0,0,1,.344-.494l.023-.068.039-.064.433-.987.235-.454.29-.413.043-.055.059-.053.03-.006.032-.009.1.136.011.354-.05.354a4.526,4.526,0,0,1-.025.827l-.1.812c-.048.392-.1.782-.148,1.168s-.1.773-.162,1.163c-.046.307-.091.609-.132.912s-.084.607-.13.912l-.048.207-.048.219-.027.215-.041.215-.011.226-.1.224-.164.009-.182.019-.233.111-.164.181-.016.4.315.251.274.034.26.017.237.028.235.04a4.645,4.645,0,0,0,.837.151,4.676,4.676,0,0,1,.837.149l.306-.181-.064-.343-.324-.237-.367-.134-.155-.132v-.185a.972.972,0,0,0,.109-.552,3.586,3.586,0,0,1-.018-.714c.016-.23.046-.465.084-.705.055-.3.1-.586.125-.871s.052-.58.068-.882c.016-.207.036-.413.066-.616a3.685,3.685,0,0,1,.141-.6c.057-.237.1-.475.146-.716s.078-.482.116-.722c.062-.349.13-.7.208-1.046s.155-.69.235-1.027" transform="translate(-26.309 -174.133)" fill="#1a1311"/>
      </g>
    </g>
    <g id="Group_813" data-name="Group 813" transform="translate(-335.48 -97.201)">
      <g id="Group_811" data-name="Group 811" transform="translate(428.302 413.059)">
        <g id="Group_814" data-name="Group 814">
          <path id="Path_3116" data-name="Path 3116" d="M472.223,449.985c.082.054.787.624,1.549,1.2a17.023,17.023,0,0,1,1.849,1.795v-.9l-.19-.19-2.772-2.174a17.43,17.43,0,0,0-2.2-1.277Zm-1.753,1.847a.938.938,0,0,0,.815-.366,1.08,1.08,0,0,0,.04-.918c-.122-.347-.551-.284-.754-.284s-.2.244-.2.244.388-.225.632.061a.685.685,0,0,1-.082.795.587.587,0,0,1-.937-.122,2.492,2.492,0,0,0-.122-.469c-.082-.2-.143.265-.1.49s.47.49.714.57m0-1.059-.2.143c.021.3.183.286.3.225l.124-.246Zm-8.874,1.495a20,20,0,0,1,1.9,2.854l2.364.108,2.364.082-.082-.054-.108-.218-.761-.516c-.108-.028-1.631-1.141-2.039-1.413s-2.418-1.767-2.934-2.066-2.23-1.3-2.692-1.657-1.167-.871-1.6-1.279-2.418-2.608-3.152-3.506a8.9,8.9,0,0,0-.979-.788c-.326-.19.951,1.359,1.033,1.6a28.011,28.011,0,0,0,2.554,3.479,26.637,26.637,0,0,0,4.131,3.37m-2.229-3.859c.218.054.136-.164-.028-.244s-1.711-2.174-1.821-2.31a4.024,4.024,0,0,1-.326-.789,10.522,10.522,0,0,0-2.908-2.282c-.164-.054-.652-.162-.652-.162l1.059.788,1.523,1.521s.516.572.842,1.007a21.065,21.065,0,0,0,2.31,2.472m-4.145-1.387c-.633-.713-1.978-2.505-2.3-2.894a2.944,2.944,0,0,0-.734-.774c-.509-.389.326.673.448.774s1.223,1.774,2.1,2.833a25.7,25.7,0,0,0,2.936,2.875c.326.225.1,0-.1-.2s-1.713-1.9-2.345-2.61m14.085-14.146a5.789,5.789,0,0,0,.5.542l.026.125c0,.19,0,2.39-.054,3.532a15.329,15.329,0,0,1-1.331,3.751l-.235.364-.716.479-.707.869-.38.272a2.883,2.883,0,0,0-.436.218c-.162.108-.216.136-.3.136l-.49-.056-1.115.007s-1.793.136-1.976.157a.4.4,0,0,0-.277.171,1.034,1.034,0,0,0-.225.711l.441,1.319c.108.192.3.6,0,.192a3.754,3.754,0,0,1-.518-1.333,2.953,2.953,0,0,1-.075-.72.55.55,0,0,1,.408-.483c.2-.021,1.6-.129,1.6-.129s1.739.028,1.467-.3l-.788-.57a3.767,3.767,0,0,0,1.467.434c.244.054.612.246.72.136l.4-.216.434-.653.436-.38-.073-.016.371-.256-.6-.571-.542-.519.026-.568s.136-.216.244-.38a5.877,5.877,0,0,0,1.685-1.957,7.163,7.163,0,0,0,.3-1.523c.042-.3.256-2.03.315-2.821Zm-2.579,7.922.469.568a7.222,7.222,0,0,1-.791-.214,2.063,2.063,0,0,1-.734-.38c-.136-.164.272-.408.38-.49l.082-.054c-.03.059.284.331.594.57m-1.03,2.964a2.069,2.069,0,0,0,.218.706c.1.19-.026.19-.026.19s-.246-.462-.328-.652a.837.837,0,0,1-.054-.408l.164-.19c.108-.054.026.19.026.354m-2.22,4.467c.5-.652,1.087-1.416,1.268-1.613a3.726,3.726,0,0,1,1.007-.815c.08.026,1.575,3.316,1.929,4.1.2.439.429,1.2.326,1.277-.106-.045-.923.164-1.249.136a1.252,1.252,0,0,1-.707-.38l-.01,0-.071-.084c-.162-.19-1.331-1.387-1.875-1.849a2.547,2.547,0,0,1-.617-.777m4.912-4.359,2.662-1.005.462-.436.164.328-.436.3s-2.065.625-2.255.707-.666.211-.6.108m-9.105-5.9-2.336,2.636c-.136,0-1.2.328-1.441.382s-1.223.326-1.223.326l-.354.136s-1.2.354-1.521.408a11.41,11.41,0,0,0-1.931.869c-.68.354-2.718,1.657-2.962,1.849a21.671,21.671,0,0,1-2.093,1.413.735.735,0,0,0-.354.218s-.326.026-.625.054a2.86,2.86,0,0,0-.815.38l-.544.518-1.685,1.085-.244.028h-.108s-.028-1.3,0-1.875l0-.3.322-.648a9.979,9.979,0,0,1,.38-1.359,5.466,5.466,0,0,0,.272-1.059l.9-2.528-.082-.38-.005.01.169-.434q.664-.98,1.3-1.981l.875-.45,1.277-.354c.763-.549,2.772-2.418,2.772-2.418l.6-.544.462-1.007.652-1.875.408-.706.625-1.387.164-.136.136-.117.03-.014.54.946-.408.082a2.614,2.614,0,0,0-.08.951s.544,1.033.923,1.6,1.418,2.1,1.6,2.31c.218.244.3.218.626.272a1.967,1.967,0,0,1,1.3.707,28.94,28.94,0,0,0,2.472,2.391m-18.239,10.675.6.223.258-.082.34-.244.272-.544.052-.2.606-.385v.038l.164.143-.129.869c.061.082.76.375.781-.054s.115-.516.115-.516a.586.586,0,0,1,.585-.028,5.669,5.669,0,0,1,1.373.852,1.894,1.894,0,0,0,.692.615,5.93,5.93,0,0,1,.589.312l.172.232c.143.164,1.216,1.127,1.359,1.3a.623.623,0,0,1,.073.458c-.321-.131-.657-.244-.7-.275l-1.978-.9c-.509-.225-.488,0-.549.04a8.029,8.029,0,0,0,1.038.509c.307.164.429.328.632.408.139.057.927.561,1.432.871a7.4,7.4,0,0,0,.81,1.059,6.229,6.229,0,0,0,.706.218c.272.054-.162.488-.326.6l-.286.134-.2.084c-.544.108-2.39.162-2.772.272l-.009,0c.172.444-1.113-.007-1.458-.058a1.324,1.324,0,0,1-.612-.35,5.994,5.994,0,0,1-.8-.409l-.3-.183c-.65-.308-1.863-.737-1.863-.737-.185-.085-.369-.166-.54-.237-.223-.2-.554-.528-.554-.528l-.293-.287.239-1.207c-.028-.164,1.359-.517,1.577-.68s-.056-.326-.164-.49a4.387,4.387,0,0,0-1.251-.354l.127-.46.064,0Zm9.541,3.547-.516-.688-.505-.43-.3-.343a12.358,12.358,0,0,0-1.162-1.04,1.456,1.456,0,0,0-.387-.2l-.2-.139-.061-.085-.129-.19c.094-.094.108.054.286.068s.34.054.352-.04l.01-.254-.03-.113a6.078,6.078,0,0,0-.572-.631c-.183-.185-.815-.714-.916-.8l-.185-.082-.162-.019-.021.2.125.136-.016-.007.556.72.028.11-.23.092-.077-.052c-.2-.143-1.345-1.244-1.345-1.244l-.53-.427-.089-.052.272.01.38-.159.368.078a.475.475,0,0,0,.26-.056l.091-.216.434-.317c.051.284.146.681.16.791.021.164.307.246.551.307s.061-.368.042-.469c-.014-.071-.087-.7-.131-1.079.744-.535,1.718-1.227,2.42-1.694.11.314.38.96.469.937l-.11-1.033.322-.333.045-.026.34-.131.354.246.136-.326.516-.054c.082.08,1.033,1.739,1.359,2.255.216.343,1.077,2.331,1.76,3.9a42.308,42.308,0,0,1,1.556,4.359c-.037.225-.152.244-.274.2-.242-.289-.542-.652-.838-1.025-.76-1.112-1.878-2.814-1.878-2.814l0,.033-.023-.033a19.487,19.487,0,0,0-1.434-1.856l-.183-.08c-.124,0,0,.345.244.794.1.174.3.573.533,1.031h0c-.15.038-.612-.366-.883-.619a8.384,8.384,0,0,0-1.052-1.207c-.408-.429-1.883-1.6-2.486-2.12l-.042.408c.061.1,1.692,1.528,2.039,1.835.119.1.3.286.51.507.288.732,1.005,2.924,1.1,3.209a20.688,20.688,0,0,0,1.2,1.9h-.544l-.324-.341-.267-.324s-.46-.5-.9-.984m18.727-20.962c-.08-.286-.159-.99-.234-1.558l.176-.251a5.273,5.273,0,0,0,.573-1.589,7.072,7.072,0,0,0-.207-2.045,8.242,8.242,0,0,0-.336-1.026,7.9,7.9,0,0,0-.758-1.531,3.156,3.156,0,0,0-.7-.66l-.761.017-.2-.542-.108-.192-.382-.652a2.842,2.842,0,0,0-.272-.761c-.108-.162-.469-.636-.714-.969l-.054-.26a1.556,1.556,0,0,0-.277-.5l.418-.108.057-.038c.162-.11.5-.153.53-.505l-.014-.211c-.033-.033-1.361.211-1.664.216-.53-.737-2.9-4.121-3.445-4.69-.625-.653-1.713-.354-2.446-.136a25.775,25.775,0,0,0-4.349,1.957,41.406,41.406,0,0,0-5,3.614,3.706,3.706,0,0,0-.544,2.31,19.388,19.388,0,0,0,1.876,3.556l-.028-.023a.983.983,0,0,0-.707.354,2.03,2.03,0,0,0-.6,1.141c-.007.082-.009.233-.007.409a2.154,2.154,0,0,0-.739-.225,1.719,1.719,0,0,0-1.133.218,1.631,1.631,0,0,0-.486-.43,1.947,1.947,0,0,0-1.251-.244,2.421,2.421,0,0,0-1.045.648.784.784,0,0,1-.584-.051,2.47,2.47,0,0,0-1.117.057,1.435,1.435,0,0,0-.456.368l-.138.188-.031.091a7.82,7.82,0,0,1-.6.542,8.89,8.89,0,0,0-1.23,1.481v0a15.1,15.1,0,0,0-.718,1.62,23.457,23.457,0,0,0-.923,2.31c-.082.38-.192,1.467-.192,1.467l-.272.49-.951,1.983L437,437.5a1.344,1.344,0,0,0-.462.042l-.108.054a1.03,1.03,0,0,0-.436.272c-.108.162-1.249,1.9-1.249,1.9s-1.005,1.875-1.387,2.364-1.223,1.849-1.413,2.011a19.765,19.765,0,0,0-1.359,3.018c-.49,1.249-1.929,6.3-1.929,6.3l-.218.979-.218.734h.47a12.608,12.608,0,0,1,.781-2.093c0-.164,2.391-6.2,2.554-6.631s.544-.87.815-.87c.218,0,1.009.087,1.308.122l.1-.04.368.272.148-.11-.054-2.12s1.455-1.575,1.645-1.875.162-.462-.1-.19-.516.516-.516.516l-1.3,1.441-1.073,1.059-.734-.162.638-1.441.843-1.549s.028.625.462.082,1.169-1.387,1.169-1.387l.355-.2a2.048,2.048,0,0,1-.206-.763c-.009-.2-.007-.364,0-.509.01-.2.028-.357.04-.484l.122-.108s-.026.274-.049.575v0l-.012.2,0,.089v.023l0,.078v.007l.007.089v.005a1.5,1.5,0,0,0,.115.484l.054.059s.754.62.951.791c-.206-.106-.373-.188-.4-.2l-.462-.183.6.591a3.829,3.829,0,0,0,1.359.625c.2.044,1.413.028,1.413.028l.08-.012.458.049.061.125c-.028.272-1.277,1.061-1.413,1.169l-.328.544,1.713-.979.462.11s-1.223.815-1.657,1.167a3.041,3.041,0,0,0-.951,1.2c-.028.244,1.439-.815,1.767-.979s1.929-1.087,1.929-1.087l-.054.328-.38,1.629c-.056.082-.218.735-.272.9l-.047.227-.009-.009-.092.071.038-.153-.652-.082c-.11-.08,0,0,.082-.19a5.3,5.3,0,0,0,.38-.706c.108-.328-.516.136-.6.19l-.49.516-.761.761-.6.164c-.108,0-.6.08-.815.08-.183,0-1.059-.136-1.059-.136l-.246.042s-.631.488-.876.713-.549.49-.509.612l.143-.04c.127-.037,1.293-.917,1.542-1.106.2.051.49.134.49.134l.488.01-.27.179c-.082.028-2.854,2.228-3.316,2.664-.112.1-.281.268-.476.457l.054.108a16.822,16.822,0,0,1,2.345-.915,6.952,6.952,0,0,1,.671-.573,17.93,17.93,0,0,0,1.427-1.183l.063-.078.183-.044.538.089c-.261.328-.531.667-.62.808-.19.3-1.387,1.521-1.469,1.793a5.009,5.009,0,0,1-.462,1.061c-.042.026-.5.7-.843,1.092,0,0-.324.822-.04.537s.05.005.05.005c.709-.732,2.354-2.72,2.464-2.831l2.174-3.478a3.968,3.968,0,0,1,.8-.293l-.07.483c-.014.089-.051.73-.078,1.291l-.005-.014c-.024-.432-2.465,3.706-2.547,3.868a14.939,14.939,0,0,1-1.608,1.12c-.856.612-1.059.788-1.387.788a.331.331,0,0,1-.366-.246l-.024.037,0-.047c-.132-.057.5-1.133-.227-.418s-1.024,1.1-1.091,1.122c-.246.082-1.143,0-.9-.775a7.315,7.315,0,0,1,.68-.979c.645-1.14.23-.812-.08-.629-1.061.625-2.472,2.795-3.317,3.579h.815l.017-.014h1.991l-.066.042h1.753l.246-.122h1.589l.9.162.72-.15h.676l-.009.028h.692l0-.028h2.878l.434-.054.218-.761-.18-.582.4.3a4.88,4.88,0,0,1,1.08,1.242h.591l-.009-.04h8.067l.014.021h.633l-.012-.021h1.734l.024.054h5.762s-2.664-1.957-3.1-2.336a37.261,37.261,0,0,1-2.716-4.4l-.2-.136c-.411-.885-.892-1.894-1.155-2.338-.436-.734-1.087-2.065-1.387-2.446s-.57-.76-.57-.76a1.039,1.039,0,0,0,.3-.164c.172-.122.43-.157.3-.282.4-.172.7-.294.76-.315.162-.054,1.467-.246,1.467-.246s2.718,1.713,2.962,1.849,1.033.653,1.115.707.136.38.19,0-.045-.362,0-.49c.136-.382.951.326,1.113.516s.707,1.3.9,1.659,1.331,2.336,1.413,2.391c.026.017.12.19.233.362.166.286.3.524.31.535a25.021,25.021,0,0,0,2.69,2.99c.518.462,2.366,1.875,2.664,2.065s.843.49.843.49.544.19.272-.216-1.9-1.359-2.256-1.713a7.663,7.663,0,0,0-1.087-.789c-.3-.216-1.631-1.631-2.038-2.093-.256-.289-.6-.781-.835-1.1.1-.132.251-.326.42-.549l.047.094.5.714,2.228,2.418c.054.082.49.679.68.707l.164.08a8.415,8.415,0,0,0,1.087-.054l.117.012c.237.3,1.051,1.782,1.187,1.89l.382.6.244.326h.462s-.788-1.793-.951-2.255-1.031-2.69-1.3-3.4-1.033-2.392-1.251-2.99a7.922,7.922,0,0,0-.625-1.249l.11-.246.312-.087.232-.1.244-.272h.3l.216.3a9.409,9.409,0,0,0,1.876-.056c.3-.064.659-.167.948-.258.294.138.638.3.683.314.08.026,2.39,1.113,2.662,1.223s1.767.9,1.767.9v-.734a9.31,9.31,0,0,0-1.113-.652c-.436-.19-3.452-1.223-3.452-1.223l.38-.436.035-.054c.493.148,1.342.4,1.568.436.328.054.761.326.9.326s.218-.164.19-.354a.466.466,0,0,0-.244-.3s-.679-.11-.9-.164l-1.268-.317.345-.526.354-.352-1.495-2.936-.3-.38-.788.434-1.169,1.033a10.825,10.825,0,0,0,1.523-4.023,18.909,18.909,0,0,0,0-3.669l-.136-.542.136.054,1.467.923s.538.42.873.657l.132.186.3.734a11.3,11.3,0,0,1,.9,3.044c.08.742.192,5.19.218,5.272l.082-.054.136-.19c.054-.11-.087-3.83-.136-4.7a12.812,12.812,0,0,0-.815-3.7l-.436-.436,2.61-.164.19-.869-3.655-.016-2.324-1.288s-.321-.681-.38-.9m5.952,4.729.19-.082h.082l-.054-.625a4.572,4.572,0,0,1-.572.082c-.162,0-.76.054-.76.054l-.408.382s.054.354.326.408a4.73,4.73,0,0,0,1.2-.218" transform="translate(-428.222 -412.98)" fill="#fff3d8"/>
        </g>
      </g>
      <g id="Group_812" data-name="Group 812" transform="translate(428.114 412.874)">
        <path id="Path_3117" data-name="Path 3117" d="M446.04,425.795c0-.1-.1-.472-.1-.575s-.021-.432-.124-.35a2.676,2.676,0,0,0-.267.946.872.872,0,0,0,.247.6c.143.082.615.493.657.39a.914.914,0,0,0-.063-.39.921.921,0,0,1-.349-.617" transform="translate(-415.173 -403.979)" fill="#1a1311"/>
        <path id="Path_3118" data-name="Path 3118" d="M447.268,413.945a32.379,32.379,0,0,0-3.04,1.232c-.192.166-1.615,1.152-2.218,1.753s-.383,1.014-.274,1.178,1.232,1.124,1.589,1.561.739.192.958.082,1.781-1.04,2.328-1.342a19.042,19.042,0,0,0,2.108-1.589c.275-.246.22-.383.192-.683a6.547,6.547,0,0,0-.984-2.054.775.775,0,0,0-.659-.138m1.206,2.629a20.435,20.435,0,0,1-1.89,1.533c-.409.275-2.026,1.152-2.356,1.369a.557.557,0,0,1-.767-.054c-.11-.164-1.183-1.119-1.423-1.4-.355-.411.082-.685.164-.821s1.561-1.37,1.835-1.589a11.454,11.454,0,0,1,2.356-1.15c1.152-.439,1.152-.138,1.315-.084a4.451,4.451,0,0,1,.767,1.369c.138.385.192.6,0,.822" transform="translate(-418.099 -412.094)" fill="#1a1311"/>
        <path id="Path_3119" data-name="Path 3119" d="M451.368,427c.028.6.021,1.8.021,1.8s.143-.624.2-.787a4.838,4.838,0,0,0,.054-.794l-.054-3.7a9.246,9.246,0,0,0-.465-1.234c-.11-.11.192,1.26.192,1.26s.026,2.849.054,3.452" transform="translate(-411.052 -405.892)" fill="#1a1311"/>
        <path id="Path_3120" data-name="Path 3120" d="M457.246,442.027a7.364,7.364,0,0,0-.767-.521c-.11-.026-1.643-1.15-2.054-1.424s-2.437-1.781-2.958-2.082-2.246-1.314-2.711-1.671-1.178-.876-1.615-1.286-2.439-2.631-3.178-3.533a8.87,8.87,0,0,0-.986-.794c-.329-.192.958,1.369,1.042,1.615a28.053,28.053,0,0,0,2.573,3.506,26.9,26.9,0,0,0,4.162,3.4,20,20,0,0,1,1.918,2.875,23.175,23.175,0,0,0,2.382.11l2.383.082-.082-.054Z" transform="translate(-417.122 -399.641)" fill="#1a1311"/>
        <path id="Path_3121" data-name="Path 3121" d="M445.413,432.345s.521.575.849,1.014a21.4,21.4,0,0,0,2.328,2.492c.22.054.138-.164-.026-.246s-1.727-2.192-1.835-2.33a3.964,3.964,0,0,1-.329-.793,10.571,10.571,0,0,0-2.931-2.3c-.164-.054-.657-.164-.657-.164l1.068.794Z" transform="translate(-417.203 -400.148)" fill="#1a1311"/>
        <path id="Path_3122" data-name="Path 3122" d="M455.622,425.839c-.164,0-.767.054-.767.054l-.411.383s.056.357.329.411a4.715,4.715,0,0,0,1.2-.218l.192-.084h.084l-.056-.629a4.661,4.661,0,0,1-.575.082" transform="translate(-408.569 -403.31)" fill="#1a1311"/>
        <path id="Path_3123" data-name="Path 3123" d="M452.965,434.44c-.206,0-.206.246-.206.246s.39-.225.638.063a.694.694,0,0,1-.084.8.592.592,0,0,1-.944-.124,2.452,2.452,0,0,0-.124-.472c-.082-.206-.143.267-.1.493s.474.493.72.575a.951.951,0,0,0,.822-.369,1.089,1.089,0,0,0,.04-.925c-.124-.348-.554-.288-.76-.288" transform="translate(-410.286 -396.868)" fill="#1a1311"/>
        <path id="Path_3124" data-name="Path 3124" d="M452.74,435.1c.124-.061.185-.124.124-.246s-.124-.124-.227-.124-.206.143-.206.143c.021.308.185.287.308.227" transform="translate(-410.062 -396.647)" fill="#1a1311"/>
        <path id="Path_3125" data-name="Path 3125" d="M445.105,434.176c-.636-.72-1.993-2.526-2.321-2.917a3,3,0,0,0-.74-.781c-.512-.39.329.678.453.781s1.232,1.788,2.115,2.856a25.908,25.908,0,0,0,2.958,2.9c.328.227.1,0-.1-.206s-1.727-1.91-2.363-2.629" transform="translate(-417.895 -399.869)" fill="#1a1311"/>
        <path id="Path_3126" data-name="Path 3126" d="M454.762,434.669a17.784,17.784,0,0,0-2.218-1.288,17.475,17.475,0,0,0,1.779,1.561c.084.056.795.631,1.561,1.206a17,17,0,0,1,1.863,1.807v-.9l-.192-.192Z" transform="translate(-409.982 -397.651)" fill="#1a1311"/>
        <path id="Path_3127" data-name="Path 3127" d="M448.805,420.9c.026-.01.054-.024.082-.038-.075.031-.112.049-.082.038" transform="translate(-412.762 -406.944)" fill="#1a1311"/>
        <path id="Path_3128" data-name="Path 3128" d="M450.845,419.534c0-.042.082-.178.178-.178a1.175,1.175,0,0,1,.6.1c.206.124.633.861.7.788s-.22-.678-.357-.774a6.6,6.6,0,0,0-.725-.453c-.164-.068-.247-.11-.315-.082s-.206.138-.206.206a5.257,5.257,0,0,0-.136.794,1.392,1.392,0,0,0,.026.355c.007.082.056.22.138-.232s.1-.521.1-.521" transform="translate(-411.433 -408.384)" fill="#1a1311"/>
        <path id="Path_3129" data-name="Path 3129" d="M442.082,420.829a1.075,1.075,0,0,0-.8-.287c-.328.042-.472.143-.493.246s-.225.761-.225.761-.028.2.04.185.329-.843.411-.883a.6.6,0,0,1,.533-.124,2.521,2.521,0,0,1,.577.267s.225.021-.042-.164" transform="translate(-418.877 -407.187)" fill="#1a1311"/>
        <path id="Path_3130" data-name="Path 3130" d="M451.857,421.891c0,.192-.192.671-.138.794s.172-.145.268-.542a9.01,9.01,0,0,0-.084-1.728s-.2-.674-.267-.667.066.359.092.441.127,1.511.127,1.7" transform="translate(-410.664 -407.771)" fill="#1a1311"/>
        <path id="Path_3131" data-name="Path 3131" d="M448.54,427.178c-.192.138-.274.192-.274.192s.028.411.11.3.136-.082.192-.164a1.689,1.689,0,0,1,.575-.383c.219-.084.958-.357.958-.357l.082-.164c.042-.171-1.451.437-1.643.575" transform="translate(-413.155 -402.705)" fill="#1a1311"/>
        <path id="Path_3132" data-name="Path 3132" d="M445.57,415.124c.287-.164,4.314-2.075,3.758-1.89a44.737,44.737,0,0,0-4.518,2.117c-.822.512-4.006,2.854-4.129,3,0,0-.246.308-.1.185s3.821-2.65,4.067-2.856a6.875,6.875,0,0,1,.925-.554" transform="translate(-418.895 -412.616)" fill="#1a1311"/>
        <path id="Path_3133" data-name="Path 3133" d="M437.624,427.125c.145-.227-.082-.164-.124-.082s-1.232,1.561-1.274,1.643a15.578,15.578,0,0,0-.76,1.685c.042.082,0,0,.1-.063a15.648,15.648,0,0,0,.822-1.458Z" transform="translate(-422.657 -402.411)" fill="#1a1311"/>
        <path id="Path_3134" data-name="Path 3134" d="M448.1,423.2c-.164-.11-.2.031-.2.031l.174.38s.11.136.11.054.082-.355-.082-.465" transform="translate(-413.427 -405.242)" fill="#1a1311"/>
        <path id="Path_3135" data-name="Path 3135" d="M448.721,420.167c-.735.167-.347.125-.054.068a11.323,11.323,0,0,1,1.561.014c.068,0,.04.056.068,0a2.667,2.667,0,0,0-1.575-.082" transform="translate(-413.13 -407.512)" fill="#1a1311"/>
        <path id="Path_3136" data-name="Path 3136" d="M445.823,422.272c-.115.057-.328.251-.692.443s-.232.172-.232.23.038.04.038.04a1.579,1.579,0,0,0,.423-.193,2.633,2.633,0,0,0,.481-.4c.057-.057.1-.172-.019-.115" transform="translate(-415.672 -405.909)" fill="#1a1311"/>
        <path id="Path_3137" data-name="Path 3137" d="M450.446,419.991c-.016-.061-.118-.007-.118-.007l-.6.277s-.08.021-.04.078a.052.052,0,0,0,.087.007l.6-.277s.087-.017.071-.078" transform="translate(-412.11 -407.612)" fill="#1a1311"/>
        <path id="Path_3138" data-name="Path 3138" d="M450.212,420.272a1.23,1.23,0,0,0-.319-.04.3.3,0,0,0-.146.04c-.035.033.073.045.073.045l.441.04s.024-.049-.049-.085" transform="translate(-412.06 -407.412)" fill="#1a1311"/>
        <path id="Path_3139" data-name="Path 3139" d="M451.895,425s-.227.347-.383.584a9.416,9.416,0,0,1-1.15.824l-.589.333a1.948,1.948,0,0,1-1.4.341c-.345-.066-1.382.059-.944.267a4.811,4.811,0,0,0,1.122.281c.145.01.495-.317.582-.341-.242.228.127.122.366-.1l.207-.061s-.085.26.232-.07a4.25,4.25,0,0,0,.777-.3.812.812,0,0,0,.115-.11,1.924,1.924,0,0,0,.734-.383c.084-.136.22-.164.275-.465s.192-.795.054-.795" transform="translate(-413.853 -403.87)" fill="#1a1311"/>
        <path id="Path_3140" data-name="Path 3140" d="M447.9,427.3s1.078.042,1.15.042a9.158,9.158,0,0,0,1.376-.432,10.22,10.22,0,0,0,1.479-1.171c.164-.206.7-1.129.7-1.129l.1-.151c.179-.193.376-.4.408-.423a.485.485,0,0,0,.1-.138c.047-.091,0-.179-.117-.16-.267.042-.7.118-.7.174,0,.084-.7.368-.822.451-.484.341-1.322.819-1.849,1.152a25.237,25.237,0,0,1-2.9,1.106,3.322,3.322,0,0,0-.516.354c-.1.08.061.167.061.167l1.317.139Zm.328-.584c.057-.028.118-.056.181-.084.038.056.089.118.122.108s.023-.091.009-.167a6.485,6.485,0,0,1,.655-.26,11.336,11.336,0,0,0,1.185-.681.932.932,0,0,0,.2-.021c.052-.014.1-.108.124-.179l.362-.227a1.58,1.58,0,0,0,.267-.185c.082-.082.43-.021.493-.082s.021-.206.1-.206c.023,0,.071.005.129.012l.1.213-.6.814-.223.1v.185l-.138.16a.97.97,0,0,1-.206.185.9.9,0,0,1-.185.061s-.246.164-.451.308a.338.338,0,0,1-.35.061,3.18,3.18,0,0,1-.575.247,8.492,8.492,0,0,1-.944.1,1.845,1.845,0,0,0-.235.014l.023-.007c.077-.017-.016-.152-.1-.263a.178.178,0,0,1,.063-.206" transform="translate(-414.629 -404.809)" fill="#1a1311"/>
        <path id="Path_3141" data-name="Path 3141" d="M436.559,423.54s.028.26.068.171a.9.9,0,0,0,.042-.281l-.216-.99-.007-.716c-.01-.512-.117-.261-.117-.261l.005.909Z" transform="translate(-422.016 -406.543)" fill="#1a1311"/>
        <path id="Path_3142" data-name="Path 3142" d="M437.851,423.854c.026.434.124.451.124.451s-.021-1.087-.021-1.417.042-1.746.042-1.746-.021-.308-.084-.247a15.538,15.538,0,0,0-.04,1.685c0,.03-.045.861-.021,1.274" transform="translate(-420.891 -406.925)" fill="#1a1311"/>
        <path id="Path_3143" data-name="Path 3143" d="M444.177,422.3c-.026.016-.016.01.014,0,.007-.009,0-.007-.014,0" transform="translate(-416.201 -405.881)" fill="#1a1311"/>
        <path id="Path_3144" data-name="Path 3144" d="M436.513,423.025l-.005.01.005,0a1.844,1.844,0,0,0,.091.436.911.911,0,0,0,.314.465.6.6,0,0,0,.11.061,1.166,1.166,0,0,0,.329-.007c.124-.014.437-.068.465-.15s-.383.054-.479.054-.329-.021-.329-.021l-.124-.054-.19-.746-.017-.162.051-.037a1.09,1.09,0,0,1,.308-.185.682.682,0,0,1,.822.349c.04.082.061-.021.04-.082a1.111,1.111,0,0,0-.246-.369c-.1-.084-.369-.042-.6-.042s-.451.308-.451.308l-.031.054a.614.614,0,0,0-.057.07.09.09,0,0,0-.009.05" transform="translate(-421.883 -405.704)" fill="#1a1311"/>
        <path id="Path_3145" data-name="Path 3145" d="M448.378,424.376a4.765,4.765,0,0,0,.493-.329c.082-.082-.3-.136-.383-.192l-.164.028a1.072,1.072,0,0,0-.056.411c.028.164.11.082.11.082" transform="translate(-413.157 -404.722)" fill="#1a1311"/>
        <path id="Path_3146" data-name="Path 3146" d="M440.147,423.94a11.326,11.326,0,0,0,.437-1.232s-.026-.084-.082,0-.409,1.15-.493,1.314.024.064.138-.082" transform="translate(-419.305 -405.601)" fill="#1a1311"/>
        <path id="Path_3147" data-name="Path 3147" d="M447.822,421.606a2.966,2.966,0,0,1,.338-.362l.016-.012s1.253-.841,1.375-.9.371-.164.432-.185a2,2,0,0,1,.369-.04c.082,0,.678-.063.862-.1s.124-.082.124-.145-.226-.206-.329-.288a7.127,7.127,0,0,0-.76-.348,2.323,2.323,0,0,0-.636.04c-.042.063-.6.575-.6.575s-1.131,1.049-1.315,1.171-.362.1-.547.322c0,0-.234.472-.192.575s.514-.22.575-.22a.558.558,0,0,0,.284-.077" transform="translate(-414.125 -408.166)" fill="#1a1311"/>
        <path id="Path_3148" data-name="Path 3148" d="M446.978,414.5c0-.087-.5.294-.5.294l-.774.483a1.375,1.375,0,0,0-2.239,1.072,1.337,1.337,0,0,0,.035.3l-1.3.814s-.193.172.15.172.322-.085.408.021.172.237.3.237a.307.307,0,0,0,.108-.028,3,3,0,0,0,.429.2c.112.031.547-.26.774-.42a1.376,1.376,0,0,0,1.831-1.106c.233-.148.666-.422.713-.469a1.273,1.273,0,0,0,.023-.484l.016-.009s.063-.152.085-.237-.172-.366-.172-.366a3.989,3.989,0,0,0,.11-.472m-.526.568.244-.139.023.129a.517.517,0,0,1,.064.237.906.906,0,0,1-.01.143l-.652.4a1.346,1.346,0,0,0-.254-.409l.585-.364m-3.368,2.57a.785.785,0,0,0-.169-.15l-.26-.087.185-.112s.335-.176.728-.422a1.369,1.369,0,0,0,.256.406l-.629.392a.129.129,0,0,1-.112-.028m.582.228a.959.959,0,0,1-.235-.087c.131-.082.326-.2.559-.35a1.637,1.637,0,0,0,.209.136,3.789,3.789,0,0,1-.533.3m1.136-.443a1.088,1.088,0,1,1,1.087-1.089,1.087,1.087,0,0,1-1.087,1.089m1.418-1.073v0a1.343,1.343,0,0,0-.033-.291l.544-.338c-.007.087-.014.2-.026.26-.017.085-.341.286-.484.371" transform="translate(-417.695 -411.679)" fill="#1a1311"/>
        <path id="Path_3149" data-name="Path 3149" d="M449.746,421.157a3.134,3.134,0,0,1-1.1.274.6.6,0,0,0-.148.024c.084-.051.148-.092.148-.092l-.561-.042-.192.042a.366.366,0,0,0,.054.192c.056.068.056.082.166.082a.912.912,0,0,0,.28-.12l-.021.078a4.533,4.533,0,0,0,.958-.108c.411-.11.74-.521.411-.329" transform="translate(-413.429 -406.762)" fill="#1a1311"/>
        <path id="Path_3150" data-name="Path 3150" d="M449.949,420.455c-.145.024-.12.049-.12.049s.528.071.626.071.624.024.528-.024a9.4,9.4,0,0,0-1.033-.1" transform="translate(-411.996 -407.246)" fill="#1a1311"/>
        <path id="Path_3151" data-name="Path 3151" d="M451.312,420.414s-.74-.206-.842-.206-.864.063-.946.063a1.412,1.412,0,0,0-.329.122l-.533.192-.444.2s-.254.157-.481.326c-.091.066-.232.178-.225.166l-.035.049c-.084.084-.124.153-.085.188,0,0-.218.3-.2.382.007.026.07.042.157.049a.42.42,0,0,0,.047.11c.1.164.328.624.328.361,0-.148.01-.338.019-.476a.346.346,0,0,0,.094-.016c.03-.021.669-.1.711-.232l-.049-.1-.038-.082-.228-.124.185-.082.227-.143a1.13,1.13,0,0,0,.246.082c.063,0,.209.157.209.157l.143.049a2.112,2.112,0,0,0,.9-.247c.349-.226-.268.078-.132-.005s.153-.528.153-.528a.751.751,0,0,1,.308-.042c.1,0,.2.009.3.007l-.092.117s-.315.355-.4.437a1.11,1.11,0,0,1-.2.167,7.722,7.722,0,0,0,.739-.359,4.912,4.912,0,0,0,.287-.411h0l.066-.019c.286-.1.143-.145.143-.145m-1.382.453a.464.464,0,0,0-.061.118h0a.219.219,0,0,1-.073-.047c.005.04,0,.037-.066-.092-.145-.268.061-.206.061-.206l.016.005.24-.037a1.575,1.575,0,0,1-.117.258" transform="translate(-413.954 -407.429)" fill="#1a1311"/>
        <path id="Path_3152" data-name="Path 3152" d="M468.32,449.81c-.274-.713-1.042-2.41-1.26-3.012a7.969,7.969,0,0,0-.631-1.26l.11-.247.315-.089.232-.1.247-.273h.3l.22.3a9.482,9.482,0,0,0,1.889-.054c.3-.066.664-.171.957-.261.3.139.641.3.686.315.084.028,2.411,1.124,2.685,1.232s1.781.9,1.781.9v-.739a9.509,9.509,0,0,0-1.124-.659c-.437-.192-3.478-1.232-3.478-1.232l.383-.437.035-.056c.5.15,1.352.4,1.58.439.329.054.767.328.9.328s.22-.164.192-.355a.478.478,0,0,0-.246-.3s-.685-.11-.9-.164l-1.279-.321.347-.53s.411-.246.357-.355l-1.507-2.958s-.164-.355-.3-.383a1.926,1.926,0,0,0-.794.439c-.136.136-1.176,1.04-1.176,1.04a10.905,10.905,0,0,0,1.533-4.053,18.9,18.9,0,0,0,0-3.7,5.258,5.258,0,0,0-.138-.547l.138.056,1.479.93s.542.422.878.662a.32.32,0,0,1,.134.186l.3.74a11.375,11.375,0,0,1,.9,3.067c.08.749.192,5.232.22,5.314s.082-.056.082-.056a.81.81,0,0,0,.136-.192c.056-.108-.087-3.859-.136-4.737a12.94,12.94,0,0,0-.822-3.725l-.437-.437,2.629-.166.192-.876-3.685-.016-2.34-1.3s-.324-.687-.383-.9c-.08-.288-.16-1-.235-1.57.064-.087.157-.214.176-.253a5.273,5.273,0,0,0,.578-1.6,7.11,7.11,0,0,0-.211-2.061,8.219,8.219,0,0,0-.336-1.033,8.051,8.051,0,0,0-.765-1.545,3.127,3.127,0,0,0-.7-.664,3.979,3.979,0,0,0-.767.017,3.855,3.855,0,0,0-.206-.547l-.11-.192-.383-.659a2.9,2.9,0,0,0-.274-.767c-.166-.246-.9-1.2-.96-1.314a.635.635,0,0,1-.028-.293l-.425.068a44.36,44.36,0,0,0-4.915,1.7,14.841,14.841,0,0,0-3.4,2.15c-.646.681-2.68,2.931-2.931,3.218a5.586,5.586,0,0,1-2.025,1.366c-.233.049-.321.056-.333.044-.026.042-.052.084-.08.124a1.086,1.086,0,0,1-1.26.3c-.355-.138-.274-.549-.274-.685a6.327,6.327,0,0,1,.11-1.533.783.783,0,0,1,.6-.439c.136-.028.711-.028.711-.028l-.047-.035.293.157a.808.808,0,0,1,.275.317,1.313,1.313,0,0,1,.164.713,4.443,4.443,0,0,1-.483,1.089,1.564,1.564,0,0,1,.213-.1,2.353,2.353,0,0,0,.742-.352,7.673,7.673,0,0,0,1.472-1.324c.791-.826,2.431-2.721,3.04-3.26a16.487,16.487,0,0,1,3.288-1.931c.772-.3,4.652-1.561,4.652-1.561l.958-.249.058-.038c.165-.11.509-.155.535-.51.01-.134.005-.19-.014-.211s-1.371.211-1.678.216c-.531-.742-2.92-4.152-3.471-4.727-.631-.657-1.725-.355-2.465-.136a26.048,26.048,0,0,0-4.382,1.971,41.706,41.706,0,0,0-5.039,3.643,3.735,3.735,0,0,0-.549,2.328,19.6,19.6,0,0,0,1.892,3.584l-.03-.023a.99.99,0,0,0-.711.355,2.024,2.024,0,0,0-.6,1.15c-.009.084-.009.237-.007.413a1.882,1.882,0,0,0-.965-.228,4.024,4.024,0,0,0-.918.227,1.618,1.618,0,0,0-.493-.437,1.938,1.938,0,0,0-1.26-.247,2.442,2.442,0,0,0-1.054.653.8.8,0,0,1-.589-.051,2.457,2.457,0,0,0-1.124.059,1.394,1.394,0,0,0-.46.369c-.075.1-.112.192-.139.19l-.033.091a7.622,7.622,0,0,1-.608.547,8.847,8.847,0,0,0-1.239,1.491v0a15.176,15.176,0,0,0-.725,1.633,24.257,24.257,0,0,0-.93,2.328c-.082.383-.192,1.479-.192,1.479l-.275.493-.958,2-.273.423a1.364,1.364,0,0,0-.465.042l-.11.054a1.035,1.035,0,0,0-.439.275l-1.26,1.917s-1.012,1.89-1.4,2.382-1.234,1.863-1.425,2.028a19.846,19.846,0,0,0-1.37,3.04c-.493,1.26-1.944,6.353-1.944,6.353l-.219.986-.218.74h.474a12.675,12.675,0,0,1,.786-2.11c0-.164,2.41-6.245,2.573-6.682s.549-.876.822-.876c.219,0,1.016.089,1.319.124a.09.09,0,0,1,.1-.042c.11.028.261.219.371.273s.15-.028.15-.11-.054-2.136-.054-2.136,1.465-1.589,1.657-1.89.164-.465-.1-.19-.521.519-.521.519l-1.315,1.451a13.389,13.389,0,0,1-1.08,1.068,3.736,3.736,0,0,1-.74-.164l.645-1.451.849-1.561s.028.629.465.082,1.178-1.4,1.178-1.4l.359-.2a2.05,2.05,0,0,1-.209-.772c-.009-.2-.005-.366,0-.51.01-.2.028-.361.04-.488l.124-.11s-.028.275-.049.58v0c-.005.064-.01.131-.014.2,0,.03,0,.059,0,.089v.021c0,.028,0,.054,0,.08v.007l.007.089v.007a1.5,1.5,0,0,0,.117.488.493.493,0,0,0,.054.059s.76.626.958.8c-.207-.106-.375-.19-.4-.2-.047-.016-.507-.3-.465-.185a5.248,5.248,0,0,0,.6.6,3.816,3.816,0,0,0,1.368.629c.2.045,1.425.028,1.425.028s.629-.11.6.164-1.288,1.068-1.425,1.178a1.323,1.323,0,0,0-.328.549,14.955,14.955,0,0,0,1.725-.986c.11-.082.465.11.465.11s-1.232.821-1.671,1.178a3.1,3.1,0,0,0-.958,1.2c-.028.247,1.451-.821,1.781-.986s1.944-1.094,1.944-1.094l-.054.328s-.329,1.561-.385,1.643-.218.74-.274.9a1.473,1.473,0,0,0-.047.228l-.007-.009-.094.073.038-.155a2.132,2.132,0,0,1-.657-.082c-.11-.084,0,0,.082-.192a5.312,5.312,0,0,0,.383-.713c.11-.329-.519.136-.6.192a4.1,4.1,0,0,0-.493.521,10.617,10.617,0,0,1-.768.767,1.642,1.642,0,0,1-.6.164c-.11,0-.6.082-.822.082-.185,0-1.068-.136-1.068-.136l-.247.04s-.636.493-.882.72-.556.493-.514.615,0,0,.143-.04,1.3-.923,1.554-1.113c.2.049.493.134.493.134l.493.01a1.726,1.726,0,0,1-.274.181c-.082.028-2.875,2.246-3.342,2.683l-.479.46c-.009.068.005.108.056.11a16.885,16.885,0,0,1,2.363-.922,7.014,7.014,0,0,1,.678-.578,18.279,18.279,0,0,0,1.437-1.192.446.446,0,0,1,.063-.08l.183-.044c.1.07.439-.005.544.091-.263.331-.535.673-.625.814-.192.3-1.4,1.533-1.479,1.808a5.129,5.129,0,0,1-.465,1.068c-.042.028-.5.7-.85,1.1,0,0-.328.829-.04.542s.05,0,.05,0c.714-.737,2.371-2.741,2.483-2.852.138-.138,2.136-3.424,2.192-3.506a3.985,3.985,0,0,1,.808-.294c-.017.131-.051.369-.07.486-.014.091-.05.737-.08,1.3l0-.014c-.024-.434-2.485,3.734-2.566,3.9A15.893,15.893,0,0,1,436.385,453c-.862.617-1.068.793-1.4.793a.335.335,0,0,1-.369-.246l-.024.037,0-.049c-.132-.057.5-1.141-.228-.422s-1.033,1.11-1.1,1.133c-.247.082-1.15,0-.9-.781a7.542,7.542,0,0,1,.685-.988c.652-1.15.234-.819-.08-.634-1.068.631-2.492,2.816-3.342,3.607h.821l.017-.014h2.005l-.064.042h1.767l.246-.124h1.6l.9.166.727-.152h.679l-.009.028h.7l0-.028h2.9l.439-.054.22-.768-.181-.585c.141.1.275.2.4.3a4.887,4.887,0,0,1,1.089,1.255h.6a.322.322,0,0,0-.009-.042h8.13l.014.021s.657.082.636,0l-.01-.021h1.747l.023.054h5.807s-2.685-1.971-3.122-2.356a37.368,37.368,0,0,1-2.739-4.436l-.206-.138c-.415-.89-.9-1.908-1.164-2.356-.439-.739-1.1-2.08-1.4-2.464s-.575-.767-.575-.767a1.035,1.035,0,0,0,.3-.166c.172-.124.432-.159.3-.284.4-.174.7-.3.765-.319.164-.054,1.479-.246,1.479-.246s2.739,1.725,2.985,1.863,1.042.657,1.124.713.136.383.192,0-.047-.364,0-.493c.136-.383.958.328,1.122.519s.713,1.315.9,1.671,1.342,2.356,1.423,2.411c.026.016.122.19.237.362.166.289.307.53.312.54a25.118,25.118,0,0,0,2.711,3.013c.521.467,2.384,1.89,2.685,2.082s.849.493.849.493.547.192.274-.219-1.917-1.37-2.274-1.725a7.875,7.875,0,0,0-1.094-.794c-.3-.22-1.645-1.643-2.054-2.108-.258-.293-.6-.788-.842-1.112.1-.132.253-.328.423-.552.024.054.047.094.047.094s.453.638.507.72,2.192,2.356,2.246,2.438.493.685.685.713a1.594,1.594,0,0,1,.164.082,8.538,8.538,0,0,0,1.1-.054.69.69,0,0,1,.118.01c.239.3,1.059,1.8,1.2,1.906a2.969,2.969,0,0,1,.383.6l.246.329h.467s-.794-1.808-.96-2.274-1.04-2.711-1.314-3.424m-18.049-28.156c-.052-.1-.307-.523-.5-.847a4.582,4.582,0,0,1-.284-1.193,2.316,2.316,0,0,1,.866-1.525c1.268-.953,3.385-2.457,3.913-2.789a28.531,28.531,0,0,1,4.436-1.971,2.679,2.679,0,0,1,2-.028c.282.188,3.33,4.274,3.361,4.358l.294.373s-4.506.939-5.135,1.131a10.91,10.91,0,0,0-3.26,1.972,50.251,50.251,0,0,0-3.833,4.71s2.533-3.723,3.067-4.34a13.484,13.484,0,0,1,2.814-2.115,5.964,5.964,0,0,1,1.932-.659c.505-.1,2-.409,3.117-.645,0,0,.24-.073.261-.125s-.3.031-.3.031l-1.108.239c-.97.2-1.9.38-2.075.418a5.73,5.73,0,0,0-1.911.657,11.757,11.757,0,0,0-2.835,2.178c-.53.615-1.613,1.847-2.417,2.758a.36.36,0,0,1-.34.141,2.038,2.038,0,0,0,.443-.838c.028-.164-.075-.16-.263.047-.369.406-.225.223-.551.62a.514.514,0,0,1-.122-.138,6.646,6.646,0,0,0-1.255-1.892c-.178-.286-.3-.488-.322-.528m21.007,21.337s.328-.575.465-.439a.462.462,0,0,1,.164.329c0,.082-.437.3-.437.3s-2.082.629-2.274.713-.671.211-.6.108,2.685-1.012,2.685-1.012m-7.506-22.047a5.008,5.008,0,0,1,.96.218c.054,0,0,.22,0,.22a7.5,7.5,0,0,1-1.1-.3c-.082-.082-.028-.11.136-.136m-9.82,5.267-.026.051-.005-.019.031-.031m-.176.237c0,.019.009.044.016.07l0,0a.227.227,0,0,1-.014-.075v0m-8.929.493a1.212,1.212,0,0,1,.329-.547,1.2,1.2,0,0,1,1.014-.247c.355.084,1.012.85,1.012.85s.329-.192.493-.275a1.147,1.147,0,0,1,.575-.164,3.48,3.48,0,0,1,.822.247s.108.068.11.1c.01.378.026.746.026.746l-.246,1.917s-.383,1.206-.411,1.315a4.749,4.749,0,0,1-.739,1.2,1.543,1.543,0,0,1-1.1-.054.358.358,0,0,1-.052-.024.987.987,0,0,1-.057-.221,4.79,4.79,0,0,1,.164-.96l.021-.1.078-.056a6.782,6.782,0,0,0-.139,1.031.541.541,0,0,0,.145.206.511.511,0,0,0,.1.077c.082.054.124.047.343.089s.206-.028.274-.056-.138-.054-.3-.054c-.118,0-.335-.051-.383-.155a1.1,1.1,0,0,1-.054-.324l.178-.918a1.267,1.267,0,0,1,.629.014.418.418,0,0,1,.308.329c.042.164-.061.643,0,.657a1.1,1.1,0,0,0,.247-.638c-.042-.122-.084-.308-.206-.348a3.256,3.256,0,0,0-.8-.227.957.957,0,0,0-.308.1l-.087.165.244-1.181a1.519,1.519,0,0,0,.07-.34c-.028-.11.136-1.876.054-1.89a8.39,8.39,0,0,0-.22,1.425l-.274,1.424-.249,1.035a3.682,3.682,0,0,1-.326.774,1.158,1.158,0,0,1-.9.082.925.925,0,0,1-.26-.3c-.014-.279-.014-.612-.014-.744,0-.057,0-.185,0-.345l.113-.026.005-.005c-.009.2-.038.782-.026.842s-.1.1.042.206l.136.11c.084.1.206.082.329.089a1.977,1.977,0,0,0,.4-.049c.054-.014-.082-.04-.082-.04a4.246,4.246,0,0,1-.521-.056.4.4,0,0,1-.132-.047l-.017-.159c-.014-.1.033-1.054.033-1.054l-.035.023a.117.117,0,0,1,.035-.023,3.626,3.626,0,0,1,.6.042.392.392,0,0,1,.267.082c.124.061.226.288.287.308s0-.186-.143-.371-.206-.206-.39-.206-.739.042-.739.042l-.153.207c.007-.544.023-1.378.023-1.378l-.153-.939-.005-.085c-.019-.338.021-1.14.021-1.14m-2.58,1.122a2.322,2.322,0,0,1,.169-.65c.035.009.272-.455.368-.577s.38-.047.544-.068a3.913,3.913,0,0,1,.794.176l.181,0a.476.476,0,0,0-.117.033c-.117.057-.03.681-.03.681s.206,2.023.206,2.1-.124.932-.124,1.042a1.7,1.7,0,0,1-.7.615c-.136,0-.366-.091-.639-.446a3.142,3.142,0,0,1-.246-.69,2.575,2.575,0,0,0-.319-.822,10.826,10.826,0,0,1-.089-1.4m-1.2,13.2c-.246,0-2.192.108-2.384.082a4.465,4.465,0,0,1-.657-.22s-.437-.228-.814-.422l-.173-1.085s1.1-2.715,1.533-3.807c.1-.267.328-.326.343-.369a.78.78,0,0,1,.033-.077l.2.2s.657.274.849.383a4.15,4.15,0,0,0,.986.274c.493.11.329.138.465.082s-.657-.383-.9-.493a7.749,7.749,0,0,0-1.15-.328l-.43-.145a.56.56,0,0,1,.169-.2,4,4,0,0,1-.113-1.005c.078-.416.188-1.009.237-1.34a12.185,12.185,0,0,1,.711-2.077l.221-.141s.26-.1.441-.152c0,0,.223-.075.244-.129s-.279,0-.279,0c-.118.049-.244.1-.3.113a1.021,1.021,0,0,0-.288.228,6.594,6.594,0,0,0,.343-.894c.024-.037.11-.171.228-.347a5.821,5.821,0,0,1,.756.052c.329.056.329.084.383.028s0,0-.136-.11a2.971,2.971,0,0,0-.892-.136,7.526,7.526,0,0,1,.662-.852,1.3,1.3,0,0,1,.707-.416,1,1,0,0,0-.005.2c.023.19.1,1.18.1,1.18l.03.171,0,.021a1.019,1.019,0,0,1-.049.232l.023.152s.617,1.918.594,1.924a7.644,7.644,0,0,0,.167.976,1.67,1.67,0,0,0-.516.249c-.082.138-.437.411-.519.521s.246-.11.437-.355a1.2,1.2,0,0,1,.639-.326.779.779,0,0,0,.183.244.4.4,0,0,0,.045.03,3.232,3.232,0,0,0-.854.6c-.164.287-.329.411-.369.657s.287-.246.369-.409a8.948,8.948,0,0,1,1.547-.779l.082-.016a1.986,1.986,0,0,1,.6-.056,4.879,4.879,0,0,0,.9,0,2.432,2.432,0,0,1,.547-.3c.11,0,0,0,.22.521s.794.138,1.014.028.409-.657.409-.657a.445.445,0,0,1,.035-.24,4.213,4.213,0,0,0,.862-.9,15.061,15.061,0,0,0,.742-1.816,5.027,5.027,0,0,1,1.1-1.286c.152-.129.822-.685.822-.685a5.431,5.431,0,0,1,1.26-.6c.273,0,.6-.028.631.247a.7.7,0,0,1-.084.437.666.666,0,0,1-.094.143l-.953.713-.753.906-.547.9a20.293,20.293,0,0,0-.713,1.927,6.143,6.143,0,0,1-.939,1.3l-.037.031-2.92,2.434v.056l-1.078.348a3.453,3.453,0,0,0-1.07.294,5.213,5.213,0,0,0-.533.612.449.449,0,0,0,.01-.085c0-.246-.72,1.295-.822,1.458s-1.232,1.87-1.232,1.87c0,.143.124-.042.206-.145.056-.07.453-.685.721-1.089-.2.355-.871,1.521-.941,1.638l.53-.016c-.286.033-.655.044-.8.044m1.648-.707-.005.023a.2.2,0,0,1-.03.064Zm7.363,13.825a1.381,1.381,0,0,1-.287.136c-.01.028-.068.056-.206.084-.549.11-2.411.164-2.795.274l-.009,0c.172.45-1.122-.007-1.471-.056a1.346,1.346,0,0,1-.615-.355,5.8,5.8,0,0,1-.808-.411c-.1-.063-.2-.125-.307-.185-.655-.312-1.876-.742-1.876-.742-.186-.085-.373-.167-.545-.24-.225-.2-.557-.531-.557-.531l-.3-.289c-.094-.094.249-1.173.24-1.218-.026-.164,1.37-.519,1.589-.685s-.054-.328-.164-.493a4.459,4.459,0,0,0-1.26-.355l.127-.464.064,0,.134-.033.6.225s.22,0,.26-.082.247-.11.343-.247a4.8,4.8,0,0,0,.273-.547l.054-.206.61-.387v.037l.166.145a3.613,3.613,0,0,0-.131.876c.061.082.767.376.787-.054s.117-.521.117-.521a.591.591,0,0,1,.589-.028,5.72,5.72,0,0,1,1.383.859,1.924,1.924,0,0,0,.7.62,5.2,5.2,0,0,1,.594.315,1.961,1.961,0,0,0,.172.232c.145.166,1.227,1.136,1.37,1.315a.624.624,0,0,1,.075.462c-.322-.131-.662-.246-.7-.277-.082-.061-1.993-.9-1.993-.9-.512-.225-.493,0-.554.042a8.234,8.234,0,0,0,1.047.514c.308.164.432.328.638.409.141.057.934.565,1.443.878a7.52,7.52,0,0,0,.817,1.066,5.845,5.845,0,0,0,.711.219c.274.056-.164.493-.328.6m2.793-8.82c.218.345,1.085,2.35,1.774,3.934a43.064,43.064,0,0,1,1.568,4.392c-.038.227-.153.246-.275.2-.246-.291-.545-.657-.847-1.033-.765-1.12-1.89-2.835-1.89-2.835l-.005.033-.023-.033a19.465,19.465,0,0,0-1.444-1.87.241.241,0,0,0-.185-.082c-.124,0,0,.349.246.8.1.174.3.577.538,1.038l0,0c-.152.038-.617-.369-.89-.624a8.436,8.436,0,0,0-1.061-1.218c-.411-.432-1.9-1.615-2.507-2.136-.143-.124-.1.308-.04.409s1.7,1.542,2.054,1.849c.118.106.3.289.514.512.289.737,1.012,2.946,1.108,3.234a20.5,20.5,0,0,0,1.206,1.917h-.549l-.328-.341-.268-.329s-.463-.505-.911-.991l-.519-.692-.51-.436c-.1-.127-.218-.265-.3-.345a12.313,12.313,0,0,0-1.171-1.049,1.479,1.479,0,0,0-.39-.206l-.2-.141c-.026-.033-.049-.063-.063-.084-.033-.05-.08-.12-.129-.192.1-.1.108.054.287.068s.341.054.355-.042a.741.741,0,0,0,.01-.256c.045.028.077.031-.031-.113a6,6,0,0,0-.575-.636c-.185-.185-.822-.72-.925-.8a.328.328,0,0,0-.185-.082l-.164-.021a.259.259,0,0,0-.021.206l.127.136-.017-.005.561.725s.1.068.028.11a.788.788,0,0,1-.232.094l-.077-.052c-.206-.145-1.356-1.254-1.356-1.254l-.533-.43-.091-.052c.113.005.216.01.275.01a1.1,1.1,0,0,0,.38-.159,1.5,1.5,0,0,0,.373.077.5.5,0,0,0,.26-.054c.033-.01.064-.1.092-.22.068-.049.223-.164.439-.319.049.286.146.686.16.8.021.164.308.246.556.308s.061-.369.04-.472c-.014-.071-.087-.7-.131-1.087.749-.54,1.73-1.237,2.438-1.706.113.315.383.965.474.944.11-.028-.11-.9-.11-1.042,0-.112.237-.277.324-.335l.045-.026.341-.132s.275.275.357.247.028-.274.136-.329a2.106,2.106,0,0,1,.521-.054c.082.082,1.04,1.753,1.37,2.272m4.19-4.847c-.136,0-1.206.329-1.451.383s-1.232.329-1.232.329l-.357.136s-1.2.357-1.533.411a11.661,11.661,0,0,0-1.944.876c-.685.357-2.739,1.671-2.986,1.863a22.035,22.035,0,0,1-2.108,1.425.734.734,0,0,0-.355.218s-.329.028-.631.056a2.853,2.853,0,0,0-.821.383,3.382,3.382,0,0,0-.549.521l-1.7,1.094-.247.028h-.11s-.026-1.314,0-1.89c.007-.124.007-.223.005-.3a5.444,5.444,0,0,0,.324-.655,10.035,10.035,0,0,1,.383-1.37,5.416,5.416,0,0,0,.274-1.068l.9-2.547-.082-.383-.007.012.2-.505.794-1.451s.026-.11.218-.22a.576.576,0,0,0,.247-.246l.9-.465s1.2-.3,1.286-.357c.77-.552,2.795-2.437,2.795-2.437s.493-.437.6-.547a7.614,7.614,0,0,0,.465-1.014l.657-1.889.411-.713.629-1.4a1.322,1.322,0,0,1,.166-.136c.063-.044.033-.045.164-.138l.547.958s-.343-.066-.409.082a2.634,2.634,0,0,0-.082.96s.547,1.04.93,1.615,1.429,2.117,1.617,2.328c.218.247.3.22.629.273a2,2,0,0,1,1.315.713,28.866,28.866,0,0,0,2.492,2.41,16.353,16.353,0,0,1-2.356,2.657m.486-12.316-.11.068c-.1.061-.944.615-.944.615s-.9.937-1.1,1.145c0,0-.411-.768.051-1.115a6.259,6.259,0,0,1,2.106-.713m-.842-.172c.023-.092.723-.106.847-.106-.122,0-.728.1-.728.1s-.146.118-.118.009m-.993,2.561-.329.657s-.04.145-.061.021-.042-.164,0-.247.329-.575.432-.533-.042.1-.042.1m3.047,5.518c-.092-.106-1.918-2.629-1.918-2.629a5.979,5.979,0,0,0-.437-.547,4.084,4.084,0,0,1-.171-.89c-.028-.11-.166.246-.166.521,0,.2.045-.092.028.167-.223-.416-.5-.808-.568-.969-.206-.493.044-.559.044-.723,0-.122.6-.408.655-.38l.019,0a4.236,4.236,0,0,0,.967-.091c.39-.061.7-.206.7-.329s-.143-.019-.39.063a6.387,6.387,0,0,1-1.005.122s-.023.007-.058.014h-.23a.3.3,0,0,0-.094.026l.23-.368s.972-.206.9-.206h-.521c-.054,0-.071.005-.075.012l-.021-.012c-.007-.005.063-.286.11-.472.023-.094.08-.139.145-.1a1.3,1.3,0,0,0,.493.145c.321.021.6-.39.6-.39l.061-.369-.01-.1.709-.124.05.007c-.037.136-.085.273-.085.273s-.082.26.042.246.11-.178.315-.233.3-.108.409-.068a.867.867,0,0,0,.23.071,2.466,2.466,0,0,1,.394.915c0,.329,0,.925-.021,1.047s.082.329.082.411.329.124.411.185c.042.031.082.659,0,.678a1.668,1.668,0,0,1-.4.077c-.087,0-.131-.218-.136-.24a2.178,2.178,0,0,1,.04-.432l-.143.042a.191.191,0,0,0-.268.124,1.308,1.308,0,0,0-.075.549l-.007.005c-.124.145-.707,1.768-.542,1.789s.624-1.023.624-1.023a2.673,2.673,0,0,0,.247.465,2.239,2.239,0,0,0,.6.4,3.962,3.962,0,0,0,.842-.019,5.309,5.309,0,0,0,1.124-.808c.061-.1.239-.39.437-.657a3.936,3.936,0,0,0,.35-.6l.2-.287a.9.9,0,0,1,.453-.227,1.121,1.121,0,0,0,.349-.1.9.9,0,0,0,.206-.288,3.927,3.927,0,0,0,.061-.472.827.827,0,0,0-.038-.368.546.546,0,0,1,.1.059c.061.061.636.349.8.472s1.108.575,1.253.638.369.143.575.246a.3.3,0,0,0,.112.033l.176.439s-.042.1.042.063.143-.289.143-.289a1.935,1.935,0,0,0,.009-.483c-.005-.12-.068-.366-.152-.4s-.636-.282-.936-.437a.61.61,0,0,0,.167.019c.145-.03-.087-.115-.087-.115l-1.873-.552-.1-.028.617.308a6.076,6.076,0,0,1-.608-.141,4.091,4.091,0,0,0-.707-.237.256.256,0,0,0-.073-.03c-.1-.021-.185.185-.1.185a.962.962,0,0,1,.249.05c.078.047.169.092.253.132l.033.125v.061a1.375,1.375,0,0,1-.021.493,1.073,1.073,0,0,1-.164.287l-.005.016c-.024-.021-.059-.047-.1-.077-.1-.082-.472.1-.472.1l-.659.617a1.191,1.191,0,0,1-.334.328,1.974,1.974,0,0,1-.692.267.743.743,0,0,1-.355,0c-.038,0-.16-.087-.185-.089a2.315,2.315,0,0,1-.275-.383c-.136-.26-.023-.437-.063-.559a10.1,10.1,0,0,0-.437-1.145,4.385,4.385,0,0,0-.491-1.131,11.431,11.431,0,0,0-.843-1.129s-.213-.068-.315-.089-1.087-.23-1.19-.247a16.492,16.492,0,0,0-1.918.357c-.411.11-1.012.328-1.012.328a.337.337,0,0,1-.146-.272s.594-.387.594-.51-.124-.005-.545.273a1.544,1.544,0,0,1,.333-.465c.082-.085.169-.178.26-.279.017-.007.031-.016.047-.023a6.552,6.552,0,0,0,.758-.493s.035-.162-.091-.084c-.071.044-.051.028-.427.274.314-.362.666-.793,1.052-1.27a8.636,8.636,0,0,1,1.068-1.012c1.014-.718,2.378-1.364,2.683-1.617.228-.186-2.159,1.145-1.915.974.389-.27.793-.519,1.2-.749a32.65,32.65,0,0,1,3.49-1.633,1.891,1.891,0,0,1,.7.038c.3.085.549.178.728.247l.005.009a2.561,2.561,0,0,1,.7.225c.042.082-.287.061-.369.04-.028-.007-.092-.016-.164-.026l.22.322a1.841,1.841,0,0,1,.549.188c.04.082-.287.061-.369.04l-.026-.005.1.152c.24-.017.6-.038.563.023-.052.087.035.009-.183.044-.1.016-.207.03-.3.044l.24.354.707-.354h.247a6.47,6.47,0,0,1-.855.5l.131.192.725-.4v.164l-.659.329-.016-.016.03.044.822.958.355.164.082-.136.028-.056-.11-.355v-.671c.035-.148.066-.355.247-.446a.675.675,0,0,1,.45-.066,2.674,2.674,0,0,1,.967.95c.1.145.908,2.208.908,2.208a7.249,7.249,0,0,1,.113,1.861,7.741,7.741,0,0,1-.383,1.04c-.017.026-.138.234-.22.166a.661.661,0,0,0-.056-.193c-.108-.164-.685-1.807-.849-2.19a2.235,2.235,0,0,0-.19-.436l.061-.23a1.566,1.566,0,0,1,.376.357c.061.124.1.706.164.706s.1-.254.068-.617-.082-.246-.171-.355-.362-.254-.443-.338c-.014-.124.021-.35,0-.477-.019-.164.042-.185.042-.185l.124.04c.124.042.348.72.348.781s.012.124.007.183l.052.049c.047.179.113.4.16.413.082.028.138-.22.138-.355S469,425.68,469,425.6a1.445,1.445,0,0,0-.274-.547c-.138-.166-.481-.521-.74-.521-.082,0-.355.028-.355.192s.082.11.22.164a.642.642,0,0,1,.152.1l.012.232a1.927,1.927,0,0,1-.141.669,2.887,2.887,0,0,0-.434-.615c-.138-.054,0,0,0,.11s1.068,2.657,1.288,3.342a7.7,7.7,0,0,1,.383,1.615c.082.631-.108,2.692-.082,3.615-.12.49-.12,1.119-.233,1.479a5.811,5.811,0,0,1-1.713,2.713,4.885,4.885,0,0,1-2.985,1.176,2.985,2.985,0,0,1-.95-.1c-.967-.917-2.784-2.617-3.145-3.049-.206-.247-.1.456.145.538a22.445,22.445,0,0,1,1.972,2.063,29.746,29.746,0,0,1-3.363-2.465m-1.1-7.558.094-.007c.059-.017.118-.028.118-.028l0,.019h0l-.045.359s0,.134-.066.157-.068-.2-.068-.27a.959.959,0,0,0-.014-.122l-.035-.04c0-.014.005-.026.021-.037l-.007-.031m9.262,12.16.47.573a7.934,7.934,0,0,1-.8-.216,2.062,2.062,0,0,1-.741-.385c-.138-.164.274-.409.383-.491s.138-.165.082-.056c-.03.061.286.335.6.575m-4.675,2.493a.4.4,0,0,0-.279.172,1.04,1.04,0,0,0-.227.714c.005.059.369,1.2.444,1.331.11.192.3.6,0,.192a3.768,3.768,0,0,1-.521-1.342,2.919,2.919,0,0,1-.075-.727.554.554,0,0,1,.411-.486c.2-.021,1.608-.131,1.608-.131s1.753.028,1.479-.3a8.531,8.531,0,0,0-.794-.577,3.778,3.778,0,0,0,1.479.439c.246.054.617.246.727.138s.4-.138.4-.22a4.561,4.561,0,0,1,.439-.657l.437-.385-.073-.016.375-.258-.6-.575-.547-.523.026-.573s.136-.218.246-.383a5.905,5.905,0,0,0,1.7-1.971,7.312,7.312,0,0,0,.3-1.535c.044-.3.258-2.046.319-2.842l0,.035a5.708,5.708,0,0,0,.5.544.469.469,0,0,1,.026.127c0,.192,0,2.41-.054,3.561a15.5,15.5,0,0,1-1.343,3.779l-.235.368-.723.481-.711.876-.383.274a2.938,2.938,0,0,0-.439.219c-.164.11-.22.138-.3.138s-.493-.056-.493-.056l-1.122.007s-1.809.138-1.993.159m3.856,1.2c.1.192-.028.192-.028.192s-.247-.465-.329-.657a.831.831,0,0,1-.054-.411c0-.082.054-.136.164-.192s.028.192.028.357a2.061,2.061,0,0,0,.22.711m2.108,6.765c-.106-.045-.93.164-1.26.138a1.258,1.258,0,0,1-.713-.383l-.01,0c-.03-.037-.054-.065-.071-.085-.164-.192-1.342-1.4-1.89-1.863a2.522,2.522,0,0,1-.62-.782c.5-.657,1.1-1.429,1.279-1.627a3.74,3.74,0,0,1,1.012-.821c.082.026,1.589,3.34,1.944,4.135.2.443.432,1.209.329,1.288" transform="translate(-428.114 -412.874)" fill="#1a1311"/>
      </g>
    </g>
  </g>
</svg>
