<svg xmlns="http://www.w3.org/2000/svg" xmlns:xlink="http://www.w3.org/1999/xlink" width="148.75" height="215.843" viewBox="0 0 148.75 215.843">
  <defs>
    <clipPath id="clip-path">
      <path id="Path_559" data-name="Path 559" d="M55.8,189.8s-13.282,0-13.282,12.4V393.236c0,.192.1,12.4,13.282,12.4H177.986s13.284,0,13.284-12.405V202.2s0-12.4-13.284-12.4Z" transform="translate(-42.52 -189.796)" fill="none"/>
    </clipPath>
    <clipPath id="clip-path-3">
      <rect id="Rectangle_764" data-name="Rectangle 764" width="53.535" height="53.594" fill="none"/>
    </clipPath>
  </defs>
  <g id="Group_775" data-name="Group 775" transform="translate(-42.52 -189.796)">
    <g id="Group_210" data-name="Group 210" transform="translate(42.52 189.796)">
      <g id="Group_209" data-name="Group 209" clip-path="url(#clip-path)">
        <path id="Path_2855" data-name="Path 2855" d="M0,0H164.687V230.731H0Z" transform="translate(-7.968 -7.443)" fill="#bd98c5"/>
        <path id="Path_555" data-name="Path 555" d="M89.261,248.695l.29.138a7.822,7.822,0,0,0,.671,1.21l.189.04a7.307,7.307,0,0,1,1.3-1.127l.349.072a1.7,1.7,0,0,1,.436.761l.151.422.189.1.287-.207c.367-.324.744-.637,1.106-.955l.139-.021.335.332c.123.313.274.612.374.912l.205.166.219-.021a11.057,11.057,0,0,1,1.3-.748l.287.19.162.646.233.384.176.028a2.729,2.729,0,0,0,.983-.482l.465-.107.112.2-.021,1.008.267.362c.511-.256,1.052-.486,1.533-.767l.242.313c.062.249-.011.52.039.771l.267.426a8.751,8.751,0,0,1,1.225-.509l.461.119.1.339.1.541.027.452.2.09c.319-.055.6-.177.938-.209l.454,0,.187.269-.036.4c.039.209.071.426.091.624l.463.117a4.449,4.449,0,0,1,.723-.13l.205.264a6.428,6.428,0,0,0-.192,1.008l.157.147c.463-.023.853-.087,1.259-.128l.237.424a2.8,2.8,0,0,0-.251.993l.16.145a4.238,4.238,0,0,0,1.129-.03l.333.117.016.156a10.3,10.3,0,0,0-.3,1.106l.135.132a13.293,13.293,0,0,0,1.4-.006l.066.245a7.364,7.364,0,0,1-.579.98l-.073.258.176.175a12.1,12.1,0,0,0,1.323.111l.153.234a4.382,4.382,0,0,1-.484.8l-.228.273.4.254a7.56,7.56,0,0,0,1.125.209l.164.194c-.153.241-.379.484-.573.744l-.189.339.119.173a6.29,6.29,0,0,0,1.371.337l.141.164-.228.311c-.287.3-.545.633-.84.893l.144.251c.44.134.906.241,1.339.4l.283.254-.03.1c-.39.3-.693.688-1.07,1.023.059.2.258.279.415.369.292.164.6.311.917.45l.185.162-.121.239a4.612,4.612,0,0,0-.678.577l-.03.051.2.215c.249.151.509.3.764.462l.276.26-.007.181a8.822,8.822,0,0,1-1.063.652l-.1.17.114.126a2.547,2.547,0,0,1,.627.352l.47.249a.369.369,0,0,1,.176.447.724.724,0,0,1-.641.326l-.552.294.039.187a10.58,10.58,0,0,1,1.079.667l.073.156-.192.209a3.106,3.106,0,0,0-1.02.535l-.31.2.082.16a3.9,3.9,0,0,1,.849.563l.328.275v.07l-.328.175a4.387,4.387,0,0,1-.584.217l-.536.251-.082.177a4.634,4.634,0,0,0,.99.788l.169.234-.406.279c-.294.111-.625.177-.938.271l-.169.156.052.141a5.862,5.862,0,0,0,.931.765l-.08.4c-.468.136-.995.211-1.485.324l-.157.209a11.137,11.137,0,0,0,1,1.168l-.036.228a3.134,3.134,0,0,1-1.154.3l-.057.141a2.879,2.879,0,0,1,.668.744l-.1.369c-.5.034-.917.143-1.408.181l-.116.162c.182.469.392.908.573,1.372l-.356.266-1.2-.083-.155.16c.1.454.167.952.278,1.419l-.176.268-.445,0c-.244-.038-.516-.043-.76-.064l-.185.2a13.048,13.048,0,0,0,.258,1.481l-.3.288-.96.077-.189.183a5.866,5.866,0,0,0,.075.976l-.137.181h-.162c-.4-.141-.792-.258-1.184-.379l-.217.422a6.07,6.07,0,0,0,.068.876l-.224.228-.258-.075a9.737,9.737,0,0,0-.954-.407l-.23.213a12.367,12.367,0,0,1-.071,1.27l-.383.245a1.5,1.5,0,0,1-.568-.222l-.472-.19-.246.2c-.173.411-.269.891-.44,1.317l-.3.1c-.285-.147-.563-.311-.869-.439l-.244.03-.119.232c-.071.3-.1.612-.162.927l-.37.173a3.371,3.371,0,0,1-.913-.631l-.283,0a4.511,4.511,0,0,0-.586,1.229l-.351.092c-.354-.16-.548-.479-.851-.684l-.224-.019-.205.369c-.144.332-.244.663-.406.974l-.189.032a4.721,4.721,0,0,0-1.111-.837l-.235.187a3.887,3.887,0,0,1-.543.759l-.333.36c-.249-.09-.367-.337-.534-.52l-.44-.422-.2-.032L91.791,297.5l-.242,0a11.7,11.7,0,0,1-.794-.948l-.24-.187-.255.1a13.321,13.321,0,0,0-1.1,1.074l-.219.028a5.258,5.258,0,0,1-.682-.906l-.224-.311-.276-.036a7.366,7.366,0,0,0-1.143,1.144l-.171,0-.205-.224c-.2-.339-.271-.771-.568-1.014l-.173-.107-.34.164a5.713,5.713,0,0,0-.814.68l-.153.026a11.05,11.05,0,0,1-.767-1.163l-.235-.362-.244.026a10.472,10.472,0,0,0-1.189.929l-.219,0-.11-.175a5.366,5.366,0,0,0-.214-1.513l-.183-.09c-.543.315-1.074.641-1.583.978l-.287-.23a5.808,5.808,0,0,0-.039-1.215l-.167-.128-.456.2c-.354.187-.668.407-1.006.582l-.26-.179a12.307,12.307,0,0,1,.08-1.4l-.182-.141c-.212.072-.424.194-.682.288l-.821.33-.381-.2a4.071,4.071,0,0,1,.24-1.315l-.155-.179a1.711,1.711,0,0,0-.865.307,1.225,1.225,0,0,1-.678.188l-.23-.3a5.3,5.3,0,0,0,.322-1.085l-.162-.17a11.419,11.419,0,0,0-1.351.29L72,291.12l-.059-.181.2-.844-.187-.228-1.027-.015-.365.064-.221-.294a7.726,7.726,0,0,0,.408-1.379l-.157-.16a12.821,12.821,0,0,1-1.373-.015.455.455,0,0,1-.265-.565,3.634,3.634,0,0,1,.4-.972l-.141-.2a4.117,4.117,0,0,1-1.446-.173l-.194-.392a2.548,2.548,0,0,1,.415-.7l.148-.313-.429-.249c-.329-.1-.732-.111-1.072-.207l-.2-.283a3.34,3.34,0,0,1,.616-.906l.091-.341-.2-.126c-.413-.13-.89-.183-1.291-.322l-.139-.377a6.459,6.459,0,0,1,.924-1.014l-.075-.2a8.219,8.219,0,0,0-1.378-.467L64.742,280l.1-.187c.271-.3.6-.539.86-.842l-.032-.249a7.181,7.181,0,0,0-1.218-.6l-.107-.3a3.486,3.486,0,0,1,.949-.8l.009-.26a4.834,4.834,0,0,1-1.246-.729l-.023-.228c.153-.381.6-.5.928-.718l.055-.309a7.831,7.831,0,0,0-1.1-.673l-.075-.441c.338-.3.767-.5,1.134-.773l-.03-.245c-.347-.345-.771-.626-1.125-.97l-.009-.228c.23-.292.657-.4.949-.633l.192-.264a5.441,5.441,0,0,0-.575-.707,2.04,2.04,0,0,1-.417-.526l.358-.332a5.711,5.711,0,0,0,.8-.433l.062-.17a6.741,6.741,0,0,1-.735-1.057l-.05-.207a.828.828,0,0,1,.7-.58l.511-.145.1-.228a6.315,6.315,0,0,1-.659-1.3l.139-.384a1,1,0,0,1,.591-.241l.436-.087.436-.062.089-.145a6.979,6.979,0,0,1-.532-1.261.454.454,0,0,1,.267-.569,4.143,4.143,0,0,0,1.077-.092l.125-.177a8.978,8.978,0,0,0-.413-1.229l.032-.143c.08-.168.335-.164.568-.179.376-.023.748-.047,1.093-.1l.244-.311-.319-.98-.162-.347.18-.207.573-.009a3.452,3.452,0,0,0,.926.077l.167-.222c-.052-.49-.121-.948-.2-1.411l.162-.29.2.015a5.667,5.667,0,0,0,.844.251l.358-.2a10.486,10.486,0,0,1-.148-1.078.364.364,0,0,1,.31-.358l1.417.264.137-.128v-1.131a.5.5,0,0,1,.155-.618l.315-.019a8.657,8.657,0,0,0,1.163.5l.226-.194a12.186,12.186,0,0,1,.233-1.313l.324-.3c.356.2.735.349,1.09.533l.2,0,.121-.177.283-1.025.548-.121.992.546.256-.211c.116-.4.313-.744.429-1.112l.212-.132a5.643,5.643,0,0,1,.618.335,3.843,3.843,0,0,1,.623.373l.317-.381c.119-.3.2-.637.319-.935l.335-.2.139.072a4.642,4.642,0,0,0,.785.663l.226.006.205-.268a6.519,6.519,0,0,1,.411-.808l.379-.128c.3.281.573.626.883.942l.249-.047c.283-.356.552-.718.814-1.1l.313-.228c.212.06.313.288.42.469a8.11,8.11,0,0,1,.668.75l.23-.066a13.629,13.629,0,0,0,1.054-1.2Z" transform="translate(-15.241 -123.196)" fill="#fff3d8"/>
        <path id="Path_556" data-name="Path 556" d="M60.569,256.554l2.037,5.9,6.636-.011-5.375,3.635,2.062,5.892-5.361-3.654-5.363,3.654,2.065-5.892-5.377-3.635,6.636.011Z" transform="translate(-30.511 -114.309)" fill="#fff3d8"/>
        <path id="Path_557" data-name="Path 557" d="M99.421,256.554l2.037,5.9,6.636-.011-5.375,3.635,2.062,5.892-5.361-3.654-5.363,3.654,2.065-5.892-5.377-3.635,6.636.011Z" transform="translate(19.27 -114.309)" fill="#fff3d8"/>
      </g>
    </g>
    <g id="Group_214" data-name="Group 214" transform="translate(42.52 189.796)">
      <g id="Group_213" data-name="Group 213" clip-path="url(#clip-path)">
        <text id="May_see_bank_reserve_cards" data-name="May see bank reserve cards" transform="translate(24.293 186.527)" fill="#1a1311" font-size="8" font-family="AveriaSerifLibre-Regular, Averia Serif Libre"><tspan x="0" y="0">May see bank reserve cards</tspan></text>
        <text id="First_to_have" data-name="First to have" transform="translate(37.468 92.791)" fill="#1a1311" font-size="15" font-family="VTCSuperMarketSale"><tspan x="0" y="0">First to have</tspan></text>
        <text id="_20" data-name="$20" transform="translate(64.883 110.265)" fill="#1a1311" font-size="15" font-family="VTCSuperMarketSale"><tspan x="0" y="0">$20</tspan></text>
        <path id="Path_593" data-name="Path 593" d="M61.212,213a52.911,52.911,0,0,0,9.057.281,50.614,50.614,0,0,0,8.026-1.112c1.394-.322,8.187-1.649,11.662-2.7.5-.149,5.911-1.479,8.153-2.088,4.893-1.332,9.873-2.38,14.778-3.62,2.277-.575,4.542-1.078,6.846-1.547a69.368,69.368,0,0,1,11.281-1.417,29.234,29.234,0,0,1,14.956,3.569,17.557,17.557,0,0,1,3.372,2.312,32.313,32.313,0,0,1,2.566,2.727c.408.445.951-.034.625-.447-.4-.5-.83-.984-1.259-1.466a15.178,15.178,0,0,0-2.124-2.114,39.436,39.436,0,0,0-4.738-3.277,27.9,27.9,0,0,0-7.921-2.7c-9.273-1.892-18.848-.716-27.811,1.95-2.3.684-4.581,1.46-6.889,2.033a35.225,35.225,0,0,0-3.431,1.093c-.484.228-5.991,1.909-6.682,2.118q-2.077.633-4.168,1.229c-1.469.42-2.954.788-4.432,1.178-.593.158-1.239.294-1.836.479-1.239.386-2.471.535-3.7.9a29.374,29.374,0,0,1-3.429.727,69.537,69.537,0,0,1-7.373,1.055,19.609,19.609,0,0,1-6.54-.46c-2.322-.69-4.467-2-5.236-4.3-.819-2.452,1.98-4.434,4.152-5.071a18.373,18.373,0,0,1,8.167-.136c.979.173,3.014.852,2.817,2.084-.1.6-.577.831-1.113,1.087-.4.194-.963.5-.591,1,.589.784,2.628.3,3.456.264,1.2-.055,2.434-.251,3.65-.394a44.67,44.67,0,0,0,8.254-2.039c1.643-.524,3.258-1.117,4.907-1.63,2.195-.684,4.378-1.364,6.577-2.037,1.462-.447,2.979-.663,4.433-1.131.36.006,1.2-.2.963-.718-.157-.341-.94-.279-1.236-.258a34.062,34.062,0,0,0-8.062,1.523c-2.133.695-3.7,1.389-5.489,2.069q-1.82.7-3.643,1.389c-1.074.409-2.224.637-3.29,1.036-.561.209-2.881.776-3.319.865a21.662,21.662,0,0,1-3.223.4c-.6.026-1.175-.026-1.28-.3-.217-.571.265-1.048.265-1.57a5.119,5.119,0,0,0-.084-1.46,5.254,5.254,0,0,0-2.074-2.612c-1.6-1.287-4.362-1.628-6.378-1.483-4.61.286-9.444,2.862-9.563,7.581a7.049,7.049,0,0,0,1.225,3.313A9.514,9.514,0,0,0,55.8,210.6,9.637,9.637,0,0,0,61.212,213" transform="translate(-28.766 -180.251)" fill="#1a1311"/>
        <path id="Path_594" data-name="Path 594" d="M151.651,217.795a8.573,8.573,0,0,0-.792-1.6c-.121-.192-.614-.829-.787-1.031a10.577,10.577,0,0,0-3.057-2.039,9.71,9.71,0,0,0-3.121-.955,27.907,27.907,0,0,0-6.1-.3c-2.076.16-4.341.475-5.258.607-2.14.309-8.1,1.57-9.349,1.864-1.41.332-2.842.59-4.245.942-.678.17-1.289.322-1.985.46-.545.107-3.741.95-4.791,1.151-1.246.236-4.61,1.134-5.1,1.217-.525.092-.992.283-1.526.4-1.079.226-4.17,1.033-4.585,1.144-1.143.3-2.306.575-3.438.916-.315-.015-2.642.658-3.178.805-1.189.326-7.321,1.72-9.2,2.105a46.784,46.784,0,0,1-9.447,1.18c-1.49,0-2.982-.045-4.46-.072-.271-.006-3.023-.347-4.334-.631-.577-.126-1.225-.245-1.814-.394s-.712-.17-1.773-.5a56.177,56.177,0,0,1-5.605-2.681,16.639,16.639,0,0,1-2.742-2.135l-.509-.5c-.436-.441-.477.262-.3.533a11.063,11.063,0,0,0,2.514,2.636,17.1,17.1,0,0,0,2.975,2.141,35.8,35.8,0,0,0,3.9,1.8,50.7,50.7,0,0,0,8.689,2.167,39.731,39.731,0,0,0,7.9.268,52.081,52.081,0,0,0,6.5-.6c1.645-.294,3.16-.569,4.77-.993.358-.094,5.067-1.383,6.118-1.724,3.6-1.168,12.526-3.908,14.979-4.649,1.957-.59,3.876-1.253,5.856-1.777,2.128-.562,4.248-1.057,6.346-1.666.659-.192,2.8-.718,3.217-.8a88.451,88.451,0,0,1,11.806-1.952,13.947,13.947,0,0,1,7.04,1.161,6.176,6.176,0,0,1,2.509,1.994,3.731,3.731,0,0,1,.6,1.634,5.1,5.1,0,0,1,.025,1.685c-.176,2.124-3.26,3.663-5.881,4.08a15.075,15.075,0,0,1-5.014-.309c-.944-.179-2.662-.594-3.31-1.568-.536-.8-.881-1.788.094-2.568.379-.3,1.043-.132,1.248-.686.182-.492-.582-.571-.876-.552l-1.7.126a38.345,38.345,0,0,0-6.15,1.108c-1.487.358-2.991.724-4.455,1.159-.933.277-4.049,1.144-6.842,2.092-1.227.418-2.487.884-3.718,1.289-2.192.722-4.458,1.259-6.716,1.847-1.289.335-2.7.2-3.967.6-1.506.471,1.608.918,2.042.923a27.182,27.182,0,0,0,8.046-1.338c1.1-.328,2.163-.656,3.255-.989,1.223-.373,6.691-2.2,8.1-2.815,1.3-.569,2.683-.9,4.02-1.374,1.389-.492,5.5-1.381,6-1.632.57-.286.269.426.089.6a2.627,2.627,0,0,0-.306,3.134,6.619,6.619,0,0,0,2.227,2.512,12.6,12.6,0,0,0,5.347,1.862,11.464,11.464,0,0,0,6.2-.835,7.551,7.551,0,0,0,4.109-4.732,6.071,6.071,0,0,0-.091-3.739" transform="translate(-27.733 -164.903)" fill="#1a1311"/>
        <path id="Path_595" data-name="Path 595" d="M140.678,209.263l.089.234.062.177.087.121.132.066a.42.42,0,0,0,.577-.2,1.611,1.611,0,0,0,.185-.556l.036-.411.052-.4.021-.181-.023-.183c-.039-.356-.233-.484-.586-.381l-.214.092-.281.313-.31.283c-.292.038-.579.064-.865.079s-.575.028-.865.036l-.4,0-.2-.083-.084-.179-.071-.309.009-.224c.043-.392.073-.784.094-1.174s.034-.784.048-1.176l.036-.349.1-.179.205-.064.36-.017.073,0a7.49,7.49,0,0,0,1.576-.034,5.349,5.349,0,0,1,.9-.036c.3.015.6.03.913.049l.148.032.08.087.048.1-.1.467.027.469a.4.4,0,0,0,.591.285l.183-.051.18-.064.2-.128.082-.2c.009-.262.011-.518,0-.771s-.014-.509-.025-.771l-.014-.07-.244-.26-.187-.047-.2-.006-.468.028-.479.013q-1.786-.054-3.543.06a8.051,8.051,0,0,1-1.262,0,5.074,5.074,0,0,0-.824-.011c-.271.019-.548.045-.828.072l-.262.245-.052.207c0,.29.167.473.5.55a.334.334,0,0,1,.317.36,5.281,5.281,0,0,0,.016,1.247l.014.288-.018.3q-.017.841-.043,1.66a14.725,14.725,0,0,0,.032,1.647l-.016.435-.048.516.055.52a5.734,5.734,0,0,1,.089.684,2.832,2.832,0,0,1-.032.693l-.3.313-.233.041-.235.043-.189.049-.189.051-.139.121-.036.166.014.085.039.141.041.143.214.264.342.075.543-.053.554-.011.2,0,.2-.028a10.473,10.473,0,0,1,1.2-.117c.4-.015.81-.026,1.23-.032q.811-.016,1.613,0c.536.013,1.072.021,1.613.03l.4-.023.388-.094.326-.367q.027-.364.041-.735l.027-.735-.011-.141-.091-.164-.169-.081h-.2l-.187.015-.386.241-.16.3-.071.326-.1.271-.29.124-.157.032-.16.015q-.39.016-.78.026c-.26.006-.525,0-.794,0l-.586,0-.586.053-.347.023-.358-.017-.132-.062-.071-.128-.014-.07-.011-.07-.011-.554-.071-.556-.03-.4-.016-.415-.018-.546-.064-.55-.009-.337.034-.32.048-.089.091-.075.376-.045.322.017.31-.026a3.031,3.031,0,0,1,.721-.034c.24.017.488.023.748.023m-11.32.364-.025.058-.057.021-.233-.243.066-.119.03,0,.014.006.016,0,.137.107Zm2.347-1.719.016,0,0,.162,0,.149a7.7,7.7,0,0,0,.039.891c.032.292.068.586.114.882l.064.4.034.4.007.07-.025.072-.011.03-.03.017-.073.009-.271-.254-.267-.239-.208-.209-.219-.209-.522-.458-.436-.524-.182-.213-.185-.213-.226-.286-.217-.315c-.125-.183-.251-.373-.379-.565s-.253-.381-.379-.565c-.194-.262-.386-.524-.579-.784s-.386-.526-.579-.8l-.084-.119-.114-.1-.233-.173-.192-.217-.155-.139-.224-.062c-.2-.015-.408-.036-.62-.066a1.012,1.012,0,0,0-.636.132l-.219.06-.253.034-.415.058-.417.06-.249.239-.075.347.043.085.075.07.114.03.114.015.379.038.183.092.075.19.05.326.023.175.007.175.055.531.066.528a6.82,6.82,0,0,1,.116.818c.025.279.043.554.057.827q.014.7.073,1.372c.025.3.052.6.084.893s.062.6.1.893l.021.315.048.311a4.851,4.851,0,0,1,.046.616c0,.2,0,.4,0,.605l-.24.352-.155.045-.1.081L124.3,215l-.221.2-.048.062-.016.072-.007.1.023.089.326.2.367.009c.265-.064.532-.119.8-.162s.529-.087.785-.134l.228-.068.21-.092.094-.124,0-.128-.114-.268-.251-.128a.337.337,0,0,1-.356-.3l-.064-.394-.05-.4q-.086-.668-.135-1.319t-.151-1.315c-.048-.324-.1-.643-.167-.957a4.2,4.2,0,0,1-.075-.963l0-.064-.014-.077-.078-.541-.062-.543a2.788,2.788,0,0,1,.112-.984l.05-.034.068.006.322.249.235.3a13.186,13.186,0,0,1,.9,1.144,8,8,0,0,0,.938,1.11l.13.134.1.151a13.293,13.293,0,0,0,1.214,1.532l.1.109.084.111.383.522.37.524a8.066,8.066,0,0,0,.716.916c.26.288.538.565.833.835l.365.241.438.023.194-.028.194-.028.185-.111.087-.215v-.092l0-.119c-.043-.268-.075-.539-.094-.814s-.025-.55-.018-.822l-.021-.428-.066-.422c-.082-.349-.146-.7-.2-1.065a9.554,9.554,0,0,1-.091-1.076c-.014-.271-.032-.543-.057-.818s-.057-.55-.1-.827l-.039-.356-.023-.358-.023-.371-.025-.356,0-.2.011-.219.03-.539-.048-.545.121-.168.146-.051.148-.036.356-.124.178-.315.087-.207-.048-.121-.121-.085-.151-.019-.153,0a6,6,0,0,0-.723.064,3.063,3.063,0,0,1-.725.021l-.324.085-.235.243-.068.17.036.173.121.17a.636.636,0,0,1,.267.492l.048.36.043.349q.031.531.062,1.042c.018.343.036.686.057,1.031m-16.081,5.406-.025-.188-.037-.158a2.078,2.078,0,0,1-.132-.646c-.011-.217-.021-.435-.03-.654l-.023-.5-.078-.471a1.783,1.783,0,0,1-.034-.631q.041-.316.089-.626l.03-.107.032-.107.123-.541.194-.556.292-.452.34-.45.089-.117.094-.092.164-.119.167-.1.543-.268a1.72,1.72,0,0,1,.611-.094l.44.017.427.051a1.264,1.264,0,0,1,.8.482l.292.428.292.428.13.245.1.239c.084.249.157.494.221.735s.135.482.219.722a2.741,2.741,0,0,1,.141,1.161l-.011.254.032.23a2.494,2.494,0,0,1,.052.727q-.024.371-.048.748l-.059.456-.1.45a3.753,3.753,0,0,1-1.268,2.077l-.253.181-.262.124a3.26,3.26,0,0,1-.721.175,2.258,2.258,0,0,1-.719-.026l-.566-.173-.445-.4-.308-.482-.308-.5-.2-.381-.135-.317-.082-.335Zm7.248-2.84-.1-.754a6.363,6.363,0,0,0-.306-.876c-.125-.286-.251-.562-.379-.833a5.533,5.533,0,0,0-.356-.631c-.125-.194-.258-.386-.395-.58l-.258-.292-.283-.258-.308-.217-.333-.183-.335-.132-.5-.128-.557-.053-.547.011-.461.045-.139.028-.153.045-.582.2-.593.234-.233.1-.23.132a2.2,2.2,0,0,0-.611.433l-.525.513a2.736,2.736,0,0,0-.6.8c-.141.292-.287.586-.436.884-.068.311-.141.618-.214.925a4.343,4.343,0,0,0-.119.948c.009.217.021.437.036.658a2.916,2.916,0,0,1-.036.673l.014.213c.043.249.087.5.13.739a2.1,2.1,0,0,0,.26.7l.2.447a4.242,4.242,0,0,0,.436.886,5.826,5.826,0,0,0,.618.778,4.9,4.9,0,0,0,.746.607,2.237,2.237,0,0,0,.919.345l.064.021.062.023a4.04,4.04,0,0,0,.735.132,3.485,3.485,0,0,0,.771-.021l.538-.087.532-.128a2.588,2.588,0,0,0,.757-.3l.575-.369.6-.341.235-.149.214-.2.363-.375.176-.2.119-.232c.039-.092.1-.245.194-.454l.018-.032.018-.032a2.37,2.37,0,0,0,.242-.609,2.694,2.694,0,0,0,.073-.631q0-.329-.007-.665a5.474,5.474,0,0,1,.021-.669l.009-.554Zm-11.014-1.579.271.1.283-.075a.507.507,0,0,0,.258-.539l-.132-.678a.676.676,0,0,0-.4-.582l-.235-.075-.237,0-.4.1-.39.066a6.243,6.243,0,0,0-1.282.364l-.57.194-.591.083-.319.077a4.112,4.112,0,0,1-.906.273c-.3.053-.614.1-.933.124-.278.028-.559.051-.837.07a2.519,2.519,0,0,0-.814.194l-.185.03-.155.021-.484.1-.479.107-.47.315-.08.222c.034.271.078.537.135.8s.119.522.192.784l.219.194h.358l.319-.192.05-.1.016-.1-.043-.309-.059-.3.055-.143.121-.117c.3-.081.6-.158.906-.23s.611-.151.919-.234l.087-.021.363.217.16.467.162.482.08.249.023.277.046.3.057.3a5.152,5.152,0,0,0,.228.893,5.1,5.1,0,0,1,.228.893c.05.258.1.509.162.754a3.94,3.94,0,0,0,.249.722,1.888,1.888,0,0,1,.116.522c.084.422.164.84.244,1.249s.157.829.23,1.253l-.007.075-.009.075-.039.147-.123.109a5.124,5.124,0,0,0-.632.194l-.164.243.066.309.249.136.29-.028.271-.049c.463-.13.922-.251,1.38-.367a8.409,8.409,0,0,1,1.408-.228l.447-.209.162-.183.162-.183.034-.254-.212-.181-.324-.023-.31.117-.212.081-.212-.066-.123-.245c-.05-.209-.1-.415-.137-.618s-.082-.4-.132-.605c-.089-.354-.176-.712-.256-1.072s-.169-.729-.262-1.1c-.128-.558-.256-1.117-.381-1.679s-.253-1.123-.381-1.681c-.043-.211-.078-.418-.107-.618s-.059-.407-.091-.62l-.025-.175v-.2l.242-.39.256-.126.262-.1c.308-.083.614-.158.915-.226s.607-.136.915-.211l.363.217.1.322Zm-10.026,1.579-.1-.509-.114-.226-.208-.16H101.2l-.157.09-.121.2-.116.209-.194.1-.228-.009-.237-.036a3.839,3.839,0,0,0-.874-.068,7.828,7.828,0,0,0-.89.079,5.119,5.119,0,0,0-1.2.339,3.423,3.423,0,0,0-1.052.705l-.367.445a1.514,1.514,0,0,0-.212.537,4.028,4.028,0,0,0-.071,1.038,4.685,4.685,0,0,0,.18,1.006l.137.3.205.268.13.119.135.134a3.526,3.526,0,0,0,.8.6,3.042,3.042,0,0,0,.958.33q.524.118,1.04.224a10.55,10.55,0,0,0,1.061.16l.486.107.454.185.2.1.212.1.424.373a2.521,2.521,0,0,1,.344,1.928,1.2,1.2,0,0,1-.319.571,2.019,2.019,0,0,1-.543.364l-.29.107-.315.07-.3.036-.315-.015c-.34-.072-.666-.16-.981-.26a2.351,2.351,0,0,1-.862-.507,1.918,1.918,0,0,0-.73-.371l-.235.043-.167.158-.039.066-.009.075a4.631,4.631,0,0,0-.055,1.006,7.843,7.843,0,0,0,.11.993l.1.194a.349.349,0,0,0,.447.179.879.879,0,0,0,.433-.2.681.681,0,0,0,.128-.415l0-.251-.009-.266.059-.087.116-.028.21.064a4.445,4.445,0,0,0,2.772.307l.109-.019.107-.034a5.534,5.534,0,0,0,.8-.407,3.416,3.416,0,0,0,.707-.571l.276-.335.16-.379.123-.362.2-.541-.057-.552-.057-.275a2.143,2.143,0,0,0-.173-.594l-.281-.533-.351-.486-.39-.469-.089-.066-.089-.064a3.6,3.6,0,0,0-1-.573c-.363-.139-.723-.286-1.077-.439l-.112-.023-.112-.023-.386-.058-.372-.077c-.253-.045-.5-.092-.751-.141a3.049,3.049,0,0,1-.712-.239l-.128-.07-.1-.1a2.145,2.145,0,0,1-.395-.707,2.631,2.631,0,0,1-.1-.793,1,1,0,0,1,.536-.884l.573-.256a3.525,3.525,0,0,1,.8-.13c.267-.013.532-.013.8,0l.36.128.447.326.386.4.24.175.306-.032.251-.264.03-.187.016-.185-.05-.328Zm-10.539,7.138.135.209.1.158.107.1.144.032a.43.43,0,0,0,.516-.343,1.662,1.662,0,0,0,.064-.588l-.048-.413-.032-.4-.018-.183L92.2,216q-.164-.511-.648-.232l-.187.141-.208.377-.242.356q-.411.16-.821.288c-.271.083-.547.166-.828.245l-.39.1-.212-.032-.116-.153-.135-.288-.036-.222c-.039-.394-.089-.786-.153-1.176s-.125-.778-.194-1.166l-.039-.352.057-.2.185-.113.347-.1.073-.017a7.345,7.345,0,0,0,1.517-.418,5.328,5.328,0,0,1,.865-.256c.294-.06.591-.117.894-.175l.151,0,.1.066.068.087-.009.482.125.456a.383.383,0,0,0,.63.134l.167-.094.162-.107.167-.175.039-.215c-.046-.26-.1-.511-.155-.759s-.119-.5-.183-.75l-.027-.066-.29-.2-.192,0-.2.045-.445.141-.463.13q-1.735.38-3.415.92a8.22,8.22,0,0,1-1.218.311,4.74,4.74,0,0,0-.8.19c-.258.085-.52.177-.787.273l-.205.3-.007.217c.059.283.26.422.6.413a.321.321,0,0,1,.381.277,5.272,5.272,0,0,0,.271,1.221l.073.279.043.3c.107.552.205,1.1.3,1.639a15.683,15.683,0,0,0,.372,1.609l.073.43.062.52.162.5a6.263,6.263,0,0,1,.226.648,2.983,2.983,0,0,1,.112.688l-.224.379-.217.1-.219.1-.171.1-.173.094-.109.153v.175l.027.079.068.13.068.128.262.209.347-.011.513-.185.536-.147.189-.047.183-.077a10.544,10.544,0,0,1,1.141-.409q.578-.169,1.186-.33.78-.214,1.56-.394c.52-.117,1.04-.239,1.565-.364l.381-.119.354-.185.242-.441c-.032-.243-.068-.486-.112-.731s-.084-.488-.125-.727l-.039-.136-.123-.138-.18-.038-.2.049-.178.062-.322.328-.1.33v.339l-.041.29-.256.192-.146.068-.151.055c-.251.072-.5.145-.751.213s-.506.134-.771.192l-.566.139-.557.194-.331.109-.351.068-.141-.026-.094-.109-.027-.066-.027-.066-.123-.541-.183-.528-.112-.386-.1-.4-.13-.533-.176-.524-.078-.328-.034-.322.027-.1.075-.1.356-.136.315-.062.292-.1a3.251,3.251,0,0,1,.691-.209c.235-.04.479-.094.73-.16m-13.076.264,0-.043.032.023Zm7.234,5.163-.041-.518L85.4,222.4l-.036-.087-.189-.335-.274-.241-.376-.006-.192.139-.1.2-.068.5-.068.482a.5.5,0,0,1-.415.452l-.18.066-.185.038-1.49.341c-.49.113-.988.226-1.487.339l-.148.019c-.258.034-.422.019-.493-.047a.674.674,0,0,1-.141-.392l-.014-.19.016-.177a3.688,3.688,0,0,0-.066-1.159c-.084-.371-.155-.746-.214-1.125a2.126,2.126,0,0,1-.144-.7,4.384,4.384,0,0,1,.034-.727l.011-.439-.109-.439-.046-.2-.03-.215a3.149,3.149,0,0,1-.014-.654c.018-.215.03-.43.032-.65,0-.3-.011-.6-.023-.895s-.021-.592-.025-.895l.235-.286.381-.1.363-.153.162-.247-.155-.249-.3-.072-.285-.077a2.212,2.212,0,0,0-1.1-.038l-.317.064-.317.077c-.226.049-.456.1-.691.164s-.472.109-.707.151l-.379.247-.155.43.123.224.246.1h.2l.2-.026.123.068.073.147.018.06.007.077a3.02,3.02,0,0,0,.025.825,3.543,3.543,0,0,1,.041.822l.011.147.041.143a3.7,3.7,0,0,1,.121.8c.011.273.011.545,0,.82,0,.247,0,.488.009.729a5.489,5.489,0,0,0,.071.7,7.279,7.279,0,0,0,.151.886c.066.292.121.588.164.882s.073.556.094.837.05.569.082.865l-.055.177-.164.094-.317.077-.315.079-.253.224-.078.356.08.166.151.1.157.015.171-.015c.415-.075.833-.139,1.252-.2a7.225,7.225,0,0,0,1.246-.277l.317-.07.319-.043c.415-.075.821-.141,1.223-.2s.808-.119,1.223-.183l.235-.047.251-.075a6.816,6.816,0,0,1,.737-.17,3.494,3.494,0,0,1,.746-.043l.319-.034.315-.092.322-.2.116-.349-.018-.337-.034-.335Zm-14.306,1.617-.217.045-.187.03-.386.213-.205.366v.092l.075.09.258.139.481.058.465.1.246-.081.246-.079.187-.051.187-.008.6.006.6-.034c.3.026.431-.126.4-.452a.386.386,0,0,0-.365-.388l-.189-.013-.187-.013-.183-.179-.021-.428-.094-.411-.025-.175,0-.175-.025-2.031-.027-.435-.027-.42,0-.349c0-.337-.007-.675,0-1.016s0-.682.009-1.029.011-.673.016-1.014a5.858,5.858,0,0,1,.107-1l.021-.224.066-.2.214-.094.278-.011.135-.043.208-.2,0-.337-.221-.341-.383-.032a4.411,4.411,0,0,1-1.706.188,5.624,5.624,0,0,0-.675-.034.435.435,0,0,0-.5.411l.032.209.151.138.151.04.151.041.212.181.055.209.025.209.03.554v.554c-.016.354-.032.71-.046,1.063s-.027.71-.032,1.065l0,.511.043.524.034.322-.009.309c-.018.243-.025.482-.023.714a4.507,4.507,0,0,0,.068.7l.018.239.018.251.007.526.023.524,0,.315Zm-3.226-8.828.2-.117.187-.119.317-.379-.036-.273-.214-.151c-.374-.038-.748-.081-1.118-.128s-.741-.085-1.118-.115a.784.784,0,0,0-.862.439l-.084.2-.146.286-.132.288c-.144.277-.281.55-.413.818s-.256.541-.367.814l-.141.288-.183.277a3.17,3.17,0,0,0-.42.624,7.135,7.135,0,0,0-.308.69,9.757,9.757,0,0,1-.42,1q-.236.489-.5.965l-.057.023-.068.008-.052-.055-.043-.145-.041-.145c-.027-.281-.064-.558-.112-.831a4.754,4.754,0,0,0-.217-.812l-.078-.36-.075-.375c-.1-.46-.187-.923-.246-1.383s-.132-.92-.219-1.379q-.092-.607-.178-1.2c-.057-.394-.1-.79-.135-1.189l-.109-.288-.237-.2-.36-.13q-.613-.141-1.2-.268t-1.186-.249l-.3-.019-.342.232-.016.241.1.2.169.158.185.16.125.326c-.023.273-.041.543-.052.814a3.7,3.7,0,0,0,.052.82l-.009.185-.021.181c-.048.392-.094.784-.141,1.176s-.1.782-.155,1.172c-.032.271-.075.537-.125.8a6.622,6.622,0,0,0-.109.788c-.043.354-.078.7-.1,1.046s-.055.684-.084,1.023l-.055.326-.125.3-.089.117-.128.068-.536.141-.538.168-.073.115.027.149.171.143.2.162a1.211,1.211,0,0,0,.776.275l.511.053.484.034.178.03.151,0,.214-.036.167-.145-.11-.467-.224-.324-.007-.369.064-.352.066-.367q.154-.786.269-1.558a8.842,8.842,0,0,0,.091-1.581l0-.107v-.124c.05-.42.1-.833.151-1.244s.107-.825.178-1.24l.1-.307.1-.3.048-.032.071.03.1.192.055.228q.133.642.276,1.274c.094.422.187.842.276,1.261.094.381.173.767.237,1.153s.132.771.205,1.159c.041.249.082.5.123.744s.089.49.151.733.109.475.171.71.123.469.185.712l.05.138.05.139.214.217.388.087.383,0,.1-.136.114-.134a1.565,1.565,0,0,0,.452-.524,4.494,4.494,0,0,0,.271-.633,8.927,8.927,0,0,1,.463-1.168,8.41,8.41,0,0,1,.632-1.089l.251-.392.18-.437c.073-.194.141-.388.2-.582a1.066,1.066,0,0,1,.344-.494l.023-.068.039-.064.433-.987.235-.454.29-.413.043-.055.059-.053.03-.006.032-.009.1.136.011.354-.05.354a4.526,4.526,0,0,1-.025.827l-.1.812c-.048.392-.1.782-.148,1.168s-.1.773-.162,1.163c-.046.307-.091.609-.132.912s-.084.607-.13.912l-.048.207-.048.219-.027.215-.041.215-.011.226-.1.224-.164.009-.182.019-.233.111-.164.181-.016.4.315.251.274.034.26.017.237.028.235.04a4.645,4.645,0,0,0,.837.151,4.676,4.676,0,0,1,.837.149l.306-.181-.064-.343-.324-.237-.367-.134-.155-.132v-.185a.972.972,0,0,0,.109-.552,3.586,3.586,0,0,1-.018-.714c.016-.23.046-.465.084-.705.055-.3.1-.586.125-.871s.052-.58.068-.882c.016-.207.036-.413.066-.616a3.685,3.685,0,0,1,.141-.6c.057-.237.1-.475.146-.716s.078-.482.116-.722c.062-.349.13-.7.208-1.046s.155-.69.235-1.027" transform="translate(-26.309 -174.133)" fill="#1a1311"/>
      </g>
    </g>
    <g id="Group_796" data-name="Group 796" transform="translate(-247.48 -16.699)">
      <g id="Group_793" data-name="Group 793" transform="translate(337.98 327.838)">
        <g id="Group_797" data-name="Group 797">
          <path id="Path_2985" data-name="Path 2985" d="M342.106,376.951l.111,0a6.523,6.523,0,0,1,1.625.209,6.758,6.758,0,0,1,.735.263l.153.066a9.017,9.017,0,0,1,1.469.987,7.081,7.081,0,0,0,1.81,1.123l.243.088.141.05.07.129c.1.173.191.36.293.561l.119-.249.127-.269.289.058a9.11,9.11,0,0,0,1.728.151c.338,0,.7-.014,1.135-.042.3-1.346.7-3.062,1.149-4.776l.116-.452.42.205a3.4,3.4,0,0,0,2.614.46,4.66,4.66,0,0,0,1.772-2l.1-.221.241,0,.358-.034.062-.01a2.546,2.546,0,0,0,.79-.329l.289-.149a6.159,6.159,0,0,0,1.826-1.718l.03-.042a10.407,10.407,0,0,0,1.045-1.875c.106-.221.207-.436.307-.637l.082-.161.175-.04.494-.157.038-.014a7.108,7.108,0,0,0,1.919-1.021l.346-.317,1.047-1.179-.39,1.527a3.182,3.182,0,0,0,.331,2.576,2.252,2.252,0,0,0,1.427.828l.07.006a.648.648,0,0,0,.541-.259l.058-.211.211-.058a3.834,3.834,0,0,0,1.115-.621l.325-.223c.344-.231.952-.544,1.278-.711l.084-.042h.09a2.507,2.507,0,0,0,.826-.163l.058-.02.062,0a2.91,2.91,0,0,0,1.232-.5l.149-.09a12.322,12.322,0,0,0,2.128-1.782l.032-.028c.225-.189.816-.607,1.443-1.051.575-.406,1.292-.912,1.408-1.025a2.27,2.27,0,0,0,.657-1.025c-.048-.167-.092-.346-.135-.527a6.332,6.332,0,0,0-.436-1.354,19.192,19.192,0,0,1-.834-1.889c-.105-.271-.213-.538-.318-.788a9.97,9.97,0,0,1-.438-1.316,7.481,7.481,0,0,0-.468-1.326l-.157-.34a5.936,5.936,0,0,0-.747-1.332l-.372-.456.567-.155c.552-.151,1.1-.3,1.649-.446q.752-.2,1.517-.408l.233-.064c1.338-.368,2.895-.816,4.4-1.37.046-.422.119-.868.217-1.36l.012-.042.088-.406.016-.08.054-.235.737-.161c1.338-.293,2.716-.6,4.077-.916l-.008-.058-.092-.2-.038-.046-.022-.054A13.3,13.3,0,0,1,389.34,341a30.466,30.466,0,0,0,.082-3.161c-.058-1.334-.177-4.109-1.457-5.2a1.932,1.932,0,0,0-1.463-.438c-.759.814-1.505,1.625-2.2,2.383l-.275.3-.555-.581a19.221,19.221,0,0,1-2.672-3.217c-.964,1.726-1.957,3.416-2.954,5.029l-.354.569-.647-1.232-.01-.042-.109-.253-.026-.062c-.131-.36-.269-.756-.41-1.165-.277-.808-.562-1.635-.88-2.439l-.016-.036-.008-.04a4,4,0,0,0-.438-1.069l-.066-.121-.217-.39-.01-.02a3.872,3.872,0,0,0-1.654-1.9,1.139,1.139,0,0,0-.918.042c-.233,1.067-.458,2.15-.711,3.347-.772,3.693-1.569,7.5-2.624,11.248l.143.028-.018.091c-.046.159-.1.356-.139.559l-.012.044-.018.044-.072.167-.137-.05c-.06.209-.121.416-.187.625l-.112.368-.368-.115c-.432-.135-.866-.277-1.3-.418l-.4-.129c-.287-.111-.571-.221-.862-.328-.516-.193-1.053-.394-1.571-.613l-.06-.026a5.128,5.128,0,0,0-1.792-.51l-.414.062a6.916,6.916,0,0,1-1.175.2l-.078-.006-.653-.026a4.923,4.923,0,0,0-1.125.311,5.435,5.435,0,0,0-1.754,1.272l-.022.022a5.233,5.233,0,0,0-.729.77l-.026.03c-.239.253-.49.512-.665.689l-.036.032a9.379,9.379,0,0,1-1.145.715,11.288,11.288,0,0,1-1.234.456,8.33,8.33,0,0,0-1.83.834,5.379,5.379,0,0,0-1.66,1.356,3.385,3.385,0,0,0-.536,1.5c-.04.2-.078.4-.127.6-.048.183-.1.376-.179.591l-.016.04-.185.426-.209.5c-.275.551-.6,1.075-.91,1.583a15.684,15.684,0,0,0-1.067,1.923,8.426,8.426,0,0,0-.43,1.507c-.068.307-.137.625-.229.932-.121.428-.277.844-.428,1.246-.124.336-.253.683-.36,1.023l-.034.11-.088.072a3.667,3.667,0,0,0-.844,2.931l.01.119.062.408a4.188,4.188,0,0,0,.412,1.057l.2.364-.376.165a25.84,25.84,0,0,1-2.911,1.091,3.493,3.493,0,0,0,.121,2.785l.02.04.239.5.2.344-.352.185c-.561.295-1.127.573-1.684.834a9.941,9.941,0,0,1,2.66,1.129l.506.3-.486.338c-1.419.984-3.014,2.088-4.535,3.229a5.753,5.753,0,0,0,1.6.2c.249,0,.518-.01.852-.034h.02c.295,0,.6-.03.9-.056.327-.028.669-.056,1-.056" transform="translate(-337.736 -327.838)" fill="#fff3d8"/>
        </g>
      </g>
      <g id="Group_795" data-name="Group 795" transform="translate(337.49 327.84)">
        <g id="Group_794" data-name="Group 794" clip-path="url(#clip-path-3)">
          <path id="Path_2986" data-name="Path 2986" d="M341.816,349.357c.014-.03.012-.052,0-.064a.09.09,0,0,0-.076-.006,1.114,1.114,0,0,0-.171.062,1.428,1.428,0,0,1,.155.121.42.42,0,0,0,.1-.114" transform="translate(-333.452 -306.591)" fill="#101011"/>
          <path id="Path_2987" data-name="Path 2987" d="M341.432,349.259a.627.627,0,0,0-.1.09c-.032.04-.038.064-.018.076a.131.131,0,0,0,.072,0,1.846,1.846,0,0,0,.205-.082c-.062-.034-.092-.05-.157-.08" transform="translate(-333.713 -306.614)" fill="#101011"/>
          <path id="Path_2988" data-name="Path 2988" d="M343.808,351.391a.113.113,0,0,0-.09-.042.368.368,0,0,0-.153.054c.1.115.151.173.247.293a.453.453,0,0,0,.04-.179.2.2,0,0,0-.044-.125" transform="translate(-331.47 -304.543)" fill="#101011"/>
          <path id="Path_2989" data-name="Path 2989" d="M343.3,351.456a.107.107,0,0,0,.08.03.52.52,0,0,0,.179-.074c-.094-.1-.143-.153-.241-.255a.362.362,0,0,0-.052.143.181.181,0,0,0,.034.155" transform="translate(-331.768 -304.734)" fill="#101011"/>
          <path id="Path_2990" data-name="Path 2990" d="M348.287,338.515c.223-.8.478-1.461.468-1.465a4.573,4.573,0,0,0-.695,1.408,2.474,2.474,0,0,0,.086,1.563,4.423,4.423,0,0,1,.141-1.505" transform="translate(-327.102 -318.712)" fill="#101011"/>
          <path id="Path_2991" data-name="Path 2991" d="M342.857,345.114a1.661,1.661,0,0,1-.209-.82.943.943,0,0,0,.016.952,1.509,1.509,0,0,0,.834.482,6.466,6.466,0,0,1-.641-.613" transform="translate(-332.501 -311.534)" fill="#101011"/>
          <path id="Path_2992" data-name="Path 2992" d="M356.949,342.936a4.114,4.114,0,0,1-1.533,1.66,4.7,4.7,0,0,0-1.633,1.654,7.582,7.582,0,0,1,1.772-1.467,3.151,3.151,0,0,0,1.394-1.848" transform="translate(-321.346 -312.88)" fill="#101011"/>
          <path id="Path_2993" data-name="Path 2993" d="M347.116,339.111a4.234,4.234,0,0,0,.322-1.175,4.151,4.151,0,0,0-.058-1.218s-.105.54-.173,1.193-.1,1.2-.092,1.2" transform="translate(-327.952 -319.041)" fill="#101011"/>
          <path id="Path_2994" data-name="Path 2994" d="M380.46,364.25c.394-.384.826-1.041.76-1.372a10.425,10.425,0,0,0-.605-1.977c-.428-.8-.78-1.8-1.135-2.634-.41-.97-.476-1.762-.908-2.648a8.148,8.148,0,0,0-.948-1.738q.824-.227,1.641-.444c2.118-.567,4.31-1.155,6.339-1.909l.044-.018,0-.048a15.533,15.533,0,0,1,.338-2.019c.167-.036.334-.072.5-.11,1.457-.318,2.964-.647,4.44-1l.1-.024-.048-.088c-1.236-2.329-1.1-4.541-.958-6.882a29.851,29.851,0,0,0,.082-3.187c-.06-1.38-.185-4.256-1.585-5.447a2.324,2.324,0,0,0-1.853-.514l-.028,0-.018.02c-.763.814-1.525,1.645-2.272,2.459-.091-.1-.181-.191-.273-.285a16.207,16.207,0,0,1-2.865-3.6l-.066-.127-.07.125q-1.613,2.909-3.249,5.549c-.241-.512-.512-1.3-.814-2.178-.86-2.5-1.931-5.612-3.5-6.218a1.548,1.548,0,0,0-1.354.121l-.032.016-.008.034c-.249,1.155-.5,2.335-.735,3.478-.89,4.243-1.8,8.6-3.092,12.831-1.294-.651-2.7-1.075-4.031-1.637a3.944,3.944,0,0,0-2.524-.48,6.494,6.494,0,0,1-1.077.181,5.936,5.936,0,0,0-.727-.03,5.324,5.324,0,0,0-1.234.336,6.362,6.362,0,0,0-2.146,1.64c-.3.325-.852.9-1.159,1.214a8.829,8.829,0,0,1-1.081.673,10.759,10.759,0,0,1-1.151.424,8.649,8.649,0,0,0-1.913.868,5.78,5.78,0,0,0-1.764,1.451,5.483,5.483,0,0,0-.731,2.23c-.464,1.893-1.774,3.249-2.53,4.983a19.73,19.73,0,0,0-.673,2.475c-.221.764-.548,1.5-.783,2.252a4.01,4.01,0,0,0-.981,3.241l-.01,0c.006.046.014.09.022.131a4.087,4.087,0,0,0,.072.446,4.419,4.419,0,0,0,.446,1.151,25.225,25.225,0,0,1-3.012,1.115l-.034.01-.012.036a3.758,3.758,0,0,0,.434,3.735c-.856.45-1.732.874-2.636,1.262l-.235.1.255.03a8.837,8.837,0,0,1,3.5,1.258c-1.664,1.155-3.38,2.345-4.987,3.572l-.094.072.108.046a7.456,7.456,0,0,0,3.7.344,6.683,6.683,0,0,1,3.767.428,8.69,8.69,0,0,1,1.4.944,7.392,7.392,0,0,0,1.9,1.175c.086.032.169.062.253.09q.3.558.562,1.113l.06.129.064-.127c.137-.271.271-.546.4-.822a11.69,11.69,0,0,0,3.177.1l.052,0,.01-.05c.376-1.676.764-3.337,1.192-4.965a3.794,3.794,0,0,0,2.923.464,4.988,4.988,0,0,0,1.957-2.182,2.967,2.967,0,0,0,.442-.046,4.024,4.024,0,0,0,1.211-.514,6.469,6.469,0,0,0,1.979-1.859,17.062,17.062,0,0,0,1.423-2.64,5.915,5.915,0,0,0,2.53-1.165,2.386,2.386,0,0,0,.416-.378,3.527,3.527,0,0,0,.4,2.893,2.616,2.616,0,0,0,1.646.964.991.991,0,0,0,1.049-.526,5.706,5.706,0,0,0,1.541-.89,18.667,18.667,0,0,1,1.766-.946c.665.277,1.445-.255,1.987-.569a12.8,12.8,0,0,0,2.194-1.834c.448-.374,2.6-1.83,2.861-2.085m-8.2-36.069a1.383,1.383,0,0,1,1.2-.1c1.5.579,2.6,3.785,3.408,6.126a22.528,22.528,0,0,0,.864,2.282q-.618.994-1.24,1.953C375.115,336.037,375,333,373.06,330.9c-1.489,5.389-2.927,10.874-4.957,16.178-.151-.109-.293-.207-.418-.291a125.435,125.435,0,0,0,3.848-15.17c.235-1.131.48-2.3.727-3.44m11.7,6.315c1.432,1.491,2.913,3.032,3.382,4.991.569,2.371-.159,4.967-.862,7.48a25.936,25.936,0,0,0-.98,4.436c-2.007.745-4.179,1.326-6.279,1.887-1.682.45-3.418.918-5.087,1.469q-.182-.532-.408-1.035c3.375-1.43,6.924-2.55,10.229-3.988.747-2.835,2.284-6.226,1.2-9.172-.778-2.108-2.96-3.747-4.406-5.379a112.86,112.86,0,0,1-10.826,13.409c-.149-.139-.3-.273-.442-.4a106.323,106.323,0,0,0,11.655-17.205,16.9,16.9,0,0,0,2.825,3.51m4.456-1.674c1.354,1.153,1.471,3.98,1.531,5.339a30.093,30.093,0,0,1-.082,3.172c-.143,2.333-.279,4.539.93,6.877-1.443.342-2.917.665-4.34.978-.143.03-.287.062-.432.094.129-.549.279-1.107.438-1.674q.794-.236,1.589-.476c-.544-3.689,1.32-9.823-1.641-12.775q-.615.609-1.228,1.218c-.239-.267-.486-.528-.733-.788.743-.81,1.5-1.633,2.258-2.445a2.181,2.181,0,0,1,1.71.482m-1.348,12.562a20.631,20.631,0,0,0,.549-2.755,30.6,30.6,0,0,0-.054,4.268c-.331.105-.663.211-.994.315.018-.068.038-.135.056-.205s.038-.133.058-.2l.414-.137c-.026-.416-.034-.844-.03-1.284m-1-9.925c-.179.171-.36.341-.54.512-.06-.07-.117-.137-.177-.205l.9-.874c1.22,1.6,1.451,3.715,1.428,5.885a7.78,7.78,0,0,0-.191-1.324,6.189,6.189,0,0,0-.426-1.2,7.491,7.491,0,0,0-1-2.8m-14.617,9.18a2.676,2.676,0,0,0-.2.547,1.186,1.186,0,0,0-.036.585l.014.03c-.127.161-.255.323-.382.482.012-.111.03-.235.058-.372a7.145,7.145,0,0,1,.486-1.457c-.016-.052-.024-.08-.038-.131l.165-.334.04.133a3.517,3.517,0,0,1,.755-.984c.112.348.167.52.289.826l-.08.139a.652.652,0,0,0-.3-.189.393.393,0,0,0-.307.08,1.419,1.419,0,0,0-.3.327c.09.291.153.494.225.693-.064.086-.129.171-.2.255-.066-.183-.121-.364-.2-.629m-.253-.689A18.366,18.366,0,0,0,370,347.344c-.177.215-.354.426-.534.637a21.894,21.894,0,0,1,1.565-4.643c.532-1.135,1.931-2.883,3.1-1.408q-.266.376-.534.747c-.7-.617-1.686-.37-2.393,1.274m10.623,4.105q-.078-.063-.036-.221a1.042,1.042,0,0,1,.217-.382,2.192,2.192,0,0,1,.462-.4.6.6,0,0,0,.016-.064l.123-.07-.016.064a1.058,1.058,0,0,1,.442-.127c-.042.161-.062.243-.106.406l-.056.03a.342.342,0,0,0-.036-.171.141.141,0,0,0-.108-.068.423.423,0,0,0-.161.026c-.06.243-.092.364-.157.607a.633.633,0,0,1,.333.09c.052.054.058.147.02.281a1.272,1.272,0,0,1-.247.442,1.628,1.628,0,0,1-.44.364c-.018.064-.028.1-.046.161l-.117.056c.016-.06.026-.09.042-.149a2.05,2.05,0,0,1-.247.1,1.329,1.329,0,0,1-.235.048c.05-.171.074-.259.121-.43l.06-.03a.359.359,0,0,0,.018.2.12.12,0,0,0,.107.064.51.51,0,0,0,.205-.05c.078-.271.116-.406.193-.675a.864.864,0,0,1-.352-.094m-1.658-9.512.261.277-.046.054a.608.608,0,0,0-.225-.058.542.542,0,0,0-.215.042.888.888,0,0,0-.2.127c.153.167.231.249.386.412a2.527,2.527,0,0,1,.565-.2.383.383,0,0,1,.331.115.443.443,0,0,1,.11.386.982.982,0,0,1-.251.494c.042.044.062.066.1.109-.044.046-.066.07-.109.113l-.1-.1a3.358,3.358,0,0,1-.249.227,2.788,2.788,0,0,1-.285.193c-.107-.117-.161-.175-.271-.291a.683.683,0,0,1,.052-.056.485.485,0,0,0,.229.078.444.444,0,0,0,.221-.048.939.939,0,0,0,.239-.173c-.171-.183-.257-.275-.432-.456a2.978,2.978,0,0,1-.591.209.29.29,0,0,1-.273-.084.407.407,0,0,1-.076-.344,1.325,1.325,0,0,1,.239-.53l-.04-.044c.04-.05.06-.074.1-.121l.04.044a1.748,1.748,0,0,1,.48-.376m-7.06,13.972c-.028-.046-.056-.094-.084-.141q.46-.257.934-.512c.163-.016.334-.04.51-.072-.464.239-.916.482-1.36.725m.3-5.525c-.147.2-.287.4-.418.6q-1.081.953-2.158,1.905c-.03-.03-.058-.06-.088-.092q1.332-1.206,2.664-2.413m-2.186,2.935c.185-.106.382-.217.6-.339a4.212,4.212,0,0,0-.269.727c-.109-.133-.221-.263-.332-.388m1.7.062c-.233-1.431,1.848-3.715,3.205-4.985,1.029-.964,4.876-3.11,5.4-.757.51,2.28-2.363,4.762-4.324,5.792-1.033.544-4.075,1.234-4.282-.05m-3.363-4.04c-.078.285-.153.565-.223.842q-.215.457-.432.91c-.038-.03-.074-.06-.11-.09.257-.547.514-1.1.764-1.662m6.411-6.705c-1.2-2.064-1.686-4.581-2.759-6.715-1.5,4.907-2.97,9.871-4.9,14.707l-.1-.072c1.987-5.083,3.44-10.329,4.935-15.471,1.308,2.186,1.76,4.633,2.937,6.861.05.094.1.183.157.275-.092.137-.183.279-.273.416m-2.769-1.551c-.064-.185-.1-.277-.163-.456a.747.747,0,0,0,.028-.072.329.329,0,0,0,.131.145.11.11,0,0,0,.123-.034.67.67,0,0,0,.129-.209c-.1-.293-.153-.436-.259-.707a1.1,1.1,0,0,1-.33.231c-.066.016-.119-.026-.163-.123a1.1,1.1,0,0,1-.066-.444,2.818,2.818,0,0,1,.105-.675l-.028-.05c.02-.064.03-.094.052-.157l.028.052a1.706,1.706,0,0,1,.265-.49c.07.137.105.209.173.358l-.024.07a.233.233,0,0,0-.137-.082.159.159,0,0,0-.126.058.57.57,0,0,0-.109.165c.1.2.155.311.253.539.155-.145.261-.217.319-.221.076,0,.141.064.193.2a1.475,1.475,0,0,1,.076.564,2.233,2.233,0,0,1-.127.665l.06.175c-.022.058-.034.088-.058.143-.022-.066-.034-.1-.056-.163a3.048,3.048,0,0,1-.135.285,1.847,1.847,0,0,1-.153.229m.34,15.626c3.255-1.481,6.667-2.694,9.863-4.155.631-2.212,1.718-4.836,1.123-7.181-.549-2.172-2.385-3.675-3.862-5.23a121.7,121.7,0,0,1-10.494,12.073l-.116-.109a117.294,117.294,0,0,0,10.653-12.736c1.38,1.5,3.335,3.01,4.049,4.987.993,2.743-.348,5.843-1.077,8.473-3.247,1.449-6.731,2.614-10.048,4.071-.032-.064-.06-.129-.092-.193m-26.988,25.5a8.867,8.867,0,0,0-1.425-.958,6.905,6.905,0,0,0-3.84-.442,7.51,7.51,0,0,1-3.522-.289c1.593-1.208,3.289-2.387,4.935-3.528q.391.239.767.514c-.888.7-1.768,1.393-2.63,2.1,1.507-.113,3.251-.7,4.74-.235a20.2,20.2,0,0,1,2.94,4.028l-.1-.036a7.273,7.273,0,0,1-1.861-1.155m-2.568-4.279c-.016.038,0,.054.048.046l.034-.01c.038.03.076.062.113.094a.919.919,0,0,1-.257.1c-.086.016-.125,0-.118-.056a.555.555,0,0,1,.159-.217l.034.028-.014.02m.836.693c.161.149.321.3.476.46a12.485,12.485,0,0,0-3.807.235c.693-.575,1.4-1.147,2.11-1.714.042.03.084.062.124.092-.532.438-1.061.874-1.585,1.316a20.964,20.964,0,0,1,2.682-.388m-5.481-3.072a41.626,41.626,0,0,0,6.7-3.759c.129.175.259.352.384.53a39.988,39.988,0,0,1-3.846,2.534c1.38.179,2.1,1.376,2.98,2.289a40.431,40.431,0,0,1,3.85,4.217c.687-1.3,1.322-2.652,1.957-4.018.2.113.394.225.589.34l.137.082c-.105.269-.211.536-.315.8-.782,2-1.589,4.059-2.534,5.941-1.915-4.049-5.678-8.312-9.9-8.957m2.039-4.949a25.432,25.432,0,0,0,3-1.117c.078.139.163.275.251.408-.561.295-1.127.577-1.7.844a2.709,2.709,0,0,0,.747,2.407q-.914.55-1.857,1.051a3.616,3.616,0,0,1-.44-3.594m8.047,10.163c-1.35-1.71-4.012-5.586-6.287-6.062,1.167-.707,2.28-1.473,3.359-2.279.024.032.046.064.068.1-.938.713-1.9,1.394-2.9,2.031,2.128.685,4.39,4,5.776,5.638.544-.989,1.061-2.011,1.575-3.042.06.034.119.068.179.1-.577,1.2-1.155,2.381-1.766,3.52m-4.523-10.48c-.02.022-.032.038-.032.048s.016.012.044.008l.024-.006c.022.03.046.062.068.094a2.7,2.7,0,0,1-.289.1c-.068.018-.1.014-.105-.012s.036-.078.117-.147a1.863,1.863,0,0,1,.155-.113l.018.026m-.179.382a.128.128,0,0,0,.09.006.8.8,0,0,0,.139-.05c.042-.02.092-.046.145-.076l.012.016c-.066.04-.127.074-.181.1s-.145.078-.235.121c-.01-.034-.014-.054-.024-.092l.054-.03m2.465,2.8c.117.189.235.374.356.557a1.16,1.16,0,0,0,.325.749c.231.249.368.368.54.406a7.008,7.008,0,0,0,.615.627c.014.014.032.026.046.04-.609.213-1.061.054-1.652-.587a1.506,1.506,0,0,1-.229-1.792m2.592,5.011c-.112-.137-.169-.2-.285-.336a1.188,1.188,0,0,1-.352.167.193.193,0,0,1-.185-.062.35.35,0,0,1-.078-.253.844.844,0,0,1,.121-.382l-.03-.03c.022-.036.034-.054.058-.088l.03.03a1.258,1.258,0,0,1,.293-.279c.072.074.106.11.173.183l-.024.042a.335.335,0,0,0-.143-.032.3.3,0,0,0-.135.036.689.689,0,0,0-.119.1c.112.113.165.171.271.287a1.483,1.483,0,0,1,.33-.167.187.187,0,0,1,.193.068.41.41,0,0,1,.082.283.979.979,0,0,1-.108.392c.026.032.038.05.064.082l-.054.094-.06-.078a1.693,1.693,0,0,1-.125.187,1.318,1.318,0,0,1-.147.159c-.076-.092-.114-.137-.191-.227.012-.018.016-.028.028-.044a.283.283,0,0,0,.143.058.2.2,0,0,0,.127-.042.543.543,0,0,0,.123-.143m-4.589-4.123.042-.032a.272.272,0,0,0,.127.006.516.516,0,0,0,.143-.046,1.381,1.381,0,0,0,.171-.105,1.9,1.9,0,0,0-.179-.139,3.065,3.065,0,0,1-.408.169.222.222,0,0,1-.163.008c-.036-.018-.034-.058,0-.117a1.1,1.1,0,0,1,.253-.233l-.022-.008c.036-.026.054-.038.09-.062l.02.008a3.714,3.714,0,0,1,.386-.225c.046.022.068.032.109.056l-.038.028a.69.69,0,0,0-.129.018.86.86,0,0,0-.147.056,1.669,1.669,0,0,0-.153.08,1.792,1.792,0,0,1,.175.09c.2-.092.321-.147.382-.167.082-.026.137-.028.169,0s.032.078-.01.149a1.045,1.045,0,0,1-.231.251l.04.036c-.032.028-.05.04-.082.066l-.04-.036c-.068.052-.131.1-.187.131s-.123.078-.2.119c-.048-.042-.074-.06-.121-.1m5.6,7.064c.131.03.265.058.4.08q.666-1.717,1.388-3.432l.211.131c-.486,1.228-.952,2.465-1.4,3.7-.253-.058-.488-.125-.713-.2.038-.092.076-.183.113-.277m-1.4-6.04c.078.076.157.153.235.227-.078-.074-.157-.151-.235-.227m-4.637-5.308c-.36.2-.723.4-1.089.587a3.24,3.24,0,0,0,.776,2.025l-.388.237a2.714,2.714,0,0,1-.758-2.212c.474-.231.94-.476,1.4-.725l.058.088m5.771,11.989c.348.08.709.149,1.085.215q.663-1.974,1.4-3.948c.2.121.414.245.631.366l0,.016h.026c.115.062.231.123.348.183-.426,1.625-.812,3.279-1.189,4.949a11.456,11.456,0,0,1-3.056-.094q.391-.83.754-1.688m5.059-2.873a2.4,2.4,0,0,0,1.117-.332,3.252,3.252,0,0,0,.683-.442,2.037,2.037,0,0,0,.376-.432,2.237,2.237,0,0,1-.852,1.019,2.784,2.784,0,0,0,.876-.555,2.146,2.146,0,0,1-2.2.743m5.148-3a1.074,1.074,0,0,1-.35.167,7.915,7.915,0,0,0,1.573-1.7,5.775,5.775,0,0,0,.619-1.127,1.3,1.3,0,0,0,.145-.237,4.525,4.525,0,0,1-1.987,2.9m4.529-4.834a3.039,3.039,0,0,1-.91.428,3.592,3.592,0,0,0,1.67-1.27,3.532,3.532,0,0,1-1.408.914,18.817,18.817,0,0,1,1.551-1.929,3.6,3.6,0,0,0,.86-.567c.153-.056.315-.1.472-.161a9.4,9.4,0,0,1-1.378,1.246c.338-.219.715-.38,1.069-.593a2.269,2.269,0,0,1-.315.35c-.49.428-1.282.641-1.585,1.312.307-.516.87-.675,1.392-.94a9.943,9.943,0,0,1-1.42,1.211m2.077-2.739a3.346,3.346,0,0,0,.548-.86,1.6,1.6,0,0,1-.11.45,1.22,1.22,0,0,1-.438.41m2.913-3.026a2.391,2.391,0,0,1,.7-.506,1.086,1.086,0,0,0-.175.42,2.714,2.714,0,0,1,.526-.573l.2-.078c-.052.056-.1.114-.151.167a9.084,9.084,0,0,0-.83,1.039,3.563,3.563,0,0,1-1.356.38,2.463,2.463,0,0,0,1.153-.655,2.621,2.621,0,0,1-2.224.372,3.468,3.468,0,0,0,2.489-1.206,3.2,3.2,0,0,1-2.857.836,4.8,4.8,0,0,0,1.559-.538,2.847,2.847,0,0,1-2.19.086,2.513,2.513,0,0,0,2.234-.677,2.571,2.571,0,0,1-2.556.2,2.9,2.9,0,0,0,1.187-.31,2.676,2.676,0,0,1-1.4-.03,1.725,1.725,0,0,0,1.1-.271,1.706,1.706,0,0,1-1.415-.06,1.789,1.789,0,0,0,1.314-.364,1.73,1.73,0,0,1-1.658-.111c.217-.036.422-.112.611-.133a3.763,3.763,0,0,1-.856-.163l-.014-.02a1.664,1.664,0,0,0,.44-.115,1.437,1.437,0,0,1-.6-.151c-.183-.295-.362-.579-.468-.751a22.991,22.991,0,0,0-1.734-2.419c-.364-.414-1.8-1.816-2.182-2.212a6.906,6.906,0,0,1-.741-2.23c.052.514,0,1.073.086,1.617a5.419,5.419,0,0,1-1.674-2.686,5.056,5.056,0,0,0,1.133,2.538c.131.173-.014.37-.227.319-.418-.1-.84-.161-1.228-.257a7.186,7.186,0,0,1,2.146,1.007,5.17,5.17,0,0,0-1.64-.227,4.49,4.49,0,0,1,2.355.926,4.438,4.438,0,0,0-2.1-.179,4.267,4.267,0,0,1,2.632.741,5.833,5.833,0,0,0-2.5-.151,5.333,5.333,0,0,1,2.781.6,5.114,5.114,0,0,0-2.1,0,4.745,4.745,0,0,1,2.238.348,6.753,6.753,0,0,0-2.081.183,6.037,6.037,0,0,1,2.335.169,9.575,9.575,0,0,0-2.1.293,7.593,7.593,0,0,1,2.6.108,6.632,6.632,0,0,0-1.945.316,5.514,5.514,0,0,1,2.292.074,5.672,5.672,0,0,0-1.7.362,4.233,4.233,0,0,1,2.092.04,4.185,4.185,0,0,0-1.651.47,3.346,3.346,0,0,1,1.969-.072,2.3,2.3,0,0,0-1.272.484,1.913,1.913,0,0,1,1.666-.048,4.224,4.224,0,0,0-1.754.86,3.822,3.822,0,0,1,2.079-.464,5.58,5.58,0,0,0-1.79.982,5.147,5.147,0,0,1,1.832-.619c-.291.289-.989.866-1.264,1.179.354-.229,1.1-.7,1.473-.906-.072.4-.91,1.177-1.177,1.523a8.376,8.376,0,0,0,1.39-1.153l.024.022a5.378,5.378,0,0,1-.83,1.485,6.732,6.732,0,0,0,1.059-1.2.719.719,0,0,0,.03.362,3.266,3.266,0,0,1-1.005,1.943,3.337,3.337,0,0,0,1.346-1.712,1.854,1.854,0,0,1-.247,1.382,1.782,1.782,0,0,0,.609-1.065,1.894,1.894,0,0,1-.06.92,4.027,4.027,0,0,0,.291-.484,2.375,2.375,0,0,1-.573,1.483,2.586,2.586,0,0,0,.878-1.228c.026.056.054.141.08.2,0,.121.044.167,0,.281a1.537,1.537,0,0,1-.187.51,3.853,3.853,0,0,1-.737.9,3.929,3.929,0,0,0,.922-.778.949.949,0,0,0,.163-.221,2.544,2.544,0,0,1-.872,1.2,3.213,3.213,0,0,0,.93-.737,4.6,4.6,0,0,1-1.553,1.413,3.128,3.128,0,0,0,1.4-.852,1.123,1.123,0,0,0,.323-.281,1.979,1.979,0,0,1-.579.631,17.027,17.027,0,0,1-1.666,1.362,14.35,14.35,0,0,0,1.8-1.187,3.306,3.306,0,0,0,.6-.492,2.035,2.035,0,0,1-.838.83c-.719.555-1.431,1.461-1.961,1.9.609-.283,1.3-1.2,2.088-1.714a5.433,5.433,0,0,0,.488-.315,3.359,3.359,0,0,1-1.3,1.171c.064-.022.127-.048.191-.076-.79.615-1.336,1.746-2.13,1.985a1.471,1.471,0,0,1-.52.026,3.247,3.247,0,0,0,1.019-.934c-.46.392-1.1.8-1.581.661a1.52,1.52,0,0,0,1.1-.707,1.535,1.535,0,0,1-1.565.392,1.855,1.855,0,0,0,1.1-.725,1.774,1.774,0,0,1-1.278.482,3.716,3.716,0,0,0,1.286-.96,2.986,2.986,0,0,1-1.595.663,2.415,2.415,0,0,0,1.262-1.017,2.306,2.306,0,0,1-1.925.713,3.515,3.515,0,0,0,1.29-.936,5.715,5.715,0,0,1,2.082-1.489c-1.324.235-2.254,1.619-3.347,2.033a1.742,1.742,0,0,1-.263-.034.729.729,0,0,0,.39-.215c-.139.084-.334.006-.474.016a2.321,2.321,0,0,0,.826-.4,2.566,2.566,0,0,1-1.177.239,1.5,1.5,0,0,0,.328-.167,1.244,1.244,0,0,1-.786-.056,3.212,3.212,0,0,0,1.262-.446,2.727,2.727,0,0,1-1.386.125,1.529,1.529,0,0,0,.541-.267,1.325,1.325,0,0,1-.719.046,2.488,2.488,0,0,0,.579-.4,1.759,1.759,0,0,1-1.023.09.988.988,0,0,0,.538-.263,1.043,1.043,0,0,1-.87-.05,3.465,3.465,0,0,0,.37-.309,1.586,1.586,0,0,1-.888-.086c-.991-.5-1.427-1.688-1.955-2.254-.2-.2-.8-.808-.993-1.025a6.057,6.057,0,0,1-.7-.972c-.086-.151-.187-.311-.255-.464a16.743,16.743,0,0,0-.776-1.9,17.065,17.065,0,0,1,.567,1.975c.032.105.07.205.107.3.07.183-.109.269-.255.121a1.513,1.513,0,0,1-.482-.97,1.753,1.753,0,0,0,.522,1.3,3.485,3.485,0,0,0-1.744-.494,4.318,4.318,0,0,1,2.339,1.288,2.623,2.623,0,0,0-1.846.189,2.606,2.606,0,0,1,1.949.129,2.147,2.147,0,0,0-1.529.329,2.217,2.217,0,0,1,1.933.038,1.934,1.934,0,0,0-1.513.42,2.214,2.214,0,0,1,2.413.2,1.868,1.868,0,0,0-1.3.012,1.632,1.632,0,0,1,1.274.328,2.462,2.462,0,0,0-1.887.46,2.376,2.376,0,0,1,2.043-.115,2.575,2.575,0,0,0-1.342.384,2.443,2.443,0,0,1,1.851-.01,3.267,3.267,0,0,0-1.153.281,2.62,2.62,0,0,1,1.664.1,6.959,6.959,0,0,0-.966.175,2.421,2.421,0,0,1,1.613.317,1.916,1.916,0,0,0-.979.249,1.562,1.562,0,0,1,1.372.241,3.2,3.2,0,0,0-1.406.615,2.766,2.766,0,0,1,1.533-.3,2.457,2.457,0,0,0-.974.546,2.037,2.037,0,0,1,1.24-.247,2.621,2.621,0,0,0-.928.571,2.169,2.169,0,0,1,1.189-.279,5.6,5.6,0,0,0-1.22.86,4.162,4.162,0,0,1,1.638-.587,2.04,2.04,0,0,0-.922.91,1.877,1.877,0,0,1,1.123-.605,3.418,3.418,0,0,1-.828,1.073,3.565,3.565,0,0,0,1.059-.774,4.087,4.087,0,0,1-.488.886,4.343,4.343,0,0,0,.816-.743,1.026,1.026,0,0,1-.267.617c.113-.09.3-.157.44-.257a2.586,2.586,0,0,1-.406.93,2.918,2.918,0,0,0,.659-.693c-.054.482-.757,1.153-1.1,1.629a19.077,19.077,0,0,0,1.645-1.242,1.835,1.835,0,0,1-.5.868,2.117,2.117,0,0,0,.725-.673,2.47,2.47,0,0,1-1.137,1.412,3.56,3.56,0,0,0,1.3-.972,2.344,2.344,0,0,1-.295.741,2.558,2.558,0,0,0,.536-.729,3.625,3.625,0,0,1-.8,1.746,2.689,2.689,0,0,0,.979-1.173,3.093,3.093,0,0,1-.623,1.5,3.055,3.055,0,0,0,.818-1.189,5.448,5.448,0,0,1-.858,1.981,6.025,6.025,0,0,0,.914-1.328c-.046.167-.1.334-.153.5a3.383,3.383,0,0,1-.209.334c.044-.044.09-.086.135-.127a3.33,3.33,0,0,1-.938,1.4l.032-.024c-.159.143-.325.277-.494.4a4.183,4.183,0,0,0,.583-.942,5.23,5.23,0,0,1-2.015,1.569,4.707,4.707,0,0,0,1.073-1.585,4.581,4.581,0,0,1-1.537,1.545,4.181,4.181,0,0,0,1.207-1.632,3.96,3.96,0,0,1-1.439,1.4,3.947,3.947,0,0,0,1.109-1.489,3.542,3.542,0,0,1-1.178,1.1,4.044,4.044,0,0,0,1.017-1.648,4.142,4.142,0,0,1-1.633,1.619,4.6,4.6,0,0,0,1.471-2.164c-.4.784-1.256,1.971-2.055,2.166a7.378,7.378,0,0,0,1.653-2.222,3.855,3.855,0,0,1-2.049,1.883l.018-.026a4.291,4.291,0,0,0,1.292-1.832c-.442.661-1.009,1.457-1.7,1.625a7.144,7.144,0,0,0,1.151-1.535,12.612,12.612,0,0,1-1.113,1.081,6.815,6.815,0,0,1,.669-1,9.685,9.685,0,0,0-.979.91,4.837,4.837,0,0,1,.51-.987,5.516,5.516,0,0,0-.812.9,2.124,2.124,0,0,1,.547-1.033,2.181,2.181,0,0,0-.8.812,2.213,2.213,0,0,1,.5-1.113,2.393,2.393,0,0,0-.749.86,2.339,2.339,0,0,1,.456-1.159,2.812,2.812,0,0,0-.685.862,3.032,3.032,0,0,1,.942-1.66,3.155,3.155,0,0,0-1.256,1.551,2.114,2.114,0,0,1,.388-1.338,2.557,2.557,0,0,0-.683,1.041,1.931,1.931,0,0,1,.364-1.324,2.221,2.221,0,0,0-.665,1.019,1.783,1.783,0,0,1,.346-1.3,1.967,1.967,0,0,0-.649.993,1.667,1.667,0,0,1,.328-1.276,1.776,1.776,0,0,0-.647,1.035,1.964,1.964,0,0,0-.145-.157,2.576,2.576,0,0,1,.227-1.784,3.3,3.3,0,0,0-.593,1.31,2.16,2.16,0,0,1-.241-.862l0,.014a4.994,4.994,0,0,1,.231-1.039,4.066,4.066,0,0,0-.52,1.32,1.556,1.556,0,0,1,.205-1.421,1.911,1.911,0,0,0-.583,1.005,1.913,1.913,0,0,1,.318-1.722,2.343,2.343,0,0,0-.7,1.294,3.32,3.32,0,0,1,.362-2.055,4.528,4.528,0,0,0-.737,1.643,2.9,2.9,0,0,1,.1-1.726,3.784,3.784,0,0,0-.468,1.266,2.346,2.346,0,0,1,.062-1.583,2.272,2.272,0,0,0-.444,1.1,2.681,2.681,0,0,1,.05-1.708,2.113,2.113,0,0,0-.42,1.105,4.782,4.782,0,0,1-.207-1.7,5.758,5.758,0,0,0-.165,1.276,16.544,16.544,0,0,1-.464-1.875c.068.589.012,1.208.123,1.82-.468-.663-.838-1.573-1.629-1.975a3.558,3.558,0,0,1,1.115,1.664c.078.167-.06.291-.207.175a4.068,4.068,0,0,1-1.119-1.294,4.462,4.462,0,0,0,1.308,1.786,3.475,3.475,0,0,1-1.314-.782,3.691,3.691,0,0,0,1.3,1.051,4.518,4.518,0,0,1-.894-.434,7.911,7.911,0,0,0,1.617,1.021,2.526,2.526,0,0,0-1.009.054,2.422,2.422,0,0,1,1.613.5,5.918,5.918,0,0,0-1.653.147,3.921,3.921,0,0,1,2.232.4,6.358,6.358,0,0,0-1.8.177c.767-.07,2.078,0,2.528.538a4.768,4.768,0,0,0-2.074.261,3.494,3.494,0,0,1,2.638.424,3.949,3.949,0,0,0-2.134.3,3.563,3.563,0,0,1,2.4.155,2.135,2.135,0,0,0-1.352.247,2.265,2.265,0,0,1,1.828.239,2.17,2.17,0,0,0-1.314.295,2.346,2.346,0,0,1,1.8.181,2.242,2.242,0,0,0-1.288.352,2.677,2.677,0,0,1,1.857.121,2.518,2.518,0,0,0-1.342.412,2.58,2.58,0,0,1,1.424-.046,1.6,1.6,0,0,0-.679.311,1.521,1.521,0,0,1,.954-.054c-.36.171-.741.334-1.089.535.46-.119.922-.171,1.4-.267a4.7,4.7,0,0,1-.737.5,2.783,2.783,0,0,0,1.149-.418,2.588,2.588,0,0,1-1.2.93,2.777,2.777,0,0,0,1.511-.621,3.082,3.082,0,0,1-.91.987,3.271,3.271,0,0,0,1.216-.691,8.538,8.538,0,0,1-1.059,1.089,8.56,8.56,0,0,0,1.378-.808c-.263.281-.552.585-.824.88.376-.2.739-.388,1.137-.6a4.35,4.35,0,0,1-.695,1.123,5.023,5.023,0,0,0,.985-.812,2.493,2.493,0,0,1-.544,1.332,2.61,2.61,0,0,0,.844-.979,1.993,1.993,0,0,1-.4,1.5,2.04,2.04,0,0,0,.828-1.28c.161.679-.108,1.33-1.039,1.981a2.915,2.915,0,0,0,1.318-1.336,2.561,2.561,0,0,1-.723,1.226,1.552,1.552,0,0,1-.251.155,1.859,1.859,0,0,1-1.453.147,1.932,1.932,0,0,0,1.244-.659,2.459,2.459,0,0,1-1.911.426,1.575,1.575,0,0,0,.342-.137,2.128,2.128,0,0,0,1.193-.766,2.027,2.027,0,0,1-1.254.551,2.415,2.415,0,0,1-.946.094,2.892,2.892,0,0,0,1.557-1.167,2.354,2.354,0,0,1-2.224.812,5.525,5.525,0,0,0,1.238-.777c-.6.279-1.465.719-1.852.317a2.842,2.842,0,0,0,.538-.311,1.61,1.61,0,0,1-.924.1c-.211-.135-.446-.275-.659-.4.394-.026.777-.135,1.143-.193a3.563,3.563,0,0,1-2.019-.36c-.267-.2-.6-.313-.882-.5-.08-.052-.155-.106-.231-.161l-.012-.012c-.127-.121-.255-.243-.378-.368l-.042-.04c-.078-.078-.155-.155-.231-.235.038.04.076.078.113.116-.111-.113-.225-.229-.334-.346.034.038.07.076.106.111-.1-.1-.2-.209-.3-.317l-.022-.022,0-.006-.034-.036.01.01c-.121-.131-.239-.263-.356-.4h0c-.2-.275-.388-.559-.573-.852-.319-.5-.711-1.079-1.1-1.6.506.3,1.085.458,1.567.749a7.247,7.247,0,0,1-1.953-1.539c.259.169.522.324.772.48a8.906,8.906,0,0,1,2.656,2.367,9.039,9.039,0,0,0-2.532-2.552c-.372-.259-.753-.52-1.1-.8a3.54,3.54,0,0,0,1.754.5,3.664,3.664,0,0,1-2.24-1.109c-.179-.185-.323-.384-.508-.609a2.983,2.983,0,0,1,1.746,1c-.265-.627-.972-.884-1.515-1.137a2.5,2.5,0,0,1-.952-1.216c-.205-.571-.106-.661-.1-.757a4.567,4.567,0,0,1,.655-2.1,2.577,2.577,0,0,0,.131.987,2.453,2.453,0,0,1,.133-1.025c.111-.193.291-.518.384-.727a12.447,12.447,0,0,0,.629-2.733,4.069,4.069,0,0,0,.446,1.768,2.123,2.123,0,0,1,.129,1.973,1.866,1.866,0,0,0,.09-2.059,5.654,5.654,0,0,1-.631-1.905l.01-.066c.058-.374.114-.727.177-1.031.263-1.276,1.274-1.34,1.905-2.307a5.322,5.322,0,0,1-.476,1.342,4.534,4.534,0,0,0,.954-2.377c.211-.685.446-1.694.569-2.214a1.218,1.218,0,0,0,.307.241,2.023,2.023,0,0,0,1.23.235,5.212,5.212,0,0,1-1.1-.432.758.758,0,0,1-.376-.466,2.7,2.7,0,0,1,.191-.856,2.026,2.026,0,0,1,.651-1.2,7.821,7.821,0,0,1,2.007-1.268c.36-.131,1.087-.342,1.545-.462a12.438,12.438,0,0,0-1.037.715,4.008,4.008,0,0,1,1.384-.695,1.392,1.392,0,0,1,.279.022,7.883,7.883,0,0,1-.772.82,10.639,10.639,0,0,1,1.041-.842c.141-.068.293-.076.422-.149a2.636,2.636,0,0,1-.575,1.137,3.461,3.461,0,0,0,.818-1.089,1.463,1.463,0,0,0,.116.506,3.1,3.1,0,0,1-.018,1.6,2.142,2.142,0,0,0,.245-1.658,1.632,1.632,0,0,1-.133-.85l.082-.163c.088-.135.332-.48.412-.6a4.962,4.962,0,0,1,.735-1.1c-.281.275-.283.615-.364,1.153a11.387,11.387,0,0,1-.452,2.007,4.318,4.318,0,0,0,.683-1.963,3.026,3.026,0,0,1,.739-1.744,5,5,0,0,1,.938-.615,4.235,4.235,0,0,1,1.983-.565,22.134,22.134,0,0,1,4.085,1.167c-.818-.348-1.623-.755-2.461-1.085.364-.092.854-.173,2.612.492a35.255,35.255,0,0,1,3.661,1.471l.022.01c-.094.3-.189.6-.287.894a8.226,8.226,0,0,0-1.937-1.5,8.311,8.311,0,0,1,1.871,1.7l-.014.04a6.324,6.324,0,0,0-3.2-1.284,5.629,5.629,0,0,1,3.064,1.688c-.022.066-.046.133-.068.2a6.555,6.555,0,0,0-1.161-.629,2.493,2.493,0,0,1-.539-.649,2.531,2.531,0,0,0,.32.565,4.47,4.47,0,0,0-3.476.042,4.391,4.391,0,0,1,3.442.233,4.139,4.139,0,0,0-2.554.2,4.215,4.215,0,0,1,3.108.233,3.833,3.833,0,0,0-2.218.2,3.9,3.9,0,0,1,2.851.253,3.6,3.6,0,0,0-1.963.177,3.85,3.85,0,0,1,2.662.3,3.7,3.7,0,0,0-2.059.161,3.916,3.916,0,0,1,2.656.358,5.17,5.17,0,0,0-2.051.1,4.542,4.542,0,0,1,2.52.336,8.812,8.812,0,0,0-1.915.125,4.874,4.874,0,0,1,2.706.476,5.634,5.634,0,0,0-2.325.074,4.615,4.615,0,0,1,2.8.46,7.591,7.591,0,0,0-2.951.177,5.979,5.979,0,0,1,3.213.265c.022,0,.07.012.014.008a9.264,9.264,0,0,0-2.847.277,4.58,4.58,0,0,1,3.627.46,3.258,3.258,0,0,0-2.592.07,3.675,3.675,0,0,1,3.088.528l.026.038a3.346,3.346,0,0,0-2.612.052,3.229,3.229,0,0,1,2.99.545,3.545,3.545,0,0,0-2.857.123,2.946,2.946,0,0,1,3.175.559,3.651,3.651,0,0,0-2.966.088,3.305,3.305,0,0,1,3.209.585,3.415,3.415,0,0,0-2.684.032,3.308,3.308,0,0,1,3.016.655,2.512,2.512,0,0,0-2.122-.088,3.325,3.325,0,0,1,2.443.587l.008.02a4.46,4.46,0,0,0-2.266-.119,2.99,2.99,0,0,1,2.182.48,4.2,4.2,0,0,0-1.875-.024,3.087,3.087,0,0,1,2.023.474c-.53-.217-.8-.048-1.278-.08a2.375,2.375,0,0,1,1.151.444A2.548,2.548,0,0,0,372,355.9a4.228,4.228,0,0,1,1.615.205,4.36,4.36,0,0,0-1.935.277,4.306,4.306,0,0,1,1.593-.08c-.683.008-1.406.651-1.937.92,1.744-.808,2.495-.623,2.019-.3.382.006.313.4.094.42a2.756,2.756,0,0,0-1.428.432,2.692,2.692,0,0,1,1.688-.159,1.954,1.954,0,0,0-.456.229,1.239,1.239,0,0,1,.492-.008,1.6,1.6,0,0,1-.446.277,1.494,1.494,0,0,0,.428-.056,3.6,3.6,0,0,1-.7.737,5.375,5.375,0,0,0,.613-.34,13.556,13.556,0,0,1-1.27,1.344,8.886,8.886,0,0,0,.9-.679,3.4,3.4,0,0,1-.693.78c-.631.549-1.433.926-2.077,1.5.691-.516,1.5-.806,2.216-1.324a3.387,3.387,0,0,0,.687-.619c-.291.366-.619.739-.864,1a3.911,3.911,0,0,0,1.344-1.342,6.267,6.267,0,0,1-1.019,1.471c-.731.671-1.943.768-2.62,1.611m3.2,6.126c-.4.227-.645.3-.84.4s-1.232.633-1.959,1.119c-.279,0-.681-.458-.768-.888a1.27,1.27,0,0,0,.5,1.137c-.088.064-.167.125-.235.179-.291.143-.458.034-.514-.042a2.835,2.835,0,0,1-.412-2.152c.2-1.037.81-1.384,1.718-1.784.579-.257,1.714-.764,2.313-.354.352.243.374,1.181.4,1.547.01.165.046.386.058.593a3.616,3.616,0,0,1-.617-1.065,3.552,3.552,0,0,0,.356,1.308m6.339-4.2a1.537,1.537,0,0,1-.92-.6,2.639,2.639,0,0,0,.106.468,4.99,4.99,0,0,0-.914-.84,3.8,3.8,0,0,1,.709,1.167,3.224,3.224,0,0,0-.544-.522,5.213,5.213,0,0,1,.344.589,2.782,2.782,0,0,0-.625-.579c.328.4.671.993.462,1.368-.01-.536-.518-.862-.81-1.155a2.264,2.264,0,0,1,.432,1.165,1.106,1.106,0,0,0-.374-.649,1.041,1.041,0,0,1,.129.766c-.209-.51-.8-.842-1.153-1.149a2.015,2.015,0,0,1,.627,1.993.352.352,0,0,1-.052.088,1.6,1.6,0,0,0-.548-1.095,1.4,1.4,0,0,1,.185,1.208,2.21,2.21,0,0,0-.426-.9,1.6,1.6,0,0,1-.012,1.431,2.157,2.157,0,0,0-.691-1.192c.295.543.533,1.234.149,1.622a2.4,2.4,0,0,0-.605-1.22,1.823,1.823,0,0,1,.245,1.463,2.837,2.837,0,0,0-.4-1.149,2.794,2.794,0,0,1,.082.993,6.511,6.511,0,0,0-.3-1,3.169,3.169,0,0,1-.107,1.306,4.752,4.752,0,0,0-.269-1.153,4.018,4.018,0,0,1-.169,1.209,6.139,6.139,0,0,0-.559-2,4.946,4.946,0,0,1,.179,1.778,4.253,4.253,0,0,0-.647-2.069c-1.593-.4-4.195,1.181-4.5,2.694a4.3,4.3,0,0,0,.02,1.822,3.168,3.168,0,0,1-.366-2.033,3.158,3.158,0,0,0,.179,2.345,2.548,2.548,0,0,1-.864-1.873,2.881,2.881,0,0,0,.354,1.758,2.207,2.207,0,0,1-.492-.552,3.981,3.981,0,0,1-.189-2.618c.092-.249.189-.49.295-.725.1-.131.261-.4.392-.6a2.974,2.974,0,0,1,1.816-.649,2.8,2.8,0,0,0-1.165.014,2.592,2.592,0,0,1,1.465-.39,2.79,2.79,0,0,0-.892-.008,3.53,3.53,0,0,1,1.533-.247,4.591,4.591,0,0,0-1.27-.016,3.889,3.889,0,0,1,1.656-.2,5.822,5.822,0,0,0-1.288-.074,3.608,3.608,0,0,1,1.688-.111,4.267,4.267,0,0,0-1.39-.149,3.3,3.3,0,0,1,1.79-.034,3.444,3.444,0,0,0-1.356-.265,3.534,3.534,0,0,1,1.848-.06,3.314,3.314,0,0,0-1.264-.277,3.107,3.107,0,0,1,1.346-.187,4.322,4.322,0,0,0-.922-.185,3.436,3.436,0,0,1,1.808,0,3.423,3.423,0,0,0-1.21-.235,1.829,1.829,0,0,1,.79-.175,2.07,2.07,0,0,0-.924-.062,4.168,4.168,0,0,1,2.4-.319,4.373,4.373,0,0,0-1.8-.092,1.7,1.7,0,0,1,.1-.165,4.924,4.924,0,0,1,2.763-.534,5.206,5.206,0,0,0-2.031.03,5.366,5.366,0,0,1,2.228-.4,6.022,6.022,0,0,0-1.905.068l.014-.016a6.389,6.389,0,0,1,2.086-.418,8.322,8.322,0,0,0-1.726.076,9.465,9.465,0,0,1,1.923-.442c-.54.086-1.091.018-1.652.078a4.188,4.188,0,0,1,1.73-.344,4.938,4.938,0,0,0-1.567.022,2.482,2.482,0,0,1,1.646-.289,2.652,2.652,0,0,0-1.414-.07,1.606,1.606,0,0,1,1.491-.2,1.74,1.74,0,0,0-1.638-.038,1.591,1.591,0,0,1,2.015-.368,1.794,1.794,0,0,0-1.778-.223,1.572,1.572,0,0,1,2.154-.185,1.834,1.834,0,0,0-1.951-.394,1.452,1.452,0,0,1,1.551-.512,1.765,1.765,0,0,0-1.525.048c.295-.546,1.595-.518,2.148.07a1.841,1.841,0,0,0-1.322-.677,1.4,1.4,0,0,0-.84.125c.133-.344,1-.376,1.519-.187-.4-.173-1.065-.625-1.577-.277-.078-.209.733-.312,1.147-.2a7.122,7.122,0,0,0-.741-.283,2.321,2.321,0,0,1,1.161.09,2.579,2.579,0,0,0-.956-.342,2.042,2.042,0,0,0-.424-.014,2.372,2.372,0,0,1,1.031-.293,2.555,2.555,0,0,0-1.195.05,1.877,1.877,0,0,1,.848-.7,2.128,2.128,0,0,0-.989.424,1.679,1.679,0,0,1,.794-.6,1.985,1.985,0,0,0-.926.309,1.459,1.459,0,0,1,.727-.486,1.724,1.724,0,0,0-.9.221c.107-.088.448-.4.7-.4-.022,0-.044,0-.066,0q.445-.134.894-.263a1.57,1.57,0,0,0,.769.514,1.484,1.484,0,0,1-.659-.545c.215-.062.43-.123.645-.183a4.417,4.417,0,0,1,.888,1.1,1.77,1.77,0,0,0-.747-.12,1.448,1.448,0,0,1,.978.808,2.311,2.311,0,0,0-1.33-.438,2.742,2.742,0,0,1,1.531,1.127,3.706,3.706,0,0,0-1.189-.412,2.576,2.576,0,0,1,1.328,1.063c-.747-.426-.806-.269-1.017-.273a2.52,2.52,0,0,1,1.408,1.009,2.047,2.047,0,0,0-.6-.161,1.891,1.891,0,0,1,.816.826c-.4-.185-.539-.163-.89-.334.591.408.985.508,1.294,1.055a4.3,4.3,0,0,0-1.077-.372,3.221,3.221,0,0,1,1.42,1.033,2.875,2.875,0,0,0-1.077-.354,2.834,2.834,0,0,1,1.163.94,3.066,3.066,0,0,0-.95-.5,2.955,2.955,0,0,1,.763.641,3.077,3.077,0,0,0-1.316-.4,1.781,1.781,0,0,1,1.5,1.023c-.874-.912-1.885-.589-2.546-1.635.617,1.2,2.526,1.36,3.008,2.507-.388-.287-.446-.7-1.527-.94a2.506,2.506,0,0,1,1.615,1.666.664.664,0,0,0-.37-.109.625.625,0,0,1,.245.474c.07.227-.088.233-.283.253-.545.058-.842-.532-1.394-.637.524.245,1.228,1.228,1.027,1.252" transform="translate(-337.489 -327.839)" fill="#101011"/>
          <path id="Path_2995" data-name="Path 2995" d="M344.826,341a1.306,1.306,0,0,1-1.177-.655,1.151,1.151,0,0,0,1.157.888c.846.006,1.487-.048,1.5-.024a4.692,4.692,0,0,0-1.479-.209" transform="translate(-331.392 -315.448)" fill="#101011"/>
          <path id="Path_2996" data-name="Path 2996" d="M358.81,344.8a2.578,2.578,0,0,0-1.437-.239,5.664,5.664,0,0,1,1.34.452,11.829,11.829,0,0,1,1.258.669,3.344,3.344,0,0,0-1.161-.882" transform="translate(-317.788 -311.294)" fill="#101011"/>
          <path id="Path_2997" data-name="Path 2997" d="M355.191,331.9a.584.584,0,0,0,.03.273.081.081,0,0,0,.074.054c.03,0,.086-.038.165-.111-.088-.2-.131-.293-.223-.468a1.141,1.141,0,0,0-.046.253" transform="translate(-319.953 -324.064)" fill="#101011"/>
          <path id="Path_2998" data-name="Path 2998" d="M355.7,332.178a.169.169,0,0,0-.086-.112c-.036-.014-.088,0-.153.044.094.243.139.37.231.627a1.261,1.261,0,0,0,.046-.313.685.685,0,0,0-.038-.247" transform="translate(-319.678 -323.655)" fill="#101011"/>
          <path id="Path_2999" data-name="Path 2999" d="M362.676,336.761c-.432-1.722-3.412-.225-4.3.563-1.077.958-2.763,2.63-2.672,4.063.048.756,1.686,1.039,3.556.042,1.613-.862,3.854-2.931,3.416-4.669m-3.976,4.322c-.205.092-.438.179-.7.269a4.14,4.14,0,0,0-.036-.753l.161-.1a.532.532,0,0,0,.271.277.679.679,0,0,0,.412.01,2.924,2.924,0,0,0,.609-.247,4.312,4.312,0,0,0-.086-1.256c-.665.137-1.107.255-1.338.277s-.374-.036-.432-.175,0-.372.175-.675a5.11,5.11,0,0,1,.956-1.073c-.022-.036-.034-.052-.058-.086l.313-.255c.022.036.034.054.058.088a6.143,6.143,0,0,1,1.358-.78,3.82,3.82,0,0,1,.32.621l-.145.106a.845.845,0,0,0-.418-.153,1.35,1.35,0,0,0-.5.078,3.093,3.093,0,0,0-.53.261,3.453,3.453,0,0,1,.412.876,3.787,3.787,0,0,1,1.28-.261.479.479,0,0,1,.436.47,1.463,1.463,0,0,1-.38.968,4.042,4.042,0,0,1-1.1.956c-.008.121-.014.183-.03.3l-.325.179c.014-.112.018-.167.028-.281-.265.147-.5.265-.7.356" transform="translate(-319.446 -319.785)" fill="#101011"/>
          <path id="Path_3000" data-name="Path 3000" d="M358.648,333.911a.154.154,0,0,0,.117.042,1,1,0,0,0,.291-.094c-.135-.143-.2-.215-.336-.362a.564.564,0,0,0-.1.2.227.227,0,0,0,.028.215" transform="translate(-316.565 -322.233)" fill="#101011"/>
          <path id="Path_3001" data-name="Path 3001" d="M359.45,334.243a.486.486,0,0,0,.1-.229.213.213,0,0,0-.06-.167.205.205,0,0,0-.147-.064.754.754,0,0,0-.271.058c.153.159.231.241.382.4" transform="translate(-316.109 -321.949)" fill="#101011"/>
          <path id="Path_3002" data-name="Path 3002" d="M358.238,338.283a.693.693,0,0,0,.151-.416.243.243,0,0,0-.151-.235,1.166,1.166,0,0,0-.536-.018,4.359,4.359,0,0,1,.054,1.125,2.153,2.153,0,0,0,.482-.456" transform="translate(-317.461 -318.173)" fill="#101011"/>
          <path id="Path_3003" data-name="Path 3003" d="M357.871,337.617a3.4,3.4,0,0,0-.366-.75,2.089,2.089,0,0,0-.38.406c-.133.2-.177.336-.131.428.028.054.094.082.2.082a3.135,3.135,0,0,0,.677-.165" transform="translate(-318.182 -318.893)" fill="#101011"/>
          <path id="Path_3004" data-name="Path 3004" d="M359.9,338.646a.876.876,0,0,0,.2-.179.588.588,0,0,0,.1-.2.185.185,0,0,0,0-.139.2.2,0,0,0-.129-.08c-.068.237-.1.356-.171.6" transform="translate(-315.285 -317.72)" fill="#101011"/>
          <path id="Path_3005" data-name="Path 3005" d="M360.056,337.681a.542.542,0,0,0-.141.227.112.112,0,0,0,.012.1.274.274,0,0,0,.169.058c.058-.213.086-.319.137-.532a.822.822,0,0,0-.177.147" transform="translate(-315.276 -318.232)" fill="#101011"/>
        </g>
      </g>
    </g>
  </g>
</svg>
