<svg xmlns="http://www.w3.org/2000/svg" xmlns:xlink="http://www.w3.org/1999/xlink" width="148.75" height="215.843" viewBox="0 0 148.75 215.843">
  <defs>
    <clipPath id="clip-path">
      <path id="Path_559" data-name="Path 559" d="M55.8,189.8s-13.282,0-13.282,12.4V393.236c0,.192.1,12.4,13.282,12.4H177.986s13.284,0,13.284-12.405V202.2s0-12.4-13.284-12.4Z" transform="translate(-42.52 -189.796)" fill="none"/>
    </clipPath>
    <clipPath id="clip-path-3">
      <rect id="Rectangle_760" data-name="Rectangle 760" width="36.159" height="45.598" fill="none"/>
    </clipPath>
  </defs>
  <g id="Group_759" data-name="Group 759" transform="translate(-42.52 -189.796)">
    <g id="Group_210" data-name="Group 210" transform="translate(42.52 189.796)">
      <g id="Group_209" data-name="Group 209" clip-path="url(#clip-path)">
        <rect id="Rectangle_382" data-name="Rectangle 382" width="164.687" height="230.731" transform="translate(-7.968 -7.443)" fill="#87bfc8"/>
        <path id="Path_555" data-name="Path 555" d="M89.261,248.695l.29.138a7.822,7.822,0,0,0,.671,1.21l.189.04a7.307,7.307,0,0,1,1.3-1.127l.349.072a1.7,1.7,0,0,1,.436.761l.151.422.189.1.287-.207c.367-.324.744-.637,1.106-.955l.139-.021.335.332c.123.313.274.612.374.912l.205.166.219-.021a11.057,11.057,0,0,1,1.3-.748l.287.19.162.646.233.384.176.028a2.729,2.729,0,0,0,.983-.482l.465-.107.112.2-.021,1.008.267.362c.511-.256,1.052-.486,1.533-.767l.242.313c.062.249-.011.52.039.771l.267.426a8.751,8.751,0,0,1,1.225-.509l.461.119.1.339.1.541.027.452.2.09c.319-.055.6-.177.938-.209l.454,0,.187.269-.036.4c.039.209.071.426.091.624l.463.117a4.449,4.449,0,0,1,.723-.13l.205.264a6.428,6.428,0,0,0-.192,1.008l.157.147c.463-.023.853-.087,1.259-.128l.237.424a2.8,2.8,0,0,0-.251.993l.16.145a4.238,4.238,0,0,0,1.129-.03l.333.117.016.156a10.3,10.3,0,0,0-.3,1.106l.135.132a13.293,13.293,0,0,0,1.4-.006l.066.245a7.364,7.364,0,0,1-.579.98l-.073.258.176.175a12.1,12.1,0,0,0,1.323.111l.153.234a4.382,4.382,0,0,1-.484.8l-.228.273.4.254a7.56,7.56,0,0,0,1.125.209l.164.194c-.153.241-.379.484-.573.744l-.189.339.119.173a6.29,6.29,0,0,0,1.371.337l.141.164-.228.311c-.287.3-.545.633-.84.893l.144.251c.44.134.906.241,1.339.4l.283.254-.03.1c-.39.3-.693.688-1.07,1.023.059.2.258.279.415.369.292.164.6.311.917.45l.185.162-.121.239a4.612,4.612,0,0,0-.678.577l-.03.051.2.215c.249.151.509.3.764.462l.276.26-.007.181a8.822,8.822,0,0,1-1.063.652l-.1.17.114.126a2.547,2.547,0,0,1,.627.352l.47.249a.369.369,0,0,1,.176.447.724.724,0,0,1-.641.326l-.552.294.039.187a10.58,10.58,0,0,1,1.079.667l.073.156-.192.209a3.106,3.106,0,0,0-1.02.535l-.31.2.082.16a3.9,3.9,0,0,1,.849.563l.328.275v.07l-.328.175a4.387,4.387,0,0,1-.584.217l-.536.251-.082.177a4.634,4.634,0,0,0,.99.788l.169.234-.406.279c-.294.111-.625.177-.938.271l-.169.156.052.141a5.862,5.862,0,0,0,.931.765l-.08.4c-.468.136-.995.211-1.485.324l-.157.209a11.137,11.137,0,0,0,1,1.168l-.036.228a3.134,3.134,0,0,1-1.154.3l-.057.141a2.879,2.879,0,0,1,.668.744l-.1.369c-.5.034-.917.143-1.408.181l-.116.162c.182.469.392.908.573,1.372l-.356.266-1.2-.083-.155.16c.1.454.167.952.278,1.419l-.176.268-.445,0c-.244-.038-.516-.043-.76-.064l-.185.2a13.048,13.048,0,0,0,.258,1.481l-.3.288-.96.077-.189.183a5.866,5.866,0,0,0,.075.976l-.137.181h-.162c-.4-.141-.792-.258-1.184-.379l-.217.422a6.07,6.07,0,0,0,.068.876l-.224.228-.258-.075a9.737,9.737,0,0,0-.954-.407l-.23.213a12.367,12.367,0,0,1-.071,1.27l-.383.245a1.5,1.5,0,0,1-.568-.222l-.472-.19-.246.2c-.173.411-.269.891-.44,1.317l-.3.1c-.285-.147-.563-.311-.869-.439l-.244.03-.119.232c-.071.3-.1.612-.162.927l-.37.173a3.371,3.371,0,0,1-.913-.631l-.283,0a4.511,4.511,0,0,0-.586,1.229l-.351.092c-.354-.16-.548-.479-.851-.684l-.224-.019-.205.369c-.144.332-.244.663-.406.974l-.189.032a4.721,4.721,0,0,0-1.111-.837l-.235.187a3.887,3.887,0,0,1-.543.759l-.333.36c-.249-.09-.367-.337-.534-.52l-.44-.422-.2-.032L91.791,297.5l-.242,0a11.7,11.7,0,0,1-.794-.948l-.24-.187-.255.1a13.321,13.321,0,0,0-1.1,1.074l-.219.028a5.258,5.258,0,0,1-.682-.906l-.224-.311-.276-.036a7.366,7.366,0,0,0-1.143,1.144l-.171,0-.205-.224c-.2-.339-.271-.771-.568-1.014l-.173-.107-.34.164a5.713,5.713,0,0,0-.814.68l-.153.026a11.05,11.05,0,0,1-.767-1.163l-.235-.362-.244.026a10.472,10.472,0,0,0-1.189.929l-.219,0-.11-.175a5.366,5.366,0,0,0-.214-1.513l-.183-.09c-.543.315-1.074.641-1.583.978l-.287-.23a5.808,5.808,0,0,0-.039-1.215l-.167-.128-.456.2c-.354.187-.668.407-1.006.582l-.26-.179a12.307,12.307,0,0,1,.08-1.4l-.182-.141c-.212.072-.424.194-.682.288l-.821.33-.381-.2a4.071,4.071,0,0,1,.24-1.315l-.155-.179a1.711,1.711,0,0,0-.865.307,1.225,1.225,0,0,1-.678.188l-.23-.3a5.3,5.3,0,0,0,.322-1.085l-.162-.17a11.419,11.419,0,0,0-1.351.29L72,291.12l-.059-.181.2-.844-.187-.228-1.027-.015-.365.064-.221-.294a7.726,7.726,0,0,0,.408-1.379l-.157-.16a12.821,12.821,0,0,1-1.373-.015.455.455,0,0,1-.265-.565,3.634,3.634,0,0,1,.4-.972l-.141-.2a4.117,4.117,0,0,1-1.446-.173l-.194-.392a2.548,2.548,0,0,1,.415-.7l.148-.313-.429-.249c-.329-.1-.732-.111-1.072-.207l-.2-.283a3.34,3.34,0,0,1,.616-.906l.091-.341-.2-.126c-.413-.13-.89-.183-1.291-.322l-.139-.377a6.459,6.459,0,0,1,.924-1.014l-.075-.2a8.219,8.219,0,0,0-1.378-.467L64.742,280l.1-.187c.271-.3.6-.539.86-.842l-.032-.249a7.181,7.181,0,0,0-1.218-.6l-.107-.3a3.486,3.486,0,0,1,.949-.8l.009-.26a4.834,4.834,0,0,1-1.246-.729l-.023-.228c.153-.381.6-.5.928-.718l.055-.309a7.831,7.831,0,0,0-1.1-.673l-.075-.441c.338-.3.767-.5,1.134-.773l-.03-.245c-.347-.345-.771-.626-1.125-.97l-.009-.228c.23-.292.657-.4.949-.633l.192-.264a5.441,5.441,0,0,0-.575-.707,2.04,2.04,0,0,1-.417-.526l.358-.332a5.711,5.711,0,0,0,.8-.433l.062-.17a6.741,6.741,0,0,1-.735-1.057l-.05-.207a.828.828,0,0,1,.7-.58l.511-.145.1-.228a6.315,6.315,0,0,1-.659-1.3l.139-.384a1,1,0,0,1,.591-.241l.436-.087.436-.062.089-.145a6.979,6.979,0,0,1-.532-1.261.454.454,0,0,1,.267-.569,4.143,4.143,0,0,0,1.077-.092l.125-.177a8.978,8.978,0,0,0-.413-1.229l.032-.143c.08-.168.335-.164.568-.179.376-.023.748-.047,1.093-.1l.244-.311-.319-.98-.162-.347.18-.207.573-.009a3.452,3.452,0,0,0,.926.077l.167-.222c-.052-.49-.121-.948-.2-1.411l.162-.29.2.015a5.667,5.667,0,0,0,.844.251l.358-.2a10.486,10.486,0,0,1-.148-1.078.364.364,0,0,1,.31-.358l1.417.264.137-.128v-1.131a.5.5,0,0,1,.155-.618l.315-.019a8.657,8.657,0,0,0,1.163.5l.226-.194a12.186,12.186,0,0,1,.233-1.313l.324-.3c.356.2.735.349,1.09.533l.2,0,.121-.177.283-1.025.548-.121.992.546.256-.211c.116-.4.313-.744.429-1.112l.212-.132a5.643,5.643,0,0,1,.618.335,3.843,3.843,0,0,1,.623.373l.317-.381c.119-.3.2-.637.319-.935l.335-.2.139.072a4.642,4.642,0,0,0,.785.663l.226.006.205-.268a6.519,6.519,0,0,1,.411-.808l.379-.128c.3.281.573.626.883.942l.249-.047c.283-.356.552-.718.814-1.1l.313-.228c.212.06.313.288.42.469a8.11,8.11,0,0,1,.668.75l.23-.066a13.629,13.629,0,0,0,1.054-1.2Z" transform="translate(-15.241 -123.196)" fill="#fff3d8"/>
        <path id="Path_556" data-name="Path 556" d="M60.569,256.554l2.037,5.9,6.636-.011-5.375,3.635,2.062,5.892-5.361-3.654-5.363,3.654,2.065-5.892-5.377-3.635,6.636.011Z" transform="translate(-30.511 -114.309)" fill="#fff3d8"/>
        <path id="Path_557" data-name="Path 557" d="M99.421,256.554l2.037,5.9,6.636-.011-5.375,3.635,2.062,5.892-5.361-3.654-5.363,3.654,2.065-5.892-5.377-3.635,6.636.011Z" transform="translate(19.27 -114.309)" fill="#fff3d8"/>
      </g>
    </g>
    <g id="Group_214" data-name="Group 214" transform="translate(42.52 189.796)">
      <g id="Group_213" data-name="Group 213" clip-path="url(#clip-path)">
        <text id="Your_radios_market_2_goods_per_turn_instead_of_1" data-name="Your radios market 2 goods
per turn instead of 1" transform="translate(75.293 186.527)" fill="#1a1311" font-size="8" font-family="AveriaSerifLibre-Regular, Averia Serif Libre"><tspan x="-50.246" y="0">Your radios market 2 goods</tspan><tspan x="-36.836" y="10">per turn instead of 1</tspan></text>
        <text id="First_radio" data-name="First radio" transform="translate(42.468 95.791)" fill="#1a1311" font-size="15" font-family="VTCSuperMarketSale"><tspan x="0" y="0">First radio</tspan></text>
        <text id="campaign" transform="translate(47.883 113.265)" fill="#1a1311" font-size="15" font-family="VTCSuperMarketSale"><tspan x="0" y="0">campaign</tspan></text>
        <path id="Path_593" data-name="Path 593" d="M61.212,213a52.911,52.911,0,0,0,9.057.281,50.614,50.614,0,0,0,8.026-1.112c1.394-.322,8.187-1.649,11.662-2.7.5-.149,5.911-1.479,8.153-2.088,4.893-1.332,9.873-2.38,14.778-3.62,2.277-.575,4.542-1.078,6.846-1.547a69.368,69.368,0,0,1,11.281-1.417,29.234,29.234,0,0,1,14.956,3.569,17.557,17.557,0,0,1,3.372,2.312,32.313,32.313,0,0,1,2.566,2.727c.408.445.951-.034.625-.447-.4-.5-.83-.984-1.259-1.466a15.178,15.178,0,0,0-2.124-2.114,39.436,39.436,0,0,0-4.738-3.277,27.9,27.9,0,0,0-7.921-2.7c-9.273-1.892-18.848-.716-27.811,1.95-2.3.684-4.581,1.46-6.889,2.033a35.225,35.225,0,0,0-3.431,1.093c-.484.228-5.991,1.909-6.682,2.118q-2.077.633-4.168,1.229c-1.469.42-2.954.788-4.432,1.178-.593.158-1.239.294-1.836.479-1.239.386-2.471.535-3.7.9a29.374,29.374,0,0,1-3.429.727,69.537,69.537,0,0,1-7.373,1.055,19.609,19.609,0,0,1-6.54-.46c-2.322-.69-4.467-2-5.236-4.3-.819-2.452,1.98-4.434,4.152-5.071a18.373,18.373,0,0,1,8.167-.136c.979.173,3.014.852,2.817,2.084-.1.6-.577.831-1.113,1.087-.4.194-.963.5-.591,1,.589.784,2.628.3,3.456.264,1.2-.055,2.434-.251,3.65-.394a44.67,44.67,0,0,0,8.254-2.039c1.643-.524,3.258-1.117,4.907-1.63,2.195-.684,4.378-1.364,6.577-2.037,1.462-.447,2.979-.663,4.433-1.131.36.006,1.2-.2.963-.718-.157-.341-.94-.279-1.236-.258a34.062,34.062,0,0,0-8.062,1.523c-2.133.695-3.7,1.389-5.489,2.069q-1.82.7-3.643,1.389c-1.074.409-2.224.637-3.29,1.036-.561.209-2.881.776-3.319.865a21.662,21.662,0,0,1-3.223.4c-.6.026-1.175-.026-1.28-.3-.217-.571.265-1.048.265-1.57a5.119,5.119,0,0,0-.084-1.46,5.254,5.254,0,0,0-2.074-2.612c-1.6-1.287-4.362-1.628-6.378-1.483-4.61.286-9.444,2.862-9.563,7.581a7.049,7.049,0,0,0,1.225,3.313A9.514,9.514,0,0,0,55.8,210.6,9.637,9.637,0,0,0,61.212,213" transform="translate(-28.766 -180.251)" fill="#1a1311"/>
        <path id="Path_594" data-name="Path 594" d="M151.651,217.795a8.573,8.573,0,0,0-.792-1.6c-.121-.192-.614-.829-.787-1.031a10.577,10.577,0,0,0-3.057-2.039,9.71,9.71,0,0,0-3.121-.955,27.907,27.907,0,0,0-6.1-.3c-2.076.16-4.341.475-5.258.607-2.14.309-8.1,1.57-9.349,1.864-1.41.332-2.842.59-4.245.942-.678.17-1.289.322-1.985.46-.545.107-3.741.95-4.791,1.151-1.246.236-4.61,1.134-5.1,1.217-.525.092-.992.283-1.526.4-1.079.226-4.17,1.033-4.585,1.144-1.143.3-2.306.575-3.438.916-.315-.015-2.642.658-3.178.805-1.189.326-7.321,1.72-9.2,2.105a46.784,46.784,0,0,1-9.447,1.18c-1.49,0-2.982-.045-4.46-.072-.271-.006-3.023-.347-4.334-.631-.577-.126-1.225-.245-1.814-.394s-.712-.17-1.773-.5a56.177,56.177,0,0,1-5.605-2.681,16.639,16.639,0,0,1-2.742-2.135l-.509-.5c-.436-.441-.477.262-.3.533a11.063,11.063,0,0,0,2.514,2.636,17.1,17.1,0,0,0,2.975,2.141,35.8,35.8,0,0,0,3.9,1.8,50.7,50.7,0,0,0,8.689,2.167,39.731,39.731,0,0,0,7.9.268,52.081,52.081,0,0,0,6.5-.6c1.645-.294,3.16-.569,4.77-.993.358-.094,5.067-1.383,6.118-1.724,3.6-1.168,12.526-3.908,14.979-4.649,1.957-.59,3.876-1.253,5.856-1.777,2.128-.562,4.248-1.057,6.346-1.666.659-.192,2.8-.718,3.217-.8a88.451,88.451,0,0,1,11.806-1.952,13.947,13.947,0,0,1,7.04,1.161,6.176,6.176,0,0,1,2.509,1.994,3.731,3.731,0,0,1,.6,1.634,5.1,5.1,0,0,1,.025,1.685c-.176,2.124-3.26,3.663-5.881,4.08a15.075,15.075,0,0,1-5.014-.309c-.944-.179-2.662-.594-3.31-1.568-.536-.8-.881-1.788.094-2.568.379-.3,1.043-.132,1.248-.686.182-.492-.582-.571-.876-.552l-1.7.126a38.345,38.345,0,0,0-6.15,1.108c-1.487.358-2.991.724-4.455,1.159-.933.277-4.049,1.144-6.842,2.092-1.227.418-2.487.884-3.718,1.289-2.192.722-4.458,1.259-6.716,1.847-1.289.335-2.7.2-3.967.6-1.506.471,1.608.918,2.042.923a27.182,27.182,0,0,0,8.046-1.338c1.1-.328,2.163-.656,3.255-.989,1.223-.373,6.691-2.2,8.1-2.815,1.3-.569,2.683-.9,4.02-1.374,1.389-.492,5.5-1.381,6-1.632.57-.286.269.426.089.6a2.627,2.627,0,0,0-.306,3.134,6.619,6.619,0,0,0,2.227,2.512,12.6,12.6,0,0,0,5.347,1.862,11.464,11.464,0,0,0,6.2-.835,7.551,7.551,0,0,0,4.109-4.732,6.071,6.071,0,0,0-.091-3.739" transform="translate(-27.733 -164.903)" fill="#1a1311"/>
        <path id="Path_595" data-name="Path 595" d="M140.678,209.263l.089.234.062.177.087.121.132.066a.42.42,0,0,0,.577-.2,1.611,1.611,0,0,0,.185-.556l.036-.411.052-.4.021-.181-.023-.183c-.039-.356-.233-.484-.586-.381l-.214.092-.281.313-.31.283c-.292.038-.579.064-.865.079s-.575.028-.865.036l-.4,0-.2-.083-.084-.179-.071-.309.009-.224c.043-.392.073-.784.094-1.174s.034-.784.048-1.176l.036-.349.1-.179.205-.064.36-.017.073,0a7.49,7.49,0,0,0,1.576-.034,5.349,5.349,0,0,1,.9-.036c.3.015.6.03.913.049l.148.032.08.087.048.1-.1.467.027.469a.4.4,0,0,0,.591.285l.183-.051.18-.064.2-.128.082-.2c.009-.262.011-.518,0-.771s-.014-.509-.025-.771l-.014-.07-.244-.26-.187-.047-.2-.006-.468.028-.479.013q-1.786-.054-3.543.06a8.051,8.051,0,0,1-1.262,0,5.074,5.074,0,0,0-.824-.011c-.271.019-.548.045-.828.072l-.262.245-.052.207c0,.29.167.473.5.55a.334.334,0,0,1,.317.36,5.281,5.281,0,0,0,.016,1.247l.014.288-.018.3q-.017.841-.043,1.66a14.725,14.725,0,0,0,.032,1.647l-.016.435-.048.516.055.52a5.734,5.734,0,0,1,.089.684,2.832,2.832,0,0,1-.032.693l-.3.313-.233.041-.235.043-.189.049-.189.051-.139.121-.036.166.014.085.039.141.041.143.214.264.342.075.543-.053.554-.011.2,0,.2-.028a10.473,10.473,0,0,1,1.2-.117c.4-.015.81-.026,1.23-.032q.811-.016,1.613,0c.536.013,1.072.021,1.613.03l.4-.023.388-.094.326-.367q.027-.364.041-.735l.027-.735-.011-.141-.091-.164-.169-.081h-.2l-.187.015-.386.241-.16.3-.071.326-.1.271-.29.124-.157.032-.16.015q-.39.016-.78.026c-.26.006-.525,0-.794,0l-.586,0-.586.053-.347.023-.358-.017-.132-.062-.071-.128-.014-.07-.011-.07-.011-.554-.071-.556-.03-.4-.016-.415-.018-.546-.064-.55-.009-.337.034-.32.048-.089.091-.075.376-.045.322.017.31-.026a3.031,3.031,0,0,1,.721-.034c.24.017.488.023.748.023m-11.32.364-.025.058-.057.021-.233-.243.066-.119.03,0,.014.006.016,0,.137.107Zm2.347-1.719.016,0,0,.162,0,.149a7.7,7.7,0,0,0,.039.891c.032.292.068.586.114.882l.064.4.034.4.007.07-.025.072-.011.03-.03.017-.073.009-.271-.254-.267-.239-.208-.209-.219-.209-.522-.458-.436-.524-.182-.213-.185-.213-.226-.286-.217-.315c-.125-.183-.251-.373-.379-.565s-.253-.381-.379-.565c-.194-.262-.386-.524-.579-.784s-.386-.526-.579-.8l-.084-.119-.114-.1-.233-.173-.192-.217-.155-.139-.224-.062c-.2-.015-.408-.036-.62-.066a1.012,1.012,0,0,0-.636.132l-.219.06-.253.034-.415.058-.417.06-.249.239-.075.347.043.085.075.07.114.03.114.015.379.038.183.092.075.19.05.326.023.175.007.175.055.531.066.528a6.82,6.82,0,0,1,.116.818c.025.279.043.554.057.827q.014.7.073,1.372c.025.3.052.6.084.893s.062.6.1.893l.021.315.048.311a4.851,4.851,0,0,1,.046.616c0,.2,0,.4,0,.605l-.24.352-.155.045-.1.081L124.3,215l-.221.2-.048.062-.016.072-.007.1.023.089.326.2.367.009c.265-.064.532-.119.8-.162s.529-.087.785-.134l.228-.068.21-.092.094-.124,0-.128-.114-.268-.251-.128a.337.337,0,0,1-.356-.3l-.064-.394-.05-.4q-.086-.668-.135-1.319t-.151-1.315c-.048-.324-.1-.643-.167-.957a4.2,4.2,0,0,1-.075-.963l0-.064-.014-.077-.078-.541-.062-.543a2.788,2.788,0,0,1,.112-.984l.05-.034.068.006.322.249.235.3a13.186,13.186,0,0,1,.9,1.144,8,8,0,0,0,.938,1.11l.13.134.1.151a13.293,13.293,0,0,0,1.214,1.532l.1.109.084.111.383.522.37.524a8.066,8.066,0,0,0,.716.916c.26.288.538.565.833.835l.365.241.438.023.194-.028.194-.028.185-.111.087-.215v-.092l0-.119c-.043-.268-.075-.539-.094-.814s-.025-.55-.018-.822l-.021-.428-.066-.422c-.082-.349-.146-.7-.2-1.065a9.554,9.554,0,0,1-.091-1.076c-.014-.271-.032-.543-.057-.818s-.057-.55-.1-.827l-.039-.356-.023-.358-.023-.371-.025-.356,0-.2.011-.219.03-.539-.048-.545.121-.168.146-.051.148-.036.356-.124.178-.315.087-.207-.048-.121-.121-.085-.151-.019-.153,0a6,6,0,0,0-.723.064,3.063,3.063,0,0,1-.725.021l-.324.085-.235.243-.068.17.036.173.121.17a.636.636,0,0,1,.267.492l.048.36.043.349q.031.531.062,1.042c.018.343.036.686.057,1.031m-16.081,5.406-.025-.188-.037-.158a2.078,2.078,0,0,1-.132-.646c-.011-.217-.021-.435-.03-.654l-.023-.5-.078-.471a1.783,1.783,0,0,1-.034-.631q.041-.316.089-.626l.03-.107.032-.107.123-.541.194-.556.292-.452.34-.45.089-.117.094-.092.164-.119.167-.1.543-.268a1.72,1.72,0,0,1,.611-.094l.44.017.427.051a1.264,1.264,0,0,1,.8.482l.292.428.292.428.13.245.1.239c.084.249.157.494.221.735s.135.482.219.722a2.741,2.741,0,0,1,.141,1.161l-.011.254.032.23a2.494,2.494,0,0,1,.052.727q-.024.371-.048.748l-.059.456-.1.45a3.753,3.753,0,0,1-1.268,2.077l-.253.181-.262.124a3.26,3.26,0,0,1-.721.175,2.258,2.258,0,0,1-.719-.026l-.566-.173-.445-.4-.308-.482-.308-.5-.2-.381-.135-.317-.082-.335Zm7.248-2.84-.1-.754a6.363,6.363,0,0,0-.306-.876c-.125-.286-.251-.562-.379-.833a5.533,5.533,0,0,0-.356-.631c-.125-.194-.258-.386-.395-.58l-.258-.292-.283-.258-.308-.217-.333-.183-.335-.132-.5-.128-.557-.053-.547.011-.461.045-.139.028-.153.045-.582.2-.593.234-.233.1-.23.132a2.2,2.2,0,0,0-.611.433l-.525.513a2.736,2.736,0,0,0-.6.8c-.141.292-.287.586-.436.884-.068.311-.141.618-.214.925a4.343,4.343,0,0,0-.119.948c.009.217.021.437.036.658a2.916,2.916,0,0,1-.036.673l.014.213c.043.249.087.5.13.739a2.1,2.1,0,0,0,.26.7l.2.447a4.242,4.242,0,0,0,.436.886,5.826,5.826,0,0,0,.618.778,4.9,4.9,0,0,0,.746.607,2.237,2.237,0,0,0,.919.345l.064.021.062.023a4.04,4.04,0,0,0,.735.132,3.485,3.485,0,0,0,.771-.021l.538-.087.532-.128a2.588,2.588,0,0,0,.757-.3l.575-.369.6-.341.235-.149.214-.2.363-.375.176-.2.119-.232c.039-.092.1-.245.194-.454l.018-.032.018-.032a2.37,2.37,0,0,0,.242-.609,2.694,2.694,0,0,0,.073-.631q0-.329-.007-.665a5.474,5.474,0,0,1,.021-.669l.009-.554Zm-11.014-1.579.271.1.283-.075a.507.507,0,0,0,.258-.539l-.132-.678a.676.676,0,0,0-.4-.582l-.235-.075-.237,0-.4.1-.39.066a6.243,6.243,0,0,0-1.282.364l-.57.194-.591.083-.319.077a4.112,4.112,0,0,1-.906.273c-.3.053-.614.1-.933.124-.278.028-.559.051-.837.07a2.519,2.519,0,0,0-.814.194l-.185.03-.155.021-.484.1-.479.107-.47.315-.08.222c.034.271.078.537.135.8s.119.522.192.784l.219.194h.358l.319-.192.05-.1.016-.1-.043-.309-.059-.3.055-.143.121-.117c.3-.081.6-.158.906-.23s.611-.151.919-.234l.087-.021.363.217.16.467.162.482.08.249.023.277.046.3.057.3a5.152,5.152,0,0,0,.228.893,5.1,5.1,0,0,1,.228.893c.05.258.1.509.162.754a3.94,3.94,0,0,0,.249.722,1.888,1.888,0,0,1,.116.522c.084.422.164.84.244,1.249s.157.829.23,1.253l-.007.075-.009.075-.039.147-.123.109a5.124,5.124,0,0,0-.632.194l-.164.243.066.309.249.136.29-.028.271-.049c.463-.13.922-.251,1.38-.367a8.409,8.409,0,0,1,1.408-.228l.447-.209.162-.183.162-.183.034-.254-.212-.181-.324-.023-.31.117-.212.081-.212-.066-.123-.245c-.05-.209-.1-.415-.137-.618s-.082-.4-.132-.605c-.089-.354-.176-.712-.256-1.072s-.169-.729-.262-1.1c-.128-.558-.256-1.117-.381-1.679s-.253-1.123-.381-1.681c-.043-.211-.078-.418-.107-.618s-.059-.407-.091-.62l-.025-.175v-.2l.242-.39.256-.126.262-.1c.308-.083.614-.158.915-.226s.607-.136.915-.211l.363.217.1.322Zm-10.026,1.579-.1-.509-.114-.226-.208-.16H101.2l-.157.09-.121.2-.116.209-.194.1-.228-.009-.237-.036a3.839,3.839,0,0,0-.874-.068,7.828,7.828,0,0,0-.89.079,5.119,5.119,0,0,0-1.2.339,3.423,3.423,0,0,0-1.052.705l-.367.445a1.514,1.514,0,0,0-.212.537,4.028,4.028,0,0,0-.071,1.038,4.685,4.685,0,0,0,.18,1.006l.137.3.205.268.13.119.135.134a3.526,3.526,0,0,0,.8.6,3.042,3.042,0,0,0,.958.33q.524.118,1.04.224a10.55,10.55,0,0,0,1.061.16l.486.107.454.185.2.1.212.1.424.373a2.521,2.521,0,0,1,.344,1.928,1.2,1.2,0,0,1-.319.571,2.019,2.019,0,0,1-.543.364l-.29.107-.315.07-.3.036-.315-.015c-.34-.072-.666-.16-.981-.26a2.351,2.351,0,0,1-.862-.507,1.918,1.918,0,0,0-.73-.371l-.235.043-.167.158-.039.066-.009.075a4.631,4.631,0,0,0-.055,1.006,7.843,7.843,0,0,0,.11.993l.1.194a.349.349,0,0,0,.447.179.879.879,0,0,0,.433-.2.681.681,0,0,0,.128-.415l0-.251-.009-.266.059-.087.116-.028.21.064a4.445,4.445,0,0,0,2.772.307l.109-.019.107-.034a5.534,5.534,0,0,0,.8-.407,3.416,3.416,0,0,0,.707-.571l.276-.335.16-.379.123-.362.2-.541-.057-.552-.057-.275a2.143,2.143,0,0,0-.173-.594l-.281-.533-.351-.486-.39-.469-.089-.066-.089-.064a3.6,3.6,0,0,0-1-.573c-.363-.139-.723-.286-1.077-.439l-.112-.023-.112-.023-.386-.058-.372-.077c-.253-.045-.5-.092-.751-.141a3.049,3.049,0,0,1-.712-.239l-.128-.07-.1-.1a2.145,2.145,0,0,1-.395-.707,2.631,2.631,0,0,1-.1-.793,1,1,0,0,1,.536-.884l.573-.256a3.525,3.525,0,0,1,.8-.13c.267-.013.532-.013.8,0l.36.128.447.326.386.4.24.175.306-.032.251-.264.03-.187.016-.185-.05-.328Zm-10.539,7.138.135.209.1.158.107.1.144.032a.43.43,0,0,0,.516-.343,1.662,1.662,0,0,0,.064-.588l-.048-.413-.032-.4-.018-.183L92.2,216q-.164-.511-.648-.232l-.187.141-.208.377-.242.356q-.411.16-.821.288c-.271.083-.547.166-.828.245l-.39.1-.212-.032-.116-.153-.135-.288-.036-.222c-.039-.394-.089-.786-.153-1.176s-.125-.778-.194-1.166l-.039-.352.057-.2.185-.113.347-.1.073-.017a7.345,7.345,0,0,0,1.517-.418,5.328,5.328,0,0,1,.865-.256c.294-.06.591-.117.894-.175l.151,0,.1.066.068.087-.009.482.125.456a.383.383,0,0,0,.63.134l.167-.094.162-.107.167-.175.039-.215c-.046-.26-.1-.511-.155-.759s-.119-.5-.183-.75l-.027-.066-.29-.2-.192,0-.2.045-.445.141-.463.13q-1.735.38-3.415.92a8.22,8.22,0,0,1-1.218.311,4.74,4.74,0,0,0-.8.19c-.258.085-.52.177-.787.273l-.205.3-.007.217c.059.283.26.422.6.413a.321.321,0,0,1,.381.277,5.272,5.272,0,0,0,.271,1.221l.073.279.043.3c.107.552.205,1.1.3,1.639a15.683,15.683,0,0,0,.372,1.609l.073.43.062.52.162.5a6.263,6.263,0,0,1,.226.648,2.983,2.983,0,0,1,.112.688l-.224.379-.217.1-.219.1-.171.1-.173.094-.109.153v.175l.027.079.068.13.068.128.262.209.347-.011.513-.185.536-.147.189-.047.183-.077a10.544,10.544,0,0,1,1.141-.409q.578-.169,1.186-.33.78-.214,1.56-.394c.52-.117,1.04-.239,1.565-.364l.381-.119.354-.185.242-.441c-.032-.243-.068-.486-.112-.731s-.084-.488-.125-.727l-.039-.136-.123-.138-.18-.038-.2.049-.178.062-.322.328-.1.33v.339l-.041.29-.256.192-.146.068-.151.055c-.251.072-.5.145-.751.213s-.506.134-.771.192l-.566.139-.557.194-.331.109-.351.068-.141-.026-.094-.109-.027-.066-.027-.066-.123-.541-.183-.528-.112-.386-.1-.4-.13-.533-.176-.524-.078-.328-.034-.322.027-.1.075-.1.356-.136.315-.062.292-.1a3.251,3.251,0,0,1,.691-.209c.235-.04.479-.094.73-.16m-13.076.264,0-.043.032.023Zm7.234,5.163-.041-.518L85.4,222.4l-.036-.087-.189-.335-.274-.241-.376-.006-.192.139-.1.2-.068.5-.068.482a.5.5,0,0,1-.415.452l-.18.066-.185.038-1.49.341c-.49.113-.988.226-1.487.339l-.148.019c-.258.034-.422.019-.493-.047a.674.674,0,0,1-.141-.392l-.014-.19.016-.177a3.688,3.688,0,0,0-.066-1.159c-.084-.371-.155-.746-.214-1.125a2.126,2.126,0,0,1-.144-.7,4.384,4.384,0,0,1,.034-.727l.011-.439-.109-.439-.046-.2-.03-.215a3.149,3.149,0,0,1-.014-.654c.018-.215.03-.43.032-.65,0-.3-.011-.6-.023-.895s-.021-.592-.025-.895l.235-.286.381-.1.363-.153.162-.247-.155-.249-.3-.072-.285-.077a2.212,2.212,0,0,0-1.1-.038l-.317.064-.317.077c-.226.049-.456.1-.691.164s-.472.109-.707.151l-.379.247-.155.43.123.224.246.1h.2l.2-.026.123.068.073.147.018.06.007.077a3.02,3.02,0,0,0,.025.825,3.543,3.543,0,0,1,.041.822l.011.147.041.143a3.7,3.7,0,0,1,.121.8c.011.273.011.545,0,.82,0,.247,0,.488.009.729a5.489,5.489,0,0,0,.071.7,7.279,7.279,0,0,0,.151.886c.066.292.121.588.164.882s.073.556.094.837.05.569.082.865l-.055.177-.164.094-.317.077-.315.079-.253.224-.078.356.08.166.151.1.157.015.171-.015c.415-.075.833-.139,1.252-.2a7.225,7.225,0,0,0,1.246-.277l.317-.07.319-.043c.415-.075.821-.141,1.223-.2s.808-.119,1.223-.183l.235-.047.251-.075a6.816,6.816,0,0,1,.737-.17,3.494,3.494,0,0,1,.746-.043l.319-.034.315-.092.322-.2.116-.349-.018-.337-.034-.335Zm-14.306,1.617-.217.045-.187.03-.386.213-.205.366v.092l.075.09.258.139.481.058.465.1.246-.081.246-.079.187-.051.187-.008.6.006.6-.034c.3.026.431-.126.4-.452a.386.386,0,0,0-.365-.388l-.189-.013-.187-.013-.183-.179-.021-.428-.094-.411-.025-.175,0-.175-.025-2.031-.027-.435-.027-.42,0-.349c0-.337-.007-.675,0-1.016s0-.682.009-1.029.011-.673.016-1.014a5.858,5.858,0,0,1,.107-1l.021-.224.066-.2.214-.094.278-.011.135-.043.208-.2,0-.337-.221-.341-.383-.032a4.411,4.411,0,0,1-1.706.188,5.624,5.624,0,0,0-.675-.034.435.435,0,0,0-.5.411l.032.209.151.138.151.04.151.041.212.181.055.209.025.209.03.554v.554c-.016.354-.032.71-.046,1.063s-.027.71-.032,1.065l0,.511.043.524.034.322-.009.309c-.018.243-.025.482-.023.714a4.507,4.507,0,0,0,.068.7l.018.239.018.251.007.526.023.524,0,.315Zm-3.226-8.828.2-.117.187-.119.317-.379-.036-.273-.214-.151c-.374-.038-.748-.081-1.118-.128s-.741-.085-1.118-.115a.784.784,0,0,0-.862.439l-.084.2-.146.286-.132.288c-.144.277-.281.55-.413.818s-.256.541-.367.814l-.141.288-.183.277a3.17,3.17,0,0,0-.42.624,7.135,7.135,0,0,0-.308.69,9.757,9.757,0,0,1-.42,1q-.236.489-.5.965l-.057.023-.068.008-.052-.055-.043-.145-.041-.145c-.027-.281-.064-.558-.112-.831a4.754,4.754,0,0,0-.217-.812l-.078-.36-.075-.375c-.1-.46-.187-.923-.246-1.383s-.132-.92-.219-1.379q-.092-.607-.178-1.2c-.057-.394-.1-.79-.135-1.189l-.109-.288-.237-.2-.36-.13q-.613-.141-1.2-.268t-1.186-.249l-.3-.019-.342.232-.016.241.1.2.169.158.185.16.125.326c-.023.273-.041.543-.052.814a3.7,3.7,0,0,0,.052.82l-.009.185-.021.181c-.048.392-.094.784-.141,1.176s-.1.782-.155,1.172c-.032.271-.075.537-.125.8a6.622,6.622,0,0,0-.109.788c-.043.354-.078.7-.1,1.046s-.055.684-.084,1.023l-.055.326-.125.3-.089.117-.128.068-.536.141-.538.168-.073.115.027.149.171.143.2.162a1.211,1.211,0,0,0,.776.275l.511.053.484.034.178.03.151,0,.214-.036.167-.145-.11-.467-.224-.324-.007-.369.064-.352.066-.367q.154-.786.269-1.558a8.842,8.842,0,0,0,.091-1.581l0-.107v-.124c.05-.42.1-.833.151-1.244s.107-.825.178-1.24l.1-.307.1-.3.048-.032.071.03.1.192.055.228q.133.642.276,1.274c.094.422.187.842.276,1.261.094.381.173.767.237,1.153s.132.771.205,1.159c.041.249.082.5.123.744s.089.49.151.733.109.475.171.71.123.469.185.712l.05.138.05.139.214.217.388.087.383,0,.1-.136.114-.134a1.565,1.565,0,0,0,.452-.524,4.494,4.494,0,0,0,.271-.633,8.927,8.927,0,0,1,.463-1.168,8.41,8.41,0,0,1,.632-1.089l.251-.392.18-.437c.073-.194.141-.388.2-.582a1.066,1.066,0,0,1,.344-.494l.023-.068.039-.064.433-.987.235-.454.29-.413.043-.055.059-.053.03-.006.032-.009.1.136.011.354-.05.354a4.526,4.526,0,0,1-.025.827l-.1.812c-.048.392-.1.782-.148,1.168s-.1.773-.162,1.163c-.046.307-.091.609-.132.912s-.084.607-.13.912l-.048.207-.048.219-.027.215-.041.215-.011.226-.1.224-.164.009-.182.019-.233.111-.164.181-.016.4.315.251.274.034.26.017.237.028.235.04a4.645,4.645,0,0,0,.837.151,4.676,4.676,0,0,1,.837.149l.306-.181-.064-.343-.324-.237-.367-.134-.155-.132v-.185a.972.972,0,0,0,.109-.552,3.586,3.586,0,0,1-.018-.714c.016-.23.046-.465.084-.705.055-.3.1-.586.125-.871s.052-.58.068-.882c.016-.207.036-.413.066-.616a3.685,3.685,0,0,1,.141-.6c.057-.237.1-.475.146-.716s.078-.482.116-.722c.062-.349.13-.7.208-1.046s.155-.69.235-1.027" transform="translate(-26.309 -174.133)" fill="#1a1311"/>
      </g>
    </g>
    <g id="Group_771" data-name="Group 771" transform="translate(-437.163 -191.462)">
      <g id="Group_770" data-name="Group 770" transform="translate(535.683 504.438)" clip-path="url(#clip-path-3)">
        <path id="Path_2820" data-name="Path 2820" d="M554.041,505.512c8.614,1.548,15.022,6.011,14.311,9.967s-8.272,5.91-16.886,4.362c-7.995-1.437-13.9-5.811-13.192-9.767s7.772-6,15.767-4.563m-2.575,14.33c-8.614-1.548-15.022-6.011-14.311-9.969s8.272-5.908,16.886-4.361c7.995,1.437,13.9,5.811,13.192,9.767s-7.772,6-15.767,4.563" transform="translate(-534.447 -503.964)" fill="#1a1311" fill-rule="evenodd"/>
        <path id="Path_2821" data-name="Path 2821" d="M549.454,507.427c4.007.72,6.988,2.8,6.657,4.638s-3.848,2.749-7.854,2.029c-3.719-.668-6.468-2.7-6.137-4.544s3.616-2.79,7.334-2.122m-1.2,6.666c-4.007-.72-6.988-2.8-6.657-4.637s3.848-2.749,7.854-2.029c3.72.668,6.468,2.7,6.137,4.544s-3.616,2.79-7.334,2.122" transform="translate(-530.549 -502.048)" fill="#1a1311" fill-rule="evenodd"/>
        <path id="Path_2822" data-name="Path 2822" d="M550.624,506.938c5.18.932,9.035,3.618,8.607,6s-4.976,3.554-10.156,2.624c-4.81-.865-8.362-3.5-7.935-5.875s4.675-3.608,9.485-2.745m-1.55,8.62c-5.18-.932-9.035-3.616-8.607-6s4.974-3.554,10.156-2.624c4.808.865,8.362,3.5,7.933,5.876s-4.673,3.608-9.483,2.744" transform="translate(-531.542 -502.537)" fill="#1a1311" fill-rule="evenodd"/>
        <path id="Path_2823" data-name="Path 2823" d="M552.333,506.226c6.9,1.239,12.028,4.813,11.459,7.982s-6.625,4.731-13.521,3.492c-6.4-1.151-11.133-4.652-10.563-7.821s6.223-4.8,12.625-3.653M550.27,517.7c-6.9-1.239-12.03-4.813-11.459-7.982s6.623-4.733,13.521-3.492c6.4,1.149,11.132,4.652,10.563,7.821s-6.223,4.8-12.625,3.653" transform="translate(-532.995 -503.251)" fill="#1a1311" fill-rule="evenodd"/>
        <path id="Path_2824" data-name="Path 2824" d="M548.38,507.876c2.927.526,5.105,2.042,4.864,3.387s-2.813,2.008-5.74,1.482c-2.717-.488-4.725-1.974-4.484-3.32s2.643-2.038,5.36-1.55m-.876,4.87c-2.927-.526-5.105-2.044-4.864-3.387s2.811-2.008,5.74-1.482c2.717.489,4.724,1.974,4.482,3.318s-2.641,2.04-5.358,1.551" transform="translate(-529.636 -501.599)" fill="#1a1311" fill-rule="evenodd"/>
        <path id="Path_2825" data-name="Path 2825" d="M547.3,508.325c1.849.333,3.223,1.289,3.071,2.139s-1.776,1.267-3.623.936c-1.716-.309-2.983-1.246-2.83-2.1s1.667-1.286,3.382-.979m-.552,3.075c-1.847-.331-3.223-1.289-3.071-2.139s1.776-1.267,3.623-.936c1.716.309,2.983,1.246,2.83,2.1s-1.666,1.288-3.382.979" transform="translate(-528.723 -501.15)" fill="#1a1311" fill-rule="evenodd"/>
        <path id="Path_2826" data-name="Path 2826" d="M567.554,528.114a.677.677,0,0,0,.019-.15c0-1.7-6.756-3.079-15.084-3.079s-15.084,1.379-15.084,3.079a.677.677,0,0,0,.019.15c.38-1.632,6.981-2.931,15.066-2.931s14.685,1.3,15.065,2.931" transform="translate(-534.182 -486.618)" fill="#1a1311" fill-rule="evenodd"/>
        <path id="Path_2827" data-name="Path 2827" d="M567.554,526.557a.675.675,0,0,1,.019.15c0,1.7-6.756,3.079-15.084,3.079s-15.084-1.379-15.084-3.079a.675.675,0,0,1,.019-.15c.38,1.632,6.981,2.931,15.066,2.931s14.685-1.3,15.065-2.931" transform="translate(-534.182 -485.162)" fill="#1a1311" fill-rule="evenodd"/>
        <path id="Path_2828" data-name="Path 2828" d="M571.609,526.655a.834.834,0,0,1,.021.18c0,2.053-7.993,3.719-17.852,3.719s-17.852-1.666-17.852-3.719a.833.833,0,0,1,.021-.18c.451,1.969,8.263,3.539,17.831,3.539s17.38-1.57,17.831-3.539" transform="translate(-535.471 -485.077)" fill="#1a1311" fill-rule="evenodd"/>
        <path id="Path_2829" data-name="Path 2829" d="M571.609,528.305a.834.834,0,0,0,.021-.18c0-2.053-7.993-3.719-17.852-3.719s-17.852,1.666-17.852,3.719a.834.834,0,0,0,.021.18c.451-1.969,8.263-3.539,17.831-3.539s17.38,1.57,17.831,3.539" transform="translate(-535.471 -487.036)" fill="#1a1311" fill-rule="evenodd"/>
        <path id="Path_2830" data-name="Path 2830" d="M552.051,509.093,565.6,541.071h.6v1.342H564.43v-1.342h.028l-.028-.065-6.9-4.815-4.982,4.98v.721h.389v1.342h-1.765v-1.342h.389v-.721l-4.982-4.98-6.9,4.815-.028.065h.026v1.342h-1.763v-1.342h.6c3.822-9.021,9.344-22.053,13.548-31.978m.814,10.68.835-1.1,1.795,2.3-.777.778-1.948-1.948Zm1.179-1.557.468-.618,1.13,2.665-.024-.015Zm.088-1.518-.6.865-.992-1.282v-3.326Zm-.923,1.342-.664.964v-1.817Zm-1.864,1.733-.9-1.185-1.87,2.4.777.777Zm-1.241-1.638-.475-.629.384-.9.6.874.945-1.218v-3.3l-3.092,7.293Zm.838-.181.616.895v-1.684Zm12.4,20.493-2.4-5.672-2.354,2.352ZM553.3,531.442l3.915,2.731,2.5-2.5-3.58-3.062Zm2.854,3.792-3.614-2.519v6.133Zm-10.643-.1-2.354-2.354-2.4,5.672Zm5.281-3.687-3.913,2.731-2.5-2.5,3.582-3.062Zm-2.852,3.792,3.614-2.519v6.133Zm5.231-10.774,2.953,2.528,1.276-1.276-2.74-2.742Zm3.833,3.279,2.824,2.416-.865-2.04-.694-1.639Zm-1.748.118-2.715-2.323v5.038Zm-4.355-3.378-2.933,2.51-1.286-1.286,2.721-2.721Zm-3.81,3.26-2.824,2.416.865-2.04.694-1.639Zm1.748.118,2.716-2.323v5.038Zm6.457-5.521,2.117,2.117-1.26-2.974Zm-1.216.052-1.538-1.536v3.075Zm-5.309-.041-2.073,2.072,1.233-2.912Zm1.217.052,1.568-1.568v3.137Z" transform="translate(-533.744 -500.381)" fill="#1a1311" fill-rule="evenodd"/>
        <path id="Path_2831" data-name="Path 2831" d="M546.171,508.358a1.382,1.382,0,1,1-1.516,1.376,1.45,1.45,0,0,1,1.516-1.376" transform="translate(-527.864 -501.022)" fill="#1a1311" fill-rule="evenodd"/>
        <path id="Path_2832" data-name="Path 2832" d="M545.457,508.539a.5.5,0,1,1-.55.5.526.526,0,0,1,.55-.5" transform="translate(-527.645 -500.864)" fill="#1a1311" fill-rule="evenodd"/>
        <path id="Path_2833" data-name="Path 2833" d="M553.39,530.619q-3.739-.143-7.465-.485-1.83-.168-3.659-.385a12.589,12.589,0,0,1-3.524-.9,16.7,16.7,0,0,1-1.679-.786c-.533-.307-1.063-.855-.836-1.52.065-.193-.24-.275-.3-.084-.385,1.13.8,1.813,1.647,2.206a14.351,14.351,0,0,0,3.415,1.215c1.288.238,2.6.342,3.9.473s2.622.241,3.936.335q2.279.163,4.564.249c.2.007.2-.309,0-.316" transform="translate(-535.538 -485.344)" fill="#1a1311"/>
        <path id="Path_2834" data-name="Path 2834" d="M539.257,526.258c0,.159,0,.318,0,.477a1.605,1.605,0,0,1,0,.284c-.022.11-.015.118-.146.133a9.175,9.175,0,0,1-1.014,0,.158.158,0,0,0,0,.316h.773a1.021,1.021,0,0,0,.546-.058.451.451,0,0,0,.157-.389c.009-.253,0-.509-.006-.762a.158.158,0,0,0-.316,0" transform="translate(-533.706 -485.555)" fill="#1a1311"/>
        <path id="Path_2835" data-name="Path 2835" d="M545.412,514.156a6.756,6.756,0,0,1-.988,1.351,5.553,5.553,0,0,0-1.069,1.11c-.094.18.178.339.271.159a2.162,2.162,0,0,1,.541-.589,6.824,6.824,0,0,0,.6-.586,7.148,7.148,0,0,0,.919-1.286c.1-.178-.174-.337-.273-.159" transform="translate(-529.014 -496.037)" fill="#1a1311"/>
        <path id="Path_2836" data-name="Path 2836" d="M546.24,517.784a5.768,5.768,0,0,0-1.9-1.636c-.18-.1-.341.176-.161.271a5.367,5.367,0,0,1,1.785,1.523c.122.161.395,0,.275-.159" transform="translate(-528.347 -494.25)" fill="#1a1311"/>
        <path id="Path_2837" data-name="Path 2837" d="M545.669,518.029q-.076,1.378-.086,2.757,0,.676.011,1.353c0,.247-.026.61.279.685.2.049.283-.256.084-.305-.112-.026-.056-.934-.058-1.055,0-.382,0-.764,0-1.145q.017-1.146.082-2.289c.011-.2-.3-.2-.316,0" transform="translate(-527.056 -492.726)" fill="#1a1311"/>
        <path id="Path_2838" data-name="Path 2838" d="M548.625,519.519a27.236,27.236,0,0,1-2.394,2.652c-.15.138.075.361.223.223a27.02,27.02,0,0,0,2.394-2.652c.129-.155-.094-.38-.223-.223" transform="translate(-526.533 -491.342)" fill="#1a1311"/>
        <path id="Path_2839" data-name="Path 2839" d="M549.325,524.57q.733-.657,1.447-1.334a4.028,4.028,0,0,0,1.112-1.321c.148-.38-.462-.543-.608-.169a1.682,1.682,0,0,1-.442.552c-.215.211-.434.421-.653.631q-.643.606-1.3,1.2c-.3.271.144.715.445.445" transform="translate(-524.27 -489.539)" fill="#1a1311"/>
        <path id="Path_2840" data-name="Path 2840" d="M549.172,522.932a15.3,15.3,0,0,1-1.654,1.946c-.576.634-1.151,1.271-1.754,1.879a.319.319,0,0,0,.307.528c.316-.047.633-.094.951-.142.4-.06.23-.666-.168-.608-.316.049-.635.1-.951.142l.307.528c.627-.634,1.224-1.3,1.823-1.958a15.579,15.579,0,0,0,1.684-2c.219-.344-.328-.661-.545-.318" transform="translate(-526.982 -488.45)" fill="#1a1311"/>
        <path id="Path_2841" data-name="Path 2841" d="M547.625,515.844a20.594,20.594,0,0,0,5.581-.34,10.124,10.124,0,0,0,2.583-.758,5.35,5.35,0,0,0,1.716-1.686,5.934,5.934,0,0,0,1.226-2.541c.034-.2-.269-.284-.3-.084a5.368,5.368,0,0,1-.983,2.177,5.76,5.76,0,0,1-1.7,1.8,8.565,8.565,0,0,1-2.427.75,19.985,19.985,0,0,1-2.663.376,20.474,20.474,0,0,1-3.03-.007c-.2-.015-.2.3,0,.316" transform="translate(-525.408 -499.312)" fill="#1a1311"/>
        <path id="Path_2842" data-name="Path 2842" d="M546.3,516.614c-1.664-.915-3.356-1.8-4.991-2.76a7.4,7.4,0,0,1-3.472-3.573,5.47,5.47,0,0,1-.006-3.069c.039-.2-.264-.284-.3-.084a6.325,6.325,0,0,0-.135,2.762,5.273,5.273,0,0,0,1.106,2.124,14.772,14.772,0,0,0,4.529,3.159l3.114,1.714c.178.1.337-.176.159-.273" transform="translate(-534.287 -502.194)" fill="#1a1311"/>
        <path id="Path_2843" data-name="Path 2843" d="M545.916,510.664a1.268,1.268,0,0,1-.676-.872,1.5,1.5,0,0,1,0-.541c.019-.082.116-.313.251-.251.365.17.687-.372.318-.545a.783.783,0,0,0-.874.114,1.155,1.155,0,0,0-.346.881,1.91,1.91,0,0,0,.225,1.031,2.523,2.523,0,0,0,.782.726c.337.228.653-.318.318-.545" transform="translate(-527.92 -501.009)" fill="#1a1311"/>
        <path id="Path_2844" data-name="Path 2844" d="M546.063,521.165a.646.646,0,0,1-.067.387.324.324,0,0,0,.112.432.319.319,0,0,0,.432-.114,1.358,1.358,0,0,0,.129-.874.316.316,0,0,0-.387-.219.32.32,0,0,0-.219.387" transform="translate(-526.73 -490.207)" fill="#1a1311"/>
        <path id="Path_2845" data-name="Path 2845" d="M546.206,517.215a7.469,7.469,0,0,1-1.4,1.411c-.531.444-1.076.87-1.615,1.3-.316.255.133.7.446.445.565-.453,1.136-.9,1.69-1.366a7.655,7.655,0,0,0,1.426-1.475c.23-.335-.316-.651-.545-.318" transform="translate(-529.236 -493.427)" fill="#1a1311"/>
        <path id="Path_2846" data-name="Path 2846" d="M546.14,514.723a2.2,2.2,0,0,0-1.288.863,7.452,7.452,0,0,0-1,1.344.316.316,0,0,0,.545.318,6.717,6.717,0,0,1,.779-1.085c.138-.154.283-.3.434-.444s.324-.346.528-.365c.4-.036.4-.666,0-.631" transform="translate(-528.601 -495.477)" fill="#1a1311"/>
        <path id="Path_2847" data-name="Path 2847" d="M545.552,513.275l-.633.735a.316.316,0,0,0,.447.445l.631-.735a.321.321,0,0,0,0-.445.317.317,0,0,0-.445,0" transform="translate(-527.711 -496.817)" fill="#1a1311"/>
        <path id="Path_2848" data-name="Path 2848" d="M545.1,511.249a4.242,4.242,0,0,0,.082,2.008,6.556,6.556,0,0,1,.337,2.066c-.032.4.6.4.631,0,.109-1.325-.766-2.586-.442-3.906.1-.395-.511-.563-.608-.168" transform="translate(-527.549 -498.699)" fill="#1a1311"/>
        <path id="Path_2849" data-name="Path 2849" d="M545.8,510.907a5.291,5.291,0,0,0,.921,2.3c.389.769.73,1.563,1.052,2.362.644,1.6,1.231,3.232,2.021,4.77.395.767.876,1.48,1.3,2.229a11.182,11.182,0,0,1,.932,2.463,19.229,19.229,0,0,0,1.037,2.5,19.363,19.363,0,0,1,.861,2.4,28.163,28.163,0,0,0,1.918,5.4c.193.358.737.039.544-.318a23.6,23.6,0,0,1-1.7-4.72c-.236-.81-.485-1.621-.8-2.407-.32-.807-.752-1.565-1.05-2.379s-.462-1.7-.818-2.506a24.173,24.173,0,0,0-1.288-2.24,34.724,34.724,0,0,1-2.083-4.662c-.348-.881-.7-1.763-1.1-2.622-.2-.423-.412-.84-.638-1.248a2.743,2.743,0,0,1-.485-1.323.316.316,0,0,0-.631,0" transform="translate(-526.866 -499.066)" fill="#1a1311"/>
        <path id="Path_2850" data-name="Path 2850" d="M539.016,536.257a93.692,93.692,0,0,1,3.477-9.355c.644-1.52,1.306-3.034,1.967-4.546s1.3-3.069,2.062-4.548c.344-.663.644-1.344,1.05-1.973a9.091,9.091,0,0,0,1-1.727c.14-.382-.468-.546-.608-.168a8.066,8.066,0,0,1-.9,1.514,19.307,19.307,0,0,0-.928,1.724c-.769,1.493-1.428,3.034-2.1,4.574-1.318,3.017-2.646,6.032-3.827,9.107-.661,1.724-1.271,3.466-1.806,5.231a.316.316,0,0,0,.608.168" transform="translate(-533.321 -496.344)" fill="#1a1311"/>
      </g>
    </g>
  </g>
</svg>
