<svg xmlns="http://www.w3.org/2000/svg" xmlns:xlink="http://www.w3.org/1999/xlink" width="148.75" height="215.843" viewBox="0 0 148.75 215.843">
  <defs>
    <clipPath id="clip-path">
      <path id="Path_559" data-name="Path 559" d="M55.8,189.8s-13.282,0-13.282,12.4V393.236c0,.192.1,12.4,13.282,12.4H177.986s13.284,0,13.284-12.405V202.2s0-12.4-13.284-12.4Z" transform="translate(-42.52 -189.796)" fill="none"/>
    </clipPath>
  </defs>
  <g id="Group_755" data-name="Group 755" transform="translate(-42.52 -189.796)">
    <g id="Group_210" data-name="Group 210" transform="translate(42.52 189.796)">
      <g id="Group_209" data-name="Group 209" clip-path="url(#clip-path)">
        <rect id="Rectangle_382" data-name="Rectangle 382" width="164.687" height="230.731" transform="translate(-7.968 -7.443)" fill="#87bfc8"/>
        <path id="Path_555" data-name="Path 555" d="M89.261,248.695l.29.138a7.822,7.822,0,0,0,.671,1.21l.189.04a7.307,7.307,0,0,1,1.3-1.127l.349.072a1.7,1.7,0,0,1,.436.761l.151.422.189.1.287-.207c.367-.324.744-.637,1.106-.955l.139-.021.335.332c.123.313.274.612.374.912l.205.166.219-.021a11.057,11.057,0,0,1,1.3-.748l.287.19.162.646.233.384.176.028a2.729,2.729,0,0,0,.983-.482l.465-.107.112.2-.021,1.008.267.362c.511-.256,1.052-.486,1.533-.767l.242.313c.062.249-.011.52.039.771l.267.426a8.751,8.751,0,0,1,1.225-.509l.461.119.1.339.1.541.027.452.2.09c.319-.055.6-.177.938-.209l.454,0,.187.269-.036.4c.039.209.071.426.091.624l.463.117a4.449,4.449,0,0,1,.723-.13l.205.264a6.428,6.428,0,0,0-.192,1.008l.157.147c.463-.023.853-.087,1.259-.128l.237.424a2.8,2.8,0,0,0-.251.993l.16.145a4.238,4.238,0,0,0,1.129-.03l.333.117.016.156a10.3,10.3,0,0,0-.3,1.106l.135.132a13.293,13.293,0,0,0,1.4-.006l.066.245a7.364,7.364,0,0,1-.579.98l-.073.258.176.175a12.1,12.1,0,0,0,1.323.111l.153.234a4.382,4.382,0,0,1-.484.8l-.228.273.4.254a7.56,7.56,0,0,0,1.125.209l.164.194c-.153.241-.379.484-.573.744l-.189.339.119.173a6.29,6.29,0,0,0,1.371.337l.141.164-.228.311c-.287.3-.545.633-.84.893l.144.251c.44.134.906.241,1.339.4l.283.254-.03.1c-.39.3-.693.688-1.07,1.023.059.2.258.279.415.369.292.164.6.311.917.45l.185.162-.121.239a4.612,4.612,0,0,0-.678.577l-.03.051.2.215c.249.151.509.3.764.462l.276.26-.007.181a8.822,8.822,0,0,1-1.063.652l-.1.17.114.126a2.547,2.547,0,0,1,.627.352l.47.249a.369.369,0,0,1,.176.447.724.724,0,0,1-.641.326l-.552.294.039.187a10.58,10.58,0,0,1,1.079.667l.073.156-.192.209a3.106,3.106,0,0,0-1.02.535l-.31.2.082.16a3.9,3.9,0,0,1,.849.563l.328.275v.07l-.328.175a4.387,4.387,0,0,1-.584.217l-.536.251-.082.177a4.634,4.634,0,0,0,.99.788l.169.234-.406.279c-.294.111-.625.177-.938.271l-.169.156.052.141a5.862,5.862,0,0,0,.931.765l-.08.4c-.468.136-.995.211-1.485.324l-.157.209a11.137,11.137,0,0,0,1,1.168l-.036.228a3.134,3.134,0,0,1-1.154.3l-.057.141a2.879,2.879,0,0,1,.668.744l-.1.369c-.5.034-.917.143-1.408.181l-.116.162c.182.469.392.908.573,1.372l-.356.266-1.2-.083-.155.16c.1.454.167.952.278,1.419l-.176.268-.445,0c-.244-.038-.516-.043-.76-.064l-.185.2a13.048,13.048,0,0,0,.258,1.481l-.3.288-.96.077-.189.183a5.866,5.866,0,0,0,.075.976l-.137.181h-.162c-.4-.141-.792-.258-1.184-.379l-.217.422a6.07,6.07,0,0,0,.068.876l-.224.228-.258-.075a9.737,9.737,0,0,0-.954-.407l-.23.213a12.367,12.367,0,0,1-.071,1.27l-.383.245a1.5,1.5,0,0,1-.568-.222l-.472-.19-.246.2c-.173.411-.269.891-.44,1.317l-.3.1c-.285-.147-.563-.311-.869-.439l-.244.03-.119.232c-.071.3-.1.612-.162.927l-.37.173a3.371,3.371,0,0,1-.913-.631l-.283,0a4.511,4.511,0,0,0-.586,1.229l-.351.092c-.354-.16-.548-.479-.851-.684l-.224-.019-.205.369c-.144.332-.244.663-.406.974l-.189.032a4.721,4.721,0,0,0-1.111-.837l-.235.187a3.887,3.887,0,0,1-.543.759l-.333.36c-.249-.09-.367-.337-.534-.52l-.44-.422-.2-.032L91.791,297.5l-.242,0a11.7,11.7,0,0,1-.794-.948l-.24-.187-.255.1a13.321,13.321,0,0,0-1.1,1.074l-.219.028a5.258,5.258,0,0,1-.682-.906l-.224-.311-.276-.036a7.366,7.366,0,0,0-1.143,1.144l-.171,0-.205-.224c-.2-.339-.271-.771-.568-1.014l-.173-.107-.34.164a5.713,5.713,0,0,0-.814.68l-.153.026a11.05,11.05,0,0,1-.767-1.163l-.235-.362-.244.026a10.472,10.472,0,0,0-1.189.929l-.219,0-.11-.175a5.366,5.366,0,0,0-.214-1.513l-.183-.09c-.543.315-1.074.641-1.583.978l-.287-.23a5.808,5.808,0,0,0-.039-1.215l-.167-.128-.456.2c-.354.187-.668.407-1.006.582l-.26-.179a12.307,12.307,0,0,1,.08-1.4l-.182-.141c-.212.072-.424.194-.682.288l-.821.33-.381-.2a4.071,4.071,0,0,1,.24-1.315l-.155-.179a1.711,1.711,0,0,0-.865.307,1.225,1.225,0,0,1-.678.188l-.23-.3a5.3,5.3,0,0,0,.322-1.085l-.162-.17a11.419,11.419,0,0,0-1.351.29L72,291.12l-.059-.181.2-.844-.187-.228-1.027-.015-.365.064-.221-.294a7.726,7.726,0,0,0,.408-1.379l-.157-.16a12.821,12.821,0,0,1-1.373-.015.455.455,0,0,1-.265-.565,3.634,3.634,0,0,1,.4-.972l-.141-.2a4.117,4.117,0,0,1-1.446-.173l-.194-.392a2.548,2.548,0,0,1,.415-.7l.148-.313-.429-.249c-.329-.1-.732-.111-1.072-.207l-.2-.283a3.34,3.34,0,0,1,.616-.906l.091-.341-.2-.126c-.413-.13-.89-.183-1.291-.322l-.139-.377a6.459,6.459,0,0,1,.924-1.014l-.075-.2a8.219,8.219,0,0,0-1.378-.467L64.742,280l.1-.187c.271-.3.6-.539.86-.842l-.032-.249a7.181,7.181,0,0,0-1.218-.6l-.107-.3a3.486,3.486,0,0,1,.949-.8l.009-.26a4.834,4.834,0,0,1-1.246-.729l-.023-.228c.153-.381.6-.5.928-.718l.055-.309a7.831,7.831,0,0,0-1.1-.673l-.075-.441c.338-.3.767-.5,1.134-.773l-.03-.245c-.347-.345-.771-.626-1.125-.97l-.009-.228c.23-.292.657-.4.949-.633l.192-.264a5.441,5.441,0,0,0-.575-.707,2.04,2.04,0,0,1-.417-.526l.358-.332a5.711,5.711,0,0,0,.8-.433l.062-.17a6.741,6.741,0,0,1-.735-1.057l-.05-.207a.828.828,0,0,1,.7-.58l.511-.145.1-.228a6.315,6.315,0,0,1-.659-1.3l.139-.384a1,1,0,0,1,.591-.241l.436-.087.436-.062.089-.145a6.979,6.979,0,0,1-.532-1.261.454.454,0,0,1,.267-.569,4.143,4.143,0,0,0,1.077-.092l.125-.177a8.978,8.978,0,0,0-.413-1.229l.032-.143c.08-.168.335-.164.568-.179.376-.023.748-.047,1.093-.1l.244-.311-.319-.98-.162-.347.18-.207.573-.009a3.452,3.452,0,0,0,.926.077l.167-.222c-.052-.49-.121-.948-.2-1.411l.162-.29.2.015a5.667,5.667,0,0,0,.844.251l.358-.2a10.486,10.486,0,0,1-.148-1.078.364.364,0,0,1,.31-.358l1.417.264.137-.128v-1.131a.5.5,0,0,1,.155-.618l.315-.019a8.657,8.657,0,0,0,1.163.5l.226-.194a12.186,12.186,0,0,1,.233-1.313l.324-.3c.356.2.735.349,1.09.533l.2,0,.121-.177.283-1.025.548-.121.992.546.256-.211c.116-.4.313-.744.429-1.112l.212-.132a5.643,5.643,0,0,1,.618.335,3.843,3.843,0,0,1,.623.373l.317-.381c.119-.3.2-.637.319-.935l.335-.2.139.072a4.642,4.642,0,0,0,.785.663l.226.006.205-.268a6.519,6.519,0,0,1,.411-.808l.379-.128c.3.281.573.626.883.942l.249-.047c.283-.356.552-.718.814-1.1l.313-.228c.212.06.313.288.42.469a8.11,8.11,0,0,1,.668.75l.23-.066a13.629,13.629,0,0,0,1.054-1.2Z" transform="translate(-15.241 -123.196)" fill="#fff3d8"/>
        <path id="Path_556" data-name="Path 556" d="M60.569,256.554l2.037,5.9,6.636-.011-5.375,3.635,2.062,5.892-5.361-3.654-5.363,3.654,2.065-5.892-5.377-3.635,6.636.011Z" transform="translate(-30.511 -114.309)" fill="#fff3d8"/>
        <path id="Path_557" data-name="Path 557" d="M99.421,256.554l2.037,5.9,6.636-.011-5.375,3.635,2.062,5.892-5.361-3.654-5.363,3.654,2.065-5.892-5.377-3.635,6.636.011Z" transform="translate(19.27 -114.309)" fill="#fff3d8"/>
      </g>
    </g>
    <g id="Group_214" data-name="Group 214" transform="translate(42.52 189.796)">
      <g id="Group_213" data-name="Group 213" clip-path="url(#clip-path)">
        <text id="No_salaries_for_marketeers_Eternal_marketing" data-name="No salaries for marketeers;
Eternal marketing" transform="translate(79.293 186.527)" fill="#1a1311" font-size="8" font-family="AveriaSerifLibre-Regular, Averia Serif Libre"><tspan x="-49.344" y="0">No salaries for marketeers;</tspan><tspan x="-33.414" y="10">Eternal marketing</tspan></text>
        <text id="First_billboard_placed_" data-name="First
billboard
placed " transform="translate(76.468 79.791)" fill="#1a1311" font-size="15" font-family="VTCSuperMarketSale"><tspan x="-14.377" y="0">First</tspan><tspan x="-28.2" y="18">billboard</tspan><tspan x="-21.368" y="36">placed </tspan></text>
        <path id="Path_593" data-name="Path 593" d="M61.212,213a52.911,52.911,0,0,0,9.057.281,50.614,50.614,0,0,0,8.026-1.112c1.394-.322,8.187-1.649,11.662-2.7.5-.149,5.911-1.479,8.153-2.088,4.893-1.332,9.873-2.38,14.778-3.62,2.277-.575,4.542-1.078,6.846-1.547a69.368,69.368,0,0,1,11.281-1.417,29.234,29.234,0,0,1,14.956,3.569,17.557,17.557,0,0,1,3.372,2.312,32.313,32.313,0,0,1,2.566,2.727c.408.445.951-.034.625-.447-.4-.5-.83-.984-1.259-1.466a15.178,15.178,0,0,0-2.124-2.114,39.436,39.436,0,0,0-4.738-3.277,27.9,27.9,0,0,0-7.921-2.7c-9.273-1.892-18.848-.716-27.811,1.95-2.3.684-4.581,1.46-6.889,2.033a35.225,35.225,0,0,0-3.431,1.093c-.484.228-5.991,1.909-6.682,2.118q-2.077.633-4.168,1.229c-1.469.42-2.954.788-4.432,1.178-.593.158-1.239.294-1.836.479-1.239.386-2.471.535-3.7.9a29.374,29.374,0,0,1-3.429.727,69.537,69.537,0,0,1-7.373,1.055,19.609,19.609,0,0,1-6.54-.46c-2.322-.69-4.467-2-5.236-4.3-.819-2.452,1.98-4.434,4.152-5.071a18.373,18.373,0,0,1,8.167-.136c.979.173,3.014.852,2.817,2.084-.1.6-.577.831-1.113,1.087-.4.194-.963.5-.591,1,.589.784,2.628.3,3.456.264,1.2-.055,2.434-.251,3.65-.394a44.67,44.67,0,0,0,8.254-2.039c1.643-.524,3.258-1.117,4.907-1.63,2.195-.684,4.378-1.364,6.577-2.037,1.462-.447,2.979-.663,4.433-1.131.36.006,1.2-.2.963-.718-.157-.341-.94-.279-1.236-.258a34.062,34.062,0,0,0-8.062,1.523c-2.133.695-3.7,1.389-5.489,2.069q-1.82.7-3.643,1.389c-1.074.409-2.224.637-3.29,1.036-.561.209-2.881.776-3.319.865a21.662,21.662,0,0,1-3.223.4c-.6.026-1.175-.026-1.28-.3-.217-.571.265-1.048.265-1.57a5.119,5.119,0,0,0-.084-1.46,5.254,5.254,0,0,0-2.074-2.612c-1.6-1.287-4.362-1.628-6.378-1.483-4.61.286-9.444,2.862-9.563,7.581a7.049,7.049,0,0,0,1.225,3.313A9.514,9.514,0,0,0,55.8,210.6,9.637,9.637,0,0,0,61.212,213" transform="translate(-28.766 -180.251)" fill="#1a1311"/>
        <path id="Path_594" data-name="Path 594" d="M151.651,217.795a8.573,8.573,0,0,0-.792-1.6c-.121-.192-.614-.829-.787-1.031a10.577,10.577,0,0,0-3.057-2.039,9.71,9.71,0,0,0-3.121-.955,27.907,27.907,0,0,0-6.1-.3c-2.076.16-4.341.475-5.258.607-2.14.309-8.1,1.57-9.349,1.864-1.41.332-2.842.59-4.245.942-.678.17-1.289.322-1.985.46-.545.107-3.741.95-4.791,1.151-1.246.236-4.61,1.134-5.1,1.217-.525.092-.992.283-1.526.4-1.079.226-4.17,1.033-4.585,1.144-1.143.3-2.306.575-3.438.916-.315-.015-2.642.658-3.178.805-1.189.326-7.321,1.72-9.2,2.105a46.784,46.784,0,0,1-9.447,1.18c-1.49,0-2.982-.045-4.46-.072-.271-.006-3.023-.347-4.334-.631-.577-.126-1.225-.245-1.814-.394s-.712-.17-1.773-.5a56.177,56.177,0,0,1-5.605-2.681,16.639,16.639,0,0,1-2.742-2.135l-.509-.5c-.436-.441-.477.262-.3.533a11.063,11.063,0,0,0,2.514,2.636,17.1,17.1,0,0,0,2.975,2.141,35.8,35.8,0,0,0,3.9,1.8,50.7,50.7,0,0,0,8.689,2.167,39.731,39.731,0,0,0,7.9.268,52.081,52.081,0,0,0,6.5-.6c1.645-.294,3.16-.569,4.77-.993.358-.094,5.067-1.383,6.118-1.724,3.6-1.168,12.526-3.908,14.979-4.649,1.957-.59,3.876-1.253,5.856-1.777,2.128-.562,4.248-1.057,6.346-1.666.659-.192,2.8-.718,3.217-.8a88.451,88.451,0,0,1,11.806-1.952,13.947,13.947,0,0,1,7.04,1.161,6.176,6.176,0,0,1,2.509,1.994,3.731,3.731,0,0,1,.6,1.634,5.1,5.1,0,0,1,.025,1.685c-.176,2.124-3.26,3.663-5.881,4.08a15.075,15.075,0,0,1-5.014-.309c-.944-.179-2.662-.594-3.31-1.568-.536-.8-.881-1.788.094-2.568.379-.3,1.043-.132,1.248-.686.182-.492-.582-.571-.876-.552l-1.7.126a38.345,38.345,0,0,0-6.15,1.108c-1.487.358-2.991.724-4.455,1.159-.933.277-4.049,1.144-6.842,2.092-1.227.418-2.487.884-3.718,1.289-2.192.722-4.458,1.259-6.716,1.847-1.289.335-2.7.2-3.967.6-1.506.471,1.608.918,2.042.923a27.182,27.182,0,0,0,8.046-1.338c1.1-.328,2.163-.656,3.255-.989,1.223-.373,6.691-2.2,8.1-2.815,1.3-.569,2.683-.9,4.02-1.374,1.389-.492,5.5-1.381,6-1.632.57-.286.269.426.089.6a2.627,2.627,0,0,0-.306,3.134,6.619,6.619,0,0,0,2.227,2.512,12.6,12.6,0,0,0,5.347,1.862,11.464,11.464,0,0,0,6.2-.835,7.551,7.551,0,0,0,4.109-4.732,6.071,6.071,0,0,0-.091-3.739" transform="translate(-27.733 -164.903)" fill="#1a1311"/>
        <path id="Path_595" data-name="Path 595" d="M140.678,209.263l.089.234.062.177.087.121.132.066a.42.42,0,0,0,.577-.2,1.611,1.611,0,0,0,.185-.556l.036-.411.052-.4.021-.181-.023-.183c-.039-.356-.233-.484-.586-.381l-.214.092-.281.313-.31.283c-.292.038-.579.064-.865.079s-.575.028-.865.036l-.4,0-.2-.083-.084-.179-.071-.309.009-.224c.043-.392.073-.784.094-1.174s.034-.784.048-1.176l.036-.349.1-.179.205-.064.36-.017.073,0a7.49,7.49,0,0,0,1.576-.034,5.349,5.349,0,0,1,.9-.036c.3.015.6.03.913.049l.148.032.08.087.048.1-.1.467.027.469a.4.4,0,0,0,.591.285l.183-.051.18-.064.2-.128.082-.2c.009-.262.011-.518,0-.771s-.014-.509-.025-.771l-.014-.07-.244-.26-.187-.047-.2-.006-.468.028-.479.013q-1.786-.054-3.543.06a8.051,8.051,0,0,1-1.262,0,5.074,5.074,0,0,0-.824-.011c-.271.019-.548.045-.828.072l-.262.245-.052.207c0,.29.167.473.5.55a.334.334,0,0,1,.317.36,5.281,5.281,0,0,0,.016,1.247l.014.288-.018.3q-.017.841-.043,1.66a14.725,14.725,0,0,0,.032,1.647l-.016.435-.048.516.055.52a5.734,5.734,0,0,1,.089.684,2.832,2.832,0,0,1-.032.693l-.3.313-.233.041-.235.043-.189.049-.189.051-.139.121-.036.166.014.085.039.141.041.143.214.264.342.075.543-.053.554-.011.2,0,.2-.028a10.473,10.473,0,0,1,1.2-.117c.4-.015.81-.026,1.23-.032q.811-.016,1.613,0c.536.013,1.072.021,1.613.03l.4-.023.388-.094.326-.367q.027-.364.041-.735l.027-.735-.011-.141-.091-.164-.169-.081h-.2l-.187.015-.386.241-.16.3-.071.326-.1.271-.29.124-.157.032-.16.015q-.39.016-.78.026c-.26.006-.525,0-.794,0l-.586,0-.586.053-.347.023-.358-.017-.132-.062-.071-.128-.014-.07-.011-.07-.011-.554-.071-.556-.03-.4-.016-.415-.018-.546-.064-.55-.009-.337.034-.32.048-.089.091-.075.376-.045.322.017.31-.026a3.031,3.031,0,0,1,.721-.034c.24.017.488.023.748.023m-11.32.364-.025.058-.057.021-.233-.243.066-.119.03,0,.014.006.016,0,.137.107Zm2.347-1.719.016,0,0,.162,0,.149a7.7,7.7,0,0,0,.039.891c.032.292.068.586.114.882l.064.4.034.4.007.07-.025.072-.011.03-.03.017-.073.009-.271-.254-.267-.239-.208-.209-.219-.209-.522-.458-.436-.524-.182-.213-.185-.213-.226-.286-.217-.315c-.125-.183-.251-.373-.379-.565s-.253-.381-.379-.565c-.194-.262-.386-.524-.579-.784s-.386-.526-.579-.8l-.084-.119-.114-.1-.233-.173-.192-.217-.155-.139-.224-.062c-.2-.015-.408-.036-.62-.066a1.012,1.012,0,0,0-.636.132l-.219.06-.253.034-.415.058-.417.06-.249.239-.075.347.043.085.075.07.114.03.114.015.379.038.183.092.075.19.05.326.023.175.007.175.055.531.066.528a6.82,6.82,0,0,1,.116.818c.025.279.043.554.057.827q.014.7.073,1.372c.025.3.052.6.084.893s.062.6.1.893l.021.315.048.311a4.851,4.851,0,0,1,.046.616c0,.2,0,.4,0,.605l-.24.352-.155.045-.1.081L124.3,215l-.221.2-.048.062-.016.072-.007.1.023.089.326.2.367.009c.265-.064.532-.119.8-.162s.529-.087.785-.134l.228-.068.21-.092.094-.124,0-.128-.114-.268-.251-.128a.337.337,0,0,1-.356-.3l-.064-.394-.05-.4q-.086-.668-.135-1.319t-.151-1.315c-.048-.324-.1-.643-.167-.957a4.2,4.2,0,0,1-.075-.963l0-.064-.014-.077-.078-.541-.062-.543a2.788,2.788,0,0,1,.112-.984l.05-.034.068.006.322.249.235.3a13.186,13.186,0,0,1,.9,1.144,8,8,0,0,0,.938,1.11l.13.134.1.151a13.293,13.293,0,0,0,1.214,1.532l.1.109.084.111.383.522.37.524a8.066,8.066,0,0,0,.716.916c.26.288.538.565.833.835l.365.241.438.023.194-.028.194-.028.185-.111.087-.215v-.092l0-.119c-.043-.268-.075-.539-.094-.814s-.025-.55-.018-.822l-.021-.428-.066-.422c-.082-.349-.146-.7-.2-1.065a9.554,9.554,0,0,1-.091-1.076c-.014-.271-.032-.543-.057-.818s-.057-.55-.1-.827l-.039-.356-.023-.358-.023-.371-.025-.356,0-.2.011-.219.03-.539-.048-.545.121-.168.146-.051.148-.036.356-.124.178-.315.087-.207-.048-.121-.121-.085-.151-.019-.153,0a6,6,0,0,0-.723.064,3.063,3.063,0,0,1-.725.021l-.324.085-.235.243-.068.17.036.173.121.17a.636.636,0,0,1,.267.492l.048.36.043.349q.031.531.062,1.042c.018.343.036.686.057,1.031m-16.081,5.406-.025-.188-.037-.158a2.078,2.078,0,0,1-.132-.646c-.011-.217-.021-.435-.03-.654l-.023-.5-.078-.471a1.783,1.783,0,0,1-.034-.631q.041-.316.089-.626l.03-.107.032-.107.123-.541.194-.556.292-.452.34-.45.089-.117.094-.092.164-.119.167-.1.543-.268a1.72,1.72,0,0,1,.611-.094l.44.017.427.051a1.264,1.264,0,0,1,.8.482l.292.428.292.428.13.245.1.239c.084.249.157.494.221.735s.135.482.219.722a2.741,2.741,0,0,1,.141,1.161l-.011.254.032.23a2.494,2.494,0,0,1,.052.727q-.024.371-.048.748l-.059.456-.1.45a3.753,3.753,0,0,1-1.268,2.077l-.253.181-.262.124a3.26,3.26,0,0,1-.721.175,2.258,2.258,0,0,1-.719-.026l-.566-.173-.445-.4-.308-.482-.308-.5-.2-.381-.135-.317-.082-.335Zm7.248-2.84-.1-.754a6.363,6.363,0,0,0-.306-.876c-.125-.286-.251-.562-.379-.833a5.533,5.533,0,0,0-.356-.631c-.125-.194-.258-.386-.395-.58l-.258-.292-.283-.258-.308-.217-.333-.183-.335-.132-.5-.128-.557-.053-.547.011-.461.045-.139.028-.153.045-.582.2-.593.234-.233.1-.23.132a2.2,2.2,0,0,0-.611.433l-.525.513a2.736,2.736,0,0,0-.6.8c-.141.292-.287.586-.436.884-.068.311-.141.618-.214.925a4.343,4.343,0,0,0-.119.948c.009.217.021.437.036.658a2.916,2.916,0,0,1-.036.673l.014.213c.043.249.087.5.13.739a2.1,2.1,0,0,0,.26.7l.2.447a4.242,4.242,0,0,0,.436.886,5.826,5.826,0,0,0,.618.778,4.9,4.9,0,0,0,.746.607,2.237,2.237,0,0,0,.919.345l.064.021.062.023a4.04,4.04,0,0,0,.735.132,3.485,3.485,0,0,0,.771-.021l.538-.087.532-.128a2.588,2.588,0,0,0,.757-.3l.575-.369.6-.341.235-.149.214-.2.363-.375.176-.2.119-.232c.039-.092.1-.245.194-.454l.018-.032.018-.032a2.37,2.37,0,0,0,.242-.609,2.694,2.694,0,0,0,.073-.631q0-.329-.007-.665a5.474,5.474,0,0,1,.021-.669l.009-.554Zm-11.014-1.579.271.1.283-.075a.507.507,0,0,0,.258-.539l-.132-.678a.676.676,0,0,0-.4-.582l-.235-.075-.237,0-.4.1-.39.066a6.243,6.243,0,0,0-1.282.364l-.57.194-.591.083-.319.077a4.112,4.112,0,0,1-.906.273c-.3.053-.614.1-.933.124-.278.028-.559.051-.837.07a2.519,2.519,0,0,0-.814.194l-.185.03-.155.021-.484.1-.479.107-.47.315-.08.222c.034.271.078.537.135.8s.119.522.192.784l.219.194h.358l.319-.192.05-.1.016-.1-.043-.309-.059-.3.055-.143.121-.117c.3-.081.6-.158.906-.23s.611-.151.919-.234l.087-.021.363.217.16.467.162.482.08.249.023.277.046.3.057.3a5.152,5.152,0,0,0,.228.893,5.1,5.1,0,0,1,.228.893c.05.258.1.509.162.754a3.94,3.94,0,0,0,.249.722,1.888,1.888,0,0,1,.116.522c.084.422.164.84.244,1.249s.157.829.23,1.253l-.007.075-.009.075-.039.147-.123.109a5.124,5.124,0,0,0-.632.194l-.164.243.066.309.249.136.29-.028.271-.049c.463-.13.922-.251,1.38-.367a8.409,8.409,0,0,1,1.408-.228l.447-.209.162-.183.162-.183.034-.254-.212-.181-.324-.023-.31.117-.212.081-.212-.066-.123-.245c-.05-.209-.1-.415-.137-.618s-.082-.4-.132-.605c-.089-.354-.176-.712-.256-1.072s-.169-.729-.262-1.1c-.128-.558-.256-1.117-.381-1.679s-.253-1.123-.381-1.681c-.043-.211-.078-.418-.107-.618s-.059-.407-.091-.62l-.025-.175v-.2l.242-.39.256-.126.262-.1c.308-.083.614-.158.915-.226s.607-.136.915-.211l.363.217.1.322Zm-10.026,1.579-.1-.509-.114-.226-.208-.16H101.2l-.157.09-.121.2-.116.209-.194.1-.228-.009-.237-.036a3.839,3.839,0,0,0-.874-.068,7.828,7.828,0,0,0-.89.079,5.119,5.119,0,0,0-1.2.339,3.423,3.423,0,0,0-1.052.705l-.367.445a1.514,1.514,0,0,0-.212.537,4.028,4.028,0,0,0-.071,1.038,4.685,4.685,0,0,0,.18,1.006l.137.3.205.268.13.119.135.134a3.526,3.526,0,0,0,.8.6,3.042,3.042,0,0,0,.958.33q.524.118,1.04.224a10.55,10.55,0,0,0,1.061.16l.486.107.454.185.2.1.212.1.424.373a2.521,2.521,0,0,1,.344,1.928,1.2,1.2,0,0,1-.319.571,2.019,2.019,0,0,1-.543.364l-.29.107-.315.07-.3.036-.315-.015c-.34-.072-.666-.16-.981-.26a2.351,2.351,0,0,1-.862-.507,1.918,1.918,0,0,0-.73-.371l-.235.043-.167.158-.039.066-.009.075a4.631,4.631,0,0,0-.055,1.006,7.843,7.843,0,0,0,.11.993l.1.194a.349.349,0,0,0,.447.179.879.879,0,0,0,.433-.2.681.681,0,0,0,.128-.415l0-.251-.009-.266.059-.087.116-.028.21.064a4.445,4.445,0,0,0,2.772.307l.109-.019.107-.034a5.534,5.534,0,0,0,.8-.407,3.416,3.416,0,0,0,.707-.571l.276-.335.16-.379.123-.362.2-.541-.057-.552-.057-.275a2.143,2.143,0,0,0-.173-.594l-.281-.533-.351-.486-.39-.469-.089-.066-.089-.064a3.6,3.6,0,0,0-1-.573c-.363-.139-.723-.286-1.077-.439l-.112-.023-.112-.023-.386-.058-.372-.077c-.253-.045-.5-.092-.751-.141a3.049,3.049,0,0,1-.712-.239l-.128-.07-.1-.1a2.145,2.145,0,0,1-.395-.707,2.631,2.631,0,0,1-.1-.793,1,1,0,0,1,.536-.884l.573-.256a3.525,3.525,0,0,1,.8-.13c.267-.013.532-.013.8,0l.36.128.447.326.386.4.24.175.306-.032.251-.264.03-.187.016-.185-.05-.328Zm-10.539,7.138.135.209.1.158.107.1.144.032a.43.43,0,0,0,.516-.343,1.662,1.662,0,0,0,.064-.588l-.048-.413-.032-.4-.018-.183L92.2,216q-.164-.511-.648-.232l-.187.141-.208.377-.242.356q-.411.16-.821.288c-.271.083-.547.166-.828.245l-.39.1-.212-.032-.116-.153-.135-.288-.036-.222c-.039-.394-.089-.786-.153-1.176s-.125-.778-.194-1.166l-.039-.352.057-.2.185-.113.347-.1.073-.017a7.345,7.345,0,0,0,1.517-.418,5.328,5.328,0,0,1,.865-.256c.294-.06.591-.117.894-.175l.151,0,.1.066.068.087-.009.482.125.456a.383.383,0,0,0,.63.134l.167-.094.162-.107.167-.175.039-.215c-.046-.26-.1-.511-.155-.759s-.119-.5-.183-.75l-.027-.066-.29-.2-.192,0-.2.045-.445.141-.463.13q-1.735.38-3.415.92a8.22,8.22,0,0,1-1.218.311,4.74,4.74,0,0,0-.8.19c-.258.085-.52.177-.787.273l-.205.3-.007.217c.059.283.26.422.6.413a.321.321,0,0,1,.381.277,5.272,5.272,0,0,0,.271,1.221l.073.279.043.3c.107.552.205,1.1.3,1.639a15.683,15.683,0,0,0,.372,1.609l.073.43.062.52.162.5a6.263,6.263,0,0,1,.226.648,2.983,2.983,0,0,1,.112.688l-.224.379-.217.1-.219.1-.171.1-.173.094-.109.153v.175l.027.079.068.13.068.128.262.209.347-.011.513-.185.536-.147.189-.047.183-.077a10.544,10.544,0,0,1,1.141-.409q.578-.169,1.186-.33.78-.214,1.56-.394c.52-.117,1.04-.239,1.565-.364l.381-.119.354-.185.242-.441c-.032-.243-.068-.486-.112-.731s-.084-.488-.125-.727l-.039-.136-.123-.138-.18-.038-.2.049-.178.062-.322.328-.1.33v.339l-.041.29-.256.192-.146.068-.151.055c-.251.072-.5.145-.751.213s-.506.134-.771.192l-.566.139-.557.194-.331.109-.351.068-.141-.026-.094-.109-.027-.066-.027-.066-.123-.541-.183-.528-.112-.386-.1-.4-.13-.533-.176-.524-.078-.328-.034-.322.027-.1.075-.1.356-.136.315-.062.292-.1a3.251,3.251,0,0,1,.691-.209c.235-.04.479-.094.73-.16m-13.076.264,0-.043.032.023Zm7.234,5.163-.041-.518L85.4,222.4l-.036-.087-.189-.335-.274-.241-.376-.006-.192.139-.1.2-.068.5-.068.482a.5.5,0,0,1-.415.452l-.18.066-.185.038-1.49.341c-.49.113-.988.226-1.487.339l-.148.019c-.258.034-.422.019-.493-.047a.674.674,0,0,1-.141-.392l-.014-.19.016-.177a3.688,3.688,0,0,0-.066-1.159c-.084-.371-.155-.746-.214-1.125a2.126,2.126,0,0,1-.144-.7,4.384,4.384,0,0,1,.034-.727l.011-.439-.109-.439-.046-.2-.03-.215a3.149,3.149,0,0,1-.014-.654c.018-.215.03-.43.032-.65,0-.3-.011-.6-.023-.895s-.021-.592-.025-.895l.235-.286.381-.1.363-.153.162-.247-.155-.249-.3-.072-.285-.077a2.212,2.212,0,0,0-1.1-.038l-.317.064-.317.077c-.226.049-.456.1-.691.164s-.472.109-.707.151l-.379.247-.155.43.123.224.246.1h.2l.2-.026.123.068.073.147.018.06.007.077a3.02,3.02,0,0,0,.025.825,3.543,3.543,0,0,1,.041.822l.011.147.041.143a3.7,3.7,0,0,1,.121.8c.011.273.011.545,0,.82,0,.247,0,.488.009.729a5.489,5.489,0,0,0,.071.7,7.279,7.279,0,0,0,.151.886c.066.292.121.588.164.882s.073.556.094.837.05.569.082.865l-.055.177-.164.094-.317.077-.315.079-.253.224-.078.356.08.166.151.1.157.015.171-.015c.415-.075.833-.139,1.252-.2a7.225,7.225,0,0,0,1.246-.277l.317-.07.319-.043c.415-.075.821-.141,1.223-.2s.808-.119,1.223-.183l.235-.047.251-.075a6.816,6.816,0,0,1,.737-.17,3.494,3.494,0,0,1,.746-.043l.319-.034.315-.092.322-.2.116-.349-.018-.337-.034-.335Zm-14.306,1.617-.217.045-.187.03-.386.213-.205.366v.092l.075.09.258.139.481.058.465.1.246-.081.246-.079.187-.051.187-.008.6.006.6-.034c.3.026.431-.126.4-.452a.386.386,0,0,0-.365-.388l-.189-.013-.187-.013-.183-.179-.021-.428-.094-.411-.025-.175,0-.175-.025-2.031-.027-.435-.027-.42,0-.349c0-.337-.007-.675,0-1.016s0-.682.009-1.029.011-.673.016-1.014a5.858,5.858,0,0,1,.107-1l.021-.224.066-.2.214-.094.278-.011.135-.043.208-.2,0-.337-.221-.341-.383-.032a4.411,4.411,0,0,1-1.706.188,5.624,5.624,0,0,0-.675-.034.435.435,0,0,0-.5.411l.032.209.151.138.151.04.151.041.212.181.055.209.025.209.03.554v.554c-.016.354-.032.71-.046,1.063s-.027.71-.032,1.065l0,.511.043.524.034.322-.009.309c-.018.243-.025.482-.023.714a4.507,4.507,0,0,0,.068.7l.018.239.018.251.007.526.023.524,0,.315Zm-3.226-8.828.2-.117.187-.119.317-.379-.036-.273-.214-.151c-.374-.038-.748-.081-1.118-.128s-.741-.085-1.118-.115a.784.784,0,0,0-.862.439l-.084.2-.146.286-.132.288c-.144.277-.281.55-.413.818s-.256.541-.367.814l-.141.288-.183.277a3.17,3.17,0,0,0-.42.624,7.135,7.135,0,0,0-.308.69,9.757,9.757,0,0,1-.42,1q-.236.489-.5.965l-.057.023-.068.008-.052-.055-.043-.145-.041-.145c-.027-.281-.064-.558-.112-.831a4.754,4.754,0,0,0-.217-.812l-.078-.36-.075-.375c-.1-.46-.187-.923-.246-1.383s-.132-.92-.219-1.379q-.092-.607-.178-1.2c-.057-.394-.1-.79-.135-1.189l-.109-.288-.237-.2-.36-.13q-.613-.141-1.2-.268t-1.186-.249l-.3-.019-.342.232-.016.241.1.2.169.158.185.16.125.326c-.023.273-.041.543-.052.814a3.7,3.7,0,0,0,.052.82l-.009.185-.021.181c-.048.392-.094.784-.141,1.176s-.1.782-.155,1.172c-.032.271-.075.537-.125.8a6.622,6.622,0,0,0-.109.788c-.043.354-.078.7-.1,1.046s-.055.684-.084,1.023l-.055.326-.125.3-.089.117-.128.068-.536.141-.538.168-.073.115.027.149.171.143.2.162a1.211,1.211,0,0,0,.776.275l.511.053.484.034.178.03.151,0,.214-.036.167-.145-.11-.467-.224-.324-.007-.369.064-.352.066-.367q.154-.786.269-1.558a8.842,8.842,0,0,0,.091-1.581l0-.107v-.124c.05-.42.1-.833.151-1.244s.107-.825.178-1.24l.1-.307.1-.3.048-.032.071.03.1.192.055.228q.133.642.276,1.274c.094.422.187.842.276,1.261.094.381.173.767.237,1.153s.132.771.205,1.159c.041.249.082.5.123.744s.089.49.151.733.109.475.171.71.123.469.185.712l.05.138.05.139.214.217.388.087.383,0,.1-.136.114-.134a1.565,1.565,0,0,0,.452-.524,4.494,4.494,0,0,0,.271-.633,8.927,8.927,0,0,1,.463-1.168,8.41,8.41,0,0,1,.632-1.089l.251-.392.18-.437c.073-.194.141-.388.2-.582a1.066,1.066,0,0,1,.344-.494l.023-.068.039-.064.433-.987.235-.454.29-.413.043-.055.059-.053.03-.006.032-.009.1.136.011.354-.05.354a4.526,4.526,0,0,1-.025.827l-.1.812c-.048.392-.1.782-.148,1.168s-.1.773-.162,1.163c-.046.307-.091.609-.132.912s-.084.607-.13.912l-.048.207-.048.219-.027.215-.041.215-.011.226-.1.224-.164.009-.182.019-.233.111-.164.181-.016.4.315.251.274.034.26.017.237.028.235.04a4.645,4.645,0,0,0,.837.151,4.676,4.676,0,0,1,.837.149l.306-.181-.064-.343-.324-.237-.367-.134-.155-.132v-.185a.972.972,0,0,0,.109-.552,3.586,3.586,0,0,1-.018-.714c.016-.23.046-.465.084-.705.055-.3.1-.586.125-.871s.052-.58.068-.882c.016-.207.036-.413.066-.616a3.685,3.685,0,0,1,.141-.6c.057-.237.1-.475.146-.716s.078-.482.116-.722c.062-.349.13-.7.208-1.046s.155-.69.235-1.027" transform="translate(-26.309 -174.133)" fill="#1a1311"/>
      </g>
    </g>
    <g id="Group_754" data-name="Group 754" transform="translate(-445.633 238.565)">
      <path id="Path_2498" data-name="Path 2498" d="M532.83,74.5l.549,22.387,2.936.825h52.417l2.745-.276V74.5Z" transform="translate(0.862 2.084)" fill="#fff3d8"/>
      <path id="Path_2499" data-name="Path 2499" d="M532.32,95.63h59.639V74.243H532.32Zm57.93-.83H534.029V75.073h56.222Z" transform="translate(0.057 1.682)" fill="#1a1311"/>
      <g id="Group_753" data-name="Group 753" transform="translate(532.284 73.177)">
        <path id="Path_2501" data-name="Path 2501" d="M538.828,76.219h-.307l-1.431-1.92h-1.7s-1.06-1.09,1.152-1.121,2.165.951,2.165.951v.17h-1.3Z" transform="translate(-527.788 -73.177)" fill="#1a1311"/>
        <path id="Path_2502" data-name="Path 2502" d="M552.734,76.219h.307l1.431-1.92h1.7s1.06-1.09-1.152-1.121-2.165.951-2.165.951v.17h1.3Z" transform="translate(-500.021 -73.177)" fill="#1a1311"/>
        <path id="Path_2503" data-name="Path 2503" d="M544.622,76.219h-.307l-1.428-1.92h-1.8s-1.06-1.09,1.152-1.121,2.165.954,2.165.954V74.3h-1.2Z" transform="translate(-518.799 -73.177)" fill="#1a1311"/>
        <path id="Path_2504" data-name="Path 2504" d="M547.03,76.219h.307l1.428-1.92h1.8s1.06-1.09-1.152-1.121-2.165.954-2.165.954V74.3h1.2Z" transform="translate(-509.02 -73.177)" fill="#1a1311"/>
        <rect id="Rectangle_740" data-name="Rectangle 740" width="0.155" height="0.923" transform="translate(1.253 24.136)" fill="#1a1311"/>
        <rect id="Rectangle_741" data-name="Rectangle 741" width="0.155" height="0.923" transform="translate(8.349 24.136)" fill="#1a1311"/>
        <rect id="Rectangle_742" data-name="Rectangle 742" width="0.155" height="0.923" transform="translate(15.445 24.136)" fill="#1a1311"/>
        <rect id="Rectangle_743" data-name="Rectangle 743" width="0.155" height="0.923" transform="translate(22.542 24.136)" fill="#1a1311"/>
        <rect id="Rectangle_744" data-name="Rectangle 744" width="0.155" height="0.923" transform="translate(29.638 24.136)" fill="#1a1311"/>
        <rect id="Rectangle_745" data-name="Rectangle 745" width="0.155" height="0.923" transform="translate(36.734 24.136)" fill="#1a1311"/>
        <rect id="Rectangle_746" data-name="Rectangle 746" width="0.155" height="0.923" transform="translate(43.831 24.136)" fill="#1a1311"/>
        <rect id="Rectangle_747" data-name="Rectangle 747" width="0.155" height="0.923" transform="translate(50.927 24.136)" fill="#1a1311"/>
        <rect id="Rectangle_748" data-name="Rectangle 748" width="0.155" height="0.923" transform="translate(58.021 24.136)" fill="#1a1311"/>
        <path id="Path_2505" data-name="Path 2505" d="M532.771,82.9h58.918v.508l-2.81.784H535.967l-3.2-.977Z" transform="translate(-531.516 -57.84)" fill="#1a1311"/>
        <path id="Path_2506" data-name="Path 2506" d="M548.314,106.507c-.613.075-1.224.16-1.846.26a3.077,3.077,0,0,1-1.451-.054c1.046-.157,2.17-.289,3.3-.42v-.748c-.626.072-1.25.149-1.874.237a4.737,4.737,0,0,1-1.395.026c1.057-.18,2.14-.312,3.268-.441v-.662c-.683.072-1.361.137-2.036.2a2.85,2.85,0,0,1-1.26.054c1.041-.155,2.155-.312,3.3-.42v-.634c-.616.075-1.229.16-1.846.26a3.249,3.249,0,0,1-1.48-.054c1.067-.157,2.183-.289,3.325-.394V103.1c-.541.067-1.085.137-1.626.214a5.053,5.053,0,0,1-1.7-.028.912.912,0,0,1,.549-.082c.915-.108,1.833-.217,2.776-.312v-.68c-.647.064-1.3.137-1.928.227a3.278,3.278,0,0,1-1.4-.057c1.085-.155,2.17-.284,3.325-.389v-.771c-.639.085-1.273.175-1.9.265a3.762,3.762,0,0,1-1.343,0,5.817,5.817,0,0,1,1.48-.219c.583-.07,1.17-.147,1.763-.222v-.724c-.925.134-1.856.266-2.8.4-.219.028-.384,0-.464-.108q1.558-.275,3.268-.472v-.613c-.613.077-1.229.162-1.846.263a3.465,3.465,0,0,1-1.423-.028c1.057-.18,2.14-.335,3.268-.446v-.7c-.6.077-1.211.162-1.817.247a4.244,4.244,0,0,1-1.451,0c1.039-.183,2.129-.314,3.268-.446V97.75c-.613.075-1.224.16-1.846.26a3.078,3.078,0,0,1-1.451-.054c1.046-.157,2.17-.289,3.3-.42v-.748c-.626.072-1.25.15-1.874.237a4.834,4.834,0,0,1-1.395.028c1.057-.18,2.14-.314,3.268-.443v-.66c-.683.07-1.361.134-2.036.2a2.85,2.85,0,0,1-1.26.054c1.041-.155,2.155-.312,3.3-.42v-.632c-.616.072-1.229.157-1.846.258a3.249,3.249,0,0,1-1.48-.054c1.067-.157,2.183-.286,3.325-.394v-.611c-.541.067-1.085.137-1.626.211a4.921,4.921,0,0,1-1.7-.028.912.912,0,0,1,.549-.083c.915-.108,1.833-.217,2.776-.312v-.681c-.647.067-1.3.139-1.928.227a3.324,3.324,0,0,1-1.4-.054c1.085-.155,2.17-.286,3.325-.392v-.771c-.639.085-1.273.175-1.9.266a3.645,3.645,0,0,1-1.343,0,5.935,5.935,0,0,1,1.48-.219c.583-.07,1.17-.147,1.763-.222v-.724c-.925.134-1.856.265-2.8.4-.219.028-.384,0-.464-.108q1.558-.275,3.268-.472v-.613c-.613.077-1.229.162-1.846.263a3.465,3.465,0,0,1-1.423-.028c1.057-.18,2.14-.335,3.268-.443v-.706c-.6.077-1.211.162-1.817.247a4.245,4.245,0,0,1-1.451,0c1.039-.183,2.129-.314,3.268-.446v-.665c-.613.075-1.224.16-1.846.263a3.106,3.106,0,0,1-1.451-.057c1.046-.157,2.17-.289,3.3-.42v-.748c-.626.072-1.25.15-1.874.237a4.835,4.835,0,0,1-1.395.028c1.057-.18,2.14-.312,3.268-.443v-.66c-.683.07-1.361.134-2.036.2a2.813,2.813,0,0,1-1.26.054c1.041-.155,2.155-.309,3.3-.42V86.4c-.616.075-1.229.157-1.846.258a3.25,3.25,0,0,1-1.48-.054c1.067-.155,2.183-.286,3.325-.394v-.611c-.541.067-1.085.137-1.626.211a4.922,4.922,0,0,1-1.7-.028.912.912,0,0,1,.549-.08c.915-.111,1.833-.219,2.776-.314V84.7c-.647.064-1.3.137-1.928.224a3.324,3.324,0,0,1-1.4-.054c1.085-.155,2.17-.286,3.325-.392V83.148h-5.253v23.787h5.253Z" transform="translate(-515.282 -57.445)" fill="#1a1311"/>
        <path id="Path_2507" data-name="Path 2507" d="M532.875,83.991a.716.716,0,0,1-.023-.072c-.013-.044-.029-.108-.044-.186a3.5,3.5,0,0,1-.052-.562,3.331,3.331,0,0,1,.039-.562c.013-.077.026-.142.039-.188l.021-.07a.689.689,0,0,1,.031.067,1.612,1.612,0,0,1,.059.186,2.406,2.406,0,0,1,.07.565,2.457,2.457,0,0,1-.057.567,1.791,1.791,0,0,1-.054.186.693.693,0,0,1-.028.07" transform="translate(-531.54 -58.701)" fill="#1a1311"/>
        <path id="Path_2508" data-name="Path 2508" d="M535.628,83.991s-.01-.026-.023-.072-.028-.108-.044-.186a3.543,3.543,0,0,1-.052-.562,3.337,3.337,0,0,1,.039-.562c.013-.077.026-.142.039-.188l.021-.07a.664.664,0,0,1,.031.067,1.633,1.633,0,0,1,.059.186,2.393,2.393,0,0,1,.07.565,2.464,2.464,0,0,1-.057.567,1.767,1.767,0,0,1-.054.186.622.622,0,0,1-.028.07" transform="translate(-527.196 -58.701)" fill="#1a1311"/>
        <path id="Path_2509" data-name="Path 2509" d="M538.381,84.108s-.01-.026-.023-.072-.028-.108-.044-.186a3.537,3.537,0,0,1-.052-.562,3.357,3.357,0,0,1,.039-.562,1.891,1.891,0,0,1,.039-.188l.02-.07a.684.684,0,0,1,.031.067,1.682,1.682,0,0,1,.059.186,2.4,2.4,0,0,1,.07.565,2.475,2.475,0,0,1-.057.567,1.691,1.691,0,0,1-.054.186.64.64,0,0,1-.028.07" transform="translate(-522.853 -58.517)" fill="#1a1311"/>
        <path id="Path_2510" data-name="Path 2510" d="M541.163,84.108a.749.749,0,0,1-.023-.072c-.013-.044-.028-.108-.044-.186a3.48,3.48,0,0,1-.052-.562,3.325,3.325,0,0,1,.039-.562c.013-.077.026-.142.039-.188l.021-.07a.707.707,0,0,1,.031.067,1.615,1.615,0,0,1,.059.186,2.388,2.388,0,0,1,.069.565,2.455,2.455,0,0,1-.057.567,1.768,1.768,0,0,1-.054.186.7.7,0,0,1-.028.07" transform="translate(-518.464 -58.517)" fill="#1a1311"/>
        <path id="Path_2511" data-name="Path 2511" d="M543.857,84.108s-.01-.026-.023-.072-.028-.108-.044-.186a3.544,3.544,0,0,1-.052-.562,3.351,3.351,0,0,1,.039-.562c.013-.077.026-.142.039-.188l.021-.07a.681.681,0,0,1,.031.067,1.634,1.634,0,0,1,.059.186,2.4,2.4,0,0,1,.07.565,2.457,2.457,0,0,1-.057.567,1.713,1.713,0,0,1-.054.186.653.653,0,0,1-.028.07" transform="translate(-514.214 -58.517)" fill="#1a1311"/>
        <path id="Path_2512" data-name="Path 2512" d="M546.648,82.4a.725.725,0,0,1,.023.072c.013.044.028.108.044.186a3.544,3.544,0,0,1,.052.562,3.35,3.35,0,0,1-.039.562c-.013.077-.026.142-.039.188l-.021.07a.677.677,0,0,1-.031-.067,1.605,1.605,0,0,1-.059-.186,2.4,2.4,0,0,1-.07-.565,2.468,2.468,0,0,1,.057-.567,1.757,1.757,0,0,1,.054-.186.631.631,0,0,1,.028-.07" transform="translate(-509.842 -58.624)" fill="#1a1311"/>
        <path id="Path_2513" data-name="Path 2513" d="M549.4,82.58s.01.026.023.072.028.108.044.186a3.487,3.487,0,0,1,.052.562,3.338,3.338,0,0,1-.039.562c-.013.077-.026.142-.039.188l-.021.07a.711.711,0,0,1-.031-.067,1.594,1.594,0,0,1-.059-.186,2.391,2.391,0,0,1-.069-.564,2.469,2.469,0,0,1,.057-.567,1.784,1.784,0,0,1,.054-.186.641.641,0,0,1,.028-.07" transform="translate(-505.498 -58.341)" fill="#1a1311"/>
        <path id="Path_2514" data-name="Path 2514" d="M552.124,82.312a.746.746,0,0,1,.023.072c.013.044.028.108.044.186a3.565,3.565,0,0,1,.052.562,3.356,3.356,0,0,1-.039.562c-.013.077-.026.142-.039.188l-.021.07a.715.715,0,0,1-.031-.067,1.7,1.7,0,0,1-.059-.186,2.406,2.406,0,0,1-.07-.565,2.467,2.467,0,0,1,.057-.567,1.713,1.713,0,0,1,.054-.186.662.662,0,0,1,.028-.07" transform="translate(-501.203 -58.764)" fill="#1a1311"/>
        <path id="Path_2515" data-name="Path 2515" d="M554.928,83.95a.555.555,0,0,1-.023-.07c-.013-.044-.028-.108-.044-.186a3.523,3.523,0,0,1-.051-.565,3.325,3.325,0,0,1,.039-.559,1.878,1.878,0,0,1,.039-.188l.02-.07a.715.715,0,0,1,.031.067,1.463,1.463,0,0,1,.059.186,2.376,2.376,0,0,1,.07.564,2.437,2.437,0,0,1-.057.565,1.653,1.653,0,0,1-.054.188.471.471,0,0,1-.028.067" transform="translate(-496.747 -58.763)" fill="#1a1311"/>
        <path id="Path_2516" data-name="Path 2516" d="M543.035,75.424a9.481,9.481,0,0,1-1.3-1.853" transform="translate(-517.377 -72.555)" fill="none" stroke="#1a1311" stroke-miterlimit="10" stroke-width="0.067"/>
        <line id="Line_9" data-name="Line 9" x1="1.611" y1="2.359" transform="translate(9.419 0.984)" fill="none" stroke="#1a1311" stroke-miterlimit="10" stroke-width="0.067"/>
        <path id="Path_2517" data-name="Path 2517" d="M548.572,73.633c-.152-.059-.309.064-.42.183a4.542,4.542,0,0,0-1.036,1.776" transform="translate(-508.884 -72.48)" fill="none" stroke="#1a1311" stroke-miterlimit="10" stroke-width="0.1"/>
        <path id="Path_2518" data-name="Path 2518" d="M554.237,73.571a15.438,15.438,0,0,0-1.348,2.034" transform="translate(-499.776 -72.555)" fill="none" stroke="#1a1311" stroke-miterlimit="10" stroke-width="0.1"/>
        <path id="Path_2519" data-name="Path 2519" d="M533.292,94.421c-.371.08-.2-1-.185-1.17.023-.4.049-.8.072-1.193.047-.794.088-1.59.121-2.384q.112-2.475.152-4.947.081-4.949-.111-9.893c-.018-.5-.794-.5-.776,0q.329,8.611-.162,17.224c-.052.864-.577,3.475,1.1,3.111.49-.1.281-.853-.206-.747" transform="translate(-532.284 -71.157)" fill="#1a1311"/>
        <path id="Path_2520" data-name="Path 2520" d="M532.664,74.926l22.913.067q11.46.031,22.916.067l12.922.036a.388.388,0,0,0,0-.776L568.5,74.253q-11.457-.031-22.913-.067l-12.922-.036a.388.388,0,0,0,0,.776" transform="translate(-532.277 -71.641)" fill="#1a1311"/>
        <path id="Path_2521" data-name="Path 2521" d="M555.292,74.565c.229,3.58.265,7.168.33,10.754q.039,2.687.088,5.374c.016.91.039,1.82.047,2.73,0,.554.008,1.3-.565,1.583-.449.217-.057.887.392.67,1-.479.959-1.74.941-2.678q-.035-2.219-.075-4.436c-.049-2.975-.083-5.949-.163-8.924-.046-1.691-.113-3.384-.222-5.073-.031-.5-.807-.5-.773,0" transform="translate(-496.457 -71.577)" fill="#1a1311"/>
        <path id="Path_2522" data-name="Path 2522" d="M545.432,91.978c-.17-.121-.219.052-.183.191s.057.495.312.461c.129.26.214-.15.175-.2-.1-.126-.15-.34-.3-.454" transform="translate(-511.848 -43.579)" fill="#1a1311"/>
        <path id="Path_2523" data-name="Path 2523" d="M551.068,92.021a2.053,2.053,0,0,0-.335.912c-.232-.034-.325-.366-.258-.621.046-.173,0-.255.229-.325-.1-.149.2-.5-.126-.32-.217.124-.335.611-.389,1.044-.01.1.113.26.191.492.018.049-.144.443.2.273-.08-.129-.023-.394.193-.144.09.1.289.247.26-.023-.039-.374.1-1.052.036-1.289" transform="translate(-504.036 -44.086)" fill="#1a1311"/>
        <path id="Path_2524" data-name="Path 2524" d="M551.757,94.318c-.077.049-.346-.021-.147-.1-.242-.186-.108-.624-.327-.84a.585.585,0,0,1,.227-.925,5.851,5.851,0,0,0,.106-1.2c-.041-.134-.242.088-.425-.013-.16-.088-.534-.549-.526-.351a11.866,11.866,0,0,0,.459,3.052c.1.338-.235.224-.467.495-.1.116-.132.467.093.557.033-.067.137-.307.185-.374.124-.17.248.08.173.173.211.41.755.289,1.049.119-.271-.343.036-.678.183-.941-.3.033-.371.206-.583.345" transform="translate(-503.42 -45.305)" fill="#1a1311"/>
        <path id="Path_2525" data-name="Path 2525" d="M545.9,91.884c-.085-.005-.366-.1-.26.131a2.23,2.23,0,0,1,.052.995.264.264,0,0,0,.371.206c.183-.072,0-.384.175-.526a1.233,1.233,0,0,1-.338-.807" transform="translate(-511.256 -43.697)" fill="#1a1311"/>
        <path id="Path_2526" data-name="Path 2526" d="M550.67,92.259l-.111.5c-.178.046.021-.374-.232-.291-.152.049-.286.142-.415.116-.034-.278-.1-.789-.521-.869.036.121.036.541.116.621.134.137-.018.16-.093.186.242.052.124.157.186.361.023.082.018.235.044.343.062.258.24-.237.451-.242.126.206.126.485.32.665,0-.178.446-.25.069-.407.018-.253.415-.036.425-.219.026-.428.1-.791.126-1.183-.392-.113-.109.343-.366.42" transform="translate(-505.293 -43.93)" fill="#1a1311"/>
        <path id="Path_2527" data-name="Path 2527" d="M553.032,92.455c-.124.155-.211.015-.206-.031.026-.25.02-.693.026-.869-.255.013-.108.353-.392.487-.005.157.077.366-.093.505.389.211.3.729.423,1.018a.293.293,0,0,0,.25-.436c-.178-.26.4-.423-.008-.675" transform="translate(-500.6 -44.182)" fill="#1a1311"/>
        <path id="Path_2528" data-name="Path 2528" d="M553.794,91.874c0-.116-.124-.17-.242-.023s-.214-.245-.356-.2a.5.5,0,0,0-.2.242,1.866,1.866,0,0,0,.186.745.972.972,0,0,0-.284.915,1.006,1.006,0,0,1,.443-.044,1.356,1.356,0,0,1,.7-1.08c-.327-.147-.25-.317-.247-.557" transform="translate(-499.772 -44.034)" fill="#1a1311"/>
        <path id="Path_2529" data-name="Path 2529" d="M551.965,92.194c-.008,0-.237-.106-.263-.088a.536.536,0,0,0-.121.126c-.01.24.072.536.348.552.165.008-.077-.392.036-.59" transform="translate(-501.842 -43.315)" fill="#1a1311"/>
        <path id="Path_2530" data-name="Path 2530" d="M552.562,94.1c-.3-.265-.088-.771-.222-1.106a2.526,2.526,0,0,0,.438-1.846c-.307.273-.175,1.044-.394,1.232a1.786,1.786,0,0,0-.446,1.48.552.552,0,0,0,.34.449c.235.07.521.214.632-.162.041-.139.232-.312-.034-.32a1.5,1.5,0,0,0,.176-.634.618.618,0,0,0-.217.049c-.273.165-.165.539-.273.858" transform="translate(-501.284 -44.826)" fill="#1a1311"/>
        <path id="Path_2531" data-name="Path 2531" d="M549.1,92.177a1.94,1.94,0,0,0,.239.99c.077.124.219.093.309.085a3.369,3.369,0,0,0-.4-1.242c-.067.077-.144.144-.144.168" transform="translate(-505.753 -43.466)" fill="#1a1311"/>
        <path id="Path_2532" data-name="Path 2532" d="M547.329,91.953c-.018.039-.075.168-.124.193-.26.129.064.2.057.245a.342.342,0,0,0,.474.4c-.173-.191-.106-.479-.142-.748-.015-.116-.175-.271-.266-.09" transform="translate(-508.904 -43.685)" fill="#1a1311"/>
        <path id="Path_2533" data-name="Path 2533" d="M547.144,92.143c.026-.067.111-.492-.062-.317-.093.093-.145.3-.188.345a.586.586,0,0,0,.2.892c.18.093.157.3.126.469.139-.01.289-.044.356.082a.4.4,0,0,0,.039-.5c-.183-.24-.634-.528-.467-.974" transform="translate(-509.446 -43.821)" fill="#1a1311"/>
        <path id="Path_2534" data-name="Path 2534" d="M546.685,92.364a1.031,1.031,0,0,1,.036-.441c-.431-.106-.016.245-.33.4-.255.124.067.647.253.961.116.2.242.067.343-.008-.2-.242.142-.727-.3-.91" transform="translate(-510.177 -43.632)" fill="#1a1311"/>
        <path id="Path_2535" data-name="Path 2535" d="M546.54,91.254c-.116.126-.271.247-.276.3-.07.624-.268,1.191-.284,1.848,0,.142.132.273.191.4s.232.188.2-.18a1.444,1.444,0,0,1-.064-.882,2.841,2.841,0,0,0,.235-1.487" transform="translate(-510.676 -44.657)" fill="#1a1311"/>
        <path id="Path_2536" data-name="Path 2536" d="M549.272,93.365a.916.916,0,0,0-.144-.036.572.572,0,0,1,.224-.711c-.049-.278.325-.449.016-.748-.132-.129-.271.046-.263.07.206.549-.325.742-.407,1.191-.005.026.144.142-.124.178.149.08.116.227.108.317.175-.059.454.052.583-.17a.3.3,0,0,0,.534-.031c.033-.119-.118-.327-.134-.513-.219.046-.32.276-.392.454" transform="translate(-506.586 -43.759)" fill="#1a1311"/>
        <path id="Path_2537" data-name="Path 2537" d="M548.746,92.376c-.232-.052-.307-.106-.3-.18.044-.32-.17-.188-.2-.067-.077.358.237.66.183,1.026a.581.581,0,0,0,.382-.575c.3-.165-.093-.209-.072-.2" transform="translate(-507.109 -43.487)" fill="#1a1311"/>
        <path id="Path_2538" data-name="Path 2538" d="M548.072,92.244c-.191.031-.51.01-.464.2.088.345-.358.637-.1.8a.289.289,0,0,0,.469-.206c.005-.072.072-.42.258-.139.433-.314.033-.781-.013-1.016a.293.293,0,0,0-.149.363" transform="translate(-508.395 -43.668)" fill="#1a1311"/>
        <path id="Path_2539" data-name="Path 2539" d="M548.128,92.335c-.016.041-.083.152-.111.209-.147,0-.1.312.065.188.08-.059.144-.209.322-.271-.116,0-.16-.415-.276-.126" transform="translate(-507.6 -43.111)" fill="#1a1311"/>
        <path id="Path_2540" data-name="Path 2540" d="M542.824,91.915c.167-.124.216.049.183.188s-.059.495-.314.461c-.129.26-.214-.147-.175-.2.1-.126.149-.338.307-.451" transform="translate(-516.155 -43.681)" fill="#1a1311"/>
        <path id="Path_2541" data-name="Path 2541" d="M542.426,91.821c.085-.008.366-.1.26.131a2.231,2.231,0,0,0-.052,1,.264.264,0,0,1-.371.206c-.183-.072,0-.384-.175-.526a1.232,1.232,0,0,0,.338-.807" transform="translate(-516.817 -43.798)" fill="#1a1311"/>
        <path id="Path_2542" data-name="Path 2542" d="M539.178,92.113a1.94,1.94,0,0,1-.24.99c-.077.124-.219.093-.309.085a3.369,3.369,0,0,1,.4-1.242c.067.077.144.144.144.168" transform="translate(-522.274 -43.567)" fill="#1a1311"/>
        <path id="Path_2543" data-name="Path 2543" d="M541,91.889c.018.039.075.168.124.193.26.129-.064.2-.057.245a.342.342,0,0,1-.474.4c.173-.191.106-.479.142-.748.016-.116.175-.271.266-.09" transform="translate(-519.174 -43.786)" fill="#1a1311"/>
        <path id="Path_2544" data-name="Path 2544" d="M541.361,92.079c-.026-.067-.111-.492.062-.317.093.093.144.3.188.345a.586.586,0,0,1-.2.892c-.18.093-.157.3-.126.469-.139-.01-.289-.044-.356.082a.4.4,0,0,1-.039-.5c.183-.24.634-.528.467-.974" transform="translate(-518.809 -43.922)" fill="#1a1311"/>
        <path id="Path_2545" data-name="Path 2545" d="M541.68,92.3a1.033,1.033,0,0,0-.036-.441c.43-.106.015.245.33.4.255.124-.067.647-.252.961-.116.2-.242.067-.343-.008.2-.242-.142-.727.3-.91" transform="translate(-517.935 -43.735)" fill="#1a1311"/>
        <path id="Path_2546" data-name="Path 2546" d="M541.759,91.19c.116.126.271.247.276.3.07.624.268,1.191.284,1.848,0,.142-.131.273-.191.4s-.232.188-.2-.18a1.441,1.441,0,0,0,.064-.882,2.843,2.843,0,0,1-.235-1.487" transform="translate(-517.372 -44.758)" fill="#1a1311"/>
        <path id="Path_2547" data-name="Path 2547" d="M539.423,93.3a.907.907,0,0,1,.144-.036.572.572,0,0,0-.224-.711c.049-.278-.325-.449-.016-.748.132-.126.271.046.263.07-.206.549.325.742.407,1.191.005.026-.144.142.124.178-.15.08-.116.227-.108.317-.175-.059-.454.052-.583-.17a.3.3,0,0,1-.534-.031c-.034-.119.119-.327.134-.513.219.046.32.276.392.454" transform="translate(-521.859 -43.86)" fill="#1a1311"/>
        <path id="Path_2548" data-name="Path 2548" d="M539.618,92.312c.232-.052.307-.106.3-.18-.044-.32.17-.188.2-.067.077.358-.237.66-.183,1.026a.581.581,0,0,1-.381-.575c-.3-.165.093-.209.072-.2" transform="translate(-521.005 -43.588)" fill="#1a1311"/>
        <path id="Path_2549" data-name="Path 2549" d="M540.487,92.18c.191.028.51.01.464.2-.088.345.358.637.1.8a.289.289,0,0,1-.469-.206c-.005-.072-.072-.42-.258-.139-.433-.314-.034-.781.013-1.016a.293.293,0,0,1,.15.363" transform="translate(-519.914 -43.769)" fill="#1a1311"/>
        <path id="Path_2550" data-name="Path 2550" d="M540.1,92.272c.015.039.082.149.111.206.147,0,.1.312-.064.188-.08-.059-.144-.209-.322-.271.116,0,.16-.412.276-.124" transform="translate(-520.382 -43.213)" fill="#1a1311"/>
      </g>
    </g>
  </g>
</svg>
