<svg xmlns="http://www.w3.org/2000/svg" xmlns:xlink="http://www.w3.org/1999/xlink" width="148.75" height="215.843" viewBox="0 0 148.75 215.843">
  <defs>
    <clipPath id="clip-path">
      <path id="Path_559" data-name="Path 559" d="M55.8,189.8s-13.282,0-13.282,12.4V393.236c0,.192.1,12.4,13.282,12.4H177.986s13.284,0,13.284-12.405V202.2s0-12.4-13.284-12.4Z" transform="translate(-42.52 -189.796)" fill="none"/>
    </clipPath>
    <clipPath id="clip-path-3">
      <rect id="Rectangle_750" data-name="Rectangle 750" width="38.955" height="50.168" fill="none"/>
    </clipPath>
  </defs>
  <g id="Group_785" data-name="Group 785" transform="translate(-42.52 -189.796)">
    <g id="Group_210" data-name="Group 210" transform="translate(42.52 189.796)">
      <g id="Group_209" data-name="Group 209" clip-path="url(#clip-path)">
        <path id="Path_2854" data-name="Path 2854" d="M0,0H164.687V230.731H0Z" transform="translate(-7.968 -7.443)" fill="#91ac52"/>
        <path id="Path_555" data-name="Path 555" d="M89.261,248.695l.29.138a7.822,7.822,0,0,0,.671,1.21l.189.04a7.307,7.307,0,0,1,1.3-1.127l.349.072a1.7,1.7,0,0,1,.436.761l.151.422.189.1.287-.207c.367-.324.744-.637,1.106-.955l.139-.021.335.332c.123.313.274.612.374.912l.205.166.219-.021a11.057,11.057,0,0,1,1.3-.748l.287.19.162.646.233.384.176.028a2.729,2.729,0,0,0,.983-.482l.465-.107.112.2-.021,1.008.267.362c.511-.256,1.052-.486,1.533-.767l.242.313c.062.249-.011.52.039.771l.267.426a8.751,8.751,0,0,1,1.225-.509l.461.119.1.339.1.541.027.452.2.09c.319-.055.6-.177.938-.209l.454,0,.187.269-.036.4c.039.209.071.426.091.624l.463.117a4.449,4.449,0,0,1,.723-.13l.205.264a6.428,6.428,0,0,0-.192,1.008l.157.147c.463-.023.853-.087,1.259-.128l.237.424a2.8,2.8,0,0,0-.251.993l.16.145a4.238,4.238,0,0,0,1.129-.03l.333.117.016.156a10.3,10.3,0,0,0-.3,1.106l.135.132a13.293,13.293,0,0,0,1.4-.006l.066.245a7.364,7.364,0,0,1-.579.98l-.073.258.176.175a12.1,12.1,0,0,0,1.323.111l.153.234a4.382,4.382,0,0,1-.484.8l-.228.273.4.254a7.56,7.56,0,0,0,1.125.209l.164.194c-.153.241-.379.484-.573.744l-.189.339.119.173a6.29,6.29,0,0,0,1.371.337l.141.164-.228.311c-.287.3-.545.633-.84.893l.144.251c.44.134.906.241,1.339.4l.283.254-.03.1c-.39.3-.693.688-1.07,1.023.059.2.258.279.415.369.292.164.6.311.917.45l.185.162-.121.239a4.612,4.612,0,0,0-.678.577l-.03.051.2.215c.249.151.509.3.764.462l.276.26-.007.181a8.822,8.822,0,0,1-1.063.652l-.1.17.114.126a2.547,2.547,0,0,1,.627.352l.47.249a.369.369,0,0,1,.176.447.724.724,0,0,1-.641.326l-.552.294.039.187a10.58,10.58,0,0,1,1.079.667l.073.156-.192.209a3.106,3.106,0,0,0-1.02.535l-.31.2.082.16a3.9,3.9,0,0,1,.849.563l.328.275v.07l-.328.175a4.387,4.387,0,0,1-.584.217l-.536.251-.082.177a4.634,4.634,0,0,0,.99.788l.169.234-.406.279c-.294.111-.625.177-.938.271l-.169.156.052.141a5.862,5.862,0,0,0,.931.765l-.08.4c-.468.136-.995.211-1.485.324l-.157.209a11.137,11.137,0,0,0,1,1.168l-.036.228a3.134,3.134,0,0,1-1.154.3l-.057.141a2.879,2.879,0,0,1,.668.744l-.1.369c-.5.034-.917.143-1.408.181l-.116.162c.182.469.392.908.573,1.372l-.356.266-1.2-.083-.155.16c.1.454.167.952.278,1.419l-.176.268-.445,0c-.244-.038-.516-.043-.76-.064l-.185.2a13.048,13.048,0,0,0,.258,1.481l-.3.288-.96.077-.189.183a5.866,5.866,0,0,0,.075.976l-.137.181h-.162c-.4-.141-.792-.258-1.184-.379l-.217.422a6.07,6.07,0,0,0,.068.876l-.224.228-.258-.075a9.737,9.737,0,0,0-.954-.407l-.23.213a12.367,12.367,0,0,1-.071,1.27l-.383.245a1.5,1.5,0,0,1-.568-.222l-.472-.19-.246.2c-.173.411-.269.891-.44,1.317l-.3.1c-.285-.147-.563-.311-.869-.439l-.244.03-.119.232c-.071.3-.1.612-.162.927l-.37.173a3.371,3.371,0,0,1-.913-.631l-.283,0a4.511,4.511,0,0,0-.586,1.229l-.351.092c-.354-.16-.548-.479-.851-.684l-.224-.019-.205.369c-.144.332-.244.663-.406.974l-.189.032a4.721,4.721,0,0,0-1.111-.837l-.235.187a3.887,3.887,0,0,1-.543.759l-.333.36c-.249-.09-.367-.337-.534-.52l-.44-.422-.2-.032L91.791,297.5l-.242,0a11.7,11.7,0,0,1-.794-.948l-.24-.187-.255.1a13.321,13.321,0,0,0-1.1,1.074l-.219.028a5.258,5.258,0,0,1-.682-.906l-.224-.311-.276-.036a7.366,7.366,0,0,0-1.143,1.144l-.171,0-.205-.224c-.2-.339-.271-.771-.568-1.014l-.173-.107-.34.164a5.713,5.713,0,0,0-.814.68l-.153.026a11.05,11.05,0,0,1-.767-1.163l-.235-.362-.244.026a10.472,10.472,0,0,0-1.189.929l-.219,0-.11-.175a5.366,5.366,0,0,0-.214-1.513l-.183-.09c-.543.315-1.074.641-1.583.978l-.287-.23a5.808,5.808,0,0,0-.039-1.215l-.167-.128-.456.2c-.354.187-.668.407-1.006.582l-.26-.179a12.307,12.307,0,0,1,.08-1.4l-.182-.141c-.212.072-.424.194-.682.288l-.821.33-.381-.2a4.071,4.071,0,0,1,.24-1.315l-.155-.179a1.711,1.711,0,0,0-.865.307,1.225,1.225,0,0,1-.678.188l-.23-.3a5.3,5.3,0,0,0,.322-1.085l-.162-.17a11.419,11.419,0,0,0-1.351.29L72,291.12l-.059-.181.2-.844-.187-.228-1.027-.015-.365.064-.221-.294a7.726,7.726,0,0,0,.408-1.379l-.157-.16a12.821,12.821,0,0,1-1.373-.015.455.455,0,0,1-.265-.565,3.634,3.634,0,0,1,.4-.972l-.141-.2a4.117,4.117,0,0,1-1.446-.173l-.194-.392a2.548,2.548,0,0,1,.415-.7l.148-.313-.429-.249c-.329-.1-.732-.111-1.072-.207l-.2-.283a3.34,3.34,0,0,1,.616-.906l.091-.341-.2-.126c-.413-.13-.89-.183-1.291-.322l-.139-.377a6.459,6.459,0,0,1,.924-1.014l-.075-.2a8.219,8.219,0,0,0-1.378-.467L64.742,280l.1-.187c.271-.3.6-.539.86-.842l-.032-.249a7.181,7.181,0,0,0-1.218-.6l-.107-.3a3.486,3.486,0,0,1,.949-.8l.009-.26a4.834,4.834,0,0,1-1.246-.729l-.023-.228c.153-.381.6-.5.928-.718l.055-.309a7.831,7.831,0,0,0-1.1-.673l-.075-.441c.338-.3.767-.5,1.134-.773l-.03-.245c-.347-.345-.771-.626-1.125-.97l-.009-.228c.23-.292.657-.4.949-.633l.192-.264a5.441,5.441,0,0,0-.575-.707,2.04,2.04,0,0,1-.417-.526l.358-.332a5.711,5.711,0,0,0,.8-.433l.062-.17a6.741,6.741,0,0,1-.735-1.057l-.05-.207a.828.828,0,0,1,.7-.58l.511-.145.1-.228a6.315,6.315,0,0,1-.659-1.3l.139-.384a1,1,0,0,1,.591-.241l.436-.087.436-.062.089-.145a6.979,6.979,0,0,1-.532-1.261.454.454,0,0,1,.267-.569,4.143,4.143,0,0,0,1.077-.092l.125-.177a8.978,8.978,0,0,0-.413-1.229l.032-.143c.08-.168.335-.164.568-.179.376-.023.748-.047,1.093-.1l.244-.311-.319-.98-.162-.347.18-.207.573-.009a3.452,3.452,0,0,0,.926.077l.167-.222c-.052-.49-.121-.948-.2-1.411l.162-.29.2.015a5.667,5.667,0,0,0,.844.251l.358-.2a10.486,10.486,0,0,1-.148-1.078.364.364,0,0,1,.31-.358l1.417.264.137-.128v-1.131a.5.5,0,0,1,.155-.618l.315-.019a8.657,8.657,0,0,0,1.163.5l.226-.194a12.186,12.186,0,0,1,.233-1.313l.324-.3c.356.2.735.349,1.09.533l.2,0,.121-.177.283-1.025.548-.121.992.546.256-.211c.116-.4.313-.744.429-1.112l.212-.132a5.643,5.643,0,0,1,.618.335,3.843,3.843,0,0,1,.623.373l.317-.381c.119-.3.2-.637.319-.935l.335-.2.139.072a4.642,4.642,0,0,0,.785.663l.226.006.205-.268a6.519,6.519,0,0,1,.411-.808l.379-.128c.3.281.573.626.883.942l.249-.047c.283-.356.552-.718.814-1.1l.313-.228c.212.06.313.288.42.469a8.11,8.11,0,0,1,.668.75l.23-.066a13.629,13.629,0,0,0,1.054-1.2Z" transform="translate(-15.241 -123.196)" fill="#fff3d8"/>
        <path id="Path_556" data-name="Path 556" d="M60.569,256.554l2.037,5.9,6.636-.011-5.375,3.635,2.062,5.892-5.361-3.654-5.363,3.654,2.065-5.892-5.377-3.635,6.636.011Z" transform="translate(-30.511 -114.309)" fill="#fff3d8"/>
        <path id="Path_557" data-name="Path 557" d="M99.421,256.554l2.037,5.9,6.636-.011-5.375,3.635,2.062,5.892-5.361-3.654-5.363,3.654,2.065-5.892-5.377-3.635,6.636.011Z" transform="translate(19.27 -114.309)" fill="#fff3d8"/>
      </g>
    </g>
    <g id="Group_214" data-name="Group 214" transform="translate(42.52 189.796)">
      <g id="Group_213" data-name="Group 213" clip-path="url(#clip-path)">
        <text id="_1_pizza_cook" data-name="+1 pizza cook" transform="translate(49.293 186.527)" fill="#1a1311" font-size="8" font-family="AveriaSerifLibre-Regular, Averia Serif Libre"><tspan x="0" y="0">+1 pizza cook</tspan></text>
        <text id="First_pizza_purduced_" data-name="First pizza
purduced " transform="translate(75.468 90.791)" fill="#1a1311" font-size="15" font-family="VTCSuperMarketSale"><tspan x="-30.502" y="0">First pizza</tspan><tspan x="-29.183" y="18">purduced </tspan></text>
        <path id="Path_593" data-name="Path 593" d="M61.212,213a52.911,52.911,0,0,0,9.057.281,50.614,50.614,0,0,0,8.026-1.112c1.394-.322,8.187-1.649,11.662-2.7.5-.149,5.911-1.479,8.153-2.088,4.893-1.332,9.873-2.38,14.778-3.62,2.277-.575,4.542-1.078,6.846-1.547a69.368,69.368,0,0,1,11.281-1.417,29.234,29.234,0,0,1,14.956,3.569,17.557,17.557,0,0,1,3.372,2.312,32.313,32.313,0,0,1,2.566,2.727c.408.445.951-.034.625-.447-.4-.5-.83-.984-1.259-1.466a15.178,15.178,0,0,0-2.124-2.114,39.436,39.436,0,0,0-4.738-3.277,27.9,27.9,0,0,0-7.921-2.7c-9.273-1.892-18.848-.716-27.811,1.95-2.3.684-4.581,1.46-6.889,2.033a35.225,35.225,0,0,0-3.431,1.093c-.484.228-5.991,1.909-6.682,2.118q-2.077.633-4.168,1.229c-1.469.42-2.954.788-4.432,1.178-.593.158-1.239.294-1.836.479-1.239.386-2.471.535-3.7.9a29.374,29.374,0,0,1-3.429.727,69.537,69.537,0,0,1-7.373,1.055,19.609,19.609,0,0,1-6.54-.46c-2.322-.69-4.467-2-5.236-4.3-.819-2.452,1.98-4.434,4.152-5.071a18.373,18.373,0,0,1,8.167-.136c.979.173,3.014.852,2.817,2.084-.1.6-.577.831-1.113,1.087-.4.194-.963.5-.591,1,.589.784,2.628.3,3.456.264,1.2-.055,2.434-.251,3.65-.394a44.67,44.67,0,0,0,8.254-2.039c1.643-.524,3.258-1.117,4.907-1.63,2.195-.684,4.378-1.364,6.577-2.037,1.462-.447,2.979-.663,4.433-1.131.36.006,1.2-.2.963-.718-.157-.341-.94-.279-1.236-.258a34.062,34.062,0,0,0-8.062,1.523c-2.133.695-3.7,1.389-5.489,2.069q-1.82.7-3.643,1.389c-1.074.409-2.224.637-3.29,1.036-.561.209-2.881.776-3.319.865a21.662,21.662,0,0,1-3.223.4c-.6.026-1.175-.026-1.28-.3-.217-.571.265-1.048.265-1.57a5.119,5.119,0,0,0-.084-1.46,5.254,5.254,0,0,0-2.074-2.612c-1.6-1.287-4.362-1.628-6.378-1.483-4.61.286-9.444,2.862-9.563,7.581a7.049,7.049,0,0,0,1.225,3.313A9.514,9.514,0,0,0,55.8,210.6,9.637,9.637,0,0,0,61.212,213" transform="translate(-28.766 -180.251)" fill="#1a1311"/>
        <path id="Path_594" data-name="Path 594" d="M151.651,217.795a8.573,8.573,0,0,0-.792-1.6c-.121-.192-.614-.829-.787-1.031a10.577,10.577,0,0,0-3.057-2.039,9.71,9.71,0,0,0-3.121-.955,27.907,27.907,0,0,0-6.1-.3c-2.076.16-4.341.475-5.258.607-2.14.309-8.1,1.57-9.349,1.864-1.41.332-2.842.59-4.245.942-.678.17-1.289.322-1.985.46-.545.107-3.741.95-4.791,1.151-1.246.236-4.61,1.134-5.1,1.217-.525.092-.992.283-1.526.4-1.079.226-4.17,1.033-4.585,1.144-1.143.3-2.306.575-3.438.916-.315-.015-2.642.658-3.178.805-1.189.326-7.321,1.72-9.2,2.105a46.784,46.784,0,0,1-9.447,1.18c-1.49,0-2.982-.045-4.46-.072-.271-.006-3.023-.347-4.334-.631-.577-.126-1.225-.245-1.814-.394s-.712-.17-1.773-.5a56.177,56.177,0,0,1-5.605-2.681,16.639,16.639,0,0,1-2.742-2.135l-.509-.5c-.436-.441-.477.262-.3.533a11.063,11.063,0,0,0,2.514,2.636,17.1,17.1,0,0,0,2.975,2.141,35.8,35.8,0,0,0,3.9,1.8,50.7,50.7,0,0,0,8.689,2.167,39.731,39.731,0,0,0,7.9.268,52.081,52.081,0,0,0,6.5-.6c1.645-.294,3.16-.569,4.77-.993.358-.094,5.067-1.383,6.118-1.724,3.6-1.168,12.526-3.908,14.979-4.649,1.957-.59,3.876-1.253,5.856-1.777,2.128-.562,4.248-1.057,6.346-1.666.659-.192,2.8-.718,3.217-.8a88.451,88.451,0,0,1,11.806-1.952,13.947,13.947,0,0,1,7.04,1.161,6.176,6.176,0,0,1,2.509,1.994,3.731,3.731,0,0,1,.6,1.634,5.1,5.1,0,0,1,.025,1.685c-.176,2.124-3.26,3.663-5.881,4.08a15.075,15.075,0,0,1-5.014-.309c-.944-.179-2.662-.594-3.31-1.568-.536-.8-.881-1.788.094-2.568.379-.3,1.043-.132,1.248-.686.182-.492-.582-.571-.876-.552l-1.7.126a38.345,38.345,0,0,0-6.15,1.108c-1.487.358-2.991.724-4.455,1.159-.933.277-4.049,1.144-6.842,2.092-1.227.418-2.487.884-3.718,1.289-2.192.722-4.458,1.259-6.716,1.847-1.289.335-2.7.2-3.967.6-1.506.471,1.608.918,2.042.923a27.182,27.182,0,0,0,8.046-1.338c1.1-.328,2.163-.656,3.255-.989,1.223-.373,6.691-2.2,8.1-2.815,1.3-.569,2.683-.9,4.02-1.374,1.389-.492,5.5-1.381,6-1.632.57-.286.269.426.089.6a2.627,2.627,0,0,0-.306,3.134,6.619,6.619,0,0,0,2.227,2.512,12.6,12.6,0,0,0,5.347,1.862,11.464,11.464,0,0,0,6.2-.835,7.551,7.551,0,0,0,4.109-4.732,6.071,6.071,0,0,0-.091-3.739" transform="translate(-27.733 -164.903)" fill="#1a1311"/>
        <path id="Path_595" data-name="Path 595" d="M140.678,209.263l.089.234.062.177.087.121.132.066a.42.42,0,0,0,.577-.2,1.611,1.611,0,0,0,.185-.556l.036-.411.052-.4.021-.181-.023-.183c-.039-.356-.233-.484-.586-.381l-.214.092-.281.313-.31.283c-.292.038-.579.064-.865.079s-.575.028-.865.036l-.4,0-.2-.083-.084-.179-.071-.309.009-.224c.043-.392.073-.784.094-1.174s.034-.784.048-1.176l.036-.349.1-.179.205-.064.36-.017.073,0a7.49,7.49,0,0,0,1.576-.034,5.349,5.349,0,0,1,.9-.036c.3.015.6.03.913.049l.148.032.08.087.048.1-.1.467.027.469a.4.4,0,0,0,.591.285l.183-.051.18-.064.2-.128.082-.2c.009-.262.011-.518,0-.771s-.014-.509-.025-.771l-.014-.07-.244-.26-.187-.047-.2-.006-.468.028-.479.013q-1.786-.054-3.543.06a8.051,8.051,0,0,1-1.262,0,5.074,5.074,0,0,0-.824-.011c-.271.019-.548.045-.828.072l-.262.245-.052.207c0,.29.167.473.5.55a.334.334,0,0,1,.317.36,5.281,5.281,0,0,0,.016,1.247l.014.288-.018.3q-.017.841-.043,1.66a14.725,14.725,0,0,0,.032,1.647l-.016.435-.048.516.055.52a5.734,5.734,0,0,1,.089.684,2.832,2.832,0,0,1-.032.693l-.3.313-.233.041-.235.043-.189.049-.189.051-.139.121-.036.166.014.085.039.141.041.143.214.264.342.075.543-.053.554-.011.2,0,.2-.028a10.473,10.473,0,0,1,1.2-.117c.4-.015.81-.026,1.23-.032q.811-.016,1.613,0c.536.013,1.072.021,1.613.03l.4-.023.388-.094.326-.367q.027-.364.041-.735l.027-.735-.011-.141-.091-.164-.169-.081h-.2l-.187.015-.386.241-.16.3-.071.326-.1.271-.29.124-.157.032-.16.015q-.39.016-.78.026c-.26.006-.525,0-.794,0l-.586,0-.586.053-.347.023-.358-.017-.132-.062-.071-.128-.014-.07-.011-.07-.011-.554-.071-.556-.03-.4-.016-.415-.018-.546-.064-.55-.009-.337.034-.32.048-.089.091-.075.376-.045.322.017.31-.026a3.031,3.031,0,0,1,.721-.034c.24.017.488.023.748.023m-11.32.364-.025.058-.057.021-.233-.243.066-.119.03,0,.014.006.016,0,.137.107Zm2.347-1.719.016,0,0,.162,0,.149a7.7,7.7,0,0,0,.039.891c.032.292.068.586.114.882l.064.4.034.4.007.07-.025.072-.011.03-.03.017-.073.009-.271-.254-.267-.239-.208-.209-.219-.209-.522-.458-.436-.524-.182-.213-.185-.213-.226-.286-.217-.315c-.125-.183-.251-.373-.379-.565s-.253-.381-.379-.565c-.194-.262-.386-.524-.579-.784s-.386-.526-.579-.8l-.084-.119-.114-.1-.233-.173-.192-.217-.155-.139-.224-.062c-.2-.015-.408-.036-.62-.066a1.012,1.012,0,0,0-.636.132l-.219.06-.253.034-.415.058-.417.06-.249.239-.075.347.043.085.075.07.114.03.114.015.379.038.183.092.075.19.05.326.023.175.007.175.055.531.066.528a6.82,6.82,0,0,1,.116.818c.025.279.043.554.057.827q.014.7.073,1.372c.025.3.052.6.084.893s.062.6.1.893l.021.315.048.311a4.851,4.851,0,0,1,.046.616c0,.2,0,.4,0,.605l-.24.352-.155.045-.1.081L124.3,215l-.221.2-.048.062-.016.072-.007.1.023.089.326.2.367.009c.265-.064.532-.119.8-.162s.529-.087.785-.134l.228-.068.21-.092.094-.124,0-.128-.114-.268-.251-.128a.337.337,0,0,1-.356-.3l-.064-.394-.05-.4q-.086-.668-.135-1.319t-.151-1.315c-.048-.324-.1-.643-.167-.957a4.2,4.2,0,0,1-.075-.963l0-.064-.014-.077-.078-.541-.062-.543a2.788,2.788,0,0,1,.112-.984l.05-.034.068.006.322.249.235.3a13.186,13.186,0,0,1,.9,1.144,8,8,0,0,0,.938,1.11l.13.134.1.151a13.293,13.293,0,0,0,1.214,1.532l.1.109.084.111.383.522.37.524a8.066,8.066,0,0,0,.716.916c.26.288.538.565.833.835l.365.241.438.023.194-.028.194-.028.185-.111.087-.215v-.092l0-.119c-.043-.268-.075-.539-.094-.814s-.025-.55-.018-.822l-.021-.428-.066-.422c-.082-.349-.146-.7-.2-1.065a9.554,9.554,0,0,1-.091-1.076c-.014-.271-.032-.543-.057-.818s-.057-.55-.1-.827l-.039-.356-.023-.358-.023-.371-.025-.356,0-.2.011-.219.03-.539-.048-.545.121-.168.146-.051.148-.036.356-.124.178-.315.087-.207-.048-.121-.121-.085-.151-.019-.153,0a6,6,0,0,0-.723.064,3.063,3.063,0,0,1-.725.021l-.324.085-.235.243-.068.17.036.173.121.17a.636.636,0,0,1,.267.492l.048.36.043.349q.031.531.062,1.042c.018.343.036.686.057,1.031m-16.081,5.406-.025-.188-.037-.158a2.078,2.078,0,0,1-.132-.646c-.011-.217-.021-.435-.03-.654l-.023-.5-.078-.471a1.783,1.783,0,0,1-.034-.631q.041-.316.089-.626l.03-.107.032-.107.123-.541.194-.556.292-.452.34-.45.089-.117.094-.092.164-.119.167-.1.543-.268a1.72,1.72,0,0,1,.611-.094l.44.017.427.051a1.264,1.264,0,0,1,.8.482l.292.428.292.428.13.245.1.239c.084.249.157.494.221.735s.135.482.219.722a2.741,2.741,0,0,1,.141,1.161l-.011.254.032.23a2.494,2.494,0,0,1,.052.727q-.024.371-.048.748l-.059.456-.1.45a3.753,3.753,0,0,1-1.268,2.077l-.253.181-.262.124a3.26,3.26,0,0,1-.721.175,2.258,2.258,0,0,1-.719-.026l-.566-.173-.445-.4-.308-.482-.308-.5-.2-.381-.135-.317-.082-.335Zm7.248-2.84-.1-.754a6.363,6.363,0,0,0-.306-.876c-.125-.286-.251-.562-.379-.833a5.533,5.533,0,0,0-.356-.631c-.125-.194-.258-.386-.395-.58l-.258-.292-.283-.258-.308-.217-.333-.183-.335-.132-.5-.128-.557-.053-.547.011-.461.045-.139.028-.153.045-.582.2-.593.234-.233.1-.23.132a2.2,2.2,0,0,0-.611.433l-.525.513a2.736,2.736,0,0,0-.6.8c-.141.292-.287.586-.436.884-.068.311-.141.618-.214.925a4.343,4.343,0,0,0-.119.948c.009.217.021.437.036.658a2.916,2.916,0,0,1-.036.673l.014.213c.043.249.087.5.13.739a2.1,2.1,0,0,0,.26.7l.2.447a4.242,4.242,0,0,0,.436.886,5.826,5.826,0,0,0,.618.778,4.9,4.9,0,0,0,.746.607,2.237,2.237,0,0,0,.919.345l.064.021.062.023a4.04,4.04,0,0,0,.735.132,3.485,3.485,0,0,0,.771-.021l.538-.087.532-.128a2.588,2.588,0,0,0,.757-.3l.575-.369.6-.341.235-.149.214-.2.363-.375.176-.2.119-.232c.039-.092.1-.245.194-.454l.018-.032.018-.032a2.37,2.37,0,0,0,.242-.609,2.694,2.694,0,0,0,.073-.631q0-.329-.007-.665a5.474,5.474,0,0,1,.021-.669l.009-.554Zm-11.014-1.579.271.1.283-.075a.507.507,0,0,0,.258-.539l-.132-.678a.676.676,0,0,0-.4-.582l-.235-.075-.237,0-.4.1-.39.066a6.243,6.243,0,0,0-1.282.364l-.57.194-.591.083-.319.077a4.112,4.112,0,0,1-.906.273c-.3.053-.614.1-.933.124-.278.028-.559.051-.837.07a2.519,2.519,0,0,0-.814.194l-.185.03-.155.021-.484.1-.479.107-.47.315-.08.222c.034.271.078.537.135.8s.119.522.192.784l.219.194h.358l.319-.192.05-.1.016-.1-.043-.309-.059-.3.055-.143.121-.117c.3-.081.6-.158.906-.23s.611-.151.919-.234l.087-.021.363.217.16.467.162.482.08.249.023.277.046.3.057.3a5.152,5.152,0,0,0,.228.893,5.1,5.1,0,0,1,.228.893c.05.258.1.509.162.754a3.94,3.94,0,0,0,.249.722,1.888,1.888,0,0,1,.116.522c.084.422.164.84.244,1.249s.157.829.23,1.253l-.007.075-.009.075-.039.147-.123.109a5.124,5.124,0,0,0-.632.194l-.164.243.066.309.249.136.29-.028.271-.049c.463-.13.922-.251,1.38-.367a8.409,8.409,0,0,1,1.408-.228l.447-.209.162-.183.162-.183.034-.254-.212-.181-.324-.023-.31.117-.212.081-.212-.066-.123-.245c-.05-.209-.1-.415-.137-.618s-.082-.4-.132-.605c-.089-.354-.176-.712-.256-1.072s-.169-.729-.262-1.1c-.128-.558-.256-1.117-.381-1.679s-.253-1.123-.381-1.681c-.043-.211-.078-.418-.107-.618s-.059-.407-.091-.62l-.025-.175v-.2l.242-.39.256-.126.262-.1c.308-.083.614-.158.915-.226s.607-.136.915-.211l.363.217.1.322Zm-10.026,1.579-.1-.509-.114-.226-.208-.16H101.2l-.157.09-.121.2-.116.209-.194.1-.228-.009-.237-.036a3.839,3.839,0,0,0-.874-.068,7.828,7.828,0,0,0-.89.079,5.119,5.119,0,0,0-1.2.339,3.423,3.423,0,0,0-1.052.705l-.367.445a1.514,1.514,0,0,0-.212.537,4.028,4.028,0,0,0-.071,1.038,4.685,4.685,0,0,0,.18,1.006l.137.3.205.268.13.119.135.134a3.526,3.526,0,0,0,.8.6,3.042,3.042,0,0,0,.958.33q.524.118,1.04.224a10.55,10.55,0,0,0,1.061.16l.486.107.454.185.2.1.212.1.424.373a2.521,2.521,0,0,1,.344,1.928,1.2,1.2,0,0,1-.319.571,2.019,2.019,0,0,1-.543.364l-.29.107-.315.07-.3.036-.315-.015c-.34-.072-.666-.16-.981-.26a2.351,2.351,0,0,1-.862-.507,1.918,1.918,0,0,0-.73-.371l-.235.043-.167.158-.039.066-.009.075a4.631,4.631,0,0,0-.055,1.006,7.843,7.843,0,0,0,.11.993l.1.194a.349.349,0,0,0,.447.179.879.879,0,0,0,.433-.2.681.681,0,0,0,.128-.415l0-.251-.009-.266.059-.087.116-.028.21.064a4.445,4.445,0,0,0,2.772.307l.109-.019.107-.034a5.534,5.534,0,0,0,.8-.407,3.416,3.416,0,0,0,.707-.571l.276-.335.16-.379.123-.362.2-.541-.057-.552-.057-.275a2.143,2.143,0,0,0-.173-.594l-.281-.533-.351-.486-.39-.469-.089-.066-.089-.064a3.6,3.6,0,0,0-1-.573c-.363-.139-.723-.286-1.077-.439l-.112-.023-.112-.023-.386-.058-.372-.077c-.253-.045-.5-.092-.751-.141a3.049,3.049,0,0,1-.712-.239l-.128-.07-.1-.1a2.145,2.145,0,0,1-.395-.707,2.631,2.631,0,0,1-.1-.793,1,1,0,0,1,.536-.884l.573-.256a3.525,3.525,0,0,1,.8-.13c.267-.013.532-.013.8,0l.36.128.447.326.386.4.24.175.306-.032.251-.264.03-.187.016-.185-.05-.328Zm-10.539,7.138.135.209.1.158.107.1.144.032a.43.43,0,0,0,.516-.343,1.662,1.662,0,0,0,.064-.588l-.048-.413-.032-.4-.018-.183L92.2,216q-.164-.511-.648-.232l-.187.141-.208.377-.242.356q-.411.16-.821.288c-.271.083-.547.166-.828.245l-.39.1-.212-.032-.116-.153-.135-.288-.036-.222c-.039-.394-.089-.786-.153-1.176s-.125-.778-.194-1.166l-.039-.352.057-.2.185-.113.347-.1.073-.017a7.345,7.345,0,0,0,1.517-.418,5.328,5.328,0,0,1,.865-.256c.294-.06.591-.117.894-.175l.151,0,.1.066.068.087-.009.482.125.456a.383.383,0,0,0,.63.134l.167-.094.162-.107.167-.175.039-.215c-.046-.26-.1-.511-.155-.759s-.119-.5-.183-.75l-.027-.066-.29-.2-.192,0-.2.045-.445.141-.463.13q-1.735.38-3.415.92a8.22,8.22,0,0,1-1.218.311,4.74,4.74,0,0,0-.8.19c-.258.085-.52.177-.787.273l-.205.3-.007.217c.059.283.26.422.6.413a.321.321,0,0,1,.381.277,5.272,5.272,0,0,0,.271,1.221l.073.279.043.3c.107.552.205,1.1.3,1.639a15.683,15.683,0,0,0,.372,1.609l.073.43.062.52.162.5a6.263,6.263,0,0,1,.226.648,2.983,2.983,0,0,1,.112.688l-.224.379-.217.1-.219.1-.171.1-.173.094-.109.153v.175l.027.079.068.13.068.128.262.209.347-.011.513-.185.536-.147.189-.047.183-.077a10.544,10.544,0,0,1,1.141-.409q.578-.169,1.186-.33.78-.214,1.56-.394c.52-.117,1.04-.239,1.565-.364l.381-.119.354-.185.242-.441c-.032-.243-.068-.486-.112-.731s-.084-.488-.125-.727l-.039-.136-.123-.138-.18-.038-.2.049-.178.062-.322.328-.1.33v.339l-.041.29-.256.192-.146.068-.151.055c-.251.072-.5.145-.751.213s-.506.134-.771.192l-.566.139-.557.194-.331.109-.351.068-.141-.026-.094-.109-.027-.066-.027-.066-.123-.541-.183-.528-.112-.386-.1-.4-.13-.533-.176-.524-.078-.328-.034-.322.027-.1.075-.1.356-.136.315-.062.292-.1a3.251,3.251,0,0,1,.691-.209c.235-.04.479-.094.73-.16m-13.076.264,0-.043.032.023Zm7.234,5.163-.041-.518L85.4,222.4l-.036-.087-.189-.335-.274-.241-.376-.006-.192.139-.1.2-.068.5-.068.482a.5.5,0,0,1-.415.452l-.18.066-.185.038-1.49.341c-.49.113-.988.226-1.487.339l-.148.019c-.258.034-.422.019-.493-.047a.674.674,0,0,1-.141-.392l-.014-.19.016-.177a3.688,3.688,0,0,0-.066-1.159c-.084-.371-.155-.746-.214-1.125a2.126,2.126,0,0,1-.144-.7,4.384,4.384,0,0,1,.034-.727l.011-.439-.109-.439-.046-.2-.03-.215a3.149,3.149,0,0,1-.014-.654c.018-.215.03-.43.032-.65,0-.3-.011-.6-.023-.895s-.021-.592-.025-.895l.235-.286.381-.1.363-.153.162-.247-.155-.249-.3-.072-.285-.077a2.212,2.212,0,0,0-1.1-.038l-.317.064-.317.077c-.226.049-.456.1-.691.164s-.472.109-.707.151l-.379.247-.155.43.123.224.246.1h.2l.2-.026.123.068.073.147.018.06.007.077a3.02,3.02,0,0,0,.025.825,3.543,3.543,0,0,1,.041.822l.011.147.041.143a3.7,3.7,0,0,1,.121.8c.011.273.011.545,0,.82,0,.247,0,.488.009.729a5.489,5.489,0,0,0,.071.7,7.279,7.279,0,0,0,.151.886c.066.292.121.588.164.882s.073.556.094.837.05.569.082.865l-.055.177-.164.094-.317.077-.315.079-.253.224-.078.356.08.166.151.1.157.015.171-.015c.415-.075.833-.139,1.252-.2a7.225,7.225,0,0,0,1.246-.277l.317-.07.319-.043c.415-.075.821-.141,1.223-.2s.808-.119,1.223-.183l.235-.047.251-.075a6.816,6.816,0,0,1,.737-.17,3.494,3.494,0,0,1,.746-.043l.319-.034.315-.092.322-.2.116-.349-.018-.337-.034-.335Zm-14.306,1.617-.217.045-.187.03-.386.213-.205.366v.092l.075.09.258.139.481.058.465.1.246-.081.246-.079.187-.051.187-.008.6.006.6-.034c.3.026.431-.126.4-.452a.386.386,0,0,0-.365-.388l-.189-.013-.187-.013-.183-.179-.021-.428-.094-.411-.025-.175,0-.175-.025-2.031-.027-.435-.027-.42,0-.349c0-.337-.007-.675,0-1.016s0-.682.009-1.029.011-.673.016-1.014a5.858,5.858,0,0,1,.107-1l.021-.224.066-.2.214-.094.278-.011.135-.043.208-.2,0-.337-.221-.341-.383-.032a4.411,4.411,0,0,1-1.706.188,5.624,5.624,0,0,0-.675-.034.435.435,0,0,0-.5.411l.032.209.151.138.151.04.151.041.212.181.055.209.025.209.03.554v.554c-.016.354-.032.71-.046,1.063s-.027.71-.032,1.065l0,.511.043.524.034.322-.009.309c-.018.243-.025.482-.023.714a4.507,4.507,0,0,0,.068.7l.018.239.018.251.007.526.023.524,0,.315Zm-3.226-8.828.2-.117.187-.119.317-.379-.036-.273-.214-.151c-.374-.038-.748-.081-1.118-.128s-.741-.085-1.118-.115a.784.784,0,0,0-.862.439l-.084.2-.146.286-.132.288c-.144.277-.281.55-.413.818s-.256.541-.367.814l-.141.288-.183.277a3.17,3.17,0,0,0-.42.624,7.135,7.135,0,0,0-.308.69,9.757,9.757,0,0,1-.42,1q-.236.489-.5.965l-.057.023-.068.008-.052-.055-.043-.145-.041-.145c-.027-.281-.064-.558-.112-.831a4.754,4.754,0,0,0-.217-.812l-.078-.36-.075-.375c-.1-.46-.187-.923-.246-1.383s-.132-.92-.219-1.379q-.092-.607-.178-1.2c-.057-.394-.1-.79-.135-1.189l-.109-.288-.237-.2-.36-.13q-.613-.141-1.2-.268t-1.186-.249l-.3-.019-.342.232-.016.241.1.2.169.158.185.16.125.326c-.023.273-.041.543-.052.814a3.7,3.7,0,0,0,.052.82l-.009.185-.021.181c-.048.392-.094.784-.141,1.176s-.1.782-.155,1.172c-.032.271-.075.537-.125.8a6.622,6.622,0,0,0-.109.788c-.043.354-.078.7-.1,1.046s-.055.684-.084,1.023l-.055.326-.125.3-.089.117-.128.068-.536.141-.538.168-.073.115.027.149.171.143.2.162a1.211,1.211,0,0,0,.776.275l.511.053.484.034.178.03.151,0,.214-.036.167-.145-.11-.467-.224-.324-.007-.369.064-.352.066-.367q.154-.786.269-1.558a8.842,8.842,0,0,0,.091-1.581l0-.107v-.124c.05-.42.1-.833.151-1.244s.107-.825.178-1.24l.1-.307.1-.3.048-.032.071.03.1.192.055.228q.133.642.276,1.274c.094.422.187.842.276,1.261.094.381.173.767.237,1.153s.132.771.205,1.159c.041.249.082.5.123.744s.089.49.151.733.109.475.171.71.123.469.185.712l.05.138.05.139.214.217.388.087.383,0,.1-.136.114-.134a1.565,1.565,0,0,0,.452-.524,4.494,4.494,0,0,0,.271-.633,8.927,8.927,0,0,1,.463-1.168,8.41,8.41,0,0,1,.632-1.089l.251-.392.18-.437c.073-.194.141-.388.2-.582a1.066,1.066,0,0,1,.344-.494l.023-.068.039-.064.433-.987.235-.454.29-.413.043-.055.059-.053.03-.006.032-.009.1.136.011.354-.05.354a4.526,4.526,0,0,1-.025.827l-.1.812c-.048.392-.1.782-.148,1.168s-.1.773-.162,1.163c-.046.307-.091.609-.132.912s-.084.607-.13.912l-.048.207-.048.219-.027.215-.041.215-.011.226-.1.224-.164.009-.182.019-.233.111-.164.181-.016.4.315.251.274.034.26.017.237.028.235.04a4.645,4.645,0,0,0,.837.151,4.676,4.676,0,0,1,.837.149l.306-.181-.064-.343-.324-.237-.367-.134-.155-.132v-.185a.972.972,0,0,0,.109-.552,3.586,3.586,0,0,1-.018-.714c.016-.23.046-.465.084-.705.055-.3.1-.586.125-.871s.052-.58.068-.882c.016-.207.036-.413.066-.616a3.685,3.685,0,0,1,.141-.6c.057-.237.1-.475.146-.716s.078-.482.116-.722c.062-.349.13-.7.208-1.046s.155-.69.235-1.027" transform="translate(-26.309 -174.133)" fill="#1a1311"/>
      </g>
    </g>
    <g id="Group_764" data-name="Group 764" transform="translate(-442.48 66.976)">
      <g id="Group_761" data-name="Group 761" transform="translate(539.444 242.123)">
        <g id="Group_765" data-name="Group 765">
          <path id="Path_2551" data-name="Path 2551" d="M551.034,291.65c-1.083.041-1.239.1-1.054.144s3.237.164,4.688.144,4.6-.1,5.343-.185.59-.144.376-.166c-1.556-.148-8.272.021-9.353.062m17.951-25.031c.573.238,1.241.528,1.276.549l-.014.208-.421.02c-.084,0-.865.021-1.426.037a8.527,8.527,0,0,0,.584-.814m-8.6,19.112a51.054,51.054,0,0,0,3,5c-2.156-.06-5.9-.012-8.878.049a3.837,3.837,0,0,0,.855-.52l.728-.23.36.185.243.014c.086-.084.236-3.091.312-4.757l.14.15a2.064,2.064,0,0,0,1.04.707.976.976,0,0,0,.516-.047,2.587,2.587,0,0,0,1.251-1.667c.16.419.364.968.434,1.114m16.672-37.946a5.717,5.717,0,0,0-1.453-1.418c-.538-.347-1.221-.4-1.771-.717-.407-.232-.8-.477-1.206-.713a10.061,10.061,0,0,0-1.656-.984,6.3,6.3,0,0,0-2.16-.057,5.8,5.8,0,0,1-2.645-.7,7.963,7.963,0,0,0-2.737-.579c-.536-.043-1.087-.051-1.609-.138a12.433,12.433,0,0,0-1.73-.356c-1.285-.037-2.439.8-3.672.834-.974.021-1.954.13-2.928.16a7.307,7.307,0,0,0-3.148.477,6.126,6.126,0,0,0-2.926,3.216c-.559,1.1-1.023,2.2-.427,3.208.555.939,1.638,1.49,2.1,2.5l.105.413c.1,1.023.263,2.03.4,3.07a18.654,18.654,0,0,0,.916,3.006c.547,1.769.138,3.814.563,5.614.045.191.091.382.138.573-.615.127-2.045.37-2.561.446a12.449,12.449,0,0,1-1.6.119l-.175-.52c-.02-.132-.319-3.711-.315-4.141a7.123,7.123,0,0,0-.17-1.365,8.554,8.554,0,0,0-.614-1.9A20.794,20.794,0,0,0,543.36,255c-.3-.312-.4-.43-.421-.251a2.662,2.662,0,0,0,.2.935c.127.356.339.822.339.822a2.2,2.2,0,0,1-1.254-.006l-1.371-.787a.95.95,0,0,0-1.266.321c-.2.193-.216.347.105.674a9.05,9.05,0,0,0,2.263,1.455c1.007.46,2.115.816,2.6,1.083a5.324,5.324,0,0,1,.88.619c.358.312.3,2.655.282,3.011s-.064,1.825-.045,2.583c.014.51.027,1.054.056,1.371a.3.3,0,0,0,.355.243c1.163-.187,5.226-.867,5.286-.789l.076-.193a25.028,25.028,0,0,0,.9,2.781c.506,1.276,1.4,2.672,1.5,4.094a6.616,6.616,0,0,1-.378,1.469,4.169,4.169,0,0,0,.434,2.2c.549,1.648,1.632,3.076,1.891,4.838.109.736.121,1.488.3,2.232.02,1.149.066,5.041.039,5.191-.039.2-.734.777-2.026,1.126-.181.049-.789-.08-1.083.269a.371.371,0,0,0,.018.481l.169.039c-1.406.031-2.5.064-2.957.082-1.661.062-1.9.158-1.619.22s4.977.253,7.207.222,7.076-.158,8.218-.284.908-.222.577-.253c-.3-.029-.721-.051-1.235-.064l.16-.158c0-.1-.224-.444.043-.608a15.04,15.04,0,0,1,1.512-.592,2.4,2.4,0,0,0,1.095-1.005c.16-.411.181-.656.119-.756s-.378-.033-.664.263a12.714,12.714,0,0,1-1.513,1.266,1.985,1.985,0,0,1-.777.181l-.195-.148c-.094-.148-1.344-2.306-1.718-3.161-.117-.269-.73-2-.988-2.7a21.925,21.925,0,0,1,1.784-3.255,12.971,12.971,0,0,1,1.782-2.146,6.341,6.341,0,0,0,1.763-2.078c.877-2.026.308-4.1,1.06-6.134a5.457,5.457,0,0,1,.884-1.467c2.037-.109,5.836-.327,5.834-.442-.006-.171.164-.286-.088-.4s-3.282-1.243-3.457-1.338c-.07-.039-.341-.158-.639-.288a8.8,8.8,0,0,0,.462-2.443c.029-.355.025-.717.037-1.081l.017-.312a3.588,3.588,0,0,1,.2-1.011c.446-1.186,1.907-2.392,2.846-3.321a8.527,8.527,0,0,0,1.891-2.324,6,6,0,0,1,.777-1.375,13.632,13.632,0,0,0,1.874-2.933,3,3,0,0,0-.45-3.185" transform="translate(-539.443 -242.123)" fill="#fff3d8"/>
        </g>
      </g>
      <g id="Group_763" data-name="Group 763" transform="translate(539.443 242.15)">
        <g id="Group_762" data-name="Group 762" clip-path="url(#clip-path-3)">
          <path id="Path_2552" data-name="Path 2552" d="M548.976,263.116a15.745,15.745,0,0,1,.964,1.722c-.2.173-.335-.127-.446-.24,0-.051.008-.1.01-.152-.132-.255-.245-.559-.4-.841s-.429-.522-.4-.841c.216-.008.2.222.273.353" transform="translate(-530.668 -222.587)" fill="#1a1311" fill-rule="evenodd"/>
          <path id="Path_2553" data-name="Path 2553" d="M549.727,263.49a.829.829,0,0,1-.393-.943,2.78,2.78,0,0,1,.393.943" transform="translate(-530.099 -222.792)" fill="#1a1311" fill-rule="evenodd"/>
          <path id="Path_2554" data-name="Path 2554" d="M548.03,261.1c-.146-.2-.458-.38-.146-.614.168.111.4.391.146.614" transform="translate(-531.569 -224.744)" fill="#1a1311" fill-rule="evenodd"/>
          <path id="Path_2555" data-name="Path 2555" d="M549.739,261.647c-.3.265-.177.629-.413.806.019-.232-.086-.853.413-.806" transform="translate(-530.076 -223.647)" fill="#1a1311" fill-rule="evenodd"/>
          <path id="Path_2556" data-name="Path 2556" d="M548.726,258.425c-.337.312-.5.678-.937.873a5.358,5.358,0,0,0,.218,1.854c.24-.173.592-.36.715-.105-.156.2-.446.187-.625.349-.136.243.208.45-.051.7a4.835,4.835,0,0,1-.4-1.591c-.092-.534-.356-.984,0-1.447.448.09.652-.81,1.083-.635" transform="translate(-531.84 -226.72)" fill="#1a1311" fill-rule="evenodd"/>
          <path id="Path_2557" data-name="Path 2557" d="M548.458,260.1c-.08.2-.356.253-.516.341-.353-.177.294-.528.516-.341" transform="translate(-531.485 -225.16)" fill="#1a1311" fill-rule="evenodd"/>
          <path id="Path_2558" data-name="Path 2558" d="M549.01,260.877a.294.294,0,0,1-.2-.183c.185-.167.366-.3.534-.218-.018.152-.234.216-.329.4" transform="translate(-530.568 -224.778)" fill="#1a1311" fill-rule="evenodd"/>
          <path id="Path_2559" data-name="Path 2559" d="M547.741,259.791a.132.132,0,0,0-.045-.146c.281-.105.58-.471.834-.216a1.352,1.352,0,0,1-.789.362" transform="translate(-531.621 -225.831)" fill="#1a1311" fill-rule="evenodd"/>
          <path id="Path_2560" data-name="Path 2560" d="M547.7,259.6c-.023-.228.471-.4.7-.6.249.24-.5.594-.592.645-.033-.027-.072,0-.105-.041" transform="translate(-531.621 -226.159)" fill="#1a1311" fill-rule="evenodd"/>
          <path id="Path_2561" data-name="Path 2561" d="M548.387,258.688c.121.035.091.07.179.16-.333.187-.51.53-.838.641-.2-.253.506-.575.658-.8" transform="translate(-531.624 -226.45)" fill="#1a1311" fill-rule="evenodd"/>
          <path id="Path_2562" data-name="Path 2562" d="M550.73,260.279c-.631.29-.643.766-.793,1.161-.3-.378.133-1.365.793-1.161" transform="translate(-529.588 -224.967)" fill="#1a1311" fill-rule="evenodd"/>
          <path id="Path_2563" data-name="Path 2563" d="M548.623,257.837a6.264,6.264,0,0,0-.9.748c.06.055.127.018.183.109-.068.1-.146.327-.051.329.3-.228.612-.682.9-.746.055.263-.485.534-.717.853a1.531,1.531,0,0,1-.386.458c-.253-.362.093-.773-.189-1.134.378-.082.806-.855,1.161-.617" transform="translate(-531.842 -227.299)" fill="#1a1311" fill-rule="evenodd"/>
          <path id="Path_2564" data-name="Path 2564" d="M546.33,252.491c.133-.062.267-.195.392-.13.031.029.066.06.1.092-.088.181-.376.261-.549.417.037.13-.053.271.08.393.129-.031.271-.232.4-.181a.156.156,0,0,0,.105.043c-.255.36-.812.6-.483,1.011.218-.08.337-.46.569-.294.025.257-.717.528-.518.715.16.045.341-.189.493-.039.014.228-.335.238-.487.362a.4.4,0,0,0,.053.37c.187-.029.269-.273.479-.212.113.177-.364.45-.5.514.086.084-.016.185.115.265.177-.049.37-.333.528-.115-.006.2-.319.168-.495.413.07.093.023.2.142.288.166-.019.347-.269.5-.09-.1.216-.331.216-.468.436.088.218.022.448.2.658.169-.08.357-.39.5-.138-.035.175-.641.358-.4.6.193-.1.4-.411.559-.193-.062.249-.354.206-.522.44a2.485,2.485,0,0,0,.343.522,2.282,2.282,0,0,1,.3,1.124c.222,1.233,1.134,2.363,1.157,3.555-.4-.477-.38-1.2-.878-1.753-.121-.51-.294-.991-.411-1.49-.06-.265-.06-.547-.131-.814a7.907,7.907,0,0,0-.547-1.079,7.651,7.651,0,0,1-.263-.878,8.291,8.291,0,0,1-.553-2.852,9.808,9.808,0,0,1-.082-2.217c-.088-.125-.148-.253.029-.4.335.2.072.444.253.654" transform="translate(-533.264 -232.943)" fill="#1a1311" fill-rule="evenodd"/>
          <path id="Path_2565" data-name="Path 2565" d="M550.723,259.918c.031.051-.043.031-.088.082a3.641,3.641,0,0,1-.563-.879,2.373,2.373,0,0,1-.473-.962c.277-.062.292.24.38.4.22.39.557.828.81,1.208-.059.055.031.1-.066.156" transform="translate(-529.817 -226.959)" fill="#1a1311" fill-rule="evenodd"/>
          <path id="Path_2566" data-name="Path 2566" d="M551.071,259.038l.154.138c-.259.243-.228.467-.3.7-.314-.064-.158-.647.142-.836" transform="translate(-528.72 -226.118)" fill="#1a1311" fill-rule="evenodd"/>
          <path id="Path_2567" data-name="Path 2567" d="M549.781,257.961c.387.193.565.8.76,1.165a1.586,1.586,0,0,1-.76-1.165" transform="translate(-529.644 -227.139)" fill="#1a1311" fill-rule="evenodd"/>
          <path id="Path_2568" data-name="Path 2568" d="M551.15,258.528c.129.01.158.045.234.156-.121.1-.166.277-.323.3-.222-.132-.055-.294.09-.456" transform="translate(-528.534 -226.601)" fill="#1a1311" fill-rule="evenodd"/>
          <path id="Path_2569" data-name="Path 2569" d="M552.449,257.521c.012.7.117,1.521.16,2.285.037.651.1,1.317.131,1.936.006.156.146.512-.206.565a.56.56,0,0,0-.051-.045c.01-.567-.023-1.13.016-1.7-.109-.89-.058-1.821-.128-2.684-.023-.286-.177-.586-.043-.9.306.057.121.364.123.54" transform="translate(-527.283 -228.068)" fill="#1a1311" fill-rule="evenodd"/>
          <path id="Path_2570" data-name="Path 2570" d="M552.694,260.524a1.34,1.34,0,0,1-.035-.621c.01-.5.054-.976.051-1.451,0-.36-.132-.713.049-1.028a5.908,5.908,0,0,1,.127,1.613,3.436,3.436,0,0,1-.086,1.529.167.167,0,0,0-.105-.041" transform="translate(-526.934 -227.649)" fill="#1a1311" fill-rule="evenodd"/>
          <path id="Path_2571" data-name="Path 2571" d="M551.94,257.161c-.191-.127-.031-.281.059-.429a.41.41,0,0,1,.3.051.422.422,0,0,1-.275.4c-.025-.014-.051-.045-.08-.02" transform="translate(-527.683 -228.31)" fill="#1a1311" fill-rule="evenodd"/>
          <path id="Path_2572" data-name="Path 2572" d="M546.08,251.871c-.239-.392-.621-1.112-.35-1.545a3.375,3.375,0,0,1,.35,1.545" transform="translate(-533.573 -234.375)" fill="#1a1311" fill-rule="evenodd"/>
          <path id="Path_2573" data-name="Path 2573" d="M551.969,256.228c.129-.144.249-.17.362-.1.125.261-.39.407-.362.1" transform="translate(-527.572 -228.912)" fill="#1a1311" fill-rule="evenodd"/>
          <path id="Path_2574" data-name="Path 2574" d="M545.793,250.677c-.354-.14-.193-.705-.415-1.015.051-.078.125-.21.234-.218a6.64,6.64,0,0,1,.181,1.233" transform="translate(-533.818 -235.211)" fill="#1a1311" fill-rule="evenodd"/>
          <path id="Path_2575" data-name="Path 2575" d="M545.335,249.838c.117-.444-.407-.962.045-1.352a2.641,2.641,0,0,1,.031,1.42l-.076-.068" transform="translate(-533.993 -236.119)" fill="#1a1311" fill-rule="evenodd"/>
          <path id="Path_2576" data-name="Path 2576" d="M552.883,254.857c.111.058.054.129.15.187-.111.15-.21.136-.315.2-.265-.1.016-.337.166-.388" transform="translate(-526.965 -230.081)" fill="#1a1311" fill-rule="evenodd"/>
          <path id="Path_2577" data-name="Path 2577" d="M547.062,246.921c-.1.117-.193.162-.281.125.012-.173-.105-.193-.195-.335a.454.454,0,0,1,.288-.222c.129.14.066.294.187.432" transform="translate(-532.672 -238.012)" fill="#1a1311" fill-rule="evenodd"/>
          <path id="Path_2578" data-name="Path 2578" d="M551.454,244.254a3.076,3.076,0,0,0,.14,2.534c-.214.218-.049.553.13.814-.512.187-1.007.136-1.519.294-.08-.093.1-.206-.086-.292-.16.031-.255.224-.3.323-.617.251-.4-.421-.6-.7-.279.177-.1.475-.105.707-.1.113-.187.076-.279.072-.207-.242.1-.658-.24-.8-.142.179-.049.549-.059.8-1.1.15-1.073-1.3-1.365-1.813-.214.24.006.487.056.693.07.273.107.561.187.808a2.883,2.883,0,0,1-.818-1.482c-.039-.232.1-.479-.031-.672-.331.584-.008,1.184.279,1.751.082.158.308.351.15.563a4.123,4.123,0,0,1-.711-1.817c-.2.257.008.7.171,1.011a3.794,3.794,0,0,0,.606,1.4c.105.043.21.082.317.125.111.177.053.462.314.547.156-.162,0-.3.033-.45a9.811,9.811,0,0,0,2.158-.1c.158.2.064.427.226.631a.846.846,0,0,0,.074-.631,9.519,9.519,0,0,0,1.757-.563c-.043-.037-.086-.076-.129-.115,1.227,1.178,4.492.935,4.182.169a3.99,3.99,0,0,1-1.264.15c-.179-.181.146-.522-.2-.608-.179.2.033.38-.181.588-.327-.092-.078-.442-.281-.627-.277.121-.06.4-.123.584a1.217,1.217,0,0,1-.508-.884c-.029-.152.072-.417-.189-.384-.158.319.084.61.123.914-.76-.5-.635-1.5-.845-2.2a4.463,4.463,0,0,0,.331,2.172c-.138.049-.315-.146-.226-.257a3.657,3.657,0,0,1-.656-2.2c-.242.078.027.308-.144.46a7.5,7.5,0,0,0,.314,1.3c-.164-.027-.088-.331-.331-.3a3.923,3.923,0,0,1-.423-2.039c.035-.166.242-.327.062-.479" transform="translate(-533.036 -240.131)" fill="#1a1311" fill-rule="evenodd"/>
          <path id="Path_2579" data-name="Path 2579" d="M553.872,252.71c-.082-.127,0-.267.14-.411.07.033.144,0,.21.084a3.62,3.62,0,0,1-.275.4c.043.039.086.078.129.115-.1.082-.2.216-.288.222-.127-.029-.1-.115-.175-.21.09-.121.171-.1.259-.195" transform="translate(-526.012 -232.505)" fill="#1a1311" fill-rule="evenodd"/>
          <path id="Path_2580" data-name="Path 2580" d="M547.364,246.567c-.066.051-.127-.008-.189-.01.057-.337-.358-.637-.146-.988a1.218,1.218,0,0,1,.335,1" transform="translate(-532.311 -238.883)" fill="#1a1311" fill-rule="evenodd"/>
          <path id="Path_2581" data-name="Path 2581" d="M553.981,251.779c.121-.006.347.018.368.171-.058.189-.154.421-.413.43-.179-.185-.078-.391.045-.6" transform="translate(-525.798 -232.998)" fill="#1a1311" fill-rule="evenodd"/>
          <path id="Path_2582" data-name="Path 2582" d="M554.262,250.826l.154.138c0,.066-.1.14-.179.212-.082.01-.158-.094-.234-.156.088-.076.177-.191.259-.195" transform="translate(-525.643 -233.901)" fill="#1a1311" fill-rule="evenodd"/>
          <path id="Path_2583" data-name="Path 2583" d="M555.108,250.05a16.615,16.615,0,0,1,1.667-1.928,1.792,1.792,0,0,1-.462.709c-.559.7-1.309,1.5-1.849,2.193-.105.136-.125.421-.384.405l-.053-.047c.091-.409.684-.867,1.079-1.332" transform="translate(-525.618 -236.464)" fill="#1a1311" fill-rule="evenodd"/>
          <path id="Path_2584" data-name="Path 2584" d="M556.877,247.235c-.269.277-.73.335-1.048.557-.707,1.1-1.533,2.2-2.121,3.288a.178.178,0,0,0-.13-.064c.349-1.044,1.474-2.148,2.032-3.206a4.921,4.921,0,0,0-.83.166c-.312.543-.875,1.212-1.161,1.739-.094.169-.082.594-.419.481-.021-.249.22-.536.386-.779a16.062,16.062,0,0,0,.976-1.424,3.376,3.376,0,0,0-.892-.105c-.236.376-.284.738-.489,1.112-.366-.362.193-.8.279-1.2-.136-.014-.263-.123-.4-.093-.226.351-.218.684-.458,1.036-.072-.018-.146.018-.212-.084.072-.347.405-.715.432-1.058a1.488,1.488,0,0,1-.709-.368c-.047-.105.084-.224.051-.329a.2.2,0,0,1-.3-.051c.018-.185.22-.179.374-.255.132-.24.542-.857.771-.859-.019.292-.526.623-.475.912.218-.008.423.158.643.148.057-.041.074-.22.171-.113a.551.551,0,0,0,.514.409c.059-.117.175-.45.38-.354.09.134-.125.292-.058.429.292,0,.6.138.847-.041.208-.152.144-.444.45-.561.187.152-.035.337-.037.5.538-.006,1.484-.705,1.823-.343-.263.086-.236.345-.391.5" transform="translate(-527.669 -238.719)" fill="#1a1311" fill-rule="evenodd"/>
          <path id="Path_2585" data-name="Path 2585" d="M555.763,246.815a16.843,16.843,0,0,0-1.418,1.884,9.44,9.44,0,0,1-1.2,1.817c-.035-.027-.072,0-.105-.041.035-.045.006-.084.035-.129.485-.816,1.186-1.7,1.767-2.536.318-.456.536-1.106,1.075-1.282.173-.014.13.2.031.3-.068.08-.115-.154-.189-.01" transform="translate(-526.552 -237.975)" fill="#1a1311" fill-rule="evenodd"/>
          <path id="Path_2586" data-name="Path 2586" d="M553.6,250.673c-.035-.571.608-1.149,1.147-1.913s1.03-1.348,1.533-1.944c-.243-.058-.093-.2-.195-.333.249-.15.546.125.684.345a.459.459,0,0,1-.479.212,23.158,23.158,0,0,0-2.581,3.623.122.122,0,0,1-.109.01" transform="translate(-526.026 -238.059)" fill="#1a1311" fill-rule="evenodd"/>
          <path id="Path_2587" data-name="Path 2587" d="M551.917,246.282a.441.441,0,0,1-.555.144.423.423,0,0,1,.555-.144" transform="translate(-528.146 -238.261)" fill="#1a1311" fill-rule="evenodd"/>
          <path id="Path_2588" data-name="Path 2588" d="M556.173,247.3a25.017,25.017,0,0,0-2.088,2.836l-.076-.07a12.181,12.181,0,0,1,2.3-3.126c.271.169.019.382-.07.58-.2-.045.025-.249-.066-.22" transform="translate(-525.637 -237.588)" fill="#1a1311" fill-rule="evenodd"/>
          <path id="Path_2589" data-name="Path 2589" d="M555.893,248.192c-.643.354-1.063,1.492-1.525,1.843l-.051-.047a7.949,7.949,0,0,1,1.367-1.93c.208-.263.279-.567.592-.645.154.238-.253.52-.384.779" transform="translate(-525.345 -237.136)" fill="#1a1311" fill-rule="evenodd"/>
          <path id="Path_2590" data-name="Path 2590" d="M555.88,248.494a8.678,8.678,0,0,1-1.315,1.6c-.027-.023-.052-.045-.078-.068.5-.771,1.272-1.566,1.806-2.339.382.115-.107.793-.413.806" transform="translate(-525.184 -236.876)" fill="#1a1311" fill-rule="evenodd"/>
          <path id="Path_2591" data-name="Path 2591" d="M555.569,249.156c.07.045.142.043.208.132a1.141,1.141,0,0,0-.183.265c-.226.012-.269-.228-.025-.4" transform="translate(-524.314 -235.484)" fill="#1a1311" fill-rule="evenodd"/>
          <path id="Path_2592" data-name="Path 2592" d="M556.215,248.222a.454.454,0,0,1,.351.047c-.057.08.037.148-.1.234-.181.047-.421-.078-.251-.28" transform="translate(-523.601 -236.381)" fill="#1a1311" fill-rule="evenodd"/>
          <path id="Path_2593" data-name="Path 2593" d="M556.356,248.33c-.119.072-.321-.076-.339-.2.07-.1.132-.076.2-.14.154.092.267.173.138.339" transform="translate(-523.734 -236.588)" fill="#1a1311" fill-rule="evenodd"/>
          <path id="Path_2594" data-name="Path 2594" d="M556.618,248.251c.092.006.261.058.259.179-.224.321-.551.037-.259-.179" transform="translate(-523.273 -236.342)" fill="#1a1311" fill-rule="evenodd"/>
          <path id="Path_2595" data-name="Path 2595" d="M556.849,248.1c-.117.109-.226.119-.343.226-.179-.1-.1-.224.08-.354.086.06.181,0,.263.129" transform="translate(-523.365 -236.605)" fill="#1a1311" fill-rule="evenodd"/>
          <path id="Path_2596" data-name="Path 2596" d="M556.81,248.377c-.29-.127.129-.466.267-.3.074.084-.181.277-.267.3" transform="translate(-523.077 -236.548)" fill="#1a1311" fill-rule="evenodd"/>
          <path id="Path_2597" data-name="Path 2597" d="M557.081,248.269a.243.243,0,0,1,.267.08c-.012.1-.175.2-.263.245-.129-.1-.127-.206,0-.325" transform="translate(-522.813 -236.333)" fill="#1a1311" fill-rule="evenodd"/>
          <path id="Path_2598" data-name="Path 2598" d="M557.366,248.385c.056.09.125.021.183.111-.019.364-.6.224-.183-.111" transform="translate(-522.597 -236.215)" fill="#1a1311" fill-rule="evenodd"/>
          <path id="Path_2599" data-name="Path 2599" d="M556.685,248.469c.1-.208.092-.407.263-.619.362.154-.162.571-.033.826.538-.356.37-1.315.83-1.663.183.543-.331,1.141-.424,1.706.078-.068.142.051.22-.018a9.445,9.445,0,0,0,.721-1.654.268.268,0,0,1,.218-.392,2,2,0,0,1-.245,1.118c-.154.378-.345.769-.518,1.138-.452-.039-.917.115-1.352-.142-.025-.183.148-.2.321-.3" transform="translate(-523.408 -237.854)" fill="#1a1311" fill-rule="evenodd"/>
          <path id="Path_2600" data-name="Path 2600" d="M557.163,247.887c.105-.066.2,0,.292.1-.084.125-.021.121-.179.214-.17.012-.288-.166-.113-.316" transform="translate(-522.729 -236.712)" fill="#1a1311" fill-rule="evenodd"/>
          <path id="Path_2601" data-name="Path 2601" d="M556.24,246.871c.109-.01.166.113.2.183-.191.263-.464-.018-.2-.183" transform="translate(-523.623 -237.65)" fill="#1a1311" fill-rule="evenodd"/>
          <path id="Path_2602" data-name="Path 2602" d="M557.481,247.978a.776.776,0,0,1,.212.084.265.265,0,0,1-.234.218c-.13-.09-.148-.189.021-.3" transform="translate(-522.463 -236.601)" fill="#1a1311" fill-rule="evenodd"/>
          <path id="Path_2603" data-name="Path 2603" d="M556.448,246.907c.105.07.195.088.23.207-.251.337-.547.012-.23-.207" transform="translate(-523.456 -237.616)" fill="#1a1311" fill-rule="evenodd"/>
          <path id="Path_2604" data-name="Path 2604" d="M552.47,243.482a.261.261,0,0,1,.46.039c-.181.177-.464.154-.46-.039" transform="translate(-527.096 -240.979)" fill="#1a1311" fill-rule="evenodd"/>
          <path id="Path_2605" data-name="Path 2605" d="M556.329,247.035c-.164-.1-.154-.22.025-.351.08.025.164.008.238.105a.443.443,0,0,1-.263.245" transform="translate(-523.549 -237.827)" fill="#1a1311" fill-rule="evenodd"/>
          <path id="Path_2606" data-name="Path 2606" d="M557.577,247.759c.462-.3.321-.707.487-1.062.43.111-.127.7-.02,1-.269.362-.2.7-.542,1.067-.37-.206.37-.711.074-1.005" transform="translate(-522.426 -237.815)" fill="#1a1311" fill-rule="evenodd"/>
          <path id="Path_2607" data-name="Path 2607" d="M556.858,247.138c-.043-.025-.093.033-.138.035-.263-.214,0-.327-.041-.571a.507.507,0,0,1,.3,0c-.08.181.029.347-.121.534" transform="translate(-523.18 -237.927)" fill="#1a1311" fill-rule="evenodd"/>
          <path id="Path_2608" data-name="Path 2608" d="M557.276,246.438c-.162-.136-.278.131-.39.082-.158-.28.278-.489.516-.341-.039.086-.008.167-.127.259" transform="translate(-522.941 -238.353)" fill="#1a1311" fill-rule="evenodd"/>
          <path id="Path_2609" data-name="Path 2609" d="M557.578,246.73a.2.2,0,0,0-.168.064c-.051-.047-.1-.093-.154-.138.148-.24.438-.1.321.074" transform="translate(-522.558 -237.974)" fill="#1a1311" fill-rule="evenodd"/>
          <path id="Path_2610" data-name="Path 2610" d="M557.332,246.2c.082-.113.152-.09.226-.117.1.232.2.516-.105.707-.253-.179.08-.405-.121-.59" transform="translate(-522.487 -238.4)" fill="#1a1311" fill-rule="evenodd"/>
          <path id="Path_2611" data-name="Path 2611" d="M557.415,246.2c-.273.127-.362-.312-.033-.3.1.092.175.185.033.3" transform="translate(-522.641 -238.57)" fill="#1a1311" fill-rule="evenodd"/>
          <path id="Path_2612" data-name="Path 2612" d="M557.667,246.557c.006-.107.1-.066.175-.164-.066-.053-.127-.107-.125-.166.08-.171.292-.191.354,0l-.2.191c.129-.008.16.134.175.21-.129.127-.355.105-.376-.07" transform="translate(-522.17 -238.388)" fill="#1a1311" fill-rule="evenodd"/>
          <path id="Path_2613" data-name="Path 2613" d="M555.7,243.918c-.144-.029-.284-.1-.438.035-.466-.483.886-.643.438-.035" transform="translate(-524.542 -240.823)" fill="#1a1311" fill-rule="evenodd"/>
          <path id="Path_2614" data-name="Path 2614" d="M558.466,246.287l.154.138c-.22.316-.512-.041-.154-.138" transform="translate(-521.572 -238.204)" fill="#1a1311" fill-rule="evenodd"/>
          <path id="Path_2615" data-name="Path 2615" d="M557.859,245.563c-.117.1.041.179-.1.282-.134-.037-.259-.1-.255-.23.049-.045.1-.09.146-.136.068.074.146.01.212.084" transform="translate(-522.327 -238.969)" fill="#1a1311" fill-rule="evenodd"/>
          <path id="Path_2616" data-name="Path 2616" d="M557.831,245.656a.265.265,0,0,1,.259.179c-.167.306-.582.01-.259-.179" transform="translate(-522.128 -238.802)" fill="#1a1311" fill-rule="evenodd"/>
          <path id="Path_2617" data-name="Path 2617" d="M557.87,245.916c.13-.162.247-.158.358-.053a.1.1,0,0,0-.008.1c-.156.113-.28.117-.351-.047" transform="translate(-521.977 -238.676)" fill="#1a1311" fill-rule="evenodd"/>
          <path id="Path_2618" data-name="Path 2618" d="M558.382,246.163a.237.237,0,0,1,.38.019.315.315,0,0,1-.176.164c-.08.008-.21-.109-.2-.183" transform="translate(-521.492 -238.403)" fill="#1a1311" fill-rule="evenodd"/>
          <path id="Path_2619" data-name="Path 2619" d="M558.531,245.115a6.685,6.685,0,0,0-.571,1.093c-.3-.236.177-.875.438-1.157.043.049.09.02.133.064" transform="translate(-521.984 -239.375)" fill="#1a1311" fill-rule="evenodd"/>
          <path id="Path_2620" data-name="Path 2620" d="M558.971,245.6a3.066,3.066,0,0,1-.588.6c-.222-.169.339-.841.588-.6" transform="translate(-521.54 -238.906)" fill="#1a1311" fill-rule="evenodd"/>
          <path id="Path_2621" data-name="Path 2621" d="M558.084,246.041c.053-.232.413-1.124.8-.838a8.556,8.556,0,0,0-.691.879.163.163,0,0,0-.105-.041" transform="translate(-521.775 -239.284)" fill="#1a1311" fill-rule="evenodd"/>
          <path id="Path_2622" data-name="Path 2622" d="M548.637,261.2a3.468,3.468,0,0,0,.08,1.517.792.792,0,0,0,.865.456c-.191-.288-.814-.551-.715-1.017a.852.852,0,0,0,.734.392c.086-.107.267-.214.35-.327.355-.487.31-2.1-.528-2.08-.464.012-.727.641-.787,1.06m.512-.664a.5.5,0,0,1,.617.127c-.064.115-.263.339-.025.351-.146.111-.191.216-.132.31.088.047.185-.057.271.029a1.1,1.1,0,0,1-.2.89c-.9.064-1.044-1.114-.528-1.706" transform="translate(-530.769 -225.077)" fill="#1a1311" fill-rule="evenodd"/>
          <path id="Path_2623" data-name="Path 2623" d="M558.119,247.563c-.185.068-.263-.224-.193-.335.121-.162.22-.023.329-.025a2.375,2.375,0,0,1,.15-.561c.156.025.181.244.273.353-.468.479-.187,1.028-.787,1.436-.033-.031-.066-.06-.1-.092a2.142,2.142,0,0,0,.329-.775" transform="translate(-522.053 -237.867)" fill="#1a1311" fill-rule="evenodd"/>
          <path id="Path_2624" data-name="Path 2624" d="M573.759,247.851a5.758,5.758,0,0,0-1.463-1.426c-.542-.349-1.229-.405-1.78-.721-.409-.234-.808-.481-1.212-.719a10.2,10.2,0,0,0-1.667-.989,6.413,6.413,0,0,0-2.172-.056,5.831,5.831,0,0,1-2.661-.7,8.017,8.017,0,0,0-2.754-.58c-.538-.043-1.095-.053-1.619-.14a12.54,12.54,0,0,0-1.741-.358c-1.292-.037-2.45.81-3.691.838-.98.021-1.965.132-2.945.162a7.392,7.392,0,0,0-3.167.479,6.168,6.168,0,0,0-2.943,3.235c-.563,1.1-1.028,2.209-.428,3.228.557.945,1.648,1.5,2.113,2.517a1.439,1.439,0,0,1,.105.417c.1,1.03.267,2.041.4,3.089a19,19,0,0,0,.923,3.023c.549,1.778.138,3.835.565,5.647a30.731,30.731,0,0,0,1.278,4.272c.51,1.286,1.406,2.69,1.512,4.12a6.72,6.72,0,0,1-.382,1.478,4.194,4.194,0,0,0,.438,2.211c.551,1.66,1.642,3.1,1.9,4.868.2,1.362.066,2.776,1.28,4.092a2.258,2.258,0,0,0,1.124.795.99.99,0,0,0,.52-.047c.886-.323,1.194-1.568,1.476-2.261a22.526,22.526,0,0,1,2.1-3.993,13.08,13.08,0,0,1,1.792-2.16,6.409,6.409,0,0,0,1.776-2.092c.88-2.037.308-4.124,1.063-6.171.452-1.219,1.57-2.121,2.22-3.253a7.364,7.364,0,0,0,.795-3.163,8.469,8.469,0,0,1,.259-2.419c.448-1.192,1.919-2.406,2.863-3.341a8.526,8.526,0,0,0,1.9-2.337,6.081,6.081,0,0,1,.783-1.383,13.909,13.909,0,0,0,1.885-2.949,3.024,3.024,0,0,0-.454-3.206m-3.043-1.233c.074.1.158.08.238.107a.51.51,0,0,1-.362.1c.031-.068,0-.134.125-.21m-14.464,36.789c-.164-.247.053-.834-.321-.824a6.94,6.94,0,0,1,.06,1.393.242.242,0,0,0-.222.068c-.216.58-.16,1.383-.871,1.841l-.1-.092a7.57,7.57,0,0,0,1.005-2.577,2.244,2.244,0,0,1,.52-1.513c-.025.469-.195.947.115,1.389-.062.105-.121.21-.185.316m.263-.621a6.673,6.673,0,0,1,.271-2.593c.074.545-.232,1.249.2,1.683-.138.271-.138.789-.475.91m.516-1.089c-.058-.769.025-1.548-.076-2.316.181-.238.15-.46.351-.7.088.727-.253,1.484.113,2.187a2.379,2.379,0,0,1-.388.83m2.339-3.305-.263.245a1.967,1.967,0,0,1,.025-.725c.018-.218.164-.616-.171-.637-.025.518-.251,1.052,0,1.548a1.37,1.37,0,0,0-.271.347,3.189,3.189,0,0,1-.025-1.147c.017-.132.166-.316,0-.425a.256.256,0,0,1-.142.086,3.779,3.779,0,0,0-.06,1.552c.053.025.115-.066.162.039-.105.179-.284.191-.46.335-.125-.481.134-.991-.029-1.471-.029.027-.055.014-.084.031-.3.791.092,1.525-.444,2.332-.039.031-.076.058-.109.01.07-.23-.047-.446.187-.69-.477-.308.051-1.007-.284-1.325.417-.619,1.307-1.215,1.718-1.884.125-.2.068-.419.284-.547.062.769-.166,1.562-.033,2.324m13.008-25.838c.142-.154.14-.471-.131-.438-.027.3-.405.493-.464.76.041.039.084.078.126.115.105.056.232-.179.333-.076-.923.771-.943,1.605-1.529,2.267.166-.175-.162-.222-.263-.129-.086.158-.045.469.191.384a9.6,9.6,0,0,1-.808.988c-.123-.273.033-.569.062-.853-.066-.086-.146,0-.218.018-.337.458.246.845-.315,1.323-.259-.317.322-1.056-.218-1.106-.15.616.323,1.3-.575,1.893a4.152,4.152,0,0,1-.076-1.192,2.882,2.882,0,0,1,.017-1.114.042.042,0,0,1,.012-.037l-.012.037c.008.047.115.07.142.027-.056-.162-.019-.557-.345-.471a15.982,15.982,0,0,0,.01,1.722c.039.664.206,1.325-.635,1.946-.222-1.138.138-2.324-.045-3.465.084-.261.267-.384.238-.643-.091-.113-.2-.033-.3,0,.018.066-.035.136-.125.208a15.11,15.11,0,0,1-.181,4.334,1.7,1.7,0,0,0-.238.269c-.072-.719.335-1.591.166-2.259-.029.027-.056.014-.086.031-.189.123-.023.218-.051.329a17.008,17.008,0,0,1-.319,1.747c.051.078.014.166.037.245a2.427,2.427,0,0,1-.271.347c-.037-.654.1-1.323.064-1.977.078-.156.2-.316.033-.452-.3.206-.234.592-.253.843a22.143,22.143,0,0,1-.431,4,12.253,12.253,0,0,1-.388,3.076c-.07-1.887.134-3.94-.012-5.789-.029-.38.162-.878-.16-1.161a.353.353,0,0,0-.008.475c.09,1.739.018,3.635-.018,5.442a3.757,3.757,0,0,1-.6,2.569c-.016-.855.018-1.765.027-2.6,0-.273.128-.616-.076-.818-.214.167-.039.3-.033.452.043,1.093-.232,2.238-.218,3.337-.167.09-.181.3-.321.3-.033-1.141.043-2.456.072-3.574.006-.187.218-.61-.088-.668a38.569,38.569,0,0,0-.185,4.383.618.618,0,0,1-.366.528,24.56,24.56,0,0,1,.01-3.469,4.525,4.525,0,0,1-.06-1.019c.006-.129.177-.411-.076-.444a4.024,4.024,0,0,0-.089,1.206c-.012,1.225-.1,2.445.006,3.644-.148.3.01.58-.257.894-.119-1.062-.1-2.217-.115-3.261,0-.271.07-.617-.13-.814-.2.392.082.958-.078,1.428a22.777,22.777,0,0,1-.031,3.4c-.113-.8,0-1.749-.173-2.458-.154.162-.092.384-.1.557a25.036,25.036,0,0,1-.105,4.026.788.788,0,0,1-.037.5c-.255-1.12-.006-2.279-.323-3.393a33.578,33.578,0,0,0,.068,3.913c.056.1.125.027.185.06-.312,1.317.01,2.84-1.416,4.081.023-1.632-.06-3.315-.158-4.907-.012-.2.035-.483-.144-.612-.134.226-.037.469-.023.676.016.23.041.466.058.693.107,1.4-.062,2.791.1,4.162.062.125.169-.047.156.086-.187.1-.39.37-.577.446,0-.816-.06-1.671-.119-2.462-.019-.249.082-.586-.134-.764.021,1.163-.031,2.332.016,3.492a4.827,4.827,0,0,0-.409.384c-.117-.732.055-1.7-.115-2.513.121-.168.068-.321.226-.493a29.419,29.419,0,0,0,.214-3.66,2.939,2.939,0,0,1,.1-1.358c-.006.074.012.273.15.189a.77.77,0,0,0,.2-.466c.086.06.074.216.209.134.14-.144.093-.275-.025-.4-.187.168-.3.3-.567.294a3.478,3.478,0,0,1,.382-1.212l-.943.491a.277.277,0,0,0,.1.033c-.117.22,0,1.543-.52,2.263-.107.39-.421.8-.249,1.167a3.914,3.914,0,0,1,.242-.317,4.676,4.676,0,0,1-.259,3.514,5.875,5.875,0,0,1-1.139,1.438,4.958,4.958,0,0,0-1.408,2.483c0,.789-.4,1.613-.366,2.4-.4.506-.105.956-.353,1.451a3.525,3.525,0,0,1-.769-1.013c-.062-.164.049-.434-.183-.485-.156.563.413,1.2.937,1.7a4.535,4.535,0,0,1-.865,1.79,1.506,1.506,0,0,1-.493-.709c.074.09.154.123.243.006a1.646,1.646,0,0,1-.481-.861c-.062-.016-.136.138-.193.041-.107-.226-.236-.448-.333-.674.119-.193-.01-.364-.014-.547.633.5.764,1.519,1.383,1.938-.158-.795-1.009-1.535-1.274-2.322-.107-.029-.2-.047-.234-.156,0-.164.133-.189.191-.364-.177-.368-.111-.832-.267-1.2-.045-.109-.158-.171-.2-.284-.132-.393.088-.878-.181-1.235-.047.035-.092.01-.138.037-.123.127-.023.234-.082.356-.286-.265-.292-.678-.444-.99-.109-.226-.319-.378-.419-.59-.356-.75-.456-1.665-.857-2.429a9.4,9.4,0,0,1,.495-2.285,6.787,6.787,0,0,1-.43-1.564,37.156,37.156,0,0,1-2.148-5.623,17.623,17.623,0,0,1-.469-1.759,31.9,31.9,0,0,1-.119-3.586c-.09-1.669-1-3.138-1.311-4.764-.076-.4-.039-.845-.1-1.266a6.1,6.1,0,0,1-.222-1.8c-.035-.222-.171-.436-.2-.658a7.852,7.852,0,0,1-.744-.989c.742.006.9.684,1.249,1.175-.086.2.105.321.185.434.091.13.018.458.216.407.119-.177.062-.487-.183-.485a.735.735,0,0,1,.2-.191c.24.331.216.816.522,1.058a13.175,13.175,0,0,1-.522-2.18c.386.164.086.59.4.841a2,2,0,0,0,.341.9,3.723,3.723,0,0,0-.123-.914c-.076-.3-.281-.612-.094-.941.323.292.22.962.506,1.258.175-.448-.2-.982-.066-1.344.14.123.15.6.384.719.175-.319-.335-.773.125-.958.185.115.08.59.413.691.123-.3-.316-.762.041-.927-.027.164.279.473.493.335.066-.16-.179-.409-.347-.471.035-.173.269-.335.278-.446-.2-.08-.421.039-.641.175a.392.392,0,0,0-.273.021,4.393,4.393,0,0,1-2.908.28c-.13.113.055.294-.107.331-.168-.208-.6-.2-.715-.267-.516-.279-.612-.857-.89-1.229-.02-.072.1-.156.1-.232a1.291,1.291,0,0,1,0-1.548,2.9,2.9,0,0,0,.09,1.367c.228-.867-.113-1.689.518-2.589a3.675,3.675,0,0,1,0,.8c-.006.245-.1.586.109.74.136-.588.09-1.157.179-1.712a.9.9,0,0,1,.234-.592,16.55,16.55,0,0,1-.041,1.675c.006.16-.008.456.183.485a20.846,20.846,0,0,1,.216-2.589c.133-.07.269-.2.4-.281a22.833,22.833,0,0,1-.117,2.355c.171.228-.109.6.164.736.154-1.143.082-2.269.306-3.418.136,0,.288-.234.423-.208a9.541,9.541,0,0,0-.119,3.1c.146-1.085.212-2.164.374-3.249.134-.092.267-.15.4-.232a7.341,7.341,0,0,1-.125,1.706c.105.249-.1.631.105.791.134-.867.169-1.728.38-2.6.09.031.193-.129.275-.021.019.321-.13.74-.134,1.108,0,.212-.014.693.193.709.107-.625-.057-1.36.3-1.921.179.167.093.553.1.89,0,.271-.15.8.22.732a6.361,6.361,0,0,1,.1-1.681c.105.045.222-.06.325.025a5.328,5.328,0,0,0,.039,1.319c.064-.014.127.008.193-.039a3.126,3.126,0,0,1,.1-1.307c.09.016.179.014.269.029-.01.4-.158,1.073.234,1.28a11.983,11.983,0,0,1-.014-1.3c.123.043.259-.064.38.02.045.388-.14.927.21,1.208a11.808,11.808,0,0,1,.066-1.28c.105.057.222-.049.325.025.131.212-.078.7.329.723.006-.275-.117-.54-.021-.822.818-.208.146.867.664.972a4.426,4.426,0,0,1,.017-1,.9.9,0,0,1,.464-.012c0,.253-.138.641.053.795.027-.027.055-.014.084-.031.117-.284-.105-.542.142-.836.1.117.22-.025.321.076.016.2-.066.643.2.658.121-.226-.078-.427-.008-.649a.83.83,0,0,1,.549-.043c.045.16-.113.45.152.512.119-.2.039-.388.07-.58.164-.107.329-.282.479-.212.008.13-.078.483.185.434.127-.193-.064-.38.1-.557a2.4,2.4,0,0,1,.7-.28,8.159,8.159,0,0,1,.958-.049,1.967,1.967,0,0,1,.97.123c-.127.193-.682.59-.606.845.059-.049.105.058.164-.012.173-.347.619-.754.976-.678-.144.181-.448.247-.358.429.185.1.4-.2.6-.372.144,0,.286.064.43.066-.064.138-.243.286-.029.4.15-.127.177-.245.354-.376.127-.008.522-.076.46.037-.189.234-.705.4-.427.633.318-.255.795-.8,1.165-.666a4.9,4.9,0,0,1-.573.4c.033.08-.051.169.09.243.38-.325.8-.709,1.206-.471-.218.15-.7.331-.479.588,1.225-1.229,2.415,0,3.426.454a3.7,3.7,0,0,0-.577.818c-.123.232-.368.633-.023.676a4.877,4.877,0,0,1,.816-1.461c.177.068.364-.012.536.107-.089.333-.75.84-.321,1.048a5.251,5.251,0,0,1,.68-1.1,1.612,1.612,0,0,1,.52-.016,1.937,1.937,0,0,0-.5.514c.037.064,0,.132.1.193.246-.123.372-.5.668-.577-.058.121-.064.341.109.364a.958.958,0,0,1,.45-.559c1.515-.158,2.762,1.235,4.192,1.891.1.388-.411.538-.734.732-.086-.177.243-.386.041-.553-.323.144-.2.5-.384.779a2.1,2.1,0,0,1-.522.44c-.093.014-.173-.113-.271-.027a2.146,2.146,0,0,1-.136.358c-1.492,1.632-1.981,3.576-.368,4.648.24.056.471-.222.275-.4-.105-.064-.222.047-.325-.025a2,2,0,0,1-.378-2.639c.01.5-.263,1.019-.166,1.51.1.045.2-.074.308-.1a3.751,3.751,0,0,1,.2-1.689c-.093-.058-.058-.129-.093-.191.2-.208.288-.54.51-.664a5.624,5.624,0,0,0-.333,1.948c.076-.058.144.029.222-.068.1-.333.088-.723.165-1.136.113-.59.082-1.194.8-1.586a11.869,11.869,0,0,1-.635,2.322c.1.041.025.1.1.14.057-.027.111-.033.168-.062a12.226,12.226,0,0,0,.4-1.354c.162-.567.082-1.455.911-1.646-.082.814-.773,1.675-.645,2.474.337-.253.317-.678.427-1.009.181-.54.362-1.069.553-1.589a.8.8,0,0,1,.5-.14c-.275.479-.783,1.309-.358,1.55a2.965,2.965,0,0,1,.692-1.626c.086.06.181,0,.263.129-.273.438-.6,1.011-.425,1.332.333-.442.207-.849.693-1.3a3.667,3.667,0,0,1,1.88,2.6,5.4,5.4,0,0,1-1.408,2.856m-25.748-.964c.351-.014.417.538.46.787a1.1,1.1,0,0,1-.46-.787" transform="translate(-535.849 -242.119)" fill="#1a1311" fill-rule="evenodd"/>
          <path id="Path_2625" data-name="Path 2625" d="M559.078,247.97a2.071,2.071,0,0,1-.156.66c-.109-.014-.206-.154-.325-.023-.333.312-.4,1.065-.666,1.65-.292.641-.951,1-1.292,1.624-.064.025-.125-.033-.193.041-.3.327-.66.524-.906.843a2.857,2.857,0,0,0-.341.927,6.157,6.157,0,0,0-.3.746c-.173.719-.317,1.541-.436,2.232a3.269,3.269,0,0,1-.637,2,6.039,6.039,0,0,1-1.389,2.606c-.1.117-.2.234-.3.349l.532.4c.265-.376.549-.752.826-1.13.072.016.148-.035.228-.117.053-.6.559-1.225.651-1.825.06-.074.111-.016.171-.113a.765.765,0,0,1,.265-.619c-.074-.045,0-.1-.1-.142.372-1.143.487-2.269.74-3.4.051.047.1.092.154.138-.082.082-.187.2-.107.331.1-.014.2.055.308-.1.084-.1-.08-.177-.062-.271.119-.146.347-.261.392-.5-.07-.056-.144-.031-.216-.033-.146.208-.228.321-.46.335,0-.253.162-.148.347-.277-.049-.062.082-.14.07-.2-.066-.091-.14-.09-.208-.134a2.058,2.058,0,0,1,.45-.933c.072.152.2.121.339.2-.016.265-.329.534-.051.7a1.446,1.446,0,0,0,.355-.752c-.292.021-.166-.193-.355-.37.1-.082.2-.216.288-.224.054-.072.072.189.183.111.245-.255.113-.327.368-.578.078-.051.136.13.216.033.267-.212.261-.4.563-.617-.107-.051-.033-.115-.07-.169a22.1,22.1,0,0,0,1.42-3.383.26.26,0,0,0-.3,0m-1.93,4.046c-.092-.113-.2.043-.3.049.016-.208.331-.442.458-.66.045.2-.148.411-.154.612" transform="translate(-527.407 -236.653)" fill="#1a1311" fill-rule="evenodd"/>
          <path id="Path_2626" data-name="Path 2626" d="M555.423,267.731c-1.564-.15-8.321.021-9.41.062s-1.245.1-1.06.144,3.257.166,4.716.146,4.63-.1,5.376-.187.594-.144.378-.166" transform="translate(-534.283 -217.935)" fill="#1a1311"/>
          <path id="Path_2627" data-name="Path 2627" d="M561.41,268.134a12.705,12.705,0,0,1-1.521,1.274,2.008,2.008,0,0,1-.783.181c-.066-.016-.1,0-.195-.148s-1.354-2.32-1.728-3.181c-.136-.312-.935-2.573-1.085-2.951l-.625,1.064c.093.218.516,1.377.623,1.6A50.873,50.873,0,0,0,559.113,271c-2.17-.06-5.937-.012-8.931.051a3.827,3.827,0,0,0,.859-.522,1.619,1.619,0,0,1,.732-.232.574.574,0,0,1,.362.185c.08.115.127.129.245.014.09-.09.253-3.45.325-5.047l-.925-1.517c.02,1.155.068,5.07.039,5.222-.039.2-.738.781-2.037,1.132-.183.049-.793-.08-1.089.271a.374.374,0,0,0,.018.485.37.37,0,0,0,.169.037c-1.414.033-2.517.066-2.972.084-1.673.062-1.915.158-1.63.222s5.006.255,7.252.224,7.117-.16,8.265-.288.913-.222.58-.253c-.3-.029-.725-.051-1.241-.066.043-.018.158-.076.16-.158,0-.1-.226-.446.043-.612a15.024,15.024,0,0,1,1.521-.6,2.417,2.417,0,0,0,1.1-1.009c.16-.415.183-.662.119-.762s-.38-.033-.668.265" transform="translate(-534.956 -222.07)" fill="#1a1311"/>
          <path id="Path_2628" data-name="Path 2628" d="M545.854,251.823a20.963,20.963,0,0,0-2.433-2.854c-.308-.314-.4-.432-.427-.253a2.749,2.749,0,0,0,.2.941c.129.358.343.826.343.826a2.218,2.218,0,0,1-1.262,0c-.152-.06-1.241-.711-1.379-.793a.957.957,0,0,0-1.276.323c-.2.193-.216.349.107.678a9.052,9.052,0,0,0,2.277,1.463c1.013.464,2.127.822,2.612,1.091a5.275,5.275,0,0,1,.884.623c.36.314.3,2.671.284,3.029s-.064,1.837-.045,2.6c.014.514.027,1.06.057,1.379a.3.3,0,0,0,.358.245c1.169-.187,5.257-.871,5.318-.795.027.035.415-1.237.088-1.147s-2.211.415-2.821.5a12.576,12.576,0,0,1-1.609.119c-.06-.016-.16-.388-.179-.522s-.319-3.734-.316-4.168a7.039,7.039,0,0,0-.171-1.373,8.53,8.53,0,0,0-.616-1.911m-.175,1.27a4.007,4.007,0,0,0-.329-.277c-.206-.158-2.577-.972-2.939-1.149a9.193,9.193,0,0,1-1.788-1.027c-.14-.136-.152-.481.019-.5s.752.46,1,.571a8.387,8.387,0,0,0,1.831.629,1.935,1.935,0,0,0,1.005-.134c.185-.037.407.156.641.514a8.81,8.81,0,0,1,.559,1.375" transform="translate(-539.409 -235.981)" fill="#1a1311"/>
          <path id="Path_2629" data-name="Path 2629" d="M549.631,257.117c.021.1.023.193.2.23a8.308,8.308,0,0,0,1.151-.076c.249-.019,1.171-.134,1.171-.134a9.994,9.994,0,0,0,.5.865c.14.173.245.54.493.423l2.146-1s.569-.045.715-.045c.242,0,.7,0,1.071-.008.2-.006,7.129-.351,7.125-.506,0-.171.166-.288-.086-.4s-3.3-1.251-3.479-1.346-1.6-.7-1.6-.7l-.582-.261a4.287,4.287,0,0,0-.834-.269c-.612.051-.563.6-.6.672s.119.117.177.154c.041.029.421.2.629.29l1.048.405c.448.154,1.924.795,1.977.826a.108.108,0,0,1-.014.21,2.659,2.659,0,0,1-.423.019c-.134,0-2.01.053-2.01.053l-1.235.16h-1.173s-1-.732-1.3-1.021a11.332,11.332,0,0,0-.947-.884c-.058,0-.323.173-.627.308s-3.263,1.751-3.263,1.751-.265.191-.243.288m2.041-.654a14.131,14.131,0,0,1,1.463-.711.926.926,0,0,1,.982.018,7.1,7.1,0,0,1,.884.769s.119.117.179.173,0,.136-.055.173-1.2.54-1.328.635a.583.583,0,0,1-.382.115,6.374,6.374,0,0,1-.625-1.114c-.1-.271-.253-.117-.253-.117s-.8.173-.958.173,0,0,.093-.115" transform="translate(-529.788 -231.002)" fill="#1a1311"/>
          <path id="Path_2630" data-name="Path 2630" d="M554.946,251.114a.141.141,0,0,1,.035.206,3.7,3.7,0,0,1-1.095.027c-.216-.031-1.056-.123-1.235-.181a15.713,15.713,0,0,0-1.9-.13c-.144.021-.368-.053-.358-.117a12.673,12.673,0,0,1,2.3-.391,23.473,23.473,0,0,1,2.937.006c.152.02.045.14-.055.175s-.894.086-1.081.111-.082.138-.082.138a3.365,3.365,0,0,1,.534.156" transform="translate(-529.067 -234.229)" fill="#1a1311"/>
          <path id="Path_2631" data-name="Path 2631" d="M551.886,249.167c-.275-.129-.732.294-.97.769a3.385,3.385,0,0,0-.282,1.578c.031.436-.117.312-.242.329s-.175-.166-.206-.477a4.4,4.4,0,0,1,.4-1.868,1.271,1.271,0,0,1,1.541-.766,2.33,2.33,0,0,1,.643,2.182s-.041.132-.107.374a4.023,4.023,0,0,1-.577.84l-.787.218a.539.539,0,0,1-.156-.294,2.988,2.988,0,0,1,.162-1.18c.185-.506.818-.452.886-.524a.29.29,0,0,0,.058-.138c.058-.28-.092-.914-.366-1.042" transform="translate(-529.266 -235.945)" fill="#1a1311"/>
          <path id="Path_2632" data-name="Path 2632" d="M551.524,248a1.665,1.665,0,0,1,1.293.658s.012.189-.07.2-.232-.115-.362-.138a2.9,2.9,0,0,0-.914-.058c-.372.053-.824.158-.927.171s-.058-.222.041-.384a1.259,1.259,0,0,1,.939-.45" transform="translate(-528.976 -236.58)" fill="#1a1311"/>
          <path id="Path_2633" data-name="Path 2633" d="M546.542,253.811c.134.045,2.293,1.19,2.546,1.323a12.9,12.9,0,0,1,1.061.777c.1.07.113.37-.078.608s-.588.707-.791.758-.853-.427-.925-.354.094.487.246.656a7.345,7.345,0,0,0,1.5,1.034s.193.14.183.2a5.07,5.07,0,0,0,.15,2.008,1.96,1.96,0,0,0,.506.89c.08.093.142.21.565.088a5.224,5.224,0,0,0,1.835-1.272c.651-.66,1.706-1.673,1.882-1.887a8.986,8.986,0,0,1,.886-.758l.222-.179a1.072,1.072,0,0,1,.343.393c.043.105.4.875.4.875s.158.288.167.224c0-.023.051.033.092-.1a3.116,3.116,0,0,0,.076-1.167c-.105-.616-.4-.742-.9-1.052s-1.862-.892-2-.958-.512-.158-.495-.055.09.28.4.469,1,.553,1.122.641.366.284.339.372a5.948,5.948,0,0,1-.97.769,15.024,15.024,0,0,1-2.267.343,5.423,5.423,0,0,1-2.423-.582c-.419-.234-.6-.292-.588-.358s.2-.07.495-.321a3.977,3.977,0,0,0,.822-1.4c.041-.257.01-.317-.345-.54s-2.1-1.069-2.314-1.188-.171-.144.031-.193a4.18,4.18,0,0,0,1.281-.288,3.043,3.043,0,0,0,1.825-2.09,4.24,4.24,0,0,0-.719-2.889,3.112,3.112,0,0,0-1.492-1.2s-.191.111-.041.257a6.081,6.081,0,0,1,1.488,1.685,4.114,4.114,0,0,1,.345,2.162.439.439,0,0,1-.292.4s-.216-1.149-.249-1.356a3.773,3.773,0,0,0-.4-.974,1.067,1.067,0,0,0-.658-.518c-.542.049-.639.431-.806.812a3.69,3.69,0,0,0-.171,1.286c.018.1-.019.682.2.734s.214-.142.191-.284a5.873,5.873,0,0,1,.016-1.034,1.508,1.508,0,0,1,.411-.91c.1-.057.247-.016.407.119a2.019,2.019,0,0,1,.51,1.149c-.3-.057-.74.37-.791,1.081a.81.81,0,0,0,.2.419c.329.306.6.056.573.144a2.8,2.8,0,0,1-.725.462,8.2,8.2,0,0,1-1.373.38c-.23.035-1.151.115-1.389.16-.273.053-.243.183-.109.226m4.564,5.142c.049-.092.1-.008.409.047a5.891,5.891,0,0,0,1.9,0l.152.021-.2.321a15.926,15.926,0,0,1-1.65,1.247c-.273.156-.288.041-.339-.016a8.567,8.567,0,0,1-.275-1.625" transform="translate(-532.808 -237.137)" fill="#1a1311"/>
        </g>
      </g>
    </g>
  </g>
</svg>
