<svg xmlns="http://www.w3.org/2000/svg" xmlns:xlink="http://www.w3.org/1999/xlink" width="148.75" height="215.843" viewBox="0 0 148.75 215.843">
  <defs>
    <clipPath id="clip-path">
      <path id="Path_559" data-name="Path 559" d="M55.8,189.8s-13.282,0-13.282,12.4V393.236c0,.192.1,12.4,13.282,12.4H177.986s13.284,0,13.284-12.405V202.2s0-12.4-13.284-12.4Z" transform="translate(-42.52 -189.796)" fill="none"/>
    </clipPath>
  </defs>
  <g id="Group_757" data-name="Group 757" transform="translate(-42.52 -189.796)">
    <g id="Group_210" data-name="Group 210" transform="translate(42.52 189.796)">
      <g id="Group_209" data-name="Group 209" clip-path="url(#clip-path)">
        <rect id="Rectangle_382" data-name="Rectangle 382" width="164.687" height="230.731" transform="translate(-7.968 -7.443)" fill="#87bfc8"/>
        <path id="Path_555" data-name="Path 555" d="M89.261,248.695l.29.138a7.822,7.822,0,0,0,.671,1.21l.189.04a7.307,7.307,0,0,1,1.3-1.127l.349.072a1.7,1.7,0,0,1,.436.761l.151.422.189.1.287-.207c.367-.324.744-.637,1.106-.955l.139-.021.335.332c.123.313.274.612.374.912l.205.166.219-.021a11.057,11.057,0,0,1,1.3-.748l.287.19.162.646.233.384.176.028a2.729,2.729,0,0,0,.983-.482l.465-.107.112.2-.021,1.008.267.362c.511-.256,1.052-.486,1.533-.767l.242.313c.062.249-.011.52.039.771l.267.426a8.751,8.751,0,0,1,1.225-.509l.461.119.1.339.1.541.027.452.2.09c.319-.055.6-.177.938-.209l.454,0,.187.269-.036.4c.039.209.071.426.091.624l.463.117a4.449,4.449,0,0,1,.723-.13l.205.264a6.428,6.428,0,0,0-.192,1.008l.157.147c.463-.023.853-.087,1.259-.128l.237.424a2.8,2.8,0,0,0-.251.993l.16.145a4.238,4.238,0,0,0,1.129-.03l.333.117.016.156a10.3,10.3,0,0,0-.3,1.106l.135.132a13.293,13.293,0,0,0,1.4-.006l.066.245a7.364,7.364,0,0,1-.579.98l-.073.258.176.175a12.1,12.1,0,0,0,1.323.111l.153.234a4.382,4.382,0,0,1-.484.8l-.228.273.4.254a7.56,7.56,0,0,0,1.125.209l.164.194c-.153.241-.379.484-.573.744l-.189.339.119.173a6.29,6.29,0,0,0,1.371.337l.141.164-.228.311c-.287.3-.545.633-.84.893l.144.251c.44.134.906.241,1.339.4l.283.254-.03.1c-.39.3-.693.688-1.07,1.023.059.2.258.279.415.369.292.164.6.311.917.45l.185.162-.121.239a4.612,4.612,0,0,0-.678.577l-.03.051.2.215c.249.151.509.3.764.462l.276.26-.007.181a8.822,8.822,0,0,1-1.063.652l-.1.17.114.126a2.547,2.547,0,0,1,.627.352l.47.249a.369.369,0,0,1,.176.447.724.724,0,0,1-.641.326l-.552.294.039.187a10.58,10.58,0,0,1,1.079.667l.073.156-.192.209a3.106,3.106,0,0,0-1.02.535l-.31.2.082.16a3.9,3.9,0,0,1,.849.563l.328.275v.07l-.328.175a4.387,4.387,0,0,1-.584.217l-.536.251-.082.177a4.634,4.634,0,0,0,.99.788l.169.234-.406.279c-.294.111-.625.177-.938.271l-.169.156.052.141a5.862,5.862,0,0,0,.931.765l-.08.4c-.468.136-.995.211-1.485.324l-.157.209a11.137,11.137,0,0,0,1,1.168l-.036.228a3.134,3.134,0,0,1-1.154.3l-.057.141a2.879,2.879,0,0,1,.668.744l-.1.369c-.5.034-.917.143-1.408.181l-.116.162c.182.469.392.908.573,1.372l-.356.266-1.2-.083-.155.16c.1.454.167.952.278,1.419l-.176.268-.445,0c-.244-.038-.516-.043-.76-.064l-.185.2a13.048,13.048,0,0,0,.258,1.481l-.3.288-.96.077-.189.183a5.866,5.866,0,0,0,.075.976l-.137.181h-.162c-.4-.141-.792-.258-1.184-.379l-.217.422a6.07,6.07,0,0,0,.068.876l-.224.228-.258-.075a9.737,9.737,0,0,0-.954-.407l-.23.213a12.367,12.367,0,0,1-.071,1.27l-.383.245a1.5,1.5,0,0,1-.568-.222l-.472-.19-.246.2c-.173.411-.269.891-.44,1.317l-.3.1c-.285-.147-.563-.311-.869-.439l-.244.03-.119.232c-.071.3-.1.612-.162.927l-.37.173a3.371,3.371,0,0,1-.913-.631l-.283,0a4.511,4.511,0,0,0-.586,1.229l-.351.092c-.354-.16-.548-.479-.851-.684l-.224-.019-.205.369c-.144.332-.244.663-.406.974l-.189.032a4.721,4.721,0,0,0-1.111-.837l-.235.187a3.887,3.887,0,0,1-.543.759l-.333.36c-.249-.09-.367-.337-.534-.52l-.44-.422-.2-.032L91.791,297.5l-.242,0a11.7,11.7,0,0,1-.794-.948l-.24-.187-.255.1a13.321,13.321,0,0,0-1.1,1.074l-.219.028a5.258,5.258,0,0,1-.682-.906l-.224-.311-.276-.036a7.366,7.366,0,0,0-1.143,1.144l-.171,0-.205-.224c-.2-.339-.271-.771-.568-1.014l-.173-.107-.34.164a5.713,5.713,0,0,0-.814.68l-.153.026a11.05,11.05,0,0,1-.767-1.163l-.235-.362-.244.026a10.472,10.472,0,0,0-1.189.929l-.219,0-.11-.175a5.366,5.366,0,0,0-.214-1.513l-.183-.09c-.543.315-1.074.641-1.583.978l-.287-.23a5.808,5.808,0,0,0-.039-1.215l-.167-.128-.456.2c-.354.187-.668.407-1.006.582l-.26-.179a12.307,12.307,0,0,1,.08-1.4l-.182-.141c-.212.072-.424.194-.682.288l-.821.33-.381-.2a4.071,4.071,0,0,1,.24-1.315l-.155-.179a1.711,1.711,0,0,0-.865.307,1.225,1.225,0,0,1-.678.188l-.23-.3a5.3,5.3,0,0,0,.322-1.085l-.162-.17a11.419,11.419,0,0,0-1.351.29L72,291.12l-.059-.181.2-.844-.187-.228-1.027-.015-.365.064-.221-.294a7.726,7.726,0,0,0,.408-1.379l-.157-.16a12.821,12.821,0,0,1-1.373-.015.455.455,0,0,1-.265-.565,3.634,3.634,0,0,1,.4-.972l-.141-.2a4.117,4.117,0,0,1-1.446-.173l-.194-.392a2.548,2.548,0,0,1,.415-.7l.148-.313-.429-.249c-.329-.1-.732-.111-1.072-.207l-.2-.283a3.34,3.34,0,0,1,.616-.906l.091-.341-.2-.126c-.413-.13-.89-.183-1.291-.322l-.139-.377a6.459,6.459,0,0,1,.924-1.014l-.075-.2a8.219,8.219,0,0,0-1.378-.467L64.742,280l.1-.187c.271-.3.6-.539.86-.842l-.032-.249a7.181,7.181,0,0,0-1.218-.6l-.107-.3a3.486,3.486,0,0,1,.949-.8l.009-.26a4.834,4.834,0,0,1-1.246-.729l-.023-.228c.153-.381.6-.5.928-.718l.055-.309a7.831,7.831,0,0,0-1.1-.673l-.075-.441c.338-.3.767-.5,1.134-.773l-.03-.245c-.347-.345-.771-.626-1.125-.97l-.009-.228c.23-.292.657-.4.949-.633l.192-.264a5.441,5.441,0,0,0-.575-.707,2.04,2.04,0,0,1-.417-.526l.358-.332a5.711,5.711,0,0,0,.8-.433l.062-.17a6.741,6.741,0,0,1-.735-1.057l-.05-.207a.828.828,0,0,1,.7-.58l.511-.145.1-.228a6.315,6.315,0,0,1-.659-1.3l.139-.384a1,1,0,0,1,.591-.241l.436-.087.436-.062.089-.145a6.979,6.979,0,0,1-.532-1.261.454.454,0,0,1,.267-.569,4.143,4.143,0,0,0,1.077-.092l.125-.177a8.978,8.978,0,0,0-.413-1.229l.032-.143c.08-.168.335-.164.568-.179.376-.023.748-.047,1.093-.1l.244-.311-.319-.98-.162-.347.18-.207.573-.009a3.452,3.452,0,0,0,.926.077l.167-.222c-.052-.49-.121-.948-.2-1.411l.162-.29.2.015a5.667,5.667,0,0,0,.844.251l.358-.2a10.486,10.486,0,0,1-.148-1.078.364.364,0,0,1,.31-.358l1.417.264.137-.128v-1.131a.5.5,0,0,1,.155-.618l.315-.019a8.657,8.657,0,0,0,1.163.5l.226-.194a12.186,12.186,0,0,1,.233-1.313l.324-.3c.356.2.735.349,1.09.533l.2,0,.121-.177.283-1.025.548-.121.992.546.256-.211c.116-.4.313-.744.429-1.112l.212-.132a5.643,5.643,0,0,1,.618.335,3.843,3.843,0,0,1,.623.373l.317-.381c.119-.3.2-.637.319-.935l.335-.2.139.072a4.642,4.642,0,0,0,.785.663l.226.006.205-.268a6.519,6.519,0,0,1,.411-.808l.379-.128c.3.281.573.626.883.942l.249-.047c.283-.356.552-.718.814-1.1l.313-.228c.212.06.313.288.42.469a8.11,8.11,0,0,1,.668.75l.23-.066a13.629,13.629,0,0,0,1.054-1.2Z" transform="translate(-15.241 -123.196)" fill="#fff3d8"/>
        <path id="Path_556" data-name="Path 556" d="M60.569,256.554l2.037,5.9,6.636-.011-5.375,3.635,2.062,5.892-5.361-3.654-5.363,3.654,2.065-5.892-5.377-3.635,6.636.011Z" transform="translate(-30.511 -114.309)" fill="#fff3d8"/>
        <path id="Path_557" data-name="Path 557" d="M99.421,256.554l2.037,5.9,6.636-.011-5.375,3.635,2.062,5.892-5.361-3.654-5.363,3.654,2.065-5.892-5.377-3.635,6.636.011Z" transform="translate(19.27 -114.309)" fill="#fff3d8"/>
      </g>
    </g>
    <g id="Group_214" data-name="Group 214" transform="translate(42.52 189.796)">
      <g id="Group_213" data-name="Group 213" clip-path="url(#clip-path)">
        <text id="_5_for_every_drink_sold" data-name="+$5 for every drink sold" transform="translate(32.293 186.527)" fill="#1a1311" font-size="8" font-family="AveriaSerifLibre-Regular, Averia Serif Libre"><tspan x="0" y="0">+$5 for every drink sold</tspan></text>
        <text id="First_drink" data-name="First drink" transform="translate(42.468 92.791)" fill="#1a1311" font-size="15" font-family="VTCSuperMarketSale"><tspan x="0" y="0">First drink</tspan></text>
        <text id="marketed" transform="translate(46.883 111.265)" fill="#1a1311" font-size="15" font-family="VTCSuperMarketSale"><tspan x="0" y="0">m</tspan><tspan y="0" letter-spacing="-0.043em">a</tspan><tspan y="0">rketed</tspan></text>
        <path id="Path_593" data-name="Path 593" d="M61.212,213a52.911,52.911,0,0,0,9.057.281,50.614,50.614,0,0,0,8.026-1.112c1.394-.322,8.187-1.649,11.662-2.7.5-.149,5.911-1.479,8.153-2.088,4.893-1.332,9.873-2.38,14.778-3.62,2.277-.575,4.542-1.078,6.846-1.547a69.368,69.368,0,0,1,11.281-1.417,29.234,29.234,0,0,1,14.956,3.569,17.557,17.557,0,0,1,3.372,2.312,32.313,32.313,0,0,1,2.566,2.727c.408.445.951-.034.625-.447-.4-.5-.83-.984-1.259-1.466a15.178,15.178,0,0,0-2.124-2.114,39.436,39.436,0,0,0-4.738-3.277,27.9,27.9,0,0,0-7.921-2.7c-9.273-1.892-18.848-.716-27.811,1.95-2.3.684-4.581,1.46-6.889,2.033a35.225,35.225,0,0,0-3.431,1.093c-.484.228-5.991,1.909-6.682,2.118q-2.077.633-4.168,1.229c-1.469.42-2.954.788-4.432,1.178-.593.158-1.239.294-1.836.479-1.239.386-2.471.535-3.7.9a29.374,29.374,0,0,1-3.429.727,69.537,69.537,0,0,1-7.373,1.055,19.609,19.609,0,0,1-6.54-.46c-2.322-.69-4.467-2-5.236-4.3-.819-2.452,1.98-4.434,4.152-5.071a18.373,18.373,0,0,1,8.167-.136c.979.173,3.014.852,2.817,2.084-.1.6-.577.831-1.113,1.087-.4.194-.963.5-.591,1,.589.784,2.628.3,3.456.264,1.2-.055,2.434-.251,3.65-.394a44.67,44.67,0,0,0,8.254-2.039c1.643-.524,3.258-1.117,4.907-1.63,2.195-.684,4.378-1.364,6.577-2.037,1.462-.447,2.979-.663,4.433-1.131.36.006,1.2-.2.963-.718-.157-.341-.94-.279-1.236-.258a34.062,34.062,0,0,0-8.062,1.523c-2.133.695-3.7,1.389-5.489,2.069q-1.82.7-3.643,1.389c-1.074.409-2.224.637-3.29,1.036-.561.209-2.881.776-3.319.865a21.662,21.662,0,0,1-3.223.4c-.6.026-1.175-.026-1.28-.3-.217-.571.265-1.048.265-1.57a5.119,5.119,0,0,0-.084-1.46,5.254,5.254,0,0,0-2.074-2.612c-1.6-1.287-4.362-1.628-6.378-1.483-4.61.286-9.444,2.862-9.563,7.581a7.049,7.049,0,0,0,1.225,3.313A9.514,9.514,0,0,0,55.8,210.6,9.637,9.637,0,0,0,61.212,213" transform="translate(-28.766 -180.251)" fill="#1a1311"/>
        <path id="Path_594" data-name="Path 594" d="M151.651,217.795a8.573,8.573,0,0,0-.792-1.6c-.121-.192-.614-.829-.787-1.031a10.577,10.577,0,0,0-3.057-2.039,9.71,9.71,0,0,0-3.121-.955,27.907,27.907,0,0,0-6.1-.3c-2.076.16-4.341.475-5.258.607-2.14.309-8.1,1.57-9.349,1.864-1.41.332-2.842.59-4.245.942-.678.17-1.289.322-1.985.46-.545.107-3.741.95-4.791,1.151-1.246.236-4.61,1.134-5.1,1.217-.525.092-.992.283-1.526.4-1.079.226-4.17,1.033-4.585,1.144-1.143.3-2.306.575-3.438.916-.315-.015-2.642.658-3.178.805-1.189.326-7.321,1.72-9.2,2.105a46.784,46.784,0,0,1-9.447,1.18c-1.49,0-2.982-.045-4.46-.072-.271-.006-3.023-.347-4.334-.631-.577-.126-1.225-.245-1.814-.394s-.712-.17-1.773-.5a56.177,56.177,0,0,1-5.605-2.681,16.639,16.639,0,0,1-2.742-2.135l-.509-.5c-.436-.441-.477.262-.3.533a11.063,11.063,0,0,0,2.514,2.636,17.1,17.1,0,0,0,2.975,2.141,35.8,35.8,0,0,0,3.9,1.8,50.7,50.7,0,0,0,8.689,2.167,39.731,39.731,0,0,0,7.9.268,52.081,52.081,0,0,0,6.5-.6c1.645-.294,3.16-.569,4.77-.993.358-.094,5.067-1.383,6.118-1.724,3.6-1.168,12.526-3.908,14.979-4.649,1.957-.59,3.876-1.253,5.856-1.777,2.128-.562,4.248-1.057,6.346-1.666.659-.192,2.8-.718,3.217-.8a88.451,88.451,0,0,1,11.806-1.952,13.947,13.947,0,0,1,7.04,1.161,6.176,6.176,0,0,1,2.509,1.994,3.731,3.731,0,0,1,.6,1.634,5.1,5.1,0,0,1,.025,1.685c-.176,2.124-3.26,3.663-5.881,4.08a15.075,15.075,0,0,1-5.014-.309c-.944-.179-2.662-.594-3.31-1.568-.536-.8-.881-1.788.094-2.568.379-.3,1.043-.132,1.248-.686.182-.492-.582-.571-.876-.552l-1.7.126a38.345,38.345,0,0,0-6.15,1.108c-1.487.358-2.991.724-4.455,1.159-.933.277-4.049,1.144-6.842,2.092-1.227.418-2.487.884-3.718,1.289-2.192.722-4.458,1.259-6.716,1.847-1.289.335-2.7.2-3.967.6-1.506.471,1.608.918,2.042.923a27.182,27.182,0,0,0,8.046-1.338c1.1-.328,2.163-.656,3.255-.989,1.223-.373,6.691-2.2,8.1-2.815,1.3-.569,2.683-.9,4.02-1.374,1.389-.492,5.5-1.381,6-1.632.57-.286.269.426.089.6a2.627,2.627,0,0,0-.306,3.134,6.619,6.619,0,0,0,2.227,2.512,12.6,12.6,0,0,0,5.347,1.862,11.464,11.464,0,0,0,6.2-.835,7.551,7.551,0,0,0,4.109-4.732,6.071,6.071,0,0,0-.091-3.739" transform="translate(-27.733 -164.903)" fill="#1a1311"/>
        <path id="Path_595" data-name="Path 595" d="M140.678,209.263l.089.234.062.177.087.121.132.066a.42.42,0,0,0,.577-.2,1.611,1.611,0,0,0,.185-.556l.036-.411.052-.4.021-.181-.023-.183c-.039-.356-.233-.484-.586-.381l-.214.092-.281.313-.31.283c-.292.038-.579.064-.865.079s-.575.028-.865.036l-.4,0-.2-.083-.084-.179-.071-.309.009-.224c.043-.392.073-.784.094-1.174s.034-.784.048-1.176l.036-.349.1-.179.205-.064.36-.017.073,0a7.49,7.49,0,0,0,1.576-.034,5.349,5.349,0,0,1,.9-.036c.3.015.6.03.913.049l.148.032.08.087.048.1-.1.467.027.469a.4.4,0,0,0,.591.285l.183-.051.18-.064.2-.128.082-.2c.009-.262.011-.518,0-.771s-.014-.509-.025-.771l-.014-.07-.244-.26-.187-.047-.2-.006-.468.028-.479.013q-1.786-.054-3.543.06a8.051,8.051,0,0,1-1.262,0,5.074,5.074,0,0,0-.824-.011c-.271.019-.548.045-.828.072l-.262.245-.052.207c0,.29.167.473.5.55a.334.334,0,0,1,.317.36,5.281,5.281,0,0,0,.016,1.247l.014.288-.018.3q-.017.841-.043,1.66a14.725,14.725,0,0,0,.032,1.647l-.016.435-.048.516.055.52a5.734,5.734,0,0,1,.089.684,2.832,2.832,0,0,1-.032.693l-.3.313-.233.041-.235.043-.189.049-.189.051-.139.121-.036.166.014.085.039.141.041.143.214.264.342.075.543-.053.554-.011.2,0,.2-.028a10.473,10.473,0,0,1,1.2-.117c.4-.015.81-.026,1.23-.032q.811-.016,1.613,0c.536.013,1.072.021,1.613.03l.4-.023.388-.094.326-.367q.027-.364.041-.735l.027-.735-.011-.141-.091-.164-.169-.081h-.2l-.187.015-.386.241-.16.3-.071.326-.1.271-.29.124-.157.032-.16.015q-.39.016-.78.026c-.26.006-.525,0-.794,0l-.586,0-.586.053-.347.023-.358-.017-.132-.062-.071-.128-.014-.07-.011-.07-.011-.554-.071-.556-.03-.4-.016-.415-.018-.546-.064-.55-.009-.337.034-.32.048-.089.091-.075.376-.045.322.017.31-.026a3.031,3.031,0,0,1,.721-.034c.24.017.488.023.748.023m-11.32.364-.025.058-.057.021-.233-.243.066-.119.03,0,.014.006.016,0,.137.107Zm2.347-1.719.016,0,0,.162,0,.149a7.7,7.7,0,0,0,.039.891c.032.292.068.586.114.882l.064.4.034.4.007.07-.025.072-.011.03-.03.017-.073.009-.271-.254-.267-.239-.208-.209-.219-.209-.522-.458-.436-.524-.182-.213-.185-.213-.226-.286-.217-.315c-.125-.183-.251-.373-.379-.565s-.253-.381-.379-.565c-.194-.262-.386-.524-.579-.784s-.386-.526-.579-.8l-.084-.119-.114-.1-.233-.173-.192-.217-.155-.139-.224-.062c-.2-.015-.408-.036-.62-.066a1.012,1.012,0,0,0-.636.132l-.219.06-.253.034-.415.058-.417.06-.249.239-.075.347.043.085.075.07.114.03.114.015.379.038.183.092.075.19.05.326.023.175.007.175.055.531.066.528a6.82,6.82,0,0,1,.116.818c.025.279.043.554.057.827q.014.7.073,1.372c.025.3.052.6.084.893s.062.6.1.893l.021.315.048.311a4.851,4.851,0,0,1,.046.616c0,.2,0,.4,0,.605l-.24.352-.155.045-.1.081L124.3,215l-.221.2-.048.062-.016.072-.007.1.023.089.326.2.367.009c.265-.064.532-.119.8-.162s.529-.087.785-.134l.228-.068.21-.092.094-.124,0-.128-.114-.268-.251-.128a.337.337,0,0,1-.356-.3l-.064-.394-.05-.4q-.086-.668-.135-1.319t-.151-1.315c-.048-.324-.1-.643-.167-.957a4.2,4.2,0,0,1-.075-.963l0-.064-.014-.077-.078-.541-.062-.543a2.788,2.788,0,0,1,.112-.984l.05-.034.068.006.322.249.235.3a13.186,13.186,0,0,1,.9,1.144,8,8,0,0,0,.938,1.11l.13.134.1.151a13.293,13.293,0,0,0,1.214,1.532l.1.109.084.111.383.522.37.524a8.066,8.066,0,0,0,.716.916c.26.288.538.565.833.835l.365.241.438.023.194-.028.194-.028.185-.111.087-.215v-.092l0-.119c-.043-.268-.075-.539-.094-.814s-.025-.55-.018-.822l-.021-.428-.066-.422c-.082-.349-.146-.7-.2-1.065a9.554,9.554,0,0,1-.091-1.076c-.014-.271-.032-.543-.057-.818s-.057-.55-.1-.827l-.039-.356-.023-.358-.023-.371-.025-.356,0-.2.011-.219.03-.539-.048-.545.121-.168.146-.051.148-.036.356-.124.178-.315.087-.207-.048-.121-.121-.085-.151-.019-.153,0a6,6,0,0,0-.723.064,3.063,3.063,0,0,1-.725.021l-.324.085-.235.243-.068.17.036.173.121.17a.636.636,0,0,1,.267.492l.048.36.043.349q.031.531.062,1.042c.018.343.036.686.057,1.031m-16.081,5.406-.025-.188-.037-.158a2.078,2.078,0,0,1-.132-.646c-.011-.217-.021-.435-.03-.654l-.023-.5-.078-.471a1.783,1.783,0,0,1-.034-.631q.041-.316.089-.626l.03-.107.032-.107.123-.541.194-.556.292-.452.34-.45.089-.117.094-.092.164-.119.167-.1.543-.268a1.72,1.72,0,0,1,.611-.094l.44.017.427.051a1.264,1.264,0,0,1,.8.482l.292.428.292.428.13.245.1.239c.084.249.157.494.221.735s.135.482.219.722a2.741,2.741,0,0,1,.141,1.161l-.011.254.032.23a2.494,2.494,0,0,1,.052.727q-.024.371-.048.748l-.059.456-.1.45a3.753,3.753,0,0,1-1.268,2.077l-.253.181-.262.124a3.26,3.26,0,0,1-.721.175,2.258,2.258,0,0,1-.719-.026l-.566-.173-.445-.4-.308-.482-.308-.5-.2-.381-.135-.317-.082-.335Zm7.248-2.84-.1-.754a6.363,6.363,0,0,0-.306-.876c-.125-.286-.251-.562-.379-.833a5.533,5.533,0,0,0-.356-.631c-.125-.194-.258-.386-.395-.58l-.258-.292-.283-.258-.308-.217-.333-.183-.335-.132-.5-.128-.557-.053-.547.011-.461.045-.139.028-.153.045-.582.2-.593.234-.233.1-.23.132a2.2,2.2,0,0,0-.611.433l-.525.513a2.736,2.736,0,0,0-.6.8c-.141.292-.287.586-.436.884-.068.311-.141.618-.214.925a4.343,4.343,0,0,0-.119.948c.009.217.021.437.036.658a2.916,2.916,0,0,1-.036.673l.014.213c.043.249.087.5.13.739a2.1,2.1,0,0,0,.26.7l.2.447a4.242,4.242,0,0,0,.436.886,5.826,5.826,0,0,0,.618.778,4.9,4.9,0,0,0,.746.607,2.237,2.237,0,0,0,.919.345l.064.021.062.023a4.04,4.04,0,0,0,.735.132,3.485,3.485,0,0,0,.771-.021l.538-.087.532-.128a2.588,2.588,0,0,0,.757-.3l.575-.369.6-.341.235-.149.214-.2.363-.375.176-.2.119-.232c.039-.092.1-.245.194-.454l.018-.032.018-.032a2.37,2.37,0,0,0,.242-.609,2.694,2.694,0,0,0,.073-.631q0-.329-.007-.665a5.474,5.474,0,0,1,.021-.669l.009-.554Zm-11.014-1.579.271.1.283-.075a.507.507,0,0,0,.258-.539l-.132-.678a.676.676,0,0,0-.4-.582l-.235-.075-.237,0-.4.1-.39.066a6.243,6.243,0,0,0-1.282.364l-.57.194-.591.083-.319.077a4.112,4.112,0,0,1-.906.273c-.3.053-.614.1-.933.124-.278.028-.559.051-.837.07a2.519,2.519,0,0,0-.814.194l-.185.03-.155.021-.484.1-.479.107-.47.315-.08.222c.034.271.078.537.135.8s.119.522.192.784l.219.194h.358l.319-.192.05-.1.016-.1-.043-.309-.059-.3.055-.143.121-.117c.3-.081.6-.158.906-.23s.611-.151.919-.234l.087-.021.363.217.16.467.162.482.08.249.023.277.046.3.057.3a5.152,5.152,0,0,0,.228.893,5.1,5.1,0,0,1,.228.893c.05.258.1.509.162.754a3.94,3.94,0,0,0,.249.722,1.888,1.888,0,0,1,.116.522c.084.422.164.84.244,1.249s.157.829.23,1.253l-.007.075-.009.075-.039.147-.123.109a5.124,5.124,0,0,0-.632.194l-.164.243.066.309.249.136.29-.028.271-.049c.463-.13.922-.251,1.38-.367a8.409,8.409,0,0,1,1.408-.228l.447-.209.162-.183.162-.183.034-.254-.212-.181-.324-.023-.31.117-.212.081-.212-.066-.123-.245c-.05-.209-.1-.415-.137-.618s-.082-.4-.132-.605c-.089-.354-.176-.712-.256-1.072s-.169-.729-.262-1.1c-.128-.558-.256-1.117-.381-1.679s-.253-1.123-.381-1.681c-.043-.211-.078-.418-.107-.618s-.059-.407-.091-.62l-.025-.175v-.2l.242-.39.256-.126.262-.1c.308-.083.614-.158.915-.226s.607-.136.915-.211l.363.217.1.322Zm-10.026,1.579-.1-.509-.114-.226-.208-.16H101.2l-.157.09-.121.2-.116.209-.194.1-.228-.009-.237-.036a3.839,3.839,0,0,0-.874-.068,7.828,7.828,0,0,0-.89.079,5.119,5.119,0,0,0-1.2.339,3.423,3.423,0,0,0-1.052.705l-.367.445a1.514,1.514,0,0,0-.212.537,4.028,4.028,0,0,0-.071,1.038,4.685,4.685,0,0,0,.18,1.006l.137.3.205.268.13.119.135.134a3.526,3.526,0,0,0,.8.6,3.042,3.042,0,0,0,.958.33q.524.118,1.04.224a10.55,10.55,0,0,0,1.061.16l.486.107.454.185.2.1.212.1.424.373a2.521,2.521,0,0,1,.344,1.928,1.2,1.2,0,0,1-.319.571,2.019,2.019,0,0,1-.543.364l-.29.107-.315.07-.3.036-.315-.015c-.34-.072-.666-.16-.981-.26a2.351,2.351,0,0,1-.862-.507,1.918,1.918,0,0,0-.73-.371l-.235.043-.167.158-.039.066-.009.075a4.631,4.631,0,0,0-.055,1.006,7.843,7.843,0,0,0,.11.993l.1.194a.349.349,0,0,0,.447.179.879.879,0,0,0,.433-.2.681.681,0,0,0,.128-.415l0-.251-.009-.266.059-.087.116-.028.21.064a4.445,4.445,0,0,0,2.772.307l.109-.019.107-.034a5.534,5.534,0,0,0,.8-.407,3.416,3.416,0,0,0,.707-.571l.276-.335.16-.379.123-.362.2-.541-.057-.552-.057-.275a2.143,2.143,0,0,0-.173-.594l-.281-.533-.351-.486-.39-.469-.089-.066-.089-.064a3.6,3.6,0,0,0-1-.573c-.363-.139-.723-.286-1.077-.439l-.112-.023-.112-.023-.386-.058-.372-.077c-.253-.045-.5-.092-.751-.141a3.049,3.049,0,0,1-.712-.239l-.128-.07-.1-.1a2.145,2.145,0,0,1-.395-.707,2.631,2.631,0,0,1-.1-.793,1,1,0,0,1,.536-.884l.573-.256a3.525,3.525,0,0,1,.8-.13c.267-.013.532-.013.8,0l.36.128.447.326.386.4.24.175.306-.032.251-.264.03-.187.016-.185-.05-.328Zm-10.539,7.138.135.209.1.158.107.1.144.032a.43.43,0,0,0,.516-.343,1.662,1.662,0,0,0,.064-.588l-.048-.413-.032-.4-.018-.183L92.2,216q-.164-.511-.648-.232l-.187.141-.208.377-.242.356q-.411.16-.821.288c-.271.083-.547.166-.828.245l-.39.1-.212-.032-.116-.153-.135-.288-.036-.222c-.039-.394-.089-.786-.153-1.176s-.125-.778-.194-1.166l-.039-.352.057-.2.185-.113.347-.1.073-.017a7.345,7.345,0,0,0,1.517-.418,5.328,5.328,0,0,1,.865-.256c.294-.06.591-.117.894-.175l.151,0,.1.066.068.087-.009.482.125.456a.383.383,0,0,0,.63.134l.167-.094.162-.107.167-.175.039-.215c-.046-.26-.1-.511-.155-.759s-.119-.5-.183-.75l-.027-.066-.29-.2-.192,0-.2.045-.445.141-.463.13q-1.735.38-3.415.92a8.22,8.22,0,0,1-1.218.311,4.74,4.74,0,0,0-.8.19c-.258.085-.52.177-.787.273l-.205.3-.007.217c.059.283.26.422.6.413a.321.321,0,0,1,.381.277,5.272,5.272,0,0,0,.271,1.221l.073.279.043.3c.107.552.205,1.1.3,1.639a15.683,15.683,0,0,0,.372,1.609l.073.43.062.52.162.5a6.263,6.263,0,0,1,.226.648,2.983,2.983,0,0,1,.112.688l-.224.379-.217.1-.219.1-.171.1-.173.094-.109.153v.175l.027.079.068.13.068.128.262.209.347-.011.513-.185.536-.147.189-.047.183-.077a10.544,10.544,0,0,1,1.141-.409q.578-.169,1.186-.33.78-.214,1.56-.394c.52-.117,1.04-.239,1.565-.364l.381-.119.354-.185.242-.441c-.032-.243-.068-.486-.112-.731s-.084-.488-.125-.727l-.039-.136-.123-.138-.18-.038-.2.049-.178.062-.322.328-.1.33v.339l-.041.29-.256.192-.146.068-.151.055c-.251.072-.5.145-.751.213s-.506.134-.771.192l-.566.139-.557.194-.331.109-.351.068-.141-.026-.094-.109-.027-.066-.027-.066-.123-.541-.183-.528-.112-.386-.1-.4-.13-.533-.176-.524-.078-.328-.034-.322.027-.1.075-.1.356-.136.315-.062.292-.1a3.251,3.251,0,0,1,.691-.209c.235-.04.479-.094.73-.16m-13.076.264,0-.043.032.023Zm7.234,5.163-.041-.518L85.4,222.4l-.036-.087-.189-.335-.274-.241-.376-.006-.192.139-.1.2-.068.5-.068.482a.5.5,0,0,1-.415.452l-.18.066-.185.038-1.49.341c-.49.113-.988.226-1.487.339l-.148.019c-.258.034-.422.019-.493-.047a.674.674,0,0,1-.141-.392l-.014-.19.016-.177a3.688,3.688,0,0,0-.066-1.159c-.084-.371-.155-.746-.214-1.125a2.126,2.126,0,0,1-.144-.7,4.384,4.384,0,0,1,.034-.727l.011-.439-.109-.439-.046-.2-.03-.215a3.149,3.149,0,0,1-.014-.654c.018-.215.03-.43.032-.65,0-.3-.011-.6-.023-.895s-.021-.592-.025-.895l.235-.286.381-.1.363-.153.162-.247-.155-.249-.3-.072-.285-.077a2.212,2.212,0,0,0-1.1-.038l-.317.064-.317.077c-.226.049-.456.1-.691.164s-.472.109-.707.151l-.379.247-.155.43.123.224.246.1h.2l.2-.026.123.068.073.147.018.06.007.077a3.02,3.02,0,0,0,.025.825,3.543,3.543,0,0,1,.041.822l.011.147.041.143a3.7,3.7,0,0,1,.121.8c.011.273.011.545,0,.82,0,.247,0,.488.009.729a5.489,5.489,0,0,0,.071.7,7.279,7.279,0,0,0,.151.886c.066.292.121.588.164.882s.073.556.094.837.05.569.082.865l-.055.177-.164.094-.317.077-.315.079-.253.224-.078.356.08.166.151.1.157.015.171-.015c.415-.075.833-.139,1.252-.2a7.225,7.225,0,0,0,1.246-.277l.317-.07.319-.043c.415-.075.821-.141,1.223-.2s.808-.119,1.223-.183l.235-.047.251-.075a6.816,6.816,0,0,1,.737-.17,3.494,3.494,0,0,1,.746-.043l.319-.034.315-.092.322-.2.116-.349-.018-.337-.034-.335Zm-14.306,1.617-.217.045-.187.03-.386.213-.205.366v.092l.075.09.258.139.481.058.465.1.246-.081.246-.079.187-.051.187-.008.6.006.6-.034c.3.026.431-.126.4-.452a.386.386,0,0,0-.365-.388l-.189-.013-.187-.013-.183-.179-.021-.428-.094-.411-.025-.175,0-.175-.025-2.031-.027-.435-.027-.42,0-.349c0-.337-.007-.675,0-1.016s0-.682.009-1.029.011-.673.016-1.014a5.858,5.858,0,0,1,.107-1l.021-.224.066-.2.214-.094.278-.011.135-.043.208-.2,0-.337-.221-.341-.383-.032a4.411,4.411,0,0,1-1.706.188,5.624,5.624,0,0,0-.675-.034.435.435,0,0,0-.5.411l.032.209.151.138.151.04.151.041.212.181.055.209.025.209.03.554v.554c-.016.354-.032.71-.046,1.063s-.027.71-.032,1.065l0,.511.043.524.034.322-.009.309c-.018.243-.025.482-.023.714a4.507,4.507,0,0,0,.068.7l.018.239.018.251.007.526.023.524,0,.315Zm-3.226-8.828.2-.117.187-.119.317-.379-.036-.273-.214-.151c-.374-.038-.748-.081-1.118-.128s-.741-.085-1.118-.115a.784.784,0,0,0-.862.439l-.084.2-.146.286-.132.288c-.144.277-.281.55-.413.818s-.256.541-.367.814l-.141.288-.183.277a3.17,3.17,0,0,0-.42.624,7.135,7.135,0,0,0-.308.69,9.757,9.757,0,0,1-.42,1q-.236.489-.5.965l-.057.023-.068.008-.052-.055-.043-.145-.041-.145c-.027-.281-.064-.558-.112-.831a4.754,4.754,0,0,0-.217-.812l-.078-.36-.075-.375c-.1-.46-.187-.923-.246-1.383s-.132-.92-.219-1.379q-.092-.607-.178-1.2c-.057-.394-.1-.79-.135-1.189l-.109-.288-.237-.2-.36-.13q-.613-.141-1.2-.268t-1.186-.249l-.3-.019-.342.232-.016.241.1.2.169.158.185.16.125.326c-.023.273-.041.543-.052.814a3.7,3.7,0,0,0,.052.82l-.009.185-.021.181c-.048.392-.094.784-.141,1.176s-.1.782-.155,1.172c-.032.271-.075.537-.125.8a6.622,6.622,0,0,0-.109.788c-.043.354-.078.7-.1,1.046s-.055.684-.084,1.023l-.055.326-.125.3-.089.117-.128.068-.536.141-.538.168-.073.115.027.149.171.143.2.162a1.211,1.211,0,0,0,.776.275l.511.053.484.034.178.03.151,0,.214-.036.167-.145-.11-.467-.224-.324-.007-.369.064-.352.066-.367q.154-.786.269-1.558a8.842,8.842,0,0,0,.091-1.581l0-.107v-.124c.05-.42.1-.833.151-1.244s.107-.825.178-1.24l.1-.307.1-.3.048-.032.071.03.1.192.055.228q.133.642.276,1.274c.094.422.187.842.276,1.261.094.381.173.767.237,1.153s.132.771.205,1.159c.041.249.082.5.123.744s.089.49.151.733.109.475.171.71.123.469.185.712l.05.138.05.139.214.217.388.087.383,0,.1-.136.114-.134a1.565,1.565,0,0,0,.452-.524,4.494,4.494,0,0,0,.271-.633,8.927,8.927,0,0,1,.463-1.168,8.41,8.41,0,0,1,.632-1.089l.251-.392.18-.437c.073-.194.141-.388.2-.582a1.066,1.066,0,0,1,.344-.494l.023-.068.039-.064.433-.987.235-.454.29-.413.043-.055.059-.053.03-.006.032-.009.1.136.011.354-.05.354a4.526,4.526,0,0,1-.025.827l-.1.812c-.048.392-.1.782-.148,1.168s-.1.773-.162,1.163c-.046.307-.091.609-.132.912s-.084.607-.13.912l-.048.207-.048.219-.027.215-.041.215-.011.226-.1.224-.164.009-.182.019-.233.111-.164.181-.016.4.315.251.274.034.26.017.237.028.235.04a4.645,4.645,0,0,0,.837.151,4.676,4.676,0,0,1,.837.149l.306-.181-.064-.343-.324-.237-.367-.134-.155-.132v-.185a.972.972,0,0,0,.109-.552,3.586,3.586,0,0,1-.018-.714c.016-.23.046-.465.084-.705.055-.3.1-.586.125-.871s.052-.58.068-.882c.016-.207.036-.413.066-.616a3.685,3.685,0,0,1,.141-.6c.057-.237.1-.475.146-.716s.078-.482.116-.722c.062-.349.13-.7.208-1.046s.155-.69.235-1.027" transform="translate(-26.309 -174.133)" fill="#1a1311"/>
      </g>
    </g>
    <g id="Group_766" data-name="Group 766" transform="matrix(0.995, 0.105, -0.105, 0.995, -398.375, -75.559)">
      <path id="Path_2634" data-name="Path 2634" d="M547.079,385.032s-3.192-1.34-3.255-3.446a14.343,14.343,0,0,1,.83-6.448c1.021-2.809,3.318-9.063,3.318-9.063l.831-4.6s2.616-6.382,2.806-6.7,2.874-3.446,3.511-4.277,2.874-5.489,2.874-5.489l2.934-7.4.893-3.255s-.063-2.171.7-2.49a4.806,4.806,0,0,1,4.6-.191l.638.254,2.427-4.212.828.191.065.766-2.234,4.214s.894,1.34.637,1.978-.319.766-.319.766,0,1.852-.7,2.234l-1.724,6.829-.828,5.3-.065,2.552.256,2.936-.063,1.149v3.383a8.337,8.337,0,0,1,0,1.787c-.128.319-.512,1.85-.512,1.85l-1.787,5.873-2.49,8.807-3.253,7.4Z" transform="translate(0.158 0.213)" fill="#fff3d8"/>
      <path id="Path_2635" data-name="Path 2635" d="M553.809,331.425v0Z" transform="translate(12.641 4.828)" fill="#1a1311"/>
      <path id="Path_2636" data-name="Path 2636" d="M549.794,339.605l-.1.341-.415.049-.22.146c.074.049.294.292.537.171s.487-.537.39-.757-.2-.047-.2.049" transform="translate(6.731 14.819)" fill="#1a1311"/>
      <path id="Path_2637" data-name="Path 2637" d="M548.512,350.97c.074.213.238.391.44.285a.415.415,0,0,0,.256-.5.339.339,0,0,0-.458-.267.355.355,0,0,0-.238.48" transform="translate(6.013 28.535)" fill="#1a1311"/>
      <path id="Path_2638" data-name="Path 2638" d="M552.377,337.169l-.312.274.2.33.22.054.31-.164.018-.458Z" transform="translate(10.47 11.98)" fill="#1a1311"/>
      <path id="Path_2639" data-name="Path 2639" d="M552.69,336.615l-.22.036-.274.33.018.292.184.092.4-.074.036-.328Z" transform="translate(10.633 11.29)" fill="#1a1311"/>
      <path id="Path_2640" data-name="Path 2640" d="M552.265,336.708h.128l.079-.07.085.361.384-.072.056-.166-.056-.2-.128-.056-.164-.054-.078-.038-.049-.072-.164-.11-.2.2Z" transform="translate(10.582 10.813)" fill="#1a1311"/>
      <path id="Path_2641" data-name="Path 2641" d="M552.2,336.469l.31.256.476-.33-.036-.31-.11-.256-.182-.11-.458.164Z" transform="translate(10.633 10.174)" fill="#1a1311"/>
      <path id="Path_2642" data-name="Path 2642" d="M552.319,337.788l.128-.33v-.218l-.137-.121.1-.117.09-.4-.42.056-.146.128.292.292-.292.238.036.366Z" transform="translate(10.308 11.269)" fill="#1a1311"/>
      <path id="Path_2643" data-name="Path 2643" d="M550.485,341.884l.245.267.2-.218-.269-.22Z" transform="translate(8.503 17.637)" fill="#1a1311"/>
      <path id="Path_2644" data-name="Path 2644" d="M552.393,342.9l.245.267.2-.218-.269-.22Z" transform="translate(10.878 18.907)" fill="#1a1311"/>
      <path id="Path_2645" data-name="Path 2645" d="M550.319,341.919l-.171.171.245.269.2-.22Z" transform="translate(8.083 17.893)" fill="#1a1311"/>
      <path id="Path_2646" data-name="Path 2646" d="M550.816,341.577l.016,0-.137.319c.242.269.536.128.438-.267l-.227-.072.106-.2-.269-.22-.171.173Z" transform="translate(8.61 16.919)" fill="#1a1311"/>
      <path id="Path_2647" data-name="Path 2647" d="M552.908,342.543l.016,0-.137.319c.242.269.536.128.438-.267l-.227-.072.106-.2-.269-.22-.171.173Z" transform="translate(11.214 18.122)" fill="#1a1311"/>
      <path id="Path_2648" data-name="Path 2648" d="M551.025,340.17l-.171.171.245.27.193-.22Z" transform="translate(8.963 15.716)" fill="#1a1311"/>
      <path id="Path_2649" data-name="Path 2649" d="M551.286,338.975l-.171.171.245.269.193-.22Z" transform="translate(9.287 14.228)" fill="#1a1311"/>
      <path id="Path_2650" data-name="Path 2650" d="M551.076,340.524l-.292-.049-.146.171.364.2Z" transform="translate(8.693 16.095)" fill="#1a1311"/>
      <path id="Path_2651" data-name="Path 2651" d="M550.913,340.3c.341.171.366-.007.366-.292,0-.22-.341-.22-.487-.171s-.22.292.121.462" transform="translate(8.732 15.269)" fill="#1a1311"/>
      <path id="Path_2652" data-name="Path 2652" d="M552.38,343.6c.341.171.366-.007.366-.292,0-.22-.341-.22-.487-.171s-.22.292.121.462" transform="translate(10.559 19.371)" fill="#1a1311"/>
      <path id="Path_2653" data-name="Path 2653" d="M550.773,341.653a.281.281,0,0,0-.512,0c-.045.112.1.561.341.44s.292-.245.17-.44" transform="translate(8.214 17.355)" fill="#1a1311"/>
      <path id="Path_2654" data-name="Path 2654" d="M553.757,337.378l.049-.267-.317-.123-.148.366Z" transform="translate(12.059 11.753)" fill="#1a1311"/>
      <path id="Path_2655" data-name="Path 2655" d="M553.017,330.524l-.11.121.159.2.206-.207Z" transform="translate(11.518 3.706)" fill="#1a1311"/>
      <path id="Path_2656" data-name="Path 2656" d="M553.29,330.5l-.121.292.341.013.036-.231Z" transform="translate(11.844 3.679)" fill="#1a1311"/>
      <path id="Path_2657" data-name="Path 2657" d="M553.255,329.889l.384.018.018-.256-.4-.018Z" transform="translate(11.952 2.597)" fill="#1a1311"/>
      <path id="Path_2658" data-name="Path 2658" d="M549.134,350c.308.083.53-.083.53-.308s-.279-.557-.5-.278c-.2.249-.335.5-.027.586" transform="translate(6.596 27.09)" fill="#1a1311"/>
      <path id="Path_2659" data-name="Path 2659" d="M548.946,349.563l.056-.222-.391.139.166.222Z" transform="translate(6.17 27.133)" fill="#1a1311"/>
      <path id="Path_2660" data-name="Path 2660" d="M549.216,350.09l-.224-.364-.305.168.139.364c.166.083.292.175.391-.168" transform="translate(6.263 27.613)" fill="#1a1311"/>
      <path id="Path_2661" data-name="Path 2661" d="M546.083,349.334c-.074-.245-.442-.025-.465.171l.22.146c.123.025.339,0,.245-.317" transform="translate(2.443 26.99)" fill="#1a1311"/>
      <path id="Path_2662" data-name="Path 2662" d="M545.89,348.9l.292-.074-.022-.193-.269.047Z" transform="translate(2.781 26.253)" fill="#1a1311"/>
      <path id="Path_2663" data-name="Path 2663" d="M546.082,349.725l-.22-.049-.146.2.049.146a.4.4,0,0,0,.317-.292" transform="translate(2.565 27.55)" fill="#1a1311"/>
      <path id="Path_2664" data-name="Path 2664" d="M546,350.814l.269-.171-.074-.292-.269-.1-.074.036,0-.061c0-.218-.121-.391-.22-.341-.231.117-.245.292-.22.366l.294.2.1-.025-.031.146Z" transform="translate(2.181 27.802)" fill="#1a1311"/>
      <path id="Path_2665" data-name="Path 2665" d="M549.565,348.638l0,.023,0-.018,0,0Z" transform="translate(7.357 26.258)" fill="#1a1311"/>
      <path id="Path_2666" data-name="Path 2666" d="M549.5,339.184l.256.2.128-.22Z" transform="translate(7.275 14.465)" fill="#1a1311"/>
      <path id="Path_2667" data-name="Path 2667" d="M552.61,332.08l.366-.146.146-.294c0-.146-.22-.182-.512,0s0,.44,0,.44" transform="translate(10.987 4.943)" fill="#1a1311"/>
      <path id="Path_2668" data-name="Path 2668" d="M550.229,351.722c-.22,0-.256-.256-.22-.4v-.11c.11-.22.44.074.478.256s-.038.256-.258.256m3.713,1.794-.018-.6-.292-.586a3.375,3.375,0,0,1-.281-.44,1.446,1.446,0,0,1-.689-.108,1.153,1.153,0,0,1-.566-.766c-.081-.269-.049-.292-.361-.375l-.119-.025.013.3-.02-.3a5.4,5.4,0,0,0-.687-.065.719.719,0,0,1-.57-.314l-.052-.016-.328-.072-.126-.07-.02-.058-.4-.11-.2.31.31.294.218-.231-.106.231-.222.364-.07.148-.222.366.292.988-.256.072-.328.074.218.182.66.184.036.146h.512l.366.146.146.184.146.328.184.146.366-.548.366.292h.182l-.146-.584v-.7l.074-.11.2-.694.292.242.074.586.112,1.136-.112.108-.146,1.122-.049.146.341.779s.047,1.8.242,1.513.927-3.123.927-3.123l.1-.218h.023l0-.1Z" transform="translate(6.453 27.845)" fill="#1a1311"/>
      <path id="Path_2669" data-name="Path 2669" d="M568.874,332.524l-.148.146,0,.016a5.039,5.039,0,0,0-.691-.456c.092-.061,1.673-3.125,2.182-4.117l.085-.016a.875.875,0,0,1,.716.584Zm.249,1.742-.106.341-.474-.763-.157-.29.236-.025c.211.079.447.552.5.736m-.323,3.013-.267.451-.135.11-.025.074-.294.245a7.836,7.836,0,0,1,.171-1.062c.074-.22.476-.44.586-.842a4.715,4.715,0,0,1,.294-.768,4.157,4.157,0,0,1-.33,1.791M562.081,354.2l-.292.049c-.171-.074-.2-.415.049-.415s.316.294.242.366m-.536,3.172c-.1.022-.37-.079-.317-.294l.487-.121Zm-.341-1.928-.44.22-.171-.438c.123-.2.685-.123.611.218m-.391,2.294a.3.3,0,0,1-.537.072.335.335,0,0,1,.22-.537c.242,0,.341.292.316.465m-.732,3.778-.072-.366.341.2Zm-.341-1.1a.327.327,0,0,1,.269-.489.308.308,0,0,1,.292.366c-.045.115-.44.366-.561.123m-.2,1.991c-.094.184-.2.33-.427.254a.515.515,0,0,1-.2-.858l.552.085,0,0,.02.031Zm-1.136-.53-.265-.319-.013-.274.341-.368.29.1a.543.543,0,0,1,.061.7Zm-.586-.4.112-.076.025.106Zm9.593-28.821-.218-.611a2.973,2.973,0,0,1,.766.5Zm-.878-.366,0,.011-.2-.029-.128.09c0,.056,0,.184.22.184l.07,0-.034.115-.31.031v-.031l-.11-.22-.422.074.02.218h-.056a1.611,1.611,0,0,1-.586-.218l-.11-.878-.018-.009a2.505,2.505,0,0,1,.824.009,4.245,4.245,0,0,1,1.354.328c-.22.074-.512.184-.512.33m-2.232.512c-.074.11-.55.22-.77.292s-.182-.036-.182-.036l-.22-.22.11-.218c.146-.074.559-.339.806-.258Zm-1.318,1.646-.148-.227.112.081.256.166Zm-.256-.584-.027.155-.525.1.04-.04a2.358,2.358,0,0,1-.094-1.015l.532-.009.074.33Zm3.291,2.3c.593.031.31.063.3.072l-.155-.036-.168-.036Zm.294-.22.009.123-.3-.227Zm-6.695,9.33c.22-.55.694-1.5.694-1.5h.305l-.1.2s-.211.537-.44,1.131l-.121-.157-.146.171.206.144c-.231.606-.465,1.228-.5,1.369l-.047.137-.269-.04-.1.292.184.189c-.249.577-.626,1.405-.777,1.827l-.1-.137-.22.036-.047.029c.085-.211.249-.624.44-1.1l.058.2.366-.269-.047-.317-.24.036.5-1.25.032.043c.171.2.2.052.341-.242l-.213-.2c.11-.272.2-.485.238-.593m-7.078,14.853c.164-.128.328-.074.328.146l-.238.128Zm.328-2.452c.128-.11.312-.11.256.146l-.164.054Zm.409,1.244.366.146-.049.611-.438-.148Zm.489-1.634a.312.312,0,0,1,.341.316l-.391.2c-.2-.146-.22-.512.049-.512m.487-1.123.2.44-.49-.049Zm.292-.779c.025-.245.171-.391.269-.391l.2.171s.121.22-.1.292-.391.171-.366-.072m-9.487,25.925.512-.11.55.256v.476a2.579,2.579,0,0,0,.512,1.024l.768.8s-1.28-.584-1.609-.8a1.851,1.851,0,0,1-.732-.878c-.292-.55,0-.768,0-.768m6.955-.873a9.023,9.023,0,0,1,2.16.579,16.168,16.168,0,0,1,2.53,1.369,5.27,5.27,0,0,1,1.529,2.108c.105.633.052.947-.159,1.053s-.317.265-.317.106.054-.106-.211-.736a4.206,4.206,0,0,0-1.21-1.951,18.436,18.436,0,0,0-3.266-1.9c-.581-.263-1.372-.525-1.055-.631m1.724-.281.078.034-.586.022-.537-.049-.137-.4c.4.13,1.006.323,1.181.388m.963.465-.2-.018-.364-.1-.249-.285c.254.112.642.31.817.4m16.954-52.284-.182-.256a1.246,1.246,0,0,0-.916-.55,1.013,1.013,0,0,0-.476.184l-.182.44.047-.009-2.274,3.781a4.848,4.848,0,0,0-1.286-.516,5.8,5.8,0,0,0-2,0l-.188-.036c-.11.038-.44.148-.916.294a2.679,2.679,0,0,0-1.06.586l-.166.319a1.2,1.2,0,0,0-.236.559c-.038.256-.038,1.134-.038,1.134l.07.027a1.16,1.16,0,0,0-.105.411l-.009.137-.065-.283-.146,1.172s-1.1,3.365-1.28,3.841-1.39,3.706-1.39,3.706l.045.02c-.6,1.239-2.541,5.267-2.791,5.637-.292.44-2.3,3.147-2.815,3.731a13.713,13.713,0,0,0-2.232,3.257c-.514,1.188-1.677,4.014-1.953,4.683l-.065-.121-.112.193.081.146-.036.294c-.123.247-.328.844-.539,1.327A7.664,7.664,0,0,1,548,364.9c.323,1.441-.772,2.883-1.349,4.2l.018.011c-.133.42-.308.972-.5,1.587a10.645,10.645,0,0,1-.595,1.9c-.615,1.976-1.19,3.857-1.1,3.716.139-.222,1-2.6,1.405-3.711l.119.489-.025.66-.184.33-.328.184v1.39h-.294l-.22-.074-.072,1.024-.146.22-.038.66s-.292-.33-.474-.55-.074.366-.074.366l.22.55v.438c0,.33-.074.4-.074.4l-.11.256a4,4,0,0,0,.11.66c.063.317.182.2.211.155l-.431.577c-.1.139-.112.013-.332-.063l.274,2.236a11.021,11.021,0,0,0,.595,1,13.239,13.239,0,0,0,5.28,2.786,15.423,15.423,0,0,0,7.61,0,1.666,1.666,0,0,0,1.426-1.94c-.11-.548-.366-.586-.4-.842a.928.928,0,0,0-.292-.476l-.512-.512-.9-.817-.074-.171.025-.341-.9-.072-.123-.22-.364-.22-.258-.018-.018-.056-.272-.274a10.619,10.619,0,0,0-1.075-.445l.067-.092v-.42c-.018-.036-.074-.146-.366,0l-.135.361-.889-.3-.348-.119v-.171l-.269-1.048-.056-.215-.377-.072-.2.139c-.159.04-.3.887-.35,1.188-.22-.025-1.179-.13-1.69-.13a1.417,1.417,0,0,0-.714.1l.341.1a7.855,7.855,0,0,1,1.634.238l.258.126.034.18v.245l-.1.22-1.852-.171-.148-.1-.584-.242.072-.44-.682-.366-.22-.049-.485-.04a2.659,2.659,0,0,0,.8-.081l-.2-1.1c-.02-.1.164-.26.274-.521l.164.13.269-.171.025-.242-.245-.049-.132.043.054-.465.078.007.245-.146-.22-.22h-.121l.146-.171.114-.146.348.1.22-.124-.074-.462-.292-.074-.009,0,.009-.148.074-.224a1.144,1.144,0,0,1-.179-.6l-.038-.018-.052.011-.267.536-.2.146-.611,1.731a.389.389,0,0,1-.22.391c-.267.171-.22.292-.243.44s.1-.049-.148.438-.388.487-.242.635l.141.236-.045-.018-.292.148-.171.462-.611.049-.072-.294.1-.267.316-.025.124-.977.413-.047.074-.855.171-.317.269-1.1.146-.2.366-.022.146-.561.146-.1.171-.292-.049-.2-.171-.074-.584-.267-.013-.031a3.394,3.394,0,0,0,1.322.37l-.458-.3a2.3,2.3,0,0,1-.844-.334l.294-.914a3.585,3.585,0,0,1,.211-1.228c.31-.938.673-1.859.959-2.8l.114-.453c-.074.189-.321.819-.62,1.592a5.58,5.58,0,0,0-.79,1.922l-.011.142c-.209.536-.393,1.017-.521,1.356l-.121-.22a1.774,1.774,0,0,1-.049-.851c.083-.189,2.38-6.037,2.1-6.277l-.063-.242q.619-.778,1.253-1.545l-.063.141a2.337,2.337,0,0,1,.712-.557l.514-.929.038-.009.146.09.231.119.584.2a2.991,2.991,0,0,0,.633.067l.516-.038-.231-.373a1.442,1.442,0,0,1-.043-.727l-.083-.065c-.128-.128-.256-.292.056-.42l.211-.022a3.432,3.432,0,0,1,.961-1.066l.072-.047,0-.1.153-.393a5.252,5.252,0,0,1,.189-.95c.123-.435.287-.936.449-1.412l.454-.222c0-.265-.119-.344-.26-.332.081-.231.157-.442.222-.624l.209.1.465-.22c0-.453-.352-.364-.557-.209l.081-.229a4.374,4.374,0,0,1,.476-.842s.036-.8.292-.914.586-.294.586-.294l.1-.379.178.014.184-.2-.238-.22-.043-.011,0-.081.135-.887v.5l.362.159-.112.067.056.274.384-.182-.038-.088,1.715.258s1.484.1,2.079.133l-.007.013.245.267.2-.218-.054-.15.029-.045-.025-.319-.121.148s-1.439-.049-2-.049a19.07,19.07,0,0,1-2.22-.341l-.366-.22-.115-.245.007-.022-.009-.007,0-.043v.043a1.16,1.16,0,0,0-.866.007c-.584.182-1.354.438-1.354.438a29.8,29.8,0,0,0-2.193,3.365,39.18,39.18,0,0,0-1.94,4.647,5.512,5.512,0,0,1-.366,1.1c-1.756,4.755-.476-.074-.476-.074l-.182-.22-.141.236.054-.213.088-.022.146-.256a61.282,61.282,0,0,1,2.487-5.633,32.227,32.227,0,0,1,2.2-3.147,17.484,17.484,0,0,0,1.756-2.122,32.76,32.76,0,0,0,1.574-3c.505-1.129,1.286-2.909,1.6-3.538l.007,0,.018-.054.092-.177-.018-.025.027-.072-.009.1.146.4s-1.282,3.073-1.574,3.731-1.389,2.854-1.389,2.854l-.476.512-.366.476.732.036s.476.184.7-.036a6.849,6.849,0,0,0,.622-1.354l.292-.366.182-.292.321.22.036.049-.016.047.319.025,2.047.22.611.1.121.011v.11l.487.049.245.245-.025.633.146-.049.269-.707-.22-.413-.463-.245-.123-.438c-.1-.1.512-.22-.171-.22a3.73,3.73,0,0,1-.927-.074l-.146.074.074.341h.1l.732.121.025.512-.121-.025c-.927-.171-2.561-.438-2.561-.438.2,0,.22-.611.366-.927s1.147-2.683,1.147-2.683l.608-1.536.137-.341h.278l.22-.294-.146-.548-.66-.146-.732.11-.613-.431.139-.375s1.61-4.133,1.827-4.9a9.123,9.123,0,0,0,.442-1.675,2.931,2.931,0,0,0,.144.359l-.146.366a13.6,13.6,0,0,1-.366,1.9c-.184.476-1.39,3.951-1.538,4.133l.148.184.4.074h.8l.22.072.11-.33.146-.694.586-2.2c.027-.105.467-1.039.727-1.639l.076.139c.074.256.258.09.258-.074l-.11-.366-.126.065.088-.247a10.243,10.243,0,0,0,.148-1.134c0-.256.768-.11,1.1-.11.229,0,.532.054.927.1l-.377.233a1.856,1.856,0,0,0-.44.584,5.725,5.725,0,0,0-.072,1.282l-.184.438.512-.072-.182.292-.4.036-.22.184s-.184-.256-.256.4a12.382,12.382,0,0,1-.4,1.72s-.33,1.39-.074.842,1.755-3.329,1.755-3.329l1.208-2.231.036-.254-.016,0h.016v-.141l.11-.043.33-1.024.146-.366a.924.924,0,0,1-.33-.146,1.7,1.7,0,0,0-.548-.184l-.4-.072h-.148l-.366.366-.182.146.11.366.072.33.319.218a14.756,14.756,0,0,0-1.634,0c-.256,0-.22,0-.366-.146l.11-.438.292-.11c.146-.038.44-.11.914-.22s-.4-.146-.546-.218l.094-.137-.146-.108-.157.132-.036.067-.065-.007.027-.267-.353.2.038.054-.188-.009-.02-.18.218-.842.512-.256.806-.22,1.318.148.73.548-.072.768.22.22.658-.074.11.514s.11.658-.146.694a2.274,2.274,0,0,1-.732-.11l-.586,1.208a2.116,2.116,0,0,0-.4.952c-.038.438-.074,1.316-.074,1.316h-.328c-.11,0-.476.294-.476.514a9.05,9.05,0,0,1-.146.95l-.4.256-.146.44-.182.366-.294-.11-.476.622-.218.22-.038.438.256.11,1.392-.036.512-.184s.11.33.328.33.806.036.806.036.182-1.646.33-2.377a9.973,9.973,0,0,1,.4-1.72l.694-.586.074-.1.11-.011c.02-.007-.817,3.174-.914,3.585-.106.436-.763,3.4-1.033,4.892l.081-2.443.11-.218.22-.258-.258-.438-.218.074-.33.256-.366-.11-.7-.038-.84.074-.44-.11h-.548l-.22.586h-.146v.952l-.22.146-.586.694c-.11.184-.072.146-.11.476s-.036.806-.036.806a3.463,3.463,0,0,0,0,.878c.074.22.256-.622.256-.622l.22-.988.292-.4.33-.072c.11-.074.11-.146.182-.366a.858.858,0,0,0,.038-.4l.2-.631.108.375.184.11.4-.366.054-.458c-.054-.074-.2,0-.566.092l-.119.056.1-.312,1.28.256.292.072a4.834,4.834,0,0,1-.11.806c-.072.218-.366,0-.8.11s-.146.072-.146.072l.4.55-.292-.038-.476-.146.072.33.038.476.218.182v.256l-.036.366h.294l.328.11-.036.842-.806-.074-.108.4.292.33-.292.184v.584l-.258.074-.146.146-.146.4-.366.512-.4.184-.074.366.33.146.548.036-.036.66.476.218.366.184.146.33.4.146.11-.11.074-.768.11-2.6.182-.33.074-.33.146-2.339.182-.806.33-1.684h.548a5.227,5.227,0,0,1-.182.988c-.11.256-.074.11-.182.11v1.83l-.22.074-.256.146a8.161,8.161,0,0,0,.22,1.134c.108.292.146-.074.256-.4s.256.072.256.072l-.164,1.262-.18-.079-.193.171c-.025.123-.123.269.146.341l.168.018-.034.263h-.11l-.038.768-.218-.072-.294-.11-.182,1.28.146.476.366.294v.512l-.586.072.33.66h.22l.193-.361.014.2.1,1.147.2.1h.052l.173.422.153.687-.62-.036-.4-1.024-.292-.184a3.892,3.892,0,0,0-.074.586c0,.22.258.256.366.768a5.873,5.873,0,0,0,.258.878s.072,1.208.036,1.574-.33-1.134-.33-1.354-.7-1.72-.732-2.158a8.187,8.187,0,0,0-.146-1.354c-.074-.11-.658.146-.878.072s-.036-.622-.036-.622l-.22-.072-.366-.33-.476-.256-.732-.476a4.348,4.348,0,0,1,.294.658c.072.256-.074.294-.184.44s-.11.11-.33.074a1.224,1.224,0,0,0-.548.108s-.1.251-.213.552l-.238-.1-.121.294.222.16c-.123.316-.24.608-.272.669l.146.55-.438,1.17s.034.287.065.505l-.164.02-.141.079-.42-.1-.146.292.292.269.209-.159c.076.15.231.332.352.11l.067-.114a7,7,0,0,1-.225,1.479c-.146.4-.732.842-.916,1.024l-.247.5-.135-.009-.081-.009a1.116,1.116,0,0,1-.94.712l.476.308a4.749,4.749,0,0,1,.916.934l.054.186-.222.256-.3.312.175.121c.184-.218.366-.44.55-.658l.011,0c-.159.191-.388.456-.55.664a8.765,8.765,0,0,1,1.3,1.08l0-.011s.047-.4.047-.694c0-.245.258-.438.492-.516a2.4,2.4,0,0,1,1.408-.878l-.326-.433a8,8,0,0,1-.413-1.5,1.292,1.292,0,0,1-.247-1.392l-.072-.33.328-.33c.061,0,.314.011.537.02l.047.1.155-.014-.169-.083.307.013.162.085a3.592,3.592,0,0,1,1.491.635,15.314,15.314,0,0,0,1.457,1.066c.4.215.806.422,1.2.642l-.031-2.1.074-2.6-.09-.067.144-.314v-.321l-.29-.9-.031-.029-.027-.254a13.255,13.255,0,0,1,.074-1.695l.079-.245.146-.186a.638.638,0,0,1-.321-.8l.128-.4.047-1.41c.088-.64.292-2.09.312-2.164l.121-.635c.17-1.414,2.1-8.78,2.171-8.877l.013-.094.339-.332a3.486,3.486,0,0,0,.22-1.354,6.088,6.088,0,0,1,.081-.707l.249-.061a1.83,1.83,0,0,0,0-1.72,2.523,2.523,0,0,0-.523-.732h.011c.032-.094,1.884-3.5,2.393-4.443l.02-.02.1-.2Z" transform="translate(0.102)" fill="#1a1311"/>
      <path id="Path_2670" data-name="Path 2670" d="M543.7,350.881c0,.22-.146.8.108.878l.034.011-.164-1.329Z" transform="translate(0 28.503)" fill="#1a1311"/>
      <path id="Path_2671" data-name="Path 2671" d="M550.532,342.448l0,0v0Z" transform="translate(8.561 18.552)" fill="#1a1311"/>
      <path id="Path_2672" data-name="Path 2672" d="M550.851,342.914l.02.036-.007.072Z" transform="translate(8.959 19.132)" fill="#1a1311"/>
      <path id="Path_2673" data-name="Path 2673" d="M552.364,347.534a4.616,4.616,0,0,1,.211-1.524c.1-.308.211-.492.081-.8a2.033,2.033,0,0,0-1.457-1.035c-.276-.058-.393.364-.117.424a1.847,1.847,0,0,1,.84.386c.357.3.325.487.231.909a6.66,6.66,0,0,0-.229,1.641.22.22,0,0,0,.44,0" transform="translate(9.05 20.692)" fill="#1a1311"/>
      <path id="Path_2674" data-name="Path 2674" d="M557.174,342.138c-.229,1.264-.5,2.521-.792,3.769-.456,1.906-1.129,3.7-1.744,5.55-.494,1.484-.828,2.993-1.233,4.494-.31,1.149-.748,2.279-1.118,3.41-.426,1.309-.891,2.615-1.257,3.944-.126.454.164,1.017.04,1.464.66-2.4,1.52-4.757,2.3-7.121.411-1.25.626-2.575,1.021-3.839.588-1.872,1.336-3.677,1.821-5.585.391-1.527.723-3.071,1-4.622.085-.474-.126-1-.04-1.464" transform="translate(9.141 18.166)" fill="#1a1311"/>
      <path id="Path_2675" data-name="Path 2675" d="M554,343.239l.007-.011.007-.04-.027-.263-.065-.036-.043-.238-.025.119-.016-.269-.148.02-.33-.1-.045.1-.067-.108-.034.018.034-.018,0-.112-.047.032-.007.155-.025-.009.023.04.029-.031.045.031-.029.072.043.085.121-.081-.02.043.065.191-.063.186-.036.4-.1.391.341.177-.052.038.038.079.038-.112.124-.031.029.162.02-.016.117-.424.1-.429Z" transform="translate(11.842 18.371)" fill="#1a1311"/>
      <path id="Path_2676" data-name="Path 2676" d="M555.248,346.13l.1.022c-.045.287-.1.586-.173.894s-.168.62-.267.938-.213.644-.337.972-.245.662-.386,1c-.536,1.342-1.167,2.732-1.637,4.122l-.326-.193c-.029.406-.083.833-.128,1.257a8.354,8.354,0,0,0-.07,1.233l.148-.251a2.347,2.347,0,0,1-.128,1.363l-.081-.065c.112-.555-.045.025-.229-.269l-.016-.108-.063.04.016.108-.112-.135-.049.124a.77.77,0,0,1-.822.011c.014.085.314.092.133.373l-.081-.067.067.386-.166.115-.007.346.179.09c-.209.541-.179,1.291-.424,1.839.159.162-.15.422-.058.772l.234-.1a1.386,1.386,0,0,0,.339-.732l.108-.471.15-.433.1.047-.013.355.182.081c.364-.04.386-.287.339-.55s-.166-.541-.092-.626l.279.029.081.146c.07.258.211.2.366.054l.478-.42.359-.422.128-.283.115-.314c.139-.429.218-.9.334-1.241-.078-1.291.959-2.64,1.336-3.7.24-.489-.157-1.56.53-1.688l.229-.462.155-.321.07-.146.1.056a7.492,7.492,0,0,0,.37-1.518c.04-.26.081-.521.119-.775s.065-.5.108-.736c.083-.409-.164-.6.184-.7a3.086,3.086,0,0,0,.251-1.289,10.311,10.311,0,0,1,0-1.32l-.263,0c.054.424-.272.846-.539.808l.052-.144-.263.225.056.186-.171.034a5.482,5.482,0,0,1-.669.716.976.976,0,0,1-.227.75" transform="translate(8.288 19.927)" fill="#1a1311"/>
      <path id="Path_2677" data-name="Path 2677" d="M552.907,347.57c.281-1.816,1.242-3.455,1.394-5.3l-.429.045q-.276,1.5-.57,3-.141.731-.29,1.464c-.047.231-.094.462-.141.7-.045.213-.07.494-.285.613l.38,0a4.185,4.185,0,0,1,.24-1.722c.141-.521.308-1.033.474-1.547a20.421,20.421,0,0,0,.806-3.008l-.433.072a22.023,22.023,0,0,1-.882,3.217c-.164.512-.326,1.026-.458,1.549a3.75,3.75,0,0,0-.179,1.509l.382,0c.35-.2.368-.633.44-.988q.161-.8.319-1.6c.216-1.091.422-2.184.626-3.278l-.431.045c-.153,1.841-1.113,3.484-1.394,5.3Z" transform="translate(10.979 17.765)" fill="#1a1311"/>
      <path id="Path_2678" data-name="Path 2678" d="M552.1,345.219l.114-.191-.561-.045.018.085.065-.1.058-.339.391-.5-.274.02.07.013-.375-.189c.153.159.382,1.832.148,1.868l.564.245a1.558,1.558,0,0,1,.559-1.924l-.646-.168a4.169,4.169,0,0,1,.245,1.56l.7.18a7.165,7.165,0,0,0,.016-1c-.031-.213-.141-.29-.341-.361-.474-.168-.761.171-.934.584l.7.177q-.027-1.293-.011-2.591c0-.238-.7-.379-.7-.22q-.013,1.337.013,2.674l.7.18c.076-.184.209-.465.424-.516l-.413-.061.058.029-.213-.173a4.942,4.942,0,0,1,.009,1.062c.231.058.465.119.7.18a4.157,4.157,0,0,0-.294-1.65l-.649-.168a1.691,1.691,0,0,0-.606,2.072l.563.247c.314-.049.406-.229.382-.539-.034-.393-.105-.788-.159-1.179-.04-.312-.114-.514-.433-.617a.5.5,0,0,0-.651.193c-.35.451-.431,1.046.184,1.306l.727.007-.155-.514-.561-.045L551.4,345Z" transform="translate(9.207 18.309)" fill="#1a1311"/>
      <path id="Path_2679" data-name="Path 2679" d="M553.089,345.291a8.4,8.4,0,0,1-.622-2.272,2.111,2.111,0,0,1,.4-1.72l-.7-.175-.862,1.87c-.231.5-.424.92.2,1.149l.48-.049a19.992,19.992,0,0,0,.305-2.505c-.238-.047-.478-.094-.718-.139-.032,1.307-.081,2.629-.007,3.936a5.543,5.543,0,0,0,.359,1.738c.2.505.46,1.125.013,1.578l.678.211a1.262,1.262,0,0,0,.157-1.376,6.84,6.84,0,0,1-.48-1.877c-.1-1.347-.034-2.721,0-4.07.007-.222-.707-.33-.718-.139a20.054,20.054,0,0,1-.305,2.505l.483-.052.072-.33.11-.247c.108-.236.218-.471.328-.709.209-.451.415-.9.624-1.354l-.7-.175a2.192,2.192,0,0,0-.445,1.791,8.475,8.475,0,0,0,.633,2.353Z" transform="translate(9.257 16.858)" fill="#1a1311"/>
      <path id="Path_2680" data-name="Path 2680" d="M552.331,342.545l.076-.209-.141,0,.058.076-.011.076-.051-.186-.146,0,.2.258.141-.047-.054-.189-.141,0-.081.224Z" transform="translate(10.532 18.365)" fill="#1a1311"/>
      <path id="Path_2681" data-name="Path 2681" d="M552.262,341.862l-.088.079,0,.081.036.02,0-.036.016-.067-.141-.029,0,.148.126.056.1-.04.011-.146.034-.034Z" transform="translate(10.498 17.822)" fill="#1a1311"/>
      <path id="Path_2682" data-name="Path 2682" d="M551.635,344.57c.225,0,.775-.074.86-.335.092-.276-.413-.281-.557-.281-.224,0-.774.074-.862.335-.092.276.415.281.559.281" transform="translate(9.225 20.428)" fill="#1a1311"/>
      <path id="Path_2683" data-name="Path 2683" d="M556.062,355.477l2.663-9.485-.128-.047c-.007,0-5.092-1.872-8.372-1.877a5.31,5.31,0,0,0-1.408.162l-.074.02-3.24,9.485.256-.058a12.188,12.188,0,0,1,2.449-.22,13.187,13.187,0,0,1,7.628,2.31l.169-.24a13.474,13.474,0,0,0-7.8-2.362,12.442,12.442,0,0,0-2.514.227l.032.141.139.047,3.13-9.164-.137-.047.038.142a5.088,5.088,0,0,1,1.329-.148,21.972,21.972,0,0,1,5.334.927c1.67.465,2.934.929,2.937.929l.052-.137-.141-.038-2.625,9.355Z" transform="translate(2.302 20.568)" fill="#1a1311"/>
      <path id="Path_2684" data-name="Path 2684" d="M546.623,349.912l-.312.274.2.33.22.054.31-.164.018-.458Z" transform="translate(3.307 27.844)" fill="#1a1311"/>
      <path id="Path_2685" data-name="Path 2685" d="M546.936,349.357l-.22.036-.274.33.018.292.184.092.4-.074.036-.328Z" transform="translate(3.469 27.154)" fill="#1a1311"/>
      <path id="Path_2686" data-name="Path 2686" d="M546.511,349.45h.128l.078-.07.085.361.384-.072.056-.166-.056-.2-.128-.056-.164-.054-.078-.038-.049-.072-.164-.11-.2.2Z" transform="translate(3.419 26.677)" fill="#1a1311"/>
      <path id="Path_2687" data-name="Path 2687" d="M546.442,349.211l.312.256.474-.33-.036-.31-.11-.256-.182-.11-.458.164Z" transform="translate(3.469 26.038)" fill="#1a1311"/>
      <path id="Path_2688" data-name="Path 2688" d="M546.565,350.531l.128-.33v-.218l-.137-.121.1-.117.09-.4-.42.056-.146.128.292.292-.292.238.036.366Z" transform="translate(3.145 27.133)" fill="#1a1311"/>
      <path id="Path_2689" data-name="Path 2689" d="M548,350.12l.049-.267-.317-.123-.148.366Z" transform="translate(4.896 27.617)" fill="#1a1311"/>
      <path id="Path_2690" data-name="Path 2690" d="M547.6,350.563v0Z" transform="translate(4.912 28.655)" fill="#1a1311"/>
      <path id="Path_2691" data-name="Path 2691" d="M546.809,349.662l-.11.121.159.2.207-.207Z" transform="translate(3.789 27.532)" fill="#1a1311"/>
      <path id="Path_2692" data-name="Path 2692" d="M547.081,349.64l-.121.292.341.014.036-.231Z" transform="translate(4.114 27.505)" fill="#1a1311"/>
      <path id="Path_2693" data-name="Path 2693" d="M547.047,349.027l.384.018.018-.256-.4-.018Z" transform="translate(4.222 26.423)" fill="#1a1311"/>
      <path id="Path_2694" data-name="Path 2694" d="M546.4,351.217l.366-.146.146-.294c0-.146-.22-.182-.512,0s0,.44,0,.44" transform="translate(3.258 28.768)" fill="#1a1311"/>
      <path id="Path_2695" data-name="Path 2695" d="M550.008,340.041l.245.267.193-.218-.267-.22Z" transform="translate(7.909 15.342)" fill="#1a1311"/>
      <path id="Path_2696" data-name="Path 2696" d="M550.523,339.68l.016,0L550.4,340c.242.269.536.128.438-.267l-.227-.072.105-.2-.269-.22-.171.173Z" transform="translate(8.245 14.558)" fill="#1a1311"/>
      <path id="Path_2697" data-name="Path 2697" d="M550,340.731c.341.171.366-.007.366-.292,0-.22-.341-.22-.487-.171s-.22.292.121.462" transform="translate(7.59 15.805)" fill="#1a1311"/>
      <path id="Path_2698" data-name="Path 2698" d="M556.891,345.925a32.79,32.79,0,0,0-9.454-1.9l-.627.155.362.245a31.145,31.145,0,0,1,9,1.81,1.022,1.022,0,0,0,.725-.016Z" transform="translate(3.929 20.51)" fill="#1a1311"/>
      <path id="Path_2699" data-name="Path 2699" d="M556.2,350.495a20.3,20.3,0,0,0-10.682-2.272l-.368.24.624.164a18.418,18.418,0,0,1,9.692,2.131.96.96,0,0,0,.723.027Z" transform="translate(1.856 25.694)" fill="#1a1311"/>
      <path id="Path_2700" data-name="Path 2700" d="M557.284,346.266a4.216,4.216,0,0,0-1.978-1.033c-.842-.231-1.7-.4-2.555-.577a35.63,35.63,0,0,0-5.55-.8l-.391.2.6.231a31.515,31.515,0,0,1,4.869.694c.768.162,1.538.328,2.3.507a3.451,3.451,0,0,1,1.794.86.915.915,0,0,0,.682.173Z" transform="translate(3.929 20.301)" fill="#1a1311"/>
      <path id="Path_2701" data-name="Path 2701" d="M553.774,347.792l-.2.22-.245-.27.171-.171Zm-.586,2.683-.2.22-.242-.269.171-.171Zm-.561.828-.366-.193.148-.173.292.049Zm-.388,1.879.137-.319-.016,0-.245-.269.171-.171.27.22-.106.2.227.07c.1.4-.2.537-.438.269m.121.757-.2.218-.245-.267.171-.171Zm-.611-.123c-.242.123-.386-.326-.341-.438a.281.281,0,0,1,.512,0c.123.2.074.316-.171.438m-.146.586-.2.22-.242-.27.171-.171Zm.853-4.926c.148-.049.489-.049.489.171,0,.285-.025.462-.366.292s-.269-.415-.123-.463m2.227-4.948c-.031-.4-1.435-.718-1.4-.256a13.364,13.364,0,0,1,.02,1.8c-.2-.189-.952-.2-.972.047a22.215,22.215,0,0,1-1.228,5.186c-.271.84-.543,1.681-.761,2.539-.1.415-.2.835-.269,1.259-.061.359-.173.752.144,1.017l.287.119a5,5,0,0,1-.536.783c-.29.343,1.044.867,1.307.554a8.354,8.354,0,0,0,1.41-2.746c.379-1.1.75-2.211,1.078-3.334a19.323,19.323,0,0,0,.918-6.969" transform="translate(7.811 20.539)" fill="#1a1311"/>
      <path id="Path_2702" data-name="Path 2702" d="M548.675,344.746v-.218l.269-.049.024.2Zm-.341,2.416-.047-.146.146-.2.22.049a.41.41,0,0,1-.319.292m-.146,1.049-.22-.245.031-.146-.1.025-.294-.2c-.025-.072-.011-.249.22-.366.1-.049.22.123.22.341l0,.061.074-.036.269.1.074.292Zm-.828,1.161c-.307-.083-.171-.337.029-.586.222-.278.5.056.5.279s-.224.39-.532.308m-.252.615c-.1.344-.222.249-.391.166l-.139-.364.307-.166Zm-.514,2.086c-.2.108-.366-.074-.438-.294a.367.367,0,0,1,.236-.494.337.337,0,0,1,.458.274.427.427,0,0,1-.256.514m-.184-3.174.391-.142-.054.224-.168.139Zm1.657-2.809c.025-.2.391-.415.463-.171.094.312-.121.341-.242.316Zm2.5-2.945-.418-.184-.564-.038-.153.029-.2.105-.139.26-.094.09-.036.067c-1.9,3.4-3.864,6.973-4.075,10.953-.023.418,1.277.894,1.376.5.469-1.868,1.509-3.518,2.088-5.345.308-.97.5-1.973.808-2.945a16.15,16.15,0,0,1,1.217-2.732l.009-.1.229-.422Z" transform="translate(1.537 19.14)" fill="#1a1311"/>
    </g>
  </g>
</svg>
