<svg xmlns="http://www.w3.org/2000/svg" width="14.684" height="14.683" viewBox="0 0 14.684 14.683">
  <g id="Group_891" data-name="Group 891" transform="translate(-891.852 -767.232)">
    <path id="Path_2109" data-name="Path 2109" d="M206.674,275.3a7.341,7.341,0,1,0-7.342-7.342,7.342,7.342,0,0,0,7.342,7.342" transform="translate(692.52 506.615)" fill="#1a1311"/>
    <path id="Path_2110" data-name="Path 2110" d="M209.917,269.8l2.525-1.458v-.491l-2.525,1.458Zm0-2.049,2.525-1.459v-.491l-2.525,1.459Zm0,1.024,2.525-1.459v-.491l-2.525,1.459Zm-5.706-3.636,4.167,2.376v3.188l1.267-.731v-3.189l-4.139-2.386Zm5.706,1.486,2.525-1.458L208.3,262.78l-2.523,1.456,4.14,2.386Zm-9.012,3.1v.491l4.143,2.392,3.062-1.769v-.491l-3.062,1.769Zm0-1.025v.491l4.143,2.392,3.062-1.769v-.491l-3.062,1.769Zm0-1.024v.491l4.143,2.392,3.062-1.769v-.491l-3.062,1.769Zm4.61-.906c-.462-.267-.67-.617-.609-.933l-.962-.549L200.9,267.05l4.143,2.392,3.062-1.768-.954-.544a2.976,2.976,0,0,1-1.641-.35" transform="translate(692.52 506.615)" fill="#fff3d8"/>
  </g>
</svg>
