<svg xmlns="http://www.w3.org/2000/svg" xmlns:xlink="http://www.w3.org/1999/xlink" width="97.341" height="151.225" viewBox="0 0 97.341 151.225">
  <defs>
    <clipPath id="clip-path">
      <path id="Path_1732" data-name="Path 1732" d="M127,327.381s-8.691,0-8.691,8.691V469.916c0,.134.067,8.69,8.691,8.69h79.956s8.693,0,8.693-8.691V336.072s0-8.691-8.693-8.691Z" transform="translate(-118.305 -327.381)" fill="none"/>
    </clipPath>
    <clipPath id="clip-path-2">
      <rect id="Rectangle_517" data-name="Rectangle 517" width="50.342" height="24.35" fill="none"/>
    </clipPath>
    <clipPath id="clip-path-3">
      <rect id="Rectangle_538" data-name="Rectangle 538" width="36.255" height="4.774" fill="none"/>
    </clipPath>
  </defs>
  <g id="Group_349" data-name="Group 349" transform="translate(-154.108 -134)">
    <g id="Group_331" data-name="Group 331" transform="translate(154.108 134)">
      <g id="Group_330" data-name="Group 330" transform="translate(0)" clip-path="url(#clip-path)">
        <rect id="Rectangle_496" data-name="Rectangle 496" width="107.77" height="161.654" transform="translate(-5.215 -5.214)" fill="#77756c"/>
      </g>
    </g>
    <g id="Group_333" data-name="Group 333" transform="translate(177.624 249.013)">
      <g id="Group_332" data-name="Group 332" transform="translate(0)" clip-path="url(#clip-path-2)">
        <rect id="Rectangle_497" data-name="Rectangle 497" width="2.278" height="8.491" transform="translate(6.513 0.951)" fill="#1a1311"/>
        <rect id="Rectangle_498" data-name="Rectangle 498" width="2.277" height="8.491" transform="translate(23.521 0.951)" fill="#1a1311"/>
        <rect id="Rectangle_499" data-name="Rectangle 499" width="2.277" height="8.491" transform="translate(40.516 0.951)" fill="#1a1311"/>
        <rect id="Rectangle_500" data-name="Rectangle 500" width="2.277" height="8.491" transform="translate(57.525 0.951)" fill="#1a1311"/>
        <rect id="Rectangle_501" data-name="Rectangle 501" width="2.278" height="8.491" transform="translate(74.539 0.951)" fill="#1a1311"/>
        <rect id="Rectangle_502" data-name="Rectangle 502" width="2.277" height="8.491" transform="translate(91.533 0.951)" fill="#1a1311"/>
        <rect id="Rectangle_503" data-name="Rectangle 503" width="2.278" height="8.491" transform="translate(108.553 0.951)" fill="#1a1311"/>
        <rect id="Rectangle_504" data-name="Rectangle 504" width="2.277" height="8.491" transform="translate(125.566 0.951)" fill="#1a1311"/>
        <rect id="Rectangle_505" data-name="Rectangle 505" width="2.277" height="8.491" transform="translate(142.568 0.951)" fill="#1a1311"/>
        <rect id="Rectangle_506" data-name="Rectangle 506" width="2.278" height="8.491" transform="translate(159.586 0.951)" fill="#1a1311"/>
        <path id="Path_1733" data-name="Path 1733" d="M217.229,405.581V388.753h-2.277v16.829H138.421v2.277H293.76v-2.277Z" transform="translate(-131.908 -412.148)" fill="#1a1311"/>
        <rect id="Rectangle_507" data-name="Rectangle 507" width="15.306" height="12.959" transform="translate(0 11.39)" fill="#1a1311"/>
        <rect id="Rectangle_508" data-name="Rectangle 508" width="15.306" height="12.959" transform="translate(17.008 11.39)" fill="#1a1311"/>
        <rect id="Rectangle_509" data-name="Rectangle 509" width="15.306" height="12.959" transform="translate(34.016 11.39)" fill="#1a1311"/>
        <rect id="Rectangle_510" data-name="Rectangle 510" width="15.306" height="12.959" transform="translate(51.024 11.39)" fill="#1a1311"/>
        <rect id="Rectangle_511" data-name="Rectangle 511" width="15.306" height="12.959" transform="translate(68.032 11.39)" fill="#1a1311"/>
        <rect id="Rectangle_512" data-name="Rectangle 512" width="15.306" height="12.959" transform="translate(85.041 11.39)" fill="#1a1311"/>
        <rect id="Rectangle_513" data-name="Rectangle 513" width="15.306" height="12.959" transform="translate(102.049 11.39)" fill="#1a1311"/>
        <rect id="Rectangle_514" data-name="Rectangle 514" width="15.306" height="12.959" transform="translate(119.051 11.39)" fill="#1a1311"/>
        <rect id="Rectangle_515" data-name="Rectangle 515" width="15.306" height="12.959" transform="translate(136.065 11.39)" fill="#1a1311"/>
        <rect id="Rectangle_516" data-name="Rectangle 516" width="15.306" height="12.959" transform="translate(153.073 11.39)" fill="#1a1311"/>
      </g>
    </g>
    <g id="Group_335" data-name="Group 335" transform="translate(184.167 247.908)">
      <g id="Group_334" data-name="Group 334" transform="translate(0)" clip-path="url(#clip-path-3)">
        <rect id="Rectangle_518" data-name="Rectangle 518" width="2.277" height="8.491" transform="translate(-50.972 7.488)" fill="#1a1311"/>
        <rect id="Rectangle_519" data-name="Rectangle 519" width="2.277" height="8.491" transform="translate(-33.965 7.488)" fill="#1a1311"/>
        <rect id="Rectangle_520" data-name="Rectangle 520" width="2.277" height="8.491" transform="translate(-16.971 7.488)" fill="#1a1311"/>
        <rect id="Rectangle_521" data-name="Rectangle 521" width="2.277" height="8.491" transform="translate(0.039 7.488)" fill="#1a1311"/>
        <rect id="Rectangle_522" data-name="Rectangle 522" width="2.277" height="8.491" transform="translate(17.054 7.488)" fill="#1a1311"/>
        <rect id="Rectangle_523" data-name="Rectangle 523" width="2.278" height="8.491" transform="translate(34.046 7.488)" fill="#1a1311"/>
        <rect id="Rectangle_524" data-name="Rectangle 524" width="2.277" height="8.491" transform="translate(51.069 7.488)" fill="#1a1311"/>
        <rect id="Rectangle_525" data-name="Rectangle 525" width="2.278" height="8.491" transform="translate(68.078 7.488)" fill="#1a1311"/>
        <rect id="Rectangle_526" data-name="Rectangle 526" width="2.278" height="8.491" transform="translate(85.08 7.488)" fill="#1a1311"/>
        <rect id="Rectangle_527" data-name="Rectangle 527" width="2.277" height="8.491" transform="translate(102.101 7.488)" fill="#1a1311"/>
        <path id="Path_1734" data-name="Path 1734" d="M183.1,409.221V392.392h-2.277v16.829H104.3V411.5H259.634v-2.277Z" transform="translate(-155.269 -409.249)" fill="#1a1311"/>
        <rect id="Rectangle_528" data-name="Rectangle 528" width="15.306" height="12.959" transform="translate(-57.486 17.929)" fill="#1a1311"/>
        <rect id="Rectangle_529" data-name="Rectangle 529" width="15.306" height="12.959" transform="translate(-40.478 17.929)" fill="#1a1311"/>
        <rect id="Rectangle_530" data-name="Rectangle 530" width="15.306" height="12.959" transform="translate(-23.47 17.929)" fill="#1a1311"/>
        <rect id="Rectangle_531" data-name="Rectangle 531" width="15.306" height="12.959" transform="translate(-6.463 17.929)" fill="#1a1311"/>
        <rect id="Rectangle_532" data-name="Rectangle 532" width="15.306" height="12.959" transform="translate(10.545 17.929)" fill="#1a1311"/>
        <rect id="Rectangle_533" data-name="Rectangle 533" width="15.306" height="12.959" transform="translate(27.553 17.929)" fill="#1a1311"/>
        <rect id="Rectangle_534" data-name="Rectangle 534" width="15.306" height="12.959" transform="translate(44.563 17.929)" fill="#1a1311"/>
        <rect id="Rectangle_535" data-name="Rectangle 535" width="15.306" height="12.959" transform="translate(61.565 17.929)" fill="#1a1311"/>
        <rect id="Rectangle_536" data-name="Rectangle 536" width="15.306" height="12.959" transform="translate(78.579 17.929)" fill="#1a1311"/>
        <rect id="Rectangle_537" data-name="Rectangle 537" width="15.306" height="12.959" transform="translate(95.586 17.929)" fill="#1a1311"/>
      </g>
    </g>
    <g id="Group_337" data-name="Group 337" transform="translate(154.108 134)">
      <g id="Group_336" data-name="Group 336" transform="translate(0)" clip-path="url(#clip-path)">
        <text id="_2" data-name="2" transform="translate(45.299 136.023)" fill="#fff3d8" font-size="10" font-family="AveriaSerifLibre-Regular, Averia Serif Libre"><tspan x="0" y="0">2</tspan></text>
        <text id="_3" data-name="3" transform="translate(62.401 136.023)" fill="#fff3d8" font-size="10" font-family="AveriaSerifLibre-Regular, Averia Serif Libre"><tspan x="0" y="0">3</tspan></text>
        <text id="_1" data-name="1" transform="translate(28.756 136.023)" fill="#fff3d8" font-size="10" font-family="AveriaSerifLibre-Regular, Averia Serif Libre"><tspan x="0" y="0">1</tspan></text>
        <path id="Path_1735" data-name="Path 1735" d="M207.631,388.369c.09-.528-.736-.849-1.114-.993-.657-.248-1.257-.642-1.9-.929-.727-.325-1.442-.667-2.159-1.015-.6-.293-1.185-.654-1.806-.909-1.291-.53-2.49-1.17-3.756-1.756-.333-.154-.693-.254-1.014-.428l-.343-.257-.316-.078a9.791,9.791,0,0,0-1.953-.921,7.226,7.226,0,0,1-.894-.43,7.139,7.139,0,0,0-.673-.343,3.9,3.9,0,0,1-.631-.293c-.184-.094-.4-.1-.576-.194-.769-.379-1.538-.752-2.295-1.151-1.251-.66-2.541-1.193-3.8-1.83-1.3-.655-2.665-1.2-3.981-1.806-2.186-1-4.322-2.13-6.507-3.139-.646-.3-1.327-.518-1.969-.827-.281-.134-.53-.319-.811-.446l-1.773-.8-1.971-.894a16.139,16.139,0,0,0-2.58-1.112c-.442.252-.911.394-1.367.63-.563.291-1.13.57-1.7.845-1.1.533-2.215,1.049-3.311,1.6-.533.267-1.112.427-1.657.676-.47.212-.926.452-1.394.669-1.055.49-2.08,1.035-3.136,1.523-3.289,1.517-6.558,3.084-9.881,4.525-.512.222-1.047.419-1.545.675-.608.308-1.242.551-1.844.869-.552.291-1.151.458-1.687.757a1.136,1.136,0,0,1-.514.158,1.275,1.275,0,0,1-.375.23c-.26.109-.482.26-.746.361-.216.082-.424.181-.634.275-.622.278-1.249.543-1.859.849-2.654,1.324-5.38,2.557-8.09,3.759-.708.313-1.429.6-2.117.961-.187.1-.673.26-.684.511s.355.331.539.428c.458.236,1.285.264,1.608.7.7.231,1.354.567,2.026.861,1.775.782,3.525,1.615,5.3,2.4.509.224,1.018.449,1.527.672.618.275,1.2.608,1.829.867a16.673,16.673,0,0,1,1.906.933c1.469.84,3.1,1.379,4.628,2.1q2.04.956,4.081,1.912c.485.23.93.467,1.417.688,1.327.6,2.618,1.287,3.955,1.874.743.328,1.493.609,2.214.984.666.348,1.327.706,2.008,1.027.7.328,1.464.531,2.148.89.552.288,1.1.536,1.67.788.7.311,1.412.609,2.09.969.617.327,1.294.539,1.891.878.569.322,1.559.975,2.2.732.617-.231,1.182-.606,1.787-.875,1.318-.588,2.644-1.1,3.94-1.723a39.442,39.442,0,0,1,4.025-1.754c.648-.227,1.255-.631,1.891-.908s1.269-.618,1.926-.861c1.475-.548,2.9-1.26,4.325-1.917,2.866-1.318,5.721-2.6,8.588-3.883,2.712-1.212,5.419-2.441,8.161-3.614,1.427-.612,2.85-1.244,4.283-1.839.712-.293,1.46-.508,2.163-.82.261-.116.443-.288.717-.4.2-.082.481-.17.522-.418" transform="translate(-116.354 -307.454)" fill="#fff3d8"/>
        <path id="Path_1736" data-name="Path 1736" d="M223.345,375.713a6.928,6.928,0,0,1,0-1.293c.034-.216.022-.494-.24-.5-.737-.01-11.2-.007-11.937-.018-.434,0-.87,0-1.3,0l-7.967-.018L187.6,373.85a9.287,9.287,0,0,1-1.351.028c-.437.012-.208.278.048.393.773.352,1.59.6,2.333,1.017.59.33,1.2.588,1.8.9a4.237,4.237,0,0,0,2.048.1c.609-.021,1.215-.018,1.824-.016,1.341,0,2.708-.072,4.047.007,3.653.03,7.312.06,10.965.043q1.27,0,2.539-.018c.385,0,6.11-.009,6.5-.013.193,0,4.771,0,4.962-.007a3.381,3.381,0,0,0,.031-.576m-.07,3.071a2.375,2.375,0,0,1,.03-.515,3.071,3.071,0,0,0-.042-1.045c-.067-.282-4.835-.2-5.062-.206-3.236-.045-11.816.054-15.052.031-3.2-.021-6.4-.158-9.594-.045-1.027.037.072.678.431.867.567.3,1.149.555,1.736.806a2.355,2.355,0,0,0,1.02.33c.26,0,.52.012.779.01,3.136-.06,6.267-.07,9.4-.051,1.653.01,3.307.024,4.959.051.443.007,10.632.055,11.074,0,.234-.03.342.022.318-.231m-.007,1.669c0-.213.119-.742-.185-.742-.161-.052-4.814,0-4.982,0-.378,0-6.094,0-6.473-.006-.682,0-1.366,0-2.05-.018-2.023-.04-4.04-.013-6.062,0-1.411,0-3.105.009-4.617.01a.349.349,0,0,0-.351.178c-.1.23.566.366.709.431.655.3,1.293.642,1.951.935a3.47,3.47,0,0,0,1.187.027q.591,0,1.182,0,1.185.007,2.369.019c1.645.016,3.289.039,4.934.057.458,0,.915.009,1.373.012.339,0,10.438.081,10.763-.045.37-.145.257-.517.251-.858m-.03,2.575.031-.952c.007-.216-11.331-.093-11.543-.088-.766.016-1.53.039-2.3.046-1.542.016-3.107-.106-4.638-.052a11.1,11.1,0,0,0-1.7.037c-.1.307,1.344.8,1.557.9l.769.363a2.588,2.588,0,0,0,.663,0,4.274,4.274,0,0,0,.917,0c.243-.036.521.1.724.006a3.089,3.089,0,0,1,.761.033c.215,0,.422.034.637.033l2.117-.019c.624-.006,6.586-.012,7.21-.018.254,0,4.779-.012,4.788-.287m-.1,8.5c-.013-.212.112-.7-.046-.852-.234-.218-10.628-.066-10.923-.058-.393.007-.787.01-1.181,0l-.369.063a4.422,4.422,0,0,0-.506-.039,10.3,10.3,0,0,1-1.288.046,23.244,23.244,0,0,0-2.392.042c-.228.022-1.957.493-1.493.908.246.221.9.106,1.208.113l1.179.028c1.771.039,3.541.063,5.312.04.3,0,10.524.134,10.5-.288m-.009,1.736c0-.148.106-.606-.14-.613-.327-.012-10.378-.022-10.705-.03q-.983-.027-1.968-.042c-1.3-.022-2.606-.037-3.91-.072a36.515,36.515,0,0,0-3.834-.04,6.244,6.244,0,0,0-1.627.587,6.4,6.4,0,0,0-1.5.752c.255.351,1.212.184,1.639.191.639.01,1.278.024,1.917.036,2.572.049,5.146.1,7.719.09q.949,0,1.9-.021c.191,0,10.32.072,10.478-.069.112-.1.027-.619.03-.769m-.037,2.556c.007-.176.143-.963-.04-1.039-.234-.1-10.335.009-10.6.008l-2.38-.009c-3.322-.018-6.642-.052-9.96-.158-.628-.019-1.3.024-1.942.024a2.511,2.511,0,0,0-1,.225,4.046,4.046,0,0,0-.946.379,6.007,6.007,0,0,1-.9.36c-.311.149-.654.261-.948.44-.057.036-.421.409-.13.414l.863.01,1.851.022q4.284.051,8.566.1c2.438.03,10.214.06,12.653.09l.206,0c.484.006,4.7-.529,4.713-.872m-.019,3.216c-.018-.364-.01-.728,0-1.091s-4.432-.525-4.819-.542c-.218-.01-5.776-.033-6-.034l-2.03-.018-9.324-.082q-1.691-.016-3.381-.03c-1.617-.015-3.25-.119-4.864-.039a3.98,3.98,0,0,0-1.42.254c-.955.379-1.862.794-2.79,1.233-.173.082-1.108.449-1.093.685.019.315,1.233.191,1.479.2,1.169.024,2.339.037,3.508.054q2.942.04,5.885.072,4.989.051,9.981.082c1.635.007,8.609.012,10.245.007.418,0,4.634-.49,4.62-.746m-42.777,3.9c.366.01.731.027,1.1.04.628.022,1.255.024,1.884.031l4.346.048c2.054.024,4.11.025,6.165.037q6.964.04,13.927.085l4.152.027c.318,0,10.362,0,10.678.006.133,0,.5.015.5-.16-.024-.73.033-1.442.07-2.166.027-.542-11.263-.331-11.6-.328q-1.135.011-2.271,0c-1.641-.01-3.283-.031-4.923-.054q-2.306-.031-4.614-.055l-14.7-.13a1.4,1.4,0,0,0-.66.214l-1.273.6-2.635,1.244-.349.166c-.318.154.033.39.213.394M114.385,401.3a10.091,10.091,0,0,0,.03,1.445c.036.151.222.215.358.215.4,0,9.3,0,9.7,0q7.392,0,14.784-.012c5.3-.009,10.595.025,15.9.049l1.32,0h.258c.175,0,.358-.051.536-.055.3-.007.691.113.978-.022.408-.191-.29-.436-.421-.5-.309-.154-.609-.322-.911-.491a18.764,18.764,0,0,0-1.911-.884c-.384-.161-.766-.322-1.144-.5a2.012,2.012,0,0,0-.955-.143c-.272,0-.536-.058-.806-.06a1.416,1.416,0,0,1-.427.007.724.724,0,0,0-.479-.019c-3.195-.031-6.391.051-9.586.027-6.18-.043-20.883-.245-27.062-.072-.173.006-.158.878-.161,1.011m.042-3.535.049,1.3.012.32,9.63.019q1.35.018,2.7.033c3.2.033,6.407.061,9.608.051q.665,0,1.33-.022c.273-.009.6.113.855.016.734.075,1.427,0,2.159.012,1.547.024,3.095.016,4.641.051.781.016,1.564.055,2.344.019.348-.016.694-.045,1.041-.057s.687.066,1.036.054c.182-.007.969.012,1.066-.157.137-.239-.328-.34-.47-.419-.617-.342-1.254-.611-1.888-.918a5.8,5.8,0,0,0-2.154-.93c-.706-.006-1.411.006-2.115.021-1.632.033-3.262-.085-4.892-.037-2.926.085-5.867,0-8.793-.025-2.468-.017-13.428-.034-15.9-.052-.414,0-.273.446-.264.718m-.006-2c-.009.669,8.848.6,9.427.6.228,0,.455,0,.682,0l3.226-.012,4.679-.016c.7,0,1.393,0,2.088,0,.82,0,1.641-.018,2.46,0,.376.007.752.019,1.129.043.327.019.612-.149.936.012l.373-.043.4.04c.346,0,.69.028,1.035,0,.633-.057,1.238.049,1.865-.008a6.173,6.173,0,0,0,1.2-.136c.37-.11-.069-.343-.23-.445a14.561,14.561,0,0,0-1.811-.842,5.032,5.032,0,0,0-2.13-.443c-.751-.015-1.5-.019-2.25-.024-1.575-.012-3.145,0-4.72.016-3.238.025-14.969-.087-18.208-.084-.234,0-.142,1.178-.143,1.353m.027-2.851a6.966,6.966,0,0,0,0,.706c.013.161.422.1.511.1.434.01,9.362.016,9.8.019,2.589.016,5.156.037,7.731-.027q.963-.025,1.924-.048a3.7,3.7,0,0,1,.545.018,2.671,2.671,0,0,0,.869.04,9.579,9.579,0,0,1,2.029-.028c.172-.01.824.042.7-.273-.066-.164-.66-.328-.821-.4a9.126,9.126,0,0,0-1.893-.669,5.49,5.49,0,0,0-.991-.027q-3.742.007-7.482.01c-1.148,0-2.344.006-3.513,0h-9.13c-.337,0-.263.324-.27.57m.045-2.306c-.085.24-.158.787.07.964.245.19,9.2.133,9.488.136.79,0,1.581-.058,2.371-.064l4.347-.028,2.08-.015c.158,0,1.221.091.866-.385-.169-.225-.617-.34-.857-.457-.14-.067-.409-.27-.569-.272-.327,0-.654,0-.981,0-2.5-.01-13.489-.019-15.988-.03-.225.009-.742-.084-.827.154m.176-8.585c-.279.084-.137.673-.118.906s.255.2.421.2c1.62-.021,11.732-.024,13.352-.049.83-.012,1.666-.069,2.5-.048a3.309,3.309,0,0,0,1.435-.055l1.046-.509c.157-.076.87-.512.3-.514a6.03,6.03,0,0,0-1.051,0l-2.311,0-3.363-.007c-.885,0-1.8.022-2.692.025-.337,0-9.191-.037-9.518.06m-.113-2.132c0,.351-.206,1.272.308,1.27,2.65,0,13.791,0,16.441,0h.885c.781,0,1.56.031,2.341.03a5.8,5.8,0,0,0,2.1-.182c.661-.261,1.306-.651,1.947-.979.348-.178-.048-.319-.257-.336q-.56-.043-1.12-.055c-1.606-.042-3.216.049-4.822-.019-2.081-.094-4.234.1-6.339.057-.57-.012-1.138.013-1.709.013-.242,0-8.978,0-9.22.007s-.551-.087-.555.2m.016-2.057a3.929,3.929,0,0,0,0,.827c.061.33.188.26.484.252.194,0,8.881-.006,9.075-.006.381,0,.76.008,1.139.012.54.006,1.081-.039,1.62-.039q1.2,0,2.406,0,4.55,0,9.1.006c1,0,2.492.251,3.323-.206a13.231,13.231,0,0,1,1.9-.9,1.421,1.421,0,0,0,.658-.431c.27-.345-.221-.307-.436-.311-1.66-.034-3.319-.027-4.979-.036l-8.282.012c-2.418,0-13.33.006-15.748.01l-.2.058a.846.846,0,0,0-.061.748m0-2.221c0,.149-.042.631.191.631l12.141.006q7.206.009,14.412.048c.891,0,1.784,0,2.675,0a24.022,24.022,0,0,0,3.024-.063,10.808,10.808,0,0,1,1.038-.446c.312-.152.608-.339.918-.5.642-.322,1.3-.614,1.924-.97.245-.139.612-.466.087-.484-.348-.012-.7-.021-1.045-.024a15.078,15.078,0,0,1-2.156.019,14.92,14.92,0,0,0-2.311-.019c-.757,0-1.514-.01-2.271-.008-3.238.018-6.477-.021-9.715-.054-.554-.007-1.187.055-1.765.057l-7.3.019c-.349,0-9.221-.039-9.563-.022-.437.021-.29,1.5-.282,1.8m44.972-5.361c0-.363-1.567-.182-1.871-.184-3.123-.016-6.2,0-9.317-.072-.582-.013-1.185.064-1.773.057-.7-.01-1.406-.015-2.109-.018-3.193-.009-6.386.063-9.578.09q-2.391.022-4.782.016c-1.535,0-3.09-.108-4.62,0-.694.051-9.914-.133-10.6,0-.422.082-.284,1.273-.3,1.614-.015.319-.179,1.293.316,1.291.728,0,9.95,0,10.68,0l17.581-.024c3.356,0,6.712.027,10.068.043a2.564,2.564,0,0,0,1.247-.182c.325-.157.649-.322.975-.478.7-.336,1.4-.667,2.1-1.011q.607-.3,1.208-.611c.188-.1.772-.281.775-.536m63.792.549c0-.184.07-.557-.118-.676-.208-.131-10.307-.067-10.535-.067-4.905,0-9.811-.031-14.715-.048q-6.091-.022-12.179-.063c-1.76-.03-3.586.073-5.371.076l-1.885,0c-.164,0-.352.025-.425.2s.539.44.648.5a17.427,17.427,0,0,1,1.963,1,6.172,6.172,0,0,0,.935.406,7.733,7.733,0,0,0,.806.4,5.614,5.614,0,0,0,1.636.557c1.673.066,3.348.052,5.023.036q1.821-.018,3.641-.015l8.226,0c3.23,0,6.461.063,9.693.061H212.6c.3,0,10.73.142,10.73-.2q0-1.079,0-2.162" transform="translate(-120.245 -306.407)" fill="#1a1311"/>
        <text id="_200" data-name="+$200" transform="translate(28.761 85.706)" fill="#1a1311" font-size="17" font-family="VTCSuperMarketSale" letter-spacing="0.03em"><tspan x="0" y="0">+$200</tspan></text>
        <path id="Path_1737" data-name="Path 1737" d="M193.236,364.03c-.358.194-.584.375-1.17.645-1.06.412-3.413,1.4-4.029,1.706-.387.191-.8.316-1.19.508a9.175,9.175,0,0,1-1.032.415c-.549.187-3.205,1.55-3.96,1.506-.219-.012-.19-.869-.2-.994-.067-.77-.027-1.553-.018-2.326.01-.882.527-.754,1.235-.827.909-.1,1.817-.2,2.729-.267,1.266-.094,2.505-.285,3.774-.366,1.058-.067,1.994-.188,3.2-.29.406-.034,1.4-.11.664.29M130.457,342.3c-.7.04.082-.446.358-.557.685-.275,1.381-.531,2.065-.8.785-.307,1.593-.648,2.393-.9.725-.228,1.4-.561,2.129-.773a45.141,45.141,0,0,0,4.661-1.835c.672-.376.518,1.85.52,2.121,0,.44.282,1.509-.381,1.544-.231.012-1.411.2-1.741.245-.86.11-6.192.624-7.994.8-.669.064-1.339.121-2.009.158m67.055,18.75c-.033-4,.024-7.991.033-12.005q0-2.853.01-5.707c0-1.194.066-2.378.018-3.577-.043-1.055.01-2.1-.027-3.157,0-.164.027-1.032-.233-1.038h-.539a11.8,11.8,0,0,0-1.647.228c-2.3.428-4.7.554-7,.767-1.484.139-12.177,1.248-13.649,1.357-1.1.082-2.194.213-3.29.331-.517.055-6.149.543-7.7.752-1.16.155-7.291.779-9.2.864a26.252,26.252,0,0,0-2.789.287c-.818.127-3.578.361-4.108.4-.488.039-.976.079-1.463.124s-.976.094-1.463.151c-.109.012-.56,0-.73.007-.6.009-.421-1.309-.415-1.76a9.1,9.1,0,0,0-.028-1.85c-.061-.3-.439-.43-.9-.473-.648-.06-6.14.058-7.006.03-.818-.028-1.629.006-2.444.009l-1.4.006c-.2,0-.833-.093-.942.128a6.514,6.514,0,0,0-.116,2.529c0,.436.006.869-.022,1.3-.039.567-.185.593-.7.79-.439.17-.879.336-1.312.521-.388.166-.963.33-1.06.808.015.485-.024.972-.03,1.459-.016,1.518,0,7.364.022,9.488.009,1,.119,4.855.043,5.753s.018,3.389-.012,3.705c-.033.339.067,4.071,0,4.98a8.4,8.4,0,0,0,.016,1.357c.036.434.525.408.842.378,1.335-.13,2.666-.243,4-.382,1-.113,2.635-.316,3.144-.376,1.011-.119,2.023-.216,3.032-.33,2.108-.237,4.207-.517,6.319-.714,4.228-.4,8.433-.724,12.664-1.054,3.671-.287,7.357-.712,11.054-1.081,1.011-.1,2.018-.257,3.03-.333.461-.034,2.836-.187,3.125-.267.185-.051,4.934-.551,5.364-.561.469-.012.879.1.911.575.055.854.025,1.679.04,2.538.006.393-.16,1.947.518,1.93l.888-.021c2.041-.048,4.058-.063,6.1-.021,1.008.021,4.532.01,4.856.01.682,0,1.345.254,1.329-.673l-.022-1.23c-.007-.415-.013-.829-.028-1.244-.018-.484-.013-.967,0-1.451.007-.352-.127-.933.215-1.139a5.884,5.884,0,0,1,1.427-.514,3.109,3.109,0,0,0,1.079-.328c.5-.455.215-1.7.21-2.284" transform="translate(-113.849 -323.346)" fill="#1a1311"/>
        <path id="Path_1746" data-name="Path 1746" d="M115.278,346.821l.063.219.043.166.069.11.115.051a.434.434,0,0,0,.536-.264,1.9,1.9,0,0,0,.206-.563c.015-.137.036-.273.063-.406l.076-.394.031-.181-.007-.176q-.013-.515-.5-.309l-.2.112a.421.421,0,0,0-.276.337.4.4,0,0,1-.3.312c-.266.069-.527.125-.787.17s-.52.09-.782.13a1.883,1.883,0,0,1-.366.046l-.175-.06-.063-.164-.043-.3.024-.219c.067-.387.122-.773.169-1.158s.087-.769.127-1.154a2.493,2.493,0,0,1,.057-.345l.1-.185.19-.085c.082-.016.191-.034.327-.055l.067-.006a6.536,6.536,0,0,0,1.426-.206,4.653,4.653,0,0,1,.817-.133c.27-.019.543-.036.823-.052l.131.016.066.076.037.091c-.052.16-.1.315-.13.467a1.122,1.122,0,0,0-.007.457q.1.425.512.214l.169-.069.169-.084.19-.145.088-.206c.027-.255.046-.508.06-.752s.022-.5.031-.752l-.006-.067a.222.222,0,0,0-.2-.227l-.166-.027-.182.016c-.145.022-.285.048-.422.078a3.224,3.224,0,0,1-.434.066q-1.608.141-3.2.443a6.98,6.98,0,0,1-1.139.14,4.164,4.164,0,0,0-.743.079c-.246.048-.5.1-.752.161a.365.365,0,0,0-.255.267l-.063.209a.41.41,0,0,0,.418.481.256.256,0,0,1,.261.316,5.428,5.428,0,0,0-.075,1.218l-.009.279-.039.3q-.072.824-.157,1.626a15.671,15.671,0,0,0-.088,1.606,1.2,1.2,0,0,1-.045.425,1.666,1.666,0,0,0-.081.511c0,.164,0,.331.013.5a5.957,5.957,0,0,1,.031.657,3.246,3.246,0,0,1-.078.679.444.444,0,0,1-.29.339l-.215.066-.213.067-.175.069-.175.07-.134.134-.045.167,0,.081.027.134.025.134.176.236.3.034c.164-.042.328-.079.493-.11a4.61,4.61,0,0,1,.5-.072l.178-.022.179-.049a9.78,9.78,0,0,1,1.1-.246c.363-.058.733-.113,1.114-.166.488-.069.975-.127,1.457-.175s.966-.1,1.453-.148l.361-.066.355-.133a.493.493,0,0,0,.322-.4q.052-.358.09-.721t.076-.721v-.136l-.07-.151-.148-.061-.184.022-.17.034a.742.742,0,0,0-.364.278l-.166.306-.088.328-.109.275-.27.152-.145.048-.145.033c-.236.039-.472.075-.706.109s-.475.061-.718.084c-.181.024-.357.045-.528.06a2.28,2.28,0,0,0-.533.115l-.315.061-.322.021-.116-.043-.054-.118-.006-.067-.007-.069a2.643,2.643,0,0,0,.03-.539c-.007-.176-.015-.355-.024-.536v-.388c0-.131.01-.266.015-.4q.016-.273.022-.533a4.2,4.2,0,0,0-.018-.528l.015-.328.054-.318.049-.093.09-.082.343-.085.29-.018.279-.058a2.68,2.68,0,0,1,.654-.112c.215-.01.44-.03.676-.06m-10.908,1.962.015-.042.012.039Zm-2.344-6.27c-.125.01-.276.021-.452.033s-.352.019-.533.025l-.339.125-.167.287.131.26.293.166.336.093a.329.329,0,0,1,.319.216c.069.176.142.349.221.52a3.475,3.475,0,0,1,.193.533c.084.3.167.6.246.9s.158.608.234.92l.088.373.128.369a3.716,3.716,0,0,1,.175.414,1.048,1.048,0,0,1,.039.466l0,.1.046.1q.137.6.309,1.19c.113.394.245.779.391,1.157q.166.475.3.966t.258,1l.124.267.275.106.282.022.269.024.2-.066.152-.184.028-.057a3.168,3.168,0,0,1,.221-.685c.1-.218.19-.434.273-.649a4.65,4.65,0,0,0,.17-.491c.134-.419.269-.833.406-1.239s.291-.817.46-1.232l.113-.309.019-.328a.766.766,0,0,1,.185-.546,1.5,1.5,0,0,0,.378-.809l.063-.169.064-.169q.2-.506.355-1.017t.354-1.018c.048-.148.093-.293.136-.433s.088-.284.136-.433a.978.978,0,0,1,.209-.387.514.514,0,0,1,.406-.143l.184-.016.182-.043.258-.118.143-.149.039-.221-.1-.181-.2-.051a2.237,2.237,0,0,1-.425.051l-.425.01c-.179,0-.357,0-.533.012s-.352.021-.533.027a.717.717,0,0,0-.545.333l-.043.146.039.127.087.046.087.048c.152.076.234.136.246.175a.694.694,0,0,1-.052.3l-.049.175-.051.175c-.1.39-.2.763-.316,1.123a10.425,10.425,0,0,1-.409,1.076q-.365.835-.676,1.665t-.582,1.684l-.093.287-.093.287-.055.039-.067.027-.034,0-.019-.025-.1-.257-.09-.272q-.141-.464-.273-.942t-.288-.941c-.085-.282-.16-.566-.227-.851a4.305,4.305,0,0,0-.282-.818l-.064-.233-.036-.248c-.042-.2-.081-.415-.116-.63s-.076-.424-.118-.629l-.049-.2-.051-.2a.351.351,0,0,1,.182-.382l.272-.146.258-.145.112-.187v-.143l-.024-.14-.066-.124-.121-.051-.29.012-.276.037a2.453,2.453,0,0,1-.6.134c-.193.016-.393.025-.6.025Zm-7.645,3.213q0-.273,0-.537c-.006-.176-.007-.355,0-.537l.01-.245.024-.248a.447.447,0,0,1,.425-.431c.145-.021.288-.039.433-.051a3.041,3.041,0,0,1,.418-.01c.3.01.606.028.9.058a2.417,2.417,0,0,1,.845.239.8.8,0,0,1,.345.322,3.529,3.529,0,0,1,.3,1.5l-.031.181L98,346.13c-.048.158-.1.309-.155.455s-.113.293-.17.443a1.15,1.15,0,0,1-.442.59,1.74,1.74,0,0,1-.664.242l-.081.007c-.27,0-.54.015-.809.03l-.811.043-.134-.015c-.179-.012-.272-.09-.279-.234l-.04-.337L94.4,347c0-.216,0-.433,0-.646s.015-.425.018-.634Zm.124,2.927a2.656,2.656,0,0,1,.642-.11,2.746,2.746,0,0,1,.627.04.823.823,0,0,1,.467.231l.272.261.287.233a.854.854,0,0,1,.3.451,2.951,2.951,0,0,1,.172.964q.009.284.045.56c.024.184.052.366.085.543a1.838,1.838,0,0,0,.288.812,2.322,2.322,0,0,0,.59.594,3.665,3.665,0,0,0,.467.272l.309.09.29-.025c.1-.022.251-.048.439-.073a.979.979,0,0,0,.53-.23,2.038,2.038,0,0,0,.385-.448,1.731,1.731,0,0,0,.233-.987c-.015-.143-.107-.227-.278-.248l-.216.033-.151.136-.07.182-.07.157-.145.161-.224.033a.671.671,0,0,1-.518-.39l-.1-.29-.076-.306q-.06-.336-.1-.658a5.975,5.975,0,0,0-.116-.642,3.2,3.2,0,0,0-.178-.6,1.347,1.347,0,0,0-.355-.493l-.272-.3L97.8,348.3l-.013-.06.042-.066.355-.261.369-.264a.774.774,0,0,0,.358-.439c.075-.188.149-.372.225-.551s.149-.361.225-.549a2.356,2.356,0,0,0,.115-.466,2.614,2.614,0,0,0,.022-.458,2.541,2.541,0,0,0-.076-.667,3.516,3.516,0,0,0-.225-.612,1.125,1.125,0,0,0-.8-.666,4.507,4.507,0,0,0-.463-.122,3.768,3.768,0,0,1-.463-.122l-.284-.03-.282.012a6.277,6.277,0,0,1-.709.075,4.464,4.464,0,0,1-.708-.019l-.236-.006-.249.034c-.263.042-.521.087-.778.137l-.778.149a4.2,4.2,0,0,1-1.121.084,3.026,3.026,0,0,0-.633.042l-.258.118-.125.215.1.2a.731.731,0,0,0,.455.124l.243-.036.257-.022c.136-.012.21.054.225.2l.015.352v.354c0,.163-.012.33-.028.5a3.9,3.9,0,0,0-.016.512c0,.236-.012.472-.025.709s-.036.475-.067.714a2.818,2.818,0,0,0-.027.43c0,.142.006.284.012.428s.031.3.046.458a3.955,3.955,0,0,0,.073.455,1.957,1.957,0,0,1,.046.452,4.457,4.457,0,0,1-.036.472c-.03.185-.055.373-.078.566s-.046.384-.076.578a2.231,2.231,0,0,0-.015.776l.043.282.028.269.076.321-.019.313-.279.154-.318.036-.067.019-.067.033-.191.1-.191.125-.118.234.137.24.261.085.278-.064.339-.112.364-.031.384-.007.384.021.243.013.242-.015.291-.039.276-.024a.521.521,0,0,0,.369-.209l.09-.13.076-.13.018-.273-.2-.173-.175-.025L94.524,353l-.094-.088-.012-.025-.013-.04c-.031-.233-.064-.466-.1-.7a2.105,2.105,0,0,1,.025-.709,5.394,5.394,0,0,0,.084-1.708,4.32,4.32,0,0,1-.01-.537,2.183,2.183,0,0,1,.1-.545m-7.227.618.064.219.042.166.069.11.115.051a.436.436,0,0,0,.537-.264,1.983,1.983,0,0,0,.206-.563,3.648,3.648,0,0,1,.063-.406l.075-.394.033-.181-.009-.176q-.013-.515-.5-.309l-.2.112a.421.421,0,0,0-.276.337.4.4,0,0,1-.3.312q-.4.1-.787.17t-.784.13a1.872,1.872,0,0,1-.366.046l-.175-.06-.063-.164-.042-.3.022-.219c.067-.388.124-.773.169-1.158s.088-.769.128-1.154a2.285,2.285,0,0,1,.057-.345l.1-.185.19-.085c.082-.016.191-.034.327-.055l.067-.006a6.561,6.561,0,0,0,1.427-.206,4.629,4.629,0,0,1,.817-.133c.269-.019.543-.036.821-.052l.131.016.066.076.037.091a4.675,4.675,0,0,0-.128.467,1.122,1.122,0,0,0-.009.457c.069.284.239.355.514.213l.167-.069.169-.084.19-.146.088-.2c.027-.255.048-.508.06-.754s.024-.5.033-.751l-.007-.067a.222.222,0,0,0-.2-.227l-.164-.027-.182.016c-.145.022-.287.048-.422.078a3.469,3.469,0,0,1-.436.066q-1.606.141-3.2.443a6.966,6.966,0,0,1-1.138.14,4.138,4.138,0,0,0-.743.079q-.369.072-.754.161a.37.37,0,0,0-.255.267l-.061.209a.41.41,0,0,0,.417.481.256.256,0,0,1,.261.316,5.518,5.518,0,0,0-.075,1.218l-.009.279-.037.3q-.074.824-.158,1.626t-.088,1.606a1.138,1.138,0,0,1-.045.425,1.763,1.763,0,0,0-.081.511c0,.163.006.331.015.5a6.4,6.4,0,0,1,.03.658,3.162,3.162,0,0,1-.078.679.441.441,0,0,1-.29.339l-.213.066-.215.067-.175.069-.175.07-.134.134-.045.167.006.081.025.134.027.134.175.236.3.034c.164-.042.33-.079.493-.11a4.577,4.577,0,0,1,.5-.072l.176-.022.179-.049a9.847,9.847,0,0,1,1.1-.246q.544-.087,1.114-.166c.49-.07.975-.127,1.457-.175s.966-.1,1.454-.148l.361-.066.354-.133a.5.5,0,0,0,.322-.4q.051-.358.09-.721t.076-.721v-.136l-.072-.151-.148-.063-.182.024-.172.034a.731.731,0,0,0-.363.278l-.166.306-.088.328-.109.275-.27.152-.146.046-.143.034c-.236.039-.472.075-.708.109s-.475.061-.718.084c-.181.024-.357.045-.527.06a2.277,2.277,0,0,0-.534.115l-.313.061-.324.021-.115-.045-.055-.116-.006-.069-.006-.067a2.753,2.753,0,0,0,.03-.539c-.009-.176-.016-.355-.024-.536v-.388c0-.131.01-.266.016-.4.009-.184.018-.36.022-.533a4.544,4.544,0,0,0-.018-.53l.013-.327.054-.318.051-.093.088-.082.343-.085.29-.018.281-.058a2.684,2.684,0,0,1,.654-.112c.215-.01.439-.03.675-.06m-6.4-3.793.018-.5-.052-.233-.149-.185-.181-.031-.157.061-.146.17-.148.182-.191.072-.2-.043-.2-.072a3.167,3.167,0,0,0-.754-.2,6.43,6.43,0,0,0-.8-.058,4.329,4.329,0,0,0-1.129.139,3.263,3.263,0,0,0-1.075.517,2.7,2.7,0,0,0-.417.369,1.637,1.637,0,0,0-.3.482,4.276,4.276,0,0,0-.284.984,4.881,4.881,0,0,0-.055.991l.057.307.124.288.09.136.09.148a3.018,3.018,0,0,0,.575.7,2.432,2.432,0,0,0,.77.463q.439.195.869.373a8.839,8.839,0,0,0,.9.316,3.3,3.3,0,0,1,.4.175l.361.248.151.13.164.128a.872.872,0,0,1,.294.422,2.627,2.627,0,0,1-.106,1.9,1.283,1.283,0,0,1-.4.5,1.927,1.927,0,0,1-.554.267l-.278.058-.291.018-.275-.009-.275-.066a7.5,7.5,0,0,1-.806-.4,1.941,1.941,0,0,1-.652-.617,1.533,1.533,0,0,0-.561-.467l-.216.006-.179.124-.049.058-.022.07a5.177,5.177,0,0,0-.263.955,9.142,9.142,0,0,0-.113.969l.046.2a.291.291,0,0,0,.355.24.8.8,0,0,0,.421-.124.722.722,0,0,0,.2-.379l.049-.242.049-.257.07-.073.107-.01.172.094a3.563,3.563,0,0,0,2.371.718h.1l.1-.016a5.522,5.522,0,0,0,.79-.266,3.425,3.425,0,0,0,.742-.439l.313-.279.219-.339.187-.33a.938.938,0,0,0,.293-.488,3.041,3.041,0,0,0,.067-.536l.009-.273a2.3,2.3,0,0,0-.027-.6,4.674,4.674,0,0,0-.134-.554,3.955,3.955,0,0,0-.2-.52l-.245-.509-.064-.076-.066-.075a2.99,2.99,0,0,0-.755-.7c-.29-.188-.575-.382-.854-.585l-.094-.039-.093-.04-.325-.113-.312-.13c-.212-.081-.422-.164-.63-.251a2.374,2.374,0,0,1-.573-.337l-.1-.087-.07-.116a2.033,2.033,0,0,1-.2-.737,2.75,2.75,0,0,1,.073-.775,1.057,1.057,0,0,1,.66-.766,2.163,2.163,0,0,1,.557-.157,2.951,2.951,0,0,1,.734,0,6.964,6.964,0,0,1,.7.121l.29.179a4.249,4.249,0,0,0,.324.381,1.116,1.116,0,0,1,.254.439l.175.2.275.016.278-.215.066-.175.054-.175.024-.322Zm-10.623,5.283.067.218.046.167.07.109.116.051a.427.427,0,0,0,.531-.264,1.866,1.866,0,0,0,.2-.561c.012-.137.031-.272.055-.406l.069-.394.028-.179-.01-.176q-.022-.515-.509-.309l-.2.113a.408.408,0,0,0-.272.336.388.388,0,0,1-.294.312q-.4.1-.785.17c-.26.046-.52.088-.782.13a1.729,1.729,0,0,1-.366.045l-.176-.058-.066-.164-.048-.3.019-.219c.061-.387.109-.772.148-1.155s.075-.769.107-1.152a2.414,2.414,0,0,1,.051-.345l.1-.185.19-.084c.081-.016.19-.036.325-.057l.067-.006a6.356,6.356,0,0,0,1.426-.206,4.729,4.729,0,0,1,.815-.133c.27-.018.543-.036.821-.051l.133.015.067.076.039.093q-.074.237-.121.466a1.114,1.114,0,0,0,0,.455q.11.425.518.214l.166-.069.169-.084.187-.145.085-.2c.022-.257.037-.508.046-.752s.013-.5.018-.749l-.007-.067a.226.226,0,0,0-.207-.227L72.918,345l-.182.016c-.145.021-.285.048-.422.078a3.166,3.166,0,0,1-.434.064,32.289,32.289,0,0,0-3.2.443,6.8,6.8,0,0,1-1.138.14,4.16,4.16,0,0,0-.745.079q-.367.074-.751.161a.36.36,0,0,0-.251.267l-.058.209a.419.419,0,0,0,.427.479.261.261,0,0,1,.267.316,5.44,5.44,0,0,0-.054,1.215l0,.279-.033.3q-.058.822-.128,1.624a15.991,15.991,0,0,0-.061,1.6,1.129,1.129,0,0,1-.036.424,1.646,1.646,0,0,0-.072.511q0,.244.022.5a6.3,6.3,0,0,1,.043.655,3.23,3.23,0,0,1-.066.679.429.429,0,0,1-.285.337l-.212.067-.213.066-.175.07-.173.069-.133.134-.04.167.006.081.028.134.028.133.181.236.3.034c.164-.042.328-.078.493-.11a4.514,4.514,0,0,1,.5-.072l.176-.022.179-.049a9.4,9.4,0,0,1,1.093-.245q.544-.09,1.112-.166.734-.105,1.456-.175c.482-.048.967-.1,1.454-.148l.36-.066.354-.133a.486.486,0,0,0,.316-.4q.045-.356.076-.721c.021-.242.042-.481.063-.72v-.136l-.073-.149-.149-.063-.184.024-.17.034a.725.725,0,0,0-.358.276l-.161.308-.082.327-.1.275-.267.152-.145.046-.145.033c-.236.039-.47.076-.706.109s-.473.063-.717.084c-.181.025-.357.045-.528.06a2.331,2.331,0,0,0-.531.115l-.314.061-.324.022-.116-.045-.057-.118-.007-.067-.007-.067a2.734,2.734,0,0,0,.019-.539c-.01-.176-.022-.354-.033-.534l-.006-.387c0-.133,0-.266.007-.4.007-.182.012-.358.013-.531a4.574,4.574,0,0,0-.027-.529l.007-.327.048-.316.049-.093.087-.084.343-.084.29-.019.279-.058a2.728,2.728,0,0,1,.652-.111c.216-.01.44-.03.676-.06m-12.51-1.83q0-.273,0-.537c-.006-.176-.007-.355,0-.536l.012-.246.024-.248a.448.448,0,0,1,.425-.431c.145-.021.288-.039.433-.051a2.8,2.8,0,0,1,.418-.009c.3.009.606.028.9.057a2.426,2.426,0,0,1,.845.239.805.805,0,0,1,.345.324,3.519,3.519,0,0,1,.3,1.5l-.03.179-.043.167c-.048.158-.1.311-.157.455s-.112.294-.169.443a1.158,1.158,0,0,1-.442.59,1.739,1.739,0,0,1-.664.242l-.082.007c-.269.006-.539.015-.809.03l-.809.043-.134-.015c-.179-.012-.273-.09-.279-.234l-.042-.336-.013-.354c-.006-.217,0-.431,0-.646s.015-.424.018-.633Zm.124,2.927a2.656,2.656,0,0,1,.642-.11,2.935,2.935,0,0,1,.627.04.823.823,0,0,1,.467.231l.272.261.285.234a.846.846,0,0,1,.3.449,2.991,2.991,0,0,1,.172.964c.006.19.021.376.043.561s.052.364.085.543a1.84,1.84,0,0,0,.29.811,2.3,2.3,0,0,0,.59.594,3.9,3.9,0,0,0,.467.273l.308.088.291-.025c.1-.022.249-.046.439-.073a.979.979,0,0,0,.53-.23,2,2,0,0,0,.385-.448,1.731,1.731,0,0,0,.233-.987c-.015-.143-.109-.225-.279-.248l-.216.033-.149.136-.072.184-.07.155-.143.163-.224.033a.675.675,0,0,1-.518-.39l-.1-.291-.076-.306q-.06-.334-.1-.658c-.028-.215-.067-.428-.116-.642a3.18,3.18,0,0,0-.179-.6,1.3,1.3,0,0,0-.355-.493l-.27-.3-.258-.31-.012-.06.042-.064.355-.263.369-.264a.769.769,0,0,0,.358-.439q.112-.282.224-.551c.076-.178.151-.361.225-.549a2.361,2.361,0,0,0,.116-.466,2.475,2.475,0,0,0,.021-.458,2.4,2.4,0,0,0-.076-.666,3.483,3.483,0,0,0-.224-.614,1.129,1.129,0,0,0-.8-.664,4.235,4.235,0,0,0-.463-.124,3.864,3.864,0,0,1-.464-.122l-.282-.03-.284.012a6.232,6.232,0,0,1-.708.076,4.464,4.464,0,0,1-.708-.021l-.236-.006-.251.036c-.261.04-.52.087-.776.136l-.778.149a4.267,4.267,0,0,1-1.121.085,2.857,2.857,0,0,0-.634.042l-.258.118-.124.215.1.194a.726.726,0,0,0,.457.124l.243-.036.257-.022c.134-.012.21.055.225.2l.013.352v.354c0,.163-.013.33-.03.5a3.9,3.9,0,0,0-.015.512c0,.236-.013.473-.025.709s-.036.475-.067.714a2.657,2.657,0,0,0-.027.431c0,.14.006.282.012.427s.031.306.046.458a3.679,3.679,0,0,0,.073.457,2.02,2.02,0,0,1,.046.451,4.485,4.485,0,0,1-.036.473c-.03.184-.057.372-.078.564s-.046.385-.078.578a2.267,2.267,0,0,0-.013.776l.043.282.028.27.075.319-.018.315-.279.154-.318.034-.067.019-.069.033-.19.1-.191.125-.119.234.137.24.261.085.278-.064.339-.112.364-.031.385-.006.384.021.242.012.243-.015.291-.039.276-.024a.513.513,0,0,0,.367-.209l.091-.13.076-.13.018-.273-.2-.173-.176-.025-.175-.025-.093-.087-.013-.027-.012-.039c-.033-.233-.064-.467-.1-.7a2.067,2.067,0,0,1,.025-.709,5.436,5.436,0,0,0,.084-1.708,4.294,4.294,0,0,1-.01-.536,2.2,2.2,0,0,1,.1-.546" transform="translate(-37.664 -319.641)" fill="#fff3d8"/>
      </g>
    </g>
    <path id="Path_1748" data-name="Path 1748" d="M127,327.381s-8.691,0-8.691,8.691V469.916c0,.134.067,8.69,8.691,8.69h79.956s8.693,0,8.693-8.691V336.072s0-8.691-8.693-8.691Z" transform="translate(35.803 -193.381)" fill="none"/>
  </g>
</svg>
