<svg xmlns="http://www.w3.org/2000/svg" xmlns:xlink="http://www.w3.org/1999/xlink" width="14.78" height="19.878" viewBox="0 0 14.78 19.878">
  <defs>
    <clipPath id="clip-path">
      <rect id="Rectangle_678" data-name="Rectangle 678" width="14.78" height="19.878" transform="translate(292.362 72.988)" fill="none"/>
    </clipPath>
  </defs>
  <g id="Group_894" data-name="Group 894" transform="translate(-292.362 -72.988)">
    <g id="Group_547" data-name="Group 547">
      <g id="Group_546" data-name="Group 546" clip-path="url(#clip-path)">
        <path id="Path_2111" data-name="Path 2111" d="M296.2,92.866h.979c.4-1.633.805-3.264,1.21-4.9-.156,0-.3,0-.446,0a.083.083,0,0,0-.1.069c-.079.239-.162.477-.243.715l-1.233,3.611-.171.51m4.912-4.9c.4,1.64.807,3.271,1.21,4.9h.973a.49.49,0,0,0-.014-.063l-.61-1.788q-.315-.919-.627-1.841c-.129-.378-.257-.757-.389-1.134-.011-.03-.045-.073-.07-.074-.154-.007-.309,0-.473,0m-1.8,3.74c-.018.391-.035.776-.053,1.161h.978c-.018-.391-.036-.775-.054-1.161Zm.791-1.7h-.71c-.013.252-.025.5-.037.752.036,0,.065,0,.1,0h.5c.19,0,.191,0,.183-.185s-.019-.379-.029-.571m-.056-1.178h-.6c-.008.177-.017.35-.026.528h.651c-.009-.179-.018-.353-.026-.528m-.576-.473h.552c-.007-.131-.013-.256-.02-.383H299.5c-.007.127-.014.25-.021.383" fill="#1a1311"/>
        <path id="Path_2112" data-name="Path 2112" d="M296.6,85.575c-1.493-.141-3.1-1.282-3.1-2.869a8.918,8.918,0,0,1,.582-2.6,6.54,6.54,0,0,0,.416-1.676,6.071,6.071,0,0,0-1-2.4l-.078-.116,2-1.871.111.093a2.874,2.874,0,0,0,1.883.683h0a4.5,4.5,0,0,0,2.246-.693l.092-.062.093.062a4.523,4.523,0,0,0,2.253.693,2.875,2.875,0,0,0,1.885-.683l.112-.093,1.993,1.871-.079.116a6.078,6.078,0,0,0-1,2.4,6.54,6.54,0,0,0,.416,1.676,8.918,8.918,0,0,1,.582,2.6,3.218,3.218,0,0,1-3.1,2.869,5.182,5.182,0,0,0-3.151,1.087s-.743-.859-3.155-1.087" fill="#fff3d8"/>
        <path id="Path_2113" data-name="Path 2113" d="M296.6,85.575c-1.493-.141-3.1-1.282-3.1-2.869a8.918,8.918,0,0,1,.582-2.6,6.54,6.54,0,0,0,.416-1.676,6.071,6.071,0,0,0-1-2.4l-.078-.116,2-1.871.111.093a2.874,2.874,0,0,0,1.883.683h0a4.5,4.5,0,0,0,2.246-.693l.092-.062.093.062a4.523,4.523,0,0,0,2.253.693,2.875,2.875,0,0,0,1.885-.683l.112-.093,1.993,1.871-.079.116a6.078,6.078,0,0,0-1,2.4,6.54,6.54,0,0,0,.416,1.676,8.918,8.918,0,0,1,.582,2.6,3.218,3.218,0,0,1-3.1,2.869,5.182,5.182,0,0,0-3.151,1.087S299.01,85.8,296.6,85.575Z" fill="none" stroke="#1a1311" stroke-miterlimit="10" stroke-width="0.904"/>
      </g>
    </g>
    <text id="_3" data-name="3" transform="translate(296.739 83.969)" fill="#1a1311" font-size="10.76" font-family="Arial-BoldMT, Arial" font-weight="700"><tspan x="0" y="0">3</tspan></text>
  </g>
</svg>
