<svg xmlns="http://www.w3.org/2000/svg" width="194.799" height="194.8" viewBox="0 0 194.799 194.8">
  <g id="Group_872" data-name="Group 872" transform="translate(-177 -106)">
    <path id="Path_3514" data-name="Path 3514" d="M0,0H194.8V194.8H0Z" transform="translate(177 106.003)" fill="#fff3d8"/>
    <path id="Path_3447" data-name="Path 3447" d="M295.322,243.269h194.8v-.687h-194.8" transform="translate(-118.322 -20.388)" fill="#1a1311"/>
    <path id="Path_3453" data-name="Path 3453" d="M389.337,183.744h194.8v-.687h-194.8" transform="translate(-212.337 -38.783)" fill="#1a1311"/>
    <path id="Path_3454" data-name="Path 3454" d="M389.337,273.031h194.8v-.687h-194.8" transform="translate(-212.337 -11.191)" fill="#1a1311"/>
    <path id="Path_3456" data-name="Path 3456" d="M418.837,149.355V231h.687V149.355" transform="translate(-163.999 69.803)" fill="#1a1311"/>
    <path id="Path_3459" data-name="Path 3459" d="M295.322,243.269h194.8v-.687h-194.8" transform="translate(-118.323 -59.388)" fill="#1a1311"/>
    <path id="Path_3458" data-name="Path 3458" d="M418.837,149.355v194.8h.687v-194.8" transform="translate(-124.999 -43.352)" fill="#1a1311"/>
    <path id="Path_3457" data-name="Path 3457" d="M418.837,149.355v194.8h.687v-194.8" transform="translate(-163.999 -43.352)" fill="#1a1311"/>
    <path id="Path_3452" data-name="Path 3452" d="M329.549,242.582v194.8h.687v-194.8" transform="translate(-113.59 -136.579)" fill="#1a1311"/>
    <path id="Path_3451" data-name="Path 3451" d="M418.837,242.844v194.8h.687v-194.8" transform="translate(-85.999 -136.842)" fill="#1a1311"/>
    <rect id="Rectangle_770" data-name="Rectangle 770" width="38" height="116" transform="translate(333 106)" fill="#d2d2d3"/>
    <rect id="Rectangle_771" data-name="Rectangle 771" width="38" height="116" transform="translate(371 107) rotate(90)" fill="#d2d2d3"/>
    <rect id="Rectangle_773" data-name="Rectangle 773" width="38" height="116" transform="translate(178 184)" fill="#d2d2d3"/>
    <rect id="Rectangle_777" data-name="Rectangle 777" width="38" height="116" transform="translate(294 262) rotate(90)" fill="#d2d2d3"/>
    <path id="Path_3455" data-name="Path 3455" d="M300.474,154.506h-.687V348.617h194.8v-194.8h-194.8v.687h.687v.687H493.211v192.05H301.161V154.506h-.687v0Z" transform="translate(-122.787 -47.818)" fill="#1a1311"/>
    <line id="Line_12" data-name="Line 12" y2="18" transform="translate(274.5 107.5)" fill="none" stroke="#1a1311" stroke-width="1" stroke-dasharray="5 4"/>
    <line id="Line_13" data-name="Line 13" x1="77" transform="translate(274.5 125.5)" fill="none" stroke="#1a1311" stroke-width="1" stroke-dasharray="5 4"/>
    <line id="Line_15" data-name="Line 15" y2="79" transform="translate(198 202)" fill="none" stroke="#1a1311" stroke-width="1" stroke-dasharray="5 4"/>
    <line id="Line_16" data-name="Line 16" y1="80" transform="translate(351 126)" fill="none" stroke="#1a1311" stroke-width="1" stroke-dasharray="5 4"/>
    <line id="Line_18" data-name="Line 18" y2="18" transform="translate(371.5 204.5) rotate(90)" fill="none" stroke="#1a1311" stroke-width="1" stroke-dasharray="5 4"/>
    <line id="Line_19" data-name="Line 19" x2="18" transform="translate(178.5 203.5)" fill="none" stroke="#1a1311" stroke-width="1" stroke-dasharray="5 4"/>
    <path id="Path_3468" data-name="Path 3468" d="M360.424,320.987v-77.88h-1.374v77.88" transform="translate(-26.474 -98.107)" fill="#1a1311"/>
    <path id="Path_3469" data-name="Path 3469" d="M360.424,322.107v-79h-1.374v79" transform="translate(577.057 -215.24) rotate(90)" fill="#1a1311"/>
    <path id="Path_3470" data-name="Path 3470" d="M360.424,281.835V243.107h-1.374v38.728" transform="translate(459.41 -176.24) rotate(90)" fill="#1a1311"/>
    <line id="Line_20" data-name="Line 20" x1="77" transform="translate(197.5 282.5)" fill="none" stroke="#1a1311" stroke-width="1" stroke-dasharray="5 4"/>
    <line id="Line_21" data-name="Line 21" y1="18" transform="translate(275.5 282.5)" fill="none" stroke="#1a1311" stroke-width="1" stroke-dasharray="5 4"/>
    <path id="Path_3507" data-name="Path 3507" d="M360.424,282.068V243.107h-1.374v38.961" transform="translate(-105.474 -137.107)" fill="#1a1311"/>
    <path id="Path_3513" data-name="Path 3513" d="M360.424,280.531V243.107h-1.374v37.424" transform="translate(614.057 -137.24) rotate(90)" fill="#1a1311"/>
    <path id="Path_3515" data-name="Path 3515" d="M360.424,281.572V243.107h-1.374v38.464" transform="translate(-65.474 18.389)" fill="#1a1311"/>
    <g id="Group_873" data-name="Group 873" transform="translate(-238.857 -308.383)">
      <g id="Group_846" data-name="Group 846" transform="translate(532.857 453.383)">
        <rect id="Rectangle_774" data-name="Rectangle 774" width="39" height="39" transform="translate(0)" fill="#fcd41d"/>
      </g>
      <g id="lemonade-with-straw" transform="translate(538.197 456.816)">
        <g id="Group_847" data-name="Group 847" transform="translate(0.078 0)">
          <path id="Path_3492" data-name="Path 3492" d="M11.616,5.285c-.7-.321-2.249.7-1.821,1.232a211.346,211.346,0,0,0,4.016,23.4c2.035,1.767,7.657,2.463,8.835-.428.589-5.676,1.124-11.4,1.874-17.027,7.925,2.088,9.21-9.692,2.356-11.833-3.748-1.178-6.907,2.3-7.229,4.337m0,.054c-.054-.161-2.142-.321-6.211.107a15.581,15.581,0,0,0-1.66-4.5c.482.268-.054-.482-.268-.482,0-.054-.054-.054-.107-.054A18.923,18.923,0,0,0,3.959,1.644c-.054-.161-.321-.054-.214.107H3.691c0-.107-.107,0-.161.107-.054,0-.107.054-.054.107-.107.428.107,1.392.643,1.339.107.054.107,0,.161-.054C6.261,2.822,8.671,1.7,10.652,2.126c.857,1.553.964,3.587,1.285,5.3" transform="translate(-3.45 -0.081)" fill="#f4eb95"/>
        </g>
        <g id="Group_848" data-name="Group 848" transform="translate(21.963 7.239)">
          <path id="Path_3493" data-name="Path 3493" d="M47.844,15.849c-2.57-2.838-3.373-2.517-.161.107a3.769,3.769,0,0,1-3.106,1.285c-.107-1.124.482-2.838.268-3.641-.161,1.017-.91,3.159-.268,3.695C45.488,17.776,48.058,16.92,47.844,15.849Z" transform="translate(-44.322 -13.6)" fill="#1d1d1b"/>
        </g>
        <g id="Group_849" data-name="Group 849" transform="translate(23.183 4.325)">
          <path id="Path_3494" data-name="Path 3494" d="M49.277,8.181c-.054-.054-.107,0-.107.054a6.456,6.456,0,0,1-2.3,1.446c.054.589,2.088-.8,2.41-1.232.375,1.124,1.232,3,.214,3.855-1.071-.161-2.088-2.035-2.891-2.088.857.589,2.035,2.624,3,2.142C50.669,11.5,49.973,9.091,49.277,8.181Z" transform="translate(-46.6 -8.159)" fill="#1d1d1b"/>
        </g>
        <g id="Group_850" data-name="Group 850" transform="translate(22.16 2.092)">
          <path id="Path_3495" data-name="Path 3495" d="M47.961,5.494c-.375-.964-2.249-1.821-3.106-1.392-.535,3.159.428,4.016.054.054,3.266.321,3.587,2.142.375,3.159C45.927,7.314,48.176,6.565,47.961,5.494Z" transform="translate(-44.69 -3.988)" fill="#1d1d1b"/>
        </g>
        <g id="Group_851" data-name="Group 851" transform="translate(18.321 2.032)">
          <path id="Path_3496" data-name="Path 3496" d="M40.882,3.942c-.857-.375-3.748.91-3.32,2.035,2.356,1.66,4.016,1.339.107,0C37.937,4.8,39.6,4.264,40.722,4c.643.589-.321,2.463.161,2.891C40.936,6.459,41.418,4.157,40.882,3.942Z" transform="translate(-37.52 -3.876)" fill="#1d1d1b"/>
        </g>
        <g id="Group_852" data-name="Group 852" transform="translate(19.083 7.419)">
          <path id="Path_3497" data-name="Path 3497" d="M40.419,16.487c-1.767-.7-1.017-1.446-.054-2.517-.054-.321-2.035,1.713-1.232,2.035C39.295,16.166,40.633,17.022,40.419,16.487Z" transform="translate(-38.943 -13.936)" fill="#1d1d1b"/>
        </g>
        <g id="Group_853" data-name="Group 853" transform="translate(0 0.024)">
          <path id="Path_3498" data-name="Path 3498" d="M20.168,6.537a5.82,5.82,0,0,1,.054-.964A5.82,5.82,0,0,0,20.168,6.537Zm0,0a5.82,5.82,0,0,1,.054-.964A5.82,5.82,0,0,0,20.168,6.537Zm0,0a5.82,5.82,0,0,1,.054-.964A5.82,5.82,0,0,0,20.168,6.537Zm0,0a5.82,5.82,0,0,1,.054-.964A5.82,5.82,0,0,0,20.168,6.537ZM26.7.647c-4.23-1.285-8.621,3.32-7.068,7.443a25.95,25.95,0,0,1-5.783-.161c-.161-.857-.321-1.713-.482-2.624,7.817.161,7.6-.964-.054-.161a15.581,15.581,0,0,0-1.66-4.5c.482.268-.054-.482-.268-.482,0-.054-.054-.054-.107,0a17.8,17.8,0,0,0-7.443,1.5c-.107-.161-.321-.054-.214.107H3.569c-.054-.107-.161,0-.161.107-.054,0-.107.054-.054.107-.161.428.054,1.392.643,1.339.054.054.107-.054.107-.107,1.981-.375,4.391-1.5,6.425-1.124.857,1.553.964,3.587,1.285,5.3-.7-.268-1.178-.643-1.178-1.071a.08.08,0,1,0-.161,0c-.214.857.482,1.339,1.446,1.553.161.857.321,1.767.535,2.677-.214-.107-.91.107-.8.268.214-.161.535-.107.8-.161a9.08,9.08,0,0,1,.214,1.178c-.91-.107-1.553-1.66-1.232-.535.75,5.89,1.981,11.78,3.052,17.616-.482-5.354-1.928-11.833-3-17.509a2.429,2.429,0,0,0,1.232.75l2.41,12.208c.375.535,1.928.321,1.767-.375-.7-3.8-1.446-7.6-2.2-11.4,3.213.482,7.71.321,8.246-.8a6.3,6.3,0,0,0,1.071.375,161.613,161.613,0,0,0-1.66,17.455c-1.821,2.41-6.265,1.767-8.514.268-1.5-7.817-2.624-15.689-4.069-23.506a1.768,1.768,0,0,1,1.553-.75c.161,0,.161-.214.054-.268-.7-.321-2.2.7-1.713,1.232a211.346,211.346,0,0,0,4.016,23.4c2.035,1.767,7.657,2.463,8.835-.428.643-5.676,1.124-11.4,1.874-17.027C32.269,14.569,33.661,2.628,26.7.647ZM4.051,3.11H4a1.128,1.128,0,0,1-.375-1.178l.054-.054A1.545,1.545,0,0,1,4.051,3.11Zm7.71,2.677a10.271,10.271,0,0,0-1.071-3.641c.268,0,0-.214-.107-.214,0-.054-.054-.054-.107,0-2.142-.321-4.284.643-6.265,1.124a1.434,1.434,0,0,0-.268-1.232C6.247,1.236,8.924-.1,11.387.486a28.59,28.59,0,0,1,2.249,7.443,9.452,9.452,0,0,1-1.553-.375C11.976,6.912,11.869,6.376,11.762,5.787Zm.428,2.2a14.433,14.433,0,0,0,1.5.214c.268,1.392.482,2.784.8,4.123-.589-.107-1.071-.214-1.5-.321C12.672,10.606,12.4,9.321,12.19,7.983Zm4.6,16.117a1.35,1.35,0,0,1-1.392.268c-.75-4.016-1.553-8.085-2.356-12.1a6.177,6.177,0,0,0,1.5.321C15.3,16.443,15.992,20.3,16.795,24.1Zm5.943-12.369c-.75.91-4.98,1.124-8.032.643a16.093,16.093,0,0,0-.375-1.713c8.781.321,7.71-.7-.054-.161-.161-.75-.268-1.5-.428-2.249,2.41.054,3.213.268,5.836.321a7.239,7.239,0,0,0,3.052,3.159Zm1.339.161a6.5,6.5,0,0,1-3.962-3.427h.428a4.781,4.781,0,0,0,3.641,2.945A1.563,1.563,0,0,0,24.077,11.891Zm.107-.643A5.755,5.755,0,0,1,20.7,8.465a3.616,3.616,0,0,0,.75-.107,3.44,3.44,0,0,0,2.463-1.232.869.869,0,0,1,.91.375C24.559,8.732,24.345,9.964,24.184,11.249ZM24.13,5.787a.879.879,0,0,0,1.178-.375c.107.375.482.7.8.589A.854.854,0,0,0,26,6.8c-.589.214-.91.535-.91.7a2.411,2.411,0,0,0-.107-1.285,7.581,7.581,0,0,1-.214,1.071.717.717,0,0,0-.75-.428A1.1,1.1,0,0,0,24.13,5.787Zm.375,6.532h0v-.589C31.573,13.444,32.858,3,26.379,1.45a4.794,4.794,0,0,0-6.1,4.016,4.984,4.984,0,0,1,6.051-3.8c6.211,1.5,5.087,11.459-1.767,9.852,0-1.071.482-2.731.589-3.962,0,.161.321.107,1.017-.482.107.161.428.107.268-.107.054-.054,0-.107-.054-.107a.537.537,0,0,1,.107-.8c.054-.054,0-.107-.054-.107-.054-.268-.428,0-.589-.161-.321,0-.214-.91-.428-.535-.268,0-.321.375-.589.428-.268.214-.643-.161-.8,0-.214.214.214.589.054.857-.428.107-.428.75-1.124.91.107-.214.91-.964.428-.91A2.467,2.467,0,0,1,21.4,7.929c-1.178-3.748.054-2.624,2.3-1.713-2.624-1.981-3.534-1.5-2.517,1.767-.214.054-.375.054-.589.107A7.377,7.377,0,0,1,20.275,6.7a4.51,4.51,0,0,0,.214,1.446c-.161,0-.321.054-.482.054-1.5-3.909,2.677-8.353,6.747-7.121C33.179,2.789,32,13.98,24.505,12.32Zm-4.23-6.693a2.925,2.925,0,0,0-.054.964A2.756,2.756,0,0,1,20.275,5.627Zm-.107.91a5.82,5.82,0,0,1,.054-.964A5.82,5.82,0,0,0,20.168,6.537Zm0,0a5.82,5.82,0,0,1,.054-.964A5.82,5.82,0,0,0,20.168,6.537Zm0,0a5.82,5.82,0,0,1,.054-.964A5.82,5.82,0,0,0,20.168,6.537Zm0,0a5.82,5.82,0,0,1,.054-.964A5.82,5.82,0,0,0,20.168,6.537Z" transform="translate(-3.304 -0.125)" fill="#1d1d1b"/>
        </g>
        <g id="Group_854" data-name="Group 854" transform="translate(0.265 1.777)">
          <path id="Path_3499" data-name="Path 3499" d="M4.281,4.632H4.227a1.128,1.128,0,0,1-.375-1.178L3.906,3.4A1.545,1.545,0,0,1,4.281,4.632Z" transform="translate(-3.798 -3.4)" fill="#939169"/>
        </g>
        <g id="Group_855" data-name="Group 855" transform="translate(9.743 12.165)">
          <path id="Path_3500" data-name="Path 3500" d="M25.248,34.633a1.35,1.35,0,0,1-1.392.268c-.75-4.016-1.553-8.085-2.356-12.1a6.177,6.177,0,0,0,1.5.321C23.749,26.976,24.445,30.832,25.248,34.633Z" transform="translate(-21.5 -22.8)" fill="#939169"/>
        </g>
        <g id="Group_856" data-name="Group 856" transform="translate(8.886 7.881)">
          <path id="Path_3501" data-name="Path 3501" d="M22.2,19.137c-.589-.107-1.071-.214-1.5-.321L19.9,14.8a14.433,14.433,0,0,0,1.5.214C21.667,16.406,21.881,17.745,22.2,19.137Z" transform="translate(-19.9 -14.8)" fill="#939169"/>
        </g>
        <g id="Group_857" data-name="Group 857" transform="translate(0.641 0.239)">
          <path id="Path_3502" data-name="Path 3502" d="M14.192,8.062a9.452,9.452,0,0,1-1.553-.375c-.107-.589-.214-1.124-.321-1.713a10.271,10.271,0,0,0-1.071-3.641c.268,0,0-.214-.107-.214,0-.054-.054-.054-.107,0C8.891,1.8,6.749,2.761,4.768,3.243A1.434,1.434,0,0,0,4.5,2.012C6.8,1.423,9.48.084,11.943.673A26.324,26.324,0,0,1,14.192,8.062Z" transform="translate(-4.5 -0.526)" fill="#939169"/>
        </g>
        <g id="Group_858" data-name="Group 858" transform="translate(11.978 24.112)">
          <path id="Path_3503" data-name="Path 3503" d="M30.614,47.783c-2.2-3.748-1.874-3.159-4.873-.643-.482.535,1.767,3,1.981,2.624-.428-.428-2.249-2.142-1.713-2.731,1.5-.589,2.463-3,3.534-.589C29.811,46.659,30.4,48.265,30.614,47.783Z" transform="translate(-25.674 -45.112)" fill="#1d1d1b"/>
        </g>
        <g id="Group_859" data-name="Group 859" transform="translate(14.027 26.938)">
          <path id="Path_3504" data-name="Path 3504" d="M32.284,50.449c-.7.91-1.446,2.035-2.784,1.874,1.017.643,2.409-.857,2.945-1.821C32.5,50.4,32.338,50.342,32.284,50.449Z" transform="translate(-29.5 -50.391)" fill="#1d1d1b"/>
        </g>
        <g id="Group_860" data-name="Group 860" transform="translate(11.403 12.004)">
          <path id="Path_3505" data-name="Path 3505" d="M31.507,39.367c.75-5.569,1.017-11.3,1.446-16.867-.75,1.553-.428,4.926-.857,7.121,0-.054-.054-.054-.107,0a5.454,5.454,0,0,0-3.909-.8c-.321,1.071-.7,3.159-.161,3.909a11.809,11.809,0,0,1,.375-3.855c1.232.161,2.677.107,3.695.91a9.105,9.105,0,0,1-.75,3.534c-1.071.428-2.731-.482-3.534-.375.964.321,2.463,1.017,3.48.535.375,0,.535-.964.75-1.339a63.931,63.931,0,0,0-.428,7.229,6.336,6.336,0,0,1-6.907.054C25.885,41.026,30.329,41.026,31.507,39.367Z" transform="translate(-24.6 -22.5)" fill="#1d1d1b"/>
        </g>
      </g>
    </g>
    <g id="Group_874" data-name="Group 874" transform="translate(-108.96 -252.346)">
      <rect id="Rectangle_774-2" data-name="Rectangle 774" width="38.656" height="38.656" transform="translate(325.457 474.843)" fill="#c5352f"/>
      <path id="Path_3476" data-name="Path 3476" d="M336.549,488.686v0Z" transform="translate(5.795 7.153)"/>
      <path id="Path_3477" data-name="Path 3477" d="M336.549,490.562v0Z" transform="translate(5.795 8.157)"/>
      <path id="Path_3478" data-name="Path 3478" d="M336.549,489.91v0Z" transform="translate(5.795 7.823)"/>
      <path id="Path_3479" data-name="Path 3479" d="M336.549,493.935v0Z" transform="translate(5.795 9.883)"/>
      <path id="Path_3480" data-name="Path 3480" d="M336.549,492.565v0Z" transform="translate(5.795 9.195)"/>
      <path id="Path_3481" data-name="Path 3481" d="M336.549,491.92v0Z" transform="translate(5.795 8.812)"/>
      <path id="Path_3482" data-name="Path 3482" d="M336.549,493.232v0Z" transform="translate(5.795 9.54)"/>
      <path id="Path_3483" data-name="Path 3483" d="M336.549,494.633v0Z" transform="translate(5.795 10.237)"/>
      <path id="Path_3484" data-name="Path 3484" d="M336.549,495.411v0Z" transform="translate(5.795 10.619)"/>
      <path id="Path_3485" data-name="Path 3485" d="M336.549,496.092v0Z" transform="translate(5.795 10.999)"/>
      <path id="Path_3486" data-name="Path 3486" d="M336.549,489.239v0Z" transform="translate(5.795 7.469)"/>
      <path id="Path_3487" data-name="Path 3487" d="M336.549,491.3v0Z" transform="translate(5.795 8.503)"/>
      <g id="Group_766" data-name="Group 766" transform="matrix(0.995, 0.105, -0.105, 0.995, 338.633, 475.439)">
        <path id="Path_2634" data-name="Path 2634" d="M1.934,33.792S.061,33,.024,31.76a8.5,8.5,0,0,1,.487-3.8c.6-1.656,1.947-5.344,1.947-5.344l.487-2.709s1.535-3.763,1.647-3.951,1.686-2.032,2.06-2.522S8.34,10.2,8.34,10.2l1.722-4.364.524-1.919s-.037-1.28.412-1.468a2.808,2.808,0,0,1,2.7-.113l.374.15L15.493,0l.486.112.038.451L14.707,3.048s.524.79.374,1.166-.187.451-.187.451,0,1.092-.412,1.317L13.47,10.009l-.486,3.124-.038,1.5.15,1.731-.037.678v1.995a4.931,4.931,0,0,1,0,1.054c-.075.188-.3,1.091-.3,1.091L11.71,24.648l-1.461,5.192L8.34,34.206Z" transform="translate(0.166 0.224)" fill="#c86f67"/>
        <path id="Path_2635" data-name="Path 2635" d="M0,0H0Z" transform="translate(13.394 5.075)" fill="#1a1311"/>
        <path id="Path_2636" data-name="Path 2636" d="M.427.09.37.289.128.318,0,.4c.043.029.171.17.313.1S.6.19.54.062.427.034.427.09" transform="translate(7.123 15.754)" fill="#1a1311"/>
        <path id="Path_2637" data-name="Path 2637" d="M.015.294C.058.418.154.521.272.46A.242.242,0,0,0,.421.169.2.2,0,0,0,.154.013a.207.207,0,0,0-.139.28" transform="translate(6.363 30.381)" fill="#1a1311"/>
        <path id="Path_2638" data-name="Path 2638" d="M.182,0,0,.16.118.352.246.383l.181-.1L.437.021Z" transform="translate(11.079 12.735)" fill="#1a1311"/>
        <path id="Path_2639" data-name="Path 2639" d="M.288,0,.16.021,0,.213l.01.17L.118.437.352.394.373.2Z" transform="translate(11.251 12.002)" fill="#1a1311"/>
        <path id="Path_2640" data-name="Path 2640" d="M.064.277H.139L.185.237l.05.211L.458.406l.033-.1L.458.192.383.16.288.128.242.106.213.064.118,0,0,.118Z" transform="translate(11.198 11.495)" fill="#1a1311"/>
        <path id="Path_2641" data-name="Path 2641" d="M0,.437.18.586.458.394.437.213.373.064.267,0,0,.1Z" transform="translate(11.251 10.816)" fill="#1a1311"/>
        <path id="Path_2642" data-name="Path 2642" d="M.224.694.3.5V.374L.219.3.277.236.33,0,.085.033,0,.107l.17.17L0,.416.021.629Z" transform="translate(10.907 11.981)" fill="#1a1311"/>
        <path id="Path_2643" data-name="Path 2643" d="M0,.1.143.255.257.128.1,0Z" transform="translate(8.997 18.748)" fill="#1a1311"/>
        <path id="Path_2644" data-name="Path 2644" d="M0,.1.143.255.256.128.1,0Z" transform="translate(11.51 20.098)" fill="#1a1311"/>
        <path id="Path_2645" data-name="Path 2645" d="M.1,0,0,.1.143.256.256.128Z" transform="translate(8.553 19.021)" fill="#1a1311"/>
        <path id="Path_2646" data-name="Path 2646" d="M.143.257H.152L.072.441C.213.6.385.516.327.285L.2.243.257.128.1,0,0,.1Z" transform="translate(9.11 17.987)" fill="#1a1311"/>
        <path id="Path_2647" data-name="Path 2647" d="M.143.257H.152L.072.441C.213.6.385.516.327.285L.2.243.257.128.1,0,0,.1Z" transform="translate(11.866 19.265)" fill="#1a1311"/>
        <path id="Path_2648" data-name="Path 2648" d="M.1,0,0,.1.143.257.255.128Z" transform="translate(9.483 16.706)" fill="#1a1311"/>
        <path id="Path_2649" data-name="Path 2649" d="M.1,0,0,.1.143.257.255.128Z" transform="translate(9.827 15.125)" fill="#1a1311"/>
        <path id="Path_2650" data-name="Path 2650" d="M.255.029.085,0,0,.1.212.213Z" transform="translate(9.198 17.108)" fill="#1a1311"/>
        <path id="Path_2651" data-name="Path 2651" d="M.142.285c.2.1.213,0,.213-.17,0-.128-.2-.128-.284-.1s-.128.17.071.27" transform="translate(9.24 16.231)" fill="#1a1311"/>
        <path id="Path_2652" data-name="Path 2652" d="M.142.285c.2.1.213,0,.213-.17,0-.128-.2-.128-.284-.1s-.128.17.071.27" transform="translate(11.173 20.592)" fill="#1a1311"/>
        <path id="Path_2653" data-name="Path 2653" d="M.3.1A.164.164,0,0,0,0,.1C-.021.162.061.424.2.353S.374.21.3.1" transform="translate(8.692 18.45)" fill="#1a1311"/>
        <path id="Path_2654" data-name="Path 2654" d="M.242.228.271.072.086,0,0,.213Z" transform="translate(12.76 12.493)" fill="#1a1311"/>
        <path id="Path_2655" data-name="Path 2655" d="M.064,0,0,.071.093.185l.12-.12Z" transform="translate(12.187 3.895)" fill="#1a1311"/>
        <path id="Path_2656" data-name="Path 2656" d="M.071,0,0,.17.2.178.22.043Z" transform="translate(12.531 3.867)" fill="#1a1311"/>
        <path id="Path_2657" data-name="Path 2657" d="M0,.149.224.16.234.01,0,0Z" transform="translate(12.646 2.73)" fill="#1a1311"/>
        <path id="Path_2658" data-name="Path 2658" d="M.105.4C.285.452.414.355.414.224S.252-.1.121.062C.006.207-.074.355.105.4" transform="translate(6.98 28.861)" fill="#1a1311"/>
        <path id="Path_2659" data-name="Path 2659" d="M.2.13.228,0,0,.081l.1.13Z" transform="translate(6.528 28.907)" fill="#1a1311"/>
        <path id="Path_2660" data-name="Path 2660" d="M.309.212.178,0,0,.1.081.31c.1.049.17.1.228-.1" transform="translate(6.627 29.411)" fill="#1a1311"/>
        <path id="Path_2661" data-name="Path 2661" d="M.271.063C.228-.08.013.049,0,.162L.128.248C.2.262.326.245.271.063" transform="translate(2.568 28.757)" fill="#1a1311"/>
        <path id="Path_2662" data-name="Path 2662" d="M0,.156.17.113.157,0,0,.027Z" transform="translate(2.924 27.905)" fill="#1a1311"/>
        <path id="Path_2663" data-name="Path 2663" d="M.213.029.085,0,0,.114.029.2A.235.235,0,0,0,.213.029" transform="translate(2.697 29.346)" fill="#1a1311"/>
        <path id="Path_2664" data-name="Path 2664" d="M.347.545.5.446.46.276.3.218.26.239V.2C.262.077.191-.024.133,0,0,.073-.009.175.005.218L.177.332.237.318.219.4Z" transform="translate(2.292 29.61)" fill="#1a1311"/>
        <path id="Path_2665" data-name="Path 2665" d="M0,0,0,.013V0H0Z" transform="translate(7.783 27.91)" fill="#1a1311"/>
        <path id="Path_2666" data-name="Path 2666" d="M0,.01.149.128.224,0Z" transform="translate(7.698 15.376)" fill="#1a1311"/>
        <path id="Path_2667" data-name="Path 2667" d="M.076.328.289.243.374.072c0-.085-.128-.106-.3,0s0,.256,0,.256" transform="translate(11.625 5.196)" fill="#1a1311"/>
        <path id="Path_2668" data-name="Path 2668" d="M.81,1.055C.682,1.055.661.906.682.821V.756C.746.628.939.8.961.906s-.022.149-.15.149M2.975,2.1l-.011-.348-.17-.342a1.977,1.977,0,0,1-.164-.256.842.842,0,0,1-.4-.063A.672.672,0,0,1,1.9.645C1.852.488,1.87.475,1.688.427L1.619.412l.008.174L1.615.411a3.15,3.15,0,0,0-.4-.038A.419.419,0,0,1,.882.19L.852.181.661.139.588.1.576.064.34,0,.224.181.4.352.531.217.47.352.34.564.3.65.17.864l.17.576-.149.042L0,1.525l.127.106.385.107.021.085h.3l.214.085.085.107.085.191.107.085.213-.319.213.17h.106L1.769,1.8V1.4l.043-.064.114-.4.17.141.043.341.065.662-.065.063-.085.654-.029.085.2.454s.027,1.052.141.882.54-1.82.54-1.82l.059-.127h.013l0-.059Z" transform="translate(6.837 29.656)" fill="#1a1311"/>
        <path id="Path_2669" data-name="Path 2669" d="M14.749,2.934l-.087.086v.009a2.957,2.957,0,0,0-.406-.269c.054-.036.981-1.842,1.28-2.427l.05-.009a.514.514,0,0,1,.42.344ZM14.9,3.961l-.062.2-.278-.45-.092-.171.139-.015c.124.046.262.326.294.434m-.19,1.776L14.549,6l-.079.065-.015.044-.172.144a4.644,4.644,0,0,1,.1-.626c.044-.13.279-.259.344-.5a2.776,2.776,0,0,1,.172-.453,2.461,2.461,0,0,1-.194,1.056m-3.942,9.976-.171.029c-.1-.044-.115-.245.029-.245s.186.173.142.216m-.315,1.87c-.057.013-.217-.046-.186-.173l.286-.071Zm-.2-1.137-.258.13-.1-.258c.073-.115.4-.073.358.128M10.019,17.8a.178.178,0,0,1-.315.042.2.2,0,0,1,.129-.316c.142,0,.2.172.186.274m-.429,2.227-.042-.216.2.115Zm-.2-.646a.193.193,0,0,1,.158-.288.181.181,0,0,1,.171.216c-.026.067-.258.216-.329.073m-.117,1.174c-.055.109-.119.195-.25.15a.3.3,0,0,1-.114-.505l.324.05h0l.012.019Zm-.667-.312-.155-.188-.008-.161.2-.217.17.061a.321.321,0,0,1,.035.412Zm-.344-.233.066-.045.015.062ZM13.89,3.02l-.128-.36a1.743,1.743,0,0,1,.449.3ZM13.375,2.8v.007l-.117-.017-.075.053c0,.033,0,.108.129.108l.041,0-.02.067-.182.019V3.02l-.065-.13-.248.044.012.128h-.033a.942.942,0,0,1-.344-.128l-.065-.517L12.4,2.411a1.46,1.46,0,0,1,.483.005,2.481,2.481,0,0,1,.794.193c-.129.044-.3.109-.3.195m-1.309.3c-.043.065-.323.13-.452.172s-.107-.021-.107-.021l-.129-.13L11.443,3c.086-.044.328-.2.473-.152Zm-.773.97-.087-.134.066.048.15.1Zm-.15-.344-.016.091-.308.061.024-.024a1.4,1.4,0,0,1-.055-.6l.312-.005.043.195Zm1.931,1.358c.348.019.182.037.178.042l-.091-.021-.1-.021Zm.173-.13.005.073L13.073,4.9Zm-3.928,5.5c.129-.324.407-.884.407-.884H9.9l-.057.115s-.124.316-.258.667l-.071-.093-.086.1.121.085c-.135.357-.273.724-.294.807l-.028.081-.158-.024-.057.172.108.111c-.146.34-.367.828-.456,1.077l-.061-.081-.129.021-.028.017c.05-.124.146-.368.258-.647l.034.12.215-.159-.028-.187-.141.021.294-.737.019.025c.1.115.115.03.2-.143l-.125-.118c.064-.16.114-.286.14-.349M5.165,19.214c.1-.075.192-.044.192.086l-.14.075Zm.192-1.445c.075-.065.183-.065.15.086l-.1.032Zm.24.733.215.086-.029.36-.257-.087Zm.287-.964a.183.183,0,0,1,.2.187l-.229.115c-.115-.086-.129-.3.029-.3m.286-.662.115.259L6,17.108Zm.171-.459c.014-.144.1-.23.158-.23l.115.1s.071.13-.058.172-.229.1-.215-.042M.775,31.7l.3-.065.323.151v.28a1.522,1.522,0,0,0,.3.6l.45.474S1.4,32.8,1.2,32.67a1.089,1.089,0,0,1-.429-.517c-.171-.324,0-.453,0-.453m4.081-.515a5.276,5.276,0,0,1,1.267.341,9.474,9.474,0,0,1,1.485.807,3.108,3.108,0,0,1,.9,1.243c.062.373.03.558-.094.621s-.186.156-.186.062.032-.062-.124-.434a2.481,2.481,0,0,0-.71-1.15,10.818,10.818,0,0,0-1.917-1.118c-.341-.155-.8-.31-.619-.372m1.012-.165.046.02-.344.013-.315-.029-.08-.233c.237.077.59.191.693.229m.565.274-.12-.01L6.1,31.225l-.146-.168c.149.066.377.183.479.237M16.38.475,16.273.324A.73.73,0,0,0,15.735,0a.593.593,0,0,0-.279.109l-.107.259.028-.005L14.043,2.591a2.835,2.835,0,0,0-.755-.3,3.385,3.385,0,0,0-1.176,0L12,2.264c-.065.023-.258.087-.538.173a1.572,1.572,0,0,0-.622.345l-.1.188a.711.711,0,0,0-.138.329c-.023.151-.023.668-.023.668l.041.016a.681.681,0,0,0-.062.242l-.005.081-.038-.167-.086.691S9.789,6.815,9.683,7.1,8.867,9.28,8.867,9.28l.026.012c-.35.731-1.491,3.1-1.637,3.323-.171.259-1.351,1.855-1.652,2.2A8.081,8.081,0,0,0,4.3,16.735c-.3.7-.984,2.366-1.146,2.76l-.038-.072-.066.114.047.086-.021.173c-.072.146-.192.5-.316.782A4.537,4.537,0,0,1,2.5,22.017c.19.85-.453,1.7-.792,2.475l.01.007c-.078.248-.18.573-.294.936a6.281,6.281,0,0,1-.349,1.121c-.361,1.165-.7,2.273-.646,2.19.082-.131.589-1.532.825-2.188l.07.289-.015.389L1.2,27.43l-.192.109v.819H.839L.71,28.313l-.042.6-.086.13-.022.389s-.171-.194-.278-.324-.043.216-.043.216l.129.324v.258c0,.195-.044.237-.044.237L.26,30.3a2.354,2.354,0,0,0,.064.389c.037.187.107.115.124.091l-.253.34c-.061.082-.066.008-.195-.037L.161,32.4a6.475,6.475,0,0,0,.349.592,7.756,7.756,0,0,0,3.1,1.642,9.009,9.009,0,0,0,4.465,0,.982.982,0,0,0,.836-1.143c-.064-.323-.215-.345-.236-.5a.547.547,0,0,0-.171-.281l-.3-.3-.529-.482-.043-.1.014-.2-.53-.042-.072-.13-.213-.13-.151-.011-.011-.033-.159-.161a6.193,6.193,0,0,0-.631-.262l.04-.054v-.247c-.011-.021-.043-.086-.215,0l-.079.213L5.1,30.591l-.2-.07v-.1L4.738,29.8l-.033-.127-.221-.042-.117.082c-.094.024-.178.523-.205.7-.129-.015-.692-.077-.992-.077a.829.829,0,0,0-.419.06l.2.061a4.586,4.586,0,0,1,.959.14l.152.074.02.106v.144l-.058.13-1.087-.1-.087-.058-.343-.143.042-.259-.4-.216-.129-.029-.285-.024a1.557,1.557,0,0,0,.472-.048l-.115-.647c-.012-.057.1-.154.161-.307l.1.077.158-.1.014-.143-.144-.029-.078.025.032-.274.046,0,.144-.086-.129-.13H2.321l.086-.1.067-.086.2.058.129-.073-.044-.272-.171-.044H2.587l.005-.087.043-.132a.676.676,0,0,1-.105-.352l-.023-.011-.03.007-.157.316-.115.086L1.848,28.9a.229.229,0,0,1-.129.23c-.157.1-.129.172-.142.259s.057-.029-.087.258-.228.287-.142.375l.083.139L1.4,30.146l-.171.087-.1.273-.358.029-.042-.174L.789,30.2l.186-.015.073-.576.242-.028.044-.5.1-.187.158-.647.086-.115.215-.013.086-.331.085-.058.1-.172-.029-.115-.1-.044-.342-.157-.008-.019a1.985,1.985,0,0,0,.776.218l-.269-.177a1.344,1.344,0,0,1-.5-.2l.172-.539a2.123,2.123,0,0,1,.124-.724c.182-.553.4-1.1.563-1.653l.067-.267c-.043.111-.188.483-.363.938a3.3,3.3,0,0,0-.464,1.133l-.007.083c-.122.316-.23.6-.305.8l-.071-.13a1.049,1.049,0,0,1-.029-.5,24.114,24.114,0,0,0,1.233-3.7l-.037-.143q.364-.458.735-.91l-.037.083a1.371,1.371,0,0,1,.418-.328l.3-.548.022-.005.086.053.136.07.343.116a1.74,1.74,0,0,0,.371.04l.3-.022-.136-.22a.854.854,0,0,1-.025-.429l-.049-.038c-.075-.075-.15-.172.033-.247l.124-.013a2.021,2.021,0,0,1,.564-.629l.042-.028,0-.06.09-.232a3.108,3.108,0,0,1,.11-.56c.072-.257.169-.552.264-.832l.266-.131c0-.156-.07-.2-.153-.2.047-.136.092-.261.13-.368l.122.061.273-.13c0-.267-.207-.214-.326-.123l.047-.135a2.577,2.577,0,0,1,.279-.5s.021-.474.171-.539.344-.173.344-.173l.056-.224.1.008.108-.118-.14-.13-.025-.007,0-.048.079-.523v.292l.212.094-.066.04.033.161.225-.107L8,14.785,9,14.938s.871.058,1.22.078l0,.008.144.158.115-.128-.032-.089.017-.026-.015-.188-.071.087s-.844-.029-1.174-.029a11.143,11.143,0,0,1-1.3-.2l-.215-.13-.067-.144,0-.013-.005,0,0-.025v.025a.677.677,0,0,0-.508,0c-.343.107-.794.258-.794.258a17.567,17.567,0,0,0-1.287,1.984A23.165,23.165,0,0,0,3.887,19.3a3.257,3.257,0,0,1-.215.647c-1.03,2.8-.279-.044-.279-.044l-.107-.13-.083.139.032-.126.051-.013.086-.151A36.2,36.2,0,0,1,4.831,16.3,19,19,0,0,1,6.12,14.448,10.3,10.3,0,0,0,7.15,13.2a19.307,19.307,0,0,0,.923-1.768c.3-.666.755-1.715.941-2.086h0l.01-.032.054-.1-.01-.015.016-.042-.005.057.086.237s-.752,1.811-.923,2.2-.815,1.682-.815,1.682l-.279.3-.215.28.429.021s.279.109.408-.021a4.049,4.049,0,0,0,.365-.8l.171-.216.107-.172.188.13.021.029-.009.028.187.015,1.2.13.358.057.071.007v.065l.286.029.144.144-.015.373.086-.029.158-.417-.129-.243-.271-.144-.073-.258c-.056-.058.3-.13-.1-.13a2.173,2.173,0,0,1-.544-.044l-.086.044.044.2H9.99l.429.071.015.3-.071-.015c-.544-.1-1.5-.258-1.5-.258.114,0,.129-.36.215-.547s.673-1.581.673-1.581l.357-.905.08-.2h.163l.129-.173-.086-.323L10,8.993l-.429.065L9.215,8.8,9.3,8.583s.944-2.436,1.072-2.89a5.4,5.4,0,0,0,.26-.987,1.734,1.734,0,0,0,.084.212l-.086.216a8.061,8.061,0,0,1-.215,1.121c-.108.281-.815,2.329-.9,2.436L9.6,8.8l.236.044H10.3l.129.042L10.5,8.69l.086-.409.344-1.294c.016-.062.274-.613.427-.966L11.4,6.1c.043.151.151.053.151-.044l-.064-.216-.074.038.051-.146a6.052,6.052,0,0,0,.087-.668c0-.151.451-.065.643-.065.134,0,.312.032.544.057l-.221.138a1.092,1.092,0,0,0-.258.344,3.384,3.384,0,0,0-.042.756l-.108.258.3-.042-.107.172-.236.021-.129.109s-.108-.151-.15.237a7.313,7.313,0,0,1-.236,1.014s-.194.819-.044.5S12.537,6.6,12.537,6.6l.709-1.315.021-.15h0V5.05l.064-.025.194-.6.086-.216a.54.54,0,0,1-.194-.086.993.993,0,0,0-.321-.108l-.236-.042h-.087l-.215.216-.107.086.065.216.042.194.187.128a8.641,8.641,0,0,0-.959,0c-.15,0-.129,0-.215-.086l.065-.258.171-.065c.086-.022.258-.065.536-.13s-.232-.086-.32-.128l.055-.081L11.993,4l-.092.078-.021.04-.038,0,.016-.157-.207.115.022.032L11.563,4.1l-.012-.106.128-.5.3-.151.473-.13.773.087.428.323-.042.453.129.13.386-.044.064.3s.065.388-.086.409a1.33,1.33,0,0,1-.429-.065l-.344.712a1.25,1.25,0,0,0-.236.561c-.022.258-.044.775-.044.775H12.86c-.065,0-.279.173-.279.3a5.362,5.362,0,0,1-.086.56l-.237.151-.086.259-.107.216-.173-.065-.279.367-.128.13-.022.258.15.065.817-.021.3-.109s.065.195.192.195.473.021.473.021.106-.97.194-1.4a5.888,5.888,0,0,1,.236-1.014l.407-.345.043-.057.065-.007c.012,0-.48,1.871-.536,2.113s-.448,2-.606,2.884l.048-1.44.064-.128.129-.152-.152-.258-.128.044-.194.151-.215-.065-.408-.023-.493.044-.258-.065h-.321l-.129.345h-.086v.561l-.129.086-.344.409c-.065.109-.042.086-.065.28s-.021.475-.021.475a2.05,2.05,0,0,0,0,.517c.044.13.15-.367.15-.367l.129-.582.171-.238.194-.042c.065-.044.065-.086.107-.216a.509.509,0,0,0,.022-.237l.118-.372.063.221.108.065.236-.216.031-.27c-.031-.044-.117,0-.332.054l-.07.033.059-.184.751.151.171.042a2.873,2.873,0,0,1-.065.475c-.042.128-.215,0-.472.065s-.086.042-.086.042l.236.324-.171-.022-.279-.086.042.195.022.28.128.107v.151l-.021.216h.173l.192.065-.021.5-.473-.044-.063.237.171.195-.171.108v.344l-.151.044-.086.086-.086.237-.215.3-.236.108-.044.216.194.086.321.021-.021.389.279.128.215.109.086.195.236.086.064-.065.043-.453.065-1.531.107-.195.044-.195.086-1.379.107-.475.194-.992h.321a3.089,3.089,0,0,1-.107.582c-.065.151-.043.065-.106.065V11.58l-.129.044-.15.086a4.842,4.842,0,0,0,.129.668c.063.172.086-.044.15-.237s.15.042.15.042l-.1.744-.105-.046-.113.1c-.014.073-.072.159.086.2l.1.011-.02.155H12.8l-.022.453-.128-.042-.173-.065-.107.754.086.281.215.173v.3l-.344.042.194.389h.129l.113-.213.008.119.057.676.115.057h.03l.1.249.09.4-.363-.021-.237-.6-.171-.108a2.311,2.311,0,0,0-.043.345c0,.13.151.151.215.453a3.467,3.467,0,0,0,.151.517s.042.712.021.928-.194-.668-.194-.8-.408-1.014-.429-1.272a4.846,4.846,0,0,0-.086-.8c-.044-.065-.386.086-.515.042s-.021-.367-.021-.367l-.129-.042-.215-.195-.279-.151-.429-.281a2.559,2.559,0,0,1,.173.388c.042.151-.043.173-.108.259s-.064.065-.194.044a.716.716,0,0,0-.321.064l-.125.326-.139-.06-.071.173.13.094c-.072.187-.141.359-.159.394l.086.324-.257.689s.02.169.038.3l-.1.012-.083.046-.246-.061-.086.172.171.159.123-.094c.045.089.136.2.207.065l.039-.067a4.151,4.151,0,0,1-.132.872c-.086.237-.429.5-.537.6l-.145.3-.079-.005-.047-.005a.655.655,0,0,1-.552.419l.279.181a2.788,2.788,0,0,1,.537.55l.032.11-.13.151-.174.184.1.072c.108-.128.215-.259.323-.388H9c-.093.112-.228.269-.323.392a5.149,5.149,0,0,1,.764.637v-.007s.028-.236.028-.409c0-.144.151-.258.288-.3a1.405,1.405,0,0,1,.826-.517l-.191-.255a4.723,4.723,0,0,1-.242-.883A.764.764,0,0,1,10,18.676l-.042-.194.192-.195c.036,0,.184.007.315.012l.028.058.091-.008-.1-.049.18.008.095.05a2.1,2.1,0,0,1,.875.375,8.946,8.946,0,0,0,.855.629c.235.127.473.249.706.378L13.181,18.5l.044-1.531-.053-.04.084-.185v-.189l-.17-.533-.018-.017-.016-.15a7.873,7.873,0,0,1,.044-1l.046-.144.086-.11a.377.377,0,0,1-.188-.471l.075-.237.028-.831c.051-.377.171-1.232.183-1.276l.071-.375c.1-.834,1.23-5.175,1.274-5.232l.008-.056.2-.2a2.063,2.063,0,0,0,.129-.8,3.615,3.615,0,0,1,.047-.417l.146-.036a1.083,1.083,0,0,0,0-1.014,1.484,1.484,0,0,0-.307-.431H14.9C14.917,3.18,16,1.17,16.3.617L16.315.6l.058-.116Z" transform="translate(0.107)" fill="#1a1311"/>
        <path id="Path_2670" data-name="Path 2670" d="M.024.256c0,.128-.085.468.063.512l.02.006L.011,0Z" transform="translate(0 30.347)" fill="#1a1311"/>
        <path id="Path_2671" data-name="Path 2671" d="M0,0H0Z" transform="translate(9.058 19.719)" fill="#1a1311"/>
        <path id="Path_2672" data-name="Path 2672" d="M0,0,.012.021l0,.042Z" transform="translate(9.478 20.336)" fill="#1a1311"/>
        <path id="Path_2673" data-name="Path 2673" d="M.839,1.962a2.693,2.693,0,0,1,.123-.889c.058-.179.123-.287.047-.467A1.185,1.185,0,0,0,.16,0C0-.031-.069.215.092.251A1.075,1.075,0,0,1,.581.476c.208.175.19.284.135.53a3.888,3.888,0,0,0-.134.957.128.128,0,0,0,.257,0" transform="translate(9.579 22.01)" fill="#1a1311"/>
        <path id="Path_2674" data-name="Path 2674" d="M3.6,0c-.133.737-.289,1.47-.462,2.2C2.873,3.308,2.48,4.353,2.122,5.432c-.288.865-.483,1.744-.719,2.62-.181.67-.436,1.328-.652,1.988C.5,10.8.232,11.565.019,12.34c-.073.264.1.593.024.853.385-1.4.886-2.773,1.34-4.151.239-.729.365-1.5.6-2.238.343-1.092.779-2.144,1.061-3.256.228-.89.421-1.79.585-2.695C3.674.577,3.551.272,3.6,0" transform="translate(9.689 19.481)" fill="#1a1311"/>
        <path id="Path_2675" data-name="Path 2675" d="M.483.546l0-.006,0-.024L.475.363.437.342.412.2.4.272.389.115.3.127.11.069.084.128.045.065l-.02.01.02-.01V0L.018.018l0,.09L0,.1.013.127.03.109.056.127.039.169l.025.05L.135.172.123.2.161.308.124.416.1.646.045.874l.2.1L.213,1l.022.046L.258.98.33.962l.017.094.012-.009L.427.8.485.55Z" transform="translate(12.531 19.533)" fill="#1a1311"/>
        <path id="Path_2676" data-name="Path 2676" d="M2.877,1.5l.056.013c-.026.168-.06.342-.1.521s-.1.361-.156.547-.124.376-.2.567-.143.386-.225.581c-.313.783-.681,1.593-.954,2.4l-.19-.112c-.017.237-.048.485-.075.733A4.867,4.867,0,0,0,1,7.473l.086-.147a1.369,1.369,0,0,1-.075.794L.962,8.082c.065-.323-.026.014-.133-.157L.819,7.863l-.037.024.009.063L.726,7.87.7,7.942a.449.449,0,0,1-.479.007C.226,8,.4,8,.3,8.166L.248,8.127l.039.225-.1.067,0,.2.1.052c-.122.315-.1.752-.247,1.072.093.094-.088.246-.034.45l.136-.059a.807.807,0,0,0,.2-.427l.063-.275.088-.252.059.027-.008.207.106.047c.212-.024.225-.167.2-.321S.752,8.827.8,8.777l.162.017L1,8.879c.041.15.123.114.213.031L1.5,8.666l.209-.246.075-.165.067-.183c.081-.25.127-.524.195-.724C2,6.6,2.6,5.809,2.821,5.19c.14-.285-.092-.91.309-.984l.134-.27.09-.187.041-.085.058.033a4.382,4.382,0,0,0,.216-.885c.024-.152.047-.3.069-.452s.038-.293.063-.429c.048-.238-.1-.348.107-.411A1.8,1.8,0,0,0,4.054.769a5.983,5.983,0,0,1,0-.769H3.9c.031.247-.158.493-.314.471L3.62.389,3.466.52,3.5.628l-.1.02a3.2,3.2,0,0,1-.39.417.57.57,0,0,1-.132.437" transform="translate(8.787 21.333)" fill="#1a1311"/>
        <path id="Path_2677" data-name="Path 2677" d="M.253,3.354C.416,2.3.976,1.34,1.065.266L.815.292q-.161.876-.332,1.75Q.4,2.468.314,2.895c-.027.135-.055.27-.082.406s-.041.288-.166.357H.287a2.439,2.439,0,0,1,.14-1c.082-.3.179-.6.276-.9A11.921,11.921,0,0,0,1.173,0L.92.042A12.835,12.835,0,0,1,.406,1.917c-.1.3-.19.6-.267.9a2.186,2.186,0,0,0-.1.879H.257c.2-.114.214-.369.256-.576Q.607,2.658.7,2.191C.825,1.555.945.917,1.064.28L.813.306C.724,1.379.164,2.337,0,3.395Z" transform="translate(11.621 18.907)" fill="#1a1311"/>
        <path id="Path_2678" data-name="Path 2678" d="M.611,1.729l.067-.111L.35,1.591l.011.05L.4,1.581l.034-.2L.66,1.094.5,1.106l.04.008L.323,1C.412,1.1.546,2.072.409,2.093l.329.143a.908.908,0,0,1,.326-1.122l-.377-.1a2.43,2.43,0,0,1,.143.91l.406.1a4.173,4.173,0,0,0,.009-.585c-.018-.124-.082-.169-.2-.211-.276-.1-.444.1-.544.34l.407.1C.9,1.175.9.672.9.168.9.029.5-.053.494.039Q.487.819.5,1.6l.406.1c.045-.107.122-.271.247-.3L.914,1.367l.034.017-.124-.1A2.89,2.89,0,0,1,.829,1.9l.406.1a2.425,2.425,0,0,0-.171-.962L.685.946A.986.986,0,0,0,.332,2.154L.66,2.3C.844,2.27.9,2.165.883,1.984.863,1.755.821,1.525.79,1.3.766,1.115.723,1,.537.937a.292.292,0,0,0-.379.113c-.2.263-.251.61.107.762l.424,0-.09-.3L.272,1.489.2,1.6Z" transform="translate(9.745 19.476)" fill="#1a1311"/>
        <path id="Path_2679" data-name="Path 2679" d="M1.165,2.45A4.893,4.893,0,0,1,.8,1.125a1.231,1.231,0,0,1,.236-1L.631.021l-.5,1.09c-.135.292-.247.537.118.67l.28-.029A11.647,11.647,0,0,0,.7.292L.286.211C.267.972.239,1.743.282,2.5A3.237,3.237,0,0,0,.491,3.518c.118.294.268.656.008.92l.4.123a.736.736,0,0,0,.092-.8,3.985,3.985,0,0,1-.28-1.094C.65,1.879.686,1.078.7.292.708.162.292.1.286.211A11.71,11.71,0,0,1,.108,1.671l.281-.03.042-.192L.495,1.3C.558,1.167.622,1.03.686.891.808.628.928.365,1.05.1L.643,0A1.278,1.278,0,0,0,.384,1.044,4.943,4.943,0,0,0,.753,2.416Z" transform="translate(9.798 17.949)" fill="#1a1311"/>
        <path id="Path_2680" data-name="Path 2680" d="M.126.144.17.022H.088L.122.065.115.11.085,0H0L.119.151.2.123.17.013H.088L.04.143Z" transform="translate(11.143 19.521)" fill="#1a1311"/>
        <path id="Path_2681" data-name="Path 2681" d="M.1,0,.051.046l0,.047L.074.1V.084L.082.045,0,.028,0,.114.076.147.132.123.139.038l.02-.02Z" transform="translate(11.107 18.944)" fill="#1a1311"/>
        <path id="Path_2682" data-name="Path 2682" d="M.332.359c.131,0,.452-.043.5-.2S.593,0,.509,0C.378,0,.057.043.006.2S.249.359.332.359" transform="translate(9.763 21.715)" fill="#1a1311"/>
        <path id="Path_2683" data-name="Path 2683" d="M6.155,6.651,7.707,1.122l-.075-.027A18.567,18.567,0,0,0,2.752,0a3.1,3.1,0,0,0-.821.094L1.889.106,0,5.635.149,5.6a7.105,7.105,0,0,1,1.428-.128A7.687,7.687,0,0,1,6.024,6.82l.1-.14A7.854,7.854,0,0,0,1.577,5.3a7.256,7.256,0,0,0-1.466.132l.018.082.081.027L2.035.2,1.955.175l.022.082A2.965,2.965,0,0,1,2.752.172a12.8,12.8,0,0,1,3.109.54c.974.271,1.71.542,1.712.542l.03-.08-.082-.022L5.991,6.6Z" transform="translate(2.419 21.922)" fill="#1a1311"/>
        <path id="Path_2684" data-name="Path 2684" d="M.182,0,0,.16.118.352.246.383l.181-.1L.437.021Z" transform="translate(3.499 29.654)" fill="#1a1311"/>
        <path id="Path_2685" data-name="Path 2685" d="M.288,0,.16.021,0,.213l.01.17L.118.437.352.394.373.2Z" transform="translate(3.671 28.929)" fill="#1a1311"/>
        <path id="Path_2686" data-name="Path 2686" d="M.064.277H.139L.184.237l.05.211L.458.406l.033-.1L.458.192.383.16.288.128.242.106.213.064.118,0,0,.118Z" transform="translate(3.618 28.427)" fill="#1a1311"/>
        <path id="Path_2687" data-name="Path 2687" d="M0,.437.182.586.458.394.437.213.373.064.267,0,0,.1Z" transform="translate(3.671 27.681)" fill="#1a1311"/>
        <path id="Path_2688" data-name="Path 2688" d="M.224.694.3.5V.374L.219.3.277.236.33,0,.085.033,0,.107l.17.17L0,.416.021.63Z" transform="translate(3.328 28.907)" fill="#1a1311"/>
        <path id="Path_2689" data-name="Path 2689" d="M.242.228.271.072.087,0,0,.213Z" transform="translate(5.18 29.416)" fill="#1a1311"/>
        <path id="Path_2690" data-name="Path 2690" d="M0,0H0Z" transform="translate(5.197 30.507)" fill="#1a1311"/>
        <path id="Path_2691" data-name="Path 2691" d="M.064,0,0,.071.093.185l.12-.12Z" transform="translate(4.009 29.327)" fill="#1a1311"/>
        <path id="Path_2692" data-name="Path 2692" d="M.071,0,0,.17.2.178.22.043Z" transform="translate(4.353 29.298)" fill="#1a1311"/>
        <path id="Path_2693" data-name="Path 2693" d="M0,.149.224.16.234.01,0,0Z" transform="translate(4.467 28.161)" fill="#1a1311"/>
        <path id="Path_2694" data-name="Path 2694" d="M.076.328.289.243.374.072c0-.085-.128-.106-.3,0s0,.256,0,.256" transform="translate(3.447 30.626)" fill="#1a1311"/>
        <path id="Path_2695" data-name="Path 2695" d="M0,.1.143.255.255.128.1,0Z" transform="translate(8.369 16.309)" fill="#1a1311"/>
        <path id="Path_2696" data-name="Path 2696" d="M.143.257H.152L.072.441C.213.6.385.516.327.285L.2.243.256.128.1,0,0,.1Z" transform="translate(8.724 15.476)" fill="#1a1311"/>
        <path id="Path_2697" data-name="Path 2697" d="M.142.285c.2.1.213,0,.213-.17,0-.128-.2-.128-.284-.1s-.128.17.071.27" transform="translate(8.031 16.801)" fill="#1a1311"/>
        <path id="Path_2698" data-name="Path 2698" d="M5.876,1.11A19.11,19.11,0,0,0,.365,0L0,.09.211.233A18.154,18.154,0,0,1,5.457,1.288a.6.6,0,0,0,.423-.009Z" transform="translate(4.171 21.81)" fill="#1a1311"/>
        <path id="Path_2699" data-name="Path 2699" d="M6.441,1.346A11.835,11.835,0,0,0,.215.022L0,.162l.364.1A10.736,10.736,0,0,1,6.013,1.5a.56.56,0,0,0,.421.016Z" transform="translate(1.951 27.325)" fill="#1a1311"/>
        <path id="Path_2700" data-name="Path 2700" d="M6.105,1.407A2.457,2.457,0,0,0,4.952.8C4.461.67,3.959.573,3.463.469A20.773,20.773,0,0,0,.228,0L0,.116.352.251a18.374,18.374,0,0,1,2.839.4c.447.094.9.191,1.341.3a2.012,2.012,0,0,1,1.046.5.533.533,0,0,0,.4.1Z" transform="translate(4.172 21.589)" fill="#1a1311"/>
        <path id="Path_2701" data-name="Path 2701" d="M2.241,2.185l-.114.128-.143-.157.1-.1ZM1.9,3.749l-.114.128L1.644,3.72l.1-.1Zm-.327.483-.213-.113.086-.1.17.029Zm-.226,1.1.08-.186H1.416l-.143-.157.1-.1.157.128-.062.115L1.6,5.17c.058.232-.114.313-.255.157m.071.441L1.3,5.895,1.16,5.739l.1-.1ZM1.06,5.7c-.141.072-.225-.19-.2-.255a.164.164,0,0,1,.3,0c.072.114.043.184-.1.255m-.085.342-.114.128L.72,6.008l.1-.1Zm.5-2.871c.086-.029.285-.029.285.1,0,.166-.014.27-.213.17s-.157-.242-.072-.27M2.771.282c-.018-.23-.836-.419-.814-.149a7.808,7.808,0,0,1,.012,1.048c-.118-.11-.555-.119-.567.027A12.95,12.95,0,0,1,.686,4.231c-.158.489-.317.98-.444,1.48-.06.242-.115.487-.157.734-.035.209-.1.438.084.593l.168.069a2.911,2.911,0,0,1-.313.457c-.169.2.609.505.762.323a4.868,4.868,0,0,0,.822-1.6c.221-.644.437-1.289.628-1.943A11.267,11.267,0,0,0,2.771.282" transform="translate(8.275 21.976)" fill="#1a1311"/>
        <path id="Path_2702" data-name="Path 2702" d="M2.207,1.064V.937L2.364.908l.014.114Zm-.2,1.408L1.98,2.387l.085-.114.128.029a.24.24,0,0,1-.186.17m-.085.611-.128-.143.018-.085-.06.014-.172-.114c-.014-.042-.007-.145.128-.213.058-.029.128.072.128.2v.035l.043-.021.157.058.043.17ZM1.44,3.76c-.179-.048-.1-.2.017-.342.13-.162.293.033.293.162s-.131.228-.31.179m-.147.359c-.056.2-.13.145-.228.1L.984,4l.179-.1Zm-.3,1.216C.876,5.4.78,5.291.738,5.163a.214.214,0,0,1,.138-.288.2.2,0,0,1,.267.16.249.249,0,0,1-.149.3M.886,3.484,1.114,3.4l-.031.131-.1.081Zm.966-1.637c.014-.114.228-.242.27-.1.055.182-.071.2-.141.184ZM3.311.13,3.068.022,2.739,0,2.65.017,2.532.079,2.451.23,2.4.283,2.375.322C1.267,2.306.123,4.387,0,6.707c-.013.244.745.521.8.289.274-1.089.88-2.051,1.217-3.116.179-.565.292-1.15.471-1.717A9.4,9.4,0,0,1,3.2.571L3.205.512,3.338.266Z" transform="translate(1.616 20.403)" fill="#1a1311"/>
      </g>
    </g>
    <path id="Path_3517" data-name="Path 3517" d="M360.424,282.289V243.107h-1.374v39.182" transform="translate(576.289 -176.24) rotate(90)" fill="#1a1311"/>
    <path id="Path_3518" data-name="Path 3518" d="M360.424,282.451V243.107h-1.374v39.344" transform="translate(-104.474 -20.914)" fill="#1a1311"/>
    <path id="Path_3464" data-name="Path 3464" d="M360.424,281.763V243.107h-1.374v38.656" transform="translate(498.289 -137.24) rotate(90)" fill="#1a1311"/>
    <path id="Path_3462" data-name="Path 3462" d="M360.424,322.1V243.107h-1.374V322.1" transform="translate(-143.474 -59.914)" fill="#1a1311"/>
    <path id="Path_3506" data-name="Path 3506" d="M360.424,321.632V243.107h-1.374v78.525" transform="translate(537.632 -98.24) rotate(90)" fill="#1a1311"/>
    <path id="Path_3512" data-name="Path 3512" d="M360.424,282.644V243.107h-1.374v39.537" transform="translate(-65.474 -99.107)" fill="#1a1311"/>
  </g>
</svg>
