<svg xmlns="http://www.w3.org/2000/svg" width="194.799" height="194.799" viewBox="0 0 194.799 194.799">
  <g id="Group_870" data-name="Group 870" transform="translate(-177 -106.001)">
    <rect id="Rectangle_769" data-name="Rectangle 769" width="194.797" height="194.797" transform="translate(177 106.003)" fill="#fff3d8"/>
    <path id="Path_3447" data-name="Path 3447" d="M295.322,243.269h194.8v-.687h-194.8" transform="translate(-118.322 -20.388)" fill="#1a1311"/>
    <path id="Path_3451" data-name="Path 3451" d="M418.837,242.844v194.8h.687v-194.8" transform="translate(-85.999 -136.842)" fill="#1a1311"/>
    <path id="Path_3452" data-name="Path 3452" d="M329.549,242.582v194.8h.687v-194.8" transform="translate(-113.59 -136.579)" fill="#1a1311"/>
    <path id="Path_3453" data-name="Path 3453" d="M389.337,183.744h194.8v-.687h-194.8" transform="translate(-212.337 -38.783)" fill="#1a1311"/>
    <path id="Path_3454" data-name="Path 3454" d="M389.337,273.031h193.8v-.687h-193.8" transform="translate(-211.337 -11.191)" fill="#1a1311"/>
    <path id="Path_3456" data-name="Path 3456" d="M418.837,149.355V231h.687V149.355" transform="translate(-163.999 69.803)" fill="#1a1311"/>
    <path id="Path_3459" data-name="Path 3459" d="M295.322,243.269h194.8v-.687h-194.8" transform="translate(-118.323 -59.388)" fill="#1a1311"/>
    <path id="Path_3458" data-name="Path 3458" d="M418.837,149.355v194.8h.687v-194.8" transform="translate(-124.999 -43.352)" fill="#1a1311"/>
    <path id="Path_3457" data-name="Path 3457" d="M418.837,149.355v194.8h.687v-194.8" transform="translate(-163.999 -43.352)" fill="#1a1311"/>
    <rect id="Rectangle_770" data-name="Rectangle 770" width="39" height="116" transform="translate(255 107)" fill="#d2d2d3"/>
    <rect id="Rectangle_771" data-name="Rectangle 771" width="38" height="193" transform="translate(371 184) rotate(90)" fill="#d2d2d3"/>
    <path id="Path_3460" data-name="Path 3460" d="M360.424,320.107v-77h-1.374v77" transform="translate(-65.474 -136.107)" fill="#1a1311"/>
    <path id="Path_3461" data-name="Path 3461" d="M360.424,319.3V243.107h-1.374V319.3" transform="translate(-105.474 -136.107)" fill="#1a1311"/>
    <line id="Line_12" data-name="Line 12" y2="96" transform="translate(274.5 107.5)" fill="none" stroke="#1a1311" stroke-width="1" stroke-dasharray="5 4"/>
    <line id="Line_13" data-name="Line 13" x1="193" y2="1" transform="translate(178.5 203.5)" fill="none" stroke="#1a1311" stroke-width="1" stroke-dasharray="5 4"/>
    <path id="Path_3465" data-name="Path 3465" d="M360.424,320.1V243.107h-1.374V320.1" transform="translate(613.673 -176.24) rotate(90)" fill="#1a1311"/>
    <path id="Path_3455" data-name="Path 3455" d="M300.474,154.506h-.687V348.617h194.8v-194.8h-194.8v.687h.687v.687H493.211v192.05H301.161V154.506h-.687v0Z" transform="translate(-122.787 -47.818)" fill="#1a1311"/>
    <path id="Path_3467" data-name="Path 3467" d="M360.424,320.532V243.107h-1.374v77.425" transform="translate(498.107 -176.24) rotate(90)" fill="#1a1311"/>
    <path id="Path_3466" data-name="Path 3466" d="M360.424,359.794V243.107h-1.374V359.794" transform="translate(537.37 -137.24) rotate(90)" fill="#1a1311"/>
    <g id="Group_871" data-name="Group 871" transform="translate(-238 -231)">
      <g id="Group_846" data-name="Group 846" transform="translate(532 453)">
        <rect id="Rectangle_774" data-name="Rectangle 774" width="39.253" height="39.253" transform="translate(0)" fill="#fcd41d"/>
      </g>
      <g id="lemonade-with-straw" transform="translate(538.184 456.803)">
        <g id="Group_847" data-name="Group 847" transform="translate(0.078 0)">
          <path id="Path_3492" data-name="Path 3492" d="M11.575,5.259c-.693-.32-2.238.693-1.811,1.225a210.292,210.292,0,0,0,4,23.282c2.025,1.758,7.619,2.451,8.791-.426.586-5.647,1.119-11.348,1.865-16.942C32.3,14.476,33.578,2.755,26.759.624c-3.729-1.172-6.873,2.291-7.192,4.315m0,.053c-.053-.16-2.131-.32-6.18.107A15.5,15.5,0,0,0,11.735.624c.479.266-.053-.479-.266-.479,0-.053-.053-.053-.107-.053A18.829,18.829,0,0,0,3.956,1.636c-.053-.16-.32-.053-.213.107H3.69c0-.107-.107,0-.16.107-.053,0-.107.053-.053.107-.107.426.107,1.385.639,1.332.107.053.107,0,.16-.053,1.971-.426,4.369-1.545,6.34-1.119.852,1.545.959,3.57,1.279,5.274" transform="translate(-3.45 -0.081)" fill="#f4eb95"/>
        </g>
        <g id="Group_848" data-name="Group 848" transform="translate(21.853 7.203)">
          <path id="Path_3493" data-name="Path 3493" d="M47.826,15.838c-2.557-2.824-3.356-2.5-.16.107a3.75,3.75,0,0,1-3.09,1.279c-.107-1.119.479-2.824.266-3.623-.16,1.012-.906,3.143-.266,3.676C45.482,17.756,48.04,16.9,47.826,15.838Z" transform="translate(-44.322 -13.6)" fill="#1d1d1b"/>
        </g>
        <g id="Group_849" data-name="Group 849" transform="translate(23.067 4.304)">
          <path id="Path_3494" data-name="Path 3494" d="M49.264,8.181c-.053-.053-.107,0-.107.053a6.423,6.423,0,0,1-2.291,1.438c.053.586,2.078-.8,2.4-1.225.373,1.119,1.225,2.984.213,3.836-1.066-.16-2.078-2.025-2.877-2.078.852.586,2.025,2.611,2.984,2.131C50.649,11.484,49.956,9.086,49.264,8.181Z" transform="translate(-46.6 -8.159)" fill="#1d1d1b"/>
        </g>
        <g id="Group_850" data-name="Group 850" transform="translate(22.05 2.082)">
          <path id="Path_3495" data-name="Path 3495" d="M47.945,5.486c-.373-.959-2.238-1.811-3.09-1.385-.533,3.143.426,4,.053.053,3.25.32,3.57,2.131.373,3.143C45.921,7.3,48.158,6.552,47.945,5.486Z" transform="translate(-44.69 -3.988)" fill="#1d1d1b"/>
        </g>
        <g id="Group_851" data-name="Group 851" transform="translate(18.229 2.022)">
          <path id="Path_3496" data-name="Path 3496" d="M40.866,3.942c-.852-.373-3.729.906-3.3,2.025,2.344,1.652,4,1.332.107,0,.266-1.172,1.918-1.7,3.037-1.971.639.586-.32,2.451.16,2.877C40.919,6.446,41.4,4.155,40.866,3.942Z" transform="translate(-37.52 -3.876)" fill="#1d1d1b"/>
        </g>
        <g id="Group_852" data-name="Group 852" transform="translate(18.988 7.382)">
          <path id="Path_3497" data-name="Path 3497" d="M40.412,16.474c-1.758-.693-1.012-1.438-.053-2.5-.053-.32-2.025,1.7-1.225,2.025C39.293,16.154,40.625,17.007,40.412,16.474Z" transform="translate(-38.943 -13.936)" fill="#1d1d1b"/>
        </g>
        <g id="Group_853" data-name="Group 853" transform="translate(0 0.023)">
          <path id="Path_3498" data-name="Path 3498" d="M20.084,6.5a5.791,5.791,0,0,1,.053-.959A5.791,5.791,0,0,0,20.084,6.5Zm0,0a5.791,5.791,0,0,1,.053-.959A5.791,5.791,0,0,0,20.084,6.5Zm0,0a5.791,5.791,0,0,1,.053-.959A5.791,5.791,0,0,0,20.084,6.5Zm0,0a5.791,5.791,0,0,1,.053-.959A5.791,5.791,0,0,0,20.084,6.5Zm6.5-5.861c-4.209-1.279-8.578,3.3-7.033,7.406A25.821,25.821,0,0,1,13.8,7.89c-.16-.852-.32-1.7-.479-2.611,7.779.16,7.565-.959-.053-.16A15.5,15.5,0,0,0,11.613.644c.479.266-.053-.479-.266-.479,0-.053-.053-.053-.107,0A17.709,17.709,0,0,0,3.834,1.657c-.107-.16-.32-.053-.213.107H3.568c-.053-.107-.16,0-.16.107-.053,0-.107.053-.053.107-.16.426.053,1.385.639,1.332.053.053.107-.053.107-.107C6.072,2.829,8.47,1.71,10.494,2.083c.852,1.545.959,3.57,1.279,5.274C11.08,7.091,10.6,6.718,10.6,6.292a.08.08,0,1,0-.16,0c-.213.852.479,1.332,1.438,1.545.16.852.32,1.758.533,2.664-.213-.107-.906.107-.8.266.213-.16.533-.107.8-.16a9.035,9.035,0,0,1,.213,1.172c-.906-.107-1.545-1.652-1.225-.533.746,5.861,1.971,11.721,3.037,17.528C13.957,23.447,12.519,17,11.453,11.353a2.417,2.417,0,0,0,1.225.746l2.4,12.147c.373.533,1.918.32,1.758-.373-.693-3.783-1.438-7.565-2.184-11.348,3.2.479,7.672.32,8.2-.8a6.268,6.268,0,0,0,1.066.373,160.807,160.807,0,0,0-1.652,17.368c-1.811,2.4-6.233,1.758-8.471.266-1.492-7.779-2.611-15.61-4.049-23.389A1.759,1.759,0,0,1,11.293,5.6c.16,0,.16-.213.053-.266-.693-.32-2.184.693-1.7,1.225a210.293,210.293,0,0,0,4,23.282c2.025,1.758,7.619,2.451,8.791-.426.639-5.647,1.119-11.348,1.865-16.942C32.125,14.5,33.51,2.616,26.584.644ZM4.048,3.1H3.994a1.122,1.122,0,0,1-.373-1.172l.053-.053A1.537,1.537,0,0,1,4.048,3.1ZM11.72,5.759a10.22,10.22,0,0,0-1.066-3.623c.266,0,0-.213-.107-.213,0-.053-.053-.053-.107,0C8.31,1.6,6.179,2.562,4.207,3.042a1.427,1.427,0,0,0-.266-1.225C6.232,1.231,8.9-.1,11.347.485A28.447,28.447,0,0,1,13.584,7.89a9.4,9.4,0,0,1-1.545-.373C11.933,6.878,11.826,6.345,11.72,5.759Zm.426,2.184a14.361,14.361,0,0,0,1.492.213c.266,1.385.479,2.77.8,4.1-.586-.107-1.066-.213-1.492-.32C12.625,10.554,12.359,9.275,12.146,7.943ZM16.728,23.98a1.343,1.343,0,0,1-1.385.266C14.6,20.251,13.8,16.2,13,12.206a6.146,6.146,0,0,0,1.492.32C15.236,16.361,15.928,20.2,16.728,23.98Zm5.914-12.307c-.746.906-4.955,1.119-7.992.639a16.011,16.011,0,0,0-.373-1.7c8.738.32,7.672-.693-.053-.16-.16-.746-.266-1.492-.426-2.238,2.4.053,3.2.266,5.807.32a7.2,7.2,0,0,0,3.037,3.143Zm1.332.16a6.464,6.464,0,0,1-3.943-3.41h.426a4.757,4.757,0,0,0,3.623,2.93A1.556,1.556,0,0,0,23.973,11.833Zm.107-.639a5.727,5.727,0,0,1-3.463-2.77,3.6,3.6,0,0,0,.746-.107,3.423,3.423,0,0,0,2.451-1.225.864.864,0,0,1,.906.373C24.453,8.689,24.24,9.915,24.08,11.193Zm-.053-5.434A.875.875,0,0,0,25.2,5.386c.107.373.479.693.8.586a.85.85,0,0,0-.107.8c-.586.213-.906.533-.906.693a2.4,2.4,0,0,0-.107-1.279,7.543,7.543,0,0,1-.213,1.066.713.713,0,0,0-.746-.426A1.1,1.1,0,0,0,24.027,5.759Zm.373,6.5h0v-.586c7.033,1.7,8.311-8.684,1.865-10.229a4.77,4.77,0,0,0-6.074,4,4.959,4.959,0,0,1,6.02-3.783c6.18,1.492,5.061,11.4-1.758,9.8,0-1.066.479-2.717.586-3.943,0,.16.32.107,1.012-.479.107.16.426.107.266-.107.053-.053,0-.107-.053-.107a.534.534,0,0,1,.107-.8c.053-.053,0-.107-.053-.107-.053-.266-.426,0-.586-.16-.32,0-.213-.906-.426-.533-.266,0-.32.373-.586.426-.266.213-.639-.16-.8,0-.213.213.213.586.053.852-.426.107-.426.746-1.119.906.107-.213.906-.959.426-.906A2.455,2.455,0,0,1,21.309,7.89c-1.172-3.729.053-2.611,2.291-1.7-2.611-1.971-3.516-1.492-2.5,1.758-.213.053-.373.053-.586.107a7.34,7.34,0,0,1-.32-1.385A4.487,4.487,0,0,0,20.4,8.1c-.16,0-.32.053-.479.053-1.492-3.889,2.664-8.311,6.713-7.086C33.03,2.776,31.858,13.911,24.4,12.259ZM20.191,5.6a2.91,2.91,0,0,0-.053.959A2.743,2.743,0,0,1,20.191,5.6Zm-.107.906a5.791,5.791,0,0,1,.053-.959A5.791,5.791,0,0,0,20.084,6.5Zm0,0a5.791,5.791,0,0,1,.053-.959A5.791,5.791,0,0,0,20.084,6.5Zm0,0a5.791,5.791,0,0,1,.053-.959A5.791,5.791,0,0,0,20.084,6.5Zm0,0a5.791,5.791,0,0,1,.053-.959A5.791,5.791,0,0,0,20.084,6.5Z" transform="translate(-3.304 -0.125)" fill="#1d1d1b"/>
        </g>
        <g id="Group_854" data-name="Group 854" transform="translate(0.263 1.768)">
          <path id="Path_3499" data-name="Path 3499" d="M4.279,4.625H4.225a1.122,1.122,0,0,1-.373-1.172L3.906,3.4A1.537,1.537,0,0,1,4.279,4.625Z" transform="translate(-3.798 -3.4)" fill="#939169"/>
        </g>
        <g id="Group_855" data-name="Group 855" transform="translate(9.695 12.104)">
          <path id="Path_3500" data-name="Path 3500" d="M25.229,34.574a1.343,1.343,0,0,1-1.385.266C23.1,30.845,22.3,26.8,21.5,22.8a6.146,6.146,0,0,0,1.492.32C23.738,26.956,24.43,30.792,25.229,34.574Z" transform="translate(-21.5 -22.8)" fill="#939169"/>
        </g>
        <g id="Group_856" data-name="Group 856" transform="translate(8.842 7.842)">
          <path id="Path_3501" data-name="Path 3501" d="M22.191,19.115c-.586-.107-1.066-.213-1.492-.32l-.8-4a14.362,14.362,0,0,0,1.492.213C21.658,16.4,21.871,17.73,22.191,19.115Z" transform="translate(-19.9 -14.8)" fill="#939169"/>
        </g>
        <g id="Group_857" data-name="Group 857" transform="translate(0.637 0.237)">
          <path id="Path_3502" data-name="Path 3502" d="M14.143,8.024A9.4,9.4,0,0,1,12.6,7.652c-.107-.586-.213-1.119-.32-1.7a10.22,10.22,0,0,0-1.066-3.623c.266,0,0-.213-.107-.213,0-.053-.053-.053-.107,0-2.131-.32-4.262.639-6.233,1.119A1.427,1.427,0,0,0,4.5,2C6.791,1.418,9.455.086,11.906.672A26.192,26.192,0,0,1,14.143,8.024Z" transform="translate(-4.5 -0.526)" fill="#939169"/>
        </g>
        <g id="Group_858" data-name="Group 858" transform="translate(11.918 23.992)">
          <path id="Path_3503" data-name="Path 3503" d="M30.589,47.77c-2.184-3.729-1.865-3.143-4.848-.639-.479.533,1.758,2.984,1.971,2.611-.426-.426-2.238-2.131-1.7-2.717,1.492-.586,2.451-2.984,3.516-.586C29.79,46.651,30.376,48.249,30.589,47.77Z" transform="translate(-25.674 -45.112)" fill="#1d1d1b"/>
        </g>
        <g id="Group_859" data-name="Group 859" transform="translate(13.957 26.804)">
          <path id="Path_3504" data-name="Path 3504" d="M32.27,50.449c-.693.906-1.438,2.025-2.77,1.865,1.012.639,2.4-.852,2.93-1.811C32.484,50.4,32.324,50.343,32.27,50.449Z" transform="translate(-29.5 -50.391)" fill="#1d1d1b"/>
        </g>
        <g id="Group_860" data-name="Group 860" transform="translate(11.346 11.944)">
          <path id="Path_3505" data-name="Path 3505" d="M31.473,39.282c.746-5.541,1.012-11.242,1.438-16.782-.746,1.545-.426,4.9-.852,7.086,0-.053-.053-.053-.107,0a5.427,5.427,0,0,0-3.889-.8c-.32,1.066-.693,3.143-.16,3.889a11.75,11.75,0,0,1,.373-3.836c1.225.16,2.664.107,3.676.906a9.06,9.06,0,0,1-.746,3.516c-1.066.426-2.717-.479-3.516-.373.959.32,2.451,1.012,3.463.533.373,0,.533-.959.746-1.332a63.612,63.612,0,0,0-.426,7.192,6.3,6.3,0,0,1-6.873.053C25.879,40.934,30.3,40.934,31.473,39.282Z" transform="translate(-24.6 -22.5)" fill="#1d1d1b"/>
        </g>
      </g>
    </g>
    <path id="Path_3464" data-name="Path 3464" d="M360.424,320.1V243.107h-1.374V320.1" transform="translate(613.673 -137.24) rotate(90)" fill="#1a1311"/>
    <path id="Path_3511" data-name="Path 3511" d="M360.424,281.947v-38.84h-1.374v38.84" transform="translate(-26.474 -20.107)" fill="#1a1311"/>
    <path id="Path_3510" data-name="Path 3510" d="M360.424,281.947v-38.84h-1.374v38.84" transform="translate(-65.474 -20.107)" fill="#1a1311"/>
    <path id="Path_3516" data-name="Path 3516" d="M360.424,282.794V243.107h-1.374v39.687" transform="translate(576.633 -98.24) rotate(90)" fill="#1a1311"/>
  </g>
</svg>
