<svg xmlns="http://www.w3.org/2000/svg" width="194.799" height="194.799" viewBox="0 0 194.799 194.799">
  <g id="Group_888" data-name="Group 888" transform="translate(-177 -106.001)">
    <rect id="Rectangle_769" data-name="Rectangle 769" width="194.797" height="194.797" transform="translate(177 106.003)" fill="#fff3d8"/>
    <path id="Path_3447" data-name="Path 3447" d="M295.322,243.269h194.8v-.687h-194.8" transform="translate(-118.322 -20.388)" fill="#1a1311"/>
    <path id="Path_3451" data-name="Path 3451" d="M418.837,242.844v194.8h.687v-194.8" transform="translate(-85.999 -136.842)" fill="#1a1311"/>
    <path id="Path_3452" data-name="Path 3452" d="M329.549,242.582v194.8h.687v-194.8" transform="translate(-113.59 -136.579)" fill="#1a1311"/>
    <path id="Path_3453" data-name="Path 3453" d="M389.337,183.744h194.8v-.687h-194.8" transform="translate(-212.337 -38.783)" fill="#1a1311"/>
    <path id="Path_3454" data-name="Path 3454" d="M389.337,273.031h194.8v-.687h-194.8" transform="translate(-212.337 -11.191)" fill="#1a1311"/>
    <path id="Path_3456" data-name="Path 3456" d="M418.837,149.355V231h.687V149.355" transform="translate(-163.999 69.803)" fill="#1a1311"/>
    <path id="Path_3459" data-name="Path 3459" d="M295.322,243.269h194.8v-.687h-194.8" transform="translate(-118.323 -59.388)" fill="#1a1311"/>
    <path id="Path_3458" data-name="Path 3458" d="M418.837,149.355v194.8h.687v-194.8" transform="translate(-124.999 -43.352)" fill="#1a1311"/>
    <path id="Path_3457" data-name="Path 3457" d="M418.837,149.355v194.8h.687v-194.8" transform="translate(-163.999 -43.352)" fill="#1a1311"/>
    <rect id="Rectangle_770" data-name="Rectangle 770" width="39" height="193" transform="translate(255 107)" fill="#d2d2d3"/>
    <rect id="Rectangle_771" data-name="Rectangle 771" width="38" height="193" transform="translate(371 184) rotate(90)" fill="#d2d2d3"/>
    <path id="Path_3455" data-name="Path 3455" d="M300.474,154.506h-.687V348.617h194.8v-194.8h-194.8v.687h.687v.687H493.211v192.05H301.161V154.506h-.687v0Z" transform="translate(-122.787 -47.818)" fill="#1a1311"/>
    <path id="Path_3460" data-name="Path 3460" d="M360.424,320.107v-77h-1.374v77" transform="translate(-65.474 -136.107)" fill="#1a1311"/>
    <path id="Path_3462" data-name="Path 3462" d="M360.424,321.714V243.107h-1.374v78.606" transform="translate(-65.474 -20.914)" fill="#1a1311"/>
    <path id="Path_3463" data-name="Path 3463" d="M360.424,321.714V243.107h-1.374v78.606" transform="translate(-105.474 -20.914)" fill="#1a1311"/>
    <path id="Path_3464" data-name="Path 3464" d="M360.424,320.1V243.107h-1.374V320.1" transform="translate(613.673 -137.24) rotate(90)" fill="#1a1311"/>
    <path id="Path_3465" data-name="Path 3465" d="M360.424,320.1V243.107h-1.374V320.1" transform="translate(613.673 -176.24) rotate(90)" fill="#1a1311"/>
    <path id="Path_3466" data-name="Path 3466" d="M360.424,320.532V243.107h-1.374v77.425" transform="translate(498.107 -137.24) rotate(90)" fill="#1a1311"/>
    <line id="Line_12" data-name="Line 12" y2="193" transform="translate(274.5 107.5)" fill="none" stroke="#1a1311" stroke-width="1" stroke-dasharray="5 4"/>
    <line id="Line_13" data-name="Line 13" x1="193" y2="1" transform="translate(178.5 203.5)" fill="none" stroke="#1a1311" stroke-width="1" stroke-dasharray="5 4"/>
    <g id="Group_889" data-name="Group 889" transform="translate(-315.834 -308.039)">
      <g id="Group_846" data-name="Group 846" transform="translate(532 453)">
        <rect id="Rectangle_774" data-name="Rectangle 774" width="38.508" height="38.232" fill="#fcd41d"/>
      </g>
      <g id="lemonade-with-straw" transform="translate(538.541 456.676)">
        <g id="Group_847" data-name="Group 847" transform="translate(0.075 0)">
          <path id="Path_3492" data-name="Path 3492" d="M11.3,5.134c-.67-.312-2.163.676-1.751,1.2a207.007,207.007,0,0,0,3.863,22.721c1.957,1.716,7.365,2.392,8.5-.416C22.48,23.124,23,17.56,23.716,12.1c7.622,2.028,8.858-9.411,2.266-11.49-3.605-1.144-6.644,2.236-6.953,4.211m0,.052c-.052-.156-2.06-.312-5.974.1a15.22,15.22,0,0,0-1.6-4.367c.464.26-.052-.468-.258-.468,0-.052-.052-.052-.1-.052A18.054,18.054,0,0,0,3.939,1.6c-.052-.156-.309-.052-.206.1H3.682c0-.1-.1,0-.155.1-.052,0-.1.052-.052.1-.1.416.1,1.352.618,1.3.1.052.1,0,.155-.052,1.906-.416,4.223-1.508,6.129-1.092.824,1.508.927,3.484,1.236,5.147" transform="translate(-3.45 -0.081)" fill="#f4eb95"/>
        </g>
        <g id="Group_848" data-name="Group 848" transform="translate(21.125 7.038)">
          <path id="Path_3493" data-name="Path 3493" d="M47.71,15.763c-2.472-2.73-3.245-2.421-.155.1A3.625,3.625,0,0,1,44.568,17.1c-.1-1.082.464-2.73.258-3.5-.155.979-.876,3.039-.258,3.554C45.444,17.617,47.916,16.793,47.71,15.763Z" transform="translate(-44.322 -13.6)" fill="#1d1d1b"/>
        </g>
        <g id="Group_849" data-name="Group 849" transform="translate(22.299 4.16)">
          <path id="Path_3494" data-name="Path 3494" d="M49.175,8.18c-.052-.052-.1,0-.1.052a6.209,6.209,0,0,1-2.215,1.391c.051.567,2.009-.773,2.318-1.185.361,1.082,1.185,2.884.206,3.708-1.03-.155-2.009-1.957-2.781-2.009.824.567,1.957,2.524,2.884,2.06C50.514,11.373,49.845,9.055,49.175,8.18Z" transform="translate(-46.6 -8.159)" fill="#1d1d1b"/>
        </g>
        <g id="Group_850" data-name="Group 850" transform="translate(21.315 2.012)">
          <path id="Path_3495" data-name="Path 3495" d="M47.837,5.436A2.794,2.794,0,0,0,44.85,4.1c-.515,3.039.412,3.863.052.052,3.142.309,3.451,2.06.361,3.039C45.88,7.188,48.043,6.466,47.837,5.436Z" transform="translate(-44.69 -3.988)" fill="#1d1d1b"/>
        </g>
        <g id="Group_851" data-name="Group 851" transform="translate(17.622 1.955)">
          <path id="Path_3496" data-name="Path 3496" d="M40.754,3.94c-.824-.361-3.605.876-3.193,1.957,2.266,1.6,3.863,1.288.1,0,.258-1.133,1.854-1.648,2.936-1.906.618.567-.309,2.369.155,2.781C40.806,6.36,41.269,4.146,40.754,3.94Z" transform="translate(-37.52 -3.876)" fill="#1d1d1b"/>
        </g>
        <g id="Group_852" data-name="Group 852" transform="translate(18.355 7.21)">
          <path id="Path_3497" data-name="Path 3497" d="M40.363,16.39c-1.7-.67-.979-1.391-.051-2.421-.052-.309-1.957,1.648-1.185,1.957C39.281,16.081,40.569,16.9,40.363,16.39Z" transform="translate(-38.943 -13.936)" fill="#1d1d1b"/>
        </g>
        <g id="Group_853" data-name="Group 853" transform="translate(0 0.023)">
          <path id="Path_3498" data-name="Path 3498" d="M19.525,6.351a5.7,5.7,0,0,1,.052-.936A5.7,5.7,0,0,0,19.525,6.351Zm0,0a5.7,5.7,0,0,1,.052-.936A5.7,5.7,0,0,0,19.525,6.351Zm0,0a5.7,5.7,0,0,1,.052-.936A5.7,5.7,0,0,0,19.525,6.351Zm0,0a5.7,5.7,0,0,1,.052-.936A5.7,5.7,0,0,0,19.525,6.351ZM25.808.632c-4.069-1.248-8.292,3.224-6.8,7.227A24.727,24.727,0,0,1,13.448,7.7c-.155-.832-.309-1.664-.464-2.548C20.5,5.311,20.3,4.219,12.933,5a15.22,15.22,0,0,0-1.6-4.367c.464.26-.052-.468-.258-.468,0-.052-.052-.052-.1,0A16.98,16.98,0,0,0,3.817,1.62c-.1-.156-.309-.052-.206.1H3.559c-.052-.1-.155,0-.155.1-.052,0-.1.052-.052.1-.155.416.052,1.352.618,1.3.052.052.1-.052.1-.1C5.98,2.764,8.3,1.672,10.255,2.036c.824,1.508.927,3.483,1.236,5.147-.67-.26-1.133-.624-1.133-1.04a.077.077,0,1,0-.155,0c-.206.832.464,1.3,1.391,1.508.155.832.309,1.716.515,2.6-.206-.1-.876.1-.773.26.206-.156.515-.1.773-.156a8.893,8.893,0,0,1,.206,1.144c-.876-.1-1.494-1.612-1.185-.52.721,5.719,1.906,11.438,2.936,17.106-.464-5.2-1.854-11.49-2.884-17a2.334,2.334,0,0,0,1.185.728l2.318,11.854c.361.52,1.854.312,1.7-.364-.67-3.691-1.391-7.383-2.112-11.074,3.09.468,7.416.312,7.931-.78a6.021,6.021,0,0,0,1.03.364,158.38,158.38,0,0,0-1.6,16.95c-1.751,2.34-6.026,1.716-8.189.26C12.006,21.429,10.924,13.786,9.533,6.2a1.7,1.7,0,0,1,1.494-.728c.155,0,.155-.208.052-.26-.67-.312-2.112.676-1.648,1.2a207,207,0,0,0,3.863,22.721c1.957,1.716,7.365,2.392,8.5-.416.618-5.511,1.082-11.074,1.8-16.534C31.164,14.15,32.5,2.556,25.808.632ZM4.023,3.024H3.971A1.1,1.1,0,0,1,3.611,1.88l.052-.052A1.51,1.51,0,0,1,4.023,3.024Zm7.416,2.6a10.044,10.044,0,0,0-1.03-3.535c.258,0,0-.208-.1-.208,0-.052-.052-.052-.1,0-2.06-.312-4.12.624-6.026,1.092a1.4,1.4,0,0,0-.258-1.2C6.134,1.2,8.709-.1,11.079.476A27.957,27.957,0,0,1,13.242,7.7a9.02,9.02,0,0,1-1.494-.364C11.645,6.715,11.542,6.2,11.439,5.623Zm.412,2.132a13.76,13.76,0,0,0,1.442.208c.258,1.352.464,2.7.773,4-.567-.1-1.03-.208-1.442-.312C12.315,10.3,12.057,9.055,11.851,7.755ZM16.28,23.4a1.289,1.289,0,0,1-1.339.26c-.721-3.9-1.494-7.851-2.266-11.75a5.893,5.893,0,0,0,1.442.312C14.838,15.97,15.508,19.713,16.28,23.4ZM22,11.394c-.721.884-4.79,1.092-7.725.624a15.753,15.753,0,0,0-.361-1.664c8.446.312,7.416-.676-.052-.156-.155-.728-.258-1.456-.412-2.184,2.318.052,3.09.26,5.614.312A7,7,0,0,0,22,11.394Zm1.288.156a6.267,6.267,0,0,1-3.811-3.328h.412a4.609,4.609,0,0,0,3.5,2.86A1.53,1.53,0,0,0,23.285,11.55Zm.1-.624a5.547,5.547,0,0,1-3.348-2.7,3.447,3.447,0,0,0,.721-.1,3.3,3.3,0,0,0,2.369-1.2.832.832,0,0,1,.876.364C23.748,8.483,23.542,9.679,23.388,10.926Zm-.052-5.3a.842.842,0,0,0,1.133-.364c.1.364.464.676.773.572a.836.836,0,0,0-.1.78c-.567.208-.876.52-.876.676a2.362,2.362,0,0,0-.1-1.248,7.423,7.423,0,0,1-.206,1.04.689.689,0,0,0-.721-.416A1.081,1.081,0,0,0,23.336,5.623Zm.361,6.343h0v-.572c6.8,1.664,8.034-8.475,1.8-9.983a4.614,4.614,0,0,0-5.871,3.9,4.793,4.793,0,0,1,5.82-3.691c5.974,1.456,4.893,11.126-1.7,9.567,0-1.04.464-2.652.567-3.847,0,.156.309.1.979-.468.1.156.412.1.258-.1.051-.052,0-.1-.052-.1a.524.524,0,0,1,.1-.78c.051-.052,0-.1-.052-.1-.052-.26-.412,0-.567-.156-.309,0-.206-.884-.412-.52-.258,0-.309.364-.567.416-.258.208-.618-.156-.773,0-.206.208.206.572.051.832-.412.1-.412.728-1.082.884.1-.208.876-.936.412-.884A2.374,2.374,0,0,1,20.709,7.7c-1.133-3.639.052-2.548,2.215-1.664C20.4,4.115,19.525,4.583,20.5,7.755c-.206.052-.361.052-.567.1a7.221,7.221,0,0,1-.309-1.352,4.418,4.418,0,0,0,.206,1.4c-.155,0-.309.052-.464.052-1.442-3.8,2.575-8.111,6.489-6.915C32.04,2.712,30.907,13.578,23.7,11.966Zm-4.069-6.5a2.866,2.866,0,0,0-.052.936A2.7,2.7,0,0,1,19.628,5.467Zm-.1.884a5.7,5.7,0,0,1,.052-.936A5.7,5.7,0,0,0,19.525,6.351Zm0,0a5.7,5.7,0,0,1,.052-.936A5.7,5.7,0,0,0,19.525,6.351Zm0,0a5.7,5.7,0,0,1,.052-.936A5.7,5.7,0,0,0,19.525,6.351Zm0,0a5.7,5.7,0,0,1,.052-.936A5.7,5.7,0,0,0,19.525,6.351Z" transform="translate(-3.304 -0.125)" fill="#1d1d1b"/>
        </g>
        <g id="Group_854" data-name="Group 854" transform="translate(0.255 1.709)">
          <path id="Path_3499" data-name="Path 3499" d="M4.263,4.585H4.211a1.085,1.085,0,0,1-.361-1.133L3.9,3.4A1.486,1.486,0,0,1,4.263,4.585Z" transform="translate(-3.798 -3.4)" fill="#939169"/>
        </g>
        <g id="Group_855" data-name="Group 855" transform="translate(9.372 11.883)">
          <path id="Path_3500" data-name="Path 3500" d="M25.105,34.182a1.3,1.3,0,0,1-1.339.258c-.721-3.863-1.494-7.777-2.266-11.639a5.942,5.942,0,0,0,1.442.309C23.663,26.817,24.333,30.525,25.105,34.182Z" transform="translate(-21.5 -22.8)" fill="#939169"/>
        </g>
        <g id="Group_856" data-name="Group 856" transform="translate(8.548 7.664)">
          <path id="Path_3501" data-name="Path 3501" d="M22.115,18.972c-.567-.1-1.03-.206-1.442-.309L19.9,14.8a13.884,13.884,0,0,0,1.442.206C21.6,16.345,21.806,17.633,22.115,18.972Z" transform="translate(-19.9 -14.8)" fill="#939169"/>
        </g>
        <g id="Group_857" data-name="Group 857" transform="translate(0.616 0.229)">
          <path id="Path_3502" data-name="Path 3502" d="M13.822,7.775a9.091,9.091,0,0,1-1.494-.361c-.1-.567-.206-1.082-.309-1.648a9.879,9.879,0,0,0-1.03-3.5c.258,0,0-.206-.1-.206,0-.052-.052-.052-.1,0-2.06-.309-4.12.618-6.026,1.082A1.379,1.379,0,0,0,4.5,1.955C6.715,1.388,9.29.1,11.659.667A25.319,25.319,0,0,1,13.822,7.775Z" transform="translate(-4.5 -0.526)" fill="#939169"/>
        </g>
        <g id="Group_858" data-name="Group 858" transform="translate(11.521 23.48)">
          <path id="Path_3503" data-name="Path 3503" d="M30.426,47.681c-2.112-3.605-1.8-3.039-4.687-.618-.464.515,1.7,2.884,1.906,2.524-.412-.412-2.163-2.06-1.648-2.627,1.442-.567,2.369-2.884,3.4-.567C29.653,46.6,30.22,48.145,30.426,47.681Z" transform="translate(-25.674 -45.112)" fill="#1d1d1b"/>
        </g>
        <g id="Group_859" data-name="Group 859" transform="translate(13.492 26.198)">
          <path id="Path_3504" data-name="Path 3504" d="M32.178,50.447c-.67.876-1.391,1.957-2.678,1.8.979.618,2.318-.824,2.833-1.751C32.384,50.4,32.23,50.344,32.178,50.447Z" transform="translate(-29.5 -50.391)" fill="#1d1d1b"/>
        </g>
        <g id="Group_860" data-name="Group 860" transform="translate(10.968 11.834)">
          <path id="Path_3505" data-name="Path 3505" d="M31.244,38.723c.721-5.356.979-10.867,1.391-16.223-.721,1.494-.412,4.738-.824,6.85,0-.052-.052-.052-.1,0a5.246,5.246,0,0,0-3.76-.773c-.309,1.03-.67,3.039-.155,3.76a11.358,11.358,0,0,1,.361-3.708c1.185.155,2.575.1,3.554.876a8.758,8.758,0,0,1-.721,3.4c-1.03.412-2.627-.464-3.4-.361.927.309,2.369.979,3.348.515.361,0,.515-.927.721-1.288a61.493,61.493,0,0,0-.412,6.953,6.1,6.1,0,0,1-6.644.052C25.836,40.32,30.111,40.32,31.244,38.723Z" transform="translate(-24.6 -22.5)" fill="#1d1d1b"/>
        </g>
      </g>
    </g>
    <path id="Path_3461" data-name="Path 3461" d="M360.424,319.3V243.107h-1.374V319.3" transform="translate(-105.474 -136.107)" fill="#1a1311"/>
    <path id="Path_3467" data-name="Path 3467" d="M360.424,320.532V243.107h-1.374v77.425" transform="translate(498.107 -176.24) rotate(90)" fill="#1a1311"/>
    <path id="Path_3526" data-name="Path 3526" d="M360.424,282.026V243.107h-1.374v38.919" transform="translate(-143.474 -98.833)" fill="#1a1311"/>
    <path id="Path_3527" data-name="Path 3527" d="M360.424,280.794V243.107h-1.374v37.687" transform="translate(497.37 -215.24) rotate(90)" fill="#1a1311"/>
  </g>
</svg>
