<svg xmlns="http://www.w3.org/2000/svg" width="194.799" height="194.799" viewBox="0 0 194.799 194.799">
  <g id="Group_882" data-name="Group 882" transform="translate(-177 -106.001)">
    <rect id="Rectangle_769" data-name="Rectangle 769" width="194.797" height="194.797" transform="translate(177 106.003)" fill="#fff3d8"/>
    <path id="Path_3447" data-name="Path 3447" d="M295.322,243.269h194.8v-.687h-194.8" transform="translate(-118.322 -20.388)" fill="#1a1311"/>
    <path id="Path_3451" data-name="Path 3451" d="M418.837,242.844v194.8h.687v-194.8" transform="translate(-85.999 -136.842)" fill="#1a1311"/>
    <path id="Path_3452" data-name="Path 3452" d="M329.549,242.582v194.8h.687v-194.8" transform="translate(-113.59 -136.579)" fill="#1a1311"/>
    <path id="Path_3453" data-name="Path 3453" d="M389.337,183.744h194.8v-.687h-194.8" transform="translate(-212.337 -38.783)" fill="#1a1311"/>
    <path id="Path_3454" data-name="Path 3454" d="M389.337,273.031h193.8v-.687h-193.8" transform="translate(-211.337 -11.191)" fill="#1a1311"/>
    <path id="Path_3456" data-name="Path 3456" d="M418.837,149.355V231h.687V149.355" transform="translate(-163.999 69.803)" fill="#1a1311"/>
    <path id="Path_3459" data-name="Path 3459" d="M295.322,243.269h194.8v-.687h-194.8" transform="translate(-118.323 -59.388)" fill="#1a1311"/>
    <path id="Path_3458" data-name="Path 3458" d="M418.837,149.355v194.8h.687v-194.8" transform="translate(-124.999 -43.352)" fill="#1a1311"/>
    <path id="Path_3457" data-name="Path 3457" d="M418.837,149.355v194.8h.687v-194.8" transform="translate(-163.999 -43.352)" fill="#1a1311"/>
    <rect id="Rectangle_770" data-name="Rectangle 770" width="39" height="116" transform="translate(255 107)" fill="#d2d2d3"/>
    <rect id="Rectangle_771" data-name="Rectangle 771" width="38" height="193" transform="translate(371 184) rotate(90)" fill="#d2d2d3"/>
    <path id="Path_3460" data-name="Path 3460" d="M360.424,320.107v-77h-1.374v77" transform="translate(-65.474 -136.107)" fill="#1a1311"/>
    <line id="Line_12" data-name="Line 12" y2="96" transform="translate(274.5 107.5)" fill="none" stroke="#1a1311" stroke-width="1" stroke-dasharray="5 4"/>
    <line id="Line_13" data-name="Line 13" x1="193" y2="1" transform="translate(178.5 203.5)" fill="none" stroke="#1a1311" stroke-width="1" stroke-dasharray="5 4"/>
    <path id="Path_3465" data-name="Path 3465" d="M360.424,320.1V243.107h-1.374V320.1" transform="translate(613.673 -176.24) rotate(90)" fill="#1a1311"/>
    <path id="Path_3455" data-name="Path 3455" d="M300.474,154.506h-.687V348.617h194.8v-194.8h-194.8v.687h.687v.687H493.211v192.05H301.161V154.506h-.687v0Z" transform="translate(-122.787 -47.818)" fill="#1a1311"/>
    <path id="Path_3464" data-name="Path 3464" d="M360.424,320.1V243.107h-1.374V320.1" transform="translate(613.673 -137.24) rotate(90)" fill="#1a1311"/>
    <path id="Path_3461" data-name="Path 3461" d="M360.424,319.3V243.107h-1.374V319.3" transform="translate(-105.474 -136.107)" fill="#1a1311"/>
    <path id="Path_3467" data-name="Path 3467" d="M360.424,320.532V243.107h-1.374v77.425" transform="translate(498.107 -176.24) rotate(90)" fill="#1a1311"/>
    <g id="Group_883" data-name="Group 883" transform="translate(-108.92 -252.306)">
      <rect id="Rectangle_774" data-name="Rectangle 774" width="38.616" height="38.616" transform="translate(325.457 474.843)" fill="#c5352f"/>
      <path id="Path_3476" data-name="Path 3476" d="M336.549,488.686v0Z" transform="translate(5.777 7.131)"/>
      <path id="Path_3477" data-name="Path 3477" d="M336.549,490.562v0Z" transform="translate(5.777 8.133)"/>
      <path id="Path_3478" data-name="Path 3478" d="M336.549,489.91v0Z" transform="translate(5.777 7.799)"/>
      <path id="Path_3479" data-name="Path 3479" d="M336.549,493.934v0Z" transform="translate(5.777 9.853)"/>
      <path id="Path_3480" data-name="Path 3480" d="M336.549,492.565v0Z" transform="translate(5.777 9.167)"/>
      <path id="Path_3481" data-name="Path 3481" d="M336.549,491.92v0Z" transform="translate(5.777 8.785)"/>
      <path id="Path_3482" data-name="Path 3482" d="M336.549,493.232v0Z" transform="translate(5.777 9.511)"/>
      <path id="Path_3483" data-name="Path 3483" d="M336.549,494.633v0Z" transform="translate(5.777 10.206)"/>
      <path id="Path_3484" data-name="Path 3484" d="M336.549,495.411v0Z" transform="translate(5.777 10.587)"/>
      <path id="Path_3485" data-name="Path 3485" d="M336.549,496.092v0Z" transform="translate(5.777 10.965)"/>
      <path id="Path_3486" data-name="Path 3486" d="M336.549,489.239v0Z" transform="translate(5.777 7.446)"/>
      <path id="Path_3487" data-name="Path 3487" d="M336.549,491.3v0Z" transform="translate(5.777 8.477)"/>
      <g id="Group_766" data-name="Group 766" transform="matrix(0.995, 0.105, -0.105, 0.995, 338.619, 475.438)">
        <path id="Path_2634" data-name="Path 2634" d="M1.932,33.757S.061,32.967.024,31.727a8.487,8.487,0,0,1,.487-3.8c.6-1.654,1.945-5.338,1.945-5.338l.487-2.707s1.533-3.759,1.645-3.947,1.684-2.03,2.058-2.519,1.685-3.233,1.685-3.233l1.72-4.359.524-1.917s-.037-1.279.412-1.466a2.805,2.805,0,0,1,2.694-.112l.374.149L15.477,0l.485.112L16,.563l-1.31,2.482s.524.789.374,1.165-.187.451-.187.451,0,1.091-.412,1.316L13.456,10l-.485,3.121-.038,1.5.15,1.729-.037.677v1.993a4.925,4.925,0,0,1,0,1.052c-.075.188-.3,1.09-.3,1.09L11.7,24.623,10.238,29.81,8.331,34.171Z" transform="translate(0.166 0.224)" fill="#c86f67"/>
        <path id="Path_2635" data-name="Path 2635" d="M0,0H0Z" transform="translate(13.38 5.07)" fill="#1a1311"/>
        <path id="Path_2636" data-name="Path 2636" d="M.426.09.37.289.128.318,0,.4c.043.029.171.17.312.1S.6.19.54.062.426.034.426.09" transform="translate(7.116 15.738)" fill="#1a1311"/>
        <path id="Path_2637" data-name="Path 2637" d="M.015.293C.058.417.154.521.272.459A.242.242,0,0,0,.421.169.2.2,0,0,0,.154.013a.207.207,0,0,0-.139.28" transform="translate(6.356 30.349)" fill="#1a1311"/>
        <path id="Path_2638" data-name="Path 2638" d="M.182,0,0,.16.118.352.246.383l.18-.1L.437.021Z" transform="translate(11.067 12.722)" fill="#1a1311"/>
        <path id="Path_2639" data-name="Path 2639" d="M.288,0,.16.021,0,.213l.01.17L.118.437.352.394.373.2Z" transform="translate(11.239 11.989)" fill="#1a1311"/>
        <path id="Path_2640" data-name="Path 2640" d="M.064.277H.138L.184.237l.05.211L.457.405.49.309.457.192.383.159.287.128.242.106.213.064.117,0,0,.118Z" transform="translate(11.186 11.483)" fill="#1a1311"/>
        <path id="Path_2641" data-name="Path 2641" d="M0,.437.18.586.458.393.437.213.373.064.267,0,0,.1Z" transform="translate(11.24 10.805)" fill="#1a1311"/>
        <path id="Path_2642" data-name="Path 2642" d="M.224.693.3.5V.374L.219.3.277.235.33,0,.085.033,0,.107l.17.17L0,.416.021.629Z" transform="translate(10.896 11.968)" fill="#1a1311"/>
        <path id="Path_2643" data-name="Path 2643" d="M0,.1.142.255.256.128.1,0Z" transform="translate(8.987 18.728)" fill="#1a1311"/>
        <path id="Path_2644" data-name="Path 2644" d="M0,.1.142.255.256.128.1,0Z" transform="translate(11.498 20.077)" fill="#1a1311"/>
        <path id="Path_2645" data-name="Path 2645" d="M.1,0,0,.1.143.256.256.128Z" transform="translate(8.544 19.001)" fill="#1a1311"/>
        <path id="Path_2646" data-name="Path 2646" d="M.143.256H.152L.072.441C.213.6.384.515.327.285L.195.243.256.128.1,0,0,.1Z" transform="translate(9.101 17.968)" fill="#1a1311"/>
        <path id="Path_2647" data-name="Path 2647" d="M.143.256H.152L.072.441C.213.6.384.515.327.285L.195.243.256.128.1,0,0,.1Z" transform="translate(11.854 19.245)" fill="#1a1311"/>
        <path id="Path_2648" data-name="Path 2648" d="M.1,0,0,.1.142.256.255.128Z" transform="translate(9.473 16.689)" fill="#1a1311"/>
        <path id="Path_2649" data-name="Path 2649" d="M.1,0,0,.1.143.256.255.128Z" transform="translate(9.816 15.109)" fill="#1a1311"/>
        <path id="Path_2650" data-name="Path 2650" d="M.255.029.085,0,0,.1.212.213Z" transform="translate(9.188 17.09)" fill="#1a1311"/>
        <path id="Path_2651" data-name="Path 2651" d="M.142.285c.2.1.213,0,.213-.17,0-.128-.2-.128-.284-.1s-.128.17.071.269" transform="translate(9.23 16.214)" fill="#1a1311"/>
        <path id="Path_2652" data-name="Path 2652" d="M.142.285c.2.1.213,0,.213-.17,0-.128-.2-.128-.284-.1s-.128.17.071.269" transform="translate(11.161 20.57)" fill="#1a1311"/>
        <path id="Path_2653" data-name="Path 2653" d="M.3.1C.232-.017.061-.046,0,.1-.021.162.061.423.2.353S.373.21.3.1" transform="translate(8.683 18.43)" fill="#1a1311"/>
        <path id="Path_2654" data-name="Path 2654" d="M.242.227.271.072.086,0,0,.213Z" transform="translate(12.746 12.48)" fill="#1a1311"/>
        <path id="Path_2655" data-name="Path 2655" d="M.064,0,0,.071.093.184l.12-.12Z" transform="translate(12.175 3.891)" fill="#1a1311"/>
        <path id="Path_2656" data-name="Path 2656" d="M.071,0,0,.17.2.178.22.043Z" transform="translate(12.518 3.863)" fill="#1a1311"/>
        <path id="Path_2657" data-name="Path 2657" d="M0,.149.223.159.234.01,0,0Z" transform="translate(12.632 2.727)" fill="#1a1311"/>
        <path id="Path_2658" data-name="Path 2658" d="M.105.4C.284.451.414.354.414.224S.252-.1.121.062C.006.207-.074.354.105.4" transform="translate(6.972 28.832)" fill="#1a1311"/>
        <path id="Path_2659" data-name="Path 2659" d="M.195.129.228,0,0,.081.1.211Z" transform="translate(6.521 28.877)" fill="#1a1311"/>
        <path id="Path_2660" data-name="Path 2660" d="M.309.212.178,0,0,.1.081.31c.1.048.17.1.228-.1" transform="translate(6.62 29.381)" fill="#1a1311"/>
        <path id="Path_2661" data-name="Path 2661" d="M.271.063C.227-.079.013.049,0,.162L.128.247C.2.262.325.245.271.063" transform="translate(2.566 28.727)" fill="#1a1311"/>
        <path id="Path_2662" data-name="Path 2662" d="M0,.156.17.112.157,0,0,.027Z" transform="translate(2.921 27.877)" fill="#1a1311"/>
        <path id="Path_2663" data-name="Path 2663" d="M.213.029.085,0,0,.114.029.2A.235.235,0,0,0,.213.029" transform="translate(2.694 29.315)" fill="#1a1311"/>
        <path id="Path_2664" data-name="Path 2664" d="M.346.545.5.446.46.276.3.218.26.239V.2C.261.077.191-.024.133,0,0,.073-.009.175.005.218L.176.332.237.317.218.4Z" transform="translate(2.29 29.58)" fill="#1a1311"/>
        <path id="Path_2665" data-name="Path 2665" d="M0,0,0,.013V0H0Z" transform="translate(7.775 27.881)" fill="#1a1311"/>
        <path id="Path_2666" data-name="Path 2666" d="M0,.01.149.128.224,0Z" transform="translate(7.69 15.36)" fill="#1a1311"/>
        <path id="Path_2667" data-name="Path 2667" d="M.076.328.289.243.373.072c0-.085-.128-.106-.3,0s0,.256,0,.256" transform="translate(11.613 5.19)" fill="#1a1311"/>
        <path id="Path_2668" data-name="Path 2668" d="M.809,1.054C.681,1.054.66.9.681.82V.756C.745.628.938.8.96.9s-.022.149-.15.149M2.972,2.1l-.011-.348-.17-.341a1.967,1.967,0,0,1-.163-.256.842.842,0,0,1-.4-.063A.671.671,0,0,1,1.9.645C1.85.488,1.868.475,1.687.426L1.617.412l.008.174L1.613.41a3.156,3.156,0,0,0-.4-.038A.418.418,0,0,1,.881.19L.851.18.66.139.587.1.575.064.34,0,.224.18.4.352.531.217.469.352.34.563.3.65.17.863l.17.575L.191,1.48,0,1.523l.127.106.384.107.021.085h.3l.213.085.085.107.085.191.107.085.213-.319.213.17h.106L1.768,1.8V1.395l.043-.064.114-.4.17.141.043.341.065.662-.065.063-.085.654-.029.085.2.454s.027,1.051.141.881.54-1.819.54-1.819l.059-.127h.013l0-.059Z" transform="translate(6.83 29.625)" fill="#1a1311"/>
        <path id="Path_2669" data-name="Path 2669" d="M14.734,2.931l-.087.086v.009a2.951,2.951,0,0,0-.405-.268c.054-.036.98-1.84,1.279-2.424l.05-.009a.513.513,0,0,1,.42.344Zm.146,1.026-.062.2-.278-.449-.092-.171.138-.015c.124.046.262.325.293.434m-.19,1.774L14.533,6l-.079.065L14.44,6.1l-.172.144a4.634,4.634,0,0,1,.1-.625c.043-.129.279-.259.343-.5a2.77,2.77,0,0,1,.172-.452,2.46,2.46,0,0,1-.193,1.055M10.752,15.7l-.171.029c-.1-.044-.115-.245.029-.245s.185.173.142.215m-.314,1.868c-.057.013-.217-.046-.185-.173l.286-.071Zm-.2-1.136-.258.13-.1-.258c.072-.115.4-.073.358.128m-.229,1.351a.178.178,0,0,1-.315.042.2.2,0,0,1,.129-.316c.142,0,.2.172.185.274M9.579,20l-.042-.216.2.115Zm-.2-.645a.193.193,0,0,1,.158-.288.181.181,0,0,1,.171.216c-.026.067-.258.215-.329.073m-.117,1.173c-.055.108-.119.194-.25.149a.3.3,0,0,1-.114-.5l.324.05h0l.012.019ZM8.6,20.22l-.155-.188-.008-.161.2-.217.17.061a.321.321,0,0,1,.035.411Zm-.343-.233.066-.045L8.333,20ZM13.876,3.017l-.128-.36a1.741,1.741,0,0,1,.449.295ZM13.361,2.8v.007l-.117-.017-.075.053c0,.033,0,.108.129.108l.041,0-.02.067-.181.019V3.017l-.064-.13-.247.044.012.128H12.8a.941.941,0,0,1-.343-.128L12.4,2.414l-.011-.005a1.457,1.457,0,0,1,.483.005,2.478,2.478,0,0,1,.794.193c-.129.044-.3.108-.3.194m-1.308.3c-.043.065-.322.129-.451.172s-.107-.021-.107-.021l-.129-.13L11.431,3c.085-.044.328-.2.472-.152Zm-.772.969-.087-.134.066.048.15.1Zm-.15-.344-.016.091-.308.061.024-.024a1.4,1.4,0,0,1-.055-.6l.312-.005.043.194ZM13.06,5.084c.347.019.182.037.178.042l-.091-.021-.1-.021Zm.172-.129.005.073-.178-.134ZM9.308,10.449c.129-.324.406-.883.406-.883h.179l-.057.115s-.124.316-.258.666l-.071-.092-.085.1.121.085c-.135.357-.272.723-.293.806l-.028.081L9.065,11.3l-.057.172.108.111c-.146.34-.367.828-.455,1.076l-.06-.081-.129.021-.028.017c.05-.124.146-.367.258-.646l.034.12.214-.159-.028-.186-.141.021.293-.736.018.025c.1.115.114.03.2-.143L9.169,10.8c.064-.16.114-.286.14-.349M5.159,19.195c.1-.075.192-.044.192.086l-.14.075Zm.192-1.444c.075-.065.183-.065.15.086l-.1.032Zm.24.732.214.086-.029.36-.257-.087Zm.287-.962a.183.183,0,0,1,.2.186l-.229.115c-.115-.086-.129-.3.029-.3m.285-.661.114.259-.287-.029Zm.171-.459c.014-.144.1-.23.158-.23l.115.1s.071.13-.058.172-.229.1-.214-.042M.774,31.667l.3-.065.322.151v.28a1.521,1.521,0,0,0,.3.6l.45.473s-.75-.344-.943-.473a1.089,1.089,0,0,1-.429-.517c-.171-.324,0-.452,0-.452m4.077-.514a5.269,5.269,0,0,1,1.266.341A9.469,9.469,0,0,1,7.6,32.3a3.1,3.1,0,0,1,.9,1.241c.062.373.03.558-.093.62s-.185.156-.185.062.031-.062-.124-.434a2.478,2.478,0,0,0-.709-1.149,10.809,10.809,0,0,0-1.915-1.117c-.341-.155-.8-.309-.618-.371m1.01-.165.046.02-.343.013-.315-.029-.08-.233c.237.077.589.19.692.229m.565.274-.12-.011-.213-.058-.146-.168c.149.066.376.182.479.237M16.363.475,16.256.324A.729.729,0,0,0,15.719,0a.593.593,0,0,0-.279.108l-.107.259.028-.005L14.028,2.588a2.832,2.832,0,0,0-.754-.3,3.381,3.381,0,0,0-1.175,0l-.11-.021c-.065.023-.258.087-.537.173a1.57,1.57,0,0,0-.621.345l-.1.188A.711.711,0,0,0,10.6,3.3c-.022.151-.022.668-.022.668l.041.016a.68.68,0,0,0-.062.242l-.005.081-.038-.166-.085.69s-.644,1.982-.75,2.262-.815,2.183-.815,2.183l.026.012c-.35.73-1.49,3.1-1.636,3.319-.171.259-1.35,1.853-1.65,2.2a8.073,8.073,0,0,0-1.308,1.918c-.3.7-.983,2.364-1.145,2.758L3.108,19.4l-.066.114.047.086-.021.173c-.072.145-.192.5-.316.781A4.534,4.534,0,0,1,2.5,21.994c.19.849-.453,1.7-.791,2.472l.011.007c-.078.247-.18.572-.293.935a6.276,6.276,0,0,1-.349,1.12C.716,27.691.379,28.8.432,28.715c.082-.131.588-1.531.824-2.185l.07.288-.014.389L1.2,27.4l-.192.108v.818H.838l-.129-.044-.042.6-.085.129-.022.389s-.171-.194-.278-.324S.238,29.3.238,29.3l.129.324v.258c0,.194-.043.237-.043.237l-.064.151a2.353,2.353,0,0,0,.064.389c.037.187.107.115.124.091l-.253.34c-.061.082-.066.008-.195-.037l.161,1.317a6.471,6.471,0,0,0,.349.591A7.747,7.747,0,0,0,3.6,34.6a9,9,0,0,0,4.461,0A.981.981,0,0,0,8.9,33.454c-.064-.323-.214-.345-.235-.5a.547.547,0,0,0-.171-.28l-.3-.3L7.665,31.9l-.043-.1.014-.2-.529-.042-.072-.13-.213-.13-.151-.011-.011-.033L6.5,31.088a6.218,6.218,0,0,0-.63-.262l.04-.054v-.247c-.011-.021-.043-.086-.214,0l-.079.213L5.1,30.559l-.2-.07v-.1l-.158-.617L4.7,29.644,4.479,29.6l-.117.082c-.093.024-.178.522-.205.7-.129-.015-.691-.077-.991-.077a.828.828,0,0,0-.419.059l.2.061a4.576,4.576,0,0,1,.958.14l.152.074.02.106v.144l-.058.13-1.085-.1-.087-.058L2.5,30.719l.042-.259-.4-.215-.129-.029-.284-.024a1.552,1.552,0,0,0,.471-.047L2.09,29.5c-.012-.057.1-.153.161-.307l.1.077.158-.1.014-.143L2.375,29,2.3,29.02l.032-.274.046,0,.143-.086-.129-.129H2.319l.086-.1.067-.086.2.058.129-.073-.043-.272-.171-.044H2.584l.005-.087.043-.132a.676.676,0,0,1-.105-.352l-.023-.011-.03.007-.156.316-.115.086-.358,1.019a.229.229,0,0,1-.129.23c-.157.1-.129.172-.142.259s.057-.029-.087.258-.228.287-.142.374l.083.139L1.4,30.115l-.171.087-.1.272L.774,30.5.732,30.33l.057-.157.185-.015.073-.575.242-.028.043-.5.1-.186.158-.646.086-.115.214-.013.086-.331L2.06,27.7l.1-.172-.029-.115-.1-.044-.342-.157L1.682,27.2a1.983,1.983,0,0,0,.775.218l-.268-.177a1.342,1.342,0,0,1-.495-.2l.172-.538a2.121,2.121,0,0,1,.124-.723c.182-.553.395-1.094.562-1.651l.067-.267c-.043.111-.188.483-.363.937a3.293,3.293,0,0,0-.463,1.132l-.007.083c-.122.316-.23.6-.305.8l-.071-.129a1.048,1.048,0,0,1-.029-.5,24.1,24.1,0,0,0,1.232-3.7l-.037-.143q.363-.458.734-.909l-.037.083a1.372,1.372,0,0,1,.417-.328l.3-.547.022-.005.085.053.136.07.342.116a1.74,1.74,0,0,0,.371.04l.3-.022-.136-.219a.853.853,0,0,1-.025-.428l-.049-.038c-.075-.075-.15-.172.033-.247l.124-.013a2.018,2.018,0,0,1,.563-.628L5.8,19.29l0-.059L5.9,19a3.1,3.1,0,0,1,.11-.559c.072-.256.168-.551.263-.832l.266-.131c0-.156-.07-.2-.153-.2.047-.136.092-.26.13-.367l.122.061.272-.13c0-.267-.207-.214-.326-.123l.047-.135a2.575,2.575,0,0,1,.279-.5s.021-.473.171-.538.344-.173.344-.173l.056-.223.1.008.108-.118-.14-.13-.025-.007,0-.047.079-.522v.292l.212.094-.066.04.033.161.225-.107-.023-.052,1.005.152s.87.058,1.219.078l0,.008.143.157.115-.128-.032-.089.017-.026-.014-.188-.071.087s-.843-.029-1.172-.029a11.134,11.134,0,0,1-1.3-.2l-.214-.13-.067-.144,0-.013-.005,0,0-.025V14.3a.676.676,0,0,0-.508,0c-.342.107-.794.258-.794.258A17.544,17.544,0,0,0,5.02,16.544,23.156,23.156,0,0,0,3.883,19.28a3.253,3.253,0,0,1-.214.646c-1.029,2.8-.279-.044-.279-.044l-.107-.13-.083.139.032-.126.051-.013.085-.151a36.138,36.138,0,0,1,1.458-3.317,18.99,18.99,0,0,1,1.287-1.853,10.282,10.282,0,0,0,1.029-1.249,19.3,19.3,0,0,0,.922-1.766c.3-.665.754-1.713.94-2.083h0L9.019,9.3l.054-.1-.011-.014.016-.042L9.073,9.2l.085.237s-.751,1.81-.922,2.2-.814,1.68-.814,1.68l-.279.3-.214.28.429.021s.279.108.408-.021a4.049,4.049,0,0,0,.365-.8l.171-.216.107-.172.188.13.021.029-.009.028.187.015,1.2.129.358.057.071.007v.065l.285.029.143.144-.015.373.086-.029.158-.416-.129-.243-.271-.144-.072-.258c-.056-.058.3-.13-.1-.13a2.171,2.171,0,0,1-.543-.044l-.086.044.043.2h.057l.429.071.015.3-.071-.015c-.544-.1-1.5-.258-1.5-.258.114,0,.129-.36.214-.546s.672-1.58.672-1.58l.357-.9.08-.2h.163l.129-.173-.086-.323-.387-.086-.429.065-.359-.254.081-.221s.944-2.434,1.071-2.887a5.392,5.392,0,0,0,.259-.986,1.736,1.736,0,0,0,.084.211l-.085.216a8.06,8.06,0,0,1-.215,1.12c-.108.28-.814,2.327-.9,2.434l.087.108.236.044h.471l.129.042.064-.194.085-.409.343-1.293c.016-.062.274-.612.426-.965l.045.082c.043.151.151.053.151-.044l-.064-.216-.074.038.051-.145a6.04,6.04,0,0,0,.087-.668c0-.151.45-.065.642-.065.134,0,.312.032.543.057l-.221.137a1.091,1.091,0,0,0-.258.344,3.382,3.382,0,0,0-.042.755l-.108.258.3-.042-.107.172-.236.021-.129.108s-.108-.151-.15.237a7.307,7.307,0,0,1-.236,1.013s-.193.818-.043.5,1.029-1.96,1.029-1.96l.708-1.314.021-.149h0V5.045l.064-.025.194-.6L13.6,4.2a.54.54,0,0,1-.194-.086.991.991,0,0,0-.321-.108l-.235-.042H12.76l-.215.215-.107.086.065.216.042.194.187.128a8.631,8.631,0,0,0-.958,0c-.15,0-.129,0-.215-.086l.064-.258L11.8,4.4c.085-.022.258-.065.536-.13s-.232-.086-.32-.128l.055-.081-.086-.063-.092.078-.021.04-.038,0,.016-.157-.207.115.022.032-.111-.005-.012-.106.128-.5.3-.151.472-.13.773.087.428.323-.042.452.129.13.386-.044.064.3s.064.387-.085.409a1.328,1.328,0,0,1-.429-.065l-.344.711a1.249,1.249,0,0,0-.236.56c-.022.258-.043.775-.043.775h-.192c-.065,0-.279.173-.279.3a5.355,5.355,0,0,1-.085.559l-.237.151-.085.259-.107.216-.172-.065-.279.366-.128.129-.022.258.15.065.816-.021.3-.108s.064.194.192.194.472.021.472.021.106-.969.193-1.4a5.887,5.887,0,0,1,.235-1.013l.407-.345.043-.057.064-.007c.012,0-.479,1.869-.536,2.111s-.447,2-.605,2.881l.048-1.438.064-.128.129-.152-.151-.258-.128.044-.194.151L12.739,9.5l-.408-.023-.492.044-.258-.065H11.26l-.129.345h-.086v.56l-.129.086-.343.409c-.065.108-.042.086-.065.28s-.021.475-.021.475a2.048,2.048,0,0,0,0,.517c.043.13.15-.366.15-.366l.129-.582.171-.238.193-.042c.064-.044.064-.086.106-.215a.508.508,0,0,0,.022-.237l.118-.371.063.221.108.065.236-.216.031-.27c-.031-.044-.117,0-.331.054l-.07.033.059-.184.75.151.171.042a2.867,2.867,0,0,1-.064.475c-.042.128-.214,0-.471.065s-.086.042-.086.042l.236.324-.171-.022-.279-.086.042.194.022.28.128.107V11.5l-.021.215H11.9l.192.065-.021.5-.473-.044-.063.237.171.194-.171.108v.344l-.151.044-.086.086-.085.236-.214.3-.236.108-.043.216.193.086.321.021-.021.389.279.128.214.108.086.194.236.086.064-.065.043-.452.065-1.529.106-.194.044-.194.085-1.377.107-.475.193-.991h.321a3.085,3.085,0,0,1-.107.582c-.064.151-.043.065-.106.065v1.077l-.129.044-.15.086a4.833,4.833,0,0,0,.129.668c.063.172.086-.044.15-.237s.15.042.15.042l-.1.743-.105-.046-.113.1c-.014.073-.072.159.086.2l.1.011-.02.155h-.065l-.022.452-.128-.042-.172-.065-.107.753.085.28.215.173v.3l-.344.042.194.389h.129l.113-.213.008.119.056.676.115.057h.03l.1.248.09.4-.363-.021-.237-.6-.171-.108a2.307,2.307,0,0,0-.043.345c0,.13.151.151.214.452a3.464,3.464,0,0,0,.151.517s.042.711.021.927-.194-.668-.194-.8-.408-1.013-.429-1.27a4.829,4.829,0,0,0-.085-.8c-.043-.065-.386.086-.515.042s-.021-.366-.021-.366l-.129-.042-.215-.194-.279-.151-.429-.28a2.556,2.556,0,0,1,.172.387c.042.151-.043.173-.108.259s-.064.065-.193.044a.715.715,0,0,0-.321.063l-.125.325-.139-.06-.071.173.13.094c-.072.186-.141.358-.159.394l.085.324-.257.689s.02.169.038.3l-.1.012-.083.046L9.05,17.55l-.086.172.171.159.122-.094c.045.089.135.2.207.065l.039-.067a4.145,4.145,0,0,1-.132.871c-.085.237-.429.5-.537.6l-.145.295-.079-.005-.047-.005a.654.654,0,0,1-.551.419l.279.181a2.788,2.788,0,0,1,.537.55l.032.11-.13.151-.174.184.1.071c.108-.128.214-.259.322-.387h.007c-.093.112-.228.268-.322.391a5.143,5.143,0,0,1,.763.636v-.007s.028-.235.028-.409c0-.144.151-.258.288-.3a1.4,1.4,0,0,1,.825-.517l-.191-.255a4.712,4.712,0,0,1-.242-.882.763.763,0,0,1-.145-.82l-.042-.194.192-.194c.036,0,.184.007.315.012l.028.058.091-.008-.1-.049.18.008.095.05a2.1,2.1,0,0,1,.874.374,8.936,8.936,0,0,0,.854.628c.234.127.472.249.705.378l-.018-1.236.044-1.53-.053-.04.084-.185V16.54l-.17-.533-.018-.017-.016-.149a7.864,7.864,0,0,1,.043-1l.046-.144.085-.11a.377.377,0,0,1-.188-.471l.075-.237.028-.83c.051-.377.171-1.231.183-1.274l.071-.374c.1-.833,1.229-5.17,1.273-5.227l.008-.055.2-.2a2.06,2.06,0,0,0,.129-.8,3.6,3.6,0,0,1,.047-.416l.146-.036a1.082,1.082,0,0,0,0-1.013,1.482,1.482,0,0,0-.307-.431h.007c.018-.055,1.1-2.064,1.4-2.616L16.3.6l.058-.116Z" transform="translate(0.107 0)" fill="#1a1311"/>
        <path id="Path_2670" data-name="Path 2670" d="M.024.256c0,.128-.085.468.063.511l.02.006L.011,0Z" transform="translate(0 30.315)" fill="#1a1311"/>
        <path id="Path_2671" data-name="Path 2671" d="M0,0H0Z" transform="translate(9.048 19.699)" fill="#1a1311"/>
        <path id="Path_2672" data-name="Path 2672" d="M0,0,.012.021l0,.042Z" transform="translate(9.468 20.315)" fill="#1a1311"/>
        <path id="Path_2673" data-name="Path 2673" d="M.838,1.96a2.692,2.692,0,0,1,.123-.888c.058-.179.123-.286.047-.467A1.184,1.184,0,0,0,.16,0C0-.031-.069.215.092.25A1.075,1.075,0,0,1,.581.475C.789.65.77.759.715,1a3.883,3.883,0,0,0-.133.956.128.128,0,0,0,.256,0" transform="translate(9.569 21.987)" fill="#1a1311"/>
        <path id="Path_2674" data-name="Path 2674" d="M3.6,0c-.133.736-.289,1.468-.461,2.2C2.87,3.3,2.478,4.348,2.12,5.427c-.288.864-.483,1.743-.718,2.617-.18.669-.435,1.327-.651,1.986-.248.762-.519,1.523-.732,2.3-.073.264.1.592.024.852.384-1.4.885-2.77,1.339-4.147.239-.728.365-1.5.595-2.236.343-1.09.778-2.141,1.06-3.253.228-.889.421-1.788.584-2.692C3.67.576,3.547.272,3.6,0" transform="translate(9.679 19.461)" fill="#1a1311"/>
        <path id="Path_2675" data-name="Path 2675" d="M.483.545l0-.006,0-.024L.475.362.437.341.412.2.4.272.388.115.3.127.11.069.084.128.045.065l-.02.01.02-.01V0L.018.018l0,.09L0,.1.013.127.03.109.056.127.039.169l.025.05L.135.171.123.2.161.307.124.416.1.646.045.873l.2.1L.213,1l.022.046L.258.979.33.961l.017.094.012-.009L.426.8.485.549Z" transform="translate(12.518 19.513)" fill="#1a1311"/>
        <path id="Path_2676" data-name="Path 2676" d="M2.874,1.5l.056.013c-.026.167-.06.341-.1.52s-.1.361-.156.546-.124.375-.2.566-.143.386-.225.58c-.312.782-.68,1.591-.953,2.4l-.189-.112c-.017.237-.048.485-.075.732A4.866,4.866,0,0,0,1,7.465l.086-.146a1.368,1.368,0,0,1-.075.794L.961,8.074c.065-.323-.026.014-.133-.157L.818,7.854l-.037.023.009.063L.725,7.862.7,7.934a.449.449,0,0,1-.479.007c.008.05.183.054.077.217L.248,8.118l.039.225-.1.067,0,.2.1.052c-.122.315-.1.752-.247,1.071.093.094-.088.246-.034.45l.136-.059a.806.806,0,0,0,.2-.426l.063-.275.088-.252L.553,9.2l-.008.207.106.047c.212-.024.225-.167.2-.32s-.1-.315-.054-.365l.162.017L1,8.87c.041.15.123.114.213.031L1.5,8.657,1.7,8.411l.075-.165.067-.183c.081-.25.127-.523.195-.723-.046-.752.558-1.537.778-2.156.14-.285-.092-.909.308-.983l.133-.269.09-.187.041-.085.058.033a4.376,4.376,0,0,0,.216-.884c.023-.152.047-.3.069-.451s.038-.293.063-.429c.048-.238-.1-.348.107-.411A1.8,1.8,0,0,0,4.05.769a5.978,5.978,0,0,1,0-.769H3.9c.031.247-.158.493-.314.471l.03-.084L3.463.519,3.5.627l-.1.02a3.2,3.2,0,0,1-.39.417.569.569,0,0,1-.132.437" transform="translate(8.778 21.311)" fill="#1a1311"/>
        <path id="Path_2677" data-name="Path 2677" d="M.252,3.351C.416,2.293.975,1.339,1.064.265L.814.291Q.654,1.166.483,2.039.4,2.465.314,2.892c-.027.135-.055.269-.082.405s-.041.288-.166.357H.286a2.436,2.436,0,0,1,.14-1c.082-.3.179-.6.276-.9A11.906,11.906,0,0,0,1.171,0L.919.042A12.826,12.826,0,0,1,.405,1.915c-.1.3-.19.6-.267.9a2.184,2.184,0,0,0-.1.879H.256c.2-.114.214-.369.256-.575Q.606,2.655.7,2.188C.824,1.553.944.916,1.063.28L.812.306C.723,1.378.163,2.335,0,3.391Z" transform="translate(11.609 18.888)" fill="#1a1311"/>
        <path id="Path_2678" data-name="Path 2678" d="M.61,1.727l.067-.111L.35,1.59l.011.05L.4,1.579l.034-.2L.66,1.093.5,1.1l.04.008L.323,1C.411,1.1.545,2.07.409,2.091l.328.143a.907.907,0,0,1,.325-1.12l-.376-.1a2.429,2.429,0,0,1,.142.909l.405.1a4.162,4.162,0,0,0,.009-.584c-.018-.124-.082-.169-.2-.211-.276-.1-.443.1-.544.34l.406.1C.9,1.174.9.671.9.167.9.029.5-.053.494.039Q.486.818.5,1.6l.405.1c.044-.107.122-.271.247-.3L.914,1.365l.034.017-.124-.1A2.88,2.88,0,0,1,.829,1.9l.405.1a2.421,2.421,0,0,0-.171-.961L.685.945A.985.985,0,0,0,.332,2.152L.66,2.3c.183-.029.237-.133.222-.314C.862,1.753.821,1.523.789,1.3.766,1.114.723,1,.537.936a.291.291,0,0,0-.379.112c-.2.263-.251.609.107.761l.424,0-.09-.3L.272,1.488.2,1.6Z" transform="translate(9.735 19.456)" fill="#1a1311"/>
        <path id="Path_2679" data-name="Path 2679" d="M1.164,2.447A4.888,4.888,0,0,1,.8,1.124a1.23,1.23,0,0,1,.235-1L.631.021.129,1.11c-.135.292-.247.536.118.669l.28-.029A11.633,11.633,0,0,0,.7.291L.285.21C.267.971.238,1.741.281,2.5A3.236,3.236,0,0,0,.491,3.514c.118.294.268.655.008.919l.395.123a.735.735,0,0,0,.091-.8,3.982,3.982,0,0,1-.28-1.093C.649,1.877.685,1.077.7.291.708.162.292.1.285.21A11.7,11.7,0,0,1,.108,1.669l.281-.03.042-.192L.494,1.3C.557,1.166.621,1.029.685.89L1.049.1.642,0A1.277,1.277,0,0,0,.383,1.043a4.938,4.938,0,0,0,.369,1.37Z" transform="translate(9.788 17.93)" fill="#1a1311"/>
        <path id="Path_2680" data-name="Path 2680" d="M.125.144.17.022H.088L.122.065.115.11.085,0H0L.119.15.2.123.17.013H.088L.04.143Z" transform="translate(11.132 19.501)" fill="#1a1311"/>
        <path id="Path_2681" data-name="Path 2681" d="M.1,0,.051.046l0,.047L.074.1V.084L.082.045,0,.028,0,.114.076.147.132.123.139.038.158.018Z" transform="translate(11.095 18.925)" fill="#1a1311"/>
        <path id="Path_2682" data-name="Path 2682" d="M.332.358c.131,0,.451-.043.5-.195S.592,0,.508,0C.378,0,.057.043.006.195S.248.358.332.358" transform="translate(9.753 21.693)" fill="#1a1311"/>
        <path id="Path_2683" data-name="Path 2683" d="M6.148,6.644,7.7,1.12l-.075-.027A18.544,18.544,0,0,0,2.749,0a3.093,3.093,0,0,0-.82.094L1.887.106,0,5.629.149,5.6a7.1,7.1,0,0,1,1.426-.128A7.679,7.679,0,0,1,6.018,6.813l.1-.14A7.846,7.846,0,0,0,1.575,5.3a7.243,7.243,0,0,0-1.464.132l.018.082.081.027L2.033.2,1.953.175l.022.082A2.96,2.96,0,0,1,2.749.171a12.79,12.79,0,0,1,3.106.54c.973.271,1.709.541,1.71.541l.03-.08L7.513,1.15,5.985,6.6Z" transform="translate(2.417 21.899)" fill="#1a1311"/>
        <path id="Path_2684" data-name="Path 2684" d="M.182,0,0,.159.118.352.246.383l.18-.1L.437.021Z" transform="translate(3.495 29.623)" fill="#1a1311"/>
        <path id="Path_2685" data-name="Path 2685" d="M.288,0,.159.021,0,.213l.01.17L.118.437.352.394.373.2Z" transform="translate(3.667 28.899)" fill="#1a1311"/>
        <path id="Path_2686" data-name="Path 2686" d="M.064.277H.139L.184.237l.05.21L.457.405.49.308.457.192.383.159.288.128.242.106.213.064.118,0,0,.118Z" transform="translate(3.614 28.398)" fill="#1a1311"/>
        <path id="Path_2687" data-name="Path 2687" d="M0,.437.182.586.457.394.437.213.373.064.267,0,0,.1Z" transform="translate(3.667 27.653)" fill="#1a1311"/>
        <path id="Path_2688" data-name="Path 2688" d="M.224.693.3.5V.374L.218.3.277.235.33,0,.085.033,0,.107l.17.17L0,.416.021.629Z" transform="translate(3.324 28.877)" fill="#1a1311"/>
        <path id="Path_2689" data-name="Path 2689" d="M.242.227.271.072.086,0,0,.213Z" transform="translate(5.175 29.385)" fill="#1a1311"/>
        <path id="Path_2690" data-name="Path 2690" d="M0,0H0Z" transform="translate(5.192 30.475)" fill="#1a1311"/>
        <path id="Path_2691" data-name="Path 2691" d="M.064,0,0,.071.093.184l.12-.12Z" transform="translate(4.005 29.296)" fill="#1a1311"/>
        <path id="Path_2692" data-name="Path 2692" d="M.07,0,0,.17.2.178.22.043Z" transform="translate(4.349 29.268)" fill="#1a1311"/>
        <path id="Path_2693" data-name="Path 2693" d="M0,.149l.223.01L.234.01,0,0Z" transform="translate(4.463 28.132)" fill="#1a1311"/>
        <path id="Path_2694" data-name="Path 2694" d="M.076.328.289.243.374.072c0-.085-.128-.106-.3,0s0,.256,0,.256" transform="translate(3.444 30.594)" fill="#1a1311"/>
        <path id="Path_2695" data-name="Path 2695" d="M0,.1.142.255.255.128.1,0Z" transform="translate(8.36 16.292)" fill="#1a1311"/>
        <path id="Path_2696" data-name="Path 2696" d="M.142.256H.152L.072.441C.213.6.384.515.327.285L.195.243.256.128.1,0,0,.1Z" transform="translate(8.715 15.46)" fill="#1a1311"/>
        <path id="Path_2697" data-name="Path 2697" d="M.142.285c.2.1.213,0,.213-.17,0-.128-.2-.128-.284-.1s-.128.17.071.269" transform="translate(8.022 16.784)" fill="#1a1311"/>
        <path id="Path_2698" data-name="Path 2698" d="M5.87,1.109A19.09,19.09,0,0,0,.365,0L0,.09.211.233A18.136,18.136,0,0,1,5.452,1.286a.6.6,0,0,0,.422-.009Z" transform="translate(4.167 21.787)" fill="#1a1311"/>
        <path id="Path_2699" data-name="Path 2699" d="M6.435,1.345A11.822,11.822,0,0,0,.214.022L0,.162l.364.1A10.725,10.725,0,0,1,6.007,1.5a.559.559,0,0,0,.421.016Z" transform="translate(1.949 27.297)" fill="#1a1311"/>
        <path id="Path_2700" data-name="Path 2700" d="M6.1,1.405A2.455,2.455,0,0,0,4.947.8C4.457.669,3.955.573,3.459.468A20.751,20.751,0,0,0,.228,0L0,.116.352.251a18.356,18.356,0,0,1,2.836.4c.447.094.9.191,1.34.3a2.009,2.009,0,0,1,1.045.5.533.533,0,0,0,.4.1Z" transform="translate(4.168 21.567)" fill="#1a1311"/>
        <path id="Path_2701" data-name="Path 2701" d="M2.239,2.182l-.114.128-.142-.157.1-.1ZM1.9,3.745l-.114.128-.141-.157.1-.1Zm-.327.482-.213-.112.086-.1.17.029ZM1.344,5.321l.08-.186H1.415L1.272,4.98l.1-.1.157.128-.062.115.132.041c.057.231-.114.312-.255.157m.071.441L1.3,5.889l-.142-.156.1-.1ZM1.059,5.69c-.141.072-.225-.19-.2-.255a.164.164,0,0,1,.3,0c.072.114.043.184-.1.255m-.085.341-.114.128L.719,6l.1-.1Zm.5-2.868c.086-.029.285-.029.285.1,0,.166-.014.269-.213.17s-.157-.242-.072-.269M2.768.282C2.75.051,1.933-.137,1.955.132A7.8,7.8,0,0,1,1.967,1.18c-.118-.11-.554-.119-.566.027a12.938,12.938,0,0,1-.715,3.02c-.158.489-.317.979-.443,1.479-.06.242-.115.486-.157.733-.035.209-.1.438.084.592L.336,7.1a2.912,2.912,0,0,1-.313.456c-.168.2.608.5.761.323a4.865,4.865,0,0,0,.821-1.6c.221-.643.437-1.288.628-1.941A11.257,11.257,0,0,0,2.768.282" transform="translate(8.267 21.953)" fill="#1a1311"/>
        <path id="Path_2702" data-name="Path 2702" d="M2.2,1.063V.936L2.361.907l.014.114Zm-.2,1.407-.027-.085.085-.114.128.029a.239.239,0,0,1-.186.17m-.085.611-.128-.143.018-.085-.06.014-.171-.114c-.014-.042-.006-.145.128-.213.058-.029.128.072.128.2v.035l.043-.021.157.057.043.17Zm-.482.676c-.179-.048-.1-.2.017-.341.129-.162.293.033.293.162s-.131.227-.31.179m-.147.358c-.056.2-.129.145-.228.1L.983,4l.179-.1Zm-.3,1.214c-.118.063-.213-.043-.255-.171A.214.214,0,0,1,.875,4.87a.2.2,0,0,1,.267.16.249.249,0,0,1-.149.3M.885,3.48,1.113,3.4l-.031.131-.1.081ZM1.85,1.845c.014-.114.228-.242.269-.1.055.182-.071.2-.141.184ZM3.308.129,3.065.022,2.736,0,2.647.017,2.53.079,2.449.23,2.394.282,2.373.322C1.266,2.3.123,4.382,0,6.7c-.013.243.744.52.8.289C1.075,5.9,1.68,4.94,2.017,3.876c.179-.565.292-1.149.471-1.715A9.384,9.384,0,0,1,3.2.57L3.2.511,3.335.265Z" transform="translate(1.614 20.381)" fill="#1a1311"/>
      </g>
    </g>
    <path id="Path_3523" data-name="Path 3523" d="M360.424,282.33V243.107h-1.374V282.33" transform="translate(-104.474 -20.833)" fill="#1a1311"/>
    <path id="Path_3516" data-name="Path 3516" d="M360.424,281.642V243.107h-1.374v38.535" transform="translate(497.946 -98.24) rotate(90)" fill="#1a1311"/>
    <path id="Path_3510" data-name="Path 3510" d="M360.424,282.33V243.107h-1.374V282.33" transform="translate(-143.474 -20.833)" fill="#1a1311"/>
    <path id="Path_3466" data-name="Path 3466" d="M360.424,359.794V243.107h-1.374V359.794" transform="translate(537.37 -137.24) rotate(90)" fill="#1a1311"/>
  </g>
</svg>
