<svg xmlns="http://www.w3.org/2000/svg" width="194.799" height="194.799" viewBox="0 0 194.799 194.799">
  <g id="Group_884" data-name="Group 884" transform="translate(-177 -106.001)">
    <rect id="Rectangle_769" data-name="Rectangle 769" width="194.797" height="194.797" transform="translate(177 106.003)" fill="#fff3d8"/>
    <path id="Path_3447" data-name="Path 3447" d="M295.322,243.269h194.8v-.687h-194.8" transform="translate(-118.322 -20.388)" fill="#1a1311"/>
    <path id="Path_3451" data-name="Path 3451" d="M418.837,242.844v194.8h.687v-194.8" transform="translate(-85.999 -136.842)" fill="#1a1311"/>
    <path id="Path_3452" data-name="Path 3452" d="M329.549,242.582v194.8h.687v-194.8" transform="translate(-113.59 -136.579)" fill="#1a1311"/>
    <path id="Path_3453" data-name="Path 3453" d="M389.337,183.744h194.8v-.687h-194.8" transform="translate(-212.337 -38.783)" fill="#1a1311"/>
    <path id="Path_3454" data-name="Path 3454" d="M389.337,273.031h194.8v-.687h-194.8" transform="translate(-212.337 -11.191)" fill="#1a1311"/>
    <path id="Path_3456" data-name="Path 3456" d="M418.837,149.355V231h.687V149.355" transform="translate(-163.999 69.803)" fill="#1a1311"/>
    <path id="Path_3459" data-name="Path 3459" d="M295.322,243.269h194.8v-.687h-194.8" transform="translate(-118.323 -59.388)" fill="#1a1311"/>
    <path id="Path_3458" data-name="Path 3458" d="M418.837,149.355v194.8h.687v-194.8" transform="translate(-124.999 -43.352)" fill="#1a1311"/>
    <path id="Path_3457" data-name="Path 3457" d="M418.837,149.355v194.8h.687v-194.8" transform="translate(-163.999 -43.352)" fill="#1a1311"/>
    <rect id="Rectangle_770" data-name="Rectangle 770" width="39" height="193" transform="translate(255 107)" fill="#d2d2d3"/>
    <rect id="Rectangle_771" data-name="Rectangle 771" width="38" height="193" transform="translate(371 184) rotate(90)" fill="#d2d2d3"/>
    <path id="Path_3455" data-name="Path 3455" d="M300.474,154.506h-.687V348.617h194.8v-194.8h-194.8v.687h.687v.687H493.211v192.05H301.161V154.506h-.687v0Z" transform="translate(-122.787 -47.818)" fill="#1a1311"/>
    <path id="Path_3460" data-name="Path 3460" d="M360.424,320.107v-77h-1.374v77" transform="translate(-65.474 -136.107)" fill="#1a1311"/>
    <path id="Path_3462" data-name="Path 3462" d="M360.424,321.714V243.107h-1.374v78.606" transform="translate(-65.474 -20.914)" fill="#1a1311"/>
    <path id="Path_3463" data-name="Path 3463" d="M360.424,321.714V243.107h-1.374v78.606" transform="translate(-105.474 -20.914)" fill="#1a1311"/>
    <path id="Path_3464" data-name="Path 3464" d="M360.424,320.1V243.107h-1.374V320.1" transform="translate(613.673 -137.24) rotate(90)" fill="#1a1311"/>
    <path id="Path_3465" data-name="Path 3465" d="M360.424,320.1V243.107h-1.374V320.1" transform="translate(613.673 -176.24) rotate(90)" fill="#1a1311"/>
    <path id="Path_3466" data-name="Path 3466" d="M360.424,320.532V243.107h-1.374v77.425" transform="translate(498.107 -137.24) rotate(90)" fill="#1a1311"/>
    <path id="Path_3467" data-name="Path 3467" d="M360.424,320.532V243.107h-1.374v77.425" transform="translate(498.107 -176.24) rotate(90)" fill="#1a1311"/>
    <line id="Line_12" data-name="Line 12" y2="193" transform="translate(274.5 107.5)" fill="none" stroke="#1a1311" stroke-width="1" stroke-dasharray="5 4"/>
    <line id="Line_13" data-name="Line 13" x1="193" y2="1" transform="translate(178.5 203.5)" fill="none" stroke="#1a1311" stroke-width="1" stroke-dasharray="5 4"/>
    <g id="Group_885" data-name="Group 885" transform="translate(-109.387 -330.226)">
      <rect id="Rectangle_774" data-name="Rectangle 774" width="38.192" height="38.192" transform="translate(325.457 474.843)" fill="#c5352f"/>
      <path id="Path_3476" data-name="Path 3476" d="M336.549,488.684v0Z" transform="translate(5.592 6.903)"/>
      <path id="Path_3477" data-name="Path 3477" d="M336.549,490.561v0Z" transform="translate(5.592 7.872)"/>
      <path id="Path_3478" data-name="Path 3478" d="M336.549,489.909v0Z" transform="translate(5.592 7.549)"/>
      <path id="Path_3479" data-name="Path 3479" d="M336.549,493.933v0Z" transform="translate(5.592 9.538)"/>
      <path id="Path_3480" data-name="Path 3480" d="M336.549,492.563v0Z" transform="translate(5.592 8.873)"/>
      <path id="Path_3481" data-name="Path 3481" d="M336.549,491.918v0Z" transform="translate(5.592 8.504)"/>
      <path id="Path_3482" data-name="Path 3482" d="M336.549,493.23v0Z" transform="translate(5.592 9.207)"/>
      <path id="Path_3483" data-name="Path 3483" d="M336.549,494.631v0Z" transform="translate(5.592 9.879)"/>
      <path id="Path_3484" data-name="Path 3484" d="M336.549,495.408v0Z" transform="translate(5.592 10.248)"/>
      <path id="Path_3485" data-name="Path 3485" d="M336.549,496.09v0Z" transform="translate(5.592 10.614)"/>
      <path id="Path_3486" data-name="Path 3486" d="M336.549,489.238v0Z" transform="translate(5.592 7.208)"/>
      <path id="Path_3487" data-name="Path 3487" d="M336.549,491.3v0Z" transform="translate(5.592 8.206)"/>
      <g id="Group_766" data-name="Group 766" transform="matrix(0.995, 0.105, -0.105, 0.995, 338.475, 475.432)">
        <path id="Path_2634" data-name="Path 2634" d="M1.911,33.386S.06,32.606.024,31.379a8.393,8.393,0,0,1,.481-3.756c.592-1.636,1.924-5.279,1.924-5.279l.482-2.677s1.517-3.718,1.627-3.9S6.2,13.756,6.574,13.272s1.666-3.2,1.666-3.2l1.7-4.312.518-1.9s-.036-1.265.408-1.45a2.775,2.775,0,0,1,2.664-.111l.37.148L15.307,0l.48.111.038.446-1.3,2.455s.518.781.37,1.152-.185.446-.185.446,0,1.079-.407,1.3l-1,3.978-.48,3.086-.038,1.487.149,1.711-.037.67v1.971a4.87,4.87,0,0,1,0,1.041c-.074.186-.3,1.078-.3,1.078l-1.036,3.421-1.443,5.13L8.24,33.8Z" transform="translate(0.164 0.221)" fill="#c86f67"/>
        <path id="Path_2635" data-name="Path 2635" d="M0,0H0Z" transform="translate(13.233 5.014)" fill="#1a1311"/>
        <path id="Path_2636" data-name="Path 2636" d="M.422.089l-.056.2L.127.314,0,.4C.043.427.169.566.309.5S.59.188.534.061.422.034.422.089" transform="translate(7.038 15.565)" fill="#1a1311"/>
        <path id="Path_2637" data-name="Path 2637" d="M.015.29C.058.413.152.515.269.454A.239.239,0,0,0,.416.167.2.2,0,0,0,.152.013.2.2,0,0,0,.015.29" transform="translate(6.287 30.016)" fill="#1a1311"/>
        <path id="Path_2638" data-name="Path 2638" d="M.18,0,0,.158l.116.19L.243.379.422.284.432.021Z" transform="translate(10.946 12.582)" fill="#1a1311"/>
        <path id="Path_2639" data-name="Path 2639" d="M.285,0,.158.021,0,.211.01.379.116.432.348.389.369.2Z" transform="translate(11.116 11.858)" fill="#1a1311"/>
        <path id="Path_2640" data-name="Path 2640" d="M.063.274H.137L.182.234.231.442.452.4l.032-.1L.452.19.379.158.284.127.239.1.211.063.116,0,0,.116Z" transform="translate(11.063 11.357)" fill="#1a1311"/>
        <path id="Path_2641" data-name="Path 2641" d="M0,.432.178.579.452.389.432.211.368.063.264,0,0,.094Z" transform="translate(11.116 10.687)" fill="#1a1311"/>
        <path id="Path_2642" data-name="Path 2642" d="M.221.685.295.5V.37L.216.3.274.233.326,0,.084.032,0,.106.168.274,0,.411.021.622Z" transform="translate(10.777 11.837)" fill="#1a1311"/>
        <path id="Path_2643" data-name="Path 2643" d="M0,.1.141.252.253.127.1,0Z" transform="translate(8.889 18.523)" fill="#1a1311"/>
        <path id="Path_2644" data-name="Path 2644" d="M0,.1.141.252.253.127.1,0Z" transform="translate(11.372 19.857)" fill="#1a1311"/>
        <path id="Path_2645" data-name="Path 2645" d="M.1,0,0,.1.141.253.253.127Z" transform="translate(8.45 18.793)" fill="#1a1311"/>
        <path id="Path_2646" data-name="Path 2646" d="M.141.253H.15L.071.436C.211.591.38.509.323.282L.193.241.253.127.1,0,0,.1Z" transform="translate(9.001 17.771)" fill="#1a1311"/>
        <path id="Path_2647" data-name="Path 2647" d="M.141.253H.15L.071.436C.211.591.38.509.323.282L.193.24.253.127.1,0,0,.1Z" transform="translate(11.724 19.034)" fill="#1a1311"/>
        <path id="Path_2648" data-name="Path 2648" d="M.1,0,0,.1.141.253.252.127Z" transform="translate(9.369 16.506)" fill="#1a1311"/>
        <path id="Path_2649" data-name="Path 2649" d="M.1,0,0,.1.141.253.252.127Z" transform="translate(9.709 14.943)" fill="#1a1311"/>
        <path id="Path_2650" data-name="Path 2650" d="M.252.028.084,0,0,.1.21.211Z" transform="translate(9.087 16.903)" fill="#1a1311"/>
        <path id="Path_2651" data-name="Path 2651" d="M.14.282c.2.1.211,0,.211-.168,0-.127-.2-.127-.28-.1S-.056.183.14.282" transform="translate(9.129 16.036)" fill="#1a1311"/>
        <path id="Path_2652" data-name="Path 2652" d="M.14.282c.2.1.211,0,.211-.168,0-.127-.2-.127-.281-.1S-.056.183.14.282" transform="translate(11.038 20.345)" fill="#1a1311"/>
        <path id="Path_2653" data-name="Path 2653" d="M.3.1C.23-.017.06-.046,0,.1-.021.16.06.419.2.349S.369.208.3.1" transform="translate(8.587 18.228)" fill="#1a1311"/>
        <path id="Path_2654" data-name="Path 2654" d="M.239.225.268.071.085,0,0,.211Z" transform="translate(12.607 12.343)" fill="#1a1311"/>
        <path id="Path_2655" data-name="Path 2655" d="M.063,0,0,.07.092.182.211.063Z" transform="translate(12.041 3.849)" fill="#1a1311"/>
        <path id="Path_2656" data-name="Path 2656" d="M.07,0,0,.168.2.176.217.043Z" transform="translate(12.381 3.821)" fill="#1a1311"/>
        <path id="Path_2657" data-name="Path 2657" d="M0,.147l.221.01L.231.01,0,0Z" transform="translate(12.494 2.697)" fill="#1a1311"/>
        <path id="Path_2658" data-name="Path 2658" d="M.1.4C.281.446.409.351.409.221S.249-.1.12.061C.006.2-.073.351.1.4" transform="translate(6.896 28.515)" fill="#1a1311"/>
        <path id="Path_2659" data-name="Path 2659" d="M.193.128.225,0,0,.08.1.208Z" transform="translate(6.45 28.56)" fill="#1a1311"/>
        <path id="Path_2660" data-name="Path 2660" d="M.305.209.176,0,0,.1.08.306c.1.048.168.1.225-.1" transform="translate(6.547 29.058)" fill="#1a1311"/>
        <path id="Path_2661" data-name="Path 2661" d="M.267.062C.225-.079.013.048,0,.161L.127.245C.2.259.322.242.267.062" transform="translate(2.538 28.412)" fill="#1a1311"/>
        <path id="Path_2662" data-name="Path 2662" d="M0,.154.168.111.155,0,0,.027Z" transform="translate(2.889 27.571)" fill="#1a1311"/>
        <path id="Path_2663" data-name="Path 2663" d="M.211.028.084,0,0,.112.028.2A.233.233,0,0,0,.211.028" transform="translate(2.664 28.994)" fill="#1a1311"/>
        <path id="Path_2664" data-name="Path 2664" d="M.343.539.5.441.455.273.3.216.257.236V.2C.259.076.189-.024.132,0,0,.072-.009.173.005.216L.174.328.234.314.216.4Z" transform="translate(2.265 29.255)" fill="#1a1311"/>
        <path id="Path_2665" data-name="Path 2665" d="M0,0,0,.013V0H0Z" transform="translate(7.69 27.575)" fill="#1a1311"/>
        <path id="Path_2666" data-name="Path 2666" d="M0,.01.147.127.221,0Z" transform="translate(7.605 15.191)" fill="#1a1311"/>
        <path id="Path_2667" data-name="Path 2667" d="M.075.324.285.24.369.071c0-.084-.127-.1-.295,0s0,.253,0,.253" transform="translate(11.486 5.133)" fill="#1a1311"/>
        <path id="Path_2668" data-name="Path 2668" d="M.8,1.042C.674,1.042.653.895.674.811V.747C.737.621.927.79.949.895S.927,1.042.8,1.042M2.939,2.075l-.01-.344-.168-.338A1.942,1.942,0,0,1,2.6,1.14a.832.832,0,0,1-.4-.062A.664.664,0,0,1,1.876.637C1.83.482,1.848.469,1.668.422L1.6.407l.008.172L1.6.406A3.12,3.12,0,0,0,1.2.369.414.414,0,0,1,.872.188L.842.178.653.137.581.1.569.063.336,0,.221.178.4.348.525.215.464.348.336.557.3.643.168.853l.168.569-.147.041L0,1.506l.125.1.38.106L.526,1.8H.821l.211.084.084.106L1.2,2.18l.106.084.211-.315.211.168h.1L1.748,1.78v-.4l.043-.063L1.9.917l.168.14.043.337.065.654-.065.062-.084.647L2,2.841l.2.449s.027,1.04.139.872.534-1.8.534-1.8l.058-.125h.013l0-.058Z" transform="translate(6.755 29.3)" fill="#1a1311"/>
        <path id="Path_2669" data-name="Path 2669" d="M14.572,2.9l-.086.085v.009a2.924,2.924,0,0,0-.4-.265c.053-.035.97-1.82,1.265-2.4L15.4.32a.508.508,0,0,1,.415.34Zm.144,1.015-.061.2-.275-.444L14.289,3.5l.137-.014c.122.046.259.322.29.429m-.188,1.755-.155.263-.078.064-.014.043-.17.143a4.591,4.591,0,0,1,.1-.618c.043-.128.276-.256.34-.49a2.737,2.737,0,0,1,.17-.447,2.43,2.43,0,0,1-.191,1.043m-3.9,9.857-.169.029c-.1-.043-.113-.242.029-.242s.183.171.14.213m-.311,1.847c-.056.013-.215-.046-.183-.171l.282-.071Zm-.2-1.123-.255.128-.1-.255c.072-.114.4-.072.354.127M9.9,17.585a.176.176,0,0,1-.311.042.2.2,0,0,1,.128-.313c.14,0,.2.17.183.271m-.424,2.2-.042-.213.2.114Zm-.2-.638a.191.191,0,0,1,.156-.285.179.179,0,0,1,.169.213c-.026.067-.255.213-.325.072m-.116,1.16c-.055.107-.117.192-.247.148a.3.3,0,0,1-.113-.5l.32.05h0l.012.018ZM8.5,20l-.154-.186-.008-.16.2-.214.168.06a.317.317,0,0,1,.035.407Zm-.34-.23.065-.044.014.061ZM13.723,2.984,13.6,2.628a1.721,1.721,0,0,1,.444.292Zm-.509-.213v.006L13.1,2.76l-.074.052c0,.033,0,.107.128.107l.04,0-.02.067L12.992,3V2.984l-.064-.128-.245.043.012.127h-.033a.931.931,0,0,1-.34-.127l-.064-.511-.01-.005a1.441,1.441,0,0,1,.478.005,2.452,2.452,0,0,1,.785.191c-.127.043-.3.107-.3.192m-1.294.3c-.043.064-.319.128-.446.17s-.105-.021-.105-.021l-.128-.128.064-.127c.085-.043.324-.2.467-.15Zm-.764.958-.086-.132.065.047.148.1Zm-.148-.34-.016.09-.3.06.024-.024a1.379,1.379,0,0,1-.055-.591l.308-.005.043.192Zm1.908,1.341c.344.018.18.037.176.042L13,5.049l-.1-.021Zm.171-.128.005.072-.176-.132ZM9.206,10.334c.127-.32.4-.873.4-.873h.177l-.056.114s-.122.312-.255.659l-.07-.091-.084.1.12.084c-.134.353-.269.715-.29.8l-.027.08-.156-.024-.056.17.107.11c-.144.336-.363.818-.45,1.064l-.06-.08-.128.021-.027.017c.05-.123.145-.363.255-.639l.034.119.212-.157-.027-.184-.139.021.29-.728.018.025c.1.114.113.03.2-.141l-.124-.116.138-.345m-4.1,8.65c.095-.075.19-.043.19.085l-.138.075Zm.19-1.428c.074-.064.181-.064.148.085l-.1.031Zm.237.724.212.085-.029.356-.254-.086Zm.284-.952a.181.181,0,0,1,.2.184l-.226.114c-.113-.085-.128-.3.029-.3m.282-.654.113.256L5.925,16.9Zm.169-.454c.014-.143.1-.228.156-.228l.113.1s.07.128-.057.17-.226.1-.212-.042m-5.5,15.1.3-.064.319.149v.277a1.5,1.5,0,0,0,.3.6l.445.468s-.742-.34-.933-.468a1.076,1.076,0,0,1-.424-.511c-.169-.32,0-.447,0-.447M4.8,30.811a5.211,5.211,0,0,1,1.252.337,9.364,9.364,0,0,1,1.467.8A3.071,3.071,0,0,1,8.4,33.174c.061.369.03.552-.093.613s-.183.154-.183.061.031-.061-.122-.429a2.452,2.452,0,0,0-.7-1.136,10.689,10.689,0,0,0-1.894-1.1c-.337-.153-.8-.306-.612-.367m1-.163.045.02-.34.013-.311-.029-.079-.23c.234.076.583.188.685.226m.558.271-.119-.01-.211-.058-.145-.166c.147.065.372.18.474.234M16.183.469,16.077.32A.721.721,0,0,0,15.547,0a.586.586,0,0,0-.276.107l-.105.256.027-.005-1.318,2.2a2.8,2.8,0,0,0-.746-.3,3.346,3.346,0,0,0-1.162,0l-.109-.021c-.064.022-.255.086-.531.171a1.553,1.553,0,0,0-.614.341l-.1.186a.7.7,0,0,0-.136.325c-.022.149-.022.66-.022.66l.04.016a.674.674,0,0,0-.061.239l-.005.08-.038-.165-.084.682s-.636,1.96-.742,2.237-.806,2.159-.806,2.159l.026.012c-.346.722-1.473,3.067-1.618,3.283C7,12.72,5.834,14.3,5.538,14.637a7.985,7.985,0,0,0-1.294,1.9c-.3.692-.972,2.338-1.132,2.727l-.038-.071-.065.112.047.085-.021.171c-.072.144-.19.492-.312.773a4.481,4.481,0,0,1-.251,1.421c.188.839-.448,1.679-.782,2.445l.01.007c-.077.245-.178.566-.29.924a6.221,6.221,0,0,1-.345,1.107C.708,27.387.375,28.482.427,28.4c.081-.129.582-1.514.815-2.161l.069.285-.014.384-.107.192L1,27.208v.809H.829L.7,27.974l-.042.6L.575,28.7l-.022.384s-.169-.192-.275-.32-.043.213-.043.213l.127.32v.255c0,.192-.043.234-.043.234l-.064.149a2.319,2.319,0,0,0,.064.384c.036.184.105.114.122.09l-.25.336c-.06.081-.065.008-.193-.037l.159,1.3a6.415,6.415,0,0,0,.345.584,7.663,7.663,0,0,0,3.061,1.623,8.9,8.9,0,0,0,4.412,0,.97.97,0,0,0,.826-1.13c-.064-.319-.212-.341-.233-.49A.541.541,0,0,0,8.4,32.32l-.3-.3-.523-.476-.043-.1.014-.2-.523-.042-.072-.128-.211-.128-.15-.01-.011-.033-.157-.159a6.14,6.14,0,0,0-.623-.259l.039-.054V30.19c-.011-.021-.043-.085-.212,0l-.078.211-.515-.177-.2-.069v-.1l-.156-.611-.033-.125-.219-.042-.116.081c-.093.023-.176.516-.2.692-.128-.015-.683-.076-.98-.076a.819.819,0,0,0-.414.059l.2.06a4.53,4.53,0,0,1,.947.139l.15.073.019.1v.142l-.057.128-1.074-.1-.086-.058-.338-.141.042-.256-.4-.213-.127-.029-.281-.024a1.535,1.535,0,0,0,.466-.047l-.113-.639c-.012-.056.1-.152.159-.3l.095.076.156-.1.014-.141-.142-.029-.077.025.031-.271.045,0,.142-.085-.128-.128h-.07l.085-.1.066-.085.2.057.127-.072-.043-.269-.169-.043H2.556l.005-.086L2.6,27.5a.669.669,0,0,1-.1-.348l-.022-.01-.03.007-.155.312-.113.085-.354,1.008a.227.227,0,0,1-.127.228c-.155.1-.128.17-.141.256s.056-.029-.086.255-.225.284-.14.37l.082.137-.026-.01-.169.086-.1.269-.354.029L.724,30l.056-.155.183-.014.072-.569.239-.027.043-.5.1-.184.156-.639.085-.114.212-.013.085-.327.084-.057.1-.17-.029-.114-.1-.043-.338-.155L1.663,26.9a1.961,1.961,0,0,0,.767.216l-.265-.175a1.328,1.328,0,0,1-.489-.195l.17-.532a2.1,2.1,0,0,1,.122-.715c.18-.546.39-1.082.556-1.633L2.59,23.6c-.043.11-.186.477-.359.927a3.257,3.257,0,0,0-.458,1.119l-.007.082c-.121.312-.228.592-.3.79l-.07-.128a1.037,1.037,0,0,1-.029-.5,23.82,23.82,0,0,0,1.218-3.656L2.547,22.1q.359-.453.726-.9l-.036.082a1.355,1.355,0,0,1,.413-.324l.3-.541.022-.005.084.052.134.069.338.115a1.72,1.72,0,0,0,.367.039l.3-.022-.134-.217a.844.844,0,0,1-.024-.424l-.048-.038c-.074-.074-.148-.17.033-.244l.122-.013a2,2,0,0,1,.557-.621l.042-.028,0-.059.089-.229a3.078,3.078,0,0,1,.109-.553c.072-.254.167-.545.26-.822l.263-.129c0-.154-.069-.2-.151-.194.047-.135.091-.258.129-.363l.121.06.269-.128c0-.264-.2-.212-.323-.122l.047-.133a2.551,2.551,0,0,1,.276-.49s.021-.468.169-.532.34-.171.34-.171l.056-.221L7.5,15l.107-.116-.138-.128-.025-.007,0-.047.078-.516v.289l.21.093-.065.039.033.16.223-.106L7.9,14.608l.994.15s.86.057,1.205.077l0,.008.142.156.113-.127-.031-.088.017-.026-.014-.186-.07.086s-.834-.029-1.159-.029a11.01,11.01,0,0,1-1.287-.2L7.594,14.3l-.066-.142,0-.013-.005,0,0-.025v.025a.669.669,0,0,0-.5,0c-.338.106-.785.255-.785.255a17.354,17.354,0,0,0-1.271,1.96A22.892,22.892,0,0,0,3.84,19.069a3.219,3.219,0,0,1-.212.639c-1.018,2.769-.276-.043-.276-.043l-.105-.128-.082.137L3.2,19.55l.051-.013.085-.149a35.775,35.775,0,0,1,1.442-3.28,18.786,18.786,0,0,1,1.273-1.833,10.168,10.168,0,0,0,1.018-1.236,19.1,19.1,0,0,0,.912-1.747c.293-.658.746-1.694.929-2.061h0L8.92,9.2l.053-.1-.01-.014.016-.042L8.973,9.1l.084.234s-.743,1.79-.912,2.173-.805,1.662-.805,1.662l-.276.3-.212.277.424.021s.276.107.4-.021a4,4,0,0,0,.361-.788l.169-.213.106-.17L8.5,12.7l.021.029-.009.027.185.014,1.187.128.354.056.07.006v.064l.282.029.142.143-.014.369.085-.029.156-.412-.127-.241-.268-.143-.072-.255c-.056-.058.3-.128-.1-.128a2.148,2.148,0,0,1-.537-.043l-.085.043.043.2H9.87l.424.071.014.3-.07-.014c-.537-.1-1.485-.255-1.485-.255.113,0,.127-.356.212-.54s.665-1.562.665-1.562l.353-.894.079-.2h.162l.127-.171-.085-.319-.383-.085-.424.064L9.1,8.7l.081-.218s.933-2.407,1.059-2.855a5.324,5.324,0,0,0,.256-.975,1.72,1.72,0,0,0,.083.209l-.085.213a7.961,7.961,0,0,1-.212,1.107c-.107.277-.806,2.3-.892,2.407l.086.107.233.043h.466l.128.042.064-.192.085-.4L10.8,6.9c.016-.061.271-.605.422-.954l.044.081c.043.149.15.052.15-.043l-.064-.213-.073.038.051-.144a5.972,5.972,0,0,0,.086-.66c0-.149.445-.064.635-.064.133,0,.309.031.537.056l-.219.136a1.08,1.08,0,0,0-.255.34,3.345,3.345,0,0,0-.042.747l-.107.255.3-.042-.105.17-.233.021-.128.107s-.107-.149-.148.234a7.221,7.221,0,0,1-.233,1s-.191.809-.043.49S12.387,6.52,12.387,6.52l.7-1.3.021-.148h0V4.989l.064-.025.192-.6.085-.213a.534.534,0,0,1-.192-.085.98.98,0,0,0-.317-.107l-.233-.042H12.62l-.212.213-.106.085.064.213.042.192.185.127a8.542,8.542,0,0,0-.948,0c-.148,0-.127,0-.212-.085l.064-.255.169-.064c.084-.022.255-.064.53-.128s-.229-.085-.316-.127l.055-.08-.085-.063-.091.077-.021.039-.038,0,.016-.156-.2.114.022.031-.109-.005-.012-.1.126-.49.3-.149.467-.128.764.086.423.319-.042.447.127.128.381-.043.064.3s.064.383-.085.4a1.315,1.315,0,0,1-.424-.064l-.34.7a1.237,1.237,0,0,0-.233.554c-.022.255-.043.766-.043.766h-.19c-.064,0-.276.171-.276.3a5.3,5.3,0,0,1-.084.553l-.234.149-.085.256-.105.213-.171-.064-.276.362-.126.128-.022.255.148.064.807-.021.3-.107s.064.192.19.192.467.021.467.021.105-.958.191-1.385a5.827,5.827,0,0,1,.233-1l.4-.341.043-.056.064-.007c.012,0-.474,1.849-.53,2.088s-.442,1.98-.6,2.849L13.087,9.8l.064-.127.128-.15-.15-.255L13,9.311l-.191.149L12.6,9.4l-.4-.022-.487.043-.255-.064h-.318l-.128.341h-.085v.554l-.127.085-.34.4c-.064.107-.042.085-.064.277s-.021.469-.021.469a2.027,2.027,0,0,0,0,.511c.043.128.148-.362.148-.362l.128-.575.169-.235.191-.042c.064-.043.064-.085.105-.213a.5.5,0,0,0,.022-.234l.117-.367.063.218.107.064.233-.213.031-.267c-.031-.043-.116,0-.328.054l-.069.033.059-.182.742.149.169.042a2.833,2.833,0,0,1-.064.469c-.042.127-.212,0-.466.064s-.085.042-.085.042l.233.32-.169-.022-.276-.085.042.192.022.277.126.106v.149l-.021.213h.17l.19.064-.021.49-.467-.043-.062.234.169.192-.169.107v.34l-.15.043-.085.085-.085.234-.212.3-.233.107-.043.213.191.085.317.021-.021.384.276.127.212.107.085.192.233.085.064-.064.043-.447.064-1.513.105-.192.043-.192.084-1.362.106-.469.191-.98h.318a3.054,3.054,0,0,1-.105.575c-.064.149-.043.064-.105.064v1.065l-.128.043-.149.085a4.787,4.787,0,0,0,.128.66c.063.17.085-.043.149-.234s.148.042.148.042l-.095.735-.1-.046-.112.1c-.014.072-.072.157.085.2l.1.01-.019.153h-.064l-.022.447-.126-.042-.17-.064-.105.745.084.277.212.171v.3l-.34.042.191.384h.128l.112-.21.008.118.056.668.113.056h.03l.1.246.088.4-.359-.021-.234-.6L12.238,16a2.28,2.28,0,0,0-.043.341c0,.128.15.149.212.447a3.419,3.419,0,0,0,.15.511s.042.7.021.916-.191-.66-.191-.788-.4-1-.424-1.256a4.77,4.77,0,0,0-.085-.788c-.043-.064-.381.085-.509.042s-.021-.362-.021-.362l-.128-.042-.212-.192-.276-.149-.424-.277a2.534,2.534,0,0,1,.17.383c.041.149-.043.171-.107.256s-.064.064-.191.043a.707.707,0,0,0-.318.063l-.124.322L9.6,15.411l-.07.171.129.093c-.072.184-.139.354-.157.39l.085.32-.254.681s.019.167.038.294l-.095.012-.082.046-.243-.06-.085.17.169.157.121-.093c.044.088.134.193.2.064l.039-.067a4.1,4.1,0,0,1-.13.861c-.085.234-.424.49-.531.6l-.143.292-.078-.005-.047-.005a.647.647,0,0,1-.545.414l.276.179a2.754,2.754,0,0,1,.531.544l.031.109-.129.149-.172.182.1.071c.107-.127.212-.256.319-.383H8.89c-.092.111-.225.265-.319.387a5.085,5.085,0,0,1,.755.629V21.6s.027-.233.027-.4c0-.142.15-.255.285-.3a1.389,1.389,0,0,1,.816-.511l-.189-.252a4.668,4.668,0,0,1-.239-.872.755.755,0,0,1-.143-.811l-.042-.192.19-.192c.035,0,.182.007.311.012l.027.058.09-.008-.1-.048.178.008.094.05a2.078,2.078,0,0,1,.864.37,8.832,8.832,0,0,0,.844.621c.232.126.467.246.7.374l-.018-1.222.043-1.513-.052-.039.083-.183v-.187l-.168-.527-.018-.017-.016-.148a7.782,7.782,0,0,1,.043-.987l.046-.143.085-.108a.373.373,0,0,1-.186-.465l.074-.234.027-.821c.051-.373.169-1.217.181-1.26l.07-.37c.1-.824,1.216-5.113,1.259-5.17l.008-.055.2-.194a2.038,2.038,0,0,0,.128-.788,3.573,3.573,0,0,1,.047-.412l.144-.035a1.07,1.07,0,0,0,0-1,1.467,1.467,0,0,0-.3-.426h.007c.018-.055,1.092-2.041,1.387-2.587L16.119.6l.057-.115Z" transform="translate(0.106 0)" fill="#1a1311"/>
        <path id="Path_2670" data-name="Path 2670" d="M.024.253C.024.38-.06.716.086.759L.106.765.011,0Z" transform="translate(0 29.983)" fill="#1a1311"/>
        <path id="Path_2671" data-name="Path 2671" d="M0,0H0Z" transform="translate(8.949 19.483)" fill="#1a1311"/>
        <path id="Path_2672" data-name="Path 2672" d="M0,0,.012.021l0,.041Z" transform="translate(9.364 20.092)" fill="#1a1311"/>
        <path id="Path_2673" data-name="Path 2673" d="M.829,1.939a2.662,2.662,0,0,1,.122-.878C1.008.884,1.072.778,1,.6A1.171,1.171,0,0,0,.158,0C0-.03-.068.213.091.248A1.062,1.062,0,0,1,.574.47C.78.643.762.75.708.994a3.839,3.839,0,0,0-.132.945.127.127,0,0,0,.253,0" transform="translate(9.464 21.746)" fill="#1a1311"/>
        <path id="Path_2674" data-name="Path 2674" d="M3.557,0C3.426.728,3.272,1.452,3.1,2.171c-.263,1.1-.65,2.13-1,3.2-.285.855-.477,1.724-.71,2.589C1.208,8.618.956,9.268.743,9.92.5,10.674.229,11.426.019,12.192c-.073.261.094.586.023.843.38-1.382.875-2.74,1.324-4.1.236-.72.361-1.483.588-2.211C2.293,5.644,2.724,4.6,3,3.505c.225-.879.416-1.769.578-2.662C3.63.57,3.508.269,3.557,0" transform="translate(9.572 19.247)" fill="#1a1311"/>
        <path id="Path_2675" data-name="Path 2675" d="M.477.539l0-.006,0-.023L.469.358.432.338.407.2.393.269.384.114.3.125.109.069.083.127.044.065.025.075.044.065V0L.018.018l0,.089L0,.1.013.125.03.107.056.125.039.167.064.216.133.169.122.194.159.3.123.411.1.639.044.864l.2.1L.211.988l.022.045L.255.968.326.95l.017.093.012-.009L.422.79.48.543Z" transform="translate(12.38 19.299)" fill="#1a1311"/>
        <path id="Path_2676" data-name="Path 2676" d="M2.843,1.484,2.9,1.5c-.026.166-.06.338-.1.515s-.1.357-.154.54-.123.371-.194.56-.141.381-.222.574C1.92,4.46,1.556,5.26,1.286,6.06L1.1,5.949c-.017.234-.048.48-.074.724a4.812,4.812,0,0,0-.04.71l.085-.145A1.352,1.352,0,0,1,1,8.023L.95,7.985C1.015,7.666.924,8,.818,7.83L.809,7.768l-.036.023.009.062L.717,7.776l-.028.071a.444.444,0,0,1-.473.006c.008.049.181.053.076.215L.245,8.029l.039.222-.1.066,0,.2.1.052c-.12.312-.1.743-.244,1.059.092.093-.087.243-.034.445l.134-.058a.8.8,0,0,0,.2-.421L.4,9.321l.087-.249L.547,9.1l-.008.2.1.047c.209-.023.222-.165.2-.317s-.1-.312-.053-.361l.16.017.046.084c.04.149.122.113.211.031l.275-.242.207-.243.074-.163.066-.181c.08-.247.125-.517.192-.715-.045-.743.552-1.521.77-2.132.138-.282-.091-.9.305-.972l.132-.266L3.314,3.7l.04-.084.057.032a4.329,4.329,0,0,0,.213-.874c.023-.15.047-.3.069-.446s.038-.29.062-.424c.048-.235-.094-.344.106-.406A1.779,1.779,0,0,0,4.005.76a5.92,5.92,0,0,1,0-.76H3.857c.031.244-.156.487-.311.465l.03-.083L3.425.513l.032.107-.1.019a3.161,3.161,0,0,1-.385.412.563.563,0,0,1-.131.432" transform="translate(8.681 21.077)" fill="#1a1311"/>
        <path id="Path_2677" data-name="Path 2677" d="M.25,3.314c.162-1.046.715-1.99.8-3.051L.806.288Q.647,1.153.477,2.017.4,2.438.31,2.86l-.081.4c-.026.123-.04.285-.164.353H.283a2.41,2.41,0,0,1,.138-.992c.082-.3.177-.595.273-.891A11.762,11.762,0,0,0,1.158,0L.909.041A12.683,12.683,0,0,1,.4,1.894c-.094.295-.188.591-.264.892a2.161,2.161,0,0,0-.1.869h.22c.2-.112.212-.365.253-.569Q.6,2.626.69,2.164C.815,1.536.934.906,1.051.277L.8.3C.715,1.363.162,2.309,0,3.354Z" transform="translate(11.482 18.681)" fill="#1a1311"/>
        <path id="Path_2678" data-name="Path 2678" d="M.6,1.708.669,1.6.346,1.572l.01.049.038-.059.034-.2.225-.286-.158.012.04.008L.319.992c.088.092.22,1.055.085,1.076l.325.141A.9.9,0,0,1,1.051,1.1L.678,1a2.4,2.4,0,0,1,.141.9l.4.1a4.137,4.137,0,0,0,.009-.578c-.018-.123-.081-.167-.2-.208-.273-.1-.439.1-.538.336l.4.1C.887,1.161.885.664.89.166c0-.137-.4-.218-.4-.127Q.481.809.5,1.579l.4.1c.044-.106.12-.268.244-.3L.9,1.35l.034.017-.123-.1a2.85,2.85,0,0,1,.005.612l.4.1a2.4,2.4,0,0,0-.169-.95L.677.935A.974.974,0,0,0,.328,2.128l.324.142c.181-.028.234-.132.22-.31C.853,1.734.812,1.507.781,1.282.757,1.1.715.985.531.926a.288.288,0,0,0-.375.111c-.2.26-.248.6.106.752l.419,0L.592,1.5.269,1.472.2,1.582Z" transform="translate(9.629 19.242)" fill="#1a1311"/>
        <path id="Path_2679" data-name="Path 2679" d="M1.151,2.42A4.838,4.838,0,0,1,.793,1.112a1.217,1.217,0,0,1,.233-.99l-.4-.1L.127,1.1c-.133.288-.244.53.116.662L.52,1.731A11.511,11.511,0,0,0,.7.288L.282.208C.264.961.236,1.722.278,2.475a3.2,3.2,0,0,0,.207,1c.116.291.265.648.008.909l.391.122a.727.727,0,0,0,.09-.793A3.937,3.937,0,0,1,.7,2.632C.642,1.857.678,1.065.7.288.7.16.289.1.282.208A11.574,11.574,0,0,1,.106,1.651l.278-.03.042-.19.063-.142C.551,1.153.615,1.018.678.88L1.037.1.635,0A1.263,1.263,0,0,0,.379,1.032,4.884,4.884,0,0,0,.744,2.387Z" transform="translate(9.681 17.734)" fill="#1a1311"/>
        <path id="Path_2680" data-name="Path 2680" d="M.124.142.168.022H.087L.12.065.114.109.084,0H0L.118.149.2.122.168.013H.087L.04.141Z" transform="translate(11.01 19.287)" fill="#1a1311"/>
        <path id="Path_2681" data-name="Path 2681" d="M.1,0,.05.045l0,.046L.074.1V.083L.081.044,0,.027,0,.112.075.145.131.122.137.038.156.018Z" transform="translate(10.973 18.717)" fill="#1a1311"/>
        <path id="Path_2682" data-name="Path 2682" d="M.328.354c.129,0,.446-.043.5-.193S.586,0,.5,0C.374,0,.057.043.006.193S.246.354.328.354" transform="translate(9.646 21.455)" fill="#1a1311"/>
        <path id="Path_2683" data-name="Path 2683" d="M6.081,6.571,7.614,1.108l-.074-.027A18.342,18.342,0,0,0,2.719,0a3.058,3.058,0,0,0-.811.093L1.866.1,0,5.568l.147-.034a7.019,7.019,0,0,1,1.411-.127,7.6,7.6,0,0,1,4.394,1.33l.1-.138a7.76,7.76,0,0,0-4.491-1.36A7.166,7.166,0,0,0,.11,5.37l.018.081.08.027L2.011.2,1.932.173l.022.081A2.929,2.929,0,0,1,2.719.169,12.649,12.649,0,0,1,5.791.7c.962.268,1.69.535,1.691.535l.03-.079-.082-.022L5.919,6.526Z" transform="translate(2.39 21.659)" fill="#1a1311"/>
        <path id="Path_2684" data-name="Path 2684" d="M.18,0,0,.158l.116.19L.243.379.422.284.432.021Z" transform="translate(3.457 29.298)" fill="#1a1311"/>
        <path id="Path_2685" data-name="Path 2685" d="M.284,0,.158.021,0,.211.01.379.116.432.348.389.368.2Z" transform="translate(3.627 28.582)" fill="#1a1311"/>
        <path id="Path_2686" data-name="Path 2686" d="M.063.274H.137L.182.234.231.442.452.4l.033-.1L.452.19.379.158.284.127.239.1.211.063.116,0,0,.116Z" transform="translate(3.574 28.086)" fill="#1a1311"/>
        <path id="Path_2687" data-name="Path 2687" d="M0,.432.18.579.452.389.432.211.368.063.264,0,0,.094Z" transform="translate(3.627 27.349)" fill="#1a1311"/>
        <path id="Path_2688" data-name="Path 2688" d="M.221.685.295.5V.37L.216.3.274.233.326,0,.084.032,0,.106.168.274,0,.411.021.622Z" transform="translate(3.288 28.56)" fill="#1a1311"/>
        <path id="Path_2689" data-name="Path 2689" d="M.239.225.268.071.085,0,0,.211Z" transform="translate(5.118 29.063)" fill="#1a1311"/>
        <path id="Path_2690" data-name="Path 2690" d="M0,0H0Z" transform="translate(5.135 30.14)" fill="#1a1311"/>
        <path id="Path_2691" data-name="Path 2691" d="M.063,0,0,.07.092.182.211.063Z" transform="translate(3.961 28.975)" fill="#1a1311"/>
        <path id="Path_2692" data-name="Path 2692" d="M.07,0,0,.168.2.176.217.043Z" transform="translate(4.301 28.947)" fill="#1a1311"/>
        <path id="Path_2693" data-name="Path 2693" d="M0,.147l.221.01L.231.01,0,0Z" transform="translate(4.414 27.823)" fill="#1a1311"/>
        <path id="Path_2694" data-name="Path 2694" d="M.075.324.285.24.369.071c0-.084-.126-.1-.295,0s0,.253,0,.253" transform="translate(3.406 30.258)" fill="#1a1311"/>
        <path id="Path_2695" data-name="Path 2695" d="M0,.1.141.252.252.127.1,0Z" transform="translate(8.268 16.113)" fill="#1a1311"/>
        <path id="Path_2696" data-name="Path 2696" d="M.141.253H.15L.071.436C.211.591.38.509.323.282L.193.241.253.127.1,0,0,.1Z" transform="translate(8.62 15.29)" fill="#1a1311"/>
        <path id="Path_2697" data-name="Path 2697" d="M.14.282c.2.1.211,0,.211-.168,0-.127-.2-.127-.281-.1S-.056.183.14.282" transform="translate(7.934 16.6)" fill="#1a1311"/>
        <path id="Path_2698" data-name="Path 2698" d="M5.806,1.1A18.884,18.884,0,0,0,.361,0L0,.089.208.23A17.938,17.938,0,0,1,5.392,1.272a.588.588,0,0,0,.418-.009Z" transform="translate(4.121 21.548)" fill="#1a1311"/>
        <path id="Path_2699" data-name="Path 2699" d="M6.364,1.33A11.693,11.693,0,0,0,.212.022L0,.16.36.254A10.608,10.608,0,0,1,5.941,1.481a.553.553,0,0,0,.416.016Z" transform="translate(1.927 26.997)" fill="#1a1311"/>
        <path id="Path_2700" data-name="Path 2700" d="M6.032,1.39A2.427,2.427,0,0,0,4.893.8C4.408.662,3.911.566,3.421.463A20.518,20.518,0,0,0,.225,0L0,.115.348.248a18.154,18.154,0,0,1,2.8.4c.442.093.886.189,1.325.292a1.988,1.988,0,0,1,1.033.5.526.526,0,0,0,.393.1Z" transform="translate(4.122 21.33)" fill="#1a1311"/>
        <path id="Path_2701" data-name="Path 2701" d="M2.214,2.158,2.1,2.285,1.961,2.13l.1-.1ZM1.876,3.7l-.112.127-.14-.155.1-.1Zm-.323.477-.211-.111.085-.1L1.6,4ZM1.33,5.263l.079-.184H1.4l-.141-.155.1-.1.155.127-.061.114.131.04c.057.229-.113.309-.252.155M1.4,5.7l-.112.126L1.146,5.67l.1-.1Zm-.352-.071c-.14.071-.222-.187-.2-.252a.162.162,0,0,1,.295,0c.071.112.043.182-.1.252m-.084.337-.113.127-.14-.155.1-.1Zm.491-2.837c.085-.028.282-.028.282.1,0,.164-.014.266-.211.168s-.155-.239-.071-.266M2.737.278c-.018-.228-.826-.414-.8-.147a7.722,7.722,0,0,1,.012,1.036c-.116-.109-.548-.118-.56.027A12.794,12.794,0,0,1,.678,4.181C.521,4.664.365,5.149.24,5.643c-.06.239-.114.481-.155.725-.035.207-.1.433.083.586l.166.069a2.879,2.879,0,0,1-.309.451c-.167.2.6.5.753.319a4.808,4.808,0,0,0,.812-1.581c.219-.636.432-1.273.621-1.92A11.132,11.132,0,0,0,2.737.278" transform="translate(8.176 21.712)" fill="#1a1311"/>
        <path id="Path_2702" data-name="Path 2702" d="M2.18,1.051V.926L2.335.9l.014.112Zm-.2,1.391-.027-.084.084-.113.127.028a.237.237,0,0,1-.184.168m-.084.6-.127-.141.018-.084-.059.014-.169-.112c-.014-.041-.006-.144.127-.211.057-.028.127.071.127.2v.035l.043-.021.155.057.043.168Zm-.477.668c-.177-.048-.1-.194.017-.337.128-.16.29.032.29.16s-.129.225-.306.177m-.145.354c-.055.2-.128.143-.225.1l-.08-.209.177-.1Zm-.3,1.2C.865,5.332.771,5.228.729,5.1a.211.211,0,0,1,.136-.284.194.194,0,0,1,.264.158.246.246,0,0,1-.147.3M.876,3.442,1.1,3.361l-.031.129-.1.08ZM1.83,1.824c.014-.112.225-.239.266-.1.054.18-.07.2-.14.182ZM3.271.128,3.031.022,2.706,0,2.618.017,2.5.078l-.08.15L2.368.279,2.347.318C1.252,2.278.122,4.334,0,6.627c-.013.241.736.515.792.286.27-1.076.869-2.026,1.2-3.079.177-.559.288-1.137.466-1.7a9.283,9.283,0,0,1,.7-1.574L3.167.506,3.3.262Z" transform="translate(1.596 20.158)" fill="#1a1311"/>
      </g>
    </g>
    <path id="Path_3524" data-name="Path 3524" d="M360.424,283.027v-39.92h-1.374v39.92" transform="translate(-143.474 -98.833)" fill="#1a1311"/>
    <path id="Path_3461" data-name="Path 3461" d="M360.424,319.3V243.107h-1.374V319.3" transform="translate(-105.474 -136.107)" fill="#1a1311"/>
    <path id="Path_3525" data-name="Path 3525" d="M360.424,280.794V243.107h-1.374v37.687" transform="translate(497.369 -215.24) rotate(90)" fill="#1a1311"/>
  </g>
</svg>
