<svg id="圖層_1" data-name="圖層 1" xmlns="http://www.w3.org/2000/svg" viewBox="0 0 442.51 283.4"><g id="Group_587" data-name="Group 587"><path id="Path_11" data-name="Path 11" d="M439.33,182.26c-.38.66-1.43.74-2.28.92S199.45,213.1,175.3,216.65c-14.89,2.2-25.48,3-27.34,3.44a7.61,7.61,0,0,0-2.12.43c-.3.17-.78,1.25-1,1.41s-.6.37-.91.53c-1.19.86-1.94,1.39-2.82,1.92-1.4.84-1.29-.38-.68-1.56a79.59,79.59,0,0,0,5.14-11c2-5.54,1.82-11.2,1.34-12.55-.13-.37-.3-3.12-4.63-3.12-1,0-.88.72-1,1.14-.23.78-.75,2.7-1.1,4.41a50.12,50.12,0,0,1-2.51,8.23,46.1,46.1,0,0,1-3.1,6.21c-.48.91-1.2,2-2,3.25s-1.17,2-1.5,2.41-1.48.65-2,.75c-.72.13-2.46.39-4,.57-3.63.43-14.2,4.29-21.79,5.65-2.61.46-9,1-9,1,.3-1.74,1.13-6.41,1.53-8.56,1.8-9.63,2.74-16.6,3.08-18.19a8.93,8.93,0,0,0,.06-3.64,10.76,10.76,0,0,0-1.25-2.71c-1.46-2.8-5.77-9.19-6.28-9.88s-1-.64-1.37,0c-.3.5-.55,1.21-.2,1.68,1.3,1.75,5.52,7.26,6.75,10a4.55,4.55,0,0,1,.58,3,1.22,1.22,0,0,1-.68.89c-.63.26-1.49,2-1.67,3.08-.38,2.25-.87,5-1,6a1.48,1.48,0,0,0,.87,1.6c.54.34.42,1.17.29,1.92-.26,1.61-3.49,20.22-4.18,23a15.61,15.61,0,0,1-2.36,5.7A10.73,10.73,0,0,1,84,246.88c-3.37,1.29-8.19,2.25-16.78.87-7.87-1.28-17.08-5-20-6.28-4.48-2-8.76-7.9-10.48-11.65-1-2.17-5.4-5.63-5.3-6.44.17-1.3-.06-3.3-.9-4.11s-2.07.5-1.31,1.51a2.69,2.69,0,0,1-.1,3.81,2.9,2.9,0,0,1-.53.39c-1.8,1.28-9.85.29-14.07-3.53-5.53-5-4.75-11.15-3.11-13.91s4.16-3.48,7.25-2.8c2.46.55,3.24,1.37,3.69,1.88a.76.76,0,0,0,1,.23c.57-.2.19-.93,0-1.41-.66-1.5-4.75-2.64-6.09-2.58a2.11,2.11,0,0,1-1-.19,2,2,0,0,1-.58-1.18c-.19-.71-1.63-5.34-1.81-6.12a.84.84,0,0,1,.4-1.1l.14-.05c.87-.41,5.14-3.06,5.91-3.39.36-.16.91-.17,1.1.19s-.17.69-.69.95a30.61,30.61,0,0,0-5.15,3.1,1.64,1.64,0,0,0-.51,1.08c.12.7.55.3.95.11a5.09,5.09,0,0,1,1.41-.57c.58-.06.92.34.56.69-.61.59-.51,1.22-.07,1.28s1-.2,1.44-.12a.31.31,0,0,1,.29.34.29.29,0,0,1-.15.25,10.52,10.52,0,0,1-1.65,1.14c-.63.41-1.28.83-1,1.32a.63.63,0,0,0,.87.25.36.36,0,0,0,.12-.08A11.47,11.47,0,0,1,22,198.41c1.59-.54,3.69-1.76,4.13-1.87s.52-.43.65-1c.05-.24-.43-.71-.69-1-.44-.39-.11-.76,0-1.25.27-.87.15-1.26-.91-1.46s-1.16-.65-1.63-1.33.18-1.36.1-2a1,1,0,0,0-1-.93c-.23,0-.66,0-.65-.35,0-.53,1-.69,1.33-.93A1.37,1.37,0,0,0,23.9,185a2.53,2.53,0,0,0-1.17-1.47A1.52,1.52,0,0,1,22,182a1.43,1.43,0,0,0-.43-1.25c-.35-.4-1.31-.16-1.76,0a21.32,21.32,0,0,0-4.44,2.8c-2.13,1.61-4,3.65-4.77,4.24a.81.81,0,0,1-1.15-.07.66.66,0,0,1-.12-.17c-.41-.66-.1-1.15.35-1.84a23.33,23.33,0,0,1,4.83-4.42,30.47,30.47,0,0,1,4.91-2.93c.74-.35,1.38-.43,1.36-1.25,0-.48-.7-.48-1.38-.23a23.39,23.39,0,0,0-5.5,3.38c-2.47,2-4,3.46-4.67,4.13-.47.46-1.11.46-1.72-.38s-1.42-1.7-1.89-2.42a2.35,2.35,0,0,1-.33-1.81,12.94,12.94,0,0,1,.62-2.67c.31-.58.66-1.88.91-2.29s1-.57,1-.24-.2.65-.32,1c-.33,1-.14,1.28.43,2.12a.86.86,0,0,0,1.14.34c.68-.27,3-2.27,5.9-4.51a58.38,58.38,0,0,1,6-4c.53-.26.77-.26,1-1.25s1.21-2.47.16-2.63a.53.53,0,0,1-.49-.56.39.39,0,0,1,.07-.23c.1-.28.81-.69,1.07-1.12a4.82,4.82,0,0,1,2.29-2.17c.3-.16.52-.56.6-1.4s-.8-.82-1.26-.63c-.69.29-5,3.28-6,4-.24.18-.68.38-.9.19s0-.5.32-.92,2.62-1.87,4.68-3.46a15.8,15.8,0,0,1,3.94-2.13c.56-.2,1.05-.79.7-1.12s-.61-.75-1.23-.62a42.74,42.74,0,0,0-8.79,4.46,35.87,35.87,0,0,0-6.83,5.39c-.68.86-1.26,1.13-1.41,1s-.24-.65.25-1.67a13.43,13.43,0,0,1,2.9-4.21c1.16-1,1.57-2.53,2.5-3.36s3-1.27,4.11-2.1a18.94,18.94,0,0,1,4.75-2.45c3-1.48,5.5-3.88,7.63-5.36,2.68-1.86,8.42-1.55,11.51-.87.86.19,1.59.37,1.84-.19a1,1,0,0,0-.23-1.33,17.27,17.27,0,0,0-6.59-2.56,21.67,21.67,0,0,0-7.27.36c-.48.08-1.39.15-1.38-.33s.24-1,1.37-1.58a58,58,0,0,0,8.53-5.28c1.91-1.56,5.62-3.55,13.55-4.21s12.35-.44,15.43,2.2,4.7,9,4.73,12.36a3.8,3.8,0,0,0,1.63,3.12c.6.42,5.72,6.15,9.14,14.3a82.64,82.64,0,0,1,5.14,19.61,1.1,1.1,0,0,0,1,.85c.42.1.77-.5.76-1.41a77.9,77.9,0,0,0-4.63-19,64.4,64.4,0,0,0-9.45-15.85c-1.08-1.06-1.29-1.52-1.45-3.53-.07-1-1.22-7.88-5.33-12-4.34-4.34-10.1-5.53-13.37-6-3.11-.47-7.46.79-9.42,1.18-1.67.33-2,.26-2.21,0a7.14,7.14,0,0,1-.54-2.23c-.19-1.64-7.32-67.1-7.76-70a4.28,4.28,0,0,1,0-2,1.24,1.24,0,0,1,1.1-.66c2.71-.4,61.56-7.73,110.43-14.23,33.12-4.4,265.94-34,266.88-34.12s2-.2,2.4.13a1.68,1.68,0,0,1,.61,1.3c.21,1.64,21.58,172,21.85,174.19C439.35,180.37,439.62,181.77,439.33,182.26Z" style="fill:#fdf3df;stroke:#252626"/><path id="Path_12" data-name="Path 12" d="M48.35,196.53c1.32-.62,1-2.72.31-3.85a2.51,2.51,0,0,0-2.16-.88,3,3,0,0,0-1.58,3.67c.52,1.54,2.11,1.67,3.43,1.06" style="fill:#191210;stroke:#252626"/><path id="Path_13" data-name="Path 13" d="M78.35,181.74a2.61,2.61,0,0,0-1.47,2.38,2.39,2.39,0,0,0,2.24,2.56h.31c1.26,0,1.94-1.37,1.81-2.72s-1.7-2.79-2.88-2.22" style="fill:#191210;stroke:#252626"/><path id="Path_14" data-name="Path 14" d="M34.94,183a2.27,2.27,0,0,0,.2,2.25,24.58,24.58,0,0,0,2.22,3.06c.35.45.56.84,1,.7s1-1.2,1.24-1.69A40.09,40.09,0,0,1,44,180.14c2.43-3.09,3.76-3.4,4.55-3.36s1.1-.59.48-1.1c-.8-.65-.77-1.21-1.26-2.78s-.67-2-2.63-2.46c-2.23-.49-2.77.47-3.73,1.6A23.9,23.9,0,0,0,37,178c-.75,1.58-1.7,4.27-2,5" style="fill:#191210;stroke:#252626"/><path id="Path_15" data-name="Path 15" d="M83.45,168.85a14.79,14.79,0,0,0-6.82-4.39c-3.12-1-4.34-.27-5,.17a3.81,3.81,0,0,0-1.43,1.92,15.57,15.57,0,0,0-.29,2.64c0,.67.77,1.35,1.9,1.55a37.14,37.14,0,0,1,4.81.58c2,.51,3.11,1.77,5.22,2.23.72.16,1.15.07,1.26-.46a10.52,10.52,0,0,1,.75-2.57c.36-.67.17-1.09-.36-1.67" style="fill:#191210;stroke:#252626"/><path id="Path_16" data-name="Path 16" d="M62.38,187c-.64-.57-2.77-2.52-3.91-3.41a2.27,2.27,0,0,0-2.79.29c-1,.75-.88,1.75.22,1.93a6.78,6.78,0,0,1,2.9,1.41A9.52,9.52,0,0,0,62,189.06a1.12,1.12,0,0,0,1.55-.72c.16-.38-.7-1-1.13-1.34" style="fill:#191210;stroke:#252626"/><path id="Path_17" data-name="Path 17" d="M75.92,204.51a1,1,0,0,0,1.14.77h0c.78-.21,1.21-.43,1.33-.91.23-.84.34-2.09.57-3.05a2.38,2.38,0,0,0-.62-2.4A25.66,25.66,0,0,0,75.26,196a29.19,29.19,0,0,1-3.37-4.75,9.88,9.88,0,0,1-1.74-5,37.17,37.17,0,0,1,1.25-7.4c.53-1.36.42-2.06-1.46-1.91-1.31.11-1,1.35-.84,2.24a47.71,47.71,0,0,1-.36,6.76c-.44,3.07-.22,4.6,2.08,7.7a23.05,23.05,0,0,0,4.47,4.73,3.17,3.17,0,0,1,1.31,2.88c-.25,1.27-.79,2.57-.68,3.34" style="fill:#191210;stroke:#252626"/><path id="Path_18" data-name="Path 18" d="M87.77,189.4c.68-.44.82-1.69-.59-1.69a21.41,21.41,0,0,0-4.05.75,10.71,10.71,0,0,0-4.43,1.7c-.79.64-.34,1.18.62,1.06a30.6,30.6,0,0,0,4-1c1.06-.32,3.5-.21,4.46-.83" style="fill:#191210;stroke:#252626"/><path id="Path_19" data-name="Path 19" d="M69.35,207.22a45.14,45.14,0,0,1,4.14-2,.85.85,0,0,0,.44-1.13.92.92,0,0,0-.31-.37,1.58,1.58,0,0,0-2,0c-1,.62-2.57,1.59-2.95,1.81s-.67.29-.79.89c0,.24.26.69.17.82s-.74,0-1,0a8.26,8.26,0,0,1-1.6-.65c-.41-.22-.46-.76-.81-1.27s-1.75.09-1.73.7a6.61,6.61,0,0,0,.28,1.77c.15.5.74.76,1.3.89s1.7.64,2.43.89c.56.19,1.62.33,1.65-1,0-.76.18-1.07.77-1.35" style="fill:#191210;stroke:#252626"/><path id="Path_20" data-name="Path 20" d="M43.71,204.31a.89.89,0,0,0,1.25.12l.1-.09a28.7,28.7,0,0,1,4.88-3.69,21.64,21.64,0,0,0,3.19-1.78c.89-.69,1.38-1.16.62-1.63a1.28,1.28,0,0,0-1.74.24,5.87,5.87,0,0,1-3.13,1.92c-2.05.58-4.84,3.21-5.06,3.57s-.33,1.14-.1,1.34" style="fill:#191210;stroke:#252626"/><path id="Path_21" data-name="Path 21" d="M57,210.31c-.81,2.79-4.9,5.81-5.73,6.3a.75.75,0,0,0,0,1.4,2.83,2.83,0,0,0,2.71-.48,31.2,31.2,0,0,0,4.9-4.78c.32-.45,1.22-1.07,1.41-2.05a1.42,1.42,0,0,0-1-1.77l-.26-.05c-1.42-.31-1.82.56-2.07,1.43" style="fill:#191210;stroke:#252626"/><path id="Path_22" data-name="Path 22" d="M89.86,205.75c.47-1-.75-1.25-1.13-1.33l-2.3-.5a2.17,2.17,0,0,0-2.3.74c-.46.66.15,1.05.67,1.21a23.7,23.7,0,0,0,3,1.22,1.94,1.94,0,0,0,2-1.34" style="fill:#191210;stroke:#252626"/><path id="Path_23" data-name="Path 23" d="M71.41,228.8a26.85,26.85,0,0,0,6.23-1.69,24.24,24.24,0,0,0,4.7-2.67,3.94,3.94,0,0,0,1.14-1.88c.32-.82,1.19-5.91,1.69-8.42a7.42,7.42,0,0,1,.69-1.93c.26-.43,1-.81,1-1.77,0-.65-.12-.92-.73-1a8.87,8.87,0,0,0-1.63-.09,3.65,3.65,0,0,0-1.81,1,16,16,0,0,1-3.38,1.07c-1.59.44-6.79,1.82-9.37,3.23-1.49.81-9,4.81-10.35,5.35a14.73,14.73,0,0,1-4.25.9c-1.14-.07-1.36.14-1.09,1.34a1.71,1.71,0,0,0,.84,1,26.32,26.32,0,0,0,6.75,2.88c3.23.85,6.6,2.24,7.53,2.45a5.69,5.69,0,0,0,2,.25m-7.65-5.68a16.2,16.2,0,0,0-2.22-1.07.78.78,0,0,1-.21-1.09.75.75,0,0,1,.36-.3,42.44,42.44,0,0,0,6.69-3,44.61,44.61,0,0,1,5.09-2.4c.58-.25,3.45-1.29,3.73-1.47a45.62,45.62,0,0,1,4.88-1.6,1,1,0,0,1,1.14.11,7.54,7.54,0,0,0,.73.53c.39.31.22.54.12.9s-.78,2.47-1,3.27A1.75,1.75,0,0,1,82,218.17a74.67,74.67,0,0,0-9.36,3.17,29,29,0,0,1-7.07,1.92c-.58.05-1,.3-1.77-.14m5.29,3.64c-.38-.08-.62-.24-.61-.62s.28-.38.6-.46a11.29,11.29,0,0,0,5.11-1.1c2.88-1.25,6.32-2.32,6.58-2.56a2.7,2.7,0,0,0,.51-.78c.12-.27.16-.64.43-.57s.3.2.2.66a10.44,10.44,0,0,1-.33,1.55,2,2,0,0,1-1,1,56.93,56.93,0,0,1-5.47,2.44,10.56,10.56,0,0,1-6,.49" style="fill:#191210;stroke:#252626"/><path id="Path_24" data-name="Path 24" d="M68.79,232.9c.54.26,4.88,1.37,6,1.62a2.62,2.62,0,0,0,1.36.09,12.62,12.62,0,0,0,3.22-1.09c1.25-.65,2.81-1.26,3.16-1.41a1.18,1.18,0,0,0,.61-.67,15.08,15.08,0,0,0,.6-1.87c0-.32.08-.68-.29-.87a.75.75,0,0,0-.87,0,15.37,15.37,0,0,1-3,1.82c-1.84.82-4.64,1.59-5.18,1.85a1.88,1.88,0,0,1-.85.1c-.58-.07-3.9-.87-4.48-1s-1.41-.2-1.29.31a1.58,1.58,0,0,0,1,1.08" style="fill:#191210;stroke:#252626"/><path id="Path_25" data-name="Path 25" d="M48.64,228.84a49.43,49.43,0,0,0,4.79,6.45A48.92,48.92,0,0,0,58.89,241c.31.2.84,0,.45-.6-.25-.41-2.35-2.37-4.2-4.83s-2.69-4.4-3.41-5.41a19.67,19.67,0,0,1-3.15-5.45A21.46,21.46,0,0,1,47.11,217a.81.81,0,0,0-1.43-.56,2.23,2.23,0,0,0-.53,2.5c.23.67,1.26,6.13,3.49,9.92" style="fill:#191210;stroke:#252626"/><path id="Path_26" data-name="Path 26" d="M24.21,203.26a13.09,13.09,0,0,0,3.16-1.07c.89-.54.36-1.51-1-1.18-.68.18-1.47.57-1.74-.35-.2-.67.56-.64,1.56-1.24s.17-1.34-.7-1.3A5.21,5.21,0,0,0,23,199.19a.92.92,0,0,0-.26,1.27,1,1,0,0,0,.4.33c.43.21.9.35.4,1.2-.29.49-.14,1.44.66,1.28" style="fill:#191210;stroke:#252626"/><path id="Path_27" data-name="Path 27" d="M21.6,212.2a5,5,0,0,0-2.78,2.5c-.6,1.4-.61,3.4,1.23,4.05a7.51,7.51,0,0,0,5.87-.49c.74-.43,1-.87.48-1.6s-.86-.45-1.6-.06a4.56,4.56,0,0,1-2.41.45c-1.17-.1-2.22-.72-2.08-1.57.24-1.54,1.19-1.68,2.28-1.92a1.84,1.84,0,0,0,1.64-1.47c.25-.78.12-1.34-.9-2.25a9.19,9.19,0,0,0-5.75-2.48A5,5,0,0,0,14,208.5a5.2,5.2,0,0,0-1.5,3.06,2.21,2.21,0,0,0,.42,1.29c.35.45.57.17.76-.4a6.29,6.29,0,0,1,1.37-2.9c.81-.71,2.88-.24,4,0,1.74.45,2.61,1.32,2.68,1.67s.15.8-.17.92" style="fill:#191210;stroke:#252626"/><path id="Path_28" data-name="Path 28" d="M54.08,134.83a1.94,1.94,0,0,1-1.64.2c-.51-.11-.94.35-1.2.64s-.49.66-1.06.54a1.74,1.74,0,0,0-1.6.66c-.2.28-.61.78-.9.77s-.58-.43-1.2-.51a2,2,0,0,0-1.77,1c-.32.55-.29.48-1.07.67s-.88,1,.34,1.12c1.37.16,3.52,2.09,4.43,2.54,1.1.55,2.13.68,2.75-.12.43-.55,1.59-.27,2.19.29a2.1,2.1,0,0,0,2.32.29,1.41,1.41,0,0,1,1.37.36,1.11,1.11,0,0,0,1.56.05h0c.29-.44.87-.56,1.87.1a.94.94,0,0,0,1.3-.24,1,1,0,0,0,.1-.21c.31-.63,1.32,0,1.77.75s1.45.82,1.66-.22c.45-2.24-1.65-4.27-3.67-6.29a15.08,15.08,0,0,0-5.44-3.15c-.78-.17-1.22-.07-2.14.77" style="fill:#191210;stroke:#252626"/><path id="Path_29" data-name="Path 29" d="M67.11,137.08a18,18,0,0,0-4.53-3.76c-.57-.38-1.51-.86-2.11-.41-.86.65-.51,1.2.15,1.68a21.76,21.76,0,0,1,4.49,4.5,20.28,20.28,0,0,1,2.43,5c.51,1.1,1.45.73,2,.37s.42-1.08.2-2a15,15,0,0,0-2.68-5.38" style="fill:#191210;stroke:#252626"/><path id="Path_30" data-name="Path 30" d="M441.83,181c-.14-1.54-21.39-175.76-21.91-178.35-.19-1-.41-1.59-.94-1.91-.69-.42-2.41-.18-4,0-1.88.2-279,36.32-330.65,42.94-27.56,3.53-48.12,5.7-49.18,5.81a2.77,2.77,0,0,0-2.2,1,6.82,6.82,0,0,0-.09,2.7c.4,2.68,7.58,68.57,8,71.14a10.9,10.9,0,0,1,.32,3.55c-.24.37-1.15.63-1.84.89a41.87,41.87,0,0,0-7.28,3.85c-4.15,2.75-5.9,7.38-6.38,8.73a7.27,7.27,0,0,1-.82,2,4.13,4.13,0,0,1-1.67,1,29.23,29.23,0,0,0-10.34,5.42c-5.55,4.26-7.74,12-7.91,12.88s-2.21,4.62-3,6.82-.58,6.73-.6,8.25S.5,179.46.5,181c0,1.25,1.06,1.56,1.6,1.92a3.87,3.87,0,0,1,1.44,2c.6,1.92,2.64,6.88,3.67,9.18s2.44,5.68,4.8,8.34c.78.79,1,1.14.64,1.44a11.08,11.08,0,0,0-3.27,3.2c-1.87,3.31-2.42,9,1.68,14.72,4.78,6.72,14.75,8.12,17.61,5.49,1.62-1.5,1.7-1.4,2.6.29a63.37,63.37,0,0,0,5.64,9.08,25.8,25.8,0,0,0,5.48,4.9c1,.79,1.06,1.21,1.2,2.62s.57,6.49-.24,9.86c-1.19,4.93-2.35,7.73-3,8.66s-1.17,1.46-1,1.93.65.56,1.66.72A32.5,32.5,0,0,0,46,266.53c.3,0,.26-.75.58-.71a7.43,7.43,0,0,1,2.13.5c.48.23.91.71,1.5.81s1.33-.6,2-.53c.26,0,.59.68.86.7.5.05,1,.1,1.5.17l.93.13c.28,0,.18.42.45.47s.64.26,1,.07.68-.8,1-.79.78,0,.95.28.58.95.73,1c.77.2,1.5.4,2.18.6s.9.57,1.41.73,1.24-.08,1.75.1l.75.3c.26.11.29.28.54.4s.68,0,1,.19a11.53,11.53,0,0,1,1.5.91c.3.2.4.61.68.81s.69.3.88.43c.43.29.69.07,1.37.16.46.06,1,.56,1.52.71.29.08.65-.17.83-.14a2.18,2.18,0,0,0,1.75-.38A.87.87,0,0,0,76,272.3c-.31-.41-.74-.64-1.2-1.14a2.29,2.29,0,0,1-.62-1.88c0-1.15.69-5.08,1-7,.16-1.06,1.28-1.06,2.5-.8a2.11,2.11,0,0,1,1.73,1.35,9.58,9.58,0,0,1,.81,3.57c.13,1.62,0,3.2.07,4.68,0,.75,0,1.53.5,1.6s.74-.35,1.09-.76.68-.82,2-.49c.71.18,6.15,1.2,7,1.38.67.15,1.36,1.67,1.85,2.25s.84.15,1.21-.39c.48-.72.64-1,.66-1.4a11.27,11.27,0,0,0-1-2.3,39.39,39.39,0,0,1-2.39-7.86c-.13-1-1.36-1.48-2.18-1.73a40.2,40.2,0,0,1-5-2.06,9.73,9.73,0,0,1-3.46-3.66,12.09,12.09,0,0,0-2.72-3.55,1,1,0,0,1-.53-1c.06-.43.58-.59.77-.66.4-.14,2-.3,2.64-.44a18.79,18.79,0,0,0,4.44-1.46,10.88,10.88,0,0,0,4.1-3c1.6-2,2.45-3,3.63-8.1.71-3.1,1.51-8.16,3-16.24,1.79-9.63,2.74-16.59,3.08-18.18a9.11,9.11,0,0,0,.06-3.64,11.77,11.77,0,0,0-1.25-2.72c-1.46-2.8-5.77-9.18-6.28-9.86s-1-.66-1.37,0c-.3.5-.55,1.2-.2,1.67,1.3,1.75,5.52,7.26,6.75,10a4.57,4.57,0,0,1,.57,3,1.22,1.22,0,0,1-.68.89c-.63.26-1.48,2-1.66,3.07-.38,2.26-.87,5.06-1.06,6a1.46,1.46,0,0,0,.88,1.59c.54.35.41,1.19.29,1.94-.27,1.6-3.5,20.2-4.19,23a15.77,15.77,0,0,1-2.35,5.7,10.65,10.65,0,0,1-4.4,3.19c-3.36,1.29-8.19,2.26-16.77.87-7.88-1.27-17.09-5-20-6.27-4.5-2-8.77-7.92-10.47-11.66-1-2.18-5.4-5.63-5.3-6.44.15-1.3-.07-3.3-.91-4.11s-2.07.51-1.3,1.51a2.7,2.7,0,0,1-.12,3.81,3.21,3.21,0,0,1-.52.39c-1.79,1.27-9.85.28-14.08-3.54-5.52-5-4.75-11.15-3.1-13.91s4.16-3.47,7.26-2.79c2.45.53,3.23,1.35,3.68,1.87a.79.79,0,0,0,1,.23c.56-.2.18-.92,0-1.4-.67-1.52-4.76-2.65-6.09-2.59a2.15,2.15,0,0,1-1-.19,2,2,0,0,1-.58-1.18c-.19-.71-1.62-5.34-1.81-6.11a.83.83,0,0,1,.4-1.1l.14-.05c.87-.42,5.14-3.06,5.91-3.4.37-.16.91-.17,1.11.19s-.17.69-.69.95a30.61,30.61,0,0,0-5.15,3.1,1.6,1.6,0,0,0-.51,1.08c.12.7.55.29.95.11a5.59,5.59,0,0,1,1.41-.58c.58-.05.93.35.57.7-.62.59-.52,1.22-.07,1.28s1-.2,1.43-.13a.32.32,0,0,1,.29.35.31.31,0,0,1-.15.25,10.92,10.92,0,0,1-1.64,1.14c-.64.41-1.28.83-1,1.32a.63.63,0,0,0,.86.25.38.38,0,0,0,.13-.09A11.43,11.43,0,0,1,22,198.4c1.58-.53,3.69-1.75,4.12-1.87s.53-.43.65-1c.05-.24-.43-.71-.69-.95-.44-.4-.11-.77,0-1.25.27-.89.15-1.27-.9-1.48s-1.17-.64-1.64-1.32.18-1.36.1-2a1,1,0,0,0-1-.95c-.24,0-.67,0-.66-.34,0-.53,1-.69,1.33-.93a1.37,1.37,0,0,0,.55-1.35c-.09-.67-.67-1.06-1.17-1.47A1.52,1.52,0,0,1,22,182a1.37,1.37,0,0,0-.43-1.24c-.34-.41-1.3-.16-1.75,0a20.59,20.59,0,0,0-4.45,2.8c-2.12,1.61-4,3.64-4.76,4.24a.82.82,0,0,1-1.15-.09.52.52,0,0,1-.12-.17c-.42-.66-.1-1.15.34-1.83a24.19,24.19,0,0,1,4.83-4.43,31.71,31.71,0,0,1,4.92-2.92c.75-.35,1.39-.44,1.37-1.26,0-.47-.71-.48-1.37-.22A23.21,23.21,0,0,0,14,180.21c-2.47,2-4,3.47-4.67,4.13-.46.47-1.11.46-1.72-.39s-1.42-1.68-1.89-2.4a2.33,2.33,0,0,1-.33-1.8A12.88,12.88,0,0,1,6,177.07c.32-.58.66-1.89.91-2.29s1-.57,1-.24-.2.65-.32,1c-.34,1-.14,1.28.43,2.12a.86.86,0,0,0,1.14.34c.68-.27,3-2.27,5.9-4.5a55.86,55.86,0,0,1,6-4c.52-.26.77-.26,1-1.26s1.21-2.47.17-2.62a.54.54,0,0,1-.43-.8c.1-.27.81-.68,1.07-1.12a4.94,4.94,0,0,1,2.29-2.16c.31-.16.52-.57.6-1.4s-.81-.81-1.26-.63c-.7.28-5,3.27-6,4-.22.17-.67.37-.9.19s0-.5.33-.92,2.62-1.87,4.67-3.47a15.34,15.34,0,0,1,3.95-2.11c.56-.22,1-.8.7-1.13s-.61-.74-1.23-.62a42.45,42.45,0,0,0-8.79,4.45,36.33,36.33,0,0,0-6.83,5.4c-.69.86-1.27,1.14-1.41,1s-.23-.65.25-1.67a13.39,13.39,0,0,1,2.9-4.2c1.16-1,1.56-2.54,2.5-3.37s3-1.26,4.1-2.1a19.42,19.42,0,0,1,4.75-2.44c3-1.47,5.5-3.87,7.62-5.35,2.69-1.88,8.43-1.56,11.52-.89.87.19,1.6.37,1.85-.18a1,1,0,0,0-.25-1.34,17.31,17.31,0,0,0-6.58-2.55,21.35,21.35,0,0,0-7.26.35c-.49.1-1.4.16-1.38-.33s.23-1,1.36-1.57a57.19,57.19,0,0,0,8.53-5.29c1.91-1.55,5.63-3.54,13.56-4.21s12.33-.43,15.42,2.21,4.7,9,4.73,12.36a3.76,3.76,0,0,0,1.64,3.11,47.89,47.89,0,0,1,9.13,14.3,83.1,83.1,0,0,1,5.15,19.62c.06.44.42.73,1,.85s.78-.51.76-1.41a77.87,77.87,0,0,0-4.63-19,64.34,64.34,0,0,0-9.45-15.84c-1.08-1.07-1.29-1.53-1.45-3.54-.07-1-1.22-7.87-5.33-12-4.35-4.34-10.1-5.53-13.37-6-3.1-.47-7.46.8-9.41,1.18-1.68.33-2,.25-2.22,0a7.2,7.2,0,0,1-.54-2.24c-.19-1.63-7.32-67.09-7.76-70a4.14,4.14,0,0,1,0-2,1.26,1.26,0,0,1,1.1-.66c2.71-.4,61.56-7.72,110.43-14.22,33.1-4.4,265.93-34.06,266.86-34.12s2-.21,2.41.13a1.65,1.65,0,0,1,.6,1.31c.21,1.62,21.59,171.94,21.84,174.18.11.94.38,2.34.1,2.83-.4.66-1.44.74-2.28.92S199.45,213.11,175.3,216.66c-14.89,2.19-25.48,3-27.35,3.43a7.62,7.62,0,0,0-2.11.43c-.31.17-.79,1.24-1,1.4s-.57.3-.91.54c-1.19.86-1.94,1.39-2.82,1.92-1.4.84-1.29-.38-.68-1.56a80.89,80.89,0,0,0,5.14-11c2-5.54,1.82-11.19,1.34-12.55-.12-.37-.3-3.11-4.63-3.12-1,0-.89.72-1,1.15-.23.78-.74,2.69-1.11,4.41a48.49,48.49,0,0,1-2.5,8.23,45,45,0,0,1-3.1,6.21c-.48.9-1.2,2-2,3.24s-1.18,2-1.51,2.42a4.67,4.67,0,0,1-2,.74c-.73.14-2.46.39-4,.58-3.63.43-13.58,1.8-21.2,2.93-2.28.34-5.25.72-5.45.79-.87.33-1,.76-1.1,1.67s1.22.89,2.14.77,26.07-3.64,27.25-3.73c.53,0,1.27-.26,1.26.07a9.58,9.58,0,0,1-1.34,2,3.59,3.59,0,0,0-.64,2.22c0,1.1.17,11.82.24,18.48s.28,11.06.36,11.72a4,4,0,0,0,1.64,2.78c.57.39,5.48,3.65,9.15,6.49a16.79,16.79,0,0,1,3.24,3.44c.83,1,1.34,1.39,1.83,1.47.73.13,1.62-.82,2.54-1.21a23.65,23.65,0,0,0,4.26-2.3,3,3,0,0,0,1-1.87c.2-1,2.28-9.94,4.12-16.3a37.23,37.23,0,0,1,2.19-6c.66-1,1.4-1.43,1.51-2.93.14-1.81-.29-7.3-.27-8.93,0-1.42.56-3.48-1.86-4.14-2-.55-1.74-2.68-3.45-4.22a8.77,8.77,0,0,0-2.8-1.19,2.31,2.31,0,0,1-1-.84.82.82,0,0,1-.17-1.14l0,0c.34-.51,1.78-.68,2.64-.78.69-.09,230.45-28.78,253.43-32.08,17.78-2.54,33.83-4.28,35.05-4.49a2.47,2.47,0,0,0,2.1-1.18c.44-.8.31-1.44.11-3.65Z" style="fill:#191210;stroke:#252626"/><path id="Path_31" data-name="Path 31" d="M14.34,188.14c.5-.35,1.54-.67,1.33-.2a3.54,3.54,0,0,1-1.18,1.16c-.23.13-.6.18-.7,0s.37-.8.55-.93" style="fill:#191210;stroke:#252626"/><path id="Path_32" data-name="Path 32" d="M13,192.11a32.88,32.88,0,0,0,3.25-2.24A9.48,9.48,0,0,1,19.37,188c.24-.11,1.06-.27,1.17-.07s-.08.3-.31.48a28.51,28.51,0,0,0-3.18,2.14,18.44,18.44,0,0,1-3.14,2.09c-.36.15-.94.45-1.15.19s0-.49.28-.7" style="fill:#191210;stroke:#252626"/><path id="Path_33" data-name="Path 33" d="M134.94,273.23a52.83,52.83,0,0,0-9.56-7.41,4.14,4.14,0,0,0-4.23.15A137.81,137.81,0,0,0,111,275.28c-.48.63-.68,1.5-.28,1.78a5.37,5.37,0,0,0,2.22.14c.46,0,.85-.32,1.47-.24a20.48,20.48,0,0,1,2,.37c.59.13-.07.5.66.7a13.59,13.59,0,0,0,2.38.8,11,11,0,0,0,1.4.12c.55,0,1,.5,1.54.6.17,0,1.2-.1,1.35-.05,1,.32,1.85.59,2.66.83s1.2-.09,1.83.07,1.66.72,2.2.84c.82.19,1.33.62,1.8.73,1.5.34,2.51-.91,3.16-1.36a2.05,2.05,0,0,1,2.36.24c.44.32,1.4,1.21,1.92,1.66s1,.56,1.43.13a2.17,2.17,0,0,0,.08-1.78c-.39-1.26-2.35-3.62-6.27-7.63" style="fill:#191210;stroke:#252626"/><g id="waiting_room" data-name="waiting room" style="isolation:isolate"><g style="isolation:isolate"><path d="M154.06,85.64q.76-4.11,1.51-7.86c.5-2.5,1-4.74,1.4-6.73s.81-3.44,1.11-4.37a2.74,2.74,0,0,1,.79-1.5,2,2,0,0,1,1.59-.21,9.51,9.51,0,0,1,1.87.45l1.83.65a2.49,2.49,0,0,1,1.43,1.15,10,10,0,0,1,.48,2.22c.07.59.18,1.61.31,3.07s.28,3.19.45,5.15.37,4.1.59,6.38.42,4.53.63,6.74q.64-4.27,1.42-9t1.49-9c.48-2.83.92-5.39,1.34-7.67s.75-4,1-5.18.48-1.64.82-1.79a2.67,2.67,0,0,1,1.77.24,19.28,19.28,0,0,1,3.72,2.18,3.9,3.9,0,0,1,1.25,2.22,7.64,7.64,0,0,1,0,2.57q-.49,2.47-1,5.79c-.36,2.21-.75,4.54-1.14,7s-.8,5-1.2,7.56-.78,5.14-1.13,7.62-.68,4.84-1,7.09-.6,4.25-.83,6a2.38,2.38,0,0,1-.89,1.67,3.21,3.21,0,0,1-2.1.25,17.51,17.51,0,0,1-2.42-.51c-.57-.18-1.27-.36-2.1-.55a3.59,3.59,0,0,1-1.91-1.5,7.5,7.5,0,0,1-1-2.32c-.19-.82-.42-1.84-.68-3s-.55-2.52-.84-3.9-.56-2.79-.84-4.24-.5-2.83-.67-4.17c-.41,1.79-.81,3.68-1.23,5.66s-.82,3.91-1.21,5.78-.74,3.63-1,5.26-.58,3-.77,4.07c-.22.92-.52,1.47-.89,1.67a2.55,2.55,0,0,1-1.54.17,27.26,27.26,0,0,1-4.91-1.13,2.76,2.76,0,0,1-1.55-1.16,7.19,7.19,0,0,1-.78-2.54c-.3-1.65-.63-3.54-1-5.68s-.68-4.39-1-6.77-.62-4.88-.91-7.41-.56-5-.83-7.48-.49-4.85-.68-7.15-.36-4.41-.48-6.3a3.36,3.36,0,0,1,.3-2c.26-.32.77-.44,1.55-.33s1.73.29,2.48.47a7.83,7.83,0,0,1,2.15.89,3.74,3.74,0,0,1,1.59,2.24,12.82,12.82,0,0,1,.48,2.89c.07.88.16,2.2.27,4s.23,3.76.37,6,.32,4.56.52,7,.39,4.8.61,7.06C153.08,90.94,153.55,88.37,154.06,85.64Z" style="fill:#252626"/><path d="M197.17,93.05a36.19,36.19,0,0,0-5.15,2.2c-.37,1.66-.68,3.22-.94,4.67s-.5,2.87-.74,4.26c-.16.74-.38,1.2-.68,1.36a1.83,1.83,0,0,1-1.45-.13l-1.25-.56a12.57,12.57,0,0,1-1.4-.74,5.77,5.77,0,0,1-1.2-1,2.82,2.82,0,0,1-.69-1.31,11,11,0,0,1,0-2.6c.39-2.85.9-6.09,1.55-9.71s1.33-7.31,2.07-11.07,1.5-7.42,2.3-11,1.56-6.66,2.27-9.29A6.12,6.12,0,0,1,193,55.86a3.15,3.15,0,0,1,2.48-1,18.67,18.67,0,0,1,4.85.19c1.27.26,2.46.52,3.6.8a2.61,2.61,0,0,1,1.72,1.2,6.06,6.06,0,0,1,.59,2.31q.4,3.57,1.09,8.53c.45,3.3,1,6.81,1.57,10.5s1.22,7.45,1.87,11.28,1.29,7.49,1.92,11a2.58,2.58,0,0,1-.05,1.59c-.17.32-.61.53-1.31.62s-1.38.15-2,.17a5.53,5.53,0,0,1-2-.34,2.93,2.93,0,0,1-1.55-.94,6.5,6.5,0,0,1-.91-2.36c-.29-1.19-.59-2.48-.9-3.88s-.61-2.91-.91-4.52Zm4.14-11.22c-.48-3-.95-5.93-1.41-8.84s-.89-5.73-1.25-8.47q-.94,3.93-2.1,8.91T194.28,83.9A71.65,71.65,0,0,1,201.31,81.83Z" style="fill:#252626"/><path d="M221.48,55.47A3.72,3.72,0,0,1,223,56.9a4.48,4.48,0,0,1,.24,2c-.13,1.59-.25,3.44-.35,5.58s-.19,4.4-.28,6.8-.16,4.9-.22,7.5-.12,5.14-.17,7.64-.08,4.92-.1,7.23,0,4.4,0,6.26a2.38,2.38,0,0,1-.38,1.45c-.22.24-.71.28-1.45.13s-1.47-.4-2.17-.61a8.39,8.39,0,0,1-2-.87,3.2,3.2,0,0,1-1.43-1.44,7.05,7.05,0,0,1-.49-2.51c-.1-1.42-.19-3.2-.26-5.33s-.12-4.44-.15-6.94-.06-5.1-.07-7.81,0-5.33,0-7.88.07-4.94.13-7.19.14-4.17.23-5.75c.09-.95.3-1.55.65-1.8a2.07,2.07,0,0,1,1.7-.1,12.81,12.81,0,0,1,2.59.83A16.65,16.65,0,0,1,221.48,55.47Z" style="fill:#252626"/><path d="M247.26,57c-1.13.29-2.28.6-3.47.93q-.16,4.53-.33,9.54t-.32,10.15q-.15,5.13-.22,10.16c0,3.35-.06,6.53,0,9.54a1.91,1.91,0,0,1-.22,1.23,1,1,0,0,1-.81.37,4.64,4.64,0,0,1-1.3-.22l-1.69-.47a7.72,7.72,0,0,1-3-1.51,4.21,4.21,0,0,1-1.09-3.42c-.12-1.93-.22-4.27-.28-7s-.1-5.59-.11-8.56,0-5.93.06-8.9.14-5.68.24-8.11c-.69.27-1.36.5-2,.72a10.21,10.21,0,0,0-1.66.66,2.37,2.37,0,0,1-1.51.3A3.11,3.11,0,0,1,228,61.28a11.51,11.51,0,0,1-1.7-2.51q-.81-1.55-1.32-2.55c-.35-.72-.46-1.21-.32-1.49a1.82,1.82,0,0,1,.85-.74c1.37-.57,2.93-1.13,4.7-1.7s3.57-1.11,5.42-1.61,3.65-.94,5.44-1.35,3.39-.74,4.79-1a3.61,3.61,0,0,1,1.63.07,2.45,2.45,0,0,1,1,.79,13.38,13.38,0,0,1,1.6,2.27,18.86,18.86,0,0,1,1.18,2.45,3,3,0,0,1,.27,1.58c-.09.29-.5.52-1.24.7Z" style="fill:#252626"/><path d="M262.14,50.12a3.78,3.78,0,0,1,1.49,1.42,4.5,4.5,0,0,1,.24,2c-.13,1.58-.25,3.44-.35,5.57s-.19,4.4-.28,6.81-.16,4.9-.22,7.49-.12,5.14-.17,7.65-.08,4.91-.09,7.22,0,4.4,0,6.27a2.43,2.43,0,0,1-.38,1.45q-.33.36-1.44.12l-2.18-.6a8.6,8.6,0,0,1-2-.88,3.13,3.13,0,0,1-1.43-1.43,7.1,7.1,0,0,1-.49-2.51c-.1-1.43-.19-3.2-.26-5.33s-.11-4.45-.15-6.94-.05-5.1-.07-7.81,0-5.33,0-7.88.07-4.94.13-7.2.14-4.17.23-5.75a2.55,2.55,0,0,1,.65-1.8,2,2,0,0,1,1.7-.09,12.21,12.21,0,0,1,2.59.83A16.19,16.19,0,0,1,262.14,50.12Z" style="fill:#252626"/><path d="M284.49,72.15q-.27-7.28-.11-14.06t.39-12.22a2.46,2.46,0,0,1,.62-1.83,2.15,2.15,0,0,1,1.72-.19,15.3,15.3,0,0,1,2,.5,12.77,12.77,0,0,1,2.25,1.16,3.29,3.29,0,0,1,1.48,1.62,6,6,0,0,1,.23,2.23q-.18,3.9-.3,9.09t-.14,10.73c0,3.68,0,7.34-.05,11s0,6.9,0,9.82q.12,2.4-2.22,2a21.55,21.55,0,0,1-4.15-1.11,6,6,0,0,1-3.06-3.41c-.53-1.2-1.11-2.58-1.72-4.16s-1.22-3.26-1.84-5.06-1.24-3.66-1.88-5.57-1.24-3.81-1.83-5.73q0,3.57-.1,7.23t-.09,7q0,3.38-.05,6.36c0,2,0,3.75,0,5.27a1.87,1.87,0,0,1-.35,1.41c-.25.23-.74.24-1.49,0l-2.13-.51a5.74,5.74,0,0,1-2.07-1,3.26,3.26,0,0,1-1.37-1.44,6.46,6.46,0,0,1-.43-2.52c-.06-1.09-.1-2.6-.15-4.52s-.08-4.09-.12-6.5-.06-5-.06-7.68,0-5.38,0-8,.05-5.13.12-7.52.15-4.46.25-6.26a2.65,2.65,0,0,1,.76-1.94,2.13,2.13,0,0,1,1.75-.23c.92.22,1.83.46,2.74.72A20,20,0,0,1,276,47.86a3.71,3.71,0,0,1,1.8,1.38,10.08,10.08,0,0,1,1.1,2.75l1,3.71c.42,1.54.88,3.21,1.39,5s1,3.72,1.61,5.7S284,70.32,284.49,72.15Z" style="fill:#252626"/><path d="M320.17,58.94a3.43,3.43,0,0,1-.4,1.51,1.55,1.55,0,0,1-1.31.43,6.25,6.25,0,0,1-4.26-1.66,8.5,8.5,0,0,1-2.1-4.17c-.09-.33-.16-.66-.23-1s-.12-.68-.17-1.06-.1-.74-.17-1.09-.15-.69-.23-1c-.17-.61-.33-1.14-.5-1.58s-.37-.69-.63-.75c-.53-.14-1.09.23-1.67,1.11a16.36,16.36,0,0,0-1.65,3.62,46.6,46.6,0,0,0-1.42,5.37,59.37,59.37,0,0,0-1,6.41,43.31,43.31,0,0,0-.29,5.76,38.44,38.44,0,0,0,.44,5.5,20.34,20.34,0,0,0,1.07,4.25c.44,1.15,1,1.83,1.6,2a1.38,1.38,0,0,0,1.5-.39,6.3,6.3,0,0,0,1.33-2,17.75,17.75,0,0,0,1.12-3.1c.33-1.21.62-2.49.86-3.83a4.31,4.31,0,0,1-3.84-.74,9.81,9.81,0,0,1-2.61-4.32c-.33-.93-.2-1.57.39-1.9a15.34,15.34,0,0,1,2.35-1,29.11,29.11,0,0,1,2.9-1.11c1-.32,1.89-.62,2.62-.88a4,4,0,0,1,2.16-.22,3.23,3.23,0,0,1,1.71,1.17,13.08,13.08,0,0,1,1.13,1.37l1,1.4A5.88,5.88,0,0,1,321,69.32a10.35,10.35,0,0,1,.09,2.59,44.29,44.29,0,0,1-2,9.48,20,20,0,0,1-3.36,6.35,7.28,7.28,0,0,1-6.46,2.57,16.11,16.11,0,0,1-6.53-1.81,12,12,0,0,1-4.29-5.09,25.15,25.15,0,0,1-2-5.93,44.3,44.3,0,0,1-.91-7.16,58.73,58.73,0,0,1,.16-7.71A57.09,57.09,0,0,1,296.84,55a42.9,42.9,0,0,1,2.2-6.93,23.46,23.46,0,0,1,3.21-5.57,5.29,5.29,0,0,1,2.73-2,8.75,8.75,0,0,1,2.93-.39,14.41,14.41,0,0,1,4,.78,11,11,0,0,1,3.59,2,8.78,8.78,0,0,1,2.23,2.66,16.37,16.37,0,0,1,1.31,3.49,24.4,24.4,0,0,1,.48,2.41c.14.91.26,1.82.36,2.72s.16,1.76.21,2.61S320.18,58.35,320.17,58.94Z" style="fill:#252626"/></g><g style="isolation:isolate"><path d="M190.06,166.7c-.1,2.47-.18,4.87-.23,7.18s-.11,4.62-.14,6.91a2.32,2.32,0,0,1-.39,1.39q-.33.36-1.38.18a18.08,18.08,0,0,0-2-.43,4.42,4.42,0,0,1-1.74-.66,3.36,3.36,0,0,1-1.22-1.52,8.18,8.18,0,0,1-.46-2.58q0-1.77-.15-5.19c-.07-2.28-.13-4.8-.2-7.57s-.12-5.62-.14-8.56,0-5.66.1-8.18.24-4.64.46-6.38.51-2.79.89-3.14q2.07-1.67,4.36-3.27a21.4,21.4,0,0,1,4.6-2.48,10.33,10.33,0,0,1,4.52-.69,6.6,6.6,0,0,1,4.11,2,34.21,34.21,0,0,1,3,3.67,20.78,20.78,0,0,1,2.55,5.13,11.16,11.16,0,0,1,.64,5.77,18.29,18.29,0,0,1-3.33,7.52,41.15,41.15,0,0,1-6.64,7c.75.91,1.58,1.91,2.49,3s1.83,2.13,2.8,3.19,1.91,2.07,2.84,3,1.81,1.8,2.62,2.54,1,1.16,1,1.58a2.39,2.39,0,0,1-.52,1.4,2.81,2.81,0,0,1-1.08,1.2l-1.23.51a3.86,3.86,0,0,1-2,.48,5.23,5.23,0,0,1-2.76-1.13c-.71-.58-1.55-1.32-2.51-2.21s-2-1.86-3-2.91-2.05-2.16-3.07-3.32S190.93,167.86,190.06,166.7Zm1.44-22.81c-.18,1.81-.34,3.77-.46,5.88s-.28,4.39-.47,6.83a20.66,20.66,0,0,0,4.28-3.68,24,24,0,0,0,2.93-4.07,14.2,14.2,0,0,0,1.48-3.69,4.43,4.43,0,0,0,0-2.55q-.69-1.37-2.88-1.08a8.81,8.81,0,0,0-2.32.69A10.15,10.15,0,0,0,191.5,143.89Z" style="fill:#252626"/><path d="M229.93,131.21a10.41,10.41,0,0,1,2.58,3,19.12,19.12,0,0,1,1.61,3.79,56,56,0,0,1,1.63,8.53,65,65,0,0,1,.41,9.6,57.42,57.42,0,0,1-1.07,9.48,28.54,28.54,0,0,1-2.82,8.09,8.22,8.22,0,0,1-3.12,3.05,8.57,8.57,0,0,1-4.18.84,22,22,0,0,1-3.32-.36,9.88,9.88,0,0,1-3.24-1.19,14.46,14.46,0,0,1-2.42-2,9.93,9.93,0,0,1-2-2.91,29,29,0,0,1-2-5.9,48.85,48.85,0,0,1-1.05-6.79,57.13,57.13,0,0,1-.15-7.19,48.11,48.11,0,0,1,.83-7.17,46,46,0,0,1,1.83-6.65,25.21,25.21,0,0,1,2.84-5.69,8,8,0,0,1,2.77-2.36,6.22,6.22,0,0,1,3.3-.79,18.32,18.32,0,0,1,4.14.83A10.45,10.45,0,0,1,229.93,131.21Zm-5.16,5.7c-.53-.15-1.07.26-1.62,1.2a16.85,16.85,0,0,0-1.52,3.69,45.31,45.31,0,0,0-1.2,5.15q-.51,2.87-.73,5.49a47.93,47.93,0,0,0-.12,5.67,44.62,44.62,0,0,0,.51,5.5,20.89,20.89,0,0,0,1.07,4.27c.45,1.17,1,1.86,1.67,2.07s1.15,0,1.71-.73a9.85,9.85,0,0,0,1.49-3.15,34.1,34.1,0,0,0,1.09-5,56,56,0,0,0,.57-6.3,54.41,54.41,0,0,0,0-5.72q-.15-3-.52-5.65a25,25,0,0,0-1-4.44Q225.55,137.12,224.77,136.91Z" style="fill:#252626"/><path d="M258.85,127.4a10.41,10.41,0,0,1,2.58,3,19,19,0,0,1,1.61,3.8,55.64,55.64,0,0,1,1.63,8.52,65,65,0,0,1,.41,9.6,57.66,57.66,0,0,1-1.07,9.49,29.08,29.08,0,0,1-2.82,8.09,8.19,8.19,0,0,1-3.12,3,8.59,8.59,0,0,1-4.18.84,22,22,0,0,1-3.32-.36,9.66,9.66,0,0,1-3.24-1.19,14.46,14.46,0,0,1-2.42-2,9.93,9.93,0,0,1-2-2.91,28.76,28.76,0,0,1-2-5.9,48.85,48.85,0,0,1-1-6.79,57.09,57.09,0,0,1-.15-7.19,47.82,47.82,0,0,1,.83-7.16,45.81,45.81,0,0,1,1.83-6.66,25.13,25.13,0,0,1,2.84-5.68,8,8,0,0,1,2.77-2.37,6.2,6.2,0,0,1,3.3-.78,17.77,17.77,0,0,1,4.14.82A10.84,10.84,0,0,1,258.85,127.4Zm-5.16,5.7q-.8-.21-1.62,1.2a16.85,16.85,0,0,0-1.52,3.69,45.82,45.82,0,0,0-1.2,5.15c-.34,1.91-.58,3.74-.74,5.5a50.19,50.19,0,0,0-.11,5.67,46.78,46.78,0,0,0,.5,5.49,21,21,0,0,0,1.08,4.28c.45,1.17,1,1.86,1.67,2.06s1.15,0,1.71-.73a9.85,9.85,0,0,0,1.49-3.15,34.1,34.1,0,0,0,1.09-5,58.46,58.46,0,0,0,.57-6.3q.15-2.69,0-5.72t-.52-5.65a25.23,25.23,0,0,0-1-4.44Q254.47,133.31,253.69,133.1Z" style="fill:#252626"/><path d="M276.9,148.47c0,2.64-.1,5.2-.13,7.71s0,4.88,0,7.15.07,4.28.13,6a2.71,2.71,0,0,1-.37,1.54c-.22.26-.68.33-1.37.21a15,15,0,0,1-2-.53,9.78,9.78,0,0,1-1.92-.86,3.66,3.66,0,0,1-1.53-1.45,6.46,6.46,0,0,1-.51-2.47c-.12-1.55-.22-3.42-.3-5.62s-.13-4.53-.16-7,0-5.07,0-7.72.06-5.23.09-7.73.08-4.86.15-7.08.15-4.1.24-5.68a3.48,3.48,0,0,1,.73-2.19,2.4,2.4,0,0,1,1.85-.44,21.8,21.8,0,0,1,3.39.44c.94.22,1.9.5,2.87.83a4.05,4.05,0,0,1,2.43,1.75,16.29,16.29,0,0,1,1.06,3,16.67,16.67,0,0,0,.32,1.74c.14.58.3,1.21.48,1.91l1,4.19,1,4.44,1.08,4.3c.24-1.34.54-2.82.88-4.43s.68-3.25,1-4.9.73-3.31,1.13-4.95.78-3.16,1.15-4.57c.34-1.57.65-2.86.92-3.87a8.8,8.8,0,0,1,.93-2.35,2.23,2.23,0,0,1,1.32-1,4.46,4.46,0,0,1,2.12.14c1,.2,2.17.47,3.37.79a25,25,0,0,1,3.57,1.28,3.21,3.21,0,0,1,1.65,1.4,5.08,5.08,0,0,1,.33,2.53c-.08,1.67-.15,3.61-.21,5.85s-.14,4.6-.21,7.11-.13,5.09-.16,7.74-.06,5.2-.1,7.64-.06,4.72-.06,6.84,0,3.91.05,5.39a4.63,4.63,0,0,1-.41,1.71c-.21.36-.68.47-1.42.31a19.85,19.85,0,0,1-2.1-.48,7.09,7.09,0,0,1-1.89-.84,3.19,3.19,0,0,1-1.53-1.45,5.87,5.87,0,0,1-.45-2.48c-.08-1.22-.14-2.78-.2-4.67s-.1-4-.12-6.22,0-4.57,0-7,.08-4.73.17-6.94c-.47,2-1,4.16-1.49,6.58s-1.05,4.82-1.56,7.19-1,4.64-1.4,6.79-.73,4-1,5.44a7.43,7.43,0,0,1-.5,1.78c-.15.27-.62.36-1.4.25a15.52,15.52,0,0,1-3-.75,4.49,4.49,0,0,1-.82-.43,2.86,2.86,0,0,1-.65-.65,4.3,4.3,0,0,1-.59-1.06c-.19-.44-.39-1-.61-1.7q-1.24-4.22-2.58-9.51t-2.49-10.73C277,143.24,277,145.84,276.9,148.47Z" style="fill:#252626"/></g></g></g></svg>