<svg xmlns="http://www.w3.org/2000/svg" xmlns:xlink="http://www.w3.org/1999/xlink" width="24.381" height="13.79" viewBox="0 0 24.381 13.79">
  <defs>
    <clipPath id="clip-path">
      <rect id="Rectangle_681" data-name="Rectangle 681" width="24.381" height="13.79" transform="translate(286.866 636.44)" fill="none"/>
    </clipPath>
  </defs>
  <g id="Group_896" data-name="Group 896" transform="translate(-286.866 -636.44)">
    <g id="Group_566" data-name="Group 566" clip-path="url(#clip-path)">
      <path id="Path_2123" data-name="Path 2123" d="M310.094,637.6c.024-1.143.028-1.159-1.016-1.132a1.352,1.352,0,0,0-.842.231,10.683,10.683,0,0,0-1.041,1.259l2.9,1.326c0-.59-.01-1.138,0-1.684" fill="#1a1311" fill-rule="evenodd"/>
      <path id="Path_2124" data-name="Path 2124" d="M307.185,646.332c.364.45.689.872,1.037,1.27a.636.636,0,0,0,.392.214,7.732,7.732,0,0,0,1.189,0c.106-.008.288-.171.291-.267.023-.833.014-1.666.014-2.548l-2.923,1.33" fill="#1a1311" fill-rule="evenodd"/>
      <path id="Path_2125" data-name="Path 2125" d="M307.262,642.179a.448.448,0,0,0,0-.052c0-.139.133-.285.375-.328l3.61-.56a4.8,4.8,0,0,0-.6-.721,9.772,9.772,0,0,0-3.6-1.925,30.462,30.462,0,0,0-9.253-1.572,17.359,17.359,0,0,0-7.089,1.041,5.907,5.907,0,0,0-2.354,1.61,3.789,3.789,0,0,0,.706,5.611,10.586,10.586,0,0,0,5.64,1.872,30.265,30.265,0,0,0,12.1-1.379,10.024,10.024,0,0,0,3.829-1.986,4.487,4.487,0,0,0,.606-.727l-3.594-.556c-.242-.044-.378-.189-.375-.328" fill="#1a1311"/>
      <path id="Path_2126" data-name="Path 2126" d="M298.027,650.154a15.29,15.29,0,0,0,1.867,0c.762,0,1.025-1.582,1.1-2.467l-4.017.248s.209,2.143,1.047,2.219" fill="#1a1311" fill-rule="evenodd"/>
      <path id="Path_2127" data-name="Path 2127" d="M301.235,638.815a3.122,3.122,0,0,0-2.209.9l-1.015.976-1-.961a3.138,3.138,0,1,0-.01,4.456l1.012-.973,1,.958a3.14,3.14,0,1,0,2.222-5.361m-5.512,4.076a1.352,1.352,0,0,1-1.871,0,1.319,1.319,0,0,1,0-1.871,1.306,1.306,0,0,1,.934-.387,1.329,1.329,0,0,1,.948.4l.963.923Zm6.446,0a1.347,1.347,0,0,1-1.886-.014l-.959-.923.974-.934a1.352,1.352,0,0,1,1.871,0,1.324,1.324,0,0,1,0,1.871" fill="#fff3d8"/>
    </g>
  </g>
</svg>
